G04 #@! TF.GenerationSoftware,KiCad,Pcbnew,(5.1.4)-1*
G04 #@! TF.CreationDate,2019-08-25T10:21:43-07:00*
G04 #@! TF.ProjectId,mudd_keychain,6d756464-5f6b-4657-9963-6861696e2e6b,A*
G04 #@! TF.SameCoordinates,Original*
G04 #@! TF.FileFunction,Soldermask,Bot*
G04 #@! TF.FilePolarity,Negative*
%FSLAX46Y46*%
G04 Gerber Fmt 4.6, Leading zero omitted, Abs format (unit mm)*
G04 Created by KiCad (PCBNEW (5.1.4)-1) date 2019-08-25 10:21:43*
%MOMM*%
%LPD*%
G04 APERTURE LIST*
%ADD10C,0.010000*%
%ADD11C,0.100000*%
G04 APERTURE END LIST*
D10*
G36*
X143367635Y-104064797D02*
G01*
X143013818Y-104084764D01*
X142590315Y-104114214D01*
X142128603Y-104150384D01*
X141660164Y-104190513D01*
X141216474Y-104231837D01*
X140829014Y-104271594D01*
X140529262Y-104307022D01*
X140348698Y-104335360D01*
X140310975Y-104347469D01*
X140336639Y-104428258D01*
X140467793Y-104572508D01*
X140669149Y-104749578D01*
X140905422Y-104928825D01*
X141141323Y-105079607D01*
X141176170Y-105098773D01*
X141319271Y-105168861D01*
X141464343Y-105217635D01*
X141643188Y-105248106D01*
X141887606Y-105263282D01*
X142229397Y-105266175D01*
X142700363Y-105259793D01*
X142847909Y-105256986D01*
X143616388Y-105256141D01*
X144312234Y-105283412D01*
X144913090Y-105336638D01*
X145396598Y-105413657D01*
X145740400Y-105512305D01*
X145808131Y-105543273D01*
X145998033Y-105609725D01*
X146232148Y-105651995D01*
X146453938Y-105665531D01*
X146606862Y-105645777D01*
X146642667Y-105610494D01*
X146577657Y-105433789D01*
X146404621Y-105200256D01*
X146156551Y-104946812D01*
X145866436Y-104710373D01*
X145792395Y-104659041D01*
X145200005Y-104352587D01*
X144512929Y-104148182D01*
X143781007Y-104059639D01*
X143620287Y-104057075D01*
X143367635Y-104064797D01*
X143367635Y-104064797D01*
G37*
X143367635Y-104064797D02*
X143013818Y-104084764D01*
X142590315Y-104114214D01*
X142128603Y-104150384D01*
X141660164Y-104190513D01*
X141216474Y-104231837D01*
X140829014Y-104271594D01*
X140529262Y-104307022D01*
X140348698Y-104335360D01*
X140310975Y-104347469D01*
X140336639Y-104428258D01*
X140467793Y-104572508D01*
X140669149Y-104749578D01*
X140905422Y-104928825D01*
X141141323Y-105079607D01*
X141176170Y-105098773D01*
X141319271Y-105168861D01*
X141464343Y-105217635D01*
X141643188Y-105248106D01*
X141887606Y-105263282D01*
X142229397Y-105266175D01*
X142700363Y-105259793D01*
X142847909Y-105256986D01*
X143616388Y-105256141D01*
X144312234Y-105283412D01*
X144913090Y-105336638D01*
X145396598Y-105413657D01*
X145740400Y-105512305D01*
X145808131Y-105543273D01*
X145998033Y-105609725D01*
X146232148Y-105651995D01*
X146453938Y-105665531D01*
X146606862Y-105645777D01*
X146642667Y-105610494D01*
X146577657Y-105433789D01*
X146404621Y-105200256D01*
X146156551Y-104946812D01*
X145866436Y-104710373D01*
X145792395Y-104659041D01*
X145200005Y-104352587D01*
X144512929Y-104148182D01*
X143781007Y-104059639D01*
X143620287Y-104057075D01*
X143367635Y-104064797D01*
G36*
X142941334Y-106413112D02*
G01*
X142897333Y-106488906D01*
X142895888Y-106680329D01*
X142901179Y-106764667D01*
X142909268Y-106953966D01*
X142918159Y-107284552D01*
X142927317Y-107728386D01*
X142936209Y-108257427D01*
X142944300Y-108843635D01*
X142949531Y-109304667D01*
X142959676Y-110053045D01*
X142975167Y-110655537D01*
X142999128Y-111135576D01*
X143034685Y-111516594D01*
X143084962Y-111822024D01*
X143153086Y-112075300D01*
X143242182Y-112299853D01*
X143355375Y-112519117D01*
X143385234Y-112571415D01*
X143538932Y-112792712D01*
X143746607Y-113036470D01*
X143971442Y-113265803D01*
X144176621Y-113443823D01*
X144325327Y-113533645D01*
X144349986Y-113538000D01*
X144489925Y-113565924D01*
X144572213Y-113593538D01*
X144661592Y-113608312D01*
X144688182Y-113532599D01*
X144663871Y-113329946D01*
X144661956Y-113318371D01*
X144635981Y-113102157D01*
X144606951Y-112764623D01*
X144578574Y-112353647D01*
X144556469Y-111956667D01*
X144505969Y-110925668D01*
X144732345Y-110699292D01*
X144918334Y-110547874D01*
X145101106Y-110508742D01*
X145251801Y-110527898D01*
X145513368Y-110555533D01*
X145638501Y-110500562D01*
X145647072Y-110345508D01*
X145609882Y-110212962D01*
X145391304Y-109810538D01*
X145051492Y-109494126D01*
X144930677Y-109422746D01*
X144759887Y-109309312D01*
X144633522Y-109152962D01*
X144537395Y-108920998D01*
X144457318Y-108580724D01*
X144390737Y-108178294D01*
X144291724Y-107641169D01*
X144168619Y-107243260D01*
X144005947Y-106954668D01*
X143788234Y-106745493D01*
X143587729Y-106626790D01*
X143330900Y-106510410D01*
X143111943Y-106429574D01*
X143044333Y-106412496D01*
X142941334Y-106413112D01*
X142941334Y-106413112D01*
G37*
X142941334Y-106413112D02*
X142897333Y-106488906D01*
X142895888Y-106680329D01*
X142901179Y-106764667D01*
X142909268Y-106953966D01*
X142918159Y-107284552D01*
X142927317Y-107728386D01*
X142936209Y-108257427D01*
X142944300Y-108843635D01*
X142949531Y-109304667D01*
X142959676Y-110053045D01*
X142975167Y-110655537D01*
X142999128Y-111135576D01*
X143034685Y-111516594D01*
X143084962Y-111822024D01*
X143153086Y-112075300D01*
X143242182Y-112299853D01*
X143355375Y-112519117D01*
X143385234Y-112571415D01*
X143538932Y-112792712D01*
X143746607Y-113036470D01*
X143971442Y-113265803D01*
X144176621Y-113443823D01*
X144325327Y-113533645D01*
X144349986Y-113538000D01*
X144489925Y-113565924D01*
X144572213Y-113593538D01*
X144661592Y-113608312D01*
X144688182Y-113532599D01*
X144663871Y-113329946D01*
X144661956Y-113318371D01*
X144635981Y-113102157D01*
X144606951Y-112764623D01*
X144578574Y-112353647D01*
X144556469Y-111956667D01*
X144505969Y-110925668D01*
X144732345Y-110699292D01*
X144918334Y-110547874D01*
X145101106Y-110508742D01*
X145251801Y-110527898D01*
X145513368Y-110555533D01*
X145638501Y-110500562D01*
X145647072Y-110345508D01*
X145609882Y-110212962D01*
X145391304Y-109810538D01*
X145051492Y-109494126D01*
X144930677Y-109422746D01*
X144759887Y-109309312D01*
X144633522Y-109152962D01*
X144537395Y-108920998D01*
X144457318Y-108580724D01*
X144390737Y-108178294D01*
X144291724Y-107641169D01*
X144168619Y-107243260D01*
X144005947Y-106954668D01*
X143788234Y-106745493D01*
X143587729Y-106626790D01*
X143330900Y-106510410D01*
X143111943Y-106429574D01*
X143044333Y-106412496D01*
X142941334Y-106413112D01*
G36*
X138784808Y-104521275D02*
G01*
X138768667Y-104523766D01*
X138128729Y-104684304D01*
X137605352Y-104935945D01*
X137210760Y-105270097D01*
X136957177Y-105678171D01*
X136904954Y-105833334D01*
X136856994Y-106051240D01*
X136850663Y-106248944D01*
X136891001Y-106484764D01*
X136983045Y-106817024D01*
X136992737Y-106849334D01*
X137112975Y-107257401D01*
X137177162Y-107532096D01*
X137177797Y-107702270D01*
X137107378Y-107796775D01*
X136958403Y-107844463D01*
X136726338Y-107873864D01*
X136150123Y-108014518D01*
X135640313Y-108294543D01*
X135265067Y-108653273D01*
X135054860Y-109039569D01*
X134962287Y-109531754D01*
X134987548Y-110133481D01*
X135130841Y-110848405D01*
X135392367Y-111680179D01*
X135437007Y-111802334D01*
X135575774Y-112140796D01*
X135727430Y-112410310D01*
X135920965Y-112640221D01*
X136185371Y-112859872D01*
X136549636Y-113098609D01*
X136948333Y-113332135D01*
X137360051Y-113574039D01*
X137784453Y-113835246D01*
X138160217Y-114077496D01*
X138344172Y-114203017D01*
X138893344Y-114591107D01*
X139995172Y-114647356D01*
X141068044Y-114699826D01*
X141991886Y-114740144D01*
X142763541Y-114768234D01*
X143379854Y-114784022D01*
X143837669Y-114787434D01*
X144133831Y-114778395D01*
X144265183Y-114756831D01*
X144272000Y-114748400D01*
X144200122Y-114609150D01*
X144009908Y-114435407D01*
X143739492Y-114257422D01*
X143500816Y-114136608D01*
X142916630Y-113928215D01*
X142243670Y-113784507D01*
X141464952Y-113703838D01*
X140563491Y-113684564D01*
X139522300Y-113725038D01*
X139361333Y-113735590D01*
X138387667Y-113802316D01*
X137670193Y-113349982D01*
X136952718Y-112897647D01*
X136680939Y-112034595D01*
X136523852Y-111485766D01*
X136386689Y-110911304D01*
X136276102Y-110348969D01*
X136198746Y-109836521D01*
X136161278Y-109411720D01*
X136168364Y-109126125D01*
X136297435Y-108691995D01*
X136549457Y-108372560D01*
X136918802Y-108172331D01*
X137399842Y-108095817D01*
X137455183Y-108095143D01*
X137648140Y-108102531D01*
X137831676Y-108132246D01*
X138029179Y-108195614D01*
X138264035Y-108303963D01*
X138559631Y-108468619D01*
X138939354Y-108700908D01*
X139426589Y-109012157D01*
X139657667Y-109161849D01*
X140758333Y-109876494D01*
X140826646Y-110838083D01*
X140878817Y-111406196D01*
X140953340Y-111838830D01*
X141065140Y-112169674D01*
X141229141Y-112432420D01*
X141460265Y-112660757D01*
X141718555Y-112851536D01*
X142053792Y-113067425D01*
X142272189Y-113178303D01*
X142385706Y-113189095D01*
X142409218Y-113135834D01*
X142394930Y-113028689D01*
X142356910Y-112797539D01*
X142302254Y-112484881D01*
X142278441Y-112352667D01*
X142236061Y-112045975D01*
X142193167Y-111603327D01*
X142152167Y-111058076D01*
X142115466Y-110443574D01*
X142085472Y-109793175D01*
X142076847Y-109558667D01*
X142046110Y-108748504D01*
X142008033Y-108084563D01*
X142004098Y-108046293D01*
X140966071Y-108046293D01*
X140958723Y-108541188D01*
X140930554Y-108941782D01*
X140882690Y-109226478D01*
X140816258Y-109373683D01*
X140781843Y-109389334D01*
X140689309Y-109343562D01*
X140481006Y-109216273D01*
X140180273Y-109022501D01*
X139810448Y-108777285D01*
X139397281Y-108497308D01*
X138977320Y-108203718D01*
X138602336Y-107929995D01*
X138296650Y-107694820D01*
X138084582Y-107516876D01*
X137991958Y-107417808D01*
X137939928Y-107238173D01*
X137904542Y-106953633D01*
X137893780Y-106652967D01*
X137929535Y-106207339D01*
X138043608Y-105882672D01*
X138256776Y-105640668D01*
X138536067Y-105469026D01*
X138856381Y-105326737D01*
X139121925Y-105264449D01*
X139376763Y-105288149D01*
X139664956Y-105403824D01*
X140030569Y-105617461D01*
X140139204Y-105686860D01*
X140858613Y-106150957D01*
X140913799Y-106859979D01*
X140951472Y-107478692D01*
X140966071Y-108046293D01*
X142004098Y-108046293D01*
X141952416Y-107543754D01*
X141869062Y-107102989D01*
X141747769Y-106739181D01*
X141578341Y-106429241D01*
X141350576Y-106150080D01*
X141054275Y-105878611D01*
X140679241Y-105591746D01*
X140215272Y-105266395D01*
X140165667Y-105232281D01*
X139742777Y-104944380D01*
X139431632Y-104741811D01*
X139206248Y-104611395D01*
X139040639Y-104539952D01*
X138908821Y-104514305D01*
X138784808Y-104521275D01*
X138784808Y-104521275D01*
G37*
X138784808Y-104521275D02*
X138768667Y-104523766D01*
X138128729Y-104684304D01*
X137605352Y-104935945D01*
X137210760Y-105270097D01*
X136957177Y-105678171D01*
X136904954Y-105833334D01*
X136856994Y-106051240D01*
X136850663Y-106248944D01*
X136891001Y-106484764D01*
X136983045Y-106817024D01*
X136992737Y-106849334D01*
X137112975Y-107257401D01*
X137177162Y-107532096D01*
X137177797Y-107702270D01*
X137107378Y-107796775D01*
X136958403Y-107844463D01*
X136726338Y-107873864D01*
X136150123Y-108014518D01*
X135640313Y-108294543D01*
X135265067Y-108653273D01*
X135054860Y-109039569D01*
X134962287Y-109531754D01*
X134987548Y-110133481D01*
X135130841Y-110848405D01*
X135392367Y-111680179D01*
X135437007Y-111802334D01*
X135575774Y-112140796D01*
X135727430Y-112410310D01*
X135920965Y-112640221D01*
X136185371Y-112859872D01*
X136549636Y-113098609D01*
X136948333Y-113332135D01*
X137360051Y-113574039D01*
X137784453Y-113835246D01*
X138160217Y-114077496D01*
X138344172Y-114203017D01*
X138893344Y-114591107D01*
X139995172Y-114647356D01*
X141068044Y-114699826D01*
X141991886Y-114740144D01*
X142763541Y-114768234D01*
X143379854Y-114784022D01*
X143837669Y-114787434D01*
X144133831Y-114778395D01*
X144265183Y-114756831D01*
X144272000Y-114748400D01*
X144200122Y-114609150D01*
X144009908Y-114435407D01*
X143739492Y-114257422D01*
X143500816Y-114136608D01*
X142916630Y-113928215D01*
X142243670Y-113784507D01*
X141464952Y-113703838D01*
X140563491Y-113684564D01*
X139522300Y-113725038D01*
X139361333Y-113735590D01*
X138387667Y-113802316D01*
X137670193Y-113349982D01*
X136952718Y-112897647D01*
X136680939Y-112034595D01*
X136523852Y-111485766D01*
X136386689Y-110911304D01*
X136276102Y-110348969D01*
X136198746Y-109836521D01*
X136161278Y-109411720D01*
X136168364Y-109126125D01*
X136297435Y-108691995D01*
X136549457Y-108372560D01*
X136918802Y-108172331D01*
X137399842Y-108095817D01*
X137455183Y-108095143D01*
X137648140Y-108102531D01*
X137831676Y-108132246D01*
X138029179Y-108195614D01*
X138264035Y-108303963D01*
X138559631Y-108468619D01*
X138939354Y-108700908D01*
X139426589Y-109012157D01*
X139657667Y-109161849D01*
X140758333Y-109876494D01*
X140826646Y-110838083D01*
X140878817Y-111406196D01*
X140953340Y-111838830D01*
X141065140Y-112169674D01*
X141229141Y-112432420D01*
X141460265Y-112660757D01*
X141718555Y-112851536D01*
X142053792Y-113067425D01*
X142272189Y-113178303D01*
X142385706Y-113189095D01*
X142409218Y-113135834D01*
X142394930Y-113028689D01*
X142356910Y-112797539D01*
X142302254Y-112484881D01*
X142278441Y-112352667D01*
X142236061Y-112045975D01*
X142193167Y-111603327D01*
X142152167Y-111058076D01*
X142115466Y-110443574D01*
X142085472Y-109793175D01*
X142076847Y-109558667D01*
X142046110Y-108748504D01*
X142008033Y-108084563D01*
X142004098Y-108046293D01*
X140966071Y-108046293D01*
X140958723Y-108541188D01*
X140930554Y-108941782D01*
X140882690Y-109226478D01*
X140816258Y-109373683D01*
X140781843Y-109389334D01*
X140689309Y-109343562D01*
X140481006Y-109216273D01*
X140180273Y-109022501D01*
X139810448Y-108777285D01*
X139397281Y-108497308D01*
X138977320Y-108203718D01*
X138602336Y-107929995D01*
X138296650Y-107694820D01*
X138084582Y-107516876D01*
X137991958Y-107417808D01*
X137939928Y-107238173D01*
X137904542Y-106953633D01*
X137893780Y-106652967D01*
X137929535Y-106207339D01*
X138043608Y-105882672D01*
X138256776Y-105640668D01*
X138536067Y-105469026D01*
X138856381Y-105326737D01*
X139121925Y-105264449D01*
X139376763Y-105288149D01*
X139664956Y-105403824D01*
X140030569Y-105617461D01*
X140139204Y-105686860D01*
X140858613Y-106150957D01*
X140913799Y-106859979D01*
X140951472Y-107478692D01*
X140966071Y-108046293D01*
X142004098Y-108046293D01*
X141952416Y-107543754D01*
X141869062Y-107102989D01*
X141747769Y-106739181D01*
X141578341Y-106429241D01*
X141350576Y-106150080D01*
X141054275Y-105878611D01*
X140679241Y-105591746D01*
X140215272Y-105266395D01*
X140165667Y-105232281D01*
X139742777Y-104944380D01*
X139431632Y-104741811D01*
X139206248Y-104611395D01*
X139040639Y-104539952D01*
X138908821Y-104514305D01*
X138784808Y-104521275D01*
G36*
X135568723Y-121039378D02*
G01*
X135509456Y-121156564D01*
X135493033Y-121343080D01*
X135600620Y-121464758D01*
X135852609Y-121541851D01*
X135906847Y-121551265D01*
X136108603Y-121570846D01*
X136203895Y-121518709D01*
X136251039Y-121362140D01*
X136251896Y-121357691D01*
X136279953Y-121182597D01*
X136250469Y-121091322D01*
X136125282Y-121045953D01*
X135905859Y-121013923D01*
X135682749Y-120997083D01*
X135568723Y-121039378D01*
X135568723Y-121039378D01*
G37*
X135568723Y-121039378D02*
X135509456Y-121156564D01*
X135493033Y-121343080D01*
X135600620Y-121464758D01*
X135852609Y-121541851D01*
X135906847Y-121551265D01*
X136108603Y-121570846D01*
X136203895Y-121518709D01*
X136251039Y-121362140D01*
X136251896Y-121357691D01*
X136279953Y-121182597D01*
X136250469Y-121091322D01*
X136125282Y-121045953D01*
X135905859Y-121013923D01*
X135682749Y-120997083D01*
X135568723Y-121039378D01*
G36*
X145716899Y-121115469D02*
G01*
X145575015Y-121222450D01*
X145569339Y-121361122D01*
X145693782Y-121464058D01*
X145935552Y-121479885D01*
X146146741Y-121440055D01*
X146255527Y-121356019D01*
X146246533Y-121232241D01*
X146144108Y-121121025D01*
X145976625Y-121074630D01*
X145716899Y-121115469D01*
X145716899Y-121115469D01*
G37*
X145716899Y-121115469D02*
X145575015Y-121222450D01*
X145569339Y-121361122D01*
X145693782Y-121464058D01*
X145935552Y-121479885D01*
X146146741Y-121440055D01*
X146255527Y-121356019D01*
X146246533Y-121232241D01*
X146144108Y-121121025D01*
X145976625Y-121074630D01*
X145716899Y-121115469D01*
G36*
X145781042Y-121791657D02*
G01*
X145615402Y-121894066D01*
X145561257Y-122027055D01*
X145582041Y-122085625D01*
X145696901Y-122143816D01*
X145898965Y-122171557D01*
X146108208Y-122165008D01*
X146244606Y-122120331D01*
X146247556Y-122117556D01*
X146296045Y-121993052D01*
X146304000Y-121905889D01*
X146262750Y-121795868D01*
X146112066Y-121753554D01*
X146018034Y-121750667D01*
X145781042Y-121791657D01*
X145781042Y-121791657D01*
G37*
X145781042Y-121791657D02*
X145615402Y-121894066D01*
X145561257Y-122027055D01*
X145582041Y-122085625D01*
X145696901Y-122143816D01*
X145898965Y-122171557D01*
X146108208Y-122165008D01*
X146244606Y-122120331D01*
X146247556Y-122117556D01*
X146296045Y-121993052D01*
X146304000Y-121905889D01*
X146262750Y-121795868D01*
X146112066Y-121753554D01*
X146018034Y-121750667D01*
X145781042Y-121791657D01*
G36*
X142689220Y-121546547D02*
G01*
X142592257Y-121712317D01*
X142508766Y-121934898D01*
X142530970Y-122048544D01*
X142673716Y-122087221D01*
X142757059Y-122089334D01*
X142934366Y-122073223D01*
X142978849Y-122007859D01*
X142959119Y-121941167D01*
X142881395Y-121727877D01*
X142855520Y-121644834D01*
X142782618Y-121511793D01*
X142689220Y-121546547D01*
X142689220Y-121546547D01*
G37*
X142689220Y-121546547D02*
X142592257Y-121712317D01*
X142508766Y-121934898D01*
X142530970Y-122048544D01*
X142673716Y-122087221D01*
X142757059Y-122089334D01*
X142934366Y-122073223D01*
X142978849Y-122007859D01*
X142959119Y-121941167D01*
X142881395Y-121727877D01*
X142855520Y-121644834D01*
X142782618Y-121511793D01*
X142689220Y-121546547D01*
G36*
X137837333Y-97832334D02*
G01*
X137879667Y-97874667D01*
X137922000Y-97832334D01*
X137879667Y-97790000D01*
X137837333Y-97832334D01*
X137837333Y-97832334D01*
G37*
X137837333Y-97832334D02*
X137879667Y-97874667D01*
X137922000Y-97832334D01*
X137879667Y-97790000D01*
X137837333Y-97832334D01*
G36*
X144102667Y-98001667D02*
G01*
X144145000Y-98044000D01*
X144187333Y-98001667D01*
X144145000Y-97959334D01*
X144102667Y-98001667D01*
X144102667Y-98001667D01*
G37*
X144102667Y-98001667D02*
X144145000Y-98044000D01*
X144187333Y-98001667D01*
X144145000Y-97959334D01*
X144102667Y-98001667D01*
G36*
X140966766Y-92760013D02*
G01*
X140878142Y-92843724D01*
X140636910Y-93136878D01*
X140402882Y-93527043D01*
X140201360Y-93959272D01*
X140057650Y-94378615D01*
X139997057Y-94730124D01*
X139996543Y-94758090D01*
X139986484Y-94994202D01*
X139961102Y-95141074D01*
X139943173Y-95165071D01*
X139837531Y-95135370D01*
X139642112Y-95061380D01*
X139586059Y-95038333D01*
X139114316Y-94913081D01*
X138689750Y-94944091D01*
X138326712Y-95126627D01*
X138039557Y-95455953D01*
X137976885Y-95569447D01*
X137805113Y-95950377D01*
X137722703Y-96260321D01*
X137721157Y-96566485D01*
X137791975Y-96936075D01*
X137799990Y-96968319D01*
X137897929Y-97338657D01*
X137978850Y-97559088D01*
X138062817Y-97644925D01*
X138169894Y-97611484D01*
X138320146Y-97474080D01*
X138380151Y-97411155D01*
X138565853Y-97225633D01*
X138714016Y-97135925D01*
X138896059Y-97116178D01*
X139140142Y-97136055D01*
X139452013Y-97187254D01*
X139733252Y-97264647D01*
X139839551Y-97308933D01*
X140103633Y-97530868D01*
X140321171Y-97879642D01*
X140471341Y-98314723D01*
X140524624Y-98642207D01*
X140570185Y-99144667D01*
X141026750Y-99144667D01*
X141331004Y-99124936D01*
X141494994Y-99068492D01*
X141516394Y-99038834D01*
X141550712Y-98891266D01*
X141594416Y-98657757D01*
X141605094Y-98594334D01*
X141753195Y-98042178D01*
X141991208Y-97623277D01*
X142313585Y-97343656D01*
X142714778Y-97209344D01*
X142890655Y-97197650D01*
X143327977Y-97243649D01*
X143628342Y-97384008D01*
X143779630Y-97578826D01*
X143883711Y-97736236D01*
X143988364Y-97738776D01*
X144101128Y-97581884D01*
X144209350Y-97318744D01*
X144322282Y-96804001D01*
X144308191Y-96291022D01*
X144176287Y-95816958D01*
X143935784Y-95418959D01*
X143680614Y-95186500D01*
X143408149Y-95042462D01*
X143143955Y-95009589D01*
X142837837Y-95088721D01*
X142584280Y-95204822D01*
X142172190Y-95413644D01*
X142263083Y-95172842D01*
X142299967Y-95020737D01*
X142290312Y-94841268D01*
X142227060Y-94590294D01*
X142118023Y-94265520D01*
X141875564Y-93655070D01*
X141626683Y-93168850D01*
X141381604Y-92825948D01*
X141306452Y-92750329D01*
X141192083Y-92660715D01*
X141097860Y-92659799D01*
X140966766Y-92760013D01*
X140966766Y-92760013D01*
G37*
X140966766Y-92760013D02*
X140878142Y-92843724D01*
X140636910Y-93136878D01*
X140402882Y-93527043D01*
X140201360Y-93959272D01*
X140057650Y-94378615D01*
X139997057Y-94730124D01*
X139996543Y-94758090D01*
X139986484Y-94994202D01*
X139961102Y-95141074D01*
X139943173Y-95165071D01*
X139837531Y-95135370D01*
X139642112Y-95061380D01*
X139586059Y-95038333D01*
X139114316Y-94913081D01*
X138689750Y-94944091D01*
X138326712Y-95126627D01*
X138039557Y-95455953D01*
X137976885Y-95569447D01*
X137805113Y-95950377D01*
X137722703Y-96260321D01*
X137721157Y-96566485D01*
X137791975Y-96936075D01*
X137799990Y-96968319D01*
X137897929Y-97338657D01*
X137978850Y-97559088D01*
X138062817Y-97644925D01*
X138169894Y-97611484D01*
X138320146Y-97474080D01*
X138380151Y-97411155D01*
X138565853Y-97225633D01*
X138714016Y-97135925D01*
X138896059Y-97116178D01*
X139140142Y-97136055D01*
X139452013Y-97187254D01*
X139733252Y-97264647D01*
X139839551Y-97308933D01*
X140103633Y-97530868D01*
X140321171Y-97879642D01*
X140471341Y-98314723D01*
X140524624Y-98642207D01*
X140570185Y-99144667D01*
X141026750Y-99144667D01*
X141331004Y-99124936D01*
X141494994Y-99068492D01*
X141516394Y-99038834D01*
X141550712Y-98891266D01*
X141594416Y-98657757D01*
X141605094Y-98594334D01*
X141753195Y-98042178D01*
X141991208Y-97623277D01*
X142313585Y-97343656D01*
X142714778Y-97209344D01*
X142890655Y-97197650D01*
X143327977Y-97243649D01*
X143628342Y-97384008D01*
X143779630Y-97578826D01*
X143883711Y-97736236D01*
X143988364Y-97738776D01*
X144101128Y-97581884D01*
X144209350Y-97318744D01*
X144322282Y-96804001D01*
X144308191Y-96291022D01*
X144176287Y-95816958D01*
X143935784Y-95418959D01*
X143680614Y-95186500D01*
X143408149Y-95042462D01*
X143143955Y-95009589D01*
X142837837Y-95088721D01*
X142584280Y-95204822D01*
X142172190Y-95413644D01*
X142263083Y-95172842D01*
X142299967Y-95020737D01*
X142290312Y-94841268D01*
X142227060Y-94590294D01*
X142118023Y-94265520D01*
X141875564Y-93655070D01*
X141626683Y-93168850D01*
X141381604Y-92825948D01*
X141306452Y-92750329D01*
X141192083Y-92660715D01*
X141097860Y-92659799D01*
X140966766Y-92760013D01*
G36*
X131821202Y-94184268D02*
G01*
X131272116Y-94327563D01*
X130774470Y-94615573D01*
X130601523Y-94756881D01*
X130323165Y-95019025D01*
X130121036Y-95264475D01*
X129983431Y-95527768D01*
X129898643Y-95843443D01*
X129854968Y-96246038D01*
X129840699Y-96770092D01*
X129840531Y-97002258D01*
X129844729Y-98204183D01*
X129525249Y-98258159D01*
X129082636Y-98414842D01*
X128643275Y-98728804D01*
X128222766Y-99188444D01*
X128158199Y-99274837D01*
X127845038Y-99662694D01*
X127483247Y-100043885D01*
X127112457Y-100381251D01*
X126772298Y-100637631D01*
X126597833Y-100737876D01*
X126416340Y-100842367D01*
X126325186Y-100929638D01*
X126322667Y-100940444D01*
X126396310Y-101037900D01*
X126575204Y-101102482D01*
X126796298Y-101119972D01*
X126971454Y-101086758D01*
X127155948Y-101045460D01*
X127263294Y-101067687D01*
X127285737Y-101195862D01*
X127237731Y-101420544D01*
X127137586Y-101694031D01*
X127003614Y-101968626D01*
X126854125Y-102196629D01*
X126810493Y-102247215D01*
X126629242Y-102506325D01*
X126610343Y-102722747D01*
X126753948Y-102894342D01*
X126764406Y-102901084D01*
X126887902Y-102936511D01*
X127067330Y-102899157D01*
X127343569Y-102779787D01*
X127380115Y-102761992D01*
X127712779Y-102619732D01*
X127982493Y-102543986D01*
X128163215Y-102538299D01*
X128228906Y-102606217D01*
X128220069Y-102647603D01*
X128237985Y-102778399D01*
X128331159Y-102993104D01*
X128431666Y-103167879D01*
X128677167Y-103612313D01*
X128836247Y-104024045D01*
X128898847Y-104370612D01*
X128870665Y-104584629D01*
X128731645Y-104802934D01*
X128524661Y-104982367D01*
X128313966Y-105069519D01*
X128285124Y-105071334D01*
X128019839Y-105003660D01*
X127737063Y-104828752D01*
X127499006Y-104588780D01*
X127437498Y-104496767D01*
X127211249Y-104143108D01*
X127022417Y-103919874D01*
X126880959Y-103837452D01*
X126825037Y-103857763D01*
X126766944Y-103985746D01*
X126712951Y-104217539D01*
X126691769Y-104361202D01*
X126642038Y-104781104D01*
X126363819Y-104502886D01*
X126124661Y-104325032D01*
X125866840Y-104225704D01*
X125643151Y-104219570D01*
X125539650Y-104273906D01*
X125531895Y-104388244D01*
X125601503Y-104591199D01*
X125725426Y-104835036D01*
X125880617Y-105072019D01*
X125985978Y-105198334D01*
X126226577Y-105452334D01*
X126020622Y-105689888D01*
X125848062Y-105991346D01*
X125842548Y-106311232D01*
X125884118Y-106440870D01*
X125942799Y-106534304D01*
X126035200Y-106508949D01*
X126111000Y-106454758D01*
X126184656Y-106408926D01*
X126280171Y-106378063D01*
X126420639Y-106362441D01*
X126629153Y-106362335D01*
X126928806Y-106378018D01*
X127342690Y-106409763D01*
X127893899Y-106457845D01*
X128123746Y-106478603D01*
X128444441Y-106500593D01*
X128661000Y-106487148D01*
X128836974Y-106426395D01*
X129032340Y-106308825D01*
X129244269Y-106136174D01*
X129388012Y-105959304D01*
X129415012Y-105896673D01*
X129426957Y-105728955D01*
X129418165Y-105444195D01*
X129390770Y-105093135D01*
X129374946Y-104944334D01*
X129333242Y-104514137D01*
X129302122Y-104065252D01*
X129287230Y-103682344D01*
X129286695Y-103620482D01*
X129277635Y-103309294D01*
X129236579Y-103079199D01*
X129141324Y-102860890D01*
X128969666Y-102585057D01*
X128941371Y-102542544D01*
X128781217Y-102279370D01*
X128678389Y-102063822D01*
X128652634Y-101938159D01*
X128655672Y-101931108D01*
X128782558Y-101875131D01*
X129029680Y-101886154D01*
X129035797Y-101887120D01*
X129356993Y-101938481D01*
X129442239Y-101538791D01*
X129486007Y-101302570D01*
X129473946Y-101149418D01*
X129382869Y-101013043D01*
X129195076Y-100832223D01*
X128988081Y-100616988D01*
X128888592Y-100431115D01*
X128862669Y-100210866D01*
X128862667Y-100207903D01*
X128935030Y-99797803D01*
X129140842Y-99472890D01*
X129463190Y-99240474D01*
X129885158Y-99107867D01*
X130389831Y-99082381D01*
X130960296Y-99171328D01*
X131143521Y-99221961D01*
X131639972Y-99414769D01*
X132018650Y-99649872D01*
X132062530Y-99687371D01*
X132454809Y-99982066D01*
X132894663Y-100222453D01*
X133279597Y-100360200D01*
X133446725Y-100446691D01*
X133678223Y-100624590D01*
X133927385Y-100857494D01*
X133956930Y-100888120D01*
X134195990Y-101128601D01*
X134409938Y-101325712D01*
X134556982Y-101441215D01*
X134569313Y-101448409D01*
X134658323Y-101485337D01*
X134699250Y-101449798D01*
X134700661Y-101309358D01*
X134673670Y-101053237D01*
X134609672Y-100713094D01*
X134509698Y-100383275D01*
X134449191Y-100242440D01*
X134330689Y-99996684D01*
X134298565Y-99847120D01*
X134360688Y-99739905D01*
X134524929Y-99621198D01*
X134541577Y-99610334D01*
X134766169Y-99413975D01*
X134933930Y-99174723D01*
X135029969Y-98932217D01*
X135039395Y-98726101D01*
X134947316Y-98596016D01*
X134926217Y-98586410D01*
X134778046Y-98588382D01*
X134555537Y-98649164D01*
X134492544Y-98673734D01*
X134117657Y-98781898D01*
X133771855Y-98794628D01*
X133507187Y-98710675D01*
X133488410Y-98697813D01*
X133379980Y-98551838D01*
X133282797Y-98313159D01*
X133255641Y-98210979D01*
X133167982Y-97961612D01*
X133032403Y-97719492D01*
X132878975Y-97524684D01*
X132737770Y-97417252D01*
X132659711Y-97417007D01*
X132617524Y-97520825D01*
X132591747Y-97734115D01*
X132588000Y-97864905D01*
X132533594Y-98237951D01*
X132366418Y-98485691D01*
X132080538Y-98614195D01*
X131833607Y-98636667D01*
X131432725Y-98578024D01*
X131110692Y-98390972D01*
X130843210Y-98058829D01*
X130752426Y-97894289D01*
X130619205Y-97645424D01*
X130508422Y-97463905D01*
X130454868Y-97398824D01*
X130389273Y-97293680D01*
X130472417Y-97187717D01*
X130526829Y-97161665D01*
X130697443Y-97178983D01*
X130864658Y-97293579D01*
X131027817Y-97416251D01*
X131174378Y-97421395D01*
X131274829Y-97382454D01*
X131426628Y-97280923D01*
X131490257Y-97177531D01*
X131443887Y-97116276D01*
X131408695Y-97112667D01*
X131305859Y-97058895D01*
X131132448Y-96922080D01*
X131027695Y-96827503D01*
X130792846Y-96546208D01*
X130713827Y-96277552D01*
X130792016Y-96000746D01*
X131028786Y-95695005D01*
X131107820Y-95616487D01*
X131410094Y-95364006D01*
X131636554Y-95260390D01*
X131790890Y-95304997D01*
X131873792Y-95482833D01*
X131923152Y-95693476D01*
X131957415Y-95821500D01*
X132055221Y-95915806D01*
X132208449Y-95912818D01*
X132342309Y-95823498D01*
X132375633Y-95760209D01*
X132540939Y-95503816D01*
X132829639Y-95327689D01*
X133206975Y-95251577D01*
X133273617Y-95250000D01*
X133680873Y-95299970D01*
X134141681Y-95433359D01*
X134579338Y-95625383D01*
X134754822Y-95728578D01*
X134894774Y-95838322D01*
X134902171Y-95924499D01*
X134846623Y-95990997D01*
X134706543Y-96068279D01*
X134550777Y-96020265D01*
X134391649Y-95946098D01*
X134288521Y-95959277D01*
X134185502Y-96082966D01*
X134111072Y-96202500D01*
X133981632Y-96518276D01*
X133943903Y-96852603D01*
X133997822Y-97148611D01*
X134112344Y-97324645D01*
X134193544Y-97397408D01*
X134264081Y-97431895D01*
X134359043Y-97419090D01*
X134513520Y-97349974D01*
X134762600Y-97215530D01*
X134958667Y-97107141D01*
X135295441Y-96970021D01*
X135613759Y-96964493D01*
X135928467Y-97063262D01*
X136222308Y-97249204D01*
X136422840Y-97536337D01*
X136549852Y-97953692D01*
X136555482Y-97983052D01*
X136595884Y-98217282D01*
X136592712Y-98315264D01*
X136534461Y-98307016D01*
X136452283Y-98252382D01*
X136204485Y-98141185D01*
X135968474Y-98181093D01*
X135714154Y-98376154D01*
X135512062Y-98674860D01*
X135474711Y-98994223D01*
X135558572Y-99242858D01*
X135650477Y-99414584D01*
X135833738Y-99243568D01*
X136149798Y-99044910D01*
X136485644Y-99007130D01*
X136824901Y-99125679D01*
X137151194Y-99396009D01*
X137359367Y-99667354D01*
X137501103Y-99902516D01*
X137621959Y-100152467D01*
X137737526Y-100457197D01*
X137863393Y-100856701D01*
X137975223Y-101247208D01*
X138063687Y-101327929D01*
X138112545Y-101323108D01*
X138168204Y-101220205D01*
X138193050Y-100982278D01*
X138188177Y-100640604D01*
X138154680Y-100226458D01*
X138093653Y-99771117D01*
X138049353Y-99517618D01*
X137773921Y-98464417D01*
X137370841Y-97505042D01*
X136849331Y-96648292D01*
X136218609Y-95902967D01*
X135487895Y-95277865D01*
X134666406Y-94781786D01*
X133763361Y-94423529D01*
X132787978Y-94211894D01*
X132453116Y-94175837D01*
X131821202Y-94184268D01*
X131821202Y-94184268D01*
G37*
X131821202Y-94184268D02*
X131272116Y-94327563D01*
X130774470Y-94615573D01*
X130601523Y-94756881D01*
X130323165Y-95019025D01*
X130121036Y-95264475D01*
X129983431Y-95527768D01*
X129898643Y-95843443D01*
X129854968Y-96246038D01*
X129840699Y-96770092D01*
X129840531Y-97002258D01*
X129844729Y-98204183D01*
X129525249Y-98258159D01*
X129082636Y-98414842D01*
X128643275Y-98728804D01*
X128222766Y-99188444D01*
X128158199Y-99274837D01*
X127845038Y-99662694D01*
X127483247Y-100043885D01*
X127112457Y-100381251D01*
X126772298Y-100637631D01*
X126597833Y-100737876D01*
X126416340Y-100842367D01*
X126325186Y-100929638D01*
X126322667Y-100940444D01*
X126396310Y-101037900D01*
X126575204Y-101102482D01*
X126796298Y-101119972D01*
X126971454Y-101086758D01*
X127155948Y-101045460D01*
X127263294Y-101067687D01*
X127285737Y-101195862D01*
X127237731Y-101420544D01*
X127137586Y-101694031D01*
X127003614Y-101968626D01*
X126854125Y-102196629D01*
X126810493Y-102247215D01*
X126629242Y-102506325D01*
X126610343Y-102722747D01*
X126753948Y-102894342D01*
X126764406Y-102901084D01*
X126887902Y-102936511D01*
X127067330Y-102899157D01*
X127343569Y-102779787D01*
X127380115Y-102761992D01*
X127712779Y-102619732D01*
X127982493Y-102543986D01*
X128163215Y-102538299D01*
X128228906Y-102606217D01*
X128220069Y-102647603D01*
X128237985Y-102778399D01*
X128331159Y-102993104D01*
X128431666Y-103167879D01*
X128677167Y-103612313D01*
X128836247Y-104024045D01*
X128898847Y-104370612D01*
X128870665Y-104584629D01*
X128731645Y-104802934D01*
X128524661Y-104982367D01*
X128313966Y-105069519D01*
X128285124Y-105071334D01*
X128019839Y-105003660D01*
X127737063Y-104828752D01*
X127499006Y-104588780D01*
X127437498Y-104496767D01*
X127211249Y-104143108D01*
X127022417Y-103919874D01*
X126880959Y-103837452D01*
X126825037Y-103857763D01*
X126766944Y-103985746D01*
X126712951Y-104217539D01*
X126691769Y-104361202D01*
X126642038Y-104781104D01*
X126363819Y-104502886D01*
X126124661Y-104325032D01*
X125866840Y-104225704D01*
X125643151Y-104219570D01*
X125539650Y-104273906D01*
X125531895Y-104388244D01*
X125601503Y-104591199D01*
X125725426Y-104835036D01*
X125880617Y-105072019D01*
X125985978Y-105198334D01*
X126226577Y-105452334D01*
X126020622Y-105689888D01*
X125848062Y-105991346D01*
X125842548Y-106311232D01*
X125884118Y-106440870D01*
X125942799Y-106534304D01*
X126035200Y-106508949D01*
X126111000Y-106454758D01*
X126184656Y-106408926D01*
X126280171Y-106378063D01*
X126420639Y-106362441D01*
X126629153Y-106362335D01*
X126928806Y-106378018D01*
X127342690Y-106409763D01*
X127893899Y-106457845D01*
X128123746Y-106478603D01*
X128444441Y-106500593D01*
X128661000Y-106487148D01*
X128836974Y-106426395D01*
X129032340Y-106308825D01*
X129244269Y-106136174D01*
X129388012Y-105959304D01*
X129415012Y-105896673D01*
X129426957Y-105728955D01*
X129418165Y-105444195D01*
X129390770Y-105093135D01*
X129374946Y-104944334D01*
X129333242Y-104514137D01*
X129302122Y-104065252D01*
X129287230Y-103682344D01*
X129286695Y-103620482D01*
X129277635Y-103309294D01*
X129236579Y-103079199D01*
X129141324Y-102860890D01*
X128969666Y-102585057D01*
X128941371Y-102542544D01*
X128781217Y-102279370D01*
X128678389Y-102063822D01*
X128652634Y-101938159D01*
X128655672Y-101931108D01*
X128782558Y-101875131D01*
X129029680Y-101886154D01*
X129035797Y-101887120D01*
X129356993Y-101938481D01*
X129442239Y-101538791D01*
X129486007Y-101302570D01*
X129473946Y-101149418D01*
X129382869Y-101013043D01*
X129195076Y-100832223D01*
X128988081Y-100616988D01*
X128888592Y-100431115D01*
X128862669Y-100210866D01*
X128862667Y-100207903D01*
X128935030Y-99797803D01*
X129140842Y-99472890D01*
X129463190Y-99240474D01*
X129885158Y-99107867D01*
X130389831Y-99082381D01*
X130960296Y-99171328D01*
X131143521Y-99221961D01*
X131639972Y-99414769D01*
X132018650Y-99649872D01*
X132062530Y-99687371D01*
X132454809Y-99982066D01*
X132894663Y-100222453D01*
X133279597Y-100360200D01*
X133446725Y-100446691D01*
X133678223Y-100624590D01*
X133927385Y-100857494D01*
X133956930Y-100888120D01*
X134195990Y-101128601D01*
X134409938Y-101325712D01*
X134556982Y-101441215D01*
X134569313Y-101448409D01*
X134658323Y-101485337D01*
X134699250Y-101449798D01*
X134700661Y-101309358D01*
X134673670Y-101053237D01*
X134609672Y-100713094D01*
X134509698Y-100383275D01*
X134449191Y-100242440D01*
X134330689Y-99996684D01*
X134298565Y-99847120D01*
X134360688Y-99739905D01*
X134524929Y-99621198D01*
X134541577Y-99610334D01*
X134766169Y-99413975D01*
X134933930Y-99174723D01*
X135029969Y-98932217D01*
X135039395Y-98726101D01*
X134947316Y-98596016D01*
X134926217Y-98586410D01*
X134778046Y-98588382D01*
X134555537Y-98649164D01*
X134492544Y-98673734D01*
X134117657Y-98781898D01*
X133771855Y-98794628D01*
X133507187Y-98710675D01*
X133488410Y-98697813D01*
X133379980Y-98551838D01*
X133282797Y-98313159D01*
X133255641Y-98210979D01*
X133167982Y-97961612D01*
X133032403Y-97719492D01*
X132878975Y-97524684D01*
X132737770Y-97417252D01*
X132659711Y-97417007D01*
X132617524Y-97520825D01*
X132591747Y-97734115D01*
X132588000Y-97864905D01*
X132533594Y-98237951D01*
X132366418Y-98485691D01*
X132080538Y-98614195D01*
X131833607Y-98636667D01*
X131432725Y-98578024D01*
X131110692Y-98390972D01*
X130843210Y-98058829D01*
X130752426Y-97894289D01*
X130619205Y-97645424D01*
X130508422Y-97463905D01*
X130454868Y-97398824D01*
X130389273Y-97293680D01*
X130472417Y-97187717D01*
X130526829Y-97161665D01*
X130697443Y-97178983D01*
X130864658Y-97293579D01*
X131027817Y-97416251D01*
X131174378Y-97421395D01*
X131274829Y-97382454D01*
X131426628Y-97280923D01*
X131490257Y-97177531D01*
X131443887Y-97116276D01*
X131408695Y-97112667D01*
X131305859Y-97058895D01*
X131132448Y-96922080D01*
X131027695Y-96827503D01*
X130792846Y-96546208D01*
X130713827Y-96277552D01*
X130792016Y-96000746D01*
X131028786Y-95695005D01*
X131107820Y-95616487D01*
X131410094Y-95364006D01*
X131636554Y-95260390D01*
X131790890Y-95304997D01*
X131873792Y-95482833D01*
X131923152Y-95693476D01*
X131957415Y-95821500D01*
X132055221Y-95915806D01*
X132208449Y-95912818D01*
X132342309Y-95823498D01*
X132375633Y-95760209D01*
X132540939Y-95503816D01*
X132829639Y-95327689D01*
X133206975Y-95251577D01*
X133273617Y-95250000D01*
X133680873Y-95299970D01*
X134141681Y-95433359D01*
X134579338Y-95625383D01*
X134754822Y-95728578D01*
X134894774Y-95838322D01*
X134902171Y-95924499D01*
X134846623Y-95990997D01*
X134706543Y-96068279D01*
X134550777Y-96020265D01*
X134391649Y-95946098D01*
X134288521Y-95959277D01*
X134185502Y-96082966D01*
X134111072Y-96202500D01*
X133981632Y-96518276D01*
X133943903Y-96852603D01*
X133997822Y-97148611D01*
X134112344Y-97324645D01*
X134193544Y-97397408D01*
X134264081Y-97431895D01*
X134359043Y-97419090D01*
X134513520Y-97349974D01*
X134762600Y-97215530D01*
X134958667Y-97107141D01*
X135295441Y-96970021D01*
X135613759Y-96964493D01*
X135928467Y-97063262D01*
X136222308Y-97249204D01*
X136422840Y-97536337D01*
X136549852Y-97953692D01*
X136555482Y-97983052D01*
X136595884Y-98217282D01*
X136592712Y-98315264D01*
X136534461Y-98307016D01*
X136452283Y-98252382D01*
X136204485Y-98141185D01*
X135968474Y-98181093D01*
X135714154Y-98376154D01*
X135512062Y-98674860D01*
X135474711Y-98994223D01*
X135558572Y-99242858D01*
X135650477Y-99414584D01*
X135833738Y-99243568D01*
X136149798Y-99044910D01*
X136485644Y-99007130D01*
X136824901Y-99125679D01*
X137151194Y-99396009D01*
X137359367Y-99667354D01*
X137501103Y-99902516D01*
X137621959Y-100152467D01*
X137737526Y-100457197D01*
X137863393Y-100856701D01*
X137975223Y-101247208D01*
X138063687Y-101327929D01*
X138112545Y-101323108D01*
X138168204Y-101220205D01*
X138193050Y-100982278D01*
X138188177Y-100640604D01*
X138154680Y-100226458D01*
X138093653Y-99771117D01*
X138049353Y-99517618D01*
X137773921Y-98464417D01*
X137370841Y-97505042D01*
X136849331Y-96648292D01*
X136218609Y-95902967D01*
X135487895Y-95277865D01*
X134666406Y-94781786D01*
X133763361Y-94423529D01*
X132787978Y-94211894D01*
X132453116Y-94175837D01*
X131821202Y-94184268D01*
G36*
X149088026Y-94376259D02*
G01*
X148540044Y-94487937D01*
X147583787Y-94810788D01*
X146727421Y-95268955D01*
X145973550Y-95859160D01*
X145324777Y-96578122D01*
X144783706Y-97422560D01*
X144352942Y-98389195D01*
X144035089Y-99474746D01*
X143871956Y-100367874D01*
X143814392Y-100805215D01*
X143786138Y-101106190D01*
X143786427Y-101301076D01*
X143814494Y-101420149D01*
X143844133Y-101467538D01*
X143960466Y-101559805D01*
X144046975Y-101506531D01*
X144112785Y-101298022D01*
X144137331Y-101155961D01*
X144263621Y-100681613D01*
X144486915Y-100182860D01*
X144769942Y-99738469D01*
X144859998Y-99628586D01*
X145177913Y-99356321D01*
X145509077Y-99252103D01*
X145859074Y-99314819D01*
X146023343Y-99396698D01*
X146223845Y-99507608D01*
X146335630Y-99532936D01*
X146413341Y-99477224D01*
X146448039Y-99432016D01*
X146544717Y-99227598D01*
X146521646Y-99006108D01*
X146390977Y-98744772D01*
X146181682Y-98516299D01*
X145927603Y-98403221D01*
X145676970Y-98423556D01*
X145615037Y-98454948D01*
X145455401Y-98537563D01*
X145388355Y-98506536D01*
X145394791Y-98341310D01*
X145412836Y-98237426D01*
X145555700Y-97774520D01*
X145789137Y-97452088D01*
X146121933Y-97262328D01*
X146562874Y-97197442D01*
X146584487Y-97197334D01*
X146891516Y-97233111D01*
X147158610Y-97363191D01*
X147279447Y-97452748D01*
X147482306Y-97602526D01*
X147613608Y-97653874D01*
X147727521Y-97621799D01*
X147777667Y-97590758D01*
X147980939Y-97363022D01*
X148044637Y-97051867D01*
X147966506Y-96672955D01*
X147924631Y-96569662D01*
X147813203Y-96336619D01*
X147715582Y-96222946D01*
X147581725Y-96191181D01*
X147428809Y-96198464D01*
X147193582Y-96189585D01*
X147108287Y-96121294D01*
X147168867Y-96004616D01*
X147371266Y-95850575D01*
X147604201Y-95721883D01*
X148121263Y-95515793D01*
X148592248Y-95429566D01*
X148997382Y-95461488D01*
X149316893Y-95609848D01*
X149531008Y-95872933D01*
X149538779Y-95889478D01*
X149671797Y-96068499D01*
X149817192Y-96088710D01*
X149950682Y-95956620D01*
X150029333Y-95758000D01*
X150110259Y-95547440D01*
X150202823Y-95428893D01*
X150231560Y-95419334D01*
X150380506Y-95472706D01*
X150597181Y-95606868D01*
X150829567Y-95782888D01*
X151025643Y-95961832D01*
X151125599Y-96088444D01*
X151218572Y-96375124D01*
X151168695Y-96647975D01*
X150968147Y-96933153D01*
X150833247Y-97066445D01*
X150621627Y-97275154D01*
X150529359Y-97411085D01*
X150539402Y-97501816D01*
X150553847Y-97518647D01*
X150745275Y-97614363D01*
X150966627Y-97545533D01*
X151100895Y-97438907D01*
X151259419Y-97321432D01*
X151376690Y-97329773D01*
X151413250Y-97355809D01*
X151463637Y-97430231D01*
X151453271Y-97548229D01*
X151372697Y-97745140D01*
X151239303Y-98005933D01*
X151008816Y-98391317D01*
X150783295Y-98642886D01*
X150525173Y-98790731D01*
X150196882Y-98864942D01*
X150161549Y-98869157D01*
X149902701Y-98880540D01*
X149727477Y-98824991D01*
X149570104Y-98693134D01*
X149429635Y-98514461D01*
X149365272Y-98303321D01*
X149352000Y-98047849D01*
X149336097Y-97799501D01*
X149294822Y-97646927D01*
X149263485Y-97620667D01*
X149100554Y-97694151D01*
X148929171Y-97881652D01*
X148785156Y-98133747D01*
X148706043Y-98389776D01*
X148589554Y-98753320D01*
X148380204Y-98975845D01*
X148080078Y-99056545D01*
X147691257Y-98994614D01*
X147416588Y-98888807D01*
X147194210Y-98790762D01*
X147045324Y-98730475D01*
X147014421Y-98721334D01*
X146994064Y-98796745D01*
X146982405Y-98986029D01*
X146981333Y-99075250D01*
X146998363Y-99296667D01*
X147070615Y-99471169D01*
X147229830Y-99659157D01*
X147348415Y-99773750D01*
X147715497Y-100118334D01*
X147525467Y-100541667D01*
X147398002Y-100892360D01*
X147299498Y-101279967D01*
X147275699Y-101422163D01*
X147215960Y-101879326D01*
X147472077Y-101696955D01*
X147666146Y-101531693D01*
X147904412Y-101291959D01*
X148082314Y-101091625D01*
X148278559Y-100874006D01*
X148443071Y-100721322D01*
X148534384Y-100668600D01*
X148698695Y-100626311D01*
X148952886Y-100517575D01*
X149245615Y-100369377D01*
X149525537Y-100208702D01*
X149741311Y-100062537D01*
X149817667Y-99994112D01*
X150157880Y-99719021D01*
X150605798Y-99507844D01*
X151112924Y-99370229D01*
X151630762Y-99315821D01*
X152110817Y-99354266D01*
X152456895Y-99469165D01*
X152777297Y-99706965D01*
X152985045Y-100014302D01*
X153071533Y-100354272D01*
X153028156Y-100689972D01*
X152846309Y-100984498D01*
X152816942Y-101013304D01*
X152669061Y-101163984D01*
X152599217Y-101298262D01*
X152589302Y-101480180D01*
X152615276Y-101726567D01*
X152674001Y-102196588D01*
X152950638Y-102144690D01*
X153158694Y-102132368D01*
X153278581Y-102176181D01*
X153280956Y-102179651D01*
X153264687Y-102288632D01*
X153171383Y-102493689D01*
X153020797Y-102751955D01*
X153008274Y-102771456D01*
X152878259Y-102982339D01*
X152780030Y-103176743D01*
X152702690Y-103391401D01*
X152635343Y-103663050D01*
X152567091Y-104028421D01*
X152487039Y-104524251D01*
X152485599Y-104533467D01*
X152289287Y-105790532D01*
X152498101Y-106164553D01*
X152688425Y-106429528D01*
X152916979Y-106646627D01*
X152997957Y-106699817D01*
X153130579Y-106764437D01*
X153272152Y-106805797D01*
X153450866Y-106823746D01*
X153694908Y-106818133D01*
X154032465Y-106788809D01*
X154491726Y-106735623D01*
X154855333Y-106689912D01*
X155246863Y-106658978D01*
X155535747Y-106686117D01*
X155691173Y-106734515D01*
X155886751Y-106809979D01*
X156001275Y-106848179D01*
X156008673Y-106849334D01*
X156028347Y-106773915D01*
X156039624Y-106584587D01*
X156040667Y-106494957D01*
X155990309Y-106159849D01*
X155856039Y-105944054D01*
X155671412Y-105747527D01*
X155888707Y-105515263D01*
X156093578Y-105256974D01*
X156253119Y-104983603D01*
X156343211Y-104743553D01*
X156345783Y-104598025D01*
X156227175Y-104482379D01*
X156029734Y-104485080D01*
X155786373Y-104597250D01*
X155530007Y-104810012D01*
X155519557Y-104820899D01*
X155194000Y-105163130D01*
X155192844Y-104799732D01*
X155175566Y-104475164D01*
X155131599Y-104220023D01*
X155069445Y-104074476D01*
X155035286Y-104055334D01*
X154965710Y-104120484D01*
X154829391Y-104293425D01*
X154652515Y-104540393D01*
X154602967Y-104612782D01*
X154363519Y-104948119D01*
X154173310Y-105160816D01*
X154000096Y-105276668D01*
X153811631Y-105321475D01*
X153712333Y-105325334D01*
X153390376Y-105260880D01*
X153172336Y-105080663D01*
X153060544Y-104804393D01*
X153057329Y-104451782D01*
X153165023Y-104042544D01*
X153385955Y-103596390D01*
X153489100Y-103437145D01*
X153665411Y-103164120D01*
X153741157Y-102991783D01*
X153724212Y-102890763D01*
X153648833Y-102841407D01*
X153646642Y-102811199D01*
X153779848Y-102793057D01*
X153809525Y-102792018D01*
X154043984Y-102830518D01*
X154326882Y-102935512D01*
X154444525Y-102995980D01*
X154800095Y-103162398D01*
X155059952Y-103196715D01*
X155234083Y-103099125D01*
X155287168Y-103012153D01*
X155325160Y-102877521D01*
X155283291Y-102750312D01*
X155139940Y-102579939D01*
X155073686Y-102512620D01*
X154840213Y-102215340D01*
X154770667Y-101974967D01*
X154727504Y-101748982D01*
X154647950Y-101604733D01*
X154559927Y-101440894D01*
X154614724Y-101332243D01*
X154789427Y-101299239D01*
X154957488Y-101328336D01*
X155220074Y-101361150D01*
X155426366Y-101316274D01*
X155528795Y-101206420D01*
X155532667Y-101174634D01*
X155464704Y-101087918D01*
X155297413Y-100975435D01*
X155259960Y-100955327D01*
X154988023Y-100774210D01*
X154656814Y-100493537D01*
X154305377Y-100151621D01*
X153972758Y-99786774D01*
X153698000Y-99437308D01*
X153666053Y-99391320D01*
X153387443Y-99026193D01*
X153106864Y-98774612D01*
X152763958Y-98591178D01*
X152452072Y-98478221D01*
X152019000Y-98338655D01*
X152061333Y-98000828D01*
X152079421Y-97762823D01*
X152091534Y-97416001D01*
X152095889Y-97020823D01*
X152095016Y-96858667D01*
X152071035Y-96331523D01*
X152000623Y-95922171D01*
X151866641Y-95581622D01*
X151651950Y-95260886D01*
X151457242Y-95035746D01*
X151000551Y-94659084D01*
X150454397Y-94423794D01*
X149817361Y-94329607D01*
X149088026Y-94376259D01*
X149088026Y-94376259D01*
G37*
X149088026Y-94376259D02*
X148540044Y-94487937D01*
X147583787Y-94810788D01*
X146727421Y-95268955D01*
X145973550Y-95859160D01*
X145324777Y-96578122D01*
X144783706Y-97422560D01*
X144352942Y-98389195D01*
X144035089Y-99474746D01*
X143871956Y-100367874D01*
X143814392Y-100805215D01*
X143786138Y-101106190D01*
X143786427Y-101301076D01*
X143814494Y-101420149D01*
X143844133Y-101467538D01*
X143960466Y-101559805D01*
X144046975Y-101506531D01*
X144112785Y-101298022D01*
X144137331Y-101155961D01*
X144263621Y-100681613D01*
X144486915Y-100182860D01*
X144769942Y-99738469D01*
X144859998Y-99628586D01*
X145177913Y-99356321D01*
X145509077Y-99252103D01*
X145859074Y-99314819D01*
X146023343Y-99396698D01*
X146223845Y-99507608D01*
X146335630Y-99532936D01*
X146413341Y-99477224D01*
X146448039Y-99432016D01*
X146544717Y-99227598D01*
X146521646Y-99006108D01*
X146390977Y-98744772D01*
X146181682Y-98516299D01*
X145927603Y-98403221D01*
X145676970Y-98423556D01*
X145615037Y-98454948D01*
X145455401Y-98537563D01*
X145388355Y-98506536D01*
X145394791Y-98341310D01*
X145412836Y-98237426D01*
X145555700Y-97774520D01*
X145789137Y-97452088D01*
X146121933Y-97262328D01*
X146562874Y-97197442D01*
X146584487Y-97197334D01*
X146891516Y-97233111D01*
X147158610Y-97363191D01*
X147279447Y-97452748D01*
X147482306Y-97602526D01*
X147613608Y-97653874D01*
X147727521Y-97621799D01*
X147777667Y-97590758D01*
X147980939Y-97363022D01*
X148044637Y-97051867D01*
X147966506Y-96672955D01*
X147924631Y-96569662D01*
X147813203Y-96336619D01*
X147715582Y-96222946D01*
X147581725Y-96191181D01*
X147428809Y-96198464D01*
X147193582Y-96189585D01*
X147108287Y-96121294D01*
X147168867Y-96004616D01*
X147371266Y-95850575D01*
X147604201Y-95721883D01*
X148121263Y-95515793D01*
X148592248Y-95429566D01*
X148997382Y-95461488D01*
X149316893Y-95609848D01*
X149531008Y-95872933D01*
X149538779Y-95889478D01*
X149671797Y-96068499D01*
X149817192Y-96088710D01*
X149950682Y-95956620D01*
X150029333Y-95758000D01*
X150110259Y-95547440D01*
X150202823Y-95428893D01*
X150231560Y-95419334D01*
X150380506Y-95472706D01*
X150597181Y-95606868D01*
X150829567Y-95782888D01*
X151025643Y-95961832D01*
X151125599Y-96088444D01*
X151218572Y-96375124D01*
X151168695Y-96647975D01*
X150968147Y-96933153D01*
X150833247Y-97066445D01*
X150621627Y-97275154D01*
X150529359Y-97411085D01*
X150539402Y-97501816D01*
X150553847Y-97518647D01*
X150745275Y-97614363D01*
X150966627Y-97545533D01*
X151100895Y-97438907D01*
X151259419Y-97321432D01*
X151376690Y-97329773D01*
X151413250Y-97355809D01*
X151463637Y-97430231D01*
X151453271Y-97548229D01*
X151372697Y-97745140D01*
X151239303Y-98005933D01*
X151008816Y-98391317D01*
X150783295Y-98642886D01*
X150525173Y-98790731D01*
X150196882Y-98864942D01*
X150161549Y-98869157D01*
X149902701Y-98880540D01*
X149727477Y-98824991D01*
X149570104Y-98693134D01*
X149429635Y-98514461D01*
X149365272Y-98303321D01*
X149352000Y-98047849D01*
X149336097Y-97799501D01*
X149294822Y-97646927D01*
X149263485Y-97620667D01*
X149100554Y-97694151D01*
X148929171Y-97881652D01*
X148785156Y-98133747D01*
X148706043Y-98389776D01*
X148589554Y-98753320D01*
X148380204Y-98975845D01*
X148080078Y-99056545D01*
X147691257Y-98994614D01*
X147416588Y-98888807D01*
X147194210Y-98790762D01*
X147045324Y-98730475D01*
X147014421Y-98721334D01*
X146994064Y-98796745D01*
X146982405Y-98986029D01*
X146981333Y-99075250D01*
X146998363Y-99296667D01*
X147070615Y-99471169D01*
X147229830Y-99659157D01*
X147348415Y-99773750D01*
X147715497Y-100118334D01*
X147525467Y-100541667D01*
X147398002Y-100892360D01*
X147299498Y-101279967D01*
X147275699Y-101422163D01*
X147215960Y-101879326D01*
X147472077Y-101696955D01*
X147666146Y-101531693D01*
X147904412Y-101291959D01*
X148082314Y-101091625D01*
X148278559Y-100874006D01*
X148443071Y-100721322D01*
X148534384Y-100668600D01*
X148698695Y-100626311D01*
X148952886Y-100517575D01*
X149245615Y-100369377D01*
X149525537Y-100208702D01*
X149741311Y-100062537D01*
X149817667Y-99994112D01*
X150157880Y-99719021D01*
X150605798Y-99507844D01*
X151112924Y-99370229D01*
X151630762Y-99315821D01*
X152110817Y-99354266D01*
X152456895Y-99469165D01*
X152777297Y-99706965D01*
X152985045Y-100014302D01*
X153071533Y-100354272D01*
X153028156Y-100689972D01*
X152846309Y-100984498D01*
X152816942Y-101013304D01*
X152669061Y-101163984D01*
X152599217Y-101298262D01*
X152589302Y-101480180D01*
X152615276Y-101726567D01*
X152674001Y-102196588D01*
X152950638Y-102144690D01*
X153158694Y-102132368D01*
X153278581Y-102176181D01*
X153280956Y-102179651D01*
X153264687Y-102288632D01*
X153171383Y-102493689D01*
X153020797Y-102751955D01*
X153008274Y-102771456D01*
X152878259Y-102982339D01*
X152780030Y-103176743D01*
X152702690Y-103391401D01*
X152635343Y-103663050D01*
X152567091Y-104028421D01*
X152487039Y-104524251D01*
X152485599Y-104533467D01*
X152289287Y-105790532D01*
X152498101Y-106164553D01*
X152688425Y-106429528D01*
X152916979Y-106646627D01*
X152997957Y-106699817D01*
X153130579Y-106764437D01*
X153272152Y-106805797D01*
X153450866Y-106823746D01*
X153694908Y-106818133D01*
X154032465Y-106788809D01*
X154491726Y-106735623D01*
X154855333Y-106689912D01*
X155246863Y-106658978D01*
X155535747Y-106686117D01*
X155691173Y-106734515D01*
X155886751Y-106809979D01*
X156001275Y-106848179D01*
X156008673Y-106849334D01*
X156028347Y-106773915D01*
X156039624Y-106584587D01*
X156040667Y-106494957D01*
X155990309Y-106159849D01*
X155856039Y-105944054D01*
X155671412Y-105747527D01*
X155888707Y-105515263D01*
X156093578Y-105256974D01*
X156253119Y-104983603D01*
X156343211Y-104743553D01*
X156345783Y-104598025D01*
X156227175Y-104482379D01*
X156029734Y-104485080D01*
X155786373Y-104597250D01*
X155530007Y-104810012D01*
X155519557Y-104820899D01*
X155194000Y-105163130D01*
X155192844Y-104799732D01*
X155175566Y-104475164D01*
X155131599Y-104220023D01*
X155069445Y-104074476D01*
X155035286Y-104055334D01*
X154965710Y-104120484D01*
X154829391Y-104293425D01*
X154652515Y-104540393D01*
X154602967Y-104612782D01*
X154363519Y-104948119D01*
X154173310Y-105160816D01*
X154000096Y-105276668D01*
X153811631Y-105321475D01*
X153712333Y-105325334D01*
X153390376Y-105260880D01*
X153172336Y-105080663D01*
X153060544Y-104804393D01*
X153057329Y-104451782D01*
X153165023Y-104042544D01*
X153385955Y-103596390D01*
X153489100Y-103437145D01*
X153665411Y-103164120D01*
X153741157Y-102991783D01*
X153724212Y-102890763D01*
X153648833Y-102841407D01*
X153646642Y-102811199D01*
X153779848Y-102793057D01*
X153809525Y-102792018D01*
X154043984Y-102830518D01*
X154326882Y-102935512D01*
X154444525Y-102995980D01*
X154800095Y-103162398D01*
X155059952Y-103196715D01*
X155234083Y-103099125D01*
X155287168Y-103012153D01*
X155325160Y-102877521D01*
X155283291Y-102750312D01*
X155139940Y-102579939D01*
X155073686Y-102512620D01*
X154840213Y-102215340D01*
X154770667Y-101974967D01*
X154727504Y-101748982D01*
X154647950Y-101604733D01*
X154559927Y-101440894D01*
X154614724Y-101332243D01*
X154789427Y-101299239D01*
X154957488Y-101328336D01*
X155220074Y-101361150D01*
X155426366Y-101316274D01*
X155528795Y-101206420D01*
X155532667Y-101174634D01*
X155464704Y-101087918D01*
X155297413Y-100975435D01*
X155259960Y-100955327D01*
X154988023Y-100774210D01*
X154656814Y-100493537D01*
X154305377Y-100151621D01*
X153972758Y-99786774D01*
X153698000Y-99437308D01*
X153666053Y-99391320D01*
X153387443Y-99026193D01*
X153106864Y-98774612D01*
X152763958Y-98591178D01*
X152452072Y-98478221D01*
X152019000Y-98338655D01*
X152061333Y-98000828D01*
X152079421Y-97762823D01*
X152091534Y-97416001D01*
X152095889Y-97020823D01*
X152095016Y-96858667D01*
X152071035Y-96331523D01*
X152000623Y-95922171D01*
X151866641Y-95581622D01*
X151651950Y-95260886D01*
X151457242Y-95035746D01*
X151000551Y-94659084D01*
X150454397Y-94423794D01*
X149817361Y-94329607D01*
X149088026Y-94376259D01*
G36*
X126707409Y-108270813D02*
G01*
X126680449Y-108375663D01*
X126663860Y-108590232D01*
X126661333Y-108726111D01*
X126644299Y-108971812D01*
X126599813Y-109115635D01*
X126570755Y-109135334D01*
X126454022Y-109090448D01*
X126254274Y-108975594D01*
X126114726Y-108883897D01*
X125860038Y-108728130D01*
X125564938Y-108576204D01*
X125270990Y-108445793D01*
X125019757Y-108354572D01*
X124852803Y-108320215D01*
X124813303Y-108330475D01*
X124838236Y-108417538D01*
X124976139Y-108588735D01*
X125205682Y-108825062D01*
X125505534Y-109107514D01*
X125854367Y-109417089D01*
X126230850Y-109734781D01*
X126613653Y-110041588D01*
X126981446Y-110318505D01*
X127267154Y-110516728D01*
X127634514Y-110756358D01*
X127957751Y-110963002D01*
X128207431Y-111118150D01*
X128354122Y-111203293D01*
X128373163Y-111212235D01*
X128512599Y-111190024D01*
X128645240Y-111089032D01*
X128794609Y-110954180D01*
X129032121Y-110770448D01*
X129274898Y-110599212D01*
X129568977Y-110396027D01*
X129747936Y-110251643D01*
X129840056Y-110134804D01*
X129873615Y-110014250D01*
X129877370Y-109933259D01*
X129813622Y-109730322D01*
X129612135Y-109542771D01*
X129262264Y-109363431D01*
X128778000Y-109192671D01*
X128337274Y-109034463D01*
X127855042Y-108826576D01*
X127430880Y-108612165D01*
X127405909Y-108598012D01*
X127111327Y-108437054D01*
X126874748Y-108321989D01*
X126731788Y-108269498D01*
X126707409Y-108270813D01*
X126707409Y-108270813D01*
G37*
X126707409Y-108270813D02*
X126680449Y-108375663D01*
X126663860Y-108590232D01*
X126661333Y-108726111D01*
X126644299Y-108971812D01*
X126599813Y-109115635D01*
X126570755Y-109135334D01*
X126454022Y-109090448D01*
X126254274Y-108975594D01*
X126114726Y-108883897D01*
X125860038Y-108728130D01*
X125564938Y-108576204D01*
X125270990Y-108445793D01*
X125019757Y-108354572D01*
X124852803Y-108320215D01*
X124813303Y-108330475D01*
X124838236Y-108417538D01*
X124976139Y-108588735D01*
X125205682Y-108825062D01*
X125505534Y-109107514D01*
X125854367Y-109417089D01*
X126230850Y-109734781D01*
X126613653Y-110041588D01*
X126981446Y-110318505D01*
X127267154Y-110516728D01*
X127634514Y-110756358D01*
X127957751Y-110963002D01*
X128207431Y-111118150D01*
X128354122Y-111203293D01*
X128373163Y-111212235D01*
X128512599Y-111190024D01*
X128645240Y-111089032D01*
X128794609Y-110954180D01*
X129032121Y-110770448D01*
X129274898Y-110599212D01*
X129568977Y-110396027D01*
X129747936Y-110251643D01*
X129840056Y-110134804D01*
X129873615Y-110014250D01*
X129877370Y-109933259D01*
X129813622Y-109730322D01*
X129612135Y-109542771D01*
X129262264Y-109363431D01*
X128778000Y-109192671D01*
X128337274Y-109034463D01*
X127855042Y-108826576D01*
X127430880Y-108612165D01*
X127405909Y-108598012D01*
X127111327Y-108437054D01*
X126874748Y-108321989D01*
X126731788Y-108269498D01*
X126707409Y-108270813D01*
G36*
X155089942Y-108601636D02*
G01*
X154887227Y-108685284D01*
X154605737Y-108819862D01*
X154423363Y-108913557D01*
X153989811Y-109122591D01*
X153492992Y-109333599D01*
X153029188Y-109506098D01*
X152959644Y-109528971D01*
X152493664Y-109699667D01*
X152187154Y-109865010D01*
X152030767Y-110032858D01*
X152015157Y-110211070D01*
X152049939Y-110293823D01*
X152150268Y-110425572D01*
X152336562Y-110631673D01*
X152571165Y-110870757D01*
X152606290Y-110905058D01*
X152829820Y-111130762D01*
X152995940Y-111314983D01*
X153074697Y-111424072D01*
X153077333Y-111434225D01*
X153109270Y-111492634D01*
X153217180Y-111487828D01*
X153419215Y-111413445D01*
X153733526Y-111263126D01*
X154080105Y-111082809D01*
X154491778Y-110853453D01*
X154922068Y-110596087D01*
X155301271Y-110353001D01*
X155434772Y-110260895D01*
X155710707Y-110049117D01*
X156017389Y-109789961D01*
X156327508Y-109509623D01*
X156613757Y-109234296D01*
X156848826Y-108990175D01*
X157005407Y-108803453D01*
X157056667Y-108705190D01*
X156988439Y-108675791D01*
X156786209Y-108743290D01*
X156453657Y-108906011D01*
X155994462Y-109162275D01*
X155786667Y-109284345D01*
X155480927Y-109463216D01*
X155235643Y-109601490D01*
X155082716Y-109681480D01*
X155047953Y-109693842D01*
X155052267Y-109608230D01*
X155082373Y-109402811D01*
X155126267Y-109152267D01*
X155170353Y-108873410D01*
X155188480Y-108667004D01*
X155179010Y-108584121D01*
X155089942Y-108601636D01*
X155089942Y-108601636D01*
G37*
X155089942Y-108601636D02*
X154887227Y-108685284D01*
X154605737Y-108819862D01*
X154423363Y-108913557D01*
X153989811Y-109122591D01*
X153492992Y-109333599D01*
X153029188Y-109506098D01*
X152959644Y-109528971D01*
X152493664Y-109699667D01*
X152187154Y-109865010D01*
X152030767Y-110032858D01*
X152015157Y-110211070D01*
X152049939Y-110293823D01*
X152150268Y-110425572D01*
X152336562Y-110631673D01*
X152571165Y-110870757D01*
X152606290Y-110905058D01*
X152829820Y-111130762D01*
X152995940Y-111314983D01*
X153074697Y-111424072D01*
X153077333Y-111434225D01*
X153109270Y-111492634D01*
X153217180Y-111487828D01*
X153419215Y-111413445D01*
X153733526Y-111263126D01*
X154080105Y-111082809D01*
X154491778Y-110853453D01*
X154922068Y-110596087D01*
X155301271Y-110353001D01*
X155434772Y-110260895D01*
X155710707Y-110049117D01*
X156017389Y-109789961D01*
X156327508Y-109509623D01*
X156613757Y-109234296D01*
X156848826Y-108990175D01*
X157005407Y-108803453D01*
X157056667Y-108705190D01*
X156988439Y-108675791D01*
X156786209Y-108743290D01*
X156453657Y-108906011D01*
X155994462Y-109162275D01*
X155786667Y-109284345D01*
X155480927Y-109463216D01*
X155235643Y-109601490D01*
X155082716Y-109681480D01*
X155047953Y-109693842D01*
X155052267Y-109608230D01*
X155082373Y-109402811D01*
X155126267Y-109152267D01*
X155170353Y-108873410D01*
X155188480Y-108667004D01*
X155179010Y-108584121D01*
X155089942Y-108601636D01*
G36*
X129425124Y-110879731D02*
G01*
X129133114Y-111126295D01*
X129127258Y-111131557D01*
X128768027Y-111533563D01*
X128575354Y-111939687D01*
X128549547Y-112343372D01*
X128690912Y-112738061D01*
X128999756Y-113117200D01*
X129032857Y-113147702D01*
X129235406Y-113318707D01*
X129392249Y-113429627D01*
X129448135Y-113453334D01*
X129508650Y-113378734D01*
X129562384Y-113193700D01*
X129572268Y-113135834D01*
X129603811Y-112883252D01*
X129639084Y-112541035D01*
X129666906Y-112225667D01*
X129699356Y-111840575D01*
X129735054Y-111446682D01*
X129760288Y-111188500D01*
X129772852Y-110914483D01*
X129730704Y-110772540D01*
X129619558Y-110761384D01*
X129425124Y-110879731D01*
X129425124Y-110879731D01*
G37*
X129425124Y-110879731D02*
X129133114Y-111126295D01*
X129127258Y-111131557D01*
X128768027Y-111533563D01*
X128575354Y-111939687D01*
X128549547Y-112343372D01*
X128690912Y-112738061D01*
X128999756Y-113117200D01*
X129032857Y-113147702D01*
X129235406Y-113318707D01*
X129392249Y-113429627D01*
X129448135Y-113453334D01*
X129508650Y-113378734D01*
X129562384Y-113193700D01*
X129572268Y-113135834D01*
X129603811Y-112883252D01*
X129639084Y-112541035D01*
X129666906Y-112225667D01*
X129699356Y-111840575D01*
X129735054Y-111446682D01*
X129760288Y-111188500D01*
X129772852Y-110914483D01*
X129730704Y-110772540D01*
X129619558Y-110761384D01*
X129425124Y-110879731D01*
G36*
X152111250Y-110993344D02*
G01*
X152089862Y-111214773D01*
X152073477Y-111549718D01*
X152063590Y-111970278D01*
X152061333Y-112310334D01*
X152063638Y-112873076D01*
X152076127Y-113279858D01*
X152107163Y-113544043D01*
X152165110Y-113678994D01*
X152258329Y-113698075D01*
X152395186Y-113614648D01*
X152584041Y-113442078D01*
X152698562Y-113328562D01*
X152900984Y-113098681D01*
X153043351Y-112884995D01*
X153090101Y-112757062D01*
X153070161Y-112246429D01*
X152942670Y-111829984D01*
X152937475Y-111819801D01*
X152813364Y-111623862D01*
X152636486Y-111394721D01*
X152442888Y-111173157D01*
X152268619Y-110999946D01*
X152149725Y-110915868D01*
X152136148Y-110913334D01*
X152111250Y-110993344D01*
X152111250Y-110993344D01*
G37*
X152111250Y-110993344D02*
X152089862Y-111214773D01*
X152073477Y-111549718D01*
X152063590Y-111970278D01*
X152061333Y-112310334D01*
X152063638Y-112873076D01*
X152076127Y-113279858D01*
X152107163Y-113544043D01*
X152165110Y-113678994D01*
X152258329Y-113698075D01*
X152395186Y-113614648D01*
X152584041Y-113442078D01*
X152698562Y-113328562D01*
X152900984Y-113098681D01*
X153043351Y-112884995D01*
X153090101Y-112757062D01*
X153070161Y-112246429D01*
X152942670Y-111829984D01*
X152937475Y-111819801D01*
X152813364Y-111623862D01*
X152636486Y-111394721D01*
X152442888Y-111173157D01*
X152268619Y-110999946D01*
X152149725Y-110915868D01*
X152136148Y-110913334D01*
X152111250Y-110993344D01*
G36*
X128021766Y-112204953D02*
G01*
X127880408Y-112419847D01*
X127697048Y-112738056D01*
X127498572Y-113108208D01*
X127311864Y-113478927D01*
X127163812Y-113798843D01*
X127091886Y-113981793D01*
X127047540Y-114300708D01*
X127136665Y-114618548D01*
X127368745Y-114957947D01*
X127604164Y-115204110D01*
X127807770Y-115377854D01*
X128085089Y-115586872D01*
X128400217Y-115807419D01*
X128717246Y-116015752D01*
X129000272Y-116188127D01*
X129213387Y-116300801D01*
X129309792Y-116332000D01*
X129447146Y-116379053D01*
X129685296Y-116505080D01*
X129989621Y-116687388D01*
X130325502Y-116903283D01*
X130658319Y-117130070D01*
X130953454Y-117345055D01*
X131176286Y-117525543D01*
X131267388Y-117615276D01*
X131457086Y-117826884D01*
X131574410Y-117921475D01*
X131650128Y-117916334D01*
X131698211Y-117857278D01*
X131791729Y-117777527D01*
X131993340Y-117641030D01*
X132263601Y-117474142D01*
X132331481Y-117434138D01*
X132749440Y-117175909D01*
X133085867Y-116939821D01*
X133319506Y-116742460D01*
X133429100Y-116600408D01*
X133434667Y-116573406D01*
X133380156Y-116476043D01*
X133236219Y-116294673D01*
X133032255Y-116065935D01*
X132999712Y-116031296D01*
X132516902Y-115594541D01*
X131886231Y-115143719D01*
X131127052Y-114691469D01*
X130309778Y-114274558D01*
X129911845Y-114079295D01*
X129532651Y-113881982D01*
X129220842Y-113708536D01*
X129055153Y-113606118D01*
X128685038Y-113265565D01*
X128395170Y-112824823D01*
X128227803Y-112348720D01*
X128224636Y-112331953D01*
X128166658Y-112014906D01*
X128021766Y-112204953D01*
X128021766Y-112204953D01*
G37*
X128021766Y-112204953D02*
X127880408Y-112419847D01*
X127697048Y-112738056D01*
X127498572Y-113108208D01*
X127311864Y-113478927D01*
X127163812Y-113798843D01*
X127091886Y-113981793D01*
X127047540Y-114300708D01*
X127136665Y-114618548D01*
X127368745Y-114957947D01*
X127604164Y-115204110D01*
X127807770Y-115377854D01*
X128085089Y-115586872D01*
X128400217Y-115807419D01*
X128717246Y-116015752D01*
X129000272Y-116188127D01*
X129213387Y-116300801D01*
X129309792Y-116332000D01*
X129447146Y-116379053D01*
X129685296Y-116505080D01*
X129989621Y-116687388D01*
X130325502Y-116903283D01*
X130658319Y-117130070D01*
X130953454Y-117345055D01*
X131176286Y-117525543D01*
X131267388Y-117615276D01*
X131457086Y-117826884D01*
X131574410Y-117921475D01*
X131650128Y-117916334D01*
X131698211Y-117857278D01*
X131791729Y-117777527D01*
X131993340Y-117641030D01*
X132263601Y-117474142D01*
X132331481Y-117434138D01*
X132749440Y-117175909D01*
X133085867Y-116939821D01*
X133319506Y-116742460D01*
X133429100Y-116600408D01*
X133434667Y-116573406D01*
X133380156Y-116476043D01*
X133236219Y-116294673D01*
X133032255Y-116065935D01*
X132999712Y-116031296D01*
X132516902Y-115594541D01*
X131886231Y-115143719D01*
X131127052Y-114691469D01*
X130309778Y-114274558D01*
X129911845Y-114079295D01*
X129532651Y-113881982D01*
X129220842Y-113708536D01*
X129055153Y-113606118D01*
X128685038Y-113265565D01*
X128395170Y-112824823D01*
X128227803Y-112348720D01*
X128224636Y-112331953D01*
X128166658Y-112014906D01*
X128021766Y-112204953D01*
G36*
X153416421Y-112462705D02*
G01*
X153392602Y-112773466D01*
X153311200Y-113049292D01*
X153156259Y-113306083D01*
X152911822Y-113559741D01*
X152561933Y-113826165D01*
X152090638Y-114121255D01*
X151481980Y-114460913D01*
X151329399Y-114542485D01*
X150884039Y-114782940D01*
X150454320Y-115021636D01*
X150079842Y-115236117D01*
X149800207Y-115403928D01*
X149723910Y-115452868D01*
X149422797Y-115677166D01*
X149116440Y-115946311D01*
X148834118Y-116229370D01*
X148605111Y-116495408D01*
X148458698Y-116713493D01*
X148420667Y-116829725D01*
X148495202Y-116984390D01*
X148723232Y-117174444D01*
X148887787Y-117279293D01*
X149228080Y-117486639D01*
X149591792Y-117712875D01*
X149784177Y-117834834D01*
X150013403Y-117980146D01*
X150175559Y-118079869D01*
X150230135Y-118110000D01*
X150279414Y-118045536D01*
X150378003Y-117887782D01*
X150393176Y-117862245D01*
X150547950Y-117653493D01*
X150775831Y-117440916D01*
X151097346Y-117209895D01*
X151533024Y-116945811D01*
X152103390Y-116634047D01*
X152158718Y-116604892D01*
X152829761Y-116248056D01*
X153363740Y-115951374D01*
X153775960Y-115701122D01*
X154081722Y-115483576D01*
X154296331Y-115285009D01*
X154435089Y-115091699D01*
X154513301Y-114889920D01*
X154546268Y-114665948D01*
X154550330Y-114460002D01*
X154532378Y-114172237D01*
X154475648Y-113910691D01*
X154362788Y-113617830D01*
X154187936Y-113258520D01*
X154003257Y-112914628D01*
X153818943Y-112599318D01*
X153666128Y-112364996D01*
X153624638Y-112310334D01*
X153416841Y-112056334D01*
X153416421Y-112462705D01*
X153416421Y-112462705D01*
G37*
X153416421Y-112462705D02*
X153392602Y-112773466D01*
X153311200Y-113049292D01*
X153156259Y-113306083D01*
X152911822Y-113559741D01*
X152561933Y-113826165D01*
X152090638Y-114121255D01*
X151481980Y-114460913D01*
X151329399Y-114542485D01*
X150884039Y-114782940D01*
X150454320Y-115021636D01*
X150079842Y-115236117D01*
X149800207Y-115403928D01*
X149723910Y-115452868D01*
X149422797Y-115677166D01*
X149116440Y-115946311D01*
X148834118Y-116229370D01*
X148605111Y-116495408D01*
X148458698Y-116713493D01*
X148420667Y-116829725D01*
X148495202Y-116984390D01*
X148723232Y-117174444D01*
X148887787Y-117279293D01*
X149228080Y-117486639D01*
X149591792Y-117712875D01*
X149784177Y-117834834D01*
X150013403Y-117980146D01*
X150175559Y-118079869D01*
X150230135Y-118110000D01*
X150279414Y-118045536D01*
X150378003Y-117887782D01*
X150393176Y-117862245D01*
X150547950Y-117653493D01*
X150775831Y-117440916D01*
X151097346Y-117209895D01*
X151533024Y-116945811D01*
X152103390Y-116634047D01*
X152158718Y-116604892D01*
X152829761Y-116248056D01*
X153363740Y-115951374D01*
X153775960Y-115701122D01*
X154081722Y-115483576D01*
X154296331Y-115285009D01*
X154435089Y-115091699D01*
X154513301Y-114889920D01*
X154546268Y-114665948D01*
X154550330Y-114460002D01*
X154532378Y-114172237D01*
X154475648Y-113910691D01*
X154362788Y-113617830D01*
X154187936Y-113258520D01*
X154003257Y-112914628D01*
X153818943Y-112599318D01*
X153666128Y-112364996D01*
X153624638Y-112310334D01*
X153416841Y-112056334D01*
X153416421Y-112462705D01*
G36*
X133083294Y-117335660D02*
G01*
X132615514Y-117625500D01*
X132273407Y-117843761D01*
X132037117Y-118005432D01*
X131886785Y-118125499D01*
X131802552Y-118218953D01*
X131764559Y-118300779D01*
X131757466Y-118336314D01*
X131817470Y-118504338D01*
X132035886Y-118694779D01*
X132404083Y-118902302D01*
X132913428Y-119121571D01*
X133197320Y-119226528D01*
X133856038Y-119459629D01*
X133912826Y-119233370D01*
X133930259Y-119025356D01*
X133919361Y-118703305D01*
X133886026Y-118319021D01*
X133836146Y-117924306D01*
X133775615Y-117570962D01*
X133710328Y-117310792D01*
X133687289Y-117250993D01*
X133584863Y-117026986D01*
X133083294Y-117335660D01*
X133083294Y-117335660D01*
G37*
X133083294Y-117335660D02*
X132615514Y-117625500D01*
X132273407Y-117843761D01*
X132037117Y-118005432D01*
X131886785Y-118125499D01*
X131802552Y-118218953D01*
X131764559Y-118300779D01*
X131757466Y-118336314D01*
X131817470Y-118504338D01*
X132035886Y-118694779D01*
X132404083Y-118902302D01*
X132913428Y-119121571D01*
X133197320Y-119226528D01*
X133856038Y-119459629D01*
X133912826Y-119233370D01*
X133930259Y-119025356D01*
X133919361Y-118703305D01*
X133886026Y-118319021D01*
X133836146Y-117924306D01*
X133775615Y-117570962D01*
X133710328Y-117310792D01*
X133687289Y-117250993D01*
X133584863Y-117026986D01*
X133083294Y-117335660D01*
G36*
X148210616Y-117384654D02*
G01*
X148135363Y-117586778D01*
X148061920Y-117894293D01*
X147997528Y-118275464D01*
X147949428Y-118698559D01*
X147940701Y-118808500D01*
X147915853Y-119184491D01*
X147922980Y-119413898D01*
X147985826Y-119519268D01*
X148128136Y-119523150D01*
X148373656Y-119448092D01*
X148548657Y-119385828D01*
X148951336Y-119227163D01*
X149340423Y-119047498D01*
X149666316Y-118871457D01*
X149875648Y-118727007D01*
X149967024Y-118582183D01*
X149925973Y-118414201D01*
X149745145Y-118214103D01*
X149417188Y-117972931D01*
X149092548Y-117772766D01*
X148773767Y-117587825D01*
X148509231Y-117438414D01*
X148332902Y-117343483D01*
X148280437Y-117319654D01*
X148210616Y-117384654D01*
X148210616Y-117384654D01*
G37*
X148210616Y-117384654D02*
X148135363Y-117586778D01*
X148061920Y-117894293D01*
X147997528Y-118275464D01*
X147949428Y-118698559D01*
X147940701Y-118808500D01*
X147915853Y-119184491D01*
X147922980Y-119413898D01*
X147985826Y-119519268D01*
X148128136Y-119523150D01*
X148373656Y-119448092D01*
X148548657Y-119385828D01*
X148951336Y-119227163D01*
X149340423Y-119047498D01*
X149666316Y-118871457D01*
X149875648Y-118727007D01*
X149967024Y-118582183D01*
X149925973Y-118414201D01*
X149745145Y-118214103D01*
X149417188Y-117972931D01*
X149092548Y-117772766D01*
X148773767Y-117587825D01*
X148509231Y-117438414D01*
X148332902Y-117343483D01*
X148280437Y-117319654D01*
X148210616Y-117384654D01*
G36*
X141013222Y-99953233D02*
G01*
X140818090Y-100079610D01*
X140546080Y-100265811D01*
X140265636Y-100464200D01*
X139440021Y-100999591D01*
X138572036Y-101459442D01*
X137714684Y-101817222D01*
X137287000Y-101955169D01*
X136682852Y-102079909D01*
X135977396Y-102148934D01*
X135228918Y-102162251D01*
X134495704Y-102119868D01*
X133836038Y-102021794D01*
X133561667Y-101954661D01*
X132633303Y-101622103D01*
X131704872Y-101165175D01*
X130864805Y-100632589D01*
X130208313Y-100161577D01*
X130074133Y-100478622D01*
X129932784Y-100845365D01*
X129827401Y-101208034D01*
X129751684Y-101604601D01*
X129699336Y-102073035D01*
X129664056Y-102651308D01*
X129649340Y-103039334D01*
X129644835Y-103989778D01*
X129696558Y-104934250D01*
X129809008Y-105898051D01*
X129986687Y-106906484D01*
X130234095Y-107984853D01*
X130555730Y-109158461D01*
X130956094Y-110452609D01*
X130981967Y-110532334D01*
X131312033Y-111494276D01*
X131636252Y-112318441D01*
X131971349Y-113034874D01*
X132334054Y-113673619D01*
X132741093Y-114264721D01*
X133209193Y-114838225D01*
X133638965Y-115304636D01*
X134493720Y-116117165D01*
X135389110Y-116810703D01*
X136365061Y-117412452D01*
X137461502Y-117949614D01*
X137625667Y-118020688D01*
X138381320Y-118362739D01*
X139082492Y-118718040D01*
X139697237Y-119069031D01*
X140193606Y-119398153D01*
X140349249Y-119517636D01*
X140568024Y-119678134D01*
X140746684Y-119780195D01*
X140814916Y-119799893D01*
X140942927Y-119745748D01*
X141134870Y-119613086D01*
X141224000Y-119539815D01*
X141631312Y-119230740D01*
X142150300Y-118915720D01*
X142796111Y-118586775D01*
X143583894Y-118235923D01*
X144104567Y-118022153D01*
X144899133Y-117687172D01*
X145574721Y-117359949D01*
X146177876Y-117012524D01*
X146755144Y-116616936D01*
X147353070Y-116145227D01*
X147652786Y-115890730D01*
X148349071Y-115220310D01*
X148981096Y-114464215D01*
X149553374Y-113612159D01*
X150070419Y-112653854D01*
X150536745Y-111579015D01*
X150956864Y-110377355D01*
X151335291Y-109038587D01*
X151676540Y-107552424D01*
X151954395Y-106087334D01*
X152063649Y-105444925D01*
X152144697Y-104925647D01*
X152201679Y-104486417D01*
X152238737Y-104084149D01*
X152260010Y-103675761D01*
X152269640Y-103218168D01*
X152271746Y-102785334D01*
X152270170Y-102433979D01*
X151239594Y-102433979D01*
X151190226Y-103900823D01*
X151079150Y-105498708D01*
X150850785Y-107033647D01*
X150496645Y-108543315D01*
X150008244Y-110065390D01*
X149524872Y-111294344D01*
X149015484Y-112393711D01*
X148473111Y-113350613D01*
X147880373Y-114191199D01*
X147219886Y-114941616D01*
X146882248Y-115269546D01*
X146460903Y-115641087D01*
X146039779Y-115968881D01*
X145589596Y-116270403D01*
X145081072Y-116563129D01*
X144484926Y-116864535D01*
X143771879Y-117192096D01*
X143357239Y-117373359D01*
X142827412Y-117605613D01*
X142325760Y-117832084D01*
X141881944Y-118038872D01*
X141525628Y-118212081D01*
X141286474Y-118337812D01*
X141240572Y-118365096D01*
X141016452Y-118502515D01*
X140857262Y-118593892D01*
X140808347Y-118616391D01*
X140725890Y-118578671D01*
X140521143Y-118473554D01*
X140220406Y-118314859D01*
X139849976Y-118116401D01*
X139623014Y-117993653D01*
X139162760Y-117746257D01*
X138696926Y-117499903D01*
X138272213Y-117279030D01*
X137935322Y-117108077D01*
X137859179Y-117070578D01*
X137007672Y-116601396D01*
X136161381Y-116033648D01*
X135347470Y-115391893D01*
X134593102Y-114700691D01*
X133925441Y-113984603D01*
X133371651Y-113268189D01*
X133020410Y-112695545D01*
X132863964Y-112367899D01*
X132672612Y-111913839D01*
X132459634Y-111369282D01*
X132238316Y-110770145D01*
X132021940Y-110152345D01*
X131823790Y-109551799D01*
X131663732Y-109027227D01*
X131334269Y-107800793D01*
X131086402Y-106664020D01*
X130911317Y-105563394D01*
X130800202Y-104445397D01*
X130750826Y-103483834D01*
X130737510Y-102993617D01*
X130731217Y-102567501D01*
X130731903Y-102231987D01*
X130739525Y-102013575D01*
X130753424Y-101938667D01*
X130846926Y-101981036D01*
X131039284Y-102091796D01*
X131273855Y-102237495D01*
X132176346Y-102716738D01*
X133156869Y-103058478D01*
X134192320Y-103261024D01*
X135259593Y-103322683D01*
X136335583Y-103241767D01*
X137397185Y-103016582D01*
X138190447Y-102743745D01*
X138839551Y-102439339D01*
X139530618Y-102044766D01*
X140196689Y-101599513D01*
X140439016Y-101417704D01*
X140699595Y-101223780D01*
X140915428Y-101079284D01*
X141047478Y-101009947D01*
X141061576Y-101007334D01*
X141168188Y-101060678D01*
X141357035Y-101200676D01*
X141587656Y-101397278D01*
X141592560Y-101401711D01*
X142476644Y-102095103D01*
X143444628Y-102659522D01*
X144474232Y-103087576D01*
X145543174Y-103371871D01*
X146629174Y-103505014D01*
X147709950Y-103479613D01*
X147819255Y-103467793D01*
X148473099Y-103373203D01*
X149082679Y-103240843D01*
X149698319Y-103056221D01*
X150370341Y-102804843D01*
X150909630Y-102577749D01*
X151239594Y-102433979D01*
X152270170Y-102433979D01*
X152269161Y-102209081D01*
X152258642Y-101770921D01*
X152237707Y-101439701D01*
X152203873Y-101184270D01*
X152154659Y-100973474D01*
X152118360Y-100860163D01*
X152020019Y-100606778D01*
X151931085Y-100425462D01*
X151888068Y-100369904D01*
X151790576Y-100396382D01*
X151599153Y-100508312D01*
X151350565Y-100683478D01*
X151280709Y-100736945D01*
X150290473Y-101419680D01*
X149289742Y-101935955D01*
X148281347Y-102285344D01*
X147268120Y-102467421D01*
X146252892Y-102481759D01*
X145238494Y-102327932D01*
X144227757Y-102005513D01*
X143874785Y-101852478D01*
X143020327Y-101405733D01*
X142274527Y-100900105D01*
X141680532Y-100393500D01*
X141436349Y-100171173D01*
X141238298Y-100002127D01*
X141118764Y-99913594D01*
X141101514Y-99906667D01*
X141013222Y-99953233D01*
X141013222Y-99953233D01*
G37*
X141013222Y-99953233D02*
X140818090Y-100079610D01*
X140546080Y-100265811D01*
X140265636Y-100464200D01*
X139440021Y-100999591D01*
X138572036Y-101459442D01*
X137714684Y-101817222D01*
X137287000Y-101955169D01*
X136682852Y-102079909D01*
X135977396Y-102148934D01*
X135228918Y-102162251D01*
X134495704Y-102119868D01*
X133836038Y-102021794D01*
X133561667Y-101954661D01*
X132633303Y-101622103D01*
X131704872Y-101165175D01*
X130864805Y-100632589D01*
X130208313Y-100161577D01*
X130074133Y-100478622D01*
X129932784Y-100845365D01*
X129827401Y-101208034D01*
X129751684Y-101604601D01*
X129699336Y-102073035D01*
X129664056Y-102651308D01*
X129649340Y-103039334D01*
X129644835Y-103989778D01*
X129696558Y-104934250D01*
X129809008Y-105898051D01*
X129986687Y-106906484D01*
X130234095Y-107984853D01*
X130555730Y-109158461D01*
X130956094Y-110452609D01*
X130981967Y-110532334D01*
X131312033Y-111494276D01*
X131636252Y-112318441D01*
X131971349Y-113034874D01*
X132334054Y-113673619D01*
X132741093Y-114264721D01*
X133209193Y-114838225D01*
X133638965Y-115304636D01*
X134493720Y-116117165D01*
X135389110Y-116810703D01*
X136365061Y-117412452D01*
X137461502Y-117949614D01*
X137625667Y-118020688D01*
X138381320Y-118362739D01*
X139082492Y-118718040D01*
X139697237Y-119069031D01*
X140193606Y-119398153D01*
X140349249Y-119517636D01*
X140568024Y-119678134D01*
X140746684Y-119780195D01*
X140814916Y-119799893D01*
X140942927Y-119745748D01*
X141134870Y-119613086D01*
X141224000Y-119539815D01*
X141631312Y-119230740D01*
X142150300Y-118915720D01*
X142796111Y-118586775D01*
X143583894Y-118235923D01*
X144104567Y-118022153D01*
X144899133Y-117687172D01*
X145574721Y-117359949D01*
X146177876Y-117012524D01*
X146755144Y-116616936D01*
X147353070Y-116145227D01*
X147652786Y-115890730D01*
X148349071Y-115220310D01*
X148981096Y-114464215D01*
X149553374Y-113612159D01*
X150070419Y-112653854D01*
X150536745Y-111579015D01*
X150956864Y-110377355D01*
X151335291Y-109038587D01*
X151676540Y-107552424D01*
X151954395Y-106087334D01*
X152063649Y-105444925D01*
X152144697Y-104925647D01*
X152201679Y-104486417D01*
X152238737Y-104084149D01*
X152260010Y-103675761D01*
X152269640Y-103218168D01*
X152271746Y-102785334D01*
X152270170Y-102433979D01*
X151239594Y-102433979D01*
X151190226Y-103900823D01*
X151079150Y-105498708D01*
X150850785Y-107033647D01*
X150496645Y-108543315D01*
X150008244Y-110065390D01*
X149524872Y-111294344D01*
X149015484Y-112393711D01*
X148473111Y-113350613D01*
X147880373Y-114191199D01*
X147219886Y-114941616D01*
X146882248Y-115269546D01*
X146460903Y-115641087D01*
X146039779Y-115968881D01*
X145589596Y-116270403D01*
X145081072Y-116563129D01*
X144484926Y-116864535D01*
X143771879Y-117192096D01*
X143357239Y-117373359D01*
X142827412Y-117605613D01*
X142325760Y-117832084D01*
X141881944Y-118038872D01*
X141525628Y-118212081D01*
X141286474Y-118337812D01*
X141240572Y-118365096D01*
X141016452Y-118502515D01*
X140857262Y-118593892D01*
X140808347Y-118616391D01*
X140725890Y-118578671D01*
X140521143Y-118473554D01*
X140220406Y-118314859D01*
X139849976Y-118116401D01*
X139623014Y-117993653D01*
X139162760Y-117746257D01*
X138696926Y-117499903D01*
X138272213Y-117279030D01*
X137935322Y-117108077D01*
X137859179Y-117070578D01*
X137007672Y-116601396D01*
X136161381Y-116033648D01*
X135347470Y-115391893D01*
X134593102Y-114700691D01*
X133925441Y-113984603D01*
X133371651Y-113268189D01*
X133020410Y-112695545D01*
X132863964Y-112367899D01*
X132672612Y-111913839D01*
X132459634Y-111369282D01*
X132238316Y-110770145D01*
X132021940Y-110152345D01*
X131823790Y-109551799D01*
X131663732Y-109027227D01*
X131334269Y-107800793D01*
X131086402Y-106664020D01*
X130911317Y-105563394D01*
X130800202Y-104445397D01*
X130750826Y-103483834D01*
X130737510Y-102993617D01*
X130731217Y-102567501D01*
X130731903Y-102231987D01*
X130739525Y-102013575D01*
X130753424Y-101938667D01*
X130846926Y-101981036D01*
X131039284Y-102091796D01*
X131273855Y-102237495D01*
X132176346Y-102716738D01*
X133156869Y-103058478D01*
X134192320Y-103261024D01*
X135259593Y-103322683D01*
X136335583Y-103241767D01*
X137397185Y-103016582D01*
X138190447Y-102743745D01*
X138839551Y-102439339D01*
X139530618Y-102044766D01*
X140196689Y-101599513D01*
X140439016Y-101417704D01*
X140699595Y-101223780D01*
X140915428Y-101079284D01*
X141047478Y-101009947D01*
X141061576Y-101007334D01*
X141168188Y-101060678D01*
X141357035Y-101200676D01*
X141587656Y-101397278D01*
X141592560Y-101401711D01*
X142476644Y-102095103D01*
X143444628Y-102659522D01*
X144474232Y-103087576D01*
X145543174Y-103371871D01*
X146629174Y-103505014D01*
X147709950Y-103479613D01*
X147819255Y-103467793D01*
X148473099Y-103373203D01*
X149082679Y-103240843D01*
X149698319Y-103056221D01*
X150370341Y-102804843D01*
X150909630Y-102577749D01*
X151239594Y-102433979D01*
X152270170Y-102433979D01*
X152269161Y-102209081D01*
X152258642Y-101770921D01*
X152237707Y-101439701D01*
X152203873Y-101184270D01*
X152154659Y-100973474D01*
X152118360Y-100860163D01*
X152020019Y-100606778D01*
X151931085Y-100425462D01*
X151888068Y-100369904D01*
X151790576Y-100396382D01*
X151599153Y-100508312D01*
X151350565Y-100683478D01*
X151280709Y-100736945D01*
X150290473Y-101419680D01*
X149289742Y-101935955D01*
X148281347Y-102285344D01*
X147268120Y-102467421D01*
X146252892Y-102481759D01*
X145238494Y-102327932D01*
X144227757Y-102005513D01*
X143874785Y-101852478D01*
X143020327Y-101405733D01*
X142274527Y-100900105D01*
X141680532Y-100393500D01*
X141436349Y-100171173D01*
X141238298Y-100002127D01*
X141118764Y-99913594D01*
X141101514Y-99906667D01*
X141013222Y-99953233D01*
G36*
X131561208Y-118974129D02*
G01*
X131493626Y-119171772D01*
X131446259Y-119486467D01*
X131418781Y-119878508D01*
X131410867Y-120308187D01*
X131422189Y-120735796D01*
X131452423Y-121121630D01*
X131501241Y-121425980D01*
X131568319Y-121609140D01*
X131582991Y-121626855D01*
X131767003Y-121758436D01*
X132072558Y-121924446D01*
X132460145Y-122107002D01*
X132890257Y-122288224D01*
X133323385Y-122450230D01*
X133604649Y-122541853D01*
X134958489Y-122877826D01*
X136438290Y-123107948D01*
X136440333Y-123108183D01*
X136729413Y-123131372D01*
X137163352Y-123152800D01*
X137718899Y-123172261D01*
X138372804Y-123189547D01*
X139101816Y-123204450D01*
X139882685Y-123216765D01*
X140692160Y-123226283D01*
X141506990Y-123232797D01*
X142303926Y-123236101D01*
X143059715Y-123235986D01*
X143751109Y-123232246D01*
X144354855Y-123224674D01*
X144847704Y-123213063D01*
X145206405Y-123197205D01*
X145330333Y-123187401D01*
X146557732Y-123029029D01*
X147642652Y-122818188D01*
X148578960Y-122556384D01*
X149007620Y-122385667D01*
X146767175Y-122385667D01*
X146345087Y-122435865D01*
X145917825Y-122480762D01*
X145625987Y-122494235D01*
X145438328Y-122474779D01*
X145323603Y-122420887D01*
X145287328Y-122384857D01*
X145274220Y-122347192D01*
X144939722Y-122347192D01*
X144938994Y-122521345D01*
X144932351Y-122557872D01*
X144838758Y-122577914D01*
X144614804Y-122604214D01*
X144299141Y-122632619D01*
X144090840Y-122648310D01*
X143710055Y-122671551D01*
X143465090Y-122674597D01*
X143323292Y-122654348D01*
X143252012Y-122607702D01*
X143229814Y-122566549D01*
X143125335Y-122482443D01*
X142927455Y-122432736D01*
X142693341Y-122418601D01*
X142480158Y-122441214D01*
X142345073Y-122501749D01*
X142324667Y-122547945D01*
X142248594Y-122688747D01*
X142024456Y-122755916D01*
X141967215Y-122759983D01*
X141904590Y-122746163D01*
X141886088Y-122678036D01*
X141916182Y-122527048D01*
X141999344Y-122264641D01*
X142082205Y-122025834D01*
X142135825Y-121875702D01*
X141732000Y-121875702D01*
X141732000Y-121875845D01*
X141726047Y-122208220D01*
X141700790Y-122416003D01*
X141645136Y-122543736D01*
X141547990Y-122635959D01*
X141541500Y-122640686D01*
X141354127Y-122710491D01*
X141075200Y-122745471D01*
X140766746Y-122746039D01*
X140490792Y-122712609D01*
X140309364Y-122645593D01*
X140293840Y-122632373D01*
X140221790Y-122490353D01*
X140189267Y-122341807D01*
X140226951Y-122172454D01*
X140345322Y-122093528D01*
X140481503Y-122119492D01*
X140570037Y-122254224D01*
X140637640Y-122371284D01*
X140790845Y-122421047D01*
X140953015Y-122428000D01*
X141219752Y-122395468D01*
X141341533Y-122295129D01*
X141341942Y-122294075D01*
X141386575Y-122071656D01*
X141388926Y-121803367D01*
X141353240Y-121562381D01*
X141291733Y-121428934D01*
X141097380Y-121336349D01*
X140858964Y-121343140D01*
X140658472Y-121441142D01*
X140611685Y-121496667D01*
X140466504Y-121638694D01*
X140319627Y-121659289D01*
X140222196Y-121561671D01*
X140208000Y-121471267D01*
X140215110Y-121435330D01*
X139975164Y-121435330D01*
X139964826Y-121792710D01*
X139948866Y-122137735D01*
X139928687Y-122416765D01*
X139907661Y-122587691D01*
X139898765Y-122618210D01*
X139791371Y-122671538D01*
X139695003Y-122682000D01*
X139587119Y-122651778D01*
X139539535Y-122532047D01*
X139530667Y-122343334D01*
X139519261Y-122131175D01*
X139490772Y-122013252D01*
X139479288Y-122004667D01*
X139391429Y-122053521D01*
X139212714Y-122181043D01*
X139002561Y-122343334D01*
X138755598Y-122536529D01*
X138600967Y-122639420D01*
X138499470Y-122668355D01*
X138411911Y-122639678D01*
X138363002Y-122610045D01*
X138336568Y-122534795D01*
X138425415Y-122398617D01*
X138638168Y-122186264D01*
X138839755Y-121992752D01*
X138978970Y-121844400D01*
X139022667Y-121780351D01*
X138970271Y-121693751D01*
X138839557Y-121530651D01*
X138670231Y-121335973D01*
X138502002Y-121154641D01*
X138374579Y-121031576D01*
X138337861Y-121005619D01*
X138293238Y-121067427D01*
X138247106Y-121268858D01*
X138204022Y-121580311D01*
X138168542Y-121972184D01*
X138154758Y-122195099D01*
X138135215Y-122437625D01*
X138089020Y-122555651D01*
X137984516Y-122593938D01*
X137870317Y-122597265D01*
X137456336Y-122578806D01*
X137124247Y-122527681D01*
X136902922Y-122450611D01*
X136821233Y-122354320D01*
X136821218Y-122352992D01*
X136849576Y-122275259D01*
X136959527Y-122240365D01*
X137188130Y-122239900D01*
X137293853Y-122245740D01*
X137561693Y-122258084D01*
X137699217Y-122242322D01*
X137744908Y-122183798D01*
X137738469Y-122076407D01*
X137698317Y-121952862D01*
X137592257Y-121887665D01*
X137373566Y-121856436D01*
X137308167Y-121851861D01*
X137058827Y-121823748D01*
X136938243Y-121768822D01*
X136906024Y-121668226D01*
X136906000Y-121664082D01*
X136927211Y-121569740D01*
X137017937Y-121524847D01*
X137218817Y-121516282D01*
X137350500Y-121520554D01*
X137611068Y-121524061D01*
X137744220Y-121497225D01*
X137791079Y-121426086D01*
X137795000Y-121369667D01*
X137770810Y-121268059D01*
X137671418Y-121211289D01*
X137456594Y-121181715D01*
X137350500Y-121174742D01*
X137087542Y-121150439D01*
X136953587Y-121104958D01*
X136908338Y-121020565D01*
X136906000Y-120979115D01*
X136913776Y-120923143D01*
X136697337Y-120923143D01*
X136682556Y-121134411D01*
X136655244Y-121421442D01*
X136620430Y-121738211D01*
X136583144Y-122038688D01*
X136548414Y-122276846D01*
X136523379Y-122400261D01*
X136429976Y-122461970D01*
X136323233Y-122455121D01*
X136180206Y-122342749D01*
X136127553Y-122144193D01*
X136092248Y-121966803D01*
X135996870Y-121884664D01*
X135787188Y-121851666D01*
X135783085Y-121851325D01*
X135571526Y-121846572D01*
X135469019Y-121904400D01*
X135417184Y-122062111D01*
X135411791Y-122088545D01*
X135348475Y-122274342D01*
X135238493Y-122330334D01*
X135180039Y-122326280D01*
X135049498Y-122235849D01*
X135020794Y-122035106D01*
X135097878Y-121751911D01*
X135098397Y-121750667D01*
X135130718Y-121578933D01*
X135133404Y-121350437D01*
X135150180Y-120994945D01*
X135257997Y-120778961D01*
X135384074Y-120709592D01*
X135529942Y-120700218D01*
X135775939Y-120709519D01*
X136068660Y-120732439D01*
X136354696Y-120763921D01*
X136580640Y-120798909D01*
X136693086Y-120832346D01*
X136694557Y-120833668D01*
X136697337Y-120923143D01*
X136913776Y-120923143D01*
X136918041Y-120892452D01*
X136978000Y-120846512D01*
X137121632Y-120834351D01*
X137384691Y-120849023D01*
X137519833Y-120859894D01*
X138012690Y-120902200D01*
X138368609Y-120940671D01*
X138619471Y-120984678D01*
X138797158Y-121043593D01*
X138933550Y-121126788D01*
X139060527Y-121243635D01*
X139150510Y-121339255D01*
X139365509Y-121540274D01*
X139507725Y-121590915D01*
X139587185Y-121488502D01*
X139613916Y-121230363D01*
X139614037Y-121215612D01*
X139637940Y-121045674D01*
X139733178Y-120998086D01*
X139803399Y-121003945D01*
X139892224Y-121025793D01*
X139945864Y-121082515D01*
X139971213Y-121207798D01*
X139975164Y-121435330D01*
X140215110Y-121435330D01*
X140248292Y-121267625D01*
X140385800Y-121143203D01*
X140645475Y-121083813D01*
X140907833Y-121073334D01*
X141286778Y-121085406D01*
X141527824Y-121141647D01*
X141661814Y-121272088D01*
X141719592Y-121506762D01*
X141732000Y-121875702D01*
X142135825Y-121875702D01*
X142233613Y-121601903D01*
X142346897Y-121312622D01*
X142438451Y-121132324D01*
X142524671Y-121035344D01*
X142621950Y-120996014D01*
X142744697Y-120988667D01*
X142868349Y-121000806D01*
X142964290Y-121057851D01*
X143056351Y-121190742D01*
X143168362Y-121430420D01*
X143266373Y-121666000D01*
X143543310Y-122343334D01*
X144550981Y-122343334D01*
X144495663Y-121623667D01*
X144470542Y-121275611D01*
X144465345Y-121062998D01*
X144486881Y-120952446D01*
X144541958Y-120910574D01*
X144637384Y-120904001D01*
X144642438Y-120904000D01*
X144736433Y-120912574D01*
X144798974Y-120959251D01*
X144840258Y-121075465D01*
X144870484Y-121292650D01*
X144899850Y-121642240D01*
X144905266Y-121714110D01*
X144928068Y-122065283D01*
X144939722Y-122347192D01*
X145274220Y-122347192D01*
X145220925Y-122194053D01*
X145226569Y-121919206D01*
X145237876Y-121695420D01*
X145210500Y-121551779D01*
X145195275Y-121534020D01*
X145123760Y-121403536D01*
X145137288Y-121205654D01*
X145225756Y-121013054D01*
X145275373Y-120957761D01*
X145462006Y-120863524D01*
X145779951Y-120810098D01*
X146014591Y-120796472D01*
X146597104Y-120777000D01*
X146656415Y-121242667D01*
X146696261Y-121581846D01*
X146730161Y-121914843D01*
X146741450Y-122047000D01*
X146767175Y-122385667D01*
X149007620Y-122385667D01*
X149360521Y-122245122D01*
X149542399Y-122153758D01*
X149793926Y-122003954D01*
X149975324Y-121841812D01*
X150095443Y-121639163D01*
X150163130Y-121367839D01*
X150187234Y-120999669D01*
X150176604Y-120506485D01*
X150160067Y-120187455D01*
X150134502Y-119789095D01*
X150108106Y-119454155D01*
X150083997Y-119217924D01*
X150065365Y-119115804D01*
X149978482Y-119122903D01*
X149781555Y-119195080D01*
X149513831Y-119317500D01*
X149457688Y-119345474D01*
X148725541Y-119650397D01*
X147832656Y-119907489D01*
X146780814Y-120116456D01*
X145571799Y-120277006D01*
X144207394Y-120388848D01*
X142705667Y-120451296D01*
X141017938Y-120468488D01*
X139428842Y-120436423D01*
X137947497Y-120356195D01*
X136583023Y-120228896D01*
X135344537Y-120055621D01*
X134241158Y-119837464D01*
X133282005Y-119575517D01*
X132476196Y-119270874D01*
X132341151Y-119208242D01*
X131983752Y-119044389D01*
X131749403Y-118957708D01*
X131614305Y-118941055D01*
X131561208Y-118974129D01*
X131561208Y-118974129D01*
G37*
X131561208Y-118974129D02*
X131493626Y-119171772D01*
X131446259Y-119486467D01*
X131418781Y-119878508D01*
X131410867Y-120308187D01*
X131422189Y-120735796D01*
X131452423Y-121121630D01*
X131501241Y-121425980D01*
X131568319Y-121609140D01*
X131582991Y-121626855D01*
X131767003Y-121758436D01*
X132072558Y-121924446D01*
X132460145Y-122107002D01*
X132890257Y-122288224D01*
X133323385Y-122450230D01*
X133604649Y-122541853D01*
X134958489Y-122877826D01*
X136438290Y-123107948D01*
X136440333Y-123108183D01*
X136729413Y-123131372D01*
X137163352Y-123152800D01*
X137718899Y-123172261D01*
X138372804Y-123189547D01*
X139101816Y-123204450D01*
X139882685Y-123216765D01*
X140692160Y-123226283D01*
X141506990Y-123232797D01*
X142303926Y-123236101D01*
X143059715Y-123235986D01*
X143751109Y-123232246D01*
X144354855Y-123224674D01*
X144847704Y-123213063D01*
X145206405Y-123197205D01*
X145330333Y-123187401D01*
X146557732Y-123029029D01*
X147642652Y-122818188D01*
X148578960Y-122556384D01*
X149007620Y-122385667D01*
X146767175Y-122385667D01*
X146345087Y-122435865D01*
X145917825Y-122480762D01*
X145625987Y-122494235D01*
X145438328Y-122474779D01*
X145323603Y-122420887D01*
X145287328Y-122384857D01*
X145274220Y-122347192D01*
X144939722Y-122347192D01*
X144938994Y-122521345D01*
X144932351Y-122557872D01*
X144838758Y-122577914D01*
X144614804Y-122604214D01*
X144299141Y-122632619D01*
X144090840Y-122648310D01*
X143710055Y-122671551D01*
X143465090Y-122674597D01*
X143323292Y-122654348D01*
X143252012Y-122607702D01*
X143229814Y-122566549D01*
X143125335Y-122482443D01*
X142927455Y-122432736D01*
X142693341Y-122418601D01*
X142480158Y-122441214D01*
X142345073Y-122501749D01*
X142324667Y-122547945D01*
X142248594Y-122688747D01*
X142024456Y-122755916D01*
X141967215Y-122759983D01*
X141904590Y-122746163D01*
X141886088Y-122678036D01*
X141916182Y-122527048D01*
X141999344Y-122264641D01*
X142082205Y-122025834D01*
X142135825Y-121875702D01*
X141732000Y-121875702D01*
X141732000Y-121875845D01*
X141726047Y-122208220D01*
X141700790Y-122416003D01*
X141645136Y-122543736D01*
X141547990Y-122635959D01*
X141541500Y-122640686D01*
X141354127Y-122710491D01*
X141075200Y-122745471D01*
X140766746Y-122746039D01*
X140490792Y-122712609D01*
X140309364Y-122645593D01*
X140293840Y-122632373D01*
X140221790Y-122490353D01*
X140189267Y-122341807D01*
X140226951Y-122172454D01*
X140345322Y-122093528D01*
X140481503Y-122119492D01*
X140570037Y-122254224D01*
X140637640Y-122371284D01*
X140790845Y-122421047D01*
X140953015Y-122428000D01*
X141219752Y-122395468D01*
X141341533Y-122295129D01*
X141341942Y-122294075D01*
X141386575Y-122071656D01*
X141388926Y-121803367D01*
X141353240Y-121562381D01*
X141291733Y-121428934D01*
X141097380Y-121336349D01*
X140858964Y-121343140D01*
X140658472Y-121441142D01*
X140611685Y-121496667D01*
X140466504Y-121638694D01*
X140319627Y-121659289D01*
X140222196Y-121561671D01*
X140208000Y-121471267D01*
X140215110Y-121435330D01*
X139975164Y-121435330D01*
X139964826Y-121792710D01*
X139948866Y-122137735D01*
X139928687Y-122416765D01*
X139907661Y-122587691D01*
X139898765Y-122618210D01*
X139791371Y-122671538D01*
X139695003Y-122682000D01*
X139587119Y-122651778D01*
X139539535Y-122532047D01*
X139530667Y-122343334D01*
X139519261Y-122131175D01*
X139490772Y-122013252D01*
X139479288Y-122004667D01*
X139391429Y-122053521D01*
X139212714Y-122181043D01*
X139002561Y-122343334D01*
X138755598Y-122536529D01*
X138600967Y-122639420D01*
X138499470Y-122668355D01*
X138411911Y-122639678D01*
X138363002Y-122610045D01*
X138336568Y-122534795D01*
X138425415Y-122398617D01*
X138638168Y-122186264D01*
X138839755Y-121992752D01*
X138978970Y-121844400D01*
X139022667Y-121780351D01*
X138970271Y-121693751D01*
X138839557Y-121530651D01*
X138670231Y-121335973D01*
X138502002Y-121154641D01*
X138374579Y-121031576D01*
X138337861Y-121005619D01*
X138293238Y-121067427D01*
X138247106Y-121268858D01*
X138204022Y-121580311D01*
X138168542Y-121972184D01*
X138154758Y-122195099D01*
X138135215Y-122437625D01*
X138089020Y-122555651D01*
X137984516Y-122593938D01*
X137870317Y-122597265D01*
X137456336Y-122578806D01*
X137124247Y-122527681D01*
X136902922Y-122450611D01*
X136821233Y-122354320D01*
X136821218Y-122352992D01*
X136849576Y-122275259D01*
X136959527Y-122240365D01*
X137188130Y-122239900D01*
X137293853Y-122245740D01*
X137561693Y-122258084D01*
X137699217Y-122242322D01*
X137744908Y-122183798D01*
X137738469Y-122076407D01*
X137698317Y-121952862D01*
X137592257Y-121887665D01*
X137373566Y-121856436D01*
X137308167Y-121851861D01*
X137058827Y-121823748D01*
X136938243Y-121768822D01*
X136906024Y-121668226D01*
X136906000Y-121664082D01*
X136927211Y-121569740D01*
X137017937Y-121524847D01*
X137218817Y-121516282D01*
X137350500Y-121520554D01*
X137611068Y-121524061D01*
X137744220Y-121497225D01*
X137791079Y-121426086D01*
X137795000Y-121369667D01*
X137770810Y-121268059D01*
X137671418Y-121211289D01*
X137456594Y-121181715D01*
X137350500Y-121174742D01*
X137087542Y-121150439D01*
X136953587Y-121104958D01*
X136908338Y-121020565D01*
X136906000Y-120979115D01*
X136913776Y-120923143D01*
X136697337Y-120923143D01*
X136682556Y-121134411D01*
X136655244Y-121421442D01*
X136620430Y-121738211D01*
X136583144Y-122038688D01*
X136548414Y-122276846D01*
X136523379Y-122400261D01*
X136429976Y-122461970D01*
X136323233Y-122455121D01*
X136180206Y-122342749D01*
X136127553Y-122144193D01*
X136092248Y-121966803D01*
X135996870Y-121884664D01*
X135787188Y-121851666D01*
X135783085Y-121851325D01*
X135571526Y-121846572D01*
X135469019Y-121904400D01*
X135417184Y-122062111D01*
X135411791Y-122088545D01*
X135348475Y-122274342D01*
X135238493Y-122330334D01*
X135180039Y-122326280D01*
X135049498Y-122235849D01*
X135020794Y-122035106D01*
X135097878Y-121751911D01*
X135098397Y-121750667D01*
X135130718Y-121578933D01*
X135133404Y-121350437D01*
X135150180Y-120994945D01*
X135257997Y-120778961D01*
X135384074Y-120709592D01*
X135529942Y-120700218D01*
X135775939Y-120709519D01*
X136068660Y-120732439D01*
X136354696Y-120763921D01*
X136580640Y-120798909D01*
X136693086Y-120832346D01*
X136694557Y-120833668D01*
X136697337Y-120923143D01*
X136913776Y-120923143D01*
X136918041Y-120892452D01*
X136978000Y-120846512D01*
X137121632Y-120834351D01*
X137384691Y-120849023D01*
X137519833Y-120859894D01*
X138012690Y-120902200D01*
X138368609Y-120940671D01*
X138619471Y-120984678D01*
X138797158Y-121043593D01*
X138933550Y-121126788D01*
X139060527Y-121243635D01*
X139150510Y-121339255D01*
X139365509Y-121540274D01*
X139507725Y-121590915D01*
X139587185Y-121488502D01*
X139613916Y-121230363D01*
X139614037Y-121215612D01*
X139637940Y-121045674D01*
X139733178Y-120998086D01*
X139803399Y-121003945D01*
X139892224Y-121025793D01*
X139945864Y-121082515D01*
X139971213Y-121207798D01*
X139975164Y-121435330D01*
X140215110Y-121435330D01*
X140248292Y-121267625D01*
X140385800Y-121143203D01*
X140645475Y-121083813D01*
X140907833Y-121073334D01*
X141286778Y-121085406D01*
X141527824Y-121141647D01*
X141661814Y-121272088D01*
X141719592Y-121506762D01*
X141732000Y-121875702D01*
X142135825Y-121875702D01*
X142233613Y-121601903D01*
X142346897Y-121312622D01*
X142438451Y-121132324D01*
X142524671Y-121035344D01*
X142621950Y-120996014D01*
X142744697Y-120988667D01*
X142868349Y-121000806D01*
X142964290Y-121057851D01*
X143056351Y-121190742D01*
X143168362Y-121430420D01*
X143266373Y-121666000D01*
X143543310Y-122343334D01*
X144550981Y-122343334D01*
X144495663Y-121623667D01*
X144470542Y-121275611D01*
X144465345Y-121062998D01*
X144486881Y-120952446D01*
X144541958Y-120910574D01*
X144637384Y-120904001D01*
X144642438Y-120904000D01*
X144736433Y-120912574D01*
X144798974Y-120959251D01*
X144840258Y-121075465D01*
X144870484Y-121292650D01*
X144899850Y-121642240D01*
X144905266Y-121714110D01*
X144928068Y-122065283D01*
X144939722Y-122347192D01*
X145274220Y-122347192D01*
X145220925Y-122194053D01*
X145226569Y-121919206D01*
X145237876Y-121695420D01*
X145210500Y-121551779D01*
X145195275Y-121534020D01*
X145123760Y-121403536D01*
X145137288Y-121205654D01*
X145225756Y-121013054D01*
X145275373Y-120957761D01*
X145462006Y-120863524D01*
X145779951Y-120810098D01*
X146014591Y-120796472D01*
X146597104Y-120777000D01*
X146656415Y-121242667D01*
X146696261Y-121581846D01*
X146730161Y-121914843D01*
X146741450Y-122047000D01*
X146767175Y-122385667D01*
X149007620Y-122385667D01*
X149360521Y-122245122D01*
X149542399Y-122153758D01*
X149793926Y-122003954D01*
X149975324Y-121841812D01*
X150095443Y-121639163D01*
X150163130Y-121367839D01*
X150187234Y-120999669D01*
X150176604Y-120506485D01*
X150160067Y-120187455D01*
X150134502Y-119789095D01*
X150108106Y-119454155D01*
X150083997Y-119217924D01*
X150065365Y-119115804D01*
X149978482Y-119122903D01*
X149781555Y-119195080D01*
X149513831Y-119317500D01*
X149457688Y-119345474D01*
X148725541Y-119650397D01*
X147832656Y-119907489D01*
X146780814Y-120116456D01*
X145571799Y-120277006D01*
X144207394Y-120388848D01*
X142705667Y-120451296D01*
X141017938Y-120468488D01*
X139428842Y-120436423D01*
X137947497Y-120356195D01*
X136583023Y-120228896D01*
X135344537Y-120055621D01*
X134241158Y-119837464D01*
X133282005Y-119575517D01*
X132476196Y-119270874D01*
X132341151Y-119208242D01*
X131983752Y-119044389D01*
X131749403Y-118957708D01*
X131614305Y-118941055D01*
X131561208Y-118974129D01*
D11*
G36*
X141651870Y-82420859D02*
G01*
X141845068Y-82459288D01*
X142391033Y-82685434D01*
X142882389Y-83013748D01*
X143300252Y-83431611D01*
X143628566Y-83922967D01*
X143854712Y-84468932D01*
X143970000Y-85048526D01*
X143970000Y-85639474D01*
X143854712Y-86219068D01*
X143628566Y-86765033D01*
X143300252Y-87256389D01*
X142882389Y-87674252D01*
X142391033Y-88002566D01*
X141845068Y-88228712D01*
X141651870Y-88267141D01*
X141265476Y-88344000D01*
X140674524Y-88344000D01*
X140288130Y-88267141D01*
X140094932Y-88228712D01*
X139548967Y-88002566D01*
X139057611Y-87674252D01*
X138639748Y-87256389D01*
X138311434Y-86765033D01*
X138085288Y-86219068D01*
X137970000Y-85639474D01*
X137970000Y-85048526D01*
X138085288Y-84468932D01*
X138311434Y-83922967D01*
X138639748Y-83431611D01*
X139057611Y-83013748D01*
X139548967Y-82685434D01*
X140094932Y-82459288D01*
X140288130Y-82420859D01*
X140674524Y-82344000D01*
X141265476Y-82344000D01*
X141651870Y-82420859D01*
X141651870Y-82420859D01*
G37*
M02*
