G04 #@! TF.GenerationSoftware,KiCad,Pcbnew,(5.1.4)-1*
G04 #@! TF.CreationDate,2019-08-25T11:07:58-07:00*
G04 #@! TF.ProjectId,mudd-small-frame-A,6d756464-2d73-46d6-916c-6c2d6672616d,rev?*
G04 #@! TF.SameCoordinates,Original*
G04 #@! TF.FileFunction,Soldermask,Top*
G04 #@! TF.FilePolarity,Negative*
%FSLAX46Y46*%
G04 Gerber Fmt 4.6, Leading zero omitted, Abs format (unit mm)*
G04 Created by KiCad (PCBNEW (5.1.4)-1) date 2019-08-25 11:07:58*
%MOMM*%
%LPD*%
G04 APERTURE LIST*
%ADD10C,0.300000*%
%ADD11C,0.100000*%
G04 APERTURE END LIST*
D10*
X146595238Y-114428571D02*
X147547619Y-113761904D01*
X146595238Y-113285714D02*
X148595238Y-113285714D01*
X148595238Y-114047619D01*
X148500000Y-114238095D01*
X148404761Y-114333333D01*
X148214285Y-114428571D01*
X147928571Y-114428571D01*
X147738095Y-114333333D01*
X147642857Y-114238095D01*
X147547619Y-114047619D01*
X147547619Y-113285714D01*
X146595238Y-116142857D02*
X147642857Y-116142857D01*
X147833333Y-116047619D01*
X147928571Y-115857142D01*
X147928571Y-115476190D01*
X147833333Y-115285714D01*
X146690476Y-116142857D02*
X146595238Y-115952380D01*
X146595238Y-115476190D01*
X146690476Y-115285714D01*
X146880952Y-115190476D01*
X147071428Y-115190476D01*
X147261904Y-115285714D01*
X147357142Y-115476190D01*
X147357142Y-115952380D01*
X147452380Y-116142857D01*
X147928571Y-116904761D02*
X146595238Y-117380952D01*
X147928571Y-117857142D02*
X146595238Y-117380952D01*
X146119047Y-117190476D01*
X146023809Y-117095238D01*
X145928571Y-116904761D01*
X146690476Y-120047619D02*
X146595238Y-120333333D01*
X146595238Y-120809523D01*
X146690476Y-121000000D01*
X146785714Y-121095238D01*
X146976190Y-121190476D01*
X147166666Y-121190476D01*
X147357142Y-121095238D01*
X147452380Y-121000000D01*
X147547619Y-120809523D01*
X147642857Y-120428571D01*
X147738095Y-120238095D01*
X147833333Y-120142857D01*
X148023809Y-120047619D01*
X148214285Y-120047619D01*
X148404761Y-120142857D01*
X148500000Y-120238095D01*
X148595238Y-120428571D01*
X148595238Y-120904761D01*
X148500000Y-121190476D01*
X147928571Y-122904761D02*
X146595238Y-122904761D01*
X147928571Y-122047619D02*
X146880952Y-122047619D01*
X146690476Y-122142857D01*
X146595238Y-122333333D01*
X146595238Y-122619047D01*
X146690476Y-122809523D01*
X146785714Y-122904761D01*
X147928571Y-123857142D02*
X146595238Y-123857142D01*
X147738095Y-123857142D02*
X147833333Y-123952380D01*
X147928571Y-124142857D01*
X147928571Y-124428571D01*
X147833333Y-124619047D01*
X147642857Y-124714285D01*
X146595238Y-124714285D01*
D11*
G36*
X147802585Y-143978802D02*
G01*
X147952410Y-144008604D01*
X148234674Y-144125521D01*
X148488705Y-144295259D01*
X148704741Y-144511295D01*
X148874479Y-144765326D01*
X148991396Y-145047590D01*
X149051000Y-145347240D01*
X149051000Y-145652760D01*
X148991396Y-145952410D01*
X148874479Y-146234674D01*
X148704741Y-146488705D01*
X148488705Y-146704741D01*
X148234674Y-146874479D01*
X147952410Y-146991396D01*
X147802585Y-147021198D01*
X147652761Y-147051000D01*
X147347239Y-147051000D01*
X147197415Y-147021198D01*
X147047590Y-146991396D01*
X146765326Y-146874479D01*
X146511295Y-146704741D01*
X146295259Y-146488705D01*
X146125521Y-146234674D01*
X146008604Y-145952410D01*
X145949000Y-145652760D01*
X145949000Y-145347240D01*
X146008604Y-145047590D01*
X146125521Y-144765326D01*
X146295259Y-144511295D01*
X146511295Y-144295259D01*
X146765326Y-144125521D01*
X147047590Y-144008604D01*
X147197415Y-143978802D01*
X147347239Y-143949000D01*
X147652761Y-143949000D01*
X147802585Y-143978802D01*
X147802585Y-143978802D01*
G37*
G36*
X147802585Y-50978802D02*
G01*
X147952410Y-51008604D01*
X148234674Y-51125521D01*
X148488705Y-51295259D01*
X148704741Y-51511295D01*
X148874479Y-51765326D01*
X148991396Y-52047590D01*
X149051000Y-52347240D01*
X149051000Y-52652760D01*
X148991396Y-52952410D01*
X148874479Y-53234674D01*
X148704741Y-53488705D01*
X148488705Y-53704741D01*
X148234674Y-53874479D01*
X147952410Y-53991396D01*
X147802585Y-54021198D01*
X147652761Y-54051000D01*
X147347239Y-54051000D01*
X147197415Y-54021198D01*
X147047590Y-53991396D01*
X146765326Y-53874479D01*
X146511295Y-53704741D01*
X146295259Y-53488705D01*
X146125521Y-53234674D01*
X146008604Y-52952410D01*
X145949000Y-52652760D01*
X145949000Y-52347240D01*
X146008604Y-52047590D01*
X146125521Y-51765326D01*
X146295259Y-51511295D01*
X146511295Y-51295259D01*
X146765326Y-51125521D01*
X147047590Y-51008604D01*
X147197415Y-50978802D01*
X147347239Y-50949000D01*
X147652761Y-50949000D01*
X147802585Y-50978802D01*
X147802585Y-50978802D01*
G37*
M02*
