G04 #@! TF.GenerationSoftware,KiCad,Pcbnew,(5.1.4)-1*
G04 #@! TF.CreationDate,2019-08-25T16:12:39-07:00*
G04 #@! TF.ProjectId,mudd_keychain,6d756464-5f6b-4657-9963-6861696e2e6b,A*
G04 #@! TF.SameCoordinates,Original*
G04 #@! TF.FileFunction,Soldermask,Bot*
G04 #@! TF.FilePolarity,Negative*
%FSLAX46Y46*%
G04 Gerber Fmt 4.6, Leading zero omitted, Abs format (unit mm)*
G04 Created by KiCad (PCBNEW (5.1.4)-1) date 2019-08-25 16:12:39*
%MOMM*%
%LPD*%
G04 APERTURE LIST*
%ADD10C,0.01*%
%ADD11C,0.1*%
G04 APERTURE END LIST*
D10*
G36*
X0021462270Y0022948691D02*
G01*
X0021108453Y0022928724D01*
X0020684950Y0022899274D01*
X0020223238Y0022863104D01*
X0019754799Y0022822975D01*
X0019311109Y0022781651D01*
X0018923649Y0022741894D01*
X0018623897Y0022706466D01*
X0018443333Y0022678128D01*
X0018405610Y0022666019D01*
X0018431274Y0022585230D01*
X0018562428Y0022440980D01*
X0018763784Y0022263910D01*
X0019000057Y0022084663D01*
X0019235958Y0021933881D01*
X0019270805Y0021914715D01*
X0019413906Y0021844627D01*
X0019558978Y0021795853D01*
X0019737823Y0021765382D01*
X0019982241Y0021750206D01*
X0020324032Y0021747313D01*
X0020794998Y0021753695D01*
X0020942544Y0021756502D01*
X0021711023Y0021757347D01*
X0022406869Y0021730076D01*
X0023007725Y0021676850D01*
X0023491233Y0021599831D01*
X0023835035Y0021501183D01*
X0023902766Y0021470215D01*
X0024092668Y0021403763D01*
X0024326783Y0021361493D01*
X0024548573Y0021347957D01*
X0024701497Y0021367711D01*
X0024737302Y0021402994D01*
X0024672292Y0021579699D01*
X0024499256Y0021813232D01*
X0024251186Y0022066676D01*
X0023961071Y0022303115D01*
X0023887030Y0022354447D01*
X0023294640Y0022660901D01*
X0022607564Y0022865306D01*
X0021875642Y0022953849D01*
X0021714922Y0022956413D01*
X0021462270Y0022948691D01*
X0021462270Y0022948691D01*
G37*
X0021462270Y0022948691D02*
X0021108453Y0022928724D01*
X0020684950Y0022899274D01*
X0020223238Y0022863104D01*
X0019754799Y0022822975D01*
X0019311109Y0022781651D01*
X0018923649Y0022741894D01*
X0018623897Y0022706466D01*
X0018443333Y0022678128D01*
X0018405610Y0022666019D01*
X0018431274Y0022585230D01*
X0018562428Y0022440980D01*
X0018763784Y0022263910D01*
X0019000057Y0022084663D01*
X0019235958Y0021933881D01*
X0019270805Y0021914715D01*
X0019413906Y0021844627D01*
X0019558978Y0021795853D01*
X0019737823Y0021765382D01*
X0019982241Y0021750206D01*
X0020324032Y0021747313D01*
X0020794998Y0021753695D01*
X0020942544Y0021756502D01*
X0021711023Y0021757347D01*
X0022406869Y0021730076D01*
X0023007725Y0021676850D01*
X0023491233Y0021599831D01*
X0023835035Y0021501183D01*
X0023902766Y0021470215D01*
X0024092668Y0021403763D01*
X0024326783Y0021361493D01*
X0024548573Y0021347957D01*
X0024701497Y0021367711D01*
X0024737302Y0021402994D01*
X0024672292Y0021579699D01*
X0024499256Y0021813232D01*
X0024251186Y0022066676D01*
X0023961071Y0022303115D01*
X0023887030Y0022354447D01*
X0023294640Y0022660901D01*
X0022607564Y0022865306D01*
X0021875642Y0022953849D01*
X0021714922Y0022956413D01*
X0021462270Y0022948691D01*
G36*
X0021035969Y0020600376D02*
G01*
X0020991968Y0020524582D01*
X0020990523Y0020333159D01*
X0020995814Y0020248821D01*
X0021003903Y0020059522D01*
X0021012794Y0019728936D01*
X0021021952Y0019285102D01*
X0021030844Y0018756061D01*
X0021038935Y0018169853D01*
X0021044166Y0017708821D01*
X0021054311Y0016960443D01*
X0021069802Y0016357951D01*
X0021093763Y0015877912D01*
X0021129320Y0015496894D01*
X0021179597Y0015191464D01*
X0021247721Y0014938188D01*
X0021336817Y0014713635D01*
X0021450010Y0014494371D01*
X0021479869Y0014442073D01*
X0021633567Y0014220776D01*
X0021841242Y0013977018D01*
X0022066077Y0013747685D01*
X0022271256Y0013569665D01*
X0022419962Y0013479843D01*
X0022444621Y0013475488D01*
X0022584560Y0013447564D01*
X0022666848Y0013419950D01*
X0022756227Y0013405176D01*
X0022782817Y0013480889D01*
X0022758506Y0013683542D01*
X0022756591Y0013695117D01*
X0022730616Y0013911331D01*
X0022701586Y0014248865D01*
X0022673209Y0014659841D01*
X0022651104Y0015056821D01*
X0022600604Y0016087820D01*
X0022826980Y0016314196D01*
X0023012969Y0016465614D01*
X0023195741Y0016504746D01*
X0023346436Y0016485590D01*
X0023608003Y0016457955D01*
X0023733136Y0016512926D01*
X0023741707Y0016667980D01*
X0023704517Y0016800526D01*
X0023485939Y0017202950D01*
X0023146127Y0017519362D01*
X0023025312Y0017590742D01*
X0022854522Y0017704176D01*
X0022728157Y0017860526D01*
X0022632030Y0018092490D01*
X0022551953Y0018432764D01*
X0022485372Y0018835194D01*
X0022386359Y0019372319D01*
X0022263254Y0019770228D01*
X0022100582Y0020058820D01*
X0021882869Y0020267995D01*
X0021682364Y0020386698D01*
X0021425535Y0020503078D01*
X0021206578Y0020583914D01*
X0021138968Y0020600992D01*
X0021035969Y0020600376D01*
X0021035969Y0020600376D01*
G37*
X0021035969Y0020600376D02*
X0020991968Y0020524582D01*
X0020990523Y0020333159D01*
X0020995814Y0020248821D01*
X0021003903Y0020059522D01*
X0021012794Y0019728936D01*
X0021021952Y0019285102D01*
X0021030844Y0018756061D01*
X0021038935Y0018169853D01*
X0021044166Y0017708821D01*
X0021054311Y0016960443D01*
X0021069802Y0016357951D01*
X0021093763Y0015877912D01*
X0021129320Y0015496894D01*
X0021179597Y0015191464D01*
X0021247721Y0014938188D01*
X0021336817Y0014713635D01*
X0021450010Y0014494371D01*
X0021479869Y0014442073D01*
X0021633567Y0014220776D01*
X0021841242Y0013977018D01*
X0022066077Y0013747685D01*
X0022271256Y0013569665D01*
X0022419962Y0013479843D01*
X0022444621Y0013475488D01*
X0022584560Y0013447564D01*
X0022666848Y0013419950D01*
X0022756227Y0013405176D01*
X0022782817Y0013480889D01*
X0022758506Y0013683542D01*
X0022756591Y0013695117D01*
X0022730616Y0013911331D01*
X0022701586Y0014248865D01*
X0022673209Y0014659841D01*
X0022651104Y0015056821D01*
X0022600604Y0016087820D01*
X0022826980Y0016314196D01*
X0023012969Y0016465614D01*
X0023195741Y0016504746D01*
X0023346436Y0016485590D01*
X0023608003Y0016457955D01*
X0023733136Y0016512926D01*
X0023741707Y0016667980D01*
X0023704517Y0016800526D01*
X0023485939Y0017202950D01*
X0023146127Y0017519362D01*
X0023025312Y0017590742D01*
X0022854522Y0017704176D01*
X0022728157Y0017860526D01*
X0022632030Y0018092490D01*
X0022551953Y0018432764D01*
X0022485372Y0018835194D01*
X0022386359Y0019372319D01*
X0022263254Y0019770228D01*
X0022100582Y0020058820D01*
X0021882869Y0020267995D01*
X0021682364Y0020386698D01*
X0021425535Y0020503078D01*
X0021206578Y0020583914D01*
X0021138968Y0020600992D01*
X0021035969Y0020600376D01*
G36*
X0016879443Y0022492213D02*
G01*
X0016863302Y0022489722D01*
X0016223364Y0022329184D01*
X0015699987Y0022077543D01*
X0015305395Y0021743391D01*
X0015051812Y0021335317D01*
X0014999589Y0021180154D01*
X0014951629Y0020962248D01*
X0014945298Y0020764544D01*
X0014985636Y0020528724D01*
X0015077680Y0020196464D01*
X0015087372Y0020164154D01*
X0015207610Y0019756087D01*
X0015271797Y0019481392D01*
X0015272432Y0019311218D01*
X0015202013Y0019216713D01*
X0015053038Y0019169025D01*
X0014820973Y0019139624D01*
X0014244758Y0018998970D01*
X0013734948Y0018718945D01*
X0013359702Y0018360215D01*
X0013149495Y0017973919D01*
X0013056922Y0017481734D01*
X0013082183Y0016880007D01*
X0013225476Y0016165083D01*
X0013487002Y0015333309D01*
X0013531642Y0015211154D01*
X0013670409Y0014872692D01*
X0013822065Y0014603178D01*
X0014015600Y0014373267D01*
X0014280006Y0014153616D01*
X0014644271Y0013914879D01*
X0015042968Y0013681353D01*
X0015454686Y0013439449D01*
X0015879088Y0013178242D01*
X0016254852Y0012935992D01*
X0016438807Y0012810471D01*
X0016987979Y0012422381D01*
X0018089807Y0012366132D01*
X0019162679Y0012313662D01*
X0020086521Y0012273344D01*
X0020858176Y0012245254D01*
X0021474489Y0012229466D01*
X0021932304Y0012226054D01*
X0022228466Y0012235093D01*
X0022359818Y0012256657D01*
X0022366635Y0012265088D01*
X0022294757Y0012404338D01*
X0022104543Y0012578081D01*
X0021834127Y0012756066D01*
X0021595451Y0012876880D01*
X0021011265Y0013085273D01*
X0020338305Y0013228981D01*
X0019559587Y0013309650D01*
X0018658126Y0013328924D01*
X0017616935Y0013288450D01*
X0017455968Y0013277898D01*
X0016482302Y0013211172D01*
X0015764828Y0013663506D01*
X0015047353Y0014115841D01*
X0014775574Y0014978893D01*
X0014618487Y0015527722D01*
X0014481324Y0016102184D01*
X0014370737Y0016664519D01*
X0014293381Y0017176967D01*
X0014255913Y0017601768D01*
X0014262999Y0017887363D01*
X0014392070Y0018321493D01*
X0014644092Y0018640928D01*
X0015013437Y0018841157D01*
X0015494477Y0018917671D01*
X0015549818Y0018918345D01*
X0015742775Y0018910957D01*
X0015926311Y0018881242D01*
X0016123814Y0018817874D01*
X0016358670Y0018709525D01*
X0016654266Y0018544869D01*
X0017033989Y0018312580D01*
X0017521224Y0018001331D01*
X0017752302Y0017851639D01*
X0018852968Y0017136994D01*
X0018921281Y0016175405D01*
X0018973452Y0015607292D01*
X0019047975Y0015174658D01*
X0019159775Y0014843814D01*
X0019323776Y0014581068D01*
X0019554900Y0014352731D01*
X0019813190Y0014161952D01*
X0020148427Y0013946063D01*
X0020366824Y0013835185D01*
X0020480341Y0013824393D01*
X0020503853Y0013877654D01*
X0020489565Y0013984799D01*
X0020451545Y0014215949D01*
X0020396889Y0014528607D01*
X0020373076Y0014660821D01*
X0020330696Y0014967513D01*
X0020287802Y0015410161D01*
X0020246802Y0015955412D01*
X0020210101Y0016569914D01*
X0020180107Y0017220313D01*
X0020171482Y0017454821D01*
X0020140745Y0018264984D01*
X0020102668Y0018928925D01*
X0020098733Y0018967195D01*
X0019060706Y0018967195D01*
X0019053358Y0018472300D01*
X0019025189Y0018071706D01*
X0018977325Y0017787010D01*
X0018910893Y0017639805D01*
X0018876478Y0017624154D01*
X0018783944Y0017669926D01*
X0018575641Y0017797215D01*
X0018274908Y0017990987D01*
X0017905083Y0018236203D01*
X0017491916Y0018516180D01*
X0017071955Y0018809770D01*
X0016696971Y0019083493D01*
X0016391285Y0019318668D01*
X0016179217Y0019496612D01*
X0016086593Y0019595680D01*
X0016034563Y0019775315D01*
X0015999177Y0020059855D01*
X0015988415Y0020360521D01*
X0016024170Y0020806149D01*
X0016138243Y0021130816D01*
X0016351411Y0021372820D01*
X0016630702Y0021544462D01*
X0016951016Y0021686751D01*
X0017216560Y0021749039D01*
X0017471398Y0021725339D01*
X0017759591Y0021609664D01*
X0018125204Y0021396027D01*
X0018233839Y0021326628D01*
X0018953248Y0020862531D01*
X0019008434Y0020153509D01*
X0019046107Y0019534796D01*
X0019060706Y0018967195D01*
X0020098733Y0018967195D01*
X0020047051Y0019469734D01*
X0019963697Y0019910499D01*
X0019842404Y0020274307D01*
X0019672976Y0020584247D01*
X0019445211Y0020863408D01*
X0019148910Y0021134877D01*
X0018773876Y0021421742D01*
X0018309907Y0021747093D01*
X0018260302Y0021781207D01*
X0017837412Y0022069108D01*
X0017526267Y0022271677D01*
X0017300883Y0022402093D01*
X0017135274Y0022473536D01*
X0017003456Y0022499183D01*
X0016879443Y0022492213D01*
X0016879443Y0022492213D01*
G37*
X0016879443Y0022492213D02*
X0016863302Y0022489722D01*
X0016223364Y0022329184D01*
X0015699987Y0022077543D01*
X0015305395Y0021743391D01*
X0015051812Y0021335317D01*
X0014999589Y0021180154D01*
X0014951629Y0020962248D01*
X0014945298Y0020764544D01*
X0014985636Y0020528724D01*
X0015077680Y0020196464D01*
X0015087372Y0020164154D01*
X0015207610Y0019756087D01*
X0015271797Y0019481392D01*
X0015272432Y0019311218D01*
X0015202013Y0019216713D01*
X0015053038Y0019169025D01*
X0014820973Y0019139624D01*
X0014244758Y0018998970D01*
X0013734948Y0018718945D01*
X0013359702Y0018360215D01*
X0013149495Y0017973919D01*
X0013056922Y0017481734D01*
X0013082183Y0016880007D01*
X0013225476Y0016165083D01*
X0013487002Y0015333309D01*
X0013531642Y0015211154D01*
X0013670409Y0014872692D01*
X0013822065Y0014603178D01*
X0014015600Y0014373267D01*
X0014280006Y0014153616D01*
X0014644271Y0013914879D01*
X0015042968Y0013681353D01*
X0015454686Y0013439449D01*
X0015879088Y0013178242D01*
X0016254852Y0012935992D01*
X0016438807Y0012810471D01*
X0016987979Y0012422381D01*
X0018089807Y0012366132D01*
X0019162679Y0012313662D01*
X0020086521Y0012273344D01*
X0020858176Y0012245254D01*
X0021474489Y0012229466D01*
X0021932304Y0012226054D01*
X0022228466Y0012235093D01*
X0022359818Y0012256657D01*
X0022366635Y0012265088D01*
X0022294757Y0012404338D01*
X0022104543Y0012578081D01*
X0021834127Y0012756066D01*
X0021595451Y0012876880D01*
X0021011265Y0013085273D01*
X0020338305Y0013228981D01*
X0019559587Y0013309650D01*
X0018658126Y0013328924D01*
X0017616935Y0013288450D01*
X0017455968Y0013277898D01*
X0016482302Y0013211172D01*
X0015764828Y0013663506D01*
X0015047353Y0014115841D01*
X0014775574Y0014978893D01*
X0014618487Y0015527722D01*
X0014481324Y0016102184D01*
X0014370737Y0016664519D01*
X0014293381Y0017176967D01*
X0014255913Y0017601768D01*
X0014262999Y0017887363D01*
X0014392070Y0018321493D01*
X0014644092Y0018640928D01*
X0015013437Y0018841157D01*
X0015494477Y0018917671D01*
X0015549818Y0018918345D01*
X0015742775Y0018910957D01*
X0015926311Y0018881242D01*
X0016123814Y0018817874D01*
X0016358670Y0018709525D01*
X0016654266Y0018544869D01*
X0017033989Y0018312580D01*
X0017521224Y0018001331D01*
X0017752302Y0017851639D01*
X0018852968Y0017136994D01*
X0018921281Y0016175405D01*
X0018973452Y0015607292D01*
X0019047975Y0015174658D01*
X0019159775Y0014843814D01*
X0019323776Y0014581068D01*
X0019554900Y0014352731D01*
X0019813190Y0014161952D01*
X0020148427Y0013946063D01*
X0020366824Y0013835185D01*
X0020480341Y0013824393D01*
X0020503853Y0013877654D01*
X0020489565Y0013984799D01*
X0020451545Y0014215949D01*
X0020396889Y0014528607D01*
X0020373076Y0014660821D01*
X0020330696Y0014967513D01*
X0020287802Y0015410161D01*
X0020246802Y0015955412D01*
X0020210101Y0016569914D01*
X0020180107Y0017220313D01*
X0020171482Y0017454821D01*
X0020140745Y0018264984D01*
X0020102668Y0018928925D01*
X0020098733Y0018967195D01*
X0019060706Y0018967195D01*
X0019053358Y0018472300D01*
X0019025189Y0018071706D01*
X0018977325Y0017787010D01*
X0018910893Y0017639805D01*
X0018876478Y0017624154D01*
X0018783944Y0017669926D01*
X0018575641Y0017797215D01*
X0018274908Y0017990987D01*
X0017905083Y0018236203D01*
X0017491916Y0018516180D01*
X0017071955Y0018809770D01*
X0016696971Y0019083493D01*
X0016391285Y0019318668D01*
X0016179217Y0019496612D01*
X0016086593Y0019595680D01*
X0016034563Y0019775315D01*
X0015999177Y0020059855D01*
X0015988415Y0020360521D01*
X0016024170Y0020806149D01*
X0016138243Y0021130816D01*
X0016351411Y0021372820D01*
X0016630702Y0021544462D01*
X0016951016Y0021686751D01*
X0017216560Y0021749039D01*
X0017471398Y0021725339D01*
X0017759591Y0021609664D01*
X0018125204Y0021396027D01*
X0018233839Y0021326628D01*
X0018953248Y0020862531D01*
X0019008434Y0020153509D01*
X0019046107Y0019534796D01*
X0019060706Y0018967195D01*
X0020098733Y0018967195D01*
X0020047051Y0019469734D01*
X0019963697Y0019910499D01*
X0019842404Y0020274307D01*
X0019672976Y0020584247D01*
X0019445211Y0020863408D01*
X0019148910Y0021134877D01*
X0018773876Y0021421742D01*
X0018309907Y0021747093D01*
X0018260302Y0021781207D01*
X0017837412Y0022069108D01*
X0017526267Y0022271677D01*
X0017300883Y0022402093D01*
X0017135274Y0022473536D01*
X0017003456Y0022499183D01*
X0016879443Y0022492213D01*
G36*
X0013663358Y0005974110D02*
G01*
X0013604091Y0005856924D01*
X0013587668Y0005670408D01*
X0013695255Y0005548730D01*
X0013947244Y0005471637D01*
X0014001482Y0005462223D01*
X0014203238Y0005442642D01*
X0014298530Y0005494779D01*
X0014345674Y0005651348D01*
X0014346531Y0005655797D01*
X0014374588Y0005830891D01*
X0014345104Y0005922166D01*
X0014219917Y0005967535D01*
X0014000494Y0005999565D01*
X0013777384Y0006016405D01*
X0013663358Y0005974110D01*
X0013663358Y0005974110D01*
G37*
X0013663358Y0005974110D02*
X0013604091Y0005856924D01*
X0013587668Y0005670408D01*
X0013695255Y0005548730D01*
X0013947244Y0005471637D01*
X0014001482Y0005462223D01*
X0014203238Y0005442642D01*
X0014298530Y0005494779D01*
X0014345674Y0005651348D01*
X0014346531Y0005655797D01*
X0014374588Y0005830891D01*
X0014345104Y0005922166D01*
X0014219917Y0005967535D01*
X0014000494Y0005999565D01*
X0013777384Y0006016405D01*
X0013663358Y0005974110D01*
G36*
X0023811534Y0005898019D02*
G01*
X0023669650Y0005791038D01*
X0023663974Y0005652366D01*
X0023788417Y0005549430D01*
X0024030187Y0005533603D01*
X0024241376Y0005573433D01*
X0024350162Y0005657469D01*
X0024341168Y0005781247D01*
X0024238743Y0005892463D01*
X0024071260Y0005938858D01*
X0023811534Y0005898019D01*
X0023811534Y0005898019D01*
G37*
X0023811534Y0005898019D02*
X0023669650Y0005791038D01*
X0023663974Y0005652366D01*
X0023788417Y0005549430D01*
X0024030187Y0005533603D01*
X0024241376Y0005573433D01*
X0024350162Y0005657469D01*
X0024341168Y0005781247D01*
X0024238743Y0005892463D01*
X0024071260Y0005938858D01*
X0023811534Y0005898019D01*
G36*
X0023875677Y0005221831D02*
G01*
X0023710037Y0005119422D01*
X0023655892Y0004986433D01*
X0023676676Y0004927863D01*
X0023791536Y0004869672D01*
X0023993600Y0004841931D01*
X0024202843Y0004848480D01*
X0024339241Y0004893157D01*
X0024342191Y0004895932D01*
X0024390680Y0005020436D01*
X0024398635Y0005107599D01*
X0024357385Y0005217620D01*
X0024206701Y0005259934D01*
X0024112669Y0005262821D01*
X0023875677Y0005221831D01*
X0023875677Y0005221831D01*
G37*
X0023875677Y0005221831D02*
X0023710037Y0005119422D01*
X0023655892Y0004986433D01*
X0023676676Y0004927863D01*
X0023791536Y0004869672D01*
X0023993600Y0004841931D01*
X0024202843Y0004848480D01*
X0024339241Y0004893157D01*
X0024342191Y0004895932D01*
X0024390680Y0005020436D01*
X0024398635Y0005107599D01*
X0024357385Y0005217620D01*
X0024206701Y0005259934D01*
X0024112669Y0005262821D01*
X0023875677Y0005221831D01*
G36*
X0020783855Y0005466941D02*
G01*
X0020686892Y0005301171D01*
X0020603401Y0005078590D01*
X0020625605Y0004964944D01*
X0020768351Y0004926267D01*
X0020851694Y0004924154D01*
X0021029001Y0004940265D01*
X0021073484Y0005005629D01*
X0021053754Y0005072321D01*
X0020976030Y0005285611D01*
X0020950155Y0005368654D01*
X0020877253Y0005501695D01*
X0020783855Y0005466941D01*
X0020783855Y0005466941D01*
G37*
X0020783855Y0005466941D02*
X0020686892Y0005301171D01*
X0020603401Y0005078590D01*
X0020625605Y0004964944D01*
X0020768351Y0004926267D01*
X0020851694Y0004924154D01*
X0021029001Y0004940265D01*
X0021073484Y0005005629D01*
X0021053754Y0005072321D01*
X0020976030Y0005285611D01*
X0020950155Y0005368654D01*
X0020877253Y0005501695D01*
X0020783855Y0005466941D01*
G36*
X0015931968Y0029181154D02*
G01*
X0015974302Y0029138821D01*
X0016016635Y0029181154D01*
X0015974302Y0029223488D01*
X0015931968Y0029181154D01*
X0015931968Y0029181154D01*
G37*
X0015931968Y0029181154D02*
X0015974302Y0029138821D01*
X0016016635Y0029181154D01*
X0015974302Y0029223488D01*
X0015931968Y0029181154D01*
G36*
X0022197302Y0029011821D02*
G01*
X0022239635Y0028969488D01*
X0022281968Y0029011821D01*
X0022239635Y0029054154D01*
X0022197302Y0029011821D01*
X0022197302Y0029011821D01*
G37*
X0022197302Y0029011821D02*
X0022239635Y0028969488D01*
X0022281968Y0029011821D01*
X0022239635Y0029054154D01*
X0022197302Y0029011821D01*
G36*
X0019061401Y0034253475D02*
G01*
X0018972777Y0034169764D01*
X0018731545Y0033876610D01*
X0018497517Y0033486445D01*
X0018295995Y0033054216D01*
X0018152285Y0032634873D01*
X0018091692Y0032283364D01*
X0018091178Y0032255398D01*
X0018081119Y0032019286D01*
X0018055737Y0031872414D01*
X0018037808Y0031848417D01*
X0017932166Y0031878118D01*
X0017736747Y0031952108D01*
X0017680694Y0031975155D01*
X0017208951Y0032100407D01*
X0016784385Y0032069397D01*
X0016421347Y0031886861D01*
X0016134192Y0031557535D01*
X0016071520Y0031444041D01*
X0015899748Y0031063111D01*
X0015817338Y0030753167D01*
X0015815792Y0030447003D01*
X0015886610Y0030077413D01*
X0015894625Y0030045169D01*
X0015992564Y0029674831D01*
X0016073485Y0029454400D01*
X0016157452Y0029368563D01*
X0016264529Y0029402004D01*
X0016414781Y0029539408D01*
X0016474786Y0029602333D01*
X0016660488Y0029787855D01*
X0016808651Y0029877563D01*
X0016990694Y0029897310D01*
X0017234777Y0029877433D01*
X0017546648Y0029826234D01*
X0017827887Y0029748841D01*
X0017934186Y0029704555D01*
X0018198268Y0029482620D01*
X0018415806Y0029133846D01*
X0018565976Y0028698765D01*
X0018619259Y0028371281D01*
X0018664820Y0027868821D01*
X0019121385Y0027868821D01*
X0019425639Y0027888552D01*
X0019589629Y0027944996D01*
X0019611029Y0027974654D01*
X0019645347Y0028122222D01*
X0019689051Y0028355731D01*
X0019699729Y0028419154D01*
X0019847830Y0028971310D01*
X0020085843Y0029390211D01*
X0020408220Y0029669832D01*
X0020809413Y0029804144D01*
X0020985290Y0029815838D01*
X0021422612Y0029769839D01*
X0021722977Y0029629480D01*
X0021874265Y0029434662D01*
X0021978346Y0029277252D01*
X0022082999Y0029274712D01*
X0022195763Y0029431604D01*
X0022303985Y0029694744D01*
X0022416917Y0030209487D01*
X0022402826Y0030722466D01*
X0022270922Y0031196530D01*
X0022030419Y0031594529D01*
X0021775249Y0031826988D01*
X0021502784Y0031971026D01*
X0021238590Y0032003899D01*
X0020932472Y0031924767D01*
X0020678915Y0031808666D01*
X0020266825Y0031599844D01*
X0020357718Y0031840646D01*
X0020394602Y0031992751D01*
X0020384947Y0032172220D01*
X0020321695Y0032423194D01*
X0020212658Y0032747968D01*
X0019970199Y0033358418D01*
X0019721318Y0033844638D01*
X0019476239Y0034187540D01*
X0019401087Y0034263159D01*
X0019286718Y0034352773D01*
X0019192495Y0034353689D01*
X0019061401Y0034253475D01*
X0019061401Y0034253475D01*
G37*
X0019061401Y0034253475D02*
X0018972777Y0034169764D01*
X0018731545Y0033876610D01*
X0018497517Y0033486445D01*
X0018295995Y0033054216D01*
X0018152285Y0032634873D01*
X0018091692Y0032283364D01*
X0018091178Y0032255398D01*
X0018081119Y0032019286D01*
X0018055737Y0031872414D01*
X0018037808Y0031848417D01*
X0017932166Y0031878118D01*
X0017736747Y0031952108D01*
X0017680694Y0031975155D01*
X0017208951Y0032100407D01*
X0016784385Y0032069397D01*
X0016421347Y0031886861D01*
X0016134192Y0031557535D01*
X0016071520Y0031444041D01*
X0015899748Y0031063111D01*
X0015817338Y0030753167D01*
X0015815792Y0030447003D01*
X0015886610Y0030077413D01*
X0015894625Y0030045169D01*
X0015992564Y0029674831D01*
X0016073485Y0029454400D01*
X0016157452Y0029368563D01*
X0016264529Y0029402004D01*
X0016414781Y0029539408D01*
X0016474786Y0029602333D01*
X0016660488Y0029787855D01*
X0016808651Y0029877563D01*
X0016990694Y0029897310D01*
X0017234777Y0029877433D01*
X0017546648Y0029826234D01*
X0017827887Y0029748841D01*
X0017934186Y0029704555D01*
X0018198268Y0029482620D01*
X0018415806Y0029133846D01*
X0018565976Y0028698765D01*
X0018619259Y0028371281D01*
X0018664820Y0027868821D01*
X0019121385Y0027868821D01*
X0019425639Y0027888552D01*
X0019589629Y0027944996D01*
X0019611029Y0027974654D01*
X0019645347Y0028122222D01*
X0019689051Y0028355731D01*
X0019699729Y0028419154D01*
X0019847830Y0028971310D01*
X0020085843Y0029390211D01*
X0020408220Y0029669832D01*
X0020809413Y0029804144D01*
X0020985290Y0029815838D01*
X0021422612Y0029769839D01*
X0021722977Y0029629480D01*
X0021874265Y0029434662D01*
X0021978346Y0029277252D01*
X0022082999Y0029274712D01*
X0022195763Y0029431604D01*
X0022303985Y0029694744D01*
X0022416917Y0030209487D01*
X0022402826Y0030722466D01*
X0022270922Y0031196530D01*
X0022030419Y0031594529D01*
X0021775249Y0031826988D01*
X0021502784Y0031971026D01*
X0021238590Y0032003899D01*
X0020932472Y0031924767D01*
X0020678915Y0031808666D01*
X0020266825Y0031599844D01*
X0020357718Y0031840646D01*
X0020394602Y0031992751D01*
X0020384947Y0032172220D01*
X0020321695Y0032423194D01*
X0020212658Y0032747968D01*
X0019970199Y0033358418D01*
X0019721318Y0033844638D01*
X0019476239Y0034187540D01*
X0019401087Y0034263159D01*
X0019286718Y0034352773D01*
X0019192495Y0034353689D01*
X0019061401Y0034253475D01*
G36*
X0009915837Y0032829220D02*
G01*
X0009366751Y0032685925D01*
X0008869105Y0032397915D01*
X0008696158Y0032256607D01*
X0008417800Y0031994463D01*
X0008215671Y0031749013D01*
X0008078066Y0031485720D01*
X0007993278Y0031170045D01*
X0007949603Y0030767450D01*
X0007935334Y0030243396D01*
X0007935166Y0030011230D01*
X0007939364Y0028809305D01*
X0007619884Y0028755329D01*
X0007177271Y0028598646D01*
X0006737910Y0028284684D01*
X0006317401Y0027825044D01*
X0006252834Y0027738651D01*
X0005939673Y0027350794D01*
X0005577882Y0026969603D01*
X0005207092Y0026632237D01*
X0004866933Y0026375857D01*
X0004692468Y0026275612D01*
X0004510975Y0026171121D01*
X0004419821Y0026083850D01*
X0004417302Y0026073044D01*
X0004490945Y0025975588D01*
X0004669839Y0025911006D01*
X0004890933Y0025893516D01*
X0005066089Y0025926730D01*
X0005250583Y0025968028D01*
X0005357929Y0025945801D01*
X0005380372Y0025817626D01*
X0005332366Y0025592944D01*
X0005232221Y0025319457D01*
X0005098249Y0025044862D01*
X0004948760Y0024816859D01*
X0004905128Y0024766273D01*
X0004723877Y0024507163D01*
X0004704978Y0024290741D01*
X0004848583Y0024119146D01*
X0004859041Y0024112404D01*
X0004982537Y0024076977D01*
X0005161965Y0024114331D01*
X0005438204Y0024233701D01*
X0005474750Y0024251496D01*
X0005807414Y0024393756D01*
X0006077128Y0024469502D01*
X0006257850Y0024475189D01*
X0006323541Y0024407271D01*
X0006314704Y0024365885D01*
X0006332620Y0024235089D01*
X0006425794Y0024020384D01*
X0006526301Y0023845609D01*
X0006771802Y0023401175D01*
X0006930882Y0022989443D01*
X0006993482Y0022642876D01*
X0006965300Y0022428859D01*
X0006826280Y0022210554D01*
X0006619296Y0022031121D01*
X0006408601Y0021943969D01*
X0006379759Y0021942154D01*
X0006114474Y0022009828D01*
X0005831698Y0022184736D01*
X0005593641Y0022424708D01*
X0005532133Y0022516721D01*
X0005305884Y0022870380D01*
X0005117052Y0023093614D01*
X0004975594Y0023176036D01*
X0004919672Y0023155725D01*
X0004861579Y0023027742D01*
X0004807586Y0022795949D01*
X0004786404Y0022652286D01*
X0004736673Y0022232384D01*
X0004458454Y0022510602D01*
X0004219296Y0022688456D01*
X0003961475Y0022787784D01*
X0003737786Y0022793918D01*
X0003634285Y0022739582D01*
X0003626530Y0022625244D01*
X0003696138Y0022422289D01*
X0003820061Y0022178452D01*
X0003975252Y0021941469D01*
X0004080613Y0021815154D01*
X0004321212Y0021561154D01*
X0004115257Y0021323600D01*
X0003942697Y0021022142D01*
X0003937183Y0020702256D01*
X0003978753Y0020572618D01*
X0004037434Y0020479184D01*
X0004129835Y0020504539D01*
X0004205635Y0020558730D01*
X0004279291Y0020604562D01*
X0004374806Y0020635425D01*
X0004515274Y0020651047D01*
X0004723788Y0020651153D01*
X0005023441Y0020635470D01*
X0005437325Y0020603725D01*
X0005988534Y0020555643D01*
X0006218381Y0020534885D01*
X0006539076Y0020512895D01*
X0006755635Y0020526340D01*
X0006931609Y0020587093D01*
X0007126975Y0020704663D01*
X0007338904Y0020877314D01*
X0007482647Y0021054184D01*
X0007509647Y0021116815D01*
X0007521592Y0021284533D01*
X0007512800Y0021569293D01*
X0007485405Y0021920353D01*
X0007469581Y0022069154D01*
X0007427877Y0022499351D01*
X0007396757Y0022948236D01*
X0007381865Y0023331144D01*
X0007381330Y0023393006D01*
X0007372270Y0023704194D01*
X0007331214Y0023934289D01*
X0007235959Y0024152598D01*
X0007064301Y0024428431D01*
X0007036006Y0024470944D01*
X0006875852Y0024734118D01*
X0006773024Y0024949666D01*
X0006747269Y0025075329D01*
X0006750307Y0025082380D01*
X0006877193Y0025138357D01*
X0007124315Y0025127334D01*
X0007130432Y0025126368D01*
X0007451628Y0025075007D01*
X0007536874Y0025474697D01*
X0007580642Y0025710918D01*
X0007568581Y0025864070D01*
X0007477504Y0026000445D01*
X0007289711Y0026181265D01*
X0007082716Y0026396500D01*
X0006983227Y0026582373D01*
X0006957304Y0026802622D01*
X0006957302Y0026805585D01*
X0007029665Y0027215685D01*
X0007235477Y0027540598D01*
X0007557825Y0027773014D01*
X0007979793Y0027905621D01*
X0008484466Y0027931107D01*
X0009054931Y0027842160D01*
X0009238156Y0027791527D01*
X0009734607Y0027598719D01*
X0010113285Y0027363616D01*
X0010157165Y0027326117D01*
X0010549444Y0027031422D01*
X0010989298Y0026791035D01*
X0011374232Y0026653288D01*
X0011541360Y0026566797D01*
X0011772858Y0026388898D01*
X0012022020Y0026155994D01*
X0012051565Y0026125368D01*
X0012290625Y0025884887D01*
X0012504573Y0025687776D01*
X0012651617Y0025572273D01*
X0012663948Y0025565079D01*
X0012752958Y0025528151D01*
X0012793885Y0025563690D01*
X0012795296Y0025704130D01*
X0012768305Y0025960251D01*
X0012704307Y0026300394D01*
X0012604333Y0026630213D01*
X0012543826Y0026771048D01*
X0012425324Y0027016804D01*
X0012393200Y0027166368D01*
X0012455323Y0027273583D01*
X0012619564Y0027392290D01*
X0012636212Y0027403154D01*
X0012860804Y0027599513D01*
X0013028565Y0027838765D01*
X0013124604Y0028081271D01*
X0013134030Y0028287387D01*
X0013041951Y0028417472D01*
X0013020852Y0028427078D01*
X0012872681Y0028425106D01*
X0012650172Y0028364324D01*
X0012587179Y0028339754D01*
X0012212292Y0028231590D01*
X0011866490Y0028218860D01*
X0011601822Y0028302813D01*
X0011583045Y0028315675D01*
X0011474615Y0028461650D01*
X0011377432Y0028700329D01*
X0011350276Y0028802509D01*
X0011262617Y0029051876D01*
X0011127038Y0029293996D01*
X0010973610Y0029488804D01*
X0010832405Y0029596236D01*
X0010754346Y0029596481D01*
X0010712159Y0029492663D01*
X0010686382Y0029279373D01*
X0010682635Y0029148583D01*
X0010628229Y0028775537D01*
X0010461053Y0028527797D01*
X0010175173Y0028399293D01*
X0009928242Y0028376821D01*
X0009527360Y0028435464D01*
X0009205327Y0028622516D01*
X0008937845Y0028954659D01*
X0008847061Y0029119199D01*
X0008713840Y0029368064D01*
X0008603057Y0029549583D01*
X0008549503Y0029614664D01*
X0008483908Y0029719808D01*
X0008567052Y0029825771D01*
X0008621464Y0029851823D01*
X0008792078Y0029834505D01*
X0008959293Y0029719909D01*
X0009122452Y0029597237D01*
X0009269013Y0029592093D01*
X0009369464Y0029631034D01*
X0009521263Y0029732565D01*
X0009584892Y0029835957D01*
X0009538522Y0029897212D01*
X0009503330Y0029900821D01*
X0009400494Y0029954593D01*
X0009227083Y0030091408D01*
X0009122330Y0030185985D01*
X0008887481Y0030467280D01*
X0008808462Y0030735936D01*
X0008886651Y0031012742D01*
X0009123421Y0031318483D01*
X0009202455Y0031397001D01*
X0009504729Y0031649482D01*
X0009731189Y0031753098D01*
X0009885525Y0031708491D01*
X0009968427Y0031530655D01*
X0010017787Y0031320012D01*
X0010052050Y0031191988D01*
X0010149856Y0031097682D01*
X0010303084Y0031100670D01*
X0010436944Y0031189990D01*
X0010470268Y0031253279D01*
X0010635574Y0031509672D01*
X0010924274Y0031685799D01*
X0011301610Y0031761911D01*
X0011368252Y0031763488D01*
X0011775508Y0031713518D01*
X0012236316Y0031580129D01*
X0012673973Y0031388105D01*
X0012849457Y0031284910D01*
X0012989409Y0031175166D01*
X0012996806Y0031088989D01*
X0012941258Y0031022491D01*
X0012801178Y0030945209D01*
X0012645412Y0030993223D01*
X0012486284Y0031067390D01*
X0012383156Y0031054211D01*
X0012280137Y0030930522D01*
X0012205707Y0030810988D01*
X0012076267Y0030495212D01*
X0012038538Y0030160885D01*
X0012092457Y0029864877D01*
X0012206979Y0029688843D01*
X0012288179Y0029616080D01*
X0012358716Y0029581593D01*
X0012453678Y0029594398D01*
X0012608155Y0029663514D01*
X0012857235Y0029797958D01*
X0013053302Y0029906347D01*
X0013390076Y0030043467D01*
X0013708394Y0030048995D01*
X0014023102Y0029950226D01*
X0014316943Y0029764284D01*
X0014517475Y0029477151D01*
X0014644487Y0029059796D01*
X0014650117Y0029030436D01*
X0014690519Y0028796206D01*
X0014687347Y0028698224D01*
X0014629096Y0028706472D01*
X0014546918Y0028761106D01*
X0014299120Y0028872303D01*
X0014063109Y0028832395D01*
X0013808789Y0028637334D01*
X0013606697Y0028338628D01*
X0013569346Y0028019265D01*
X0013653207Y0027770630D01*
X0013745112Y0027598904D01*
X0013928373Y0027769920D01*
X0014244433Y0027968578D01*
X0014580279Y0028006358D01*
X0014919536Y0027887809D01*
X0015245829Y0027617479D01*
X0015454002Y0027346134D01*
X0015595738Y0027110972D01*
X0015716594Y0026861021D01*
X0015832161Y0026556291D01*
X0015958028Y0026156787D01*
X0016069858Y0025766280D01*
X0016158322Y0025685559D01*
X0016207180Y0025690380D01*
X0016262839Y0025793283D01*
X0016287685Y0026031210D01*
X0016282812Y0026372884D01*
X0016249315Y0026787030D01*
X0016188288Y0027242371D01*
X0016143988Y0027495870D01*
X0015868556Y0028549071D01*
X0015465476Y0029508446D01*
X0014943966Y0030365196D01*
X0014313244Y0031110521D01*
X0013582530Y0031735623D01*
X0012761041Y0032231702D01*
X0011857996Y0032589959D01*
X0010882613Y0032801594D01*
X0010547751Y0032837651D01*
X0009915837Y0032829220D01*
X0009915837Y0032829220D01*
G37*
X0009915837Y0032829220D02*
X0009366751Y0032685925D01*
X0008869105Y0032397915D01*
X0008696158Y0032256607D01*
X0008417800Y0031994463D01*
X0008215671Y0031749013D01*
X0008078066Y0031485720D01*
X0007993278Y0031170045D01*
X0007949603Y0030767450D01*
X0007935334Y0030243396D01*
X0007935166Y0030011230D01*
X0007939364Y0028809305D01*
X0007619884Y0028755329D01*
X0007177271Y0028598646D01*
X0006737910Y0028284684D01*
X0006317401Y0027825044D01*
X0006252834Y0027738651D01*
X0005939673Y0027350794D01*
X0005577882Y0026969603D01*
X0005207092Y0026632237D01*
X0004866933Y0026375857D01*
X0004692468Y0026275612D01*
X0004510975Y0026171121D01*
X0004419821Y0026083850D01*
X0004417302Y0026073044D01*
X0004490945Y0025975588D01*
X0004669839Y0025911006D01*
X0004890933Y0025893516D01*
X0005066089Y0025926730D01*
X0005250583Y0025968028D01*
X0005357929Y0025945801D01*
X0005380372Y0025817626D01*
X0005332366Y0025592944D01*
X0005232221Y0025319457D01*
X0005098249Y0025044862D01*
X0004948760Y0024816859D01*
X0004905128Y0024766273D01*
X0004723877Y0024507163D01*
X0004704978Y0024290741D01*
X0004848583Y0024119146D01*
X0004859041Y0024112404D01*
X0004982537Y0024076977D01*
X0005161965Y0024114331D01*
X0005438204Y0024233701D01*
X0005474750Y0024251496D01*
X0005807414Y0024393756D01*
X0006077128Y0024469502D01*
X0006257850Y0024475189D01*
X0006323541Y0024407271D01*
X0006314704Y0024365885D01*
X0006332620Y0024235089D01*
X0006425794Y0024020384D01*
X0006526301Y0023845609D01*
X0006771802Y0023401175D01*
X0006930882Y0022989443D01*
X0006993482Y0022642876D01*
X0006965300Y0022428859D01*
X0006826280Y0022210554D01*
X0006619296Y0022031121D01*
X0006408601Y0021943969D01*
X0006379759Y0021942154D01*
X0006114474Y0022009828D01*
X0005831698Y0022184736D01*
X0005593641Y0022424708D01*
X0005532133Y0022516721D01*
X0005305884Y0022870380D01*
X0005117052Y0023093614D01*
X0004975594Y0023176036D01*
X0004919672Y0023155725D01*
X0004861579Y0023027742D01*
X0004807586Y0022795949D01*
X0004786404Y0022652286D01*
X0004736673Y0022232384D01*
X0004458454Y0022510602D01*
X0004219296Y0022688456D01*
X0003961475Y0022787784D01*
X0003737786Y0022793918D01*
X0003634285Y0022739582D01*
X0003626530Y0022625244D01*
X0003696138Y0022422289D01*
X0003820061Y0022178452D01*
X0003975252Y0021941469D01*
X0004080613Y0021815154D01*
X0004321212Y0021561154D01*
X0004115257Y0021323600D01*
X0003942697Y0021022142D01*
X0003937183Y0020702256D01*
X0003978753Y0020572618D01*
X0004037434Y0020479184D01*
X0004129835Y0020504539D01*
X0004205635Y0020558730D01*
X0004279291Y0020604562D01*
X0004374806Y0020635425D01*
X0004515274Y0020651047D01*
X0004723788Y0020651153D01*
X0005023441Y0020635470D01*
X0005437325Y0020603725D01*
X0005988534Y0020555643D01*
X0006218381Y0020534885D01*
X0006539076Y0020512895D01*
X0006755635Y0020526340D01*
X0006931609Y0020587093D01*
X0007126975Y0020704663D01*
X0007338904Y0020877314D01*
X0007482647Y0021054184D01*
X0007509647Y0021116815D01*
X0007521592Y0021284533D01*
X0007512800Y0021569293D01*
X0007485405Y0021920353D01*
X0007469581Y0022069154D01*
X0007427877Y0022499351D01*
X0007396757Y0022948236D01*
X0007381865Y0023331144D01*
X0007381330Y0023393006D01*
X0007372270Y0023704194D01*
X0007331214Y0023934289D01*
X0007235959Y0024152598D01*
X0007064301Y0024428431D01*
X0007036006Y0024470944D01*
X0006875852Y0024734118D01*
X0006773024Y0024949666D01*
X0006747269Y0025075329D01*
X0006750307Y0025082380D01*
X0006877193Y0025138357D01*
X0007124315Y0025127334D01*
X0007130432Y0025126368D01*
X0007451628Y0025075007D01*
X0007536874Y0025474697D01*
X0007580642Y0025710918D01*
X0007568581Y0025864070D01*
X0007477504Y0026000445D01*
X0007289711Y0026181265D01*
X0007082716Y0026396500D01*
X0006983227Y0026582373D01*
X0006957304Y0026802622D01*
X0006957302Y0026805585D01*
X0007029665Y0027215685D01*
X0007235477Y0027540598D01*
X0007557825Y0027773014D01*
X0007979793Y0027905621D01*
X0008484466Y0027931107D01*
X0009054931Y0027842160D01*
X0009238156Y0027791527D01*
X0009734607Y0027598719D01*
X0010113285Y0027363616D01*
X0010157165Y0027326117D01*
X0010549444Y0027031422D01*
X0010989298Y0026791035D01*
X0011374232Y0026653288D01*
X0011541360Y0026566797D01*
X0011772858Y0026388898D01*
X0012022020Y0026155994D01*
X0012051565Y0026125368D01*
X0012290625Y0025884887D01*
X0012504573Y0025687776D01*
X0012651617Y0025572273D01*
X0012663948Y0025565079D01*
X0012752958Y0025528151D01*
X0012793885Y0025563690D01*
X0012795296Y0025704130D01*
X0012768305Y0025960251D01*
X0012704307Y0026300394D01*
X0012604333Y0026630213D01*
X0012543826Y0026771048D01*
X0012425324Y0027016804D01*
X0012393200Y0027166368D01*
X0012455323Y0027273583D01*
X0012619564Y0027392290D01*
X0012636212Y0027403154D01*
X0012860804Y0027599513D01*
X0013028565Y0027838765D01*
X0013124604Y0028081271D01*
X0013134030Y0028287387D01*
X0013041951Y0028417472D01*
X0013020852Y0028427078D01*
X0012872681Y0028425106D01*
X0012650172Y0028364324D01*
X0012587179Y0028339754D01*
X0012212292Y0028231590D01*
X0011866490Y0028218860D01*
X0011601822Y0028302813D01*
X0011583045Y0028315675D01*
X0011474615Y0028461650D01*
X0011377432Y0028700329D01*
X0011350276Y0028802509D01*
X0011262617Y0029051876D01*
X0011127038Y0029293996D01*
X0010973610Y0029488804D01*
X0010832405Y0029596236D01*
X0010754346Y0029596481D01*
X0010712159Y0029492663D01*
X0010686382Y0029279373D01*
X0010682635Y0029148583D01*
X0010628229Y0028775537D01*
X0010461053Y0028527797D01*
X0010175173Y0028399293D01*
X0009928242Y0028376821D01*
X0009527360Y0028435464D01*
X0009205327Y0028622516D01*
X0008937845Y0028954659D01*
X0008847061Y0029119199D01*
X0008713840Y0029368064D01*
X0008603057Y0029549583D01*
X0008549503Y0029614664D01*
X0008483908Y0029719808D01*
X0008567052Y0029825771D01*
X0008621464Y0029851823D01*
X0008792078Y0029834505D01*
X0008959293Y0029719909D01*
X0009122452Y0029597237D01*
X0009269013Y0029592093D01*
X0009369464Y0029631034D01*
X0009521263Y0029732565D01*
X0009584892Y0029835957D01*
X0009538522Y0029897212D01*
X0009503330Y0029900821D01*
X0009400494Y0029954593D01*
X0009227083Y0030091408D01*
X0009122330Y0030185985D01*
X0008887481Y0030467280D01*
X0008808462Y0030735936D01*
X0008886651Y0031012742D01*
X0009123421Y0031318483D01*
X0009202455Y0031397001D01*
X0009504729Y0031649482D01*
X0009731189Y0031753098D01*
X0009885525Y0031708491D01*
X0009968427Y0031530655D01*
X0010017787Y0031320012D01*
X0010052050Y0031191988D01*
X0010149856Y0031097682D01*
X0010303084Y0031100670D01*
X0010436944Y0031189990D01*
X0010470268Y0031253279D01*
X0010635574Y0031509672D01*
X0010924274Y0031685799D01*
X0011301610Y0031761911D01*
X0011368252Y0031763488D01*
X0011775508Y0031713518D01*
X0012236316Y0031580129D01*
X0012673973Y0031388105D01*
X0012849457Y0031284910D01*
X0012989409Y0031175166D01*
X0012996806Y0031088989D01*
X0012941258Y0031022491D01*
X0012801178Y0030945209D01*
X0012645412Y0030993223D01*
X0012486284Y0031067390D01*
X0012383156Y0031054211D01*
X0012280137Y0030930522D01*
X0012205707Y0030810988D01*
X0012076267Y0030495212D01*
X0012038538Y0030160885D01*
X0012092457Y0029864877D01*
X0012206979Y0029688843D01*
X0012288179Y0029616080D01*
X0012358716Y0029581593D01*
X0012453678Y0029594398D01*
X0012608155Y0029663514D01*
X0012857235Y0029797958D01*
X0013053302Y0029906347D01*
X0013390076Y0030043467D01*
X0013708394Y0030048995D01*
X0014023102Y0029950226D01*
X0014316943Y0029764284D01*
X0014517475Y0029477151D01*
X0014644487Y0029059796D01*
X0014650117Y0029030436D01*
X0014690519Y0028796206D01*
X0014687347Y0028698224D01*
X0014629096Y0028706472D01*
X0014546918Y0028761106D01*
X0014299120Y0028872303D01*
X0014063109Y0028832395D01*
X0013808789Y0028637334D01*
X0013606697Y0028338628D01*
X0013569346Y0028019265D01*
X0013653207Y0027770630D01*
X0013745112Y0027598904D01*
X0013928373Y0027769920D01*
X0014244433Y0027968578D01*
X0014580279Y0028006358D01*
X0014919536Y0027887809D01*
X0015245829Y0027617479D01*
X0015454002Y0027346134D01*
X0015595738Y0027110972D01*
X0015716594Y0026861021D01*
X0015832161Y0026556291D01*
X0015958028Y0026156787D01*
X0016069858Y0025766280D01*
X0016158322Y0025685559D01*
X0016207180Y0025690380D01*
X0016262839Y0025793283D01*
X0016287685Y0026031210D01*
X0016282812Y0026372884D01*
X0016249315Y0026787030D01*
X0016188288Y0027242371D01*
X0016143988Y0027495870D01*
X0015868556Y0028549071D01*
X0015465476Y0029508446D01*
X0014943966Y0030365196D01*
X0014313244Y0031110521D01*
X0013582530Y0031735623D01*
X0012761041Y0032231702D01*
X0011857996Y0032589959D01*
X0010882613Y0032801594D01*
X0010547751Y0032837651D01*
X0009915837Y0032829220D01*
G36*
X0027182661Y0032637229D02*
G01*
X0026634679Y0032525551D01*
X0025678422Y0032202700D01*
X0024822056Y0031744533D01*
X0024068185Y0031154328D01*
X0023419412Y0030435366D01*
X0022878341Y0029590928D01*
X0022447577Y0028624293D01*
X0022129724Y0027538742D01*
X0021966591Y0026645614D01*
X0021909027Y0026208273D01*
X0021880773Y0025907298D01*
X0021881062Y0025712412D01*
X0021909129Y0025593339D01*
X0021938768Y0025545950D01*
X0022055101Y0025453683D01*
X0022141610Y0025506957D01*
X0022207420Y0025715466D01*
X0022231966Y0025857527D01*
X0022358256Y0026331875D01*
X0022581550Y0026830628D01*
X0022864577Y0027275019D01*
X0022954633Y0027384902D01*
X0023272548Y0027657167D01*
X0023603712Y0027761385D01*
X0023953709Y0027698669D01*
X0024117978Y0027616790D01*
X0024318480Y0027505880D01*
X0024430265Y0027480552D01*
X0024507976Y0027536264D01*
X0024542674Y0027581472D01*
X0024639352Y0027785890D01*
X0024616281Y0028007380D01*
X0024485612Y0028268716D01*
X0024276317Y0028497189D01*
X0024022238Y0028610267D01*
X0023771605Y0028589932D01*
X0023709672Y0028558540D01*
X0023550036Y0028475925D01*
X0023482990Y0028506952D01*
X0023489426Y0028672178D01*
X0023507471Y0028776062D01*
X0023650335Y0029238968D01*
X0023883772Y0029561400D01*
X0024216568Y0029751160D01*
X0024657509Y0029816046D01*
X0024679122Y0029816154D01*
X0024986151Y0029780377D01*
X0025253245Y0029650297D01*
X0025374082Y0029560740D01*
X0025576941Y0029410962D01*
X0025708243Y0029359614D01*
X0025822156Y0029391689D01*
X0025872302Y0029422730D01*
X0026075574Y0029650466D01*
X0026139272Y0029961621D01*
X0026061141Y0030340533D01*
X0026019266Y0030443826D01*
X0025907838Y0030676869D01*
X0025810217Y0030790542D01*
X0025676360Y0030822307D01*
X0025523444Y0030815024D01*
X0025288217Y0030823903D01*
X0025202922Y0030892194D01*
X0025263502Y0031008872D01*
X0025465901Y0031162913D01*
X0025698836Y0031291605D01*
X0026215898Y0031497695D01*
X0026686883Y0031583922D01*
X0027092017Y0031552000D01*
X0027411528Y0031403640D01*
X0027625643Y0031140555D01*
X0027633414Y0031124010D01*
X0027766432Y0030944989D01*
X0027911827Y0030924778D01*
X0028045317Y0031056868D01*
X0028123968Y0031255488D01*
X0028204894Y0031466048D01*
X0028297458Y0031584595D01*
X0028326195Y0031594154D01*
X0028475141Y0031540782D01*
X0028691816Y0031406620D01*
X0028924202Y0031230600D01*
X0029120278Y0031051656D01*
X0029220234Y0030925044D01*
X0029313207Y0030638364D01*
X0029263330Y0030365513D01*
X0029062782Y0030080335D01*
X0028927882Y0029947043D01*
X0028716262Y0029738334D01*
X0028623994Y0029602403D01*
X0028634037Y0029511672D01*
X0028648482Y0029494841D01*
X0028839910Y0029399125D01*
X0029061262Y0029467955D01*
X0029195530Y0029574581D01*
X0029354054Y0029692056D01*
X0029471325Y0029683715D01*
X0029507885Y0029657679D01*
X0029558272Y0029583257D01*
X0029547906Y0029465259D01*
X0029467332Y0029268348D01*
X0029333938Y0029007555D01*
X0029103451Y0028622171D01*
X0028877930Y0028370602D01*
X0028619808Y0028222757D01*
X0028291517Y0028148546D01*
X0028256184Y0028144331D01*
X0027997336Y0028132948D01*
X0027822112Y0028188497D01*
X0027664739Y0028320354D01*
X0027524270Y0028499027D01*
X0027459907Y0028710167D01*
X0027446635Y0028965639D01*
X0027430732Y0029213987D01*
X0027389457Y0029366561D01*
X0027358120Y0029392821D01*
X0027195189Y0029319337D01*
X0027023806Y0029131836D01*
X0026879791Y0028879741D01*
X0026800678Y0028623712D01*
X0026684189Y0028260168D01*
X0026474839Y0028037643D01*
X0026174713Y0027956943D01*
X0025785892Y0028018874D01*
X0025511223Y0028124681D01*
X0025288845Y0028222726D01*
X0025139959Y0028283013D01*
X0025109056Y0028292154D01*
X0025088699Y0028216743D01*
X0025077040Y0028027459D01*
X0025075968Y0027938238D01*
X0025092998Y0027716821D01*
X0025165250Y0027542319D01*
X0025324465Y0027354331D01*
X0025443050Y0027239738D01*
X0025810132Y0026895154D01*
X0025620102Y0026471821D01*
X0025492637Y0026121128D01*
X0025394133Y0025733521D01*
X0025370334Y0025591325D01*
X0025310595Y0025134162D01*
X0025566712Y0025316533D01*
X0025760781Y0025481795D01*
X0025999047Y0025721529D01*
X0026176949Y0025921863D01*
X0026373194Y0026139482D01*
X0026537706Y0026292166D01*
X0026629019Y0026344888D01*
X0026793330Y0026387177D01*
X0027047521Y0026495913D01*
X0027340250Y0026644111D01*
X0027620172Y0026804786D01*
X0027835946Y0026950951D01*
X0027912302Y0027019376D01*
X0028252515Y0027294467D01*
X0028700433Y0027505644D01*
X0029207559Y0027643259D01*
X0029725397Y0027697667D01*
X0030205452Y0027659222D01*
X0030551530Y0027544323D01*
X0030871932Y0027306523D01*
X0031079680Y0026999186D01*
X0031166168Y0026659216D01*
X0031122791Y0026323516D01*
X0030940944Y0026028990D01*
X0030911577Y0026000184D01*
X0030763696Y0025849504D01*
X0030693852Y0025715226D01*
X0030683937Y0025533308D01*
X0030709911Y0025286921D01*
X0030768636Y0024816900D01*
X0031045273Y0024868798D01*
X0031253329Y0024881120D01*
X0031373216Y0024837307D01*
X0031375591Y0024833837D01*
X0031359322Y0024724856D01*
X0031266018Y0024519799D01*
X0031115432Y0024261533D01*
X0031102909Y0024242032D01*
X0030972894Y0024031149D01*
X0030874665Y0023836745D01*
X0030797325Y0023622087D01*
X0030729978Y0023350438D01*
X0030661726Y0022985067D01*
X0030581674Y0022489237D01*
X0030580234Y0022480021D01*
X0030383922Y0021222956D01*
X0030592736Y0020848935D01*
X0030783060Y0020583960D01*
X0031011614Y0020366861D01*
X0031092592Y0020313671D01*
X0031225214Y0020249051D01*
X0031366787Y0020207691D01*
X0031545501Y0020189742D01*
X0031789543Y0020195355D01*
X0032127100Y0020224679D01*
X0032586361Y0020277865D01*
X0032949968Y0020323576D01*
X0033341498Y0020354510D01*
X0033630382Y0020327371D01*
X0033785808Y0020278973D01*
X0033981386Y0020203509D01*
X0034095910Y0020165309D01*
X0034103308Y0020164154D01*
X0034122982Y0020239573D01*
X0034134259Y0020428901D01*
X0034135302Y0020518531D01*
X0034084944Y0020853639D01*
X0033950674Y0021069434D01*
X0033766047Y0021265961D01*
X0033983342Y0021498225D01*
X0034188213Y0021756514D01*
X0034347754Y0022029885D01*
X0034437846Y0022269935D01*
X0034440418Y0022415463D01*
X0034321810Y0022531109D01*
X0034124369Y0022528408D01*
X0033881008Y0022416238D01*
X0033624642Y0022203476D01*
X0033614192Y0022192589D01*
X0033288635Y0021850358D01*
X0033287479Y0022213756D01*
X0033270201Y0022538324D01*
X0033226234Y0022793465D01*
X0033164080Y0022939012D01*
X0033129921Y0022958154D01*
X0033060345Y0022893004D01*
X0032924026Y0022720063D01*
X0032747150Y0022473095D01*
X0032697602Y0022400706D01*
X0032458154Y0022065369D01*
X0032267945Y0021852672D01*
X0032094731Y0021736820D01*
X0031906266Y0021692013D01*
X0031806968Y0021688154D01*
X0031485011Y0021752608D01*
X0031266971Y0021932825D01*
X0031155179Y0022209095D01*
X0031151964Y0022561706D01*
X0031259658Y0022970944D01*
X0031480590Y0023417098D01*
X0031583735Y0023576343D01*
X0031760046Y0023849368D01*
X0031835792Y0024021705D01*
X0031818847Y0024122725D01*
X0031743468Y0024172081D01*
X0031741277Y0024202289D01*
X0031874483Y0024220431D01*
X0031904160Y0024221470D01*
X0032138619Y0024182970D01*
X0032421517Y0024077976D01*
X0032539160Y0024017508D01*
X0032894730Y0023851090D01*
X0033154587Y0023816773D01*
X0033328718Y0023914363D01*
X0033381803Y0024001335D01*
X0033419795Y0024135967D01*
X0033377926Y0024263176D01*
X0033234575Y0024433549D01*
X0033168321Y0024500868D01*
X0032934848Y0024798148D01*
X0032865302Y0025038521D01*
X0032822139Y0025264506D01*
X0032742585Y0025408755D01*
X0032654562Y0025572594D01*
X0032709359Y0025681245D01*
X0032884062Y0025714249D01*
X0033052123Y0025685152D01*
X0033314709Y0025652338D01*
X0033521001Y0025697214D01*
X0033623430Y0025807068D01*
X0033627302Y0025838854D01*
X0033559339Y0025925570D01*
X0033392048Y0026038053D01*
X0033354595Y0026058161D01*
X0033082658Y0026239278D01*
X0032751449Y0026519951D01*
X0032400012Y0026861867D01*
X0032067393Y0027226714D01*
X0031792635Y0027576180D01*
X0031760688Y0027622168D01*
X0031482078Y0027987295D01*
X0031201499Y0028238876D01*
X0030858593Y0028422310D01*
X0030546707Y0028535267D01*
X0030113635Y0028674833D01*
X0030155968Y0029012660D01*
X0030174056Y0029250665D01*
X0030186169Y0029597487D01*
X0030190524Y0029992665D01*
X0030189651Y0030154821D01*
X0030165670Y0030681965D01*
X0030095258Y0031091317D01*
X0029961276Y0031431866D01*
X0029746585Y0031752602D01*
X0029551877Y0031977742D01*
X0029095186Y0032354404D01*
X0028549032Y0032589694D01*
X0027911996Y0032683881D01*
X0027182661Y0032637229D01*
X0027182661Y0032637229D01*
G37*
X0027182661Y0032637229D02*
X0026634679Y0032525551D01*
X0025678422Y0032202700D01*
X0024822056Y0031744533D01*
X0024068185Y0031154328D01*
X0023419412Y0030435366D01*
X0022878341Y0029590928D01*
X0022447577Y0028624293D01*
X0022129724Y0027538742D01*
X0021966591Y0026645614D01*
X0021909027Y0026208273D01*
X0021880773Y0025907298D01*
X0021881062Y0025712412D01*
X0021909129Y0025593339D01*
X0021938768Y0025545950D01*
X0022055101Y0025453683D01*
X0022141610Y0025506957D01*
X0022207420Y0025715466D01*
X0022231966Y0025857527D01*
X0022358256Y0026331875D01*
X0022581550Y0026830628D01*
X0022864577Y0027275019D01*
X0022954633Y0027384902D01*
X0023272548Y0027657167D01*
X0023603712Y0027761385D01*
X0023953709Y0027698669D01*
X0024117978Y0027616790D01*
X0024318480Y0027505880D01*
X0024430265Y0027480552D01*
X0024507976Y0027536264D01*
X0024542674Y0027581472D01*
X0024639352Y0027785890D01*
X0024616281Y0028007380D01*
X0024485612Y0028268716D01*
X0024276317Y0028497189D01*
X0024022238Y0028610267D01*
X0023771605Y0028589932D01*
X0023709672Y0028558540D01*
X0023550036Y0028475925D01*
X0023482990Y0028506952D01*
X0023489426Y0028672178D01*
X0023507471Y0028776062D01*
X0023650335Y0029238968D01*
X0023883772Y0029561400D01*
X0024216568Y0029751160D01*
X0024657509Y0029816046D01*
X0024679122Y0029816154D01*
X0024986151Y0029780377D01*
X0025253245Y0029650297D01*
X0025374082Y0029560740D01*
X0025576941Y0029410962D01*
X0025708243Y0029359614D01*
X0025822156Y0029391689D01*
X0025872302Y0029422730D01*
X0026075574Y0029650466D01*
X0026139272Y0029961621D01*
X0026061141Y0030340533D01*
X0026019266Y0030443826D01*
X0025907838Y0030676869D01*
X0025810217Y0030790542D01*
X0025676360Y0030822307D01*
X0025523444Y0030815024D01*
X0025288217Y0030823903D01*
X0025202922Y0030892194D01*
X0025263502Y0031008872D01*
X0025465901Y0031162913D01*
X0025698836Y0031291605D01*
X0026215898Y0031497695D01*
X0026686883Y0031583922D01*
X0027092017Y0031552000D01*
X0027411528Y0031403640D01*
X0027625643Y0031140555D01*
X0027633414Y0031124010D01*
X0027766432Y0030944989D01*
X0027911827Y0030924778D01*
X0028045317Y0031056868D01*
X0028123968Y0031255488D01*
X0028204894Y0031466048D01*
X0028297458Y0031584595D01*
X0028326195Y0031594154D01*
X0028475141Y0031540782D01*
X0028691816Y0031406620D01*
X0028924202Y0031230600D01*
X0029120278Y0031051656D01*
X0029220234Y0030925044D01*
X0029313207Y0030638364D01*
X0029263330Y0030365513D01*
X0029062782Y0030080335D01*
X0028927882Y0029947043D01*
X0028716262Y0029738334D01*
X0028623994Y0029602403D01*
X0028634037Y0029511672D01*
X0028648482Y0029494841D01*
X0028839910Y0029399125D01*
X0029061262Y0029467955D01*
X0029195530Y0029574581D01*
X0029354054Y0029692056D01*
X0029471325Y0029683715D01*
X0029507885Y0029657679D01*
X0029558272Y0029583257D01*
X0029547906Y0029465259D01*
X0029467332Y0029268348D01*
X0029333938Y0029007555D01*
X0029103451Y0028622171D01*
X0028877930Y0028370602D01*
X0028619808Y0028222757D01*
X0028291517Y0028148546D01*
X0028256184Y0028144331D01*
X0027997336Y0028132948D01*
X0027822112Y0028188497D01*
X0027664739Y0028320354D01*
X0027524270Y0028499027D01*
X0027459907Y0028710167D01*
X0027446635Y0028965639D01*
X0027430732Y0029213987D01*
X0027389457Y0029366561D01*
X0027358120Y0029392821D01*
X0027195189Y0029319337D01*
X0027023806Y0029131836D01*
X0026879791Y0028879741D01*
X0026800678Y0028623712D01*
X0026684189Y0028260168D01*
X0026474839Y0028037643D01*
X0026174713Y0027956943D01*
X0025785892Y0028018874D01*
X0025511223Y0028124681D01*
X0025288845Y0028222726D01*
X0025139959Y0028283013D01*
X0025109056Y0028292154D01*
X0025088699Y0028216743D01*
X0025077040Y0028027459D01*
X0025075968Y0027938238D01*
X0025092998Y0027716821D01*
X0025165250Y0027542319D01*
X0025324465Y0027354331D01*
X0025443050Y0027239738D01*
X0025810132Y0026895154D01*
X0025620102Y0026471821D01*
X0025492637Y0026121128D01*
X0025394133Y0025733521D01*
X0025370334Y0025591325D01*
X0025310595Y0025134162D01*
X0025566712Y0025316533D01*
X0025760781Y0025481795D01*
X0025999047Y0025721529D01*
X0026176949Y0025921863D01*
X0026373194Y0026139482D01*
X0026537706Y0026292166D01*
X0026629019Y0026344888D01*
X0026793330Y0026387177D01*
X0027047521Y0026495913D01*
X0027340250Y0026644111D01*
X0027620172Y0026804786D01*
X0027835946Y0026950951D01*
X0027912302Y0027019376D01*
X0028252515Y0027294467D01*
X0028700433Y0027505644D01*
X0029207559Y0027643259D01*
X0029725397Y0027697667D01*
X0030205452Y0027659222D01*
X0030551530Y0027544323D01*
X0030871932Y0027306523D01*
X0031079680Y0026999186D01*
X0031166168Y0026659216D01*
X0031122791Y0026323516D01*
X0030940944Y0026028990D01*
X0030911577Y0026000184D01*
X0030763696Y0025849504D01*
X0030693852Y0025715226D01*
X0030683937Y0025533308D01*
X0030709911Y0025286921D01*
X0030768636Y0024816900D01*
X0031045273Y0024868798D01*
X0031253329Y0024881120D01*
X0031373216Y0024837307D01*
X0031375591Y0024833837D01*
X0031359322Y0024724856D01*
X0031266018Y0024519799D01*
X0031115432Y0024261533D01*
X0031102909Y0024242032D01*
X0030972894Y0024031149D01*
X0030874665Y0023836745D01*
X0030797325Y0023622087D01*
X0030729978Y0023350438D01*
X0030661726Y0022985067D01*
X0030581674Y0022489237D01*
X0030580234Y0022480021D01*
X0030383922Y0021222956D01*
X0030592736Y0020848935D01*
X0030783060Y0020583960D01*
X0031011614Y0020366861D01*
X0031092592Y0020313671D01*
X0031225214Y0020249051D01*
X0031366787Y0020207691D01*
X0031545501Y0020189742D01*
X0031789543Y0020195355D01*
X0032127100Y0020224679D01*
X0032586361Y0020277865D01*
X0032949968Y0020323576D01*
X0033341498Y0020354510D01*
X0033630382Y0020327371D01*
X0033785808Y0020278973D01*
X0033981386Y0020203509D01*
X0034095910Y0020165309D01*
X0034103308Y0020164154D01*
X0034122982Y0020239573D01*
X0034134259Y0020428901D01*
X0034135302Y0020518531D01*
X0034084944Y0020853639D01*
X0033950674Y0021069434D01*
X0033766047Y0021265961D01*
X0033983342Y0021498225D01*
X0034188213Y0021756514D01*
X0034347754Y0022029885D01*
X0034437846Y0022269935D01*
X0034440418Y0022415463D01*
X0034321810Y0022531109D01*
X0034124369Y0022528408D01*
X0033881008Y0022416238D01*
X0033624642Y0022203476D01*
X0033614192Y0022192589D01*
X0033288635Y0021850358D01*
X0033287479Y0022213756D01*
X0033270201Y0022538324D01*
X0033226234Y0022793465D01*
X0033164080Y0022939012D01*
X0033129921Y0022958154D01*
X0033060345Y0022893004D01*
X0032924026Y0022720063D01*
X0032747150Y0022473095D01*
X0032697602Y0022400706D01*
X0032458154Y0022065369D01*
X0032267945Y0021852672D01*
X0032094731Y0021736820D01*
X0031906266Y0021692013D01*
X0031806968Y0021688154D01*
X0031485011Y0021752608D01*
X0031266971Y0021932825D01*
X0031155179Y0022209095D01*
X0031151964Y0022561706D01*
X0031259658Y0022970944D01*
X0031480590Y0023417098D01*
X0031583735Y0023576343D01*
X0031760046Y0023849368D01*
X0031835792Y0024021705D01*
X0031818847Y0024122725D01*
X0031743468Y0024172081D01*
X0031741277Y0024202289D01*
X0031874483Y0024220431D01*
X0031904160Y0024221470D01*
X0032138619Y0024182970D01*
X0032421517Y0024077976D01*
X0032539160Y0024017508D01*
X0032894730Y0023851090D01*
X0033154587Y0023816773D01*
X0033328718Y0023914363D01*
X0033381803Y0024001335D01*
X0033419795Y0024135967D01*
X0033377926Y0024263176D01*
X0033234575Y0024433549D01*
X0033168321Y0024500868D01*
X0032934848Y0024798148D01*
X0032865302Y0025038521D01*
X0032822139Y0025264506D01*
X0032742585Y0025408755D01*
X0032654562Y0025572594D01*
X0032709359Y0025681245D01*
X0032884062Y0025714249D01*
X0033052123Y0025685152D01*
X0033314709Y0025652338D01*
X0033521001Y0025697214D01*
X0033623430Y0025807068D01*
X0033627302Y0025838854D01*
X0033559339Y0025925570D01*
X0033392048Y0026038053D01*
X0033354595Y0026058161D01*
X0033082658Y0026239278D01*
X0032751449Y0026519951D01*
X0032400012Y0026861867D01*
X0032067393Y0027226714D01*
X0031792635Y0027576180D01*
X0031760688Y0027622168D01*
X0031482078Y0027987295D01*
X0031201499Y0028238876D01*
X0030858593Y0028422310D01*
X0030546707Y0028535267D01*
X0030113635Y0028674833D01*
X0030155968Y0029012660D01*
X0030174056Y0029250665D01*
X0030186169Y0029597487D01*
X0030190524Y0029992665D01*
X0030189651Y0030154821D01*
X0030165670Y0030681965D01*
X0030095258Y0031091317D01*
X0029961276Y0031431866D01*
X0029746585Y0031752602D01*
X0029551877Y0031977742D01*
X0029095186Y0032354404D01*
X0028549032Y0032589694D01*
X0027911996Y0032683881D01*
X0027182661Y0032637229D01*
G36*
X0004802044Y0018742675D02*
G01*
X0004775084Y0018637825D01*
X0004758495Y0018423256D01*
X0004755968Y0018287377D01*
X0004738934Y0018041676D01*
X0004694448Y0017897853D01*
X0004665390Y0017878154D01*
X0004548657Y0017923040D01*
X0004348909Y0018037894D01*
X0004209361Y0018129591D01*
X0003954673Y0018285358D01*
X0003659573Y0018437284D01*
X0003365625Y0018567695D01*
X0003114392Y0018658916D01*
X0002947438Y0018693273D01*
X0002907938Y0018683013D01*
X0002932871Y0018595950D01*
X0003070774Y0018424753D01*
X0003300317Y0018188426D01*
X0003600169Y0017905974D01*
X0003949002Y0017596399D01*
X0004325485Y0017278707D01*
X0004708288Y0016971900D01*
X0005076081Y0016694983D01*
X0005361789Y0016496760D01*
X0005729149Y0016257130D01*
X0006052386Y0016050486D01*
X0006302066Y0015895338D01*
X0006448757Y0015810195D01*
X0006467798Y0015801253D01*
X0006607234Y0015823464D01*
X0006739875Y0015924456D01*
X0006889244Y0016059308D01*
X0007126756Y0016243040D01*
X0007369533Y0016414276D01*
X0007663612Y0016617461D01*
X0007842571Y0016761845D01*
X0007934691Y0016878684D01*
X0007968250Y0016999238D01*
X0007972005Y0017080229D01*
X0007908257Y0017283166D01*
X0007706770Y0017470717D01*
X0007356899Y0017650057D01*
X0006872635Y0017820817D01*
X0006431909Y0017979025D01*
X0005949677Y0018186912D01*
X0005525515Y0018401323D01*
X0005500544Y0018415476D01*
X0005205962Y0018576434D01*
X0004969383Y0018691499D01*
X0004826423Y0018743990D01*
X0004802044Y0018742675D01*
X0004802044Y0018742675D01*
G37*
X0004802044Y0018742675D02*
X0004775084Y0018637825D01*
X0004758495Y0018423256D01*
X0004755968Y0018287377D01*
X0004738934Y0018041676D01*
X0004694448Y0017897853D01*
X0004665390Y0017878154D01*
X0004548657Y0017923040D01*
X0004348909Y0018037894D01*
X0004209361Y0018129591D01*
X0003954673Y0018285358D01*
X0003659573Y0018437284D01*
X0003365625Y0018567695D01*
X0003114392Y0018658916D01*
X0002947438Y0018693273D01*
X0002907938Y0018683013D01*
X0002932871Y0018595950D01*
X0003070774Y0018424753D01*
X0003300317Y0018188426D01*
X0003600169Y0017905974D01*
X0003949002Y0017596399D01*
X0004325485Y0017278707D01*
X0004708288Y0016971900D01*
X0005076081Y0016694983D01*
X0005361789Y0016496760D01*
X0005729149Y0016257130D01*
X0006052386Y0016050486D01*
X0006302066Y0015895338D01*
X0006448757Y0015810195D01*
X0006467798Y0015801253D01*
X0006607234Y0015823464D01*
X0006739875Y0015924456D01*
X0006889244Y0016059308D01*
X0007126756Y0016243040D01*
X0007369533Y0016414276D01*
X0007663612Y0016617461D01*
X0007842571Y0016761845D01*
X0007934691Y0016878684D01*
X0007968250Y0016999238D01*
X0007972005Y0017080229D01*
X0007908257Y0017283166D01*
X0007706770Y0017470717D01*
X0007356899Y0017650057D01*
X0006872635Y0017820817D01*
X0006431909Y0017979025D01*
X0005949677Y0018186912D01*
X0005525515Y0018401323D01*
X0005500544Y0018415476D01*
X0005205962Y0018576434D01*
X0004969383Y0018691499D01*
X0004826423Y0018743990D01*
X0004802044Y0018742675D01*
G36*
X0033184577Y0018411852D02*
G01*
X0032981862Y0018328204D01*
X0032700372Y0018193626D01*
X0032517998Y0018099931D01*
X0032084446Y0017890897D01*
X0031587627Y0017679889D01*
X0031123823Y0017507390D01*
X0031054279Y0017484517D01*
X0030588299Y0017313821D01*
X0030281789Y0017148478D01*
X0030125402Y0016980630D01*
X0030109792Y0016802418D01*
X0030144574Y0016719665D01*
X0030244903Y0016587916D01*
X0030431197Y0016381815D01*
X0030665800Y0016142731D01*
X0030700925Y0016108430D01*
X0030924455Y0015882726D01*
X0031090575Y0015698505D01*
X0031169332Y0015589416D01*
X0031171968Y0015579263D01*
X0031203905Y0015520854D01*
X0031311815Y0015525660D01*
X0031513850Y0015600043D01*
X0031828161Y0015750362D01*
X0032174740Y0015930679D01*
X0032586413Y0016160035D01*
X0033016703Y0016417401D01*
X0033395906Y0016660487D01*
X0033529407Y0016752593D01*
X0033805342Y0016964371D01*
X0034112024Y0017223527D01*
X0034422143Y0017503865D01*
X0034708392Y0017779192D01*
X0034943461Y0018023313D01*
X0035100042Y0018210035D01*
X0035151302Y0018308298D01*
X0035083074Y0018337697D01*
X0034880844Y0018270198D01*
X0034548292Y0018107477D01*
X0034089097Y0017851213D01*
X0033881302Y0017729143D01*
X0033575562Y0017550272D01*
X0033330278Y0017411998D01*
X0033177351Y0017332008D01*
X0033142588Y0017319646D01*
X0033146902Y0017405258D01*
X0033177008Y0017610677D01*
X0033220902Y0017861221D01*
X0033264988Y0018140078D01*
X0033283115Y0018346484D01*
X0033273645Y0018429367D01*
X0033184577Y0018411852D01*
X0033184577Y0018411852D01*
G37*
X0033184577Y0018411852D02*
X0032981862Y0018328204D01*
X0032700372Y0018193626D01*
X0032517998Y0018099931D01*
X0032084446Y0017890897D01*
X0031587627Y0017679889D01*
X0031123823Y0017507390D01*
X0031054279Y0017484517D01*
X0030588299Y0017313821D01*
X0030281789Y0017148478D01*
X0030125402Y0016980630D01*
X0030109792Y0016802418D01*
X0030144574Y0016719665D01*
X0030244903Y0016587916D01*
X0030431197Y0016381815D01*
X0030665800Y0016142731D01*
X0030700925Y0016108430D01*
X0030924455Y0015882726D01*
X0031090575Y0015698505D01*
X0031169332Y0015589416D01*
X0031171968Y0015579263D01*
X0031203905Y0015520854D01*
X0031311815Y0015525660D01*
X0031513850Y0015600043D01*
X0031828161Y0015750362D01*
X0032174740Y0015930679D01*
X0032586413Y0016160035D01*
X0033016703Y0016417401D01*
X0033395906Y0016660487D01*
X0033529407Y0016752593D01*
X0033805342Y0016964371D01*
X0034112024Y0017223527D01*
X0034422143Y0017503865D01*
X0034708392Y0017779192D01*
X0034943461Y0018023313D01*
X0035100042Y0018210035D01*
X0035151302Y0018308298D01*
X0035083074Y0018337697D01*
X0034880844Y0018270198D01*
X0034548292Y0018107477D01*
X0034089097Y0017851213D01*
X0033881302Y0017729143D01*
X0033575562Y0017550272D01*
X0033330278Y0017411998D01*
X0033177351Y0017332008D01*
X0033142588Y0017319646D01*
X0033146902Y0017405258D01*
X0033177008Y0017610677D01*
X0033220902Y0017861221D01*
X0033264988Y0018140078D01*
X0033283115Y0018346484D01*
X0033273645Y0018429367D01*
X0033184577Y0018411852D01*
G36*
X0007519759Y0016133757D02*
G01*
X0007227749Y0015887193D01*
X0007221893Y0015881931D01*
X0006862662Y0015479925D01*
X0006669989Y0015073801D01*
X0006644182Y0014670116D01*
X0006785547Y0014275427D01*
X0007094391Y0013896288D01*
X0007127492Y0013865786D01*
X0007330041Y0013694781D01*
X0007486884Y0013583861D01*
X0007542770Y0013560154D01*
X0007603285Y0013634754D01*
X0007657019Y0013819788D01*
X0007666903Y0013877654D01*
X0007698446Y0014130236D01*
X0007733719Y0014472453D01*
X0007761541Y0014787821D01*
X0007793991Y0015172913D01*
X0007829689Y0015566806D01*
X0007854923Y0015824988D01*
X0007867487Y0016099005D01*
X0007825339Y0016240948D01*
X0007714193Y0016252104D01*
X0007519759Y0016133757D01*
X0007519759Y0016133757D01*
G37*
X0007519759Y0016133757D02*
X0007227749Y0015887193D01*
X0007221893Y0015881931D01*
X0006862662Y0015479925D01*
X0006669989Y0015073801D01*
X0006644182Y0014670116D01*
X0006785547Y0014275427D01*
X0007094391Y0013896288D01*
X0007127492Y0013865786D01*
X0007330041Y0013694781D01*
X0007486884Y0013583861D01*
X0007542770Y0013560154D01*
X0007603285Y0013634754D01*
X0007657019Y0013819788D01*
X0007666903Y0013877654D01*
X0007698446Y0014130236D01*
X0007733719Y0014472453D01*
X0007761541Y0014787821D01*
X0007793991Y0015172913D01*
X0007829689Y0015566806D01*
X0007854923Y0015824988D01*
X0007867487Y0016099005D01*
X0007825339Y0016240948D01*
X0007714193Y0016252104D01*
X0007519759Y0016133757D01*
G36*
X0030205885Y0016020144D02*
G01*
X0030184497Y0015798715D01*
X0030168112Y0015463770D01*
X0030158225Y0015043210D01*
X0030155968Y0014703154D01*
X0030158273Y0014140412D01*
X0030170762Y0013733630D01*
X0030201798Y0013469445D01*
X0030259745Y0013334494D01*
X0030352964Y0013315413D01*
X0030489821Y0013398840D01*
X0030678676Y0013571410D01*
X0030793197Y0013684926D01*
X0030995619Y0013914807D01*
X0031137986Y0014128493D01*
X0031184736Y0014256426D01*
X0031164796Y0014767059D01*
X0031037305Y0015183504D01*
X0031032110Y0015193687D01*
X0030907999Y0015389626D01*
X0030731121Y0015618767D01*
X0030537523Y0015840331D01*
X0030363254Y0016013542D01*
X0030244360Y0016097620D01*
X0030230783Y0016100154D01*
X0030205885Y0016020144D01*
X0030205885Y0016020144D01*
G37*
X0030205885Y0016020144D02*
X0030184497Y0015798715D01*
X0030168112Y0015463770D01*
X0030158225Y0015043210D01*
X0030155968Y0014703154D01*
X0030158273Y0014140412D01*
X0030170762Y0013733630D01*
X0030201798Y0013469445D01*
X0030259745Y0013334494D01*
X0030352964Y0013315413D01*
X0030489821Y0013398840D01*
X0030678676Y0013571410D01*
X0030793197Y0013684926D01*
X0030995619Y0013914807D01*
X0031137986Y0014128493D01*
X0031184736Y0014256426D01*
X0031164796Y0014767059D01*
X0031037305Y0015183504D01*
X0031032110Y0015193687D01*
X0030907999Y0015389626D01*
X0030731121Y0015618767D01*
X0030537523Y0015840331D01*
X0030363254Y0016013542D01*
X0030244360Y0016097620D01*
X0030230783Y0016100154D01*
X0030205885Y0016020144D01*
G36*
X0006116401Y0014808535D02*
G01*
X0005975043Y0014593641D01*
X0005791683Y0014275432D01*
X0005593207Y0013905280D01*
X0005406499Y0013534561D01*
X0005258447Y0013214645D01*
X0005186521Y0013031695D01*
X0005142175Y0012712780D01*
X0005231300Y0012394940D01*
X0005463380Y0012055541D01*
X0005698799Y0011809378D01*
X0005902405Y0011635634D01*
X0006179724Y0011426616D01*
X0006494852Y0011206069D01*
X0006811881Y0010997736D01*
X0007094907Y0010825361D01*
X0007308022Y0010712687D01*
X0007404427Y0010681488D01*
X0007541781Y0010634435D01*
X0007779931Y0010508408D01*
X0008084256Y0010326100D01*
X0008420137Y0010110205D01*
X0008752954Y0009883418D01*
X0009048089Y0009668433D01*
X0009270921Y0009487945D01*
X0009362023Y0009398212D01*
X0009551721Y0009186604D01*
X0009669045Y0009092013D01*
X0009744763Y0009097154D01*
X0009792846Y0009156210D01*
X0009886364Y0009235961D01*
X0010087975Y0009372458D01*
X0010358236Y0009539346D01*
X0010426116Y0009579350D01*
X0010844075Y0009837579D01*
X0011180502Y0010073667D01*
X0011414141Y0010271028D01*
X0011523735Y0010413080D01*
X0011529302Y0010440082D01*
X0011474791Y0010537445D01*
X0011330854Y0010718815D01*
X0011126890Y0010947553D01*
X0011094347Y0010982192D01*
X0010611537Y0011418947D01*
X0009980866Y0011869769D01*
X0009221687Y0012322019D01*
X0008404413Y0012738930D01*
X0008006480Y0012934193D01*
X0007627286Y0013131506D01*
X0007315477Y0013304952D01*
X0007149788Y0013407370D01*
X0006779673Y0013747923D01*
X0006489805Y0014188665D01*
X0006322438Y0014664768D01*
X0006319271Y0014681535D01*
X0006261293Y0014998582D01*
X0006116401Y0014808535D01*
X0006116401Y0014808535D01*
G37*
X0006116401Y0014808535D02*
X0005975043Y0014593641D01*
X0005791683Y0014275432D01*
X0005593207Y0013905280D01*
X0005406499Y0013534561D01*
X0005258447Y0013214645D01*
X0005186521Y0013031695D01*
X0005142175Y0012712780D01*
X0005231300Y0012394940D01*
X0005463380Y0012055541D01*
X0005698799Y0011809378D01*
X0005902405Y0011635634D01*
X0006179724Y0011426616D01*
X0006494852Y0011206069D01*
X0006811881Y0010997736D01*
X0007094907Y0010825361D01*
X0007308022Y0010712687D01*
X0007404427Y0010681488D01*
X0007541781Y0010634435D01*
X0007779931Y0010508408D01*
X0008084256Y0010326100D01*
X0008420137Y0010110205D01*
X0008752954Y0009883418D01*
X0009048089Y0009668433D01*
X0009270921Y0009487945D01*
X0009362023Y0009398212D01*
X0009551721Y0009186604D01*
X0009669045Y0009092013D01*
X0009744763Y0009097154D01*
X0009792846Y0009156210D01*
X0009886364Y0009235961D01*
X0010087975Y0009372458D01*
X0010358236Y0009539346D01*
X0010426116Y0009579350D01*
X0010844075Y0009837579D01*
X0011180502Y0010073667D01*
X0011414141Y0010271028D01*
X0011523735Y0010413080D01*
X0011529302Y0010440082D01*
X0011474791Y0010537445D01*
X0011330854Y0010718815D01*
X0011126890Y0010947553D01*
X0011094347Y0010982192D01*
X0010611537Y0011418947D01*
X0009980866Y0011869769D01*
X0009221687Y0012322019D01*
X0008404413Y0012738930D01*
X0008006480Y0012934193D01*
X0007627286Y0013131506D01*
X0007315477Y0013304952D01*
X0007149788Y0013407370D01*
X0006779673Y0013747923D01*
X0006489805Y0014188665D01*
X0006322438Y0014664768D01*
X0006319271Y0014681535D01*
X0006261293Y0014998582D01*
X0006116401Y0014808535D01*
G36*
X0031511056Y0014550783D02*
G01*
X0031487237Y0014240022D01*
X0031405835Y0013964196D01*
X0031250894Y0013707405D01*
X0031006457Y0013453747D01*
X0030656568Y0013187323D01*
X0030185273Y0012892233D01*
X0029576615Y0012552575D01*
X0029424034Y0012471003D01*
X0028978674Y0012230548D01*
X0028548955Y0011991852D01*
X0028174477Y0011777371D01*
X0027894842Y0011609560D01*
X0027818545Y0011560620D01*
X0027517432Y0011336322D01*
X0027211075Y0011067177D01*
X0026928753Y0010784118D01*
X0026699746Y0010518080D01*
X0026553333Y0010299995D01*
X0026515302Y0010183763D01*
X0026589837Y0010029098D01*
X0026817867Y0009839044D01*
X0026982422Y0009734195D01*
X0027322715Y0009526849D01*
X0027686427Y0009300613D01*
X0027878812Y0009178654D01*
X0028108038Y0009033342D01*
X0028270194Y0008933619D01*
X0028324770Y0008903488D01*
X0028374049Y0008967952D01*
X0028472638Y0009125706D01*
X0028487811Y0009151243D01*
X0028642585Y0009359995D01*
X0028870466Y0009572572D01*
X0029191981Y0009803593D01*
X0029627659Y0010067677D01*
X0030198025Y0010379441D01*
X0030253353Y0010408596D01*
X0030924396Y0010765432D01*
X0031458375Y0011062114D01*
X0031870595Y0011312366D01*
X0032176357Y0011529912D01*
X0032390966Y0011728479D01*
X0032529724Y0011921789D01*
X0032607936Y0012123568D01*
X0032640903Y0012347540D01*
X0032644965Y0012553486D01*
X0032627013Y0012841251D01*
X0032570283Y0013102797D01*
X0032457423Y0013395658D01*
X0032282571Y0013754968D01*
X0032097892Y0014098860D01*
X0031913578Y0014414170D01*
X0031760763Y0014648492D01*
X0031719273Y0014703154D01*
X0031511476Y0014957154D01*
X0031511056Y0014550783D01*
X0031511056Y0014550783D01*
G37*
X0031511056Y0014550783D02*
X0031487237Y0014240022D01*
X0031405835Y0013964196D01*
X0031250894Y0013707405D01*
X0031006457Y0013453747D01*
X0030656568Y0013187323D01*
X0030185273Y0012892233D01*
X0029576615Y0012552575D01*
X0029424034Y0012471003D01*
X0028978674Y0012230548D01*
X0028548955Y0011991852D01*
X0028174477Y0011777371D01*
X0027894842Y0011609560D01*
X0027818545Y0011560620D01*
X0027517432Y0011336322D01*
X0027211075Y0011067177D01*
X0026928753Y0010784118D01*
X0026699746Y0010518080D01*
X0026553333Y0010299995D01*
X0026515302Y0010183763D01*
X0026589837Y0010029098D01*
X0026817867Y0009839044D01*
X0026982422Y0009734195D01*
X0027322715Y0009526849D01*
X0027686427Y0009300613D01*
X0027878812Y0009178654D01*
X0028108038Y0009033342D01*
X0028270194Y0008933619D01*
X0028324770Y0008903488D01*
X0028374049Y0008967952D01*
X0028472638Y0009125706D01*
X0028487811Y0009151243D01*
X0028642585Y0009359995D01*
X0028870466Y0009572572D01*
X0029191981Y0009803593D01*
X0029627659Y0010067677D01*
X0030198025Y0010379441D01*
X0030253353Y0010408596D01*
X0030924396Y0010765432D01*
X0031458375Y0011062114D01*
X0031870595Y0011312366D01*
X0032176357Y0011529912D01*
X0032390966Y0011728479D01*
X0032529724Y0011921789D01*
X0032607936Y0012123568D01*
X0032640903Y0012347540D01*
X0032644965Y0012553486D01*
X0032627013Y0012841251D01*
X0032570283Y0013102797D01*
X0032457423Y0013395658D01*
X0032282571Y0013754968D01*
X0032097892Y0014098860D01*
X0031913578Y0014414170D01*
X0031760763Y0014648492D01*
X0031719273Y0014703154D01*
X0031511476Y0014957154D01*
X0031511056Y0014550783D01*
G36*
X0011177929Y0009677828D02*
G01*
X0010710149Y0009387988D01*
X0010368042Y0009169727D01*
X0010131752Y0009008056D01*
X0009981420Y0008887989D01*
X0009897187Y0008794535D01*
X0009859194Y0008712709D01*
X0009852101Y0008677174D01*
X0009912105Y0008509150D01*
X0010130521Y0008318709D01*
X0010498718Y0008111186D01*
X0011008063Y0007891917D01*
X0011291955Y0007786960D01*
X0011950673Y0007553859D01*
X0012007461Y0007780118D01*
X0012024894Y0007988132D01*
X0012013996Y0008310183D01*
X0011980661Y0008694467D01*
X0011930781Y0009089182D01*
X0011870250Y0009442526D01*
X0011804963Y0009702696D01*
X0011781924Y0009762495D01*
X0011679498Y0009986502D01*
X0011177929Y0009677828D01*
X0011177929Y0009677828D01*
G37*
X0011177929Y0009677828D02*
X0010710149Y0009387988D01*
X0010368042Y0009169727D01*
X0010131752Y0009008056D01*
X0009981420Y0008887989D01*
X0009897187Y0008794535D01*
X0009859194Y0008712709D01*
X0009852101Y0008677174D01*
X0009912105Y0008509150D01*
X0010130521Y0008318709D01*
X0010498718Y0008111186D01*
X0011008063Y0007891917D01*
X0011291955Y0007786960D01*
X0011950673Y0007553859D01*
X0012007461Y0007780118D01*
X0012024894Y0007988132D01*
X0012013996Y0008310183D01*
X0011980661Y0008694467D01*
X0011930781Y0009089182D01*
X0011870250Y0009442526D01*
X0011804963Y0009702696D01*
X0011781924Y0009762495D01*
X0011679498Y0009986502D01*
X0011177929Y0009677828D01*
G36*
X0026305251Y0009628834D02*
G01*
X0026229998Y0009426710D01*
X0026156555Y0009119195D01*
X0026092163Y0008738024D01*
X0026044063Y0008314929D01*
X0026035336Y0008204988D01*
X0026010488Y0007828997D01*
X0026017615Y0007599590D01*
X0026080461Y0007494220D01*
X0026222771Y0007490338D01*
X0026468291Y0007565396D01*
X0026643292Y0007627660D01*
X0027045971Y0007786325D01*
X0027435058Y0007965990D01*
X0027760951Y0008142031D01*
X0027970283Y0008286481D01*
X0028061659Y0008431305D01*
X0028020608Y0008599287D01*
X0027839780Y0008799385D01*
X0027511823Y0009040557D01*
X0027187183Y0009240722D01*
X0026868402Y0009425663D01*
X0026603866Y0009575074D01*
X0026427537Y0009670005D01*
X0026375072Y0009693834D01*
X0026305251Y0009628834D01*
X0026305251Y0009628834D01*
G37*
X0026305251Y0009628834D02*
X0026229998Y0009426710D01*
X0026156555Y0009119195D01*
X0026092163Y0008738024D01*
X0026044063Y0008314929D01*
X0026035336Y0008204988D01*
X0026010488Y0007828997D01*
X0026017615Y0007599590D01*
X0026080461Y0007494220D01*
X0026222771Y0007490338D01*
X0026468291Y0007565396D01*
X0026643292Y0007627660D01*
X0027045971Y0007786325D01*
X0027435058Y0007965990D01*
X0027760951Y0008142031D01*
X0027970283Y0008286481D01*
X0028061659Y0008431305D01*
X0028020608Y0008599287D01*
X0027839780Y0008799385D01*
X0027511823Y0009040557D01*
X0027187183Y0009240722D01*
X0026868402Y0009425663D01*
X0026603866Y0009575074D01*
X0026427537Y0009670005D01*
X0026375072Y0009693834D01*
X0026305251Y0009628834D01*
G36*
X0019107857Y0027060255D02*
G01*
X0018912725Y0026933878D01*
X0018640715Y0026747677D01*
X0018360271Y0026549288D01*
X0017534656Y0026013897D01*
X0016666671Y0025554046D01*
X0015809319Y0025196266D01*
X0015381635Y0025058319D01*
X0014777487Y0024933579D01*
X0014072031Y0024864554D01*
X0013323553Y0024851237D01*
X0012590339Y0024893620D01*
X0011930673Y0024991694D01*
X0011656302Y0025058827D01*
X0010727938Y0025391385D01*
X0009799507Y0025848313D01*
X0008959440Y0026380899D01*
X0008302948Y0026851911D01*
X0008168768Y0026534866D01*
X0008027419Y0026168123D01*
X0007922036Y0025805454D01*
X0007846319Y0025408887D01*
X0007793971Y0024940453D01*
X0007758691Y0024362180D01*
X0007743975Y0023974154D01*
X0007739470Y0023023710D01*
X0007791193Y0022079238D01*
X0007903643Y0021115437D01*
X0008081322Y0020107004D01*
X0008328730Y0019028635D01*
X0008650365Y0017855027D01*
X0009050729Y0016560879D01*
X0009076602Y0016481154D01*
X0009406668Y0015519212D01*
X0009730887Y0014695047D01*
X0010065984Y0013978614D01*
X0010428689Y0013339869D01*
X0010835728Y0012748767D01*
X0011303828Y0012175263D01*
X0011733600Y0011708852D01*
X0012588355Y0010896323D01*
X0013483745Y0010202785D01*
X0014459696Y0009601036D01*
X0015556137Y0009063874D01*
X0015720302Y0008992800D01*
X0016475955Y0008650749D01*
X0017177127Y0008295448D01*
X0017791872Y0007944457D01*
X0018288241Y0007615335D01*
X0018443884Y0007495852D01*
X0018662659Y0007335354D01*
X0018841319Y0007233293D01*
X0018909551Y0007213595D01*
X0019037562Y0007267740D01*
X0019229505Y0007400402D01*
X0019318635Y0007473673D01*
X0019725947Y0007782748D01*
X0020244935Y0008097768D01*
X0020890746Y0008426713D01*
X0021678529Y0008777565D01*
X0022199202Y0008991335D01*
X0022993768Y0009326316D01*
X0023669356Y0009653539D01*
X0024272511Y0010000964D01*
X0024849779Y0010396552D01*
X0025447705Y0010868261D01*
X0025747421Y0011122758D01*
X0026443706Y0011793178D01*
X0027075731Y0012549273D01*
X0027648009Y0013401329D01*
X0028165054Y0014359634D01*
X0028631380Y0015434473D01*
X0029051499Y0016636133D01*
X0029429926Y0017974901D01*
X0029771175Y0019461064D01*
X0030049030Y0020926154D01*
X0030158284Y0021568563D01*
X0030239332Y0022087841D01*
X0030296314Y0022527071D01*
X0030333372Y0022929339D01*
X0030354645Y0023337727D01*
X0030364275Y0023795320D01*
X0030366381Y0024228154D01*
X0030364805Y0024579509D01*
X0029334229Y0024579509D01*
X0029284861Y0023112665D01*
X0029173785Y0021514780D01*
X0028945420Y0019979841D01*
X0028591280Y0018470173D01*
X0028102879Y0016948098D01*
X0027619507Y0015719144D01*
X0027110119Y0014619777D01*
X0026567746Y0013662875D01*
X0025975008Y0012822289D01*
X0025314521Y0012071872D01*
X0024976883Y0011743942D01*
X0024555538Y0011372401D01*
X0024134414Y0011044607D01*
X0023684231Y0010743085D01*
X0023175707Y0010450359D01*
X0022579561Y0010148953D01*
X0021866514Y0009821392D01*
X0021451874Y0009640129D01*
X0020922047Y0009407875D01*
X0020420395Y0009181404D01*
X0019976579Y0008974616D01*
X0019620263Y0008801407D01*
X0019381109Y0008675676D01*
X0019335207Y0008648392D01*
X0019111087Y0008510973D01*
X0018951897Y0008419596D01*
X0018902982Y0008397097D01*
X0018820525Y0008434817D01*
X0018615778Y0008539934D01*
X0018315041Y0008698629D01*
X0017944611Y0008897087D01*
X0017717649Y0009019835D01*
X0017257395Y0009267231D01*
X0016791561Y0009513585D01*
X0016366848Y0009734458D01*
X0016029957Y0009905411D01*
X0015953814Y0009942910D01*
X0015102307Y0010412092D01*
X0014256016Y0010979840D01*
X0013442105Y0011621595D01*
X0012687737Y0012312797D01*
X0012020076Y0013028885D01*
X0011466286Y0013745299D01*
X0011115045Y0014317943D01*
X0010958599Y0014645589D01*
X0010767247Y0015099649D01*
X0010554269Y0015644206D01*
X0010332951Y0016243343D01*
X0010116575Y0016861143D01*
X0009918425Y0017461689D01*
X0009758367Y0017986261D01*
X0009428904Y0019212695D01*
X0009181037Y0020349468D01*
X0009005952Y0021450094D01*
X0008894837Y0022568091D01*
X0008845461Y0023529654D01*
X0008832145Y0024019871D01*
X0008825852Y0024445987D01*
X0008826538Y0024781501D01*
X0008834160Y0024999913D01*
X0008848059Y0025074821D01*
X0008941561Y0025032452D01*
X0009133919Y0024921692D01*
X0009368490Y0024775993D01*
X0010270981Y0024296750D01*
X0011251504Y0023955010D01*
X0012286955Y0023752464D01*
X0013354228Y0023690805D01*
X0014430218Y0023771721D01*
X0015491820Y0023996906D01*
X0016285082Y0024269743D01*
X0016934186Y0024574149D01*
X0017625253Y0024968722D01*
X0018291324Y0025413975D01*
X0018533651Y0025595784D01*
X0018794230Y0025789708D01*
X0019010063Y0025934204D01*
X0019142113Y0026003541D01*
X0019156211Y0026006154D01*
X0019262823Y0025952810D01*
X0019451670Y0025812812D01*
X0019682291Y0025616210D01*
X0019687195Y0025611777D01*
X0020571279Y0024918385D01*
X0021539263Y0024353966D01*
X0022568867Y0023925912D01*
X0023637809Y0023641617D01*
X0024723809Y0023508474D01*
X0025804585Y0023533875D01*
X0025913890Y0023545695D01*
X0026567734Y0023640285D01*
X0027177314Y0023772645D01*
X0027792954Y0023957267D01*
X0028464976Y0024208645D01*
X0029004265Y0024435739D01*
X0029334229Y0024579509D01*
X0030364805Y0024579509D01*
X0030363796Y0024804407D01*
X0030353277Y0025242567D01*
X0030332342Y0025573787D01*
X0030298508Y0025829218D01*
X0030249294Y0026040014D01*
X0030212995Y0026153325D01*
X0030114654Y0026406710D01*
X0030025720Y0026588026D01*
X0029982703Y0026643584D01*
X0029885211Y0026617106D01*
X0029693788Y0026505176D01*
X0029445200Y0026330010D01*
X0029375344Y0026276543D01*
X0028385108Y0025593808D01*
X0027384377Y0025077533D01*
X0026375982Y0024728144D01*
X0025362755Y0024546067D01*
X0024347527Y0024531729D01*
X0023333129Y0024685556D01*
X0022322392Y0025007975D01*
X0021969420Y0025161010D01*
X0021114962Y0025607755D01*
X0020369162Y0026113383D01*
X0019775167Y0026619988D01*
X0019530984Y0026842315D01*
X0019332933Y0027011361D01*
X0019213399Y0027099894D01*
X0019196149Y0027106821D01*
X0019107857Y0027060255D01*
X0019107857Y0027060255D01*
G37*
X0019107857Y0027060255D02*
X0018912725Y0026933878D01*
X0018640715Y0026747677D01*
X0018360271Y0026549288D01*
X0017534656Y0026013897D01*
X0016666671Y0025554046D01*
X0015809319Y0025196266D01*
X0015381635Y0025058319D01*
X0014777487Y0024933579D01*
X0014072031Y0024864554D01*
X0013323553Y0024851237D01*
X0012590339Y0024893620D01*
X0011930673Y0024991694D01*
X0011656302Y0025058827D01*
X0010727938Y0025391385D01*
X0009799507Y0025848313D01*
X0008959440Y0026380899D01*
X0008302948Y0026851911D01*
X0008168768Y0026534866D01*
X0008027419Y0026168123D01*
X0007922036Y0025805454D01*
X0007846319Y0025408887D01*
X0007793971Y0024940453D01*
X0007758691Y0024362180D01*
X0007743975Y0023974154D01*
X0007739470Y0023023710D01*
X0007791193Y0022079238D01*
X0007903643Y0021115437D01*
X0008081322Y0020107004D01*
X0008328730Y0019028635D01*
X0008650365Y0017855027D01*
X0009050729Y0016560879D01*
X0009076602Y0016481154D01*
X0009406668Y0015519212D01*
X0009730887Y0014695047D01*
X0010065984Y0013978614D01*
X0010428689Y0013339869D01*
X0010835728Y0012748767D01*
X0011303828Y0012175263D01*
X0011733600Y0011708852D01*
X0012588355Y0010896323D01*
X0013483745Y0010202785D01*
X0014459696Y0009601036D01*
X0015556137Y0009063874D01*
X0015720302Y0008992800D01*
X0016475955Y0008650749D01*
X0017177127Y0008295448D01*
X0017791872Y0007944457D01*
X0018288241Y0007615335D01*
X0018443884Y0007495852D01*
X0018662659Y0007335354D01*
X0018841319Y0007233293D01*
X0018909551Y0007213595D01*
X0019037562Y0007267740D01*
X0019229505Y0007400402D01*
X0019318635Y0007473673D01*
X0019725947Y0007782748D01*
X0020244935Y0008097768D01*
X0020890746Y0008426713D01*
X0021678529Y0008777565D01*
X0022199202Y0008991335D01*
X0022993768Y0009326316D01*
X0023669356Y0009653539D01*
X0024272511Y0010000964D01*
X0024849779Y0010396552D01*
X0025447705Y0010868261D01*
X0025747421Y0011122758D01*
X0026443706Y0011793178D01*
X0027075731Y0012549273D01*
X0027648009Y0013401329D01*
X0028165054Y0014359634D01*
X0028631380Y0015434473D01*
X0029051499Y0016636133D01*
X0029429926Y0017974901D01*
X0029771175Y0019461064D01*
X0030049030Y0020926154D01*
X0030158284Y0021568563D01*
X0030239332Y0022087841D01*
X0030296314Y0022527071D01*
X0030333372Y0022929339D01*
X0030354645Y0023337727D01*
X0030364275Y0023795320D01*
X0030366381Y0024228154D01*
X0030364805Y0024579509D01*
X0029334229Y0024579509D01*
X0029284861Y0023112665D01*
X0029173785Y0021514780D01*
X0028945420Y0019979841D01*
X0028591280Y0018470173D01*
X0028102879Y0016948098D01*
X0027619507Y0015719144D01*
X0027110119Y0014619777D01*
X0026567746Y0013662875D01*
X0025975008Y0012822289D01*
X0025314521Y0012071872D01*
X0024976883Y0011743942D01*
X0024555538Y0011372401D01*
X0024134414Y0011044607D01*
X0023684231Y0010743085D01*
X0023175707Y0010450359D01*
X0022579561Y0010148953D01*
X0021866514Y0009821392D01*
X0021451874Y0009640129D01*
X0020922047Y0009407875D01*
X0020420395Y0009181404D01*
X0019976579Y0008974616D01*
X0019620263Y0008801407D01*
X0019381109Y0008675676D01*
X0019335207Y0008648392D01*
X0019111087Y0008510973D01*
X0018951897Y0008419596D01*
X0018902982Y0008397097D01*
X0018820525Y0008434817D01*
X0018615778Y0008539934D01*
X0018315041Y0008698629D01*
X0017944611Y0008897087D01*
X0017717649Y0009019835D01*
X0017257395Y0009267231D01*
X0016791561Y0009513585D01*
X0016366848Y0009734458D01*
X0016029957Y0009905411D01*
X0015953814Y0009942910D01*
X0015102307Y0010412092D01*
X0014256016Y0010979840D01*
X0013442105Y0011621595D01*
X0012687737Y0012312797D01*
X0012020076Y0013028885D01*
X0011466286Y0013745299D01*
X0011115045Y0014317943D01*
X0010958599Y0014645589D01*
X0010767247Y0015099649D01*
X0010554269Y0015644206D01*
X0010332951Y0016243343D01*
X0010116575Y0016861143D01*
X0009918425Y0017461689D01*
X0009758367Y0017986261D01*
X0009428904Y0019212695D01*
X0009181037Y0020349468D01*
X0009005952Y0021450094D01*
X0008894837Y0022568091D01*
X0008845461Y0023529654D01*
X0008832145Y0024019871D01*
X0008825852Y0024445987D01*
X0008826538Y0024781501D01*
X0008834160Y0024999913D01*
X0008848059Y0025074821D01*
X0008941561Y0025032452D01*
X0009133919Y0024921692D01*
X0009368490Y0024775993D01*
X0010270981Y0024296750D01*
X0011251504Y0023955010D01*
X0012286955Y0023752464D01*
X0013354228Y0023690805D01*
X0014430218Y0023771721D01*
X0015491820Y0023996906D01*
X0016285082Y0024269743D01*
X0016934186Y0024574149D01*
X0017625253Y0024968722D01*
X0018291324Y0025413975D01*
X0018533651Y0025595784D01*
X0018794230Y0025789708D01*
X0019010063Y0025934204D01*
X0019142113Y0026003541D01*
X0019156211Y0026006154D01*
X0019262823Y0025952810D01*
X0019451670Y0025812812D01*
X0019682291Y0025616210D01*
X0019687195Y0025611777D01*
X0020571279Y0024918385D01*
X0021539263Y0024353966D01*
X0022568867Y0023925912D01*
X0023637809Y0023641617D01*
X0024723809Y0023508474D01*
X0025804585Y0023533875D01*
X0025913890Y0023545695D01*
X0026567734Y0023640285D01*
X0027177314Y0023772645D01*
X0027792954Y0023957267D01*
X0028464976Y0024208645D01*
X0029004265Y0024435739D01*
X0029334229Y0024579509D01*
X0030364805Y0024579509D01*
X0030363796Y0024804407D01*
X0030353277Y0025242567D01*
X0030332342Y0025573787D01*
X0030298508Y0025829218D01*
X0030249294Y0026040014D01*
X0030212995Y0026153325D01*
X0030114654Y0026406710D01*
X0030025720Y0026588026D01*
X0029982703Y0026643584D01*
X0029885211Y0026617106D01*
X0029693788Y0026505176D01*
X0029445200Y0026330010D01*
X0029375344Y0026276543D01*
X0028385108Y0025593808D01*
X0027384377Y0025077533D01*
X0026375982Y0024728144D01*
X0025362755Y0024546067D01*
X0024347527Y0024531729D01*
X0023333129Y0024685556D01*
X0022322392Y0025007975D01*
X0021969420Y0025161010D01*
X0021114962Y0025607755D01*
X0020369162Y0026113383D01*
X0019775167Y0026619988D01*
X0019530984Y0026842315D01*
X0019332933Y0027011361D01*
X0019213399Y0027099894D01*
X0019196149Y0027106821D01*
X0019107857Y0027060255D01*
G36*
X0009655843Y0008039359D02*
G01*
X0009588261Y0007841716D01*
X0009540894Y0007527021D01*
X0009513416Y0007134980D01*
X0009505502Y0006705301D01*
X0009516824Y0006277692D01*
X0009547058Y0005891858D01*
X0009595876Y0005587508D01*
X0009662954Y0005404348D01*
X0009677626Y0005386633D01*
X0009861638Y0005255052D01*
X0010167193Y0005089042D01*
X0010554780Y0004906486D01*
X0010984892Y0004725264D01*
X0011418020Y0004563258D01*
X0011699284Y0004471635D01*
X0013053124Y0004135662D01*
X0014532925Y0003905540D01*
X0014534968Y0003905305D01*
X0014824048Y0003882116D01*
X0015257987Y0003860688D01*
X0015813534Y0003841227D01*
X0016467439Y0003823941D01*
X0017196451Y0003809038D01*
X0017977320Y0003796723D01*
X0018786795Y0003787205D01*
X0019601625Y0003780691D01*
X0020398561Y0003777387D01*
X0021154350Y0003777502D01*
X0021845744Y0003781242D01*
X0022449490Y0003788814D01*
X0022942339Y0003800425D01*
X0023301040Y0003816283D01*
X0023424968Y0003826087D01*
X0024652367Y0003984459D01*
X0025737287Y0004195300D01*
X0026673595Y0004457104D01*
X0027102255Y0004627821D01*
X0024861810Y0004627821D01*
X0024439722Y0004577623D01*
X0024012460Y0004532726D01*
X0023720622Y0004519253D01*
X0023532963Y0004538709D01*
X0023418238Y0004592601D01*
X0023381963Y0004628631D01*
X0023368855Y0004666296D01*
X0023034357Y0004666296D01*
X0023033629Y0004492143D01*
X0023026986Y0004455616D01*
X0022933393Y0004435574D01*
X0022709439Y0004409274D01*
X0022393776Y0004380869D01*
X0022185475Y0004365178D01*
X0021804690Y0004341937D01*
X0021559725Y0004338891D01*
X0021417927Y0004359140D01*
X0021346647Y0004405786D01*
X0021324449Y0004446939D01*
X0021219970Y0004531045D01*
X0021022090Y0004580752D01*
X0020787976Y0004594887D01*
X0020574793Y0004572274D01*
X0020439708Y0004511739D01*
X0020419302Y0004465543D01*
X0020343229Y0004324741D01*
X0020119091Y0004257572D01*
X0020061850Y0004253505D01*
X0019999225Y0004267325D01*
X0019980723Y0004335452D01*
X0020010817Y0004486440D01*
X0020093979Y0004748847D01*
X0020176840Y0004987654D01*
X0020230460Y0005137786D01*
X0019826635Y0005137786D01*
X0019826635Y0005137643D01*
X0019820682Y0004805268D01*
X0019795425Y0004597485D01*
X0019739771Y0004469752D01*
X0019642625Y0004377529D01*
X0019636135Y0004372802D01*
X0019448762Y0004302997D01*
X0019169835Y0004268017D01*
X0018861381Y0004267449D01*
X0018585427Y0004300879D01*
X0018403999Y0004367895D01*
X0018388475Y0004381115D01*
X0018316425Y0004523135D01*
X0018283902Y0004671681D01*
X0018321586Y0004841034D01*
X0018439957Y0004919960D01*
X0018576138Y0004893996D01*
X0018664672Y0004759264D01*
X0018732275Y0004642204D01*
X0018885480Y0004592441D01*
X0019047650Y0004585488D01*
X0019314387Y0004618020D01*
X0019436168Y0004718359D01*
X0019436577Y0004719413D01*
X0019481210Y0004941832D01*
X0019483561Y0005210121D01*
X0019447875Y0005451107D01*
X0019386368Y0005584554D01*
X0019192015Y0005677139D01*
X0018953599Y0005670348D01*
X0018753107Y0005572346D01*
X0018706320Y0005516821D01*
X0018561139Y0005374794D01*
X0018414262Y0005354199D01*
X0018316831Y0005451817D01*
X0018302635Y0005542221D01*
X0018309745Y0005578158D01*
X0018069799Y0005578158D01*
X0018059461Y0005220778D01*
X0018043501Y0004875753D01*
X0018023322Y0004596723D01*
X0018002296Y0004425797D01*
X0017993400Y0004395278D01*
X0017886006Y0004341950D01*
X0017789638Y0004331488D01*
X0017681754Y0004361710D01*
X0017634170Y0004481441D01*
X0017625302Y0004670154D01*
X0017613896Y0004882313D01*
X0017585407Y0005000236D01*
X0017573923Y0005008821D01*
X0017486064Y0004959967D01*
X0017307349Y0004832445D01*
X0017097196Y0004670154D01*
X0016850233Y0004476959D01*
X0016695602Y0004374068D01*
X0016594105Y0004345133D01*
X0016506546Y0004373810D01*
X0016457637Y0004403443D01*
X0016431203Y0004478693D01*
X0016520050Y0004614871D01*
X0016732803Y0004827224D01*
X0016934390Y0005020736D01*
X0017073605Y0005169088D01*
X0017117302Y0005233137D01*
X0017064906Y0005319737D01*
X0016934192Y0005482837D01*
X0016764866Y0005677515D01*
X0016596637Y0005858847D01*
X0016469214Y0005981912D01*
X0016432496Y0006007869D01*
X0016387873Y0005946061D01*
X0016341741Y0005744630D01*
X0016298657Y0005433177D01*
X0016263177Y0005041304D01*
X0016249393Y0004818389D01*
X0016229850Y0004575863D01*
X0016183655Y0004457837D01*
X0016079151Y0004419550D01*
X0015964952Y0004416223D01*
X0015550971Y0004434682D01*
X0015218882Y0004485807D01*
X0014997557Y0004562877D01*
X0014915868Y0004659168D01*
X0014915853Y0004660496D01*
X0014944211Y0004738229D01*
X0015054162Y0004773123D01*
X0015282765Y0004773588D01*
X0015388488Y0004767748D01*
X0015656328Y0004755404D01*
X0015793852Y0004771166D01*
X0015839543Y0004829690D01*
X0015833104Y0004937081D01*
X0015792952Y0005060626D01*
X0015686892Y0005125823D01*
X0015468201Y0005157052D01*
X0015402802Y0005161627D01*
X0015153462Y0005189740D01*
X0015032878Y0005244666D01*
X0015000659Y0005345262D01*
X0015000635Y0005349406D01*
X0015021846Y0005443748D01*
X0015112572Y0005488641D01*
X0015313452Y0005497206D01*
X0015445135Y0005492934D01*
X0015705703Y0005489427D01*
X0015838855Y0005516263D01*
X0015885714Y0005587402D01*
X0015889635Y0005643821D01*
X0015865445Y0005745429D01*
X0015766053Y0005802199D01*
X0015551229Y0005831773D01*
X0015445135Y0005838746D01*
X0015182177Y0005863049D01*
X0015048222Y0005908530D01*
X0015002973Y0005992923D01*
X0015000635Y0006034373D01*
X0015008411Y0006090345D01*
X0014791972Y0006090345D01*
X0014777191Y0005879077D01*
X0014749879Y0005592046D01*
X0014715065Y0005275277D01*
X0014677779Y0004974800D01*
X0014643049Y0004736642D01*
X0014618014Y0004613227D01*
X0014524611Y0004551518D01*
X0014417868Y0004558367D01*
X0014274841Y0004670739D01*
X0014222188Y0004869295D01*
X0014186883Y0005046685D01*
X0014091505Y0005128824D01*
X0013881823Y0005161822D01*
X0013877720Y0005162163D01*
X0013666161Y0005166916D01*
X0013563654Y0005109088D01*
X0013511819Y0004951377D01*
X0013506426Y0004924943D01*
X0013443110Y0004739146D01*
X0013333128Y0004683154D01*
X0013274674Y0004687208D01*
X0013144133Y0004777639D01*
X0013115429Y0004978382D01*
X0013192513Y0005261577D01*
X0013193032Y0005262821D01*
X0013225353Y0005434555D01*
X0013228039Y0005663051D01*
X0013244815Y0006018543D01*
X0013352632Y0006234527D01*
X0013478709Y0006303896D01*
X0013624577Y0006313270D01*
X0013870574Y0006303969D01*
X0014163295Y0006281049D01*
X0014449331Y0006249567D01*
X0014675275Y0006214579D01*
X0014787721Y0006181142D01*
X0014789192Y0006179820D01*
X0014791972Y0006090345D01*
X0015008411Y0006090345D01*
X0015012676Y0006121036D01*
X0015072635Y0006166976D01*
X0015216267Y0006179137D01*
X0015479326Y0006164465D01*
X0015614468Y0006153594D01*
X0016107325Y0006111288D01*
X0016463244Y0006072817D01*
X0016714106Y0006028810D01*
X0016891793Y0005969895D01*
X0017028185Y0005886700D01*
X0017155162Y0005769853D01*
X0017245145Y0005674233D01*
X0017460144Y0005473214D01*
X0017602360Y0005422573D01*
X0017681820Y0005524986D01*
X0017708551Y0005783125D01*
X0017708672Y0005797876D01*
X0017732575Y0005967814D01*
X0017827813Y0006015402D01*
X0017898034Y0006009543D01*
X0017986859Y0005987695D01*
X0018040499Y0005930973D01*
X0018065848Y0005805690D01*
X0018069799Y0005578158D01*
X0018309745Y0005578158D01*
X0018342927Y0005745863D01*
X0018480435Y0005870285D01*
X0018740110Y0005929675D01*
X0019002468Y0005940154D01*
X0019381413Y0005928082D01*
X0019622459Y0005871841D01*
X0019756449Y0005741400D01*
X0019814227Y0005506726D01*
X0019826635Y0005137786D01*
X0020230460Y0005137786D01*
X0020328248Y0005411585D01*
X0020441532Y0005700866D01*
X0020533086Y0005881164D01*
X0020619306Y0005978144D01*
X0020716585Y0006017474D01*
X0020839332Y0006024821D01*
X0020962984Y0006012682D01*
X0021058925Y0005955637D01*
X0021150986Y0005822746D01*
X0021262997Y0005583068D01*
X0021361008Y0005347488D01*
X0021637945Y0004670154D01*
X0022645616Y0004670154D01*
X0022590298Y0005389821D01*
X0022565177Y0005737877D01*
X0022559980Y0005950490D01*
X0022581516Y0006061042D01*
X0022636593Y0006102914D01*
X0022732019Y0006109487D01*
X0022737073Y0006109488D01*
X0022831068Y0006100914D01*
X0022893609Y0006054237D01*
X0022934893Y0005938023D01*
X0022965119Y0005720838D01*
X0022994485Y0005371248D01*
X0022999901Y0005299378D01*
X0023022703Y0004948205D01*
X0023034357Y0004666296D01*
X0023368855Y0004666296D01*
X0023315560Y0004819435D01*
X0023321204Y0005094282D01*
X0023332511Y0005318068D01*
X0023305135Y0005461709D01*
X0023289910Y0005479468D01*
X0023218395Y0005609952D01*
X0023231923Y0005807834D01*
X0023320391Y0006000434D01*
X0023370008Y0006055727D01*
X0023556641Y0006149964D01*
X0023874586Y0006203390D01*
X0024109226Y0006217016D01*
X0024691739Y0006236488D01*
X0024751050Y0005770821D01*
X0024790896Y0005431642D01*
X0024824796Y0005098645D01*
X0024836085Y0004966488D01*
X0024861810Y0004627821D01*
X0027102255Y0004627821D01*
X0027455156Y0004768366D01*
X0027637034Y0004859730D01*
X0027888561Y0005009534D01*
X0028069959Y0005171676D01*
X0028190078Y0005374325D01*
X0028257765Y0005645649D01*
X0028281869Y0006013819D01*
X0028271239Y0006507003D01*
X0028254702Y0006826033D01*
X0028229137Y0007224393D01*
X0028202741Y0007559333D01*
X0028178632Y0007795564D01*
X0028160000Y0007897684D01*
X0028073117Y0007890585D01*
X0027876190Y0007818408D01*
X0027608466Y0007695988D01*
X0027552323Y0007668014D01*
X0026820176Y0007363091D01*
X0025927291Y0007105999D01*
X0024875449Y0006897032D01*
X0023666434Y0006736482D01*
X0022302029Y0006624640D01*
X0020800302Y0006562192D01*
X0019112573Y0006545000D01*
X0017523477Y0006577065D01*
X0016042132Y0006657293D01*
X0014677658Y0006784592D01*
X0013439172Y0006957867D01*
X0012335793Y0007176024D01*
X0011376640Y0007437971D01*
X0010570831Y0007742614D01*
X0010435786Y0007805246D01*
X0010078387Y0007969099D01*
X0009844038Y0008055780D01*
X0009708940Y0008072433D01*
X0009655843Y0008039359D01*
X0009655843Y0008039359D01*
G37*
X0009655843Y0008039359D02*
X0009588261Y0007841716D01*
X0009540894Y0007527021D01*
X0009513416Y0007134980D01*
X0009505502Y0006705301D01*
X0009516824Y0006277692D01*
X0009547058Y0005891858D01*
X0009595876Y0005587508D01*
X0009662954Y0005404348D01*
X0009677626Y0005386633D01*
X0009861638Y0005255052D01*
X0010167193Y0005089042D01*
X0010554780Y0004906486D01*
X0010984892Y0004725264D01*
X0011418020Y0004563258D01*
X0011699284Y0004471635D01*
X0013053124Y0004135662D01*
X0014532925Y0003905540D01*
X0014534968Y0003905305D01*
X0014824048Y0003882116D01*
X0015257987Y0003860688D01*
X0015813534Y0003841227D01*
X0016467439Y0003823941D01*
X0017196451Y0003809038D01*
X0017977320Y0003796723D01*
X0018786795Y0003787205D01*
X0019601625Y0003780691D01*
X0020398561Y0003777387D01*
X0021154350Y0003777502D01*
X0021845744Y0003781242D01*
X0022449490Y0003788814D01*
X0022942339Y0003800425D01*
X0023301040Y0003816283D01*
X0023424968Y0003826087D01*
X0024652367Y0003984459D01*
X0025737287Y0004195300D01*
X0026673595Y0004457104D01*
X0027102255Y0004627821D01*
X0024861810Y0004627821D01*
X0024439722Y0004577623D01*
X0024012460Y0004532726D01*
X0023720622Y0004519253D01*
X0023532963Y0004538709D01*
X0023418238Y0004592601D01*
X0023381963Y0004628631D01*
X0023368855Y0004666296D01*
X0023034357Y0004666296D01*
X0023033629Y0004492143D01*
X0023026986Y0004455616D01*
X0022933393Y0004435574D01*
X0022709439Y0004409274D01*
X0022393776Y0004380869D01*
X0022185475Y0004365178D01*
X0021804690Y0004341937D01*
X0021559725Y0004338891D01*
X0021417927Y0004359140D01*
X0021346647Y0004405786D01*
X0021324449Y0004446939D01*
X0021219970Y0004531045D01*
X0021022090Y0004580752D01*
X0020787976Y0004594887D01*
X0020574793Y0004572274D01*
X0020439708Y0004511739D01*
X0020419302Y0004465543D01*
X0020343229Y0004324741D01*
X0020119091Y0004257572D01*
X0020061850Y0004253505D01*
X0019999225Y0004267325D01*
X0019980723Y0004335452D01*
X0020010817Y0004486440D01*
X0020093979Y0004748847D01*
X0020176840Y0004987654D01*
X0020230460Y0005137786D01*
X0019826635Y0005137786D01*
X0019826635Y0005137643D01*
X0019820682Y0004805268D01*
X0019795425Y0004597485D01*
X0019739771Y0004469752D01*
X0019642625Y0004377529D01*
X0019636135Y0004372802D01*
X0019448762Y0004302997D01*
X0019169835Y0004268017D01*
X0018861381Y0004267449D01*
X0018585427Y0004300879D01*
X0018403999Y0004367895D01*
X0018388475Y0004381115D01*
X0018316425Y0004523135D01*
X0018283902Y0004671681D01*
X0018321586Y0004841034D01*
X0018439957Y0004919960D01*
X0018576138Y0004893996D01*
X0018664672Y0004759264D01*
X0018732275Y0004642204D01*
X0018885480Y0004592441D01*
X0019047650Y0004585488D01*
X0019314387Y0004618020D01*
X0019436168Y0004718359D01*
X0019436577Y0004719413D01*
X0019481210Y0004941832D01*
X0019483561Y0005210121D01*
X0019447875Y0005451107D01*
X0019386368Y0005584554D01*
X0019192015Y0005677139D01*
X0018953599Y0005670348D01*
X0018753107Y0005572346D01*
X0018706320Y0005516821D01*
X0018561139Y0005374794D01*
X0018414262Y0005354199D01*
X0018316831Y0005451817D01*
X0018302635Y0005542221D01*
X0018309745Y0005578158D01*
X0018069799Y0005578158D01*
X0018059461Y0005220778D01*
X0018043501Y0004875753D01*
X0018023322Y0004596723D01*
X0018002296Y0004425797D01*
X0017993400Y0004395278D01*
X0017886006Y0004341950D01*
X0017789638Y0004331488D01*
X0017681754Y0004361710D01*
X0017634170Y0004481441D01*
X0017625302Y0004670154D01*
X0017613896Y0004882313D01*
X0017585407Y0005000236D01*
X0017573923Y0005008821D01*
X0017486064Y0004959967D01*
X0017307349Y0004832445D01*
X0017097196Y0004670154D01*
X0016850233Y0004476959D01*
X0016695602Y0004374068D01*
X0016594105Y0004345133D01*
X0016506546Y0004373810D01*
X0016457637Y0004403443D01*
X0016431203Y0004478693D01*
X0016520050Y0004614871D01*
X0016732803Y0004827224D01*
X0016934390Y0005020736D01*
X0017073605Y0005169088D01*
X0017117302Y0005233137D01*
X0017064906Y0005319737D01*
X0016934192Y0005482837D01*
X0016764866Y0005677515D01*
X0016596637Y0005858847D01*
X0016469214Y0005981912D01*
X0016432496Y0006007869D01*
X0016387873Y0005946061D01*
X0016341741Y0005744630D01*
X0016298657Y0005433177D01*
X0016263177Y0005041304D01*
X0016249393Y0004818389D01*
X0016229850Y0004575863D01*
X0016183655Y0004457837D01*
X0016079151Y0004419550D01*
X0015964952Y0004416223D01*
X0015550971Y0004434682D01*
X0015218882Y0004485807D01*
X0014997557Y0004562877D01*
X0014915868Y0004659168D01*
X0014915853Y0004660496D01*
X0014944211Y0004738229D01*
X0015054162Y0004773123D01*
X0015282765Y0004773588D01*
X0015388488Y0004767748D01*
X0015656328Y0004755404D01*
X0015793852Y0004771166D01*
X0015839543Y0004829690D01*
X0015833104Y0004937081D01*
X0015792952Y0005060626D01*
X0015686892Y0005125823D01*
X0015468201Y0005157052D01*
X0015402802Y0005161627D01*
X0015153462Y0005189740D01*
X0015032878Y0005244666D01*
X0015000659Y0005345262D01*
X0015000635Y0005349406D01*
X0015021846Y0005443748D01*
X0015112572Y0005488641D01*
X0015313452Y0005497206D01*
X0015445135Y0005492934D01*
X0015705703Y0005489427D01*
X0015838855Y0005516263D01*
X0015885714Y0005587402D01*
X0015889635Y0005643821D01*
X0015865445Y0005745429D01*
X0015766053Y0005802199D01*
X0015551229Y0005831773D01*
X0015445135Y0005838746D01*
X0015182177Y0005863049D01*
X0015048222Y0005908530D01*
X0015002973Y0005992923D01*
X0015000635Y0006034373D01*
X0015008411Y0006090345D01*
X0014791972Y0006090345D01*
X0014777191Y0005879077D01*
X0014749879Y0005592046D01*
X0014715065Y0005275277D01*
X0014677779Y0004974800D01*
X0014643049Y0004736642D01*
X0014618014Y0004613227D01*
X0014524611Y0004551518D01*
X0014417868Y0004558367D01*
X0014274841Y0004670739D01*
X0014222188Y0004869295D01*
X0014186883Y0005046685D01*
X0014091505Y0005128824D01*
X0013881823Y0005161822D01*
X0013877720Y0005162163D01*
X0013666161Y0005166916D01*
X0013563654Y0005109088D01*
X0013511819Y0004951377D01*
X0013506426Y0004924943D01*
X0013443110Y0004739146D01*
X0013333128Y0004683154D01*
X0013274674Y0004687208D01*
X0013144133Y0004777639D01*
X0013115429Y0004978382D01*
X0013192513Y0005261577D01*
X0013193032Y0005262821D01*
X0013225353Y0005434555D01*
X0013228039Y0005663051D01*
X0013244815Y0006018543D01*
X0013352632Y0006234527D01*
X0013478709Y0006303896D01*
X0013624577Y0006313270D01*
X0013870574Y0006303969D01*
X0014163295Y0006281049D01*
X0014449331Y0006249567D01*
X0014675275Y0006214579D01*
X0014787721Y0006181142D01*
X0014789192Y0006179820D01*
X0014791972Y0006090345D01*
X0015008411Y0006090345D01*
X0015012676Y0006121036D01*
X0015072635Y0006166976D01*
X0015216267Y0006179137D01*
X0015479326Y0006164465D01*
X0015614468Y0006153594D01*
X0016107325Y0006111288D01*
X0016463244Y0006072817D01*
X0016714106Y0006028810D01*
X0016891793Y0005969895D01*
X0017028185Y0005886700D01*
X0017155162Y0005769853D01*
X0017245145Y0005674233D01*
X0017460144Y0005473214D01*
X0017602360Y0005422573D01*
X0017681820Y0005524986D01*
X0017708551Y0005783125D01*
X0017708672Y0005797876D01*
X0017732575Y0005967814D01*
X0017827813Y0006015402D01*
X0017898034Y0006009543D01*
X0017986859Y0005987695D01*
X0018040499Y0005930973D01*
X0018065848Y0005805690D01*
X0018069799Y0005578158D01*
X0018309745Y0005578158D01*
X0018342927Y0005745863D01*
X0018480435Y0005870285D01*
X0018740110Y0005929675D01*
X0019002468Y0005940154D01*
X0019381413Y0005928082D01*
X0019622459Y0005871841D01*
X0019756449Y0005741400D01*
X0019814227Y0005506726D01*
X0019826635Y0005137786D01*
X0020230460Y0005137786D01*
X0020328248Y0005411585D01*
X0020441532Y0005700866D01*
X0020533086Y0005881164D01*
X0020619306Y0005978144D01*
X0020716585Y0006017474D01*
X0020839332Y0006024821D01*
X0020962984Y0006012682D01*
X0021058925Y0005955637D01*
X0021150986Y0005822746D01*
X0021262997Y0005583068D01*
X0021361008Y0005347488D01*
X0021637945Y0004670154D01*
X0022645616Y0004670154D01*
X0022590298Y0005389821D01*
X0022565177Y0005737877D01*
X0022559980Y0005950490D01*
X0022581516Y0006061042D01*
X0022636593Y0006102914D01*
X0022732019Y0006109487D01*
X0022737073Y0006109488D01*
X0022831068Y0006100914D01*
X0022893609Y0006054237D01*
X0022934893Y0005938023D01*
X0022965119Y0005720838D01*
X0022994485Y0005371248D01*
X0022999901Y0005299378D01*
X0023022703Y0004948205D01*
X0023034357Y0004666296D01*
X0023368855Y0004666296D01*
X0023315560Y0004819435D01*
X0023321204Y0005094282D01*
X0023332511Y0005318068D01*
X0023305135Y0005461709D01*
X0023289910Y0005479468D01*
X0023218395Y0005609952D01*
X0023231923Y0005807834D01*
X0023320391Y0006000434D01*
X0023370008Y0006055727D01*
X0023556641Y0006149964D01*
X0023874586Y0006203390D01*
X0024109226Y0006217016D01*
X0024691739Y0006236488D01*
X0024751050Y0005770821D01*
X0024790896Y0005431642D01*
X0024824796Y0005098645D01*
X0024836085Y0004966488D01*
X0024861810Y0004627821D01*
X0027102255Y0004627821D01*
X0027455156Y0004768366D01*
X0027637034Y0004859730D01*
X0027888561Y0005009534D01*
X0028069959Y0005171676D01*
X0028190078Y0005374325D01*
X0028257765Y0005645649D01*
X0028281869Y0006013819D01*
X0028271239Y0006507003D01*
X0028254702Y0006826033D01*
X0028229137Y0007224393D01*
X0028202741Y0007559333D01*
X0028178632Y0007795564D01*
X0028160000Y0007897684D01*
X0028073117Y0007890585D01*
X0027876190Y0007818408D01*
X0027608466Y0007695988D01*
X0027552323Y0007668014D01*
X0026820176Y0007363091D01*
X0025927291Y0007105999D01*
X0024875449Y0006897032D01*
X0023666434Y0006736482D01*
X0022302029Y0006624640D01*
X0020800302Y0006562192D01*
X0019112573Y0006545000D01*
X0017523477Y0006577065D01*
X0016042132Y0006657293D01*
X0014677658Y0006784592D01*
X0013439172Y0006957867D01*
X0012335793Y0007176024D01*
X0011376640Y0007437971D01*
X0010570831Y0007742614D01*
X0010435786Y0007805246D01*
X0010078387Y0007969099D01*
X0009844038Y0008055780D01*
X0009708940Y0008072433D01*
X0009655843Y0008039359D01*
D11*
G36*
X0019746505Y0044592629D02*
G01*
X0019939703Y0044554200D01*
X0020485668Y0044328054D01*
X0020977024Y0043999740D01*
X0021394887Y0043581877D01*
X0021723201Y0043090521D01*
X0021949347Y0042544556D01*
X0022064635Y0041964962D01*
X0022064635Y0041374014D01*
X0021949347Y0040794420D01*
X0021723201Y0040248455D01*
X0021394887Y0039757099D01*
X0020977024Y0039339236D01*
X0020485668Y0039010922D01*
X0019939703Y0038784776D01*
X0019746505Y0038746347D01*
X0019360111Y0038669488D01*
X0018769159Y0038669488D01*
X0018382765Y0038746347D01*
X0018189567Y0038784776D01*
X0017643602Y0039010922D01*
X0017152246Y0039339236D01*
X0016734383Y0039757099D01*
X0016406069Y0040248455D01*
X0016179923Y0040794420D01*
X0016064635Y0041374014D01*
X0016064635Y0041964962D01*
X0016179923Y0042544556D01*
X0016406069Y0043090521D01*
X0016734383Y0043581877D01*
X0017152246Y0043999740D01*
X0017643602Y0044328054D01*
X0018189567Y0044554200D01*
X0018382765Y0044592629D01*
X0018769159Y0044669488D01*
X0019360111Y0044669488D01*
X0019746505Y0044592629D01*
X0019746505Y0044592629D01*
G37*
M02*