%
M48
METRIC,000.000
T01C0.50
%
T01
X048250Y067607
X048250Y068607
X048250Y069607
X048250Y070607
X048250Y071607
X051750Y071806
X051750Y070806
X051750Y069806
X051750Y068806
X051750Y067806
X027880Y051750
X028880Y051750
X029880Y051750
X030880Y051750
X031880Y051750
X031555Y048250
X030555Y048250
X029555Y048250
X028555Y048250
X071536Y048250
X070536Y048250
X069536Y048250
X068536Y048250
X067801Y051750
X068801Y051750
X069801Y051750
X070801Y051750
X071801Y051750
X048250Y027837
X048250Y028837
X048250Y029837
X048250Y030837
X048250Y031837
X051750Y031929
X051750Y030929
X051750Y029929
X051750Y028929
X051750Y027929
X031706Y088171
X030706Y088171
X029706Y088171
X028706Y088171
X028889Y089750
X029889Y089750
X030889Y089750
X071492Y088171
X070492Y088171
X069492Y088171
X068492Y088171
X068889Y089750
X069889Y089750
X070889Y089750
M30