%MOIN*%
%OFA0B0*%
%FSLAX46Y46*%
%IPPOS*%
%LPD*%
%ADD10C,0.00039370078740157485*%
%ADD11C,0.0039370078740157488*%
%ADD22C,0.00039370078740157485*%
%ADD23C,0.0039370078740157488*%
%ADD24C,0.00039370078740157485*%
%ADD25C,0.0039370078740157488*%
%ADD26C,0.00039370078740157485*%
%ADD27C,0.0039370078740157488*%
%ADD28C,0.011811023622047244*%
%ADD29C,0.0039370078740157488*%
D10*
G36*
X0001356746Y0003288898D02*
G01*
X0001373098Y0003295605D01*
X0001391365Y0003295968D01*
X0001395195Y0003295301D01*
X0001402323Y0003293605D01*
X0001408303Y0003291214D01*
X0001414434Y0003287208D01*
X0001422018Y0003280665D01*
X0001432354Y0003270664D01*
X0001438221Y0003264818D01*
X0001450589Y0003252205D01*
X0001459150Y0003242668D01*
X0001464990Y0003234760D01*
X0001469199Y0003227032D01*
X0001472382Y0003219316D01*
X0001475994Y0003208679D01*
X0001476766Y0003202371D01*
X0001474746Y0003198713D01*
X0001472979Y0003197506D01*
X0001466730Y0003193392D01*
X0001457864Y0003186936D01*
X0001452885Y0003183117D01*
X0001443077Y0003173375D01*
X0001437504Y0003163572D01*
X0001436129Y0003154826D01*
X0001438917Y0003148256D01*
X0001445833Y0003144979D01*
X0001454089Y0003145432D01*
X0001460777Y0003147821D01*
X0001467556Y0003152842D01*
X0001476018Y0003161761D01*
X0001478979Y0003165216D01*
X0001493957Y0003182935D01*
X0001509575Y0003181431D01*
X0001530808Y0003176791D01*
X0001553590Y0003167404D01*
X0001576192Y0003154327D01*
X0001596881Y0003138619D01*
X0001613926Y0003121335D01*
X0001619108Y0003114545D01*
X0001626727Y0003102443D01*
X0001633407Y0003089790D01*
X0001636560Y0003082360D01*
X0001640834Y0003061182D01*
X0001638854Y0003040837D01*
X0001631032Y0003022306D01*
X0001617779Y0003006571D01*
X0001599843Y0002994773D01*
X0001588884Y0002991329D01*
X0001575370Y0002989425D01*
X0001568578Y0002989283D01*
X0001550076Y0002989886D01*
X0001442970Y0003098392D01*
X0001417645Y0003124070D01*
X0001396602Y0003145474D01*
X0001379425Y0003163061D01*
X0001365696Y0003177285D01*
X0001354999Y0003188603D01*
X0001346917Y0003197469D01*
X0001341033Y0003204339D01*
X0001336930Y0003209668D01*
X0001334191Y0003213912D01*
X0001332398Y0003217527D01*
X0001331348Y0003220327D01*
X0001328119Y0003239521D01*
X0001331440Y0003257827D01*
X0001341199Y0003274680D01*
X0001342105Y0003275772D01*
X0001356746Y0003288898D01*
G37*
X0001356746Y0003288898D02*
X0001373098Y0003295605D01*
X0001391365Y0003295968D01*
X0001395195Y0003295301D01*
X0001402323Y0003293605D01*
X0001408303Y0003291214D01*
X0001414434Y0003287208D01*
X0001422018Y0003280665D01*
X0001432354Y0003270664D01*
X0001438221Y0003264818D01*
X0001450589Y0003252205D01*
X0001459150Y0003242668D01*
X0001464990Y0003234760D01*
X0001469199Y0003227032D01*
X0001472382Y0003219316D01*
X0001475994Y0003208679D01*
X0001476766Y0003202371D01*
X0001474746Y0003198713D01*
X0001472979Y0003197506D01*
X0001466730Y0003193392D01*
X0001457864Y0003186936D01*
X0001452885Y0003183117D01*
X0001443077Y0003173375D01*
X0001437504Y0003163572D01*
X0001436129Y0003154826D01*
X0001438917Y0003148256D01*
X0001445833Y0003144979D01*
X0001454089Y0003145432D01*
X0001460777Y0003147821D01*
X0001467556Y0003152842D01*
X0001476018Y0003161761D01*
X0001478979Y0003165216D01*
X0001493957Y0003182935D01*
X0001509575Y0003181431D01*
X0001530808Y0003176791D01*
X0001553590Y0003167404D01*
X0001576192Y0003154327D01*
X0001596881Y0003138619D01*
X0001613926Y0003121335D01*
X0001619108Y0003114545D01*
X0001626727Y0003102443D01*
X0001633407Y0003089790D01*
X0001636560Y0003082360D01*
X0001640834Y0003061182D01*
X0001638854Y0003040837D01*
X0001631032Y0003022306D01*
X0001617779Y0003006571D01*
X0001599843Y0002994773D01*
X0001588884Y0002991329D01*
X0001575370Y0002989425D01*
X0001568578Y0002989283D01*
X0001550076Y0002989886D01*
X0001442970Y0003098392D01*
X0001417645Y0003124070D01*
X0001396602Y0003145474D01*
X0001379425Y0003163061D01*
X0001365696Y0003177285D01*
X0001354999Y0003188603D01*
X0001346917Y0003197469D01*
X0001341033Y0003204339D01*
X0001336930Y0003209668D01*
X0001334191Y0003213912D01*
X0001332398Y0003217527D01*
X0001331348Y0003220327D01*
X0001328119Y0003239521D01*
X0001331440Y0003257827D01*
X0001341199Y0003274680D01*
X0001342105Y0003275772D01*
X0001356746Y0003288898D01*
G36*
X0001520897Y0003427276D02*
G01*
X0001857956Y0003427276D01*
X0001857943Y0003091396D01*
X0001857931Y0002755517D01*
X0001565059Y0002755527D01*
X0001630929Y0002821397D01*
X0001633483Y0002820798D01*
X0001637493Y0002823235D01*
X0001644134Y0002829335D01*
X0001651407Y0002836549D01*
X0001670056Y0002855199D01*
X0001658050Y0002872655D01*
X0001651450Y0002881374D01*
X0001641422Y0002893543D01*
X0001629138Y0002907788D01*
X0001615769Y0002922733D01*
X0001610284Y0002928703D01*
X0001574525Y0002967295D01*
X0001583140Y0002968579D01*
X0001605794Y0002975175D01*
X0001627143Y0002987525D01*
X0001646066Y0003004718D01*
X0001661440Y0003025845D01*
X0001666993Y0003036592D01*
X0001673736Y0003058255D01*
X0001676168Y0003082714D01*
X0001674209Y0003107613D01*
X0001669993Y0003124616D01*
X0001657687Y0003152523D01*
X0001641168Y0003176114D01*
X0001621077Y0003194988D01*
X0001598058Y0003208745D01*
X0001572752Y0003216985D01*
X0001545802Y0003219307D01*
X0001522663Y0003216457D01*
X0001504125Y0003212411D01*
X0001503730Y0003237141D01*
X0001501232Y0003260218D01*
X0001494043Y0003280151D01*
X0001481414Y0003298647D01*
X0001472688Y0003308030D01*
X0001453162Y0003323250D01*
X0001431885Y0003332264D01*
X0001409419Y0003335117D01*
X0001386329Y0003331855D01*
X0001363178Y0003322523D01*
X0001340531Y0003307165D01*
X0001328792Y0003296466D01*
X0001311080Y0003275232D01*
X0001299547Y0003252824D01*
X0001293708Y0003228296D01*
X0001293640Y0003227729D01*
X0001293631Y0003206076D01*
X0001299051Y0003184990D01*
X0001310246Y0003163438D01*
X0001319677Y0003150115D01*
X0001324878Y0003144061D01*
X0001334317Y0003133815D01*
X0001347503Y0003119883D01*
X0001363945Y0003102774D01*
X0001383150Y0003082993D01*
X0001404629Y0003061049D01*
X0001427889Y0003037447D01*
X0001452440Y0003012696D01*
X0001466733Y0002998357D01*
X0001497529Y0002967462D01*
X0001523955Y0002940807D01*
X0001546407Y0002917970D01*
X0001565277Y0002898528D01*
X0001580960Y0002882058D01*
X0001593850Y0002868135D01*
X0001604341Y0002856338D01*
X0001612827Y0002846242D01*
X0001619701Y0002837424D01*
X0001625358Y0002829461D01*
X0001628656Y0002824405D01*
X0001630929Y0002821397D01*
X0001565059Y0002755527D01*
X0001520885Y0002755529D01*
X0001183839Y0002755541D01*
X0001183839Y0003427276D01*
X0001520897Y0003427276D01*
G37*
X0001520897Y0003427276D02*
X0001857956Y0003427276D01*
X0001857943Y0003091396D01*
X0001857931Y0002755517D01*
X0001565059Y0002755527D01*
X0001630929Y0002821397D01*
X0001633483Y0002820798D01*
X0001637493Y0002823235D01*
X0001644134Y0002829335D01*
X0001651407Y0002836549D01*
X0001670056Y0002855199D01*
X0001658050Y0002872655D01*
X0001651450Y0002881374D01*
X0001641422Y0002893543D01*
X0001629138Y0002907788D01*
X0001615769Y0002922733D01*
X0001610284Y0002928703D01*
X0001574525Y0002967295D01*
X0001583140Y0002968579D01*
X0001605794Y0002975175D01*
X0001627143Y0002987525D01*
X0001646066Y0003004718D01*
X0001661440Y0003025845D01*
X0001666993Y0003036592D01*
X0001673736Y0003058255D01*
X0001676168Y0003082714D01*
X0001674209Y0003107613D01*
X0001669993Y0003124616D01*
X0001657687Y0003152523D01*
X0001641168Y0003176114D01*
X0001621077Y0003194988D01*
X0001598058Y0003208745D01*
X0001572752Y0003216985D01*
X0001545802Y0003219307D01*
X0001522663Y0003216457D01*
X0001504125Y0003212411D01*
X0001503730Y0003237141D01*
X0001501232Y0003260218D01*
X0001494043Y0003280151D01*
X0001481414Y0003298647D01*
X0001472688Y0003308030D01*
X0001453162Y0003323250D01*
X0001431885Y0003332264D01*
X0001409419Y0003335117D01*
X0001386329Y0003331855D01*
X0001363178Y0003322523D01*
X0001340531Y0003307165D01*
X0001328792Y0003296466D01*
X0001311080Y0003275232D01*
X0001299547Y0003252824D01*
X0001293708Y0003228296D01*
X0001293640Y0003227729D01*
X0001293631Y0003206076D01*
X0001299051Y0003184990D01*
X0001310246Y0003163438D01*
X0001319677Y0003150115D01*
X0001324878Y0003144061D01*
X0001334317Y0003133815D01*
X0001347503Y0003119883D01*
X0001363945Y0003102774D01*
X0001383150Y0003082993D01*
X0001404629Y0003061049D01*
X0001427889Y0003037447D01*
X0001452440Y0003012696D01*
X0001466733Y0002998357D01*
X0001497529Y0002967462D01*
X0001523955Y0002940807D01*
X0001546407Y0002917970D01*
X0001565277Y0002898528D01*
X0001580960Y0002882058D01*
X0001593850Y0002868135D01*
X0001604341Y0002856338D01*
X0001612827Y0002846242D01*
X0001619701Y0002837424D01*
X0001625358Y0002829461D01*
X0001628656Y0002824405D01*
X0001630929Y0002821397D01*
X0001565059Y0002755527D01*
X0001520885Y0002755529D01*
X0001183839Y0002755541D01*
X0001183839Y0003427276D01*
X0001520897Y0003427276D01*
G36*
X0001183831Y0002755525D02*
G01*
X0001183831Y0002081408D01*
X0000847951Y0002081420D01*
X0000512071Y0002081433D01*
X0000512077Y0002236111D01*
X0000649224Y0002373258D01*
X0000656087Y0002367115D01*
X0000660507Y0002365540D01*
X0000663844Y0002367531D01*
X0000665757Y0002371554D01*
X0000663821Y0002377330D01*
X0000658820Y0002384789D01*
X0000647843Y0002403290D01*
X0000643145Y0002420428D01*
X0000644726Y0002435950D01*
X0000652582Y0002449602D01*
X0000659399Y0002456081D01*
X0000670306Y0002462763D01*
X0000682208Y0002465656D01*
X0000695981Y0002464625D01*
X0000712497Y0002459538D01*
X0000732632Y0002450261D01*
X0000746537Y0002442782D01*
X0000760548Y0002434513D01*
X0000778737Y0002423110D01*
X0000799901Y0002409373D01*
X0000822835Y0002394101D01*
X0000846336Y0002378095D01*
X0000869198Y0002362152D01*
X0000885137Y0002350765D01*
X0000907022Y0002334938D01*
X0000919085Y0002304574D01*
X0000931926Y0002275037D01*
X0000945365Y0002250331D01*
X0000960580Y0002228648D01*
X0000978752Y0002208178D01*
X0000987511Y0002199544D01*
X0000998777Y0002192275D01*
X0001010323Y0002190422D01*
X0001020739Y0002193412D01*
X0001028614Y0002200670D01*
X0001032536Y0002211623D01*
X0001032612Y0002217901D01*
X0001031516Y0002226250D01*
X0001029390Y0002234014D01*
X0001025682Y0002241949D01*
X0001019841Y0002250811D01*
X0001011314Y0002261354D01*
X0000999549Y0002274336D01*
X0000983995Y0002290512D01*
X0000967008Y0002307713D01*
X0000914131Y0002360903D01*
X0000871341Y0002483105D01*
X0000861291Y0002511777D01*
X0000851457Y0002539783D01*
X0000842167Y0002566187D01*
X0000833751Y0002590056D01*
X0000826538Y0002610458D01*
X0000820858Y0002626457D01*
X0000817038Y0002637122D01*
X0000816965Y0002637325D01*
X0000805378Y0002669343D01*
X0000752392Y0002616357D01*
X0000809858Y0002512366D01*
X0000823346Y0002487903D01*
X0000835940Y0002464956D01*
X0000847242Y0002444260D01*
X0000856851Y0002426549D01*
X0000864371Y0002412559D01*
X0000869401Y0002403024D01*
X0000871441Y0002398924D01*
X0000872362Y0002396014D01*
X0000871442Y0002395041D01*
X0000868069Y0002396372D01*
X0000861628Y0002400375D01*
X0000851507Y0002407420D01*
X0000837093Y0002417873D01*
X0000824784Y0002426926D01*
X0000796750Y0002447128D01*
X0000770242Y0002465301D01*
X0000745979Y0002480998D01*
X0000724677Y0002493772D01*
X0000707053Y0002503174D01*
X0000693824Y0002508757D01*
X0000693730Y0002508787D01*
X0000678683Y0002511854D01*
X0000662716Y0002512217D01*
X0000648376Y0002509990D01*
X0000639746Y0002506393D01*
X0000632698Y0002501996D01*
X0000628446Y0002499504D01*
X0000623185Y0002494320D01*
X0000617166Y0002485116D01*
X0000611671Y0002474221D01*
X0000607983Y0002463961D01*
X0000607422Y0002461363D01*
X0000607754Y0002446596D01*
X0000612658Y0002429108D01*
X0000621469Y0002410301D01*
X0000633520Y0002391580D01*
X0000648147Y0002374346D01*
X0000649224Y0002373258D01*
X0000512077Y0002236111D01*
X0000512084Y0002418479D01*
X0000512096Y0002755525D01*
X0001183831Y0002755525D01*
G37*
X0001183831Y0002755525D02*
X0001183831Y0002081408D01*
X0000847951Y0002081420D01*
X0000512071Y0002081433D01*
X0000512077Y0002236111D01*
X0000649224Y0002373258D01*
X0000656087Y0002367115D01*
X0000660507Y0002365540D01*
X0000663844Y0002367531D01*
X0000665757Y0002371554D01*
X0000663821Y0002377330D01*
X0000658820Y0002384789D01*
X0000647843Y0002403290D01*
X0000643145Y0002420428D01*
X0000644726Y0002435950D01*
X0000652582Y0002449602D01*
X0000659399Y0002456081D01*
X0000670306Y0002462763D01*
X0000682208Y0002465656D01*
X0000695981Y0002464625D01*
X0000712497Y0002459538D01*
X0000732632Y0002450261D01*
X0000746537Y0002442782D01*
X0000760548Y0002434513D01*
X0000778737Y0002423110D01*
X0000799901Y0002409373D01*
X0000822835Y0002394101D01*
X0000846336Y0002378095D01*
X0000869198Y0002362152D01*
X0000885137Y0002350765D01*
X0000907022Y0002334938D01*
X0000919085Y0002304574D01*
X0000931926Y0002275037D01*
X0000945365Y0002250331D01*
X0000960580Y0002228648D01*
X0000978752Y0002208178D01*
X0000987511Y0002199544D01*
X0000998777Y0002192275D01*
X0001010323Y0002190422D01*
X0001020739Y0002193412D01*
X0001028614Y0002200670D01*
X0001032536Y0002211623D01*
X0001032612Y0002217901D01*
X0001031516Y0002226250D01*
X0001029390Y0002234014D01*
X0001025682Y0002241949D01*
X0001019841Y0002250811D01*
X0001011314Y0002261354D01*
X0000999549Y0002274336D01*
X0000983995Y0002290512D01*
X0000967008Y0002307713D01*
X0000914131Y0002360903D01*
X0000871341Y0002483105D01*
X0000861291Y0002511777D01*
X0000851457Y0002539783D01*
X0000842167Y0002566187D01*
X0000833751Y0002590056D01*
X0000826538Y0002610458D01*
X0000820858Y0002626457D01*
X0000817038Y0002637122D01*
X0000816965Y0002637325D01*
X0000805378Y0002669343D01*
X0000752392Y0002616357D01*
X0000809858Y0002512366D01*
X0000823346Y0002487903D01*
X0000835940Y0002464956D01*
X0000847242Y0002444260D01*
X0000856851Y0002426549D01*
X0000864371Y0002412559D01*
X0000869401Y0002403024D01*
X0000871441Y0002398924D01*
X0000872362Y0002396014D01*
X0000871442Y0002395041D01*
X0000868069Y0002396372D01*
X0000861628Y0002400375D01*
X0000851507Y0002407420D01*
X0000837093Y0002417873D01*
X0000824784Y0002426926D01*
X0000796750Y0002447128D01*
X0000770242Y0002465301D01*
X0000745979Y0002480998D01*
X0000724677Y0002493772D01*
X0000707053Y0002503174D01*
X0000693824Y0002508757D01*
X0000693730Y0002508787D01*
X0000678683Y0002511854D01*
X0000662716Y0002512217D01*
X0000648376Y0002509990D01*
X0000639746Y0002506393D01*
X0000632698Y0002501996D01*
X0000628446Y0002499504D01*
X0000623185Y0002494320D01*
X0000617166Y0002485116D01*
X0000611671Y0002474221D01*
X0000607983Y0002463961D01*
X0000607422Y0002461363D01*
X0000607754Y0002446596D01*
X0000612658Y0002429108D01*
X0000621469Y0002410301D01*
X0000633520Y0002391580D01*
X0000648147Y0002374346D01*
X0000649224Y0002373258D01*
X0000512077Y0002236111D01*
X0000512084Y0002418479D01*
X0000512096Y0002755525D01*
X0001183831Y0002755525D01*
D11*
G36*
X0000351672Y0003631637D02*
G01*
X0000372099Y0003640098D01*
X0000393784Y0003644412D01*
X0000415894Y0003644412D01*
X0000437579Y0003640098D01*
X0000458007Y0003631637D01*
X0000476390Y0003619354D01*
X0000492025Y0003603719D01*
X0000504308Y0003585335D01*
X0000512770Y0003564908D01*
X0000517083Y0003543223D01*
X0000517083Y0003521113D01*
X0000512770Y0003499427D01*
X0000504308Y0003479000D01*
X0000498167Y0003469808D01*
X0000492025Y0003460616D01*
X0000476390Y0003444982D01*
X0000467199Y0003438840D01*
X0000458007Y0003432698D01*
X0000437579Y0003424237D01*
X0000415894Y0003419924D01*
X0000393784Y0003419924D01*
X0000372099Y0003424237D01*
X0000351672Y0003432698D01*
X0000333288Y0003444982D01*
X0000317653Y0003460616D01*
X0000305370Y0003479000D01*
X0000296908Y0003499427D01*
X0000292595Y0003521113D01*
X0000292595Y0003543223D01*
X0000296908Y0003564908D01*
X0000305370Y0003585335D01*
X0000317653Y0003603719D01*
X0000333288Y0003619354D01*
X0000351672Y0003631637D01*
G37*
G04 next file*
G04 #@! TF.GenerationSoftware,KiCad,Pcbnew,(5.1.5)-3*
G04 #@! TF.CreationDate,2019-12-21T12:13:31-08:00*
G04 #@! TF.ProjectId,mole-diamond-keychain,6d6f6c65-2d64-4696-916d-6f6e642d6b65,A*
G04 #@! TF.SameCoordinates,Original*
G04 #@! TF.FileFunction,Soldermask,Top*
G04 #@! TF.FilePolarity,Negative*
G04 Gerber Fmt 4.6, Leading zero omitted, Abs format (unit mm)*
G04 Created by KiCad (PCBNEW (5.1.5)-3) date 2019-12-21 12:13:31*
G04 APERTURE LIST*
G04 APERTURE END LIST*
D22*
G36*
X0000648109Y0001356746D02*
G01*
X0000641402Y0001373098D01*
X0000641038Y0001391365D01*
X0000641706Y0001395195D01*
X0000643402Y0001402323D01*
X0000645792Y0001408303D01*
X0000649799Y0001414434D01*
X0000656342Y0001422018D01*
X0000666343Y0001432354D01*
X0000672189Y0001438221D01*
X0000684802Y0001450589D01*
X0000694338Y0001459150D01*
X0000702247Y0001464990D01*
X0000709975Y0001469199D01*
X0000717691Y0001472382D01*
X0000728328Y0001475994D01*
X0000734636Y0001476766D01*
X0000738294Y0001474746D01*
X0000739501Y0001472979D01*
X0000743614Y0001466730D01*
X0000750071Y0001457864D01*
X0000753890Y0001452885D01*
X0000763632Y0001443077D01*
X0000773435Y0001437504D01*
X0000782180Y0001436129D01*
X0000788751Y0001438917D01*
X0000792028Y0001445833D01*
X0000791574Y0001454089D01*
X0000789186Y0001460777D01*
X0000784165Y0001467556D01*
X0000775246Y0001476018D01*
X0000771791Y0001478979D01*
X0000754071Y0001493957D01*
X0000755576Y0001509575D01*
X0000760216Y0001530808D01*
X0000769603Y0001553590D01*
X0000782679Y0001576192D01*
X0000798388Y0001596881D01*
X0000815672Y0001613926D01*
X0000822462Y0001619108D01*
X0000834564Y0001626727D01*
X0000847216Y0001633407D01*
X0000854646Y0001636560D01*
X0000875825Y0001640834D01*
X0000896170Y0001638854D01*
X0000914701Y0001631032D01*
X0000930436Y0001617779D01*
X0000942234Y0001599843D01*
X0000945678Y0001588884D01*
X0000947582Y0001575370D01*
X0000947724Y0001568578D01*
X0000947121Y0001550076D01*
X0000838615Y0001442970D01*
X0000812937Y0001417645D01*
X0000791532Y0001396602D01*
X0000773946Y0001379425D01*
X0000759722Y0001365696D01*
X0000748404Y0001354999D01*
X0000739538Y0001346917D01*
X0000732668Y0001341033D01*
X0000727339Y0001336930D01*
X0000723095Y0001334191D01*
X0000719480Y0001332398D01*
X0000716680Y0001331348D01*
X0000697486Y0001328119D01*
X0000679180Y0001331440D01*
X0000662327Y0001341199D01*
X0000661235Y0001342105D01*
X0000648109Y0001356746D01*
G37*
X0000648109Y0001356746D02*
X0000641402Y0001373098D01*
X0000641038Y0001391365D01*
X0000641706Y0001395195D01*
X0000643402Y0001402323D01*
X0000645792Y0001408303D01*
X0000649799Y0001414434D01*
X0000656342Y0001422018D01*
X0000666343Y0001432354D01*
X0000672189Y0001438221D01*
X0000684802Y0001450589D01*
X0000694338Y0001459150D01*
X0000702247Y0001464990D01*
X0000709975Y0001469199D01*
X0000717691Y0001472382D01*
X0000728328Y0001475994D01*
X0000734636Y0001476766D01*
X0000738294Y0001474746D01*
X0000739501Y0001472979D01*
X0000743614Y0001466730D01*
X0000750071Y0001457864D01*
X0000753890Y0001452885D01*
X0000763632Y0001443077D01*
X0000773435Y0001437504D01*
X0000782180Y0001436129D01*
X0000788751Y0001438917D01*
X0000792028Y0001445833D01*
X0000791574Y0001454089D01*
X0000789186Y0001460777D01*
X0000784165Y0001467556D01*
X0000775246Y0001476018D01*
X0000771791Y0001478979D01*
X0000754071Y0001493957D01*
X0000755576Y0001509575D01*
X0000760216Y0001530808D01*
X0000769603Y0001553590D01*
X0000782679Y0001576192D01*
X0000798388Y0001596881D01*
X0000815672Y0001613926D01*
X0000822462Y0001619108D01*
X0000834564Y0001626727D01*
X0000847216Y0001633407D01*
X0000854646Y0001636560D01*
X0000875825Y0001640834D01*
X0000896170Y0001638854D01*
X0000914701Y0001631032D01*
X0000930436Y0001617779D01*
X0000942234Y0001599843D01*
X0000945678Y0001588884D01*
X0000947582Y0001575370D01*
X0000947724Y0001568578D01*
X0000947121Y0001550076D01*
X0000838615Y0001442970D01*
X0000812937Y0001417645D01*
X0000791532Y0001396602D01*
X0000773946Y0001379425D01*
X0000759722Y0001365696D01*
X0000748404Y0001354999D01*
X0000739538Y0001346917D01*
X0000732668Y0001341033D01*
X0000727339Y0001336930D01*
X0000723095Y0001334191D01*
X0000719480Y0001332398D01*
X0000716680Y0001331348D01*
X0000697486Y0001328119D01*
X0000679180Y0001331440D01*
X0000662327Y0001341199D01*
X0000661235Y0001342105D01*
X0000648109Y0001356746D01*
G36*
X0000509731Y0001520897D02*
G01*
X0000509731Y0001857956D01*
X0000845610Y0001857943D01*
X0001181490Y0001857931D01*
X0001181480Y0001565059D01*
X0001115610Y0001630929D01*
X0001116209Y0001633483D01*
X0001113772Y0001637493D01*
X0001107672Y0001644134D01*
X0001100457Y0001651407D01*
X0001081808Y0001670056D01*
X0001064352Y0001658050D01*
X0001055633Y0001651450D01*
X0001043464Y0001641422D01*
X0001029219Y0001629138D01*
X0001014274Y0001615769D01*
X0001008304Y0001610284D01*
X0000969712Y0001574525D01*
X0000968428Y0001583140D01*
X0000961832Y0001605794D01*
X0000949482Y0001627143D01*
X0000932289Y0001646066D01*
X0000911162Y0001661440D01*
X0000900414Y0001666993D01*
X0000878752Y0001673736D01*
X0000854293Y0001676168D01*
X0000829394Y0001674209D01*
X0000812391Y0001669993D01*
X0000784483Y0001657687D01*
X0000760893Y0001641168D01*
X0000742019Y0001621077D01*
X0000728262Y0001598058D01*
X0000720022Y0001572752D01*
X0000717700Y0001545802D01*
X0000720550Y0001522663D01*
X0000724596Y0001504125D01*
X0000699866Y0001503730D01*
X0000676789Y0001501232D01*
X0000656856Y0001494043D01*
X0000638359Y0001481414D01*
X0000628977Y0001472688D01*
X0000613757Y0001453162D01*
X0000604743Y0001431885D01*
X0000601890Y0001409419D01*
X0000605152Y0001386329D01*
X0000614484Y0001363178D01*
X0000629841Y0001340531D01*
X0000640541Y0001328792D01*
X0000661775Y0001311080D01*
X0000684182Y0001299547D01*
X0000708710Y0001293708D01*
X0000709278Y0001293640D01*
X0000730931Y0001293631D01*
X0000752017Y0001299051D01*
X0000773569Y0001310246D01*
X0000786891Y0001319677D01*
X0000792946Y0001324878D01*
X0000803192Y0001334317D01*
X0000817124Y0001347503D01*
X0000834233Y0001363945D01*
X0000854013Y0001383150D01*
X0000875958Y0001404629D01*
X0000899560Y0001427889D01*
X0000924311Y0001452440D01*
X0000938650Y0001466733D01*
X0000969545Y0001497529D01*
X0000996200Y0001523955D01*
X0001019036Y0001546407D01*
X0001038478Y0001565277D01*
X0001054949Y0001580960D01*
X0001068872Y0001593850D01*
X0001080669Y0001604341D01*
X0001090765Y0001612827D01*
X0001099583Y0001619701D01*
X0001107546Y0001625358D01*
X0001112602Y0001628656D01*
X0001115610Y0001630929D01*
X0001181480Y0001565059D01*
X0001181478Y0001520885D01*
X0001181466Y0001183839D01*
X0000509731Y0001183839D01*
X0000509731Y0001520897D01*
G37*
X0000509731Y0001520897D02*
X0000509731Y0001857956D01*
X0000845610Y0001857943D01*
X0001181490Y0001857931D01*
X0001181480Y0001565059D01*
X0001115610Y0001630929D01*
X0001116209Y0001633483D01*
X0001113772Y0001637493D01*
X0001107672Y0001644134D01*
X0001100457Y0001651407D01*
X0001081808Y0001670056D01*
X0001064352Y0001658050D01*
X0001055633Y0001651450D01*
X0001043464Y0001641422D01*
X0001029219Y0001629138D01*
X0001014274Y0001615769D01*
X0001008304Y0001610284D01*
X0000969712Y0001574525D01*
X0000968428Y0001583140D01*
X0000961832Y0001605794D01*
X0000949482Y0001627143D01*
X0000932289Y0001646066D01*
X0000911162Y0001661440D01*
X0000900414Y0001666993D01*
X0000878752Y0001673736D01*
X0000854293Y0001676168D01*
X0000829394Y0001674209D01*
X0000812391Y0001669993D01*
X0000784483Y0001657687D01*
X0000760893Y0001641168D01*
X0000742019Y0001621077D01*
X0000728262Y0001598058D01*
X0000720022Y0001572752D01*
X0000717700Y0001545802D01*
X0000720550Y0001522663D01*
X0000724596Y0001504125D01*
X0000699866Y0001503730D01*
X0000676789Y0001501232D01*
X0000656856Y0001494043D01*
X0000638359Y0001481414D01*
X0000628977Y0001472688D01*
X0000613757Y0001453162D01*
X0000604743Y0001431885D01*
X0000601890Y0001409419D01*
X0000605152Y0001386329D01*
X0000614484Y0001363178D01*
X0000629841Y0001340531D01*
X0000640541Y0001328792D01*
X0000661775Y0001311080D01*
X0000684182Y0001299547D01*
X0000708710Y0001293708D01*
X0000709278Y0001293640D01*
X0000730931Y0001293631D01*
X0000752017Y0001299051D01*
X0000773569Y0001310246D01*
X0000786891Y0001319677D01*
X0000792946Y0001324878D01*
X0000803192Y0001334317D01*
X0000817124Y0001347503D01*
X0000834233Y0001363945D01*
X0000854013Y0001383150D01*
X0000875958Y0001404629D01*
X0000899560Y0001427889D01*
X0000924311Y0001452440D01*
X0000938650Y0001466733D01*
X0000969545Y0001497529D01*
X0000996200Y0001523955D01*
X0001019036Y0001546407D01*
X0001038478Y0001565277D01*
X0001054949Y0001580960D01*
X0001068872Y0001593850D01*
X0001080669Y0001604341D01*
X0001090765Y0001612827D01*
X0001099583Y0001619701D01*
X0001107546Y0001625358D01*
X0001112602Y0001628656D01*
X0001115610Y0001630929D01*
X0001181480Y0001565059D01*
X0001181478Y0001520885D01*
X0001181466Y0001183839D01*
X0000509731Y0001183839D01*
X0000509731Y0001520897D01*
G36*
X0001181482Y0001183831D02*
G01*
X0001855599Y0001183831D01*
X0001855586Y0000847951D01*
X0001855574Y0000512071D01*
X0001700895Y0000512077D01*
X0001563749Y0000649224D01*
X0001569892Y0000656087D01*
X0001571467Y0000660507D01*
X0001569476Y0000663844D01*
X0001565453Y0000665757D01*
X0001559677Y0000663821D01*
X0001552218Y0000658820D01*
X0001533717Y0000647843D01*
X0001516579Y0000643145D01*
X0001501057Y0000644726D01*
X0001487405Y0000652582D01*
X0001480926Y0000659399D01*
X0001474244Y0000670306D01*
X0001471351Y0000682208D01*
X0001472382Y0000695981D01*
X0001477469Y0000712497D01*
X0001486746Y0000732632D01*
X0001494225Y0000746537D01*
X0001502494Y0000760548D01*
X0001513897Y0000778737D01*
X0001527634Y0000799901D01*
X0001542906Y0000822835D01*
X0001558912Y0000846336D01*
X0001574855Y0000869198D01*
X0001586242Y0000885137D01*
X0001602069Y0000907022D01*
X0001632433Y0000919085D01*
X0001661970Y0000931926D01*
X0001686676Y0000945365D01*
X0001708359Y0000960580D01*
X0001728828Y0000978752D01*
X0001737463Y0000987511D01*
X0001744732Y0000998777D01*
X0001746585Y0001010323D01*
X0001743595Y0001020739D01*
X0001736336Y0001028614D01*
X0001725384Y0001032536D01*
X0001719106Y0001032612D01*
X0001710757Y0001031516D01*
X0001702993Y0001029390D01*
X0001695058Y0001025682D01*
X0001686196Y0001019841D01*
X0001675652Y0001011314D01*
X0001662670Y0000999549D01*
X0001646495Y0000983995D01*
X0001629293Y0000967008D01*
X0001576104Y0000914131D01*
X0001453902Y0000871341D01*
X0001425230Y0000861291D01*
X0001397224Y0000851457D01*
X0001370820Y0000842167D01*
X0001346951Y0000833751D01*
X0001326549Y0000826538D01*
X0001310549Y0000820858D01*
X0001299885Y0000817038D01*
X0001299682Y0000816965D01*
X0001267664Y0000805378D01*
X0001320650Y0000752392D01*
X0001424640Y0000809858D01*
X0001449104Y0000823346D01*
X0001472051Y0000835940D01*
X0001492747Y0000847242D01*
X0001510458Y0000856851D01*
X0001524448Y0000864371D01*
X0001533983Y0000869401D01*
X0001538082Y0000871441D01*
X0001540993Y0000872362D01*
X0001541966Y0000871442D01*
X0001540635Y0000868069D01*
X0001536632Y0000861628D01*
X0001529587Y0000851507D01*
X0001519133Y0000837093D01*
X0001510081Y0000824784D01*
X0001489879Y0000796750D01*
X0001471706Y0000770242D01*
X0001456008Y0000745979D01*
X0001443235Y0000724677D01*
X0001433833Y0000707053D01*
X0001428250Y0000693824D01*
X0001428220Y0000693730D01*
X0001425153Y0000678683D01*
X0001424789Y0000662716D01*
X0001427016Y0000648376D01*
X0001430614Y0000639746D01*
X0001435010Y0000632698D01*
X0001437502Y0000628446D01*
X0001442687Y0000623185D01*
X0001451891Y0000617166D01*
X0001462786Y0000611671D01*
X0001473046Y0000607983D01*
X0001475644Y0000607422D01*
X0001490411Y0000607754D01*
X0001507899Y0000612658D01*
X0001526705Y0000621469D01*
X0001545427Y0000633520D01*
X0001562661Y0000648147D01*
X0001563749Y0000649224D01*
X0001700895Y0000512077D01*
X0001518528Y0000512084D01*
X0001181482Y0000512096D01*
X0001181482Y0001183831D01*
G37*
X0001181482Y0001183831D02*
X0001855599Y0001183831D01*
X0001855586Y0000847951D01*
X0001855574Y0000512071D01*
X0001700895Y0000512077D01*
X0001563749Y0000649224D01*
X0001569892Y0000656087D01*
X0001571467Y0000660507D01*
X0001569476Y0000663844D01*
X0001565453Y0000665757D01*
X0001559677Y0000663821D01*
X0001552218Y0000658820D01*
X0001533717Y0000647843D01*
X0001516579Y0000643145D01*
X0001501057Y0000644726D01*
X0001487405Y0000652582D01*
X0001480926Y0000659399D01*
X0001474244Y0000670306D01*
X0001471351Y0000682208D01*
X0001472382Y0000695981D01*
X0001477469Y0000712497D01*
X0001486746Y0000732632D01*
X0001494225Y0000746537D01*
X0001502494Y0000760548D01*
X0001513897Y0000778737D01*
X0001527634Y0000799901D01*
X0001542906Y0000822835D01*
X0001558912Y0000846336D01*
X0001574855Y0000869198D01*
X0001586242Y0000885137D01*
X0001602069Y0000907022D01*
X0001632433Y0000919085D01*
X0001661970Y0000931926D01*
X0001686676Y0000945365D01*
X0001708359Y0000960580D01*
X0001728828Y0000978752D01*
X0001737463Y0000987511D01*
X0001744732Y0000998777D01*
X0001746585Y0001010323D01*
X0001743595Y0001020739D01*
X0001736336Y0001028614D01*
X0001725384Y0001032536D01*
X0001719106Y0001032612D01*
X0001710757Y0001031516D01*
X0001702993Y0001029390D01*
X0001695058Y0001025682D01*
X0001686196Y0001019841D01*
X0001675652Y0001011314D01*
X0001662670Y0000999549D01*
X0001646495Y0000983995D01*
X0001629293Y0000967008D01*
X0001576104Y0000914131D01*
X0001453902Y0000871341D01*
X0001425230Y0000861291D01*
X0001397224Y0000851457D01*
X0001370820Y0000842167D01*
X0001346951Y0000833751D01*
X0001326549Y0000826538D01*
X0001310549Y0000820858D01*
X0001299885Y0000817038D01*
X0001299682Y0000816965D01*
X0001267664Y0000805378D01*
X0001320650Y0000752392D01*
X0001424640Y0000809858D01*
X0001449104Y0000823346D01*
X0001472051Y0000835940D01*
X0001492747Y0000847242D01*
X0001510458Y0000856851D01*
X0001524448Y0000864371D01*
X0001533983Y0000869401D01*
X0001538082Y0000871441D01*
X0001540993Y0000872362D01*
X0001541966Y0000871442D01*
X0001540635Y0000868069D01*
X0001536632Y0000861628D01*
X0001529587Y0000851507D01*
X0001519133Y0000837093D01*
X0001510081Y0000824784D01*
X0001489879Y0000796750D01*
X0001471706Y0000770242D01*
X0001456008Y0000745979D01*
X0001443235Y0000724677D01*
X0001433833Y0000707053D01*
X0001428250Y0000693824D01*
X0001428220Y0000693730D01*
X0001425153Y0000678683D01*
X0001424789Y0000662716D01*
X0001427016Y0000648376D01*
X0001430614Y0000639746D01*
X0001435010Y0000632698D01*
X0001437502Y0000628446D01*
X0001442687Y0000623185D01*
X0001451891Y0000617166D01*
X0001462786Y0000611671D01*
X0001473046Y0000607983D01*
X0001475644Y0000607422D01*
X0001490411Y0000607754D01*
X0001507899Y0000612658D01*
X0001526705Y0000621469D01*
X0001545427Y0000633520D01*
X0001562661Y0000648147D01*
X0001563749Y0000649224D01*
X0001700895Y0000512077D01*
X0001518528Y0000512084D01*
X0001181482Y0000512096D01*
X0001181482Y0001183831D01*
D23*
G36*
X0000305370Y0000351672D02*
G01*
X0000296908Y0000372099D01*
X0000292595Y0000393784D01*
X0000292595Y0000415894D01*
X0000296908Y0000437579D01*
X0000305370Y0000458007D01*
X0000317653Y0000476390D01*
X0000333288Y0000492025D01*
X0000351672Y0000504308D01*
X0000372099Y0000512770D01*
X0000393784Y0000517083D01*
X0000415894Y0000517083D01*
X0000437579Y0000512770D01*
X0000458007Y0000504308D01*
X0000467199Y0000498167D01*
X0000476390Y0000492025D01*
X0000492025Y0000476390D01*
X0000498167Y0000467199D01*
X0000504308Y0000458007D01*
X0000512770Y0000437579D01*
X0000517083Y0000415894D01*
X0000517083Y0000393784D01*
X0000512770Y0000372099D01*
X0000504308Y0000351672D01*
X0000492025Y0000333288D01*
X0000476390Y0000317653D01*
X0000458007Y0000305370D01*
X0000437579Y0000296908D01*
X0000415894Y0000292595D01*
X0000393784Y0000292595D01*
X0000372099Y0000296908D01*
X0000351672Y0000305370D01*
X0000333288Y0000317653D01*
X0000317653Y0000333288D01*
X0000305370Y0000351672D01*
G37*
G04 next file*
G04 #@! TF.GenerationSoftware,KiCad,Pcbnew,(5.1.5)-3*
G04 #@! TF.CreationDate,2019-12-21T12:13:31-08:00*
G04 #@! TF.ProjectId,mole-diamond-keychain,6d6f6c65-2d64-4696-916d-6f6e642d6b65,A*
G04 #@! TF.SameCoordinates,Original*
G04 #@! TF.FileFunction,Soldermask,Top*
G04 #@! TF.FilePolarity,Negative*
G04 Gerber Fmt 4.6, Leading zero omitted, Abs format (unit mm)*
G04 Created by KiCad (PCBNEW (5.1.5)-3) date 2019-12-21 12:13:31*
G04 APERTURE LIST*
G04 APERTURE END LIST*
D24*
G36*
X0002580261Y0000648109D02*
G01*
X0002563909Y0000641402D01*
X0002545642Y0000641038D01*
X0002541812Y0000641706D01*
X0002534684Y0000643402D01*
X0002528704Y0000645792D01*
X0002522572Y0000649799D01*
X0002514989Y0000656342D01*
X0002504653Y0000666343D01*
X0002498786Y0000672189D01*
X0002486417Y0000684802D01*
X0002477857Y0000694338D01*
X0002472016Y0000702247D01*
X0002467808Y0000709975D01*
X0002464625Y0000717691D01*
X0002461013Y0000728328D01*
X0002460240Y0000734636D01*
X0002462261Y0000738294D01*
X0002464028Y0000739501D01*
X0002470276Y0000743614D01*
X0002479143Y0000750071D01*
X0002484122Y0000753890D01*
X0002493930Y0000763632D01*
X0002499503Y0000773435D01*
X0002500878Y0000782180D01*
X0002498090Y0000788751D01*
X0002491174Y0000792028D01*
X0002482918Y0000791574D01*
X0002476230Y0000789186D01*
X0002469451Y0000784165D01*
X0002460989Y0000775246D01*
X0002458027Y0000771791D01*
X0002443050Y0000754071D01*
X0002427432Y0000755576D01*
X0002406199Y0000760216D01*
X0002383416Y0000769603D01*
X0002360815Y0000782679D01*
X0002340126Y0000798388D01*
X0002323081Y0000815672D01*
X0002317899Y0000822462D01*
X0002310280Y0000834564D01*
X0002303600Y0000847216D01*
X0002300447Y0000854646D01*
X0002296173Y0000875825D01*
X0002298153Y0000896170D01*
X0002305975Y0000914701D01*
X0002319228Y0000930436D01*
X0002337164Y0000942234D01*
X0002348123Y0000945678D01*
X0002361637Y0000947582D01*
X0002368429Y0000947724D01*
X0002386931Y0000947121D01*
X0002494037Y0000838615D01*
X0002519362Y0000812937D01*
X0002540405Y0000791532D01*
X0002557582Y0000773946D01*
X0002571311Y0000759722D01*
X0002582007Y0000748404D01*
X0002590089Y0000739538D01*
X0002595974Y0000732668D01*
X0002600077Y0000727339D01*
X0002602816Y0000723095D01*
X0002604608Y0000719480D01*
X0002605659Y0000716680D01*
X0002608888Y0000697486D01*
X0002605567Y0000679180D01*
X0002595808Y0000662327D01*
X0002594902Y0000661235D01*
X0002580261Y0000648109D01*
G37*
X0002580261Y0000648109D02*
X0002563909Y0000641402D01*
X0002545642Y0000641038D01*
X0002541812Y0000641706D01*
X0002534684Y0000643402D01*
X0002528704Y0000645792D01*
X0002522572Y0000649799D01*
X0002514989Y0000656342D01*
X0002504653Y0000666343D01*
X0002498786Y0000672189D01*
X0002486417Y0000684802D01*
X0002477857Y0000694338D01*
X0002472016Y0000702247D01*
X0002467808Y0000709975D01*
X0002464625Y0000717691D01*
X0002461013Y0000728328D01*
X0002460240Y0000734636D01*
X0002462261Y0000738294D01*
X0002464028Y0000739501D01*
X0002470276Y0000743614D01*
X0002479143Y0000750071D01*
X0002484122Y0000753890D01*
X0002493930Y0000763632D01*
X0002499503Y0000773435D01*
X0002500878Y0000782180D01*
X0002498090Y0000788751D01*
X0002491174Y0000792028D01*
X0002482918Y0000791574D01*
X0002476230Y0000789186D01*
X0002469451Y0000784165D01*
X0002460989Y0000775246D01*
X0002458027Y0000771791D01*
X0002443050Y0000754071D01*
X0002427432Y0000755576D01*
X0002406199Y0000760216D01*
X0002383416Y0000769603D01*
X0002360815Y0000782679D01*
X0002340126Y0000798388D01*
X0002323081Y0000815672D01*
X0002317899Y0000822462D01*
X0002310280Y0000834564D01*
X0002303600Y0000847216D01*
X0002300447Y0000854646D01*
X0002296173Y0000875825D01*
X0002298153Y0000896170D01*
X0002305975Y0000914701D01*
X0002319228Y0000930436D01*
X0002337164Y0000942234D01*
X0002348123Y0000945678D01*
X0002361637Y0000947582D01*
X0002368429Y0000947724D01*
X0002386931Y0000947121D01*
X0002494037Y0000838615D01*
X0002519362Y0000812937D01*
X0002540405Y0000791532D01*
X0002557582Y0000773946D01*
X0002571311Y0000759722D01*
X0002582007Y0000748404D01*
X0002590089Y0000739538D01*
X0002595974Y0000732668D01*
X0002600077Y0000727339D01*
X0002602816Y0000723095D01*
X0002604608Y0000719480D01*
X0002605659Y0000716680D01*
X0002608888Y0000697486D01*
X0002605567Y0000679180D01*
X0002595808Y0000662327D01*
X0002594902Y0000661235D01*
X0002580261Y0000648109D01*
G36*
X0002416109Y0000509731D02*
G01*
X0002079051Y0000509731D01*
X0002079063Y0000845610D01*
X0002079076Y0001181490D01*
X0002371947Y0001181480D01*
X0002306078Y0001115610D01*
X0002303524Y0001116209D01*
X0002299514Y0001113772D01*
X0002292873Y0001107672D01*
X0002285600Y0001100457D01*
X0002266950Y0001081808D01*
X0002278957Y0001064352D01*
X0002285557Y0001055633D01*
X0002295585Y0001043464D01*
X0002307869Y0001029219D01*
X0002321238Y0001014274D01*
X0002326723Y0001008304D01*
X0002362482Y0000969712D01*
X0002353866Y0000968428D01*
X0002331213Y0000961832D01*
X0002309864Y0000949482D01*
X0002290941Y0000932289D01*
X0002275567Y0000911162D01*
X0002270014Y0000900414D01*
X0002263271Y0000878752D01*
X0002260839Y0000854293D01*
X0002262798Y0000829394D01*
X0002267014Y0000812391D01*
X0002279320Y0000784483D01*
X0002295839Y0000760893D01*
X0002315930Y0000742019D01*
X0002338949Y0000728262D01*
X0002364255Y0000720022D01*
X0002391205Y0000717700D01*
X0002414344Y0000720550D01*
X0002432882Y0000724596D01*
X0002433277Y0000699866D01*
X0002435775Y0000676789D01*
X0002442964Y0000656856D01*
X0002455593Y0000638359D01*
X0002464319Y0000628977D01*
X0002483844Y0000613757D01*
X0002505122Y0000604743D01*
X0002527588Y0000601890D01*
X0002550678Y0000605152D01*
X0002573828Y0000614484D01*
X0002596476Y0000629841D01*
X0002608215Y0000640541D01*
X0002625927Y0000661775D01*
X0002637460Y0000684182D01*
X0002643299Y0000708710D01*
X0002643367Y0000709278D01*
X0002643376Y0000730931D01*
X0002637956Y0000752017D01*
X0002626761Y0000773569D01*
X0002617330Y0000786891D01*
X0002612129Y0000792946D01*
X0002602690Y0000803192D01*
X0002589503Y0000817124D01*
X0002573062Y0000834233D01*
X0002553856Y0000854013D01*
X0002532378Y0000875958D01*
X0002509118Y0000899560D01*
X0002484567Y0000924311D01*
X0002470274Y0000938650D01*
X0002439478Y0000969545D01*
X0002413052Y0000996200D01*
X0002390600Y0001019036D01*
X0002371730Y0001038478D01*
X0002356046Y0001054949D01*
X0002343156Y0001068872D01*
X0002332666Y0001080669D01*
X0002324180Y0001090765D01*
X0002317306Y0001099583D01*
X0002311649Y0001107546D01*
X0002308350Y0001112602D01*
X0002306078Y0001115610D01*
X0002371947Y0001181480D01*
X0002416122Y0001181478D01*
X0002753168Y0001181466D01*
X0002753168Y0000509731D01*
X0002416109Y0000509731D01*
G37*
X0002416109Y0000509731D02*
X0002079051Y0000509731D01*
X0002079063Y0000845610D01*
X0002079076Y0001181490D01*
X0002371947Y0001181480D01*
X0002306078Y0001115610D01*
X0002303524Y0001116209D01*
X0002299514Y0001113772D01*
X0002292873Y0001107672D01*
X0002285600Y0001100457D01*
X0002266950Y0001081808D01*
X0002278957Y0001064352D01*
X0002285557Y0001055633D01*
X0002295585Y0001043464D01*
X0002307869Y0001029219D01*
X0002321238Y0001014274D01*
X0002326723Y0001008304D01*
X0002362482Y0000969712D01*
X0002353866Y0000968428D01*
X0002331213Y0000961832D01*
X0002309864Y0000949482D01*
X0002290941Y0000932289D01*
X0002275567Y0000911162D01*
X0002270014Y0000900414D01*
X0002263271Y0000878752D01*
X0002260839Y0000854293D01*
X0002262798Y0000829394D01*
X0002267014Y0000812391D01*
X0002279320Y0000784483D01*
X0002295839Y0000760893D01*
X0002315930Y0000742019D01*
X0002338949Y0000728262D01*
X0002364255Y0000720022D01*
X0002391205Y0000717700D01*
X0002414344Y0000720550D01*
X0002432882Y0000724596D01*
X0002433277Y0000699866D01*
X0002435775Y0000676789D01*
X0002442964Y0000656856D01*
X0002455593Y0000638359D01*
X0002464319Y0000628977D01*
X0002483844Y0000613757D01*
X0002505122Y0000604743D01*
X0002527588Y0000601890D01*
X0002550678Y0000605152D01*
X0002573828Y0000614484D01*
X0002596476Y0000629841D01*
X0002608215Y0000640541D01*
X0002625927Y0000661775D01*
X0002637460Y0000684182D01*
X0002643299Y0000708710D01*
X0002643367Y0000709278D01*
X0002643376Y0000730931D01*
X0002637956Y0000752017D01*
X0002626761Y0000773569D01*
X0002617330Y0000786891D01*
X0002612129Y0000792946D01*
X0002602690Y0000803192D01*
X0002589503Y0000817124D01*
X0002573062Y0000834233D01*
X0002553856Y0000854013D01*
X0002532378Y0000875958D01*
X0002509118Y0000899560D01*
X0002484567Y0000924311D01*
X0002470274Y0000938650D01*
X0002439478Y0000969545D01*
X0002413052Y0000996200D01*
X0002390600Y0001019036D01*
X0002371730Y0001038478D01*
X0002356046Y0001054949D01*
X0002343156Y0001068872D01*
X0002332666Y0001080669D01*
X0002324180Y0001090765D01*
X0002317306Y0001099583D01*
X0002311649Y0001107546D01*
X0002308350Y0001112602D01*
X0002306078Y0001115610D01*
X0002371947Y0001181480D01*
X0002416122Y0001181478D01*
X0002753168Y0001181466D01*
X0002753168Y0000509731D01*
X0002416109Y0000509731D01*
G36*
X0002753176Y0001181482D02*
G01*
X0002753176Y0001855599D01*
X0003089056Y0001855586D01*
X0003424936Y0001855574D01*
X0003424930Y0001700895D01*
X0003287783Y0001563749D01*
X0003280920Y0001569892D01*
X0003276500Y0001571467D01*
X0003273163Y0001569476D01*
X0003271250Y0001565453D01*
X0003273186Y0001559677D01*
X0003278186Y0001552218D01*
X0003289164Y0001533717D01*
X0003293861Y0001516579D01*
X0003292281Y0001501057D01*
X0003284425Y0001487405D01*
X0003277608Y0001480926D01*
X0003266701Y0001474244D01*
X0003254798Y0001471351D01*
X0003241026Y0001472382D01*
X0003224510Y0001477469D01*
X0003204375Y0001486746D01*
X0003190470Y0001494225D01*
X0003176459Y0001502494D01*
X0003158270Y0001513897D01*
X0003137106Y0001527634D01*
X0003114172Y0001542906D01*
X0003090671Y0001558912D01*
X0003067809Y0001574855D01*
X0003051870Y0001586242D01*
X0003029985Y0001602069D01*
X0003017922Y0001632433D01*
X0003005081Y0001661970D01*
X0002991642Y0001686676D01*
X0002976427Y0001708359D01*
X0002958255Y0001728828D01*
X0002949496Y0001737463D01*
X0002938230Y0001744732D01*
X0002926683Y0001746585D01*
X0002916268Y0001743595D01*
X0002908393Y0001736336D01*
X0002904471Y0001725384D01*
X0002904395Y0001719106D01*
X0002905491Y0001710757D01*
X0002907617Y0001702993D01*
X0002911325Y0001695058D01*
X0002917166Y0001686196D01*
X0002925693Y0001675652D01*
X0002937457Y0001662670D01*
X0002953012Y0001646495D01*
X0002969999Y0001629293D01*
X0003022876Y0001576104D01*
X0003065666Y0001453902D01*
X0003075715Y0001425230D01*
X0003085550Y0001397224D01*
X0003094840Y0001370820D01*
X0003103255Y0001346951D01*
X0003110468Y0001326549D01*
X0003116149Y0001310549D01*
X0003119969Y0001299885D01*
X0003120042Y0001299682D01*
X0003131628Y0001267664D01*
X0003184615Y0001320650D01*
X0003127149Y0001424640D01*
X0003113661Y0001449104D01*
X0003101067Y0001472051D01*
X0003089765Y0001492747D01*
X0003080155Y0001510458D01*
X0003072636Y0001524448D01*
X0003067606Y0001533983D01*
X0003065566Y0001538082D01*
X0003064645Y0001540993D01*
X0003065565Y0001541966D01*
X0003068938Y0001540635D01*
X0003075379Y0001536632D01*
X0003085499Y0001529587D01*
X0003099914Y0001519133D01*
X0003112223Y0001510081D01*
X0003140257Y0001489879D01*
X0003166765Y0001471706D01*
X0003191028Y0001456008D01*
X0003212330Y0001443235D01*
X0003229954Y0001433833D01*
X0003243183Y0001428250D01*
X0003243277Y0001428220D01*
X0003258324Y0001425153D01*
X0003274291Y0001424789D01*
X0003288631Y0001427016D01*
X0003297261Y0001430614D01*
X0003304309Y0001435010D01*
X0003308561Y0001437502D01*
X0003313822Y0001442687D01*
X0003319841Y0001451891D01*
X0003325336Y0001462786D01*
X0003329024Y0001473046D01*
X0003329584Y0001475644D01*
X0003329253Y0001490411D01*
X0003324348Y0001507899D01*
X0003315538Y0001526705D01*
X0003303486Y0001545427D01*
X0003288860Y0001562661D01*
X0003287783Y0001563749D01*
X0003424930Y0001700895D01*
X0003424923Y0001518528D01*
X0003424911Y0001181482D01*
X0002753176Y0001181482D01*
G37*
X0002753176Y0001181482D02*
X0002753176Y0001855599D01*
X0003089056Y0001855586D01*
X0003424936Y0001855574D01*
X0003424930Y0001700895D01*
X0003287783Y0001563749D01*
X0003280920Y0001569892D01*
X0003276500Y0001571467D01*
X0003273163Y0001569476D01*
X0003271250Y0001565453D01*
X0003273186Y0001559677D01*
X0003278186Y0001552218D01*
X0003289164Y0001533717D01*
X0003293861Y0001516579D01*
X0003292281Y0001501057D01*
X0003284425Y0001487405D01*
X0003277608Y0001480926D01*
X0003266701Y0001474244D01*
X0003254798Y0001471351D01*
X0003241026Y0001472382D01*
X0003224510Y0001477469D01*
X0003204375Y0001486746D01*
X0003190470Y0001494225D01*
X0003176459Y0001502494D01*
X0003158270Y0001513897D01*
X0003137106Y0001527634D01*
X0003114172Y0001542906D01*
X0003090671Y0001558912D01*
X0003067809Y0001574855D01*
X0003051870Y0001586242D01*
X0003029985Y0001602069D01*
X0003017922Y0001632433D01*
X0003005081Y0001661970D01*
X0002991642Y0001686676D01*
X0002976427Y0001708359D01*
X0002958255Y0001728828D01*
X0002949496Y0001737463D01*
X0002938230Y0001744732D01*
X0002926683Y0001746585D01*
X0002916268Y0001743595D01*
X0002908393Y0001736336D01*
X0002904471Y0001725384D01*
X0002904395Y0001719106D01*
X0002905491Y0001710757D01*
X0002907617Y0001702993D01*
X0002911325Y0001695058D01*
X0002917166Y0001686196D01*
X0002925693Y0001675652D01*
X0002937457Y0001662670D01*
X0002953012Y0001646495D01*
X0002969999Y0001629293D01*
X0003022876Y0001576104D01*
X0003065666Y0001453902D01*
X0003075715Y0001425230D01*
X0003085550Y0001397224D01*
X0003094840Y0001370820D01*
X0003103255Y0001346951D01*
X0003110468Y0001326549D01*
X0003116149Y0001310549D01*
X0003119969Y0001299885D01*
X0003120042Y0001299682D01*
X0003131628Y0001267664D01*
X0003184615Y0001320650D01*
X0003127149Y0001424640D01*
X0003113661Y0001449104D01*
X0003101067Y0001472051D01*
X0003089765Y0001492747D01*
X0003080155Y0001510458D01*
X0003072636Y0001524448D01*
X0003067606Y0001533983D01*
X0003065566Y0001538082D01*
X0003064645Y0001540993D01*
X0003065565Y0001541966D01*
X0003068938Y0001540635D01*
X0003075379Y0001536632D01*
X0003085499Y0001529587D01*
X0003099914Y0001519133D01*
X0003112223Y0001510081D01*
X0003140257Y0001489879D01*
X0003166765Y0001471706D01*
X0003191028Y0001456008D01*
X0003212330Y0001443235D01*
X0003229954Y0001433833D01*
X0003243183Y0001428250D01*
X0003243277Y0001428220D01*
X0003258324Y0001425153D01*
X0003274291Y0001424789D01*
X0003288631Y0001427016D01*
X0003297261Y0001430614D01*
X0003304309Y0001435010D01*
X0003308561Y0001437502D01*
X0003313822Y0001442687D01*
X0003319841Y0001451891D01*
X0003325336Y0001462786D01*
X0003329024Y0001473046D01*
X0003329584Y0001475644D01*
X0003329253Y0001490411D01*
X0003324348Y0001507899D01*
X0003315538Y0001526705D01*
X0003303486Y0001545427D01*
X0003288860Y0001562661D01*
X0003287783Y0001563749D01*
X0003424930Y0001700895D01*
X0003424923Y0001518528D01*
X0003424911Y0001181482D01*
X0002753176Y0001181482D01*
D25*
G36*
X0003585335Y0000305370D02*
G01*
X0003564908Y0000296908D01*
X0003543223Y0000292595D01*
X0003521113Y0000292595D01*
X0003499427Y0000296908D01*
X0003479000Y0000305370D01*
X0003460616Y0000317653D01*
X0003444982Y0000333288D01*
X0003432698Y0000351672D01*
X0003424237Y0000372099D01*
X0003419924Y0000393784D01*
X0003419924Y0000415894D01*
X0003424237Y0000437579D01*
X0003432698Y0000458007D01*
X0003438840Y0000467199D01*
X0003444982Y0000476390D01*
X0003460616Y0000492025D01*
X0003469808Y0000498167D01*
X0003479000Y0000504308D01*
X0003499427Y0000512770D01*
X0003521113Y0000517083D01*
X0003543223Y0000517083D01*
X0003564908Y0000512770D01*
X0003585335Y0000504308D01*
X0003603719Y0000492025D01*
X0003619354Y0000476390D01*
X0003631637Y0000458007D01*
X0003640098Y0000437579D01*
X0003644412Y0000415894D01*
X0003644412Y0000393784D01*
X0003640098Y0000372099D01*
X0003631637Y0000351672D01*
X0003619354Y0000333288D01*
X0003603719Y0000317653D01*
X0003585335Y0000305370D01*
G37*
G04 next file*
G04 #@! TF.GenerationSoftware,KiCad,Pcbnew,(5.1.5)-3*
G04 #@! TF.CreationDate,2019-12-21T12:13:31-08:00*
G04 #@! TF.ProjectId,mole-diamond-keychain,6d6f6c65-2d64-4696-916d-6f6e642d6b65,A*
G04 #@! TF.SameCoordinates,Original*
G04 #@! TF.FileFunction,Soldermask,Top*
G04 #@! TF.FilePolarity,Negative*
G04 Gerber Fmt 4.6, Leading zero omitted, Abs format (unit mm)*
G04 Created by KiCad (PCBNEW (5.1.5)-3) date 2019-12-21 12:13:31*
G04 APERTURE LIST*
G04 APERTURE END LIST*
D26*
G36*
X0003288898Y0002580261D02*
G01*
X0003295605Y0002563909D01*
X0003295968Y0002545642D01*
X0003295301Y0002541812D01*
X0003293605Y0002534684D01*
X0003291214Y0002528704D01*
X0003287208Y0002522572D01*
X0003280665Y0002514989D01*
X0003270664Y0002504653D01*
X0003264818Y0002498786D01*
X0003252205Y0002486417D01*
X0003242668Y0002477857D01*
X0003234760Y0002472016D01*
X0003227032Y0002467808D01*
X0003219316Y0002464625D01*
X0003208679Y0002461013D01*
X0003202371Y0002460240D01*
X0003198713Y0002462261D01*
X0003197506Y0002464028D01*
X0003193392Y0002470276D01*
X0003186936Y0002479143D01*
X0003183117Y0002484122D01*
X0003173375Y0002493930D01*
X0003163572Y0002499503D01*
X0003154826Y0002500878D01*
X0003148256Y0002498090D01*
X0003144979Y0002491174D01*
X0003145432Y0002482918D01*
X0003147821Y0002476230D01*
X0003152842Y0002469451D01*
X0003161761Y0002460989D01*
X0003165216Y0002458027D01*
X0003182935Y0002443050D01*
X0003181431Y0002427432D01*
X0003176791Y0002406199D01*
X0003167404Y0002383416D01*
X0003154327Y0002360815D01*
X0003138619Y0002340126D01*
X0003121335Y0002323081D01*
X0003114545Y0002317899D01*
X0003102443Y0002310280D01*
X0003089790Y0002303600D01*
X0003082360Y0002300447D01*
X0003061182Y0002296173D01*
X0003040837Y0002298153D01*
X0003022306Y0002305975D01*
X0003006571Y0002319228D01*
X0002994773Y0002337164D01*
X0002991329Y0002348123D01*
X0002989425Y0002361637D01*
X0002989283Y0002368429D01*
X0002989886Y0002386931D01*
X0003098392Y0002494037D01*
X0003124070Y0002519362D01*
X0003145474Y0002540405D01*
X0003163061Y0002557582D01*
X0003177285Y0002571311D01*
X0003188603Y0002582007D01*
X0003197469Y0002590089D01*
X0003204339Y0002595974D01*
X0003209668Y0002600077D01*
X0003213912Y0002602816D01*
X0003217527Y0002604608D01*
X0003220327Y0002605659D01*
X0003239521Y0002608888D01*
X0003257827Y0002605567D01*
X0003274680Y0002595808D01*
X0003275772Y0002594902D01*
X0003288898Y0002580261D01*
G37*
X0003288898Y0002580261D02*
X0003295605Y0002563909D01*
X0003295968Y0002545642D01*
X0003295301Y0002541812D01*
X0003293605Y0002534684D01*
X0003291214Y0002528704D01*
X0003287208Y0002522572D01*
X0003280665Y0002514989D01*
X0003270664Y0002504653D01*
X0003264818Y0002498786D01*
X0003252205Y0002486417D01*
X0003242668Y0002477857D01*
X0003234760Y0002472016D01*
X0003227032Y0002467808D01*
X0003219316Y0002464625D01*
X0003208679Y0002461013D01*
X0003202371Y0002460240D01*
X0003198713Y0002462261D01*
X0003197506Y0002464028D01*
X0003193392Y0002470276D01*
X0003186936Y0002479143D01*
X0003183117Y0002484122D01*
X0003173375Y0002493930D01*
X0003163572Y0002499503D01*
X0003154826Y0002500878D01*
X0003148256Y0002498090D01*
X0003144979Y0002491174D01*
X0003145432Y0002482918D01*
X0003147821Y0002476230D01*
X0003152842Y0002469451D01*
X0003161761Y0002460989D01*
X0003165216Y0002458027D01*
X0003182935Y0002443050D01*
X0003181431Y0002427432D01*
X0003176791Y0002406199D01*
X0003167404Y0002383416D01*
X0003154327Y0002360815D01*
X0003138619Y0002340126D01*
X0003121335Y0002323081D01*
X0003114545Y0002317899D01*
X0003102443Y0002310280D01*
X0003089790Y0002303600D01*
X0003082360Y0002300447D01*
X0003061182Y0002296173D01*
X0003040837Y0002298153D01*
X0003022306Y0002305975D01*
X0003006571Y0002319228D01*
X0002994773Y0002337164D01*
X0002991329Y0002348123D01*
X0002989425Y0002361637D01*
X0002989283Y0002368429D01*
X0002989886Y0002386931D01*
X0003098392Y0002494037D01*
X0003124070Y0002519362D01*
X0003145474Y0002540405D01*
X0003163061Y0002557582D01*
X0003177285Y0002571311D01*
X0003188603Y0002582007D01*
X0003197469Y0002590089D01*
X0003204339Y0002595974D01*
X0003209668Y0002600077D01*
X0003213912Y0002602816D01*
X0003217527Y0002604608D01*
X0003220327Y0002605659D01*
X0003239521Y0002608888D01*
X0003257827Y0002605567D01*
X0003274680Y0002595808D01*
X0003275772Y0002594902D01*
X0003288898Y0002580261D01*
G36*
X0003427276Y0002416109D02*
G01*
X0003427276Y0002079051D01*
X0003091396Y0002079063D01*
X0002755517Y0002079076D01*
X0002755527Y0002371947D01*
X0002821397Y0002306078D01*
X0002820798Y0002303524D01*
X0002823235Y0002299514D01*
X0002829335Y0002292873D01*
X0002836549Y0002285600D01*
X0002855199Y0002266950D01*
X0002872655Y0002278957D01*
X0002881374Y0002285557D01*
X0002893543Y0002295585D01*
X0002907788Y0002307869D01*
X0002922733Y0002321238D01*
X0002928703Y0002326723D01*
X0002967295Y0002362482D01*
X0002968579Y0002353866D01*
X0002975175Y0002331213D01*
X0002987525Y0002309864D01*
X0003004718Y0002290941D01*
X0003025845Y0002275567D01*
X0003036592Y0002270014D01*
X0003058255Y0002263271D01*
X0003082714Y0002260839D01*
X0003107613Y0002262798D01*
X0003124616Y0002267014D01*
X0003152523Y0002279320D01*
X0003176114Y0002295839D01*
X0003194988Y0002315930D01*
X0003208745Y0002338949D01*
X0003216985Y0002364255D01*
X0003219307Y0002391205D01*
X0003216457Y0002414344D01*
X0003212411Y0002432882D01*
X0003237141Y0002433277D01*
X0003260218Y0002435775D01*
X0003280151Y0002442964D01*
X0003298647Y0002455593D01*
X0003308030Y0002464319D01*
X0003323250Y0002483844D01*
X0003332264Y0002505122D01*
X0003335117Y0002527588D01*
X0003331855Y0002550678D01*
X0003322523Y0002573828D01*
X0003307165Y0002596476D01*
X0003296466Y0002608215D01*
X0003275232Y0002625927D01*
X0003252824Y0002637460D01*
X0003228296Y0002643299D01*
X0003227729Y0002643367D01*
X0003206076Y0002643376D01*
X0003184990Y0002637956D01*
X0003163438Y0002626761D01*
X0003150115Y0002617330D01*
X0003144061Y0002612129D01*
X0003133815Y0002602690D01*
X0003119883Y0002589503D01*
X0003102774Y0002573062D01*
X0003082993Y0002553856D01*
X0003061049Y0002532378D01*
X0003037447Y0002509118D01*
X0003012696Y0002484567D01*
X0002998357Y0002470274D01*
X0002967462Y0002439478D01*
X0002940807Y0002413052D01*
X0002917970Y0002390600D01*
X0002898528Y0002371730D01*
X0002882058Y0002356046D01*
X0002868135Y0002343156D01*
X0002856338Y0002332666D01*
X0002846242Y0002324180D01*
X0002837424Y0002317306D01*
X0002829461Y0002311649D01*
X0002824405Y0002308350D01*
X0002821397Y0002306078D01*
X0002755527Y0002371947D01*
X0002755529Y0002416122D01*
X0002755541Y0002753168D01*
X0003427276Y0002753168D01*
X0003427276Y0002416109D01*
G37*
X0003427276Y0002416109D02*
X0003427276Y0002079051D01*
X0003091396Y0002079063D01*
X0002755517Y0002079076D01*
X0002755527Y0002371947D01*
X0002821397Y0002306078D01*
X0002820798Y0002303524D01*
X0002823235Y0002299514D01*
X0002829335Y0002292873D01*
X0002836549Y0002285600D01*
X0002855199Y0002266950D01*
X0002872655Y0002278957D01*
X0002881374Y0002285557D01*
X0002893543Y0002295585D01*
X0002907788Y0002307869D01*
X0002922733Y0002321238D01*
X0002928703Y0002326723D01*
X0002967295Y0002362482D01*
X0002968579Y0002353866D01*
X0002975175Y0002331213D01*
X0002987525Y0002309864D01*
X0003004718Y0002290941D01*
X0003025845Y0002275567D01*
X0003036592Y0002270014D01*
X0003058255Y0002263271D01*
X0003082714Y0002260839D01*
X0003107613Y0002262798D01*
X0003124616Y0002267014D01*
X0003152523Y0002279320D01*
X0003176114Y0002295839D01*
X0003194988Y0002315930D01*
X0003208745Y0002338949D01*
X0003216985Y0002364255D01*
X0003219307Y0002391205D01*
X0003216457Y0002414344D01*
X0003212411Y0002432882D01*
X0003237141Y0002433277D01*
X0003260218Y0002435775D01*
X0003280151Y0002442964D01*
X0003298647Y0002455593D01*
X0003308030Y0002464319D01*
X0003323250Y0002483844D01*
X0003332264Y0002505122D01*
X0003335117Y0002527588D01*
X0003331855Y0002550678D01*
X0003322523Y0002573828D01*
X0003307165Y0002596476D01*
X0003296466Y0002608215D01*
X0003275232Y0002625927D01*
X0003252824Y0002637460D01*
X0003228296Y0002643299D01*
X0003227729Y0002643367D01*
X0003206076Y0002643376D01*
X0003184990Y0002637956D01*
X0003163438Y0002626761D01*
X0003150115Y0002617330D01*
X0003144061Y0002612129D01*
X0003133815Y0002602690D01*
X0003119883Y0002589503D01*
X0003102774Y0002573062D01*
X0003082993Y0002553856D01*
X0003061049Y0002532378D01*
X0003037447Y0002509118D01*
X0003012696Y0002484567D01*
X0002998357Y0002470274D01*
X0002967462Y0002439478D01*
X0002940807Y0002413052D01*
X0002917970Y0002390600D01*
X0002898528Y0002371730D01*
X0002882058Y0002356046D01*
X0002868135Y0002343156D01*
X0002856338Y0002332666D01*
X0002846242Y0002324180D01*
X0002837424Y0002317306D01*
X0002829461Y0002311649D01*
X0002824405Y0002308350D01*
X0002821397Y0002306078D01*
X0002755527Y0002371947D01*
X0002755529Y0002416122D01*
X0002755541Y0002753168D01*
X0003427276Y0002753168D01*
X0003427276Y0002416109D01*
G36*
X0002755525Y0002753176D02*
G01*
X0002081408Y0002753176D01*
X0002081420Y0003089056D01*
X0002081433Y0003424936D01*
X0002236111Y0003424930D01*
X0002373258Y0003287783D01*
X0002367115Y0003280920D01*
X0002365540Y0003276500D01*
X0002367531Y0003273163D01*
X0002371554Y0003271250D01*
X0002377330Y0003273186D01*
X0002384789Y0003278186D01*
X0002403290Y0003289164D01*
X0002420428Y0003293861D01*
X0002435950Y0003292281D01*
X0002449602Y0003284425D01*
X0002456081Y0003277608D01*
X0002462763Y0003266701D01*
X0002465656Y0003254798D01*
X0002464625Y0003241026D01*
X0002459538Y0003224510D01*
X0002450261Y0003204375D01*
X0002442782Y0003190470D01*
X0002434513Y0003176459D01*
X0002423110Y0003158270D01*
X0002409373Y0003137106D01*
X0002394101Y0003114172D01*
X0002378095Y0003090671D01*
X0002362152Y0003067809D01*
X0002350765Y0003051870D01*
X0002334938Y0003029985D01*
X0002304574Y0003017922D01*
X0002275037Y0003005081D01*
X0002250331Y0002991642D01*
X0002228648Y0002976427D01*
X0002208178Y0002958255D01*
X0002199544Y0002949496D01*
X0002192275Y0002938230D01*
X0002190422Y0002926683D01*
X0002193412Y0002916268D01*
X0002200670Y0002908393D01*
X0002211623Y0002904471D01*
X0002217901Y0002904395D01*
X0002226250Y0002905491D01*
X0002234014Y0002907617D01*
X0002241949Y0002911325D01*
X0002250811Y0002917166D01*
X0002261354Y0002925693D01*
X0002274336Y0002937457D01*
X0002290512Y0002953012D01*
X0002307713Y0002969999D01*
X0002360903Y0003022876D01*
X0002483105Y0003065666D01*
X0002511777Y0003075715D01*
X0002539783Y0003085550D01*
X0002566187Y0003094840D01*
X0002590056Y0003103255D01*
X0002610458Y0003110468D01*
X0002626457Y0003116149D01*
X0002637122Y0003119969D01*
X0002637325Y0003120042D01*
X0002669343Y0003131628D01*
X0002616357Y0003184615D01*
X0002512366Y0003127149D01*
X0002487903Y0003113661D01*
X0002464956Y0003101067D01*
X0002444260Y0003089765D01*
X0002426549Y0003080155D01*
X0002412559Y0003072636D01*
X0002403024Y0003067606D01*
X0002398924Y0003065566D01*
X0002396014Y0003064645D01*
X0002395041Y0003065565D01*
X0002396372Y0003068938D01*
X0002400375Y0003075379D01*
X0002407420Y0003085499D01*
X0002417873Y0003099914D01*
X0002426926Y0003112223D01*
X0002447128Y0003140257D01*
X0002465301Y0003166765D01*
X0002480998Y0003191028D01*
X0002493772Y0003212330D01*
X0002503174Y0003229954D01*
X0002508757Y0003243183D01*
X0002508787Y0003243277D01*
X0002511854Y0003258324D01*
X0002512217Y0003274291D01*
X0002509990Y0003288631D01*
X0002506393Y0003297261D01*
X0002501996Y0003304309D01*
X0002499504Y0003308561D01*
X0002494320Y0003313822D01*
X0002485116Y0003319841D01*
X0002474221Y0003325336D01*
X0002463961Y0003329024D01*
X0002461363Y0003329584D01*
X0002446596Y0003329253D01*
X0002429108Y0003324348D01*
X0002410301Y0003315538D01*
X0002391580Y0003303486D01*
X0002374346Y0003288860D01*
X0002373258Y0003287783D01*
X0002236111Y0003424930D01*
X0002418479Y0003424923D01*
X0002755525Y0003424911D01*
X0002755525Y0002753176D01*
G37*
X0002755525Y0002753176D02*
X0002081408Y0002753176D01*
X0002081420Y0003089056D01*
X0002081433Y0003424936D01*
X0002236111Y0003424930D01*
X0002373258Y0003287783D01*
X0002367115Y0003280920D01*
X0002365540Y0003276500D01*
X0002367531Y0003273163D01*
X0002371554Y0003271250D01*
X0002377330Y0003273186D01*
X0002384789Y0003278186D01*
X0002403290Y0003289164D01*
X0002420428Y0003293861D01*
X0002435950Y0003292281D01*
X0002449602Y0003284425D01*
X0002456081Y0003277608D01*
X0002462763Y0003266701D01*
X0002465656Y0003254798D01*
X0002464625Y0003241026D01*
X0002459538Y0003224510D01*
X0002450261Y0003204375D01*
X0002442782Y0003190470D01*
X0002434513Y0003176459D01*
X0002423110Y0003158270D01*
X0002409373Y0003137106D01*
X0002394101Y0003114172D01*
X0002378095Y0003090671D01*
X0002362152Y0003067809D01*
X0002350765Y0003051870D01*
X0002334938Y0003029985D01*
X0002304574Y0003017922D01*
X0002275037Y0003005081D01*
X0002250331Y0002991642D01*
X0002228648Y0002976427D01*
X0002208178Y0002958255D01*
X0002199544Y0002949496D01*
X0002192275Y0002938230D01*
X0002190422Y0002926683D01*
X0002193412Y0002916268D01*
X0002200670Y0002908393D01*
X0002211623Y0002904471D01*
X0002217901Y0002904395D01*
X0002226250Y0002905491D01*
X0002234014Y0002907617D01*
X0002241949Y0002911325D01*
X0002250811Y0002917166D01*
X0002261354Y0002925693D01*
X0002274336Y0002937457D01*
X0002290512Y0002953012D01*
X0002307713Y0002969999D01*
X0002360903Y0003022876D01*
X0002483105Y0003065666D01*
X0002511777Y0003075715D01*
X0002539783Y0003085550D01*
X0002566187Y0003094840D01*
X0002590056Y0003103255D01*
X0002610458Y0003110468D01*
X0002626457Y0003116149D01*
X0002637122Y0003119969D01*
X0002637325Y0003120042D01*
X0002669343Y0003131628D01*
X0002616357Y0003184615D01*
X0002512366Y0003127149D01*
X0002487903Y0003113661D01*
X0002464956Y0003101067D01*
X0002444260Y0003089765D01*
X0002426549Y0003080155D01*
X0002412559Y0003072636D01*
X0002403024Y0003067606D01*
X0002398924Y0003065566D01*
X0002396014Y0003064645D01*
X0002395041Y0003065565D01*
X0002396372Y0003068938D01*
X0002400375Y0003075379D01*
X0002407420Y0003085499D01*
X0002417873Y0003099914D01*
X0002426926Y0003112223D01*
X0002447128Y0003140257D01*
X0002465301Y0003166765D01*
X0002480998Y0003191028D01*
X0002493772Y0003212330D01*
X0002503174Y0003229954D01*
X0002508757Y0003243183D01*
X0002508787Y0003243277D01*
X0002511854Y0003258324D01*
X0002512217Y0003274291D01*
X0002509990Y0003288631D01*
X0002506393Y0003297261D01*
X0002501996Y0003304309D01*
X0002499504Y0003308561D01*
X0002494320Y0003313822D01*
X0002485116Y0003319841D01*
X0002474221Y0003325336D01*
X0002463961Y0003329024D01*
X0002461363Y0003329584D01*
X0002446596Y0003329253D01*
X0002429108Y0003324348D01*
X0002410301Y0003315538D01*
X0002391580Y0003303486D01*
X0002374346Y0003288860D01*
X0002373258Y0003287783D01*
X0002236111Y0003424930D01*
X0002418479Y0003424923D01*
X0002755525Y0003424911D01*
X0002755525Y0002753176D01*
D27*
G36*
X0003631637Y0003585335D02*
G01*
X0003640098Y0003564908D01*
X0003644412Y0003543223D01*
X0003644412Y0003521113D01*
X0003640098Y0003499427D01*
X0003631637Y0003479000D01*
X0003619354Y0003460616D01*
X0003603719Y0003444982D01*
X0003585335Y0003432698D01*
X0003564908Y0003424237D01*
X0003543223Y0003419924D01*
X0003521113Y0003419924D01*
X0003499427Y0003424237D01*
X0003479000Y0003432698D01*
X0003469808Y0003438840D01*
X0003460616Y0003444982D01*
X0003444982Y0003460616D01*
X0003438840Y0003469808D01*
X0003432698Y0003479000D01*
X0003424237Y0003499427D01*
X0003419924Y0003521113D01*
X0003419924Y0003543223D01*
X0003424237Y0003564908D01*
X0003432698Y0003585335D01*
X0003444982Y0003603719D01*
X0003460616Y0003619354D01*
X0003479000Y0003631637D01*
X0003499427Y0003640098D01*
X0003521113Y0003644412D01*
X0003543223Y0003644412D01*
X0003564908Y0003640098D01*
X0003585335Y0003631637D01*
X0003603719Y0003619354D01*
X0003619354Y0003603719D01*
X0003631637Y0003585335D01*
G37*
G04 next file*
G04 #@! TF.GenerationSoftware,KiCad,Pcbnew,(5.1.5)-3*
G04 #@! TF.CreationDate,2019-12-21T20:48:58-08:00*
G04 #@! TF.ProjectId,mole-diamond-frame,6d6f6c65-2d64-4696-916d-6f6e642d6672,rev?*
G04 #@! TF.SameCoordinates,Original*
G04 #@! TF.FileFunction,Soldermask,Top*
G04 #@! TF.FilePolarity,Negative*
G04 Gerber Fmt 4.6, Leading zero omitted, Abs format (unit mm)*
G04 Created by KiCad (PCBNEW (5.1.5)-3) date 2019-12-21 20:48:58*
G04 APERTURE LIST*
G04 APERTURE END LIST*
D28*
X0000966619Y0003595331D02*
X0000966619Y0003654386D01*
X0000986304Y0003612204D01*
X0001005989Y0003654386D01*
X0001005989Y0003595331D01*
X0001042547Y0003595331D02*
X0001036923Y0003598143D01*
X0001034111Y0003600956D01*
X0001031299Y0003606580D01*
X0001031299Y0003623453D01*
X0001034111Y0003629077D01*
X0001036923Y0003631889D01*
X0001042547Y0003634701D01*
X0001050984Y0003634701D01*
X0001056608Y0003631889D01*
X0001059420Y0003629077D01*
X0001062232Y0003623453D01*
X0001062232Y0003606580D01*
X0001059420Y0003600956D01*
X0001056608Y0003598143D01*
X0001050984Y0003595331D01*
X0001042547Y0003595331D01*
X0001095978Y0003595331D02*
X0001090354Y0003598143D01*
X0001087542Y0003603768D01*
X0001087542Y0003654386D01*
X0001140972Y0003598143D02*
X0001135348Y0003595331D01*
X0001124100Y0003595331D01*
X0001118475Y0003598143D01*
X0001115663Y0003603768D01*
X0001115663Y0003626265D01*
X0001118475Y0003631889D01*
X0001124100Y0003634701D01*
X0001135348Y0003634701D01*
X0001140972Y0003631889D01*
X0001143785Y0003626265D01*
X0001143785Y0003620641D01*
X0001115663Y0003615016D01*
X0001214088Y0003595331D02*
X0001214088Y0003654386D01*
X0001228149Y0003654386D01*
X0001236586Y0003651574D01*
X0001242210Y0003645950D01*
X0001245022Y0003640326D01*
X0001247834Y0003629077D01*
X0001247834Y0003620641D01*
X0001245022Y0003609392D01*
X0001242210Y0003603768D01*
X0001236586Y0003598143D01*
X0001228149Y0003595331D01*
X0001214088Y0003595331D01*
X0001273143Y0003595331D02*
X0001273143Y0003634701D01*
X0001273143Y0003654386D02*
X0001270331Y0003651574D01*
X0001273143Y0003648762D01*
X0001275956Y0003651574D01*
X0001273143Y0003654386D01*
X0001273143Y0003648762D01*
X0001326574Y0003595331D02*
X0001326574Y0003626265D01*
X0001323762Y0003631889D01*
X0001318138Y0003634701D01*
X0001306889Y0003634701D01*
X0001301265Y0003631889D01*
X0001326574Y0003598143D02*
X0001320950Y0003595331D01*
X0001306889Y0003595331D01*
X0001301265Y0003598143D01*
X0001298453Y0003603768D01*
X0001298453Y0003609392D01*
X0001301265Y0003615016D01*
X0001306889Y0003617829D01*
X0001320950Y0003617829D01*
X0001326574Y0003620641D01*
X0001354696Y0003595331D02*
X0001354696Y0003634701D01*
X0001354696Y0003629077D02*
X0001357508Y0003631889D01*
X0001363132Y0003634701D01*
X0001371569Y0003634701D01*
X0001377193Y0003631889D01*
X0001380005Y0003626265D01*
X0001380005Y0003595331D01*
X0001380005Y0003626265D02*
X0001382817Y0003631889D01*
X0001388442Y0003634701D01*
X0001396878Y0003634701D01*
X0001402502Y0003631889D01*
X0001405314Y0003626265D01*
X0001405314Y0003595331D01*
X0001441872Y0003595331D02*
X0001436248Y0003598143D01*
X0001433436Y0003600956D01*
X0001430624Y0003606580D01*
X0001430624Y0003623453D01*
X0001433436Y0003629077D01*
X0001436248Y0003631889D01*
X0001441872Y0003634701D01*
X0001450309Y0003634701D01*
X0001455933Y0003631889D01*
X0001458745Y0003629077D01*
X0001461557Y0003623453D01*
X0001461557Y0003606580D01*
X0001458745Y0003600956D01*
X0001455933Y0003598143D01*
X0001450309Y0003595331D01*
X0001441872Y0003595331D01*
X0001486867Y0003634701D02*
X0001486867Y0003595331D01*
X0001486867Y0003629077D02*
X0001489679Y0003631889D01*
X0001495303Y0003634701D01*
X0001503740Y0003634701D01*
X0001509364Y0003631889D01*
X0001512176Y0003626265D01*
X0001512176Y0003595331D01*
X0001565607Y0003595331D02*
X0001565607Y0003654386D01*
X0001565607Y0003598143D02*
X0001559983Y0003595331D01*
X0001548734Y0003595331D01*
X0001543110Y0003598143D01*
X0001540298Y0003600956D01*
X0001537485Y0003606580D01*
X0001537485Y0003623453D01*
X0001540298Y0003629077D01*
X0001543110Y0003631889D01*
X0001548734Y0003634701D01*
X0001559983Y0003634701D01*
X0001565607Y0003631889D01*
X0001638723Y0003595331D02*
X0001638723Y0003654386D01*
X0001672469Y0003595331D02*
X0001647159Y0003629077D01*
X0001672469Y0003654386D02*
X0001638723Y0003620641D01*
X0001720275Y0003598143D02*
X0001714651Y0003595331D01*
X0001703402Y0003595331D01*
X0001697778Y0003598143D01*
X0001694966Y0003603768D01*
X0001694966Y0003626265D01*
X0001697778Y0003631889D01*
X0001703402Y0003634701D01*
X0001714651Y0003634701D01*
X0001720275Y0003631889D01*
X0001723087Y0003626265D01*
X0001723087Y0003620641D01*
X0001694966Y0003615016D01*
X0001742772Y0003634701D02*
X0001756833Y0003595331D01*
X0001770894Y0003634701D02*
X0001756833Y0003595331D01*
X0001751209Y0003581271D01*
X0001748397Y0003578458D01*
X0001742772Y0003575646D01*
X0001818700Y0003598143D02*
X0001813076Y0003595331D01*
X0001801827Y0003595331D01*
X0001796203Y0003598143D01*
X0001793391Y0003600956D01*
X0001790579Y0003606580D01*
X0001790579Y0003623453D01*
X0001793391Y0003629077D01*
X0001796203Y0003631889D01*
X0001801827Y0003634701D01*
X0001813076Y0003634701D01*
X0001818700Y0003631889D01*
X0001844010Y0003595331D02*
X0001844010Y0003654386D01*
X0001869319Y0003595331D02*
X0001869319Y0003626265D01*
X0001866507Y0003631889D01*
X0001860882Y0003634701D01*
X0001852446Y0003634701D01*
X0001846822Y0003631889D01*
X0001844010Y0003629077D01*
X0001922750Y0003595331D02*
X0001922750Y0003626265D01*
X0001919938Y0003631889D01*
X0001914313Y0003634701D01*
X0001903065Y0003634701D01*
X0001897440Y0003631889D01*
X0001922750Y0003598143D02*
X0001917125Y0003595331D01*
X0001903065Y0003595331D01*
X0001897440Y0003598143D01*
X0001894628Y0003603768D01*
X0001894628Y0003609392D01*
X0001897440Y0003615016D01*
X0001903065Y0003617829D01*
X0001917125Y0003617829D01*
X0001922750Y0003620641D01*
X0001950871Y0003595331D02*
X0001950871Y0003634701D01*
X0001950871Y0003654386D02*
X0001948059Y0003651574D01*
X0001950871Y0003648762D01*
X0001953683Y0003651574D01*
X0001950871Y0003654386D01*
X0001950871Y0003648762D01*
X0001978993Y0003634701D02*
X0001978993Y0003595331D01*
X0001978993Y0003629077D02*
X0001981805Y0003631889D01*
X0001987429Y0003634701D01*
X0001995866Y0003634701D01*
X0002001490Y0003631889D01*
X0002004302Y0003626265D01*
X0002004302Y0003595331D01*
D29*
G36*
X0003166269Y0003676977D02*
G01*
X0003176665Y0003672671D01*
X0003186021Y0003666419D01*
X0003193978Y0003658462D01*
X0003200230Y0003649106D01*
X0003204537Y0003638710D01*
X0003206732Y0003627673D01*
X0003206732Y0003616420D01*
X0003204537Y0003605384D01*
X0003200230Y0003594987D01*
X0003193978Y0003585631D01*
X0003186021Y0003577674D01*
X0003176665Y0003571422D01*
X0003166269Y0003567116D01*
X0003155232Y0003564921D01*
X0003143979Y0003564921D01*
X0003132943Y0003567116D01*
X0003122547Y0003571422D01*
X0003113190Y0003577674D01*
X0003105233Y0003585631D01*
X0003098981Y0003594987D01*
X0003094675Y0003605384D01*
X0003092480Y0003616420D01*
X0003092480Y0003627673D01*
X0003094675Y0003638710D01*
X0003098981Y0003649106D01*
X0003105233Y0003658462D01*
X0003113190Y0003666419D01*
X0003122547Y0003672671D01*
X0003132943Y0003676977D01*
X0003143979Y0003679173D01*
X0003155232Y0003679173D01*
X0003166269Y0003676977D01*
G37*
G36*
X0000804064Y0003676977D02*
G01*
X0000814460Y0003672671D01*
X0000823817Y0003666419D01*
X0000831774Y0003658462D01*
X0000838026Y0003649106D01*
X0000842332Y0003638710D01*
X0000844527Y0003627673D01*
X0000844527Y0003616420D01*
X0000842332Y0003605384D01*
X0000838026Y0003594987D01*
X0000831774Y0003585631D01*
X0000823817Y0003577674D01*
X0000814460Y0003571422D01*
X0000804064Y0003567116D01*
X0000793028Y0003564921D01*
X0000781775Y0003564921D01*
X0000770738Y0003567116D01*
X0000760342Y0003571422D01*
X0000750985Y0003577674D01*
X0000743028Y0003585631D01*
X0000736777Y0003594987D01*
X0000732470Y0003605384D01*
X0000730275Y0003616420D01*
X0000730275Y0003627673D01*
X0000732470Y0003638710D01*
X0000736777Y0003649106D01*
X0000743028Y0003658462D01*
X0000750985Y0003666419D01*
X0000760342Y0003672671D01*
X0000770738Y0003676977D01*
X0000781775Y0003679173D01*
X0000793028Y0003679173D01*
X0000804064Y0003676977D01*
G37*
M02*