%
M48
METRIC,000.000
T01C0.50
%
T01
X009776Y072211
X009691Y071215
X009657Y070215
X009673Y069216
X009743Y068218
X006250Y067607
X006250Y068607
X006250Y069607
X006250Y070607
X006250Y071607
X048167Y067925
X048250Y068921
X048283Y069920
X048265Y070920
X048193Y071917
X051776Y072211
X051691Y071215
X051657Y070215
X051673Y069216
X051743Y068218
X090167Y067925
X090250Y068921
X090283Y069920
X090265Y070920
X090193Y071917
X093749Y072178
X093749Y071178
X093749Y070178
X093749Y069178
X093749Y068178
X009915Y023201
X009776Y022211
X009691Y021215
X009657Y020215
X009673Y019216
X006250Y018607
X006250Y019607
X006250Y020607
X006250Y021607
X006250Y022607
X048250Y018921
X048283Y019920
X048265Y020920
X048193Y021917
X048070Y022910
X051915Y023201
X051776Y022211
X051691Y021215
X051657Y020215
X051673Y019216
X090250Y018921
X090283Y019920
X090265Y020920
X090193Y021917
X090070Y022910
X093749Y023178
X093749Y022178
X093749Y021178
X093749Y020178
X093749Y019178
X030576Y046654
X029614Y046916
X028618Y046951
X027639Y046759
X030178Y050774
X031174Y050862
X027466Y050794
X028465Y050742
X072576Y046654
X071614Y046916
X070618Y046951
X069639Y046759
X072178Y050774
X073174Y050862
X069466Y050794
X070465Y050742
M30