%MOIN*%
%OFA0B0*%
%FSLAX46Y46*%
%IPPOS*%
%LPD*%
%ADD10C,0.22047244094488189*%
%ADD11C,0.01*%
%ADD22C,0.22047244094488189*%
%ADD23C,0.01*%
%ADD24C,0.22047244094488189*%
%ADD25C,0.01*%
%ADD26C,0.22047244094488189*%
%ADD27C,0.01*%
%ADD28C,0.11811023622047245*%
%ADD29C,0.01*%
%ADD30C,0.11811023622047245*%
%ADD31C,0.01*%
D10*
X-0004448818Y0005039370D02*
X0001101181Y0001679370D03*
D11*
G36*
X0001134433Y0001508600D02*
G01*
X0001167613Y0001506297D01*
X0001200653Y0001502464D01*
X0001233480Y0001497109D01*
X0001266024Y0001490244D01*
X0001298218Y0001481883D01*
X0001329990Y0001472044D01*
X0001361274Y0001460748D01*
X0001392003Y0001448020D01*
X0001422112Y0001433886D01*
X0001451535Y0001418376D01*
X0001480211Y0001401525D01*
X0001508078Y0001383367D01*
X0001535077Y0001363941D01*
X0001561149Y0001343289D01*
X0001586241Y0001321455D01*
X0001610297Y0001298485D01*
X0001633266Y0001274430D01*
X0001655100Y0001249338D01*
X0001675752Y0001223266D01*
X0001695178Y0001196267D01*
X0001713336Y0001168400D01*
X0001730187Y0001139724D01*
X0001745697Y0001110300D01*
X0001759831Y0001080192D01*
X0001772559Y0001049463D01*
X0001783855Y0001018179D01*
X0001793694Y0000986407D01*
X0001802055Y0000954213D01*
X0001808920Y0000921669D01*
X0001814275Y0000888842D01*
X0001818108Y0000855802D01*
X0001820411Y0000822622D01*
X0001821179Y0000789370D01*
X0001820411Y0000756118D01*
X0001818108Y0000722937D01*
X0001814275Y0000689897D01*
X0001808920Y0000657070D01*
X0001802055Y0000624526D01*
X0001793694Y0000592332D01*
X0001783855Y0000560561D01*
X0001772559Y0000529276D01*
X0001759831Y0000498547D01*
X0001745697Y0000468439D01*
X0001730187Y0000439015D01*
X0001713336Y0000410339D01*
X0001695178Y0000382472D01*
X0001675752Y0000355473D01*
X0001655100Y0000329401D01*
X0001633266Y0000304310D01*
X0001610297Y0000280254D01*
X0001586241Y0000257284D01*
X0001561149Y0000235450D01*
X0001535077Y0000214798D01*
X0001508078Y0000195372D01*
X0001480211Y0000177215D01*
X0001451535Y0000160363D01*
X0001422112Y0000144853D01*
X0001392003Y0000130719D01*
X0001361274Y0000117991D01*
X0001329990Y0000106695D01*
X0001298218Y0000096857D01*
X0001266024Y0000088495D01*
X0001233480Y0000081630D01*
X0001200653Y0000076275D01*
X0001167613Y0000072442D01*
X0001134433Y0000070139D01*
X0001101181Y0000069371D01*
X0001067929Y0000070139D01*
X0001034748Y0000072442D01*
X0001001708Y0000076275D01*
X0000968881Y0000081630D01*
X0000936337Y0000088495D01*
X0000904143Y0000096857D01*
X0000872372Y0000106695D01*
X0000841087Y0000117991D01*
X0000810358Y0000130719D01*
X0000780250Y0000144853D01*
X0000750826Y0000160363D01*
X0000722150Y0000177215D01*
X0000694283Y0000195372D01*
X0000667284Y0000214798D01*
X0000641212Y0000235450D01*
X0000616121Y0000257284D01*
X0000592065Y0000280254D01*
X0000569095Y0000304310D01*
X0000547261Y0000329401D01*
X0000526609Y0000355473D01*
X0000507183Y0000382472D01*
X0000489026Y0000410339D01*
X0000472174Y0000439015D01*
X0000456664Y0000468439D01*
X0000442530Y0000498547D01*
X0000429802Y0000529276D01*
X0000418506Y0000560561D01*
X0000408668Y0000592332D01*
X0000400306Y0000624526D01*
X0000393441Y0000657070D01*
X0000388086Y0000689897D01*
X0000384253Y0000722937D01*
X0000381950Y0000756118D01*
X0000381182Y0000789370D01*
X0000381950Y0000822622D01*
X0000384253Y0000855802D01*
X0000388086Y0000888842D01*
X0000393441Y0000921669D01*
X0000400306Y0000954213D01*
X0000408668Y0000986407D01*
X0000418506Y0001018179D01*
X0000429802Y0001049463D01*
X0000442530Y0001080192D01*
X0000456664Y0001110300D01*
X0000472174Y0001139724D01*
X0000489026Y0001168400D01*
X0000507183Y0001196267D01*
X0000526609Y0001223266D01*
X0000547261Y0001249338D01*
X0000569095Y0001274430D01*
X0000592065Y0001298485D01*
X0000616121Y0001321455D01*
X0000641212Y0001343289D01*
X0000667284Y0001363941D01*
X0000694283Y0001383367D01*
X0000722150Y0001401525D01*
X0000750826Y0001418376D01*
X0000780250Y0001433886D01*
X0000810358Y0001448020D01*
X0000841087Y0001460748D01*
X0000872372Y0001472044D01*
X0000904143Y0001481883D01*
X0000936337Y0001490244D01*
X0000968881Y0001497109D01*
X0001001708Y0001502464D01*
X0001034748Y0001506297D01*
X0001067929Y0001508600D01*
X0001101181Y0001509368D01*
X0001134433Y0001508600D01*
X0001134433Y0001508600D01*
G37*
X0001134433Y0001508600D02*
X0001167613Y0001506297D01*
X0001200653Y0001502464D01*
X0001233480Y0001497109D01*
X0001266024Y0001490244D01*
X0001298218Y0001481883D01*
X0001329990Y0001472044D01*
X0001361274Y0001460748D01*
X0001392003Y0001448020D01*
X0001422112Y0001433886D01*
X0001451535Y0001418376D01*
X0001480211Y0001401525D01*
X0001508078Y0001383367D01*
X0001535077Y0001363941D01*
X0001561149Y0001343289D01*
X0001586241Y0001321455D01*
X0001610297Y0001298485D01*
X0001633266Y0001274430D01*
X0001655100Y0001249338D01*
X0001675752Y0001223266D01*
X0001695178Y0001196267D01*
X0001713336Y0001168400D01*
X0001730187Y0001139724D01*
X0001745697Y0001110300D01*
X0001759831Y0001080192D01*
X0001772559Y0001049463D01*
X0001783855Y0001018179D01*
X0001793694Y0000986407D01*
X0001802055Y0000954213D01*
X0001808920Y0000921669D01*
X0001814275Y0000888842D01*
X0001818108Y0000855802D01*
X0001820411Y0000822622D01*
X0001821179Y0000789370D01*
X0001820411Y0000756118D01*
X0001818108Y0000722937D01*
X0001814275Y0000689897D01*
X0001808920Y0000657070D01*
X0001802055Y0000624526D01*
X0001793694Y0000592332D01*
X0001783855Y0000560561D01*
X0001772559Y0000529276D01*
X0001759831Y0000498547D01*
X0001745697Y0000468439D01*
X0001730187Y0000439015D01*
X0001713336Y0000410339D01*
X0001695178Y0000382472D01*
X0001675752Y0000355473D01*
X0001655100Y0000329401D01*
X0001633266Y0000304310D01*
X0001610297Y0000280254D01*
X0001586241Y0000257284D01*
X0001561149Y0000235450D01*
X0001535077Y0000214798D01*
X0001508078Y0000195372D01*
X0001480211Y0000177215D01*
X0001451535Y0000160363D01*
X0001422112Y0000144853D01*
X0001392003Y0000130719D01*
X0001361274Y0000117991D01*
X0001329990Y0000106695D01*
X0001298218Y0000096857D01*
X0001266024Y0000088495D01*
X0001233480Y0000081630D01*
X0001200653Y0000076275D01*
X0001167613Y0000072442D01*
X0001134433Y0000070139D01*
X0001101181Y0000069371D01*
X0001067929Y0000070139D01*
X0001034748Y0000072442D01*
X0001001708Y0000076275D01*
X0000968881Y0000081630D01*
X0000936337Y0000088495D01*
X0000904143Y0000096857D01*
X0000872372Y0000106695D01*
X0000841087Y0000117991D01*
X0000810358Y0000130719D01*
X0000780250Y0000144853D01*
X0000750826Y0000160363D01*
X0000722150Y0000177215D01*
X0000694283Y0000195372D01*
X0000667284Y0000214798D01*
X0000641212Y0000235450D01*
X0000616121Y0000257284D01*
X0000592065Y0000280254D01*
X0000569095Y0000304310D01*
X0000547261Y0000329401D01*
X0000526609Y0000355473D01*
X0000507183Y0000382472D01*
X0000489026Y0000410339D01*
X0000472174Y0000439015D01*
X0000456664Y0000468439D01*
X0000442530Y0000498547D01*
X0000429802Y0000529276D01*
X0000418506Y0000560561D01*
X0000408668Y0000592332D01*
X0000400306Y0000624526D01*
X0000393441Y0000657070D01*
X0000388086Y0000689897D01*
X0000384253Y0000722937D01*
X0000381950Y0000756118D01*
X0000381182Y0000789370D01*
X0000381950Y0000822622D01*
X0000384253Y0000855802D01*
X0000388086Y0000888842D01*
X0000393441Y0000921669D01*
X0000400306Y0000954213D01*
X0000408668Y0000986407D01*
X0000418506Y0001018179D01*
X0000429802Y0001049463D01*
X0000442530Y0001080192D01*
X0000456664Y0001110300D01*
X0000472174Y0001139724D01*
X0000489026Y0001168400D01*
X0000507183Y0001196267D01*
X0000526609Y0001223266D01*
X0000547261Y0001249338D01*
X0000569095Y0001274430D01*
X0000592065Y0001298485D01*
X0000616121Y0001321455D01*
X0000641212Y0001343289D01*
X0000667284Y0001363941D01*
X0000694283Y0001383367D01*
X0000722150Y0001401525D01*
X0000750826Y0001418376D01*
X0000780250Y0001433886D01*
X0000810358Y0001448020D01*
X0000841087Y0001460748D01*
X0000872372Y0001472044D01*
X0000904143Y0001481883D01*
X0000936337Y0001490244D01*
X0000968881Y0001497109D01*
X0001001708Y0001502464D01*
X0001034748Y0001506297D01*
X0001067929Y0001508600D01*
X0001101181Y0001509368D01*
X0001134433Y0001508600D01*
G04 next file*
G04 #@! TF.GenerationSoftware,KiCad,Pcbnew,(5.1.4)-1*
G04 #@! TF.CreationDate,2019-08-25T16:12:39-07:00*
G04 #@! TF.ProjectId,mudd_keychain,6d756464-5f6b-4657-9963-6861696e2e6b,A*
G04 #@! TF.SameCoordinates,Original*
G04 #@! TF.FileFunction,Copper,L1,Top*
G04 #@! TF.FilePolarity,Positive*
G04 Gerber Fmt 4.6, Leading zero omitted, Abs format (unit mm)*
G04 Created by KiCad (PCBNEW (5.1.4)-1) date 2019-08-25 16:12:39*
G04 APERTURE LIST*
G04 APERTURE END LIST*
D22*
X-0002795275Y0005039370D02*
X0002754724Y0001679370D03*
D23*
G36*
X0002787976Y0001508600D02*
G01*
X0002821157Y0001506297D01*
X0002854197Y0001502464D01*
X0002887023Y0001497109D01*
X0002919568Y0001490244D01*
X0002951761Y0001481883D01*
X0002983533Y0001472044D01*
X0003014817Y0001460748D01*
X0003045547Y0001448020D01*
X0003075655Y0001433886D01*
X0003105079Y0001418376D01*
X0003133755Y0001401525D01*
X0003161621Y0001383367D01*
X0003188620Y0001363941D01*
X0003214693Y0001343289D01*
X0003239784Y0001321455D01*
X0003263840Y0001298485D01*
X0003286809Y0001274430D01*
X0003308644Y0001249338D01*
X0003329295Y0001223266D01*
X0003348721Y0001196267D01*
X0003366879Y0001168400D01*
X0003383731Y0001139724D01*
X0003399240Y0001110300D01*
X0003413374Y0001080192D01*
X0003426103Y0001049463D01*
X0003437398Y0001018179D01*
X0003447237Y0000986407D01*
X0003455598Y0000954213D01*
X0003462463Y0000921669D01*
X0003467818Y0000888842D01*
X0003471651Y0000855802D01*
X0003473954Y0000822622D01*
X0003474723Y0000789370D01*
X0003473954Y0000756118D01*
X0003471651Y0000722937D01*
X0003467818Y0000689897D01*
X0003462463Y0000657070D01*
X0003455598Y0000624526D01*
X0003447237Y0000592332D01*
X0003437398Y0000560561D01*
X0003426103Y0000529276D01*
X0003413374Y0000498547D01*
X0003399240Y0000468439D01*
X0003383731Y0000439015D01*
X0003366879Y0000410339D01*
X0003348721Y0000382472D01*
X0003329295Y0000355473D01*
X0003308644Y0000329401D01*
X0003286809Y0000304310D01*
X0003263840Y0000280254D01*
X0003239784Y0000257284D01*
X0003214693Y0000235450D01*
X0003188620Y0000214798D01*
X0003161621Y0000195372D01*
X0003133755Y0000177215D01*
X0003105079Y0000160363D01*
X0003075655Y0000144853D01*
X0003045547Y0000130719D01*
X0003014817Y0000117991D01*
X0002983533Y0000106695D01*
X0002951761Y0000096857D01*
X0002919568Y0000088495D01*
X0002887023Y0000081630D01*
X0002854197Y0000076275D01*
X0002821157Y0000072442D01*
X0002787976Y0000070139D01*
X0002754724Y0000069371D01*
X0002721472Y0000070139D01*
X0002688291Y0000072442D01*
X0002655251Y0000076275D01*
X0002622425Y0000081630D01*
X0002589880Y0000088495D01*
X0002557686Y0000096857D01*
X0002525915Y0000106695D01*
X0002494631Y0000117991D01*
X0002463901Y0000130719D01*
X0002433793Y0000144853D01*
X0002404369Y0000160363D01*
X0002375693Y0000177215D01*
X0002347827Y0000195372D01*
X0002320828Y0000214798D01*
X0002294755Y0000235450D01*
X0002269664Y0000257284D01*
X0002245608Y0000280254D01*
X0002222639Y0000304310D01*
X0002200804Y0000329401D01*
X0002180153Y0000355473D01*
X0002160727Y0000382472D01*
X0002142569Y0000410339D01*
X0002125717Y0000439015D01*
X0002110207Y0000468439D01*
X0002096074Y0000498547D01*
X0002083345Y0000529276D01*
X0002072049Y0000560561D01*
X0002062211Y0000592332D01*
X0002053850Y0000624526D01*
X0002046985Y0000657070D01*
X0002041630Y0000689897D01*
X0002037797Y0000722937D01*
X0002035493Y0000756118D01*
X0002034725Y0000789370D01*
X0002035493Y0000822622D01*
X0002037797Y0000855802D01*
X0002041630Y0000888842D01*
X0002046985Y0000921669D01*
X0002053850Y0000954213D01*
X0002062211Y0000986407D01*
X0002072049Y0001018179D01*
X0002083345Y0001049463D01*
X0002096074Y0001080192D01*
X0002110207Y0001110300D01*
X0002125717Y0001139724D01*
X0002142569Y0001168400D01*
X0002160727Y0001196267D01*
X0002180153Y0001223266D01*
X0002200804Y0001249338D01*
X0002222639Y0001274430D01*
X0002245608Y0001298485D01*
X0002269664Y0001321455D01*
X0002294755Y0001343289D01*
X0002320828Y0001363941D01*
X0002347827Y0001383367D01*
X0002375693Y0001401525D01*
X0002404369Y0001418376D01*
X0002433793Y0001433886D01*
X0002463901Y0001448020D01*
X0002494631Y0001460748D01*
X0002525915Y0001472044D01*
X0002557686Y0001481883D01*
X0002589880Y0001490244D01*
X0002622425Y0001497109D01*
X0002655251Y0001502464D01*
X0002688291Y0001506297D01*
X0002721472Y0001508600D01*
X0002754724Y0001509368D01*
X0002787976Y0001508600D01*
X0002787976Y0001508600D01*
G37*
X0002787976Y0001508600D02*
X0002821157Y0001506297D01*
X0002854197Y0001502464D01*
X0002887023Y0001497109D01*
X0002919568Y0001490244D01*
X0002951761Y0001481883D01*
X0002983533Y0001472044D01*
X0003014817Y0001460748D01*
X0003045547Y0001448020D01*
X0003075655Y0001433886D01*
X0003105079Y0001418376D01*
X0003133755Y0001401525D01*
X0003161621Y0001383367D01*
X0003188620Y0001363941D01*
X0003214693Y0001343289D01*
X0003239784Y0001321455D01*
X0003263840Y0001298485D01*
X0003286809Y0001274430D01*
X0003308644Y0001249338D01*
X0003329295Y0001223266D01*
X0003348721Y0001196267D01*
X0003366879Y0001168400D01*
X0003383731Y0001139724D01*
X0003399240Y0001110300D01*
X0003413374Y0001080192D01*
X0003426103Y0001049463D01*
X0003437398Y0001018179D01*
X0003447237Y0000986407D01*
X0003455598Y0000954213D01*
X0003462463Y0000921669D01*
X0003467818Y0000888842D01*
X0003471651Y0000855802D01*
X0003473954Y0000822622D01*
X0003474723Y0000789370D01*
X0003473954Y0000756118D01*
X0003471651Y0000722937D01*
X0003467818Y0000689897D01*
X0003462463Y0000657070D01*
X0003455598Y0000624526D01*
X0003447237Y0000592332D01*
X0003437398Y0000560561D01*
X0003426103Y0000529276D01*
X0003413374Y0000498547D01*
X0003399240Y0000468439D01*
X0003383731Y0000439015D01*
X0003366879Y0000410339D01*
X0003348721Y0000382472D01*
X0003329295Y0000355473D01*
X0003308644Y0000329401D01*
X0003286809Y0000304310D01*
X0003263840Y0000280254D01*
X0003239784Y0000257284D01*
X0003214693Y0000235450D01*
X0003188620Y0000214798D01*
X0003161621Y0000195372D01*
X0003133755Y0000177215D01*
X0003105079Y0000160363D01*
X0003075655Y0000144853D01*
X0003045547Y0000130719D01*
X0003014817Y0000117991D01*
X0002983533Y0000106695D01*
X0002951761Y0000096857D01*
X0002919568Y0000088495D01*
X0002887023Y0000081630D01*
X0002854197Y0000076275D01*
X0002821157Y0000072442D01*
X0002787976Y0000070139D01*
X0002754724Y0000069371D01*
X0002721472Y0000070139D01*
X0002688291Y0000072442D01*
X0002655251Y0000076275D01*
X0002622425Y0000081630D01*
X0002589880Y0000088495D01*
X0002557686Y0000096857D01*
X0002525915Y0000106695D01*
X0002494631Y0000117991D01*
X0002463901Y0000130719D01*
X0002433793Y0000144853D01*
X0002404369Y0000160363D01*
X0002375693Y0000177215D01*
X0002347827Y0000195372D01*
X0002320828Y0000214798D01*
X0002294755Y0000235450D01*
X0002269664Y0000257284D01*
X0002245608Y0000280254D01*
X0002222639Y0000304310D01*
X0002200804Y0000329401D01*
X0002180153Y0000355473D01*
X0002160727Y0000382472D01*
X0002142569Y0000410339D01*
X0002125717Y0000439015D01*
X0002110207Y0000468439D01*
X0002096074Y0000498547D01*
X0002083345Y0000529276D01*
X0002072049Y0000560561D01*
X0002062211Y0000592332D01*
X0002053850Y0000624526D01*
X0002046985Y0000657070D01*
X0002041630Y0000689897D01*
X0002037797Y0000722937D01*
X0002035493Y0000756118D01*
X0002034725Y0000789370D01*
X0002035493Y0000822622D01*
X0002037797Y0000855802D01*
X0002041630Y0000888842D01*
X0002046985Y0000921669D01*
X0002053850Y0000954213D01*
X0002062211Y0000986407D01*
X0002072049Y0001018179D01*
X0002083345Y0001049463D01*
X0002096074Y0001080192D01*
X0002110207Y0001110300D01*
X0002125717Y0001139724D01*
X0002142569Y0001168400D01*
X0002160727Y0001196267D01*
X0002180153Y0001223266D01*
X0002200804Y0001249338D01*
X0002222639Y0001274430D01*
X0002245608Y0001298485D01*
X0002269664Y0001321455D01*
X0002294755Y0001343289D01*
X0002320828Y0001363941D01*
X0002347827Y0001383367D01*
X0002375693Y0001401525D01*
X0002404369Y0001418376D01*
X0002433793Y0001433886D01*
X0002463901Y0001448020D01*
X0002494631Y0001460748D01*
X0002525915Y0001472044D01*
X0002557686Y0001481883D01*
X0002589880Y0001490244D01*
X0002622425Y0001497109D01*
X0002655251Y0001502464D01*
X0002688291Y0001506297D01*
X0002721472Y0001508600D01*
X0002754724Y0001509368D01*
X0002787976Y0001508600D01*
G04 next file*
G04 #@! TF.GenerationSoftware,KiCad,Pcbnew,(5.1.4)-1*
G04 #@! TF.CreationDate,2019-08-25T16:12:39-07:00*
G04 #@! TF.ProjectId,mudd_keychain,6d756464-5f6b-4657-9963-6861696e2e6b,A*
G04 #@! TF.SameCoordinates,Original*
G04 #@! TF.FileFunction,Copper,L1,Top*
G04 #@! TF.FilePolarity,Positive*
G04 Gerber Fmt 4.6, Leading zero omitted, Abs format (unit mm)*
G04 Created by KiCad (PCBNEW (5.1.4)-1) date 2019-08-25 16:12:39*
G04 APERTURE LIST*
G04 APERTURE END LIST*
D24*
X-0004448818Y0007007874D02*
X0001101181Y0003647874D03*
D25*
G36*
X0001134433Y0003477104D02*
G01*
X0001167613Y0003474801D01*
X0001200653Y0003470968D01*
X0001233480Y0003465613D01*
X0001266024Y0003458748D01*
X0001298218Y0003450387D01*
X0001329990Y0003440548D01*
X0001361274Y0003429252D01*
X0001392003Y0003416524D01*
X0001422112Y0003402390D01*
X0001451535Y0003386880D01*
X0001480211Y0003370029D01*
X0001508078Y0003351871D01*
X0001535077Y0003332445D01*
X0001561149Y0003311793D01*
X0001586241Y0003289959D01*
X0001610297Y0003266989D01*
X0001633266Y0003242934D01*
X0001655100Y0003217842D01*
X0001675752Y0003191770D01*
X0001695178Y0003164771D01*
X0001713336Y0003136904D01*
X0001730187Y0003108228D01*
X0001745697Y0003078804D01*
X0001759831Y0003048696D01*
X0001772559Y0003017967D01*
X0001783855Y0002986683D01*
X0001793694Y0002954911D01*
X0001802055Y0002922717D01*
X0001808920Y0002890173D01*
X0001814275Y0002857346D01*
X0001818108Y0002824306D01*
X0001820411Y0002791126D01*
X0001821179Y0002757874D01*
X0001820411Y0002724621D01*
X0001818108Y0002691441D01*
X0001814275Y0002658401D01*
X0001808920Y0002625574D01*
X0001802055Y0002593030D01*
X0001793694Y0002560836D01*
X0001783855Y0002529065D01*
X0001772559Y0002497780D01*
X0001759831Y0002467051D01*
X0001745697Y0002436943D01*
X0001730187Y0002407519D01*
X0001713336Y0002378843D01*
X0001695178Y0002350976D01*
X0001675752Y0002323977D01*
X0001655100Y0002297905D01*
X0001633266Y0002272814D01*
X0001610297Y0002248758D01*
X0001586241Y0002225788D01*
X0001561149Y0002203954D01*
X0001535077Y0002183302D01*
X0001508078Y0002163876D01*
X0001480211Y0002145718D01*
X0001451535Y0002128867D01*
X0001422112Y0002113357D01*
X0001392003Y0002099223D01*
X0001361274Y0002086495D01*
X0001329990Y0002075199D01*
X0001298218Y0002065360D01*
X0001266024Y0002056999D01*
X0001233480Y0002050134D01*
X0001200653Y0002044779D01*
X0001167613Y0002040946D01*
X0001134433Y0002038643D01*
X0001101181Y0002037875D01*
X0001067929Y0002038643D01*
X0001034748Y0002040946D01*
X0001001708Y0002044779D01*
X0000968881Y0002050134D01*
X0000936337Y0002056999D01*
X0000904143Y0002065360D01*
X0000872372Y0002075199D01*
X0000841087Y0002086495D01*
X0000810358Y0002099223D01*
X0000780250Y0002113357D01*
X0000750826Y0002128867D01*
X0000722150Y0002145718D01*
X0000694283Y0002163876D01*
X0000667284Y0002183302D01*
X0000641212Y0002203954D01*
X0000616121Y0002225788D01*
X0000592065Y0002248758D01*
X0000569095Y0002272814D01*
X0000547261Y0002297905D01*
X0000526609Y0002323977D01*
X0000507183Y0002350976D01*
X0000489026Y0002378843D01*
X0000472174Y0002407519D01*
X0000456664Y0002436943D01*
X0000442530Y0002467051D01*
X0000429802Y0002497780D01*
X0000418506Y0002529065D01*
X0000408668Y0002560836D01*
X0000400306Y0002593030D01*
X0000393441Y0002625574D01*
X0000388086Y0002658401D01*
X0000384253Y0002691441D01*
X0000381950Y0002724621D01*
X0000381182Y0002757874D01*
X0000381950Y0002791126D01*
X0000384253Y0002824306D01*
X0000388086Y0002857346D01*
X0000393441Y0002890173D01*
X0000400306Y0002922717D01*
X0000408668Y0002954911D01*
X0000418506Y0002986683D01*
X0000429802Y0003017967D01*
X0000442530Y0003048696D01*
X0000456664Y0003078804D01*
X0000472174Y0003108228D01*
X0000489026Y0003136904D01*
X0000507183Y0003164771D01*
X0000526609Y0003191770D01*
X0000547261Y0003217842D01*
X0000569095Y0003242934D01*
X0000592065Y0003266989D01*
X0000616121Y0003289959D01*
X0000641212Y0003311793D01*
X0000667284Y0003332445D01*
X0000694283Y0003351871D01*
X0000722150Y0003370029D01*
X0000750826Y0003386880D01*
X0000780250Y0003402390D01*
X0000810358Y0003416524D01*
X0000841087Y0003429252D01*
X0000872372Y0003440548D01*
X0000904143Y0003450387D01*
X0000936337Y0003458748D01*
X0000968881Y0003465613D01*
X0001001708Y0003470968D01*
X0001034748Y0003474801D01*
X0001067929Y0003477104D01*
X0001101181Y0003477872D01*
X0001134433Y0003477104D01*
X0001134433Y0003477104D01*
G37*
X0001134433Y0003477104D02*
X0001167613Y0003474801D01*
X0001200653Y0003470968D01*
X0001233480Y0003465613D01*
X0001266024Y0003458748D01*
X0001298218Y0003450387D01*
X0001329990Y0003440548D01*
X0001361274Y0003429252D01*
X0001392003Y0003416524D01*
X0001422112Y0003402390D01*
X0001451535Y0003386880D01*
X0001480211Y0003370029D01*
X0001508078Y0003351871D01*
X0001535077Y0003332445D01*
X0001561149Y0003311793D01*
X0001586241Y0003289959D01*
X0001610297Y0003266989D01*
X0001633266Y0003242934D01*
X0001655100Y0003217842D01*
X0001675752Y0003191770D01*
X0001695178Y0003164771D01*
X0001713336Y0003136904D01*
X0001730187Y0003108228D01*
X0001745697Y0003078804D01*
X0001759831Y0003048696D01*
X0001772559Y0003017967D01*
X0001783855Y0002986683D01*
X0001793694Y0002954911D01*
X0001802055Y0002922717D01*
X0001808920Y0002890173D01*
X0001814275Y0002857346D01*
X0001818108Y0002824306D01*
X0001820411Y0002791126D01*
X0001821179Y0002757874D01*
X0001820411Y0002724621D01*
X0001818108Y0002691441D01*
X0001814275Y0002658401D01*
X0001808920Y0002625574D01*
X0001802055Y0002593030D01*
X0001793694Y0002560836D01*
X0001783855Y0002529065D01*
X0001772559Y0002497780D01*
X0001759831Y0002467051D01*
X0001745697Y0002436943D01*
X0001730187Y0002407519D01*
X0001713336Y0002378843D01*
X0001695178Y0002350976D01*
X0001675752Y0002323977D01*
X0001655100Y0002297905D01*
X0001633266Y0002272814D01*
X0001610297Y0002248758D01*
X0001586241Y0002225788D01*
X0001561149Y0002203954D01*
X0001535077Y0002183302D01*
X0001508078Y0002163876D01*
X0001480211Y0002145718D01*
X0001451535Y0002128867D01*
X0001422112Y0002113357D01*
X0001392003Y0002099223D01*
X0001361274Y0002086495D01*
X0001329990Y0002075199D01*
X0001298218Y0002065360D01*
X0001266024Y0002056999D01*
X0001233480Y0002050134D01*
X0001200653Y0002044779D01*
X0001167613Y0002040946D01*
X0001134433Y0002038643D01*
X0001101181Y0002037875D01*
X0001067929Y0002038643D01*
X0001034748Y0002040946D01*
X0001001708Y0002044779D01*
X0000968881Y0002050134D01*
X0000936337Y0002056999D01*
X0000904143Y0002065360D01*
X0000872372Y0002075199D01*
X0000841087Y0002086495D01*
X0000810358Y0002099223D01*
X0000780250Y0002113357D01*
X0000750826Y0002128867D01*
X0000722150Y0002145718D01*
X0000694283Y0002163876D01*
X0000667284Y0002183302D01*
X0000641212Y0002203954D01*
X0000616121Y0002225788D01*
X0000592065Y0002248758D01*
X0000569095Y0002272814D01*
X0000547261Y0002297905D01*
X0000526609Y0002323977D01*
X0000507183Y0002350976D01*
X0000489026Y0002378843D01*
X0000472174Y0002407519D01*
X0000456664Y0002436943D01*
X0000442530Y0002467051D01*
X0000429802Y0002497780D01*
X0000418506Y0002529065D01*
X0000408668Y0002560836D01*
X0000400306Y0002593030D01*
X0000393441Y0002625574D01*
X0000388086Y0002658401D01*
X0000384253Y0002691441D01*
X0000381950Y0002724621D01*
X0000381182Y0002757874D01*
X0000381950Y0002791126D01*
X0000384253Y0002824306D01*
X0000388086Y0002857346D01*
X0000393441Y0002890173D01*
X0000400306Y0002922717D01*
X0000408668Y0002954911D01*
X0000418506Y0002986683D01*
X0000429802Y0003017967D01*
X0000442530Y0003048696D01*
X0000456664Y0003078804D01*
X0000472174Y0003108228D01*
X0000489026Y0003136904D01*
X0000507183Y0003164771D01*
X0000526609Y0003191770D01*
X0000547261Y0003217842D01*
X0000569095Y0003242934D01*
X0000592065Y0003266989D01*
X0000616121Y0003289959D01*
X0000641212Y0003311793D01*
X0000667284Y0003332445D01*
X0000694283Y0003351871D01*
X0000722150Y0003370029D01*
X0000750826Y0003386880D01*
X0000780250Y0003402390D01*
X0000810358Y0003416524D01*
X0000841087Y0003429252D01*
X0000872372Y0003440548D01*
X0000904143Y0003450387D01*
X0000936337Y0003458748D01*
X0000968881Y0003465613D01*
X0001001708Y0003470968D01*
X0001034748Y0003474801D01*
X0001067929Y0003477104D01*
X0001101181Y0003477872D01*
X0001134433Y0003477104D01*
G04 next file*
G04 #@! TF.GenerationSoftware,KiCad,Pcbnew,(5.1.4)-1*
G04 #@! TF.CreationDate,2019-08-25T16:12:39-07:00*
G04 #@! TF.ProjectId,mudd_keychain,6d756464-5f6b-4657-9963-6861696e2e6b,A*
G04 #@! TF.SameCoordinates,Original*
G04 #@! TF.FileFunction,Copper,L1,Top*
G04 #@! TF.FilePolarity,Positive*
G04 Gerber Fmt 4.6, Leading zero omitted, Abs format (unit mm)*
G04 Created by KiCad (PCBNEW (5.1.4)-1) date 2019-08-25 16:12:39*
G04 APERTURE LIST*
G04 APERTURE END LIST*
D26*
X-0002795275Y0007007874D02*
X0002754724Y0003647874D03*
D27*
G36*
X0002787976Y0003477104D02*
G01*
X0002821157Y0003474801D01*
X0002854197Y0003470968D01*
X0002887023Y0003465613D01*
X0002919568Y0003458748D01*
X0002951761Y0003450387D01*
X0002983533Y0003440548D01*
X0003014817Y0003429252D01*
X0003045547Y0003416524D01*
X0003075655Y0003402390D01*
X0003105079Y0003386880D01*
X0003133755Y0003370029D01*
X0003161621Y0003351871D01*
X0003188620Y0003332445D01*
X0003214693Y0003311793D01*
X0003239784Y0003289959D01*
X0003263840Y0003266989D01*
X0003286809Y0003242934D01*
X0003308644Y0003217842D01*
X0003329295Y0003191770D01*
X0003348721Y0003164771D01*
X0003366879Y0003136904D01*
X0003383731Y0003108228D01*
X0003399240Y0003078804D01*
X0003413374Y0003048696D01*
X0003426103Y0003017967D01*
X0003437398Y0002986683D01*
X0003447237Y0002954911D01*
X0003455598Y0002922717D01*
X0003462463Y0002890173D01*
X0003467818Y0002857346D01*
X0003471651Y0002824306D01*
X0003473954Y0002791126D01*
X0003474723Y0002757874D01*
X0003473954Y0002724621D01*
X0003471651Y0002691441D01*
X0003467818Y0002658401D01*
X0003462463Y0002625574D01*
X0003455598Y0002593030D01*
X0003447237Y0002560836D01*
X0003437398Y0002529065D01*
X0003426103Y0002497780D01*
X0003413374Y0002467051D01*
X0003399240Y0002436943D01*
X0003383731Y0002407519D01*
X0003366879Y0002378843D01*
X0003348721Y0002350976D01*
X0003329295Y0002323977D01*
X0003308644Y0002297905D01*
X0003286809Y0002272814D01*
X0003263840Y0002248758D01*
X0003239784Y0002225788D01*
X0003214693Y0002203954D01*
X0003188620Y0002183302D01*
X0003161621Y0002163876D01*
X0003133755Y0002145718D01*
X0003105079Y0002128867D01*
X0003075655Y0002113357D01*
X0003045547Y0002099223D01*
X0003014817Y0002086495D01*
X0002983533Y0002075199D01*
X0002951761Y0002065360D01*
X0002919568Y0002056999D01*
X0002887023Y0002050134D01*
X0002854197Y0002044779D01*
X0002821157Y0002040946D01*
X0002787976Y0002038643D01*
X0002754724Y0002037875D01*
X0002721472Y0002038643D01*
X0002688291Y0002040946D01*
X0002655251Y0002044779D01*
X0002622425Y0002050134D01*
X0002589880Y0002056999D01*
X0002557686Y0002065360D01*
X0002525915Y0002075199D01*
X0002494631Y0002086495D01*
X0002463901Y0002099223D01*
X0002433793Y0002113357D01*
X0002404369Y0002128867D01*
X0002375693Y0002145718D01*
X0002347827Y0002163876D01*
X0002320828Y0002183302D01*
X0002294755Y0002203954D01*
X0002269664Y0002225788D01*
X0002245608Y0002248758D01*
X0002222639Y0002272814D01*
X0002200804Y0002297905D01*
X0002180153Y0002323977D01*
X0002160727Y0002350976D01*
X0002142569Y0002378843D01*
X0002125717Y0002407519D01*
X0002110207Y0002436943D01*
X0002096074Y0002467051D01*
X0002083345Y0002497780D01*
X0002072049Y0002529065D01*
X0002062211Y0002560836D01*
X0002053850Y0002593030D01*
X0002046985Y0002625574D01*
X0002041630Y0002658401D01*
X0002037797Y0002691441D01*
X0002035493Y0002724621D01*
X0002034725Y0002757874D01*
X0002035493Y0002791126D01*
X0002037797Y0002824306D01*
X0002041630Y0002857346D01*
X0002046985Y0002890173D01*
X0002053850Y0002922717D01*
X0002062211Y0002954911D01*
X0002072049Y0002986683D01*
X0002083345Y0003017967D01*
X0002096074Y0003048696D01*
X0002110207Y0003078804D01*
X0002125717Y0003108228D01*
X0002142569Y0003136904D01*
X0002160727Y0003164771D01*
X0002180153Y0003191770D01*
X0002200804Y0003217842D01*
X0002222639Y0003242934D01*
X0002245608Y0003266989D01*
X0002269664Y0003289959D01*
X0002294755Y0003311793D01*
X0002320828Y0003332445D01*
X0002347827Y0003351871D01*
X0002375693Y0003370029D01*
X0002404369Y0003386880D01*
X0002433793Y0003402390D01*
X0002463901Y0003416524D01*
X0002494631Y0003429252D01*
X0002525915Y0003440548D01*
X0002557686Y0003450387D01*
X0002589880Y0003458748D01*
X0002622425Y0003465613D01*
X0002655251Y0003470968D01*
X0002688291Y0003474801D01*
X0002721472Y0003477104D01*
X0002754724Y0003477872D01*
X0002787976Y0003477104D01*
X0002787976Y0003477104D01*
G37*
X0002787976Y0003477104D02*
X0002821157Y0003474801D01*
X0002854197Y0003470968D01*
X0002887023Y0003465613D01*
X0002919568Y0003458748D01*
X0002951761Y0003450387D01*
X0002983533Y0003440548D01*
X0003014817Y0003429252D01*
X0003045547Y0003416524D01*
X0003075655Y0003402390D01*
X0003105079Y0003386880D01*
X0003133755Y0003370029D01*
X0003161621Y0003351871D01*
X0003188620Y0003332445D01*
X0003214693Y0003311793D01*
X0003239784Y0003289959D01*
X0003263840Y0003266989D01*
X0003286809Y0003242934D01*
X0003308644Y0003217842D01*
X0003329295Y0003191770D01*
X0003348721Y0003164771D01*
X0003366879Y0003136904D01*
X0003383731Y0003108228D01*
X0003399240Y0003078804D01*
X0003413374Y0003048696D01*
X0003426103Y0003017967D01*
X0003437398Y0002986683D01*
X0003447237Y0002954911D01*
X0003455598Y0002922717D01*
X0003462463Y0002890173D01*
X0003467818Y0002857346D01*
X0003471651Y0002824306D01*
X0003473954Y0002791126D01*
X0003474723Y0002757874D01*
X0003473954Y0002724621D01*
X0003471651Y0002691441D01*
X0003467818Y0002658401D01*
X0003462463Y0002625574D01*
X0003455598Y0002593030D01*
X0003447237Y0002560836D01*
X0003437398Y0002529065D01*
X0003426103Y0002497780D01*
X0003413374Y0002467051D01*
X0003399240Y0002436943D01*
X0003383731Y0002407519D01*
X0003366879Y0002378843D01*
X0003348721Y0002350976D01*
X0003329295Y0002323977D01*
X0003308644Y0002297905D01*
X0003286809Y0002272814D01*
X0003263840Y0002248758D01*
X0003239784Y0002225788D01*
X0003214693Y0002203954D01*
X0003188620Y0002183302D01*
X0003161621Y0002163876D01*
X0003133755Y0002145718D01*
X0003105079Y0002128867D01*
X0003075655Y0002113357D01*
X0003045547Y0002099223D01*
X0003014817Y0002086495D01*
X0002983533Y0002075199D01*
X0002951761Y0002065360D01*
X0002919568Y0002056999D01*
X0002887023Y0002050134D01*
X0002854197Y0002044779D01*
X0002821157Y0002040946D01*
X0002787976Y0002038643D01*
X0002754724Y0002037875D01*
X0002721472Y0002038643D01*
X0002688291Y0002040946D01*
X0002655251Y0002044779D01*
X0002622425Y0002050134D01*
X0002589880Y0002056999D01*
X0002557686Y0002065360D01*
X0002525915Y0002075199D01*
X0002494631Y0002086495D01*
X0002463901Y0002099223D01*
X0002433793Y0002113357D01*
X0002404369Y0002128867D01*
X0002375693Y0002145718D01*
X0002347827Y0002163876D01*
X0002320828Y0002183302D01*
X0002294755Y0002203954D01*
X0002269664Y0002225788D01*
X0002245608Y0002248758D01*
X0002222639Y0002272814D01*
X0002200804Y0002297905D01*
X0002180153Y0002323977D01*
X0002160727Y0002350976D01*
X0002142569Y0002378843D01*
X0002125717Y0002407519D01*
X0002110207Y0002436943D01*
X0002096074Y0002467051D01*
X0002083345Y0002497780D01*
X0002072049Y0002529065D01*
X0002062211Y0002560836D01*
X0002053850Y0002593030D01*
X0002046985Y0002625574D01*
X0002041630Y0002658401D01*
X0002037797Y0002691441D01*
X0002035493Y0002724621D01*
X0002034725Y0002757874D01*
X0002035493Y0002791126D01*
X0002037797Y0002824306D01*
X0002041630Y0002857346D01*
X0002046985Y0002890173D01*
X0002053850Y0002922717D01*
X0002062211Y0002954911D01*
X0002072049Y0002986683D01*
X0002083345Y0003017967D01*
X0002096074Y0003048696D01*
X0002110207Y0003078804D01*
X0002125717Y0003108228D01*
X0002142569Y0003136904D01*
X0002160727Y0003164771D01*
X0002180153Y0003191770D01*
X0002200804Y0003217842D01*
X0002222639Y0003242934D01*
X0002245608Y0003266989D01*
X0002269664Y0003289959D01*
X0002294755Y0003311793D01*
X0002320828Y0003332445D01*
X0002347827Y0003351871D01*
X0002375693Y0003370029D01*
X0002404369Y0003386880D01*
X0002433793Y0003402390D01*
X0002463901Y0003416524D01*
X0002494631Y0003429252D01*
X0002525915Y0003440548D01*
X0002557686Y0003450387D01*
X0002589880Y0003458748D01*
X0002622425Y0003465613D01*
X0002655251Y0003470968D01*
X0002688291Y0003474801D01*
X0002721472Y0003477104D01*
X0002754724Y0003477872D01*
X0002787976Y0003477104D01*
G04 next file*
G04 #@! TF.GenerationSoftware,KiCad,Pcbnew,(5.1.4)-1*
G04 #@! TF.CreationDate,2019-08-25T16:15:23-07:00*
G04 #@! TF.ProjectId,mudd-small-frame-A,6d756464-2d73-46d6-916c-6c2d6672616d,rev?*
G04 #@! TF.SameCoordinates,Original*
G04 #@! TF.FileFunction,Copper,L1,Top*
G04 #@! TF.FilePolarity,Positive*
G04 Gerber Fmt 4.6, Leading zero omitted, Abs format (unit mm)*
G04 Created by KiCad (PCBNEW (5.1.4)-1) date 2019-08-25 16:15:23*
G04 APERTURE LIST*
G04 APERTURE END LIST*
D28*
X-0002047244Y0005826771D02*
X0003759842Y0000098425D03*
X0003759842Y0003759842D03*
D29*
G36*
X0003694552Y0000044843D02*
G01*
X0003706260Y0000033135D01*
X0003716962Y0000025984D01*
X0003687401Y0000025984D01*
X0003687401Y0000055545D01*
X0003694552Y0000044843D01*
X0003694552Y0000044843D01*
G37*
X0003694552Y0000044843D02*
X0003706260Y0000033135D01*
X0003716962Y0000025984D01*
X0003687401Y0000025984D01*
X0003687401Y0000055545D01*
X0003694552Y0000044843D01*
G36*
X0003832283Y0000025984D02*
G01*
X0003802722Y0000025984D01*
X0003813424Y0000033135D01*
X0003825132Y0000044843D01*
X0003832283Y0000055545D01*
X0003832283Y0000025984D01*
X0003832283Y0000025984D01*
G37*
X0003832283Y0000025984D02*
X0003802722Y0000025984D01*
X0003813424Y0000033135D01*
X0003825132Y0000044843D01*
X0003832283Y0000055545D01*
X0003832283Y0000025984D01*
G36*
X0003832283Y0000141304D02*
G01*
X0003825132Y0000152007D01*
X0003813424Y0000163715D01*
X0003799657Y0000172913D01*
X0003784360Y0000179250D01*
X0003768121Y0000182480D01*
X0003751563Y0000182480D01*
X0003735324Y0000179250D01*
X0003720027Y0000172913D01*
X0003706260Y0000163715D01*
X0003694552Y0000152007D01*
X0003687401Y0000141304D01*
X0003687401Y0003716962D01*
X0003694552Y0003706260D01*
X0003706260Y0003694552D01*
X0003720027Y0003685353D01*
X0003735324Y0003679017D01*
X0003751563Y0003675787D01*
X0003768121Y0003675787D01*
X0003784360Y0003679017D01*
X0003799657Y0003685353D01*
X0003813424Y0003694552D01*
X0003825132Y0003706260D01*
X0003832283Y0003716962D01*
X0003832283Y0000141304D01*
X0003832283Y0000141304D01*
G37*
X0003832283Y0000141304D02*
X0003825132Y0000152007D01*
X0003813424Y0000163715D01*
X0003799657Y0000172913D01*
X0003784360Y0000179250D01*
X0003768121Y0000182480D01*
X0003751563Y0000182480D01*
X0003735324Y0000179250D01*
X0003720027Y0000172913D01*
X0003706260Y0000163715D01*
X0003694552Y0000152007D01*
X0003687401Y0000141304D01*
X0003687401Y0003716962D01*
X0003694552Y0003706260D01*
X0003706260Y0003694552D01*
X0003720027Y0003685353D01*
X0003735324Y0003679017D01*
X0003751563Y0003675787D01*
X0003768121Y0003675787D01*
X0003784360Y0003679017D01*
X0003799657Y0003685353D01*
X0003813424Y0003694552D01*
X0003825132Y0003706260D01*
X0003832283Y0003716962D01*
X0003832283Y0000141304D01*
G36*
X0003706260Y0003825132D02*
G01*
X0003694552Y0003813424D01*
X0003687401Y0003802722D01*
X0003687401Y0003832283D01*
X0003716962Y0003832283D01*
X0003706260Y0003825132D01*
X0003706260Y0003825132D01*
G37*
X0003706260Y0003825132D02*
X0003694552Y0003813424D01*
X0003687401Y0003802722D01*
X0003687401Y0003832283D01*
X0003716962Y0003832283D01*
X0003706260Y0003825132D01*
G36*
X0003832283Y0003802722D02*
G01*
X0003825132Y0003813424D01*
X0003813424Y0003825132D01*
X0003802722Y0003832283D01*
X0003832283Y0003832283D01*
X0003832283Y0003802722D01*
X0003832283Y0003802722D01*
G37*
X0003832283Y0003802722D02*
X0003825132Y0003813424D01*
X0003813424Y0003825132D01*
X0003802722Y0003832283D01*
X0003832283Y0003832283D01*
X0003832283Y0003802722D01*
G04 next file*
G04 #@! TF.GenerationSoftware,KiCad,Pcbnew,(5.1.4)-1*
G04 #@! TF.CreationDate,2019-08-25T16:16:51-07:00*
G04 #@! TF.ProjectId,mudd-small-frame-B,6d756464-2d73-46d6-916c-6c2d6672616d,rev?*
G04 #@! TF.SameCoordinates,Original*
G04 #@! TF.FileFunction,Copper,L1,Top*
G04 #@! TF.FilePolarity,Positive*
G04 Gerber Fmt 4.6, Leading zero omitted, Abs format (unit mm)*
G04 Created by KiCad (PCBNEW (5.1.4)-1) date 2019-08-25 16:16:51*
G04 APERTURE LIST*
G04 APERTURE END LIST*
D30*
X-0005708661Y0005629921D02*
X0000098425Y0000098425D03*
X0000098425Y0003759842D03*
D31*
G36*
X0000033135Y0000044843D02*
G01*
X0000044843Y0000033135D01*
X0000055545Y0000025984D01*
X0000025984Y0000025984D01*
X0000025984Y0000055545D01*
X0000033135Y0000044843D01*
X0000033135Y0000044843D01*
G37*
X0000033135Y0000044843D02*
X0000044843Y0000033135D01*
X0000055545Y0000025984D01*
X0000025984Y0000025984D01*
X0000025984Y0000055545D01*
X0000033135Y0000044843D01*
G36*
X0000170866Y0000025984D02*
G01*
X0000141304Y0000025984D01*
X0000152007Y0000033135D01*
X0000163715Y0000044843D01*
X0000170866Y0000055545D01*
X0000170866Y0000025984D01*
X0000170866Y0000025984D01*
G37*
X0000170866Y0000025984D02*
X0000141304Y0000025984D01*
X0000152007Y0000033135D01*
X0000163715Y0000044843D01*
X0000170866Y0000055545D01*
X0000170866Y0000025984D01*
G36*
X0000170866Y0000141304D02*
G01*
X0000163715Y0000152007D01*
X0000152007Y0000163715D01*
X0000138240Y0000172913D01*
X0000122943Y0000179250D01*
X0000106703Y0000182480D01*
X0000090146Y0000182480D01*
X0000073907Y0000179250D01*
X0000058610Y0000172913D01*
X0000044843Y0000163715D01*
X0000033135Y0000152007D01*
X0000025984Y0000141304D01*
X0000025984Y0003716962D01*
X0000033135Y0003706260D01*
X0000044843Y0003694552D01*
X0000058610Y0003685353D01*
X0000073907Y0003679017D01*
X0000090146Y0003675787D01*
X0000106703Y0003675787D01*
X0000122943Y0003679017D01*
X0000138240Y0003685353D01*
X0000152007Y0003694552D01*
X0000163715Y0003706260D01*
X0000170866Y0003716962D01*
X0000170866Y0000141304D01*
X0000170866Y0000141304D01*
G37*
X0000170866Y0000141304D02*
X0000163715Y0000152007D01*
X0000152007Y0000163715D01*
X0000138240Y0000172913D01*
X0000122943Y0000179250D01*
X0000106703Y0000182480D01*
X0000090146Y0000182480D01*
X0000073907Y0000179250D01*
X0000058610Y0000172913D01*
X0000044843Y0000163715D01*
X0000033135Y0000152007D01*
X0000025984Y0000141304D01*
X0000025984Y0003716962D01*
X0000033135Y0003706260D01*
X0000044843Y0003694552D01*
X0000058610Y0003685353D01*
X0000073907Y0003679017D01*
X0000090146Y0003675787D01*
X0000106703Y0003675787D01*
X0000122943Y0003679017D01*
X0000138240Y0003685353D01*
X0000152007Y0003694552D01*
X0000163715Y0003706260D01*
X0000170866Y0003716962D01*
X0000170866Y0000141304D01*
G36*
X0000044843Y0003825132D02*
G01*
X0000033135Y0003813424D01*
X0000025984Y0003802722D01*
X0000025984Y0003832283D01*
X0000055545Y0003832283D01*
X0000044843Y0003825132D01*
X0000044843Y0003825132D01*
G37*
X0000044843Y0003825132D02*
X0000033135Y0003813424D01*
X0000025984Y0003802722D01*
X0000025984Y0003832283D01*
X0000055545Y0003832283D01*
X0000044843Y0003825132D01*
G36*
X0000170866Y0003802722D02*
G01*
X0000163715Y0003813424D01*
X0000152007Y0003825132D01*
X0000141304Y0003832283D01*
X0000170866Y0003832283D01*
X0000170866Y0003802722D01*
X0000170866Y0003802722D01*
G37*
X0000170866Y0003802722D02*
X0000163715Y0003813424D01*
X0000152007Y0003825132D01*
X0000141304Y0003832283D01*
X0000170866Y0003832283D01*
X0000170866Y0003802722D01*
M02*