%MOIN*%
%OFA0B0*%
%FSLAX44Y44*%
%IPPOS*%
%LPD*%
%ADD10C,0*%
D10*
X00036614Y00026678D02*
X00036614Y00026678D01*
X00036614Y00008754D01*
X00036612Y00008723D01*
X00036609Y00008692D01*
X00036603Y00008661D01*
X00036594Y00008631D01*
X00036583Y00008602D01*
X00036570Y00008574D01*
X00036555Y00008547D01*
X00036537Y00008521D01*
X00036518Y00008497D01*
X00036497Y00008474D01*
X00036474Y00008453D01*
X00036449Y00008434D01*
X00036423Y00008417D01*
X00036396Y00008402D01*
X00036368Y00008389D01*
X00036338Y00008378D01*
X00036308Y00008370D01*
X00036278Y00008364D01*
X00036247Y00008361D01*
X00036216Y00008360D01*
X00035394Y00008369D01*
X00035365Y00008371D01*
X00035337Y00008374D01*
X00035308Y00008380D01*
X00035281Y00008387D01*
X00035254Y00008397D01*
X00035227Y00008408D01*
X00035202Y00008422D01*
X00035177Y00008437D01*
X00035154Y00008454D01*
X00035132Y00008473D01*
X00035112Y00008493D01*
X00035093Y00008514D01*
X00035076Y00008537D01*
X00035060Y00008561D01*
X00035046Y00008587D01*
X00035034Y00008613D01*
X00035024Y00008640D01*
X00035016Y00008667D01*
X00035010Y00008695D01*
X00035006Y00008724D01*
X00035006Y00008725D01*
X00034986Y00008889D01*
X00034963Y00009052D01*
X00034935Y00009215D01*
X00034904Y00009377D01*
X00034870Y00009538D01*
X00034832Y00009699D01*
X00034791Y00009858D01*
X00034746Y00010017D01*
X00034697Y00010175D01*
X00034645Y00010332D01*
X00034590Y00010487D01*
X00034531Y00010641D01*
X00034469Y00010794D01*
X00034404Y00010946D01*
X00034335Y00011096D01*
X00034263Y00011244D01*
X00034188Y00011391D01*
X00034109Y00011536D01*
X00034028Y00011679D01*
X00033943Y00011821D01*
X00033855Y00011961D01*
X00033764Y00012098D01*
X00033670Y00012234D01*
X00033573Y00012367D01*
X00033473Y00012499D01*
X00033371Y00012628D01*
X00033265Y00012755D01*
X00033157Y00012879D01*
X00033046Y00013002D01*
X00032932Y00013121D01*
X00032816Y00013238D01*
X00032697Y00013353D01*
X00032576Y00013465D01*
X00032452Y00013574D01*
X00032326Y00013680D01*
X00032198Y00013784D01*
X00032067Y00013885D01*
X00031934Y00013983D01*
X00031800Y00014078D01*
X00031663Y00014170D01*
X00031524Y00014259D01*
X00031383Y00014345D01*
X00031240Y00014427D01*
X00031095Y00014507D01*
X00030949Y00014583D01*
X00030801Y00014657D01*
X00030652Y00014727D01*
X00030501Y00014793D01*
X00030501Y00014793D01*
X00030345Y00014863D01*
X00030195Y00014945D01*
X00030052Y00015038D01*
X00029917Y00015143D01*
X00029790Y00015258D01*
X00029673Y00015382D01*
X00029566Y00015516D01*
X00029471Y00015657D01*
X00029386Y00015806D01*
X00029314Y00015961D01*
X00029254Y00016121D01*
X00029207Y00016285D01*
X00029174Y00016453D01*
X00029154Y00016622D01*
X00029147Y00016793D01*
X00029138Y00016960D01*
X00029112Y00017126D01*
X00029068Y00017288D01*
X00029008Y00017444D01*
X00028932Y00017593D01*
X00028841Y00017734D01*
X00028736Y00017864D01*
X00028617Y00017982D01*
X00028487Y00018088D01*
X00028347Y00018179D01*
X00028198Y00018255D01*
X00028155Y00018271D01*
X00028131Y00018282D01*
X00028107Y00018293D01*
X00028084Y00018307D01*
X00028063Y00018322D01*
X00028042Y00018338D01*
X00028022Y00018356D01*
X00028004Y00018374D01*
X00027987Y00018395D01*
X00027972Y00018416D01*
X00027957Y00018438D01*
X00027945Y00018461D01*
X00027934Y00018485D01*
X00027924Y00018509D01*
X00027916Y00018534D01*
X00027910Y00018560D01*
X00027906Y00018586D01*
X00027903Y00018612D01*
X00027902Y00018638D01*
X00027903Y00018665D01*
X00027906Y00018691D01*
X00028051Y00019782D01*
X00028056Y00019808D01*
X00028062Y00019833D01*
X00028069Y00019858D01*
X00028079Y00019883D01*
X00028090Y00019906D01*
X00028102Y00019929D01*
X00028116Y00019952D01*
X00028131Y00019973D01*
X00028148Y00019993D01*
X00028166Y00020012D01*
X00028186Y00020029D01*
X00028206Y00020046D01*
X00028228Y00020060D01*
X00028250Y00020074D01*
X00028273Y00020086D01*
X00028297Y00020096D01*
X00028322Y00020105D01*
X00028347Y00020112D01*
X00028372Y00020118D01*
X00028398Y00020121D01*
X00028452Y00020127D01*
X00028616Y00020149D01*
X00028779Y00020174D01*
X00028941Y00020203D01*
X00029103Y00020236D01*
X00029264Y00020272D01*
X00029424Y00020311D01*
X00029584Y00020354D01*
X00029742Y00020401D01*
X00029899Y00020451D01*
X00030055Y00020504D01*
X00030210Y00020561D01*
X00030364Y00020621D01*
X00030516Y00020685D01*
X00030667Y00020752D01*
X00030816Y00020822D01*
X00030964Y00020895D01*
X00031110Y00020972D01*
X00031254Y00021052D01*
X00031397Y00021135D01*
X00031538Y00021221D01*
X00031676Y00021311D01*
X00031813Y00021403D01*
X00031948Y00021498D01*
X00032080Y00021596D01*
X00032211Y00021698D01*
X00032339Y00021801D01*
X00032465Y00021908D01*
X00032588Y00022018D01*
X00032709Y00022130D01*
X00032828Y00022245D01*
X00032944Y00022362D01*
X00033057Y00022482D01*
X00033168Y00022604D01*
X00033276Y00022729D01*
X00033381Y00022856D01*
X00033483Y00022986D01*
X00033583Y00023117D01*
X00033680Y00023251D01*
X00033773Y00023387D01*
X00033864Y00023525D01*
X00033951Y00023665D01*
X00034036Y00023806D01*
X00034117Y00023950D01*
X00034195Y00024095D01*
X00034270Y00024242D01*
X00034342Y00024391D01*
X00034411Y00024541D01*
X00034476Y00024693D01*
X00034537Y00024846D01*
X00034596Y00025000D01*
X00034651Y00025155D01*
X00034702Y00025312D01*
X00034750Y00025470D01*
X00034795Y00025629D01*
X00034836Y00025789D01*
X00034874Y00025949D01*
X00034908Y00026111D01*
X00034938Y00026273D01*
X00034965Y00026436D01*
X00034988Y00026599D01*
X00035002Y00026713D01*
X00035002Y00026713D01*
X00035006Y00026741D01*
X00035013Y00026768D01*
X00035021Y00026795D01*
X00035031Y00026821D01*
X00035043Y00026847D01*
X00035057Y00026871D01*
X00035073Y00026895D01*
X00035090Y00026917D01*
X00035109Y00026938D01*
X00035129Y00026958D01*
X00035151Y00026976D01*
X00035174Y00026993D01*
X00035198Y00027008D01*
X00035223Y00027021D01*
X00035249Y00027032D01*
X00035276Y00027041D01*
X00035303Y00027049D01*
X00035331Y00027054D01*
X00035359Y00027058D01*
X00035387Y00027059D01*
X00036214Y00027072D01*
X00036245Y00027071D01*
X00036276Y00027068D01*
X00036307Y00027062D01*
X00036337Y00027054D01*
X00036366Y00027044D01*
X00036395Y00027031D01*
X00036422Y00027016D01*
X00036448Y00026999D01*
X00036473Y00026980D01*
X00036496Y00026959D01*
X00036518Y00026936D01*
X00036537Y00026912D01*
X00036555Y00026886D01*
X00036570Y00026859D01*
X00036583Y00026830D01*
X00036594Y00026801D01*
X00036603Y00026771D01*
X00036609Y00026740D01*
X00036612Y00026709D01*
X00036614Y00026678D01*
X00011619Y00018271D02*
X00011619Y00018271D01*
X00011595Y00018282D01*
X00011572Y00018293D01*
X00011549Y00018307D01*
X00011527Y00018322D01*
X00011507Y00018338D01*
X00011487Y00018356D01*
X00011469Y00018374D01*
X00011452Y00018395D01*
X00011436Y00018416D01*
X00011422Y00018438D01*
X00011409Y00018461D01*
X00011398Y00018485D01*
X00011389Y00018509D01*
X00011381Y00018534D01*
X00011375Y00018560D01*
X00011370Y00018586D01*
X00011368Y00018612D01*
X00011367Y00018638D01*
X00011368Y00018665D01*
X00011370Y00018691D01*
X00011516Y00019782D01*
X00011520Y00019808D01*
X00011526Y00019833D01*
X00011534Y00019858D01*
X00011543Y00019883D01*
X00011554Y00019906D01*
X00011567Y00019929D01*
X00011581Y00019952D01*
X00011596Y00019973D01*
X00011613Y00019993D01*
X00011631Y00020012D01*
X00011650Y00020029D01*
X00011671Y00020046D01*
X00011692Y00020060D01*
X00011714Y00020074D01*
X00011738Y00020086D01*
X00011762Y00020096D01*
X00011786Y00020105D01*
X00011811Y00020112D01*
X00011837Y00020118D01*
X00011863Y00020121D01*
X00011917Y00020127D01*
X00012080Y00020149D01*
X00012243Y00020174D01*
X00012406Y00020203D01*
X00012568Y00020236D01*
X00012729Y00020272D01*
X00012889Y00020311D01*
X00013048Y00020354D01*
X00013206Y00020401D01*
X00013364Y00020451D01*
X00013520Y00020504D01*
X00013675Y00020561D01*
X00013828Y00020621D01*
X00013981Y00020685D01*
X00014131Y00020752D01*
X00014281Y00020822D01*
X00014428Y00020895D01*
X00014574Y00020972D01*
X00014719Y00021052D01*
X00014861Y00021135D01*
X00015002Y00021221D01*
X00015141Y00021311D01*
X00015278Y00021403D01*
X00015412Y00021498D01*
X00015545Y00021596D01*
X00015675Y00021698D01*
X00015804Y00021801D01*
X00015929Y00021908D01*
X00016053Y00022018D01*
X00016174Y00022130D01*
X00016292Y00022245D01*
X00016408Y00022362D01*
X00016522Y00022482D01*
X00016632Y00022604D01*
X00016740Y00022729D01*
X00016846Y00022856D01*
X00016948Y00022986D01*
X00017048Y00023117D01*
X00017144Y00023251D01*
X00017238Y00023387D01*
X00017328Y00023525D01*
X00017416Y00023665D01*
X00017500Y00023806D01*
X00017582Y00023950D01*
X00017660Y00024095D01*
X00017735Y00024242D01*
X00017807Y00024391D01*
X00017875Y00024541D01*
X00017940Y00024693D01*
X00018002Y00024846D01*
X00018060Y00025000D01*
X00018115Y00025155D01*
X00018167Y00025312D01*
X00018215Y00025470D01*
X00018260Y00025629D01*
X00018301Y00025789D01*
X00018338Y00025949D01*
X00018372Y00026111D01*
X00018403Y00026273D01*
X00018430Y00026436D01*
X00018453Y00026599D01*
X00018467Y00026713D01*
X00018471Y00026741D01*
X00018478Y00026770D01*
X00018486Y00026797D01*
X00018497Y00026824D01*
X00018510Y00026850D01*
X00018524Y00026875D01*
X00018541Y00026899D01*
X00018559Y00026922D01*
X00018579Y00026943D01*
X00018600Y00026963D01*
X00018622Y00026981D01*
X00018646Y00026998D01*
X00018671Y00027012D01*
X00018697Y00027025D01*
X00018724Y00027036D01*
X00018752Y00027045D01*
X00018780Y00027052D01*
X00018809Y00027056D01*
X00018838Y00027059D01*
X00018867Y00027059D01*
X00019712Y00027039D01*
X00019740Y00027037D01*
X00019768Y00027034D01*
X00019796Y00027028D01*
X00019823Y00027020D01*
X00019849Y00027011D01*
X00019875Y00027000D01*
X00019900Y00026986D01*
X00019924Y00026972D01*
X00019946Y00026955D01*
X00019968Y00026937D01*
X00019988Y00026917D01*
X00020006Y00026896D01*
X00020024Y00026874D01*
X00020039Y00026850D01*
X00020053Y00026826D01*
X00020065Y00026801D01*
X00020075Y00026774D01*
X00020083Y00026748D01*
X00020090Y00026720D01*
X00020094Y00026692D01*
X00020105Y00026599D01*
X00020128Y00026436D01*
X00020155Y00026273D01*
X00020186Y00026111D01*
X00020220Y00025949D01*
X00020257Y00025789D01*
X00020299Y00025629D01*
X00020343Y00025470D01*
X00020391Y00025312D01*
X00020443Y00025156D01*
X00020498Y00025000D01*
X00020556Y00024846D01*
X00020618Y00024693D01*
X00020683Y00024541D01*
X00020751Y00024391D01*
X00020823Y00024242D01*
X00020898Y00024095D01*
X00020976Y00023950D01*
X00021058Y00023806D01*
X00021142Y00023665D01*
X00021230Y00023525D01*
X00021320Y00023387D01*
X00021414Y00023251D01*
X00021511Y00023117D01*
X00021610Y00022986D01*
X00021712Y00022856D01*
X00021818Y00022729D01*
X00021926Y00022604D01*
X00022036Y00022482D01*
X00022150Y00022362D01*
X00022266Y00022245D01*
X00022384Y00022130D01*
X00022505Y00022018D01*
X00022629Y00021908D01*
X00022754Y00021801D01*
X00022883Y00021698D01*
X00023013Y00021596D01*
X00023146Y00021498D01*
X00023280Y00021403D01*
X00023417Y00021311D01*
X00023556Y00021221D01*
X00023697Y00021135D01*
X00023839Y00021052D01*
X00023984Y00020972D01*
X00024130Y00020895D01*
X00024277Y00020822D01*
X00024427Y00020752D01*
X00024577Y00020685D01*
X00024730Y00020621D01*
X00024883Y00020561D01*
X00025038Y00020504D01*
X00025194Y00020451D01*
X00025352Y00020401D01*
X00025510Y00020354D01*
X00025669Y00020311D01*
X00025829Y00020272D01*
X00025990Y00020236D01*
X00026152Y00020203D01*
X00026315Y00020174D01*
X00026478Y00020149D01*
X00026641Y00020127D01*
X00026716Y00020119D01*
X00026742Y00020115D01*
X00026768Y00020110D01*
X00026793Y00020103D01*
X00026818Y00020094D01*
X00026842Y00020083D01*
X00026865Y00020071D01*
X00026888Y00020058D01*
X00026909Y00020043D01*
X00026930Y00020026D01*
X00026949Y00020008D01*
X00026967Y00019989D01*
X00026984Y00019969D01*
X00027000Y00019948D01*
X00027013Y00019926D01*
X00027026Y00019903D01*
X00027037Y00019879D01*
X00027046Y00019854D01*
X00027054Y00019829D01*
X00027060Y00019804D01*
X00027064Y00019778D01*
X00027202Y00018694D01*
X00027205Y00018668D01*
X00027206Y00018642D01*
X00027205Y00018616D01*
X00027202Y00018590D01*
X00027197Y00018564D01*
X00027191Y00018538D01*
X00027183Y00018513D01*
X00027174Y00018489D01*
X00027163Y00018465D01*
X00027150Y00018442D01*
X00027136Y00018420D01*
X00027120Y00018399D01*
X00027103Y00018379D01*
X00027085Y00018361D01*
X00027065Y00018343D01*
X00027045Y00018327D01*
X00027023Y00018312D01*
X00027001Y00018299D01*
X00026977Y00018287D01*
X00026953Y00018277D01*
X00026896Y00018255D01*
X00026747Y00018179D01*
X00026606Y00018088D01*
X00026476Y00017982D01*
X00026358Y00017864D01*
X00026252Y00017734D01*
X00026161Y00017593D01*
X00026085Y00017444D01*
X00026025Y00017288D01*
X00025982Y00017126D01*
X00025956Y00016960D01*
X00025947Y00016793D01*
X00025940Y00016622D01*
X00025920Y00016453D01*
X00025886Y00016285D01*
X00025839Y00016121D01*
X00025779Y00015961D01*
X00025707Y00015806D01*
X00025623Y00015657D01*
X00025527Y00015516D01*
X00025420Y00015382D01*
X00025303Y00015258D01*
X00025177Y00015143D01*
X00025042Y00015038D01*
X00024899Y00014945D01*
X00024749Y00014863D01*
X00024593Y00014793D01*
X00024442Y00014727D01*
X00024292Y00014657D01*
X00024144Y00014584D01*
X00023998Y00014507D01*
X00023854Y00014427D01*
X00023711Y00014345D01*
X00023570Y00014259D01*
X00023431Y00014170D01*
X00023294Y00014078D01*
X00023159Y00013983D01*
X00023026Y00013885D01*
X00022896Y00013784D01*
X00022767Y00013680D01*
X00022641Y00013574D01*
X00022517Y00013465D01*
X00022396Y00013353D01*
X00022277Y00013238D01*
X00022161Y00013121D01*
X00022048Y00013002D01*
X00021937Y00012879D01*
X00021828Y00012755D01*
X00021723Y00012628D01*
X00021620Y00012499D01*
X00021520Y00012367D01*
X00021423Y00012234D01*
X00021330Y00012098D01*
X00021239Y00011961D01*
X00021151Y00011821D01*
X00021066Y00011679D01*
X00020984Y00011536D01*
X00020906Y00011391D01*
X00020830Y00011244D01*
X00020758Y00011096D01*
X00020690Y00010946D01*
X00020624Y00010794D01*
X00020562Y00010641D01*
X00020503Y00010487D01*
X00020448Y00010332D01*
X00020396Y00010175D01*
X00020348Y00010017D01*
X00020303Y00009858D01*
X00020261Y00009699D01*
X00020223Y00009538D01*
X00020189Y00009377D01*
X00020158Y00009215D01*
X00020131Y00009052D01*
X00020107Y00008889D01*
X00020089Y00008744D01*
X00020085Y00008716D01*
X00020079Y00008689D01*
X00020071Y00008662D01*
X00020061Y00008636D01*
X00020049Y00008611D01*
X00020035Y00008587D01*
X00020020Y00008564D01*
X00020003Y00008542D01*
X00019984Y00008521D01*
X00019965Y00008501D01*
X00019943Y00008483D01*
X00019921Y00008467D01*
X00019898Y00008452D01*
X00019873Y00008439D01*
X00019848Y00008427D01*
X00019821Y00008417D01*
X00019795Y00008410D01*
X00019768Y00008404D01*
X00019740Y00008400D01*
X00019712Y00008398D01*
X00018876Y00008370D01*
X00018847Y00008370D01*
X00018817Y00008372D01*
X00018788Y00008377D01*
X00018759Y00008383D01*
X00018731Y00008392D01*
X00018703Y00008403D01*
X00018677Y00008416D01*
X00018651Y00008431D01*
X00018627Y00008448D01*
X00018604Y00008467D01*
X00018582Y00008487D01*
X00018562Y00008509D01*
X00018544Y00008532D01*
X00018527Y00008557D01*
X00018513Y00008583D01*
X00018500Y00008609D01*
X00018490Y00008637D01*
X00018481Y00008665D01*
X00018475Y00008694D01*
X00018471Y00008724D01*
X00018471Y00008725D01*
X00018451Y00008889D01*
X00018427Y00009052D01*
X00018400Y00009215D01*
X00018369Y00009377D01*
X00018335Y00009538D01*
X00018297Y00009699D01*
X00018255Y00009858D01*
X00018210Y00010017D01*
X00018162Y00010175D01*
X00018110Y00010332D01*
X00018055Y00010487D01*
X00017996Y00010641D01*
X00017934Y00010794D01*
X00017868Y00010946D01*
X00017800Y00011096D01*
X00017728Y00011244D01*
X00017652Y00011391D01*
X00017574Y00011536D01*
X00017492Y00011679D01*
X00017407Y00011821D01*
X00017319Y00011961D01*
X00017229Y00012098D01*
X00017135Y00012234D01*
X00017038Y00012367D01*
X00016938Y00012499D01*
X00016835Y00012628D01*
X00016730Y00012755D01*
X00016621Y00012879D01*
X00016510Y00013002D01*
X00016397Y00013121D01*
X00016281Y00013238D01*
X00016162Y00013353D01*
X00016041Y00013465D01*
X00015917Y00013574D01*
X00015791Y00013680D01*
X00015662Y00013784D01*
X00015532Y00013885D01*
X00015399Y00013983D01*
X00015264Y00014078D01*
X00015127Y00014170D01*
X00014988Y00014259D01*
X00014847Y00014345D01*
X00014705Y00014427D01*
X00014560Y00014507D01*
X00014414Y00014583D01*
X00014266Y00014657D01*
X00014116Y00014727D01*
X00013965Y00014793D01*
X00013965Y00014793D01*
X00013809Y00014863D01*
X00013659Y00014945D01*
X00013516Y00015038D01*
X00013381Y00015143D01*
X00013255Y00015258D01*
X00013138Y00015382D01*
X00013031Y00015516D01*
X00012935Y00015657D01*
X00012851Y00015806D01*
X00012779Y00015961D01*
X00012719Y00016121D01*
X00012672Y00016285D01*
X00012638Y00016453D01*
X00012618Y00016622D01*
X00012611Y00016793D01*
X00012603Y00016960D01*
X00012576Y00017126D01*
X00012533Y00017288D01*
X00012473Y00017444D01*
X00012397Y00017593D01*
X00012306Y00017734D01*
X00012200Y00017864D01*
X00012082Y00017982D01*
X00011952Y00018088D01*
X00011811Y00018179D01*
X00011662Y00018255D01*
X00011619Y00018271D01*
X00001968Y00026678D02*
X00001968Y00026678D01*
X00001969Y00026710D01*
X00001973Y00026741D01*
X00001979Y00026772D01*
X00001988Y00026803D01*
X00002000Y00026833D01*
X00002013Y00026861D01*
X00002029Y00026889D01*
X00002047Y00026915D01*
X00002067Y00026939D01*
X00002089Y00026962D01*
X00002113Y00026983D01*
X00002138Y00027002D01*
X00002165Y00027019D01*
X00002193Y00027034D01*
X00002222Y00027046D01*
X00002252Y00027056D01*
X00002283Y00027064D01*
X00002314Y00027069D01*
X00002346Y00027072D01*
X00002378Y00027072D01*
X00003184Y00027039D01*
X00003211Y00027037D01*
X00003239Y00027033D01*
X00003266Y00027027D01*
X00003292Y00027019D01*
X00003318Y00027009D01*
X00003344Y00026998D01*
X00003368Y00026984D01*
X00003391Y00026969D01*
X00003414Y00026953D01*
X00003435Y00026935D01*
X00003454Y00026915D01*
X00003473Y00026894D01*
X00003489Y00026872D01*
X00003505Y00026849D01*
X00003518Y00026825D01*
X00003530Y00026799D01*
X00003540Y00026773D01*
X00003548Y00026747D01*
X00003554Y00026720D01*
X00003558Y00026692D01*
X00003570Y00026599D01*
X00003593Y00026436D01*
X00003620Y00026273D01*
X00003650Y00026111D01*
X00003684Y00025949D01*
X00003722Y00025789D01*
X00003763Y00025629D01*
X00003808Y00025470D01*
X00003856Y00025312D01*
X00003907Y00025156D01*
X00003962Y00025000D01*
X00004021Y00024846D01*
X00004082Y00024693D01*
X00004148Y00024541D01*
X00004216Y00024391D01*
X00004288Y00024242D01*
X00004363Y00024095D01*
X00004441Y00023950D01*
X00004522Y00023806D01*
X00004607Y00023665D01*
X00004694Y00023525D01*
X00004785Y00023387D01*
X00004878Y00023251D01*
X00004975Y00023117D01*
X00005075Y00022986D01*
X00005177Y00022856D01*
X00005282Y00022729D01*
X00005390Y00022604D01*
X00005501Y00022482D01*
X00005614Y00022362D01*
X00005730Y00022245D01*
X00005849Y00022130D01*
X00005970Y00022018D01*
X00006093Y00021908D01*
X00006219Y00021801D01*
X00006347Y00021698D01*
X00006478Y00021596D01*
X00006610Y00021498D01*
X00006745Y00021403D01*
X00006882Y00021311D01*
X00007020Y00021221D01*
X00007161Y00021135D01*
X00007304Y00021052D01*
X00007448Y00020972D01*
X00007594Y00020895D01*
X00007742Y00020822D01*
X00007891Y00020752D01*
X00008042Y00020685D01*
X00008194Y00020621D01*
X00008348Y00020561D01*
X00008503Y00020504D01*
X00008659Y00020451D01*
X00008816Y00020401D01*
X00008975Y00020354D01*
X00009134Y00020311D01*
X00009294Y00020272D01*
X00009455Y00020236D01*
X00009617Y00020203D01*
X00009779Y00020174D01*
X00009942Y00020149D01*
X00010106Y00020127D01*
X00010181Y00020119D01*
X00010207Y00020115D01*
X00010233Y00020110D01*
X00010258Y00020103D01*
X00010283Y00020094D01*
X00010307Y00020083D01*
X00010330Y00020071D01*
X00010352Y00020058D01*
X00010374Y00020043D01*
X00010394Y00020026D01*
X00010414Y00020008D01*
X00010432Y00019989D01*
X00010449Y00019969D01*
X00010464Y00019948D01*
X00010478Y00019926D01*
X00010490Y00019903D01*
X00010501Y00019879D01*
X00010511Y00019854D01*
X00010518Y00019829D01*
X00010524Y00019804D01*
X00010528Y00019778D01*
X00010667Y00018694D01*
X00010669Y00018668D01*
X00010670Y00018642D01*
X00010669Y00018616D01*
X00010666Y00018590D01*
X00010662Y00018564D01*
X00010656Y00018538D01*
X00010648Y00018513D01*
X00010638Y00018489D01*
X00010627Y00018465D01*
X00010614Y00018442D01*
X00010600Y00018420D01*
X00010585Y00018399D01*
X00010568Y00018379D01*
X00010549Y00018361D01*
X00010530Y00018343D01*
X00010509Y00018327D01*
X00010488Y00018312D01*
X00010465Y00018299D01*
X00010442Y00018287D01*
X00010418Y00018277D01*
X00010361Y00018255D01*
X00010211Y00018179D01*
X00010071Y00018088D01*
X00009941Y00017982D01*
X00009822Y00017864D01*
X00009717Y00017734D01*
X00009626Y00017593D01*
X00009550Y00017444D01*
X00009490Y00017288D01*
X00009446Y00017126D01*
X00009420Y00016960D01*
X00009411Y00016793D01*
X00009405Y00016622D01*
X00009384Y00016453D01*
X00009351Y00016285D01*
X00009304Y00016121D01*
X00009244Y00015961D01*
X00009172Y00015806D01*
X00009087Y00015657D01*
X00008992Y00015516D01*
X00008885Y00015382D01*
X00008768Y00015258D01*
X00008641Y00015143D01*
X00008506Y00015038D01*
X00008363Y00014945D01*
X00008213Y00014863D01*
X00008057Y00014793D01*
X00007906Y00014727D01*
X00007757Y00014657D01*
X00007609Y00014584D01*
X00007463Y00014507D01*
X00007318Y00014427D01*
X00007175Y00014345D01*
X00007034Y00014259D01*
X00006896Y00014170D01*
X00006759Y00014078D01*
X00006624Y00013983D01*
X00006491Y00013885D01*
X00006360Y00013784D01*
X00006232Y00013680D01*
X00006106Y00013574D01*
X00005982Y00013465D01*
X00005861Y00013353D01*
X00005742Y00013238D01*
X00005626Y00013121D01*
X00005512Y00013002D01*
X00005401Y00012879D01*
X00005293Y00012755D01*
X00005187Y00012628D01*
X00005085Y00012499D01*
X00004985Y00012367D01*
X00004888Y00012234D01*
X00004794Y00012098D01*
X00004703Y00011961D01*
X00004615Y00011821D01*
X00004530Y00011679D01*
X00004449Y00011536D01*
X00004370Y00011391D01*
X00004295Y00011244D01*
X00004223Y00011096D01*
X00004154Y00010946D01*
X00004089Y00010794D01*
X00004027Y00010641D01*
X00003968Y00010487D01*
X00003913Y00010332D01*
X00003861Y00010175D01*
X00003812Y00010017D01*
X00003767Y00009858D01*
X00003726Y00009699D01*
X00003688Y00009538D01*
X00003654Y00009377D01*
X00003623Y00009215D01*
X00003596Y00009052D01*
X00003572Y00008889D01*
X00003554Y00008744D01*
X00003550Y00008716D01*
X00003544Y00008690D01*
X00003535Y00008663D01*
X00003526Y00008637D01*
X00003514Y00008612D01*
X00003500Y00008588D01*
X00003485Y00008565D01*
X00003469Y00008543D01*
X00003451Y00008522D01*
X00003431Y00008503D01*
X00003410Y00008485D01*
X00003388Y00008468D01*
X00003365Y00008453D01*
X00003341Y00008440D01*
X00003316Y00008429D01*
X00003290Y00008419D01*
X00003263Y00008411D01*
X00003237Y00008405D01*
X00003209Y00008401D01*
X00003182Y00008398D01*
X00002380Y00008361D01*
X00002348Y00008360D01*
X00002317Y00008363D01*
X00002285Y00008368D01*
X00002254Y00008375D01*
X00002224Y00008385D01*
X00002195Y00008397D01*
X00002166Y00008412D01*
X00002139Y00008429D01*
X00002114Y00008448D01*
X00002090Y00008469D01*
X00002068Y00008492D01*
X00002048Y00008516D01*
X00002029Y00008543D01*
X00002013Y00008570D01*
X00002000Y00008599D01*
X00001988Y00008629D01*
X00001980Y00008659D01*
X00001973Y00008690D01*
X00001969Y00008722D01*
X00001968Y00008754D01*
X00001968Y00026678D01*
X00003554Y00028429D02*
X00003554Y00028429D01*
X00003554Y00028429D01*
X00003550Y00028401D01*
X00003544Y00028375D01*
X00003535Y00028348D01*
X00003526Y00028322D01*
X00003514Y00028297D01*
X00003500Y00028273D01*
X00003485Y00028250D01*
X00003469Y00028228D01*
X00003451Y00028207D01*
X00003431Y00028188D01*
X00003410Y00028170D01*
X00003388Y00028153D01*
X00003365Y00028138D01*
X00003341Y00028125D01*
X00003316Y00028114D01*
X00003290Y00028104D01*
X00003263Y00028096D01*
X00003237Y00028090D01*
X00003209Y00028086D01*
X00003182Y00028083D01*
X00002380Y00028046D01*
X00002348Y00028045D01*
X00002317Y00028048D01*
X00002285Y00028053D01*
X00002254Y00028060D01*
X00002224Y00028070D01*
X00002195Y00028082D01*
X00002166Y00028097D01*
X00002139Y00028114D01*
X00002114Y00028133D01*
X00002090Y00028154D01*
X00002068Y00028177D01*
X00002048Y00028202D01*
X00002029Y00028228D01*
X00002013Y00028255D01*
X00002000Y00028284D01*
X00001988Y00028314D01*
X00001980Y00028344D01*
X00001973Y00028375D01*
X00001969Y00028407D01*
X00001968Y00028439D01*
X00001968Y00038582D01*
X00000000Y00038582D01*
X00000000Y00000000D01*
X00001968Y00000000D01*
X00001968Y00006993D01*
X00001969Y00007025D01*
X00001973Y00007056D01*
X00001979Y00007087D01*
X00001988Y00007118D01*
X00002000Y00007148D01*
X00002013Y00007176D01*
X00002029Y00007204D01*
X00002047Y00007230D01*
X00002067Y00007254D01*
X00002089Y00007277D01*
X00002113Y00007298D01*
X00002138Y00007317D01*
X00002165Y00007334D01*
X00002193Y00007349D01*
X00002222Y00007361D01*
X00002252Y00007371D01*
X00002283Y00007379D01*
X00002314Y00007384D01*
X00002346Y00007387D01*
X00002378Y00007387D01*
X00003184Y00007354D01*
X00003211Y00007352D01*
X00003239Y00007348D01*
X00003266Y00007342D01*
X00003292Y00007334D01*
X00003318Y00007324D01*
X00003344Y00007312D01*
X00003368Y00007299D01*
X00003391Y00007284D01*
X00003414Y00007268D01*
X00003435Y00007250D01*
X00003454Y00007230D01*
X00003473Y00007209D01*
X00003489Y00007187D01*
X00003505Y00007164D01*
X00003518Y00007139D01*
X00003530Y00007114D01*
X00003540Y00007088D01*
X00003548Y00007062D01*
X00003554Y00007035D01*
X00003558Y00007007D01*
X00003570Y00006914D01*
X00003593Y00006751D01*
X00003620Y00006588D01*
X00003650Y00006426D01*
X00003684Y00006264D01*
X00003722Y00006104D01*
X00003763Y00005944D01*
X00003808Y00005785D01*
X00003856Y00005627D01*
X00003907Y00005470D01*
X00003962Y00005315D01*
X00004021Y00005161D01*
X00004082Y00005008D01*
X00004148Y00004856D01*
X00004216Y00004706D01*
X00004288Y00004557D01*
X00004363Y00004410D01*
X00004441Y00004265D01*
X00004522Y00004121D01*
X00004607Y00003980D01*
X00004694Y00003840D01*
X00004785Y00003702D01*
X00004878Y00003566D01*
X00004975Y00003432D01*
X00005075Y00003301D01*
X00005177Y00003171D01*
X00005282Y00003044D01*
X00005390Y00002919D01*
X00005501Y00002797D01*
X00005614Y00002677D01*
X00005730Y00002560D01*
X00005849Y00002445D01*
X00005970Y00002333D01*
X00006093Y00002223D01*
X00006219Y00002116D01*
X00006347Y00002012D01*
X00006478Y00001911D01*
X00006610Y00001813D01*
X00006745Y00001718D01*
X00006882Y00001626D01*
X00007020Y00001536D01*
X00007161Y00001450D01*
X00007304Y00001367D01*
X00007448Y00001287D01*
X00007594Y00001210D01*
X00007742Y00001137D01*
X00007891Y00001067D01*
X00008042Y00001000D01*
X00008194Y00000936D01*
X00008348Y00000876D01*
X00008503Y00000819D01*
X00008659Y00000766D01*
X00008816Y00000716D01*
X00008975Y00000669D01*
X00009134Y00000626D01*
X00009294Y00000587D01*
X00009455Y00000551D01*
X00009617Y00000518D01*
X00009779Y00000489D01*
X00009942Y00000464D01*
X00010106Y00000442D01*
X00010270Y00000424D01*
X00010434Y00000410D01*
X00010599Y00000399D01*
X00010764Y00000392D01*
X00010929Y00000388D01*
X00011094Y00000388D01*
X00011259Y00000392D01*
X00011424Y00000399D01*
X00011588Y00000410D01*
X00011753Y00000424D01*
X00011917Y00000442D01*
X00012080Y00000464D01*
X00012243Y00000489D01*
X00012406Y00000518D01*
X00012568Y00000551D01*
X00012729Y00000587D01*
X00012889Y00000626D01*
X00013048Y00000669D01*
X00013206Y00000716D01*
X00013364Y00000766D01*
X00013520Y00000819D01*
X00013675Y00000876D01*
X00013828Y00000936D01*
X00013981Y00001000D01*
X00014131Y00001067D01*
X00014281Y00001137D01*
X00014428Y00001210D01*
X00014574Y00001287D01*
X00014719Y00001367D01*
X00014861Y00001450D01*
X00015002Y00001536D01*
X00015141Y00001626D01*
X00015278Y00001718D01*
X00015412Y00001813D01*
X00015545Y00001911D01*
X00015675Y00002012D01*
X00015804Y00002116D01*
X00015929Y00002223D01*
X00016053Y00002333D01*
X00016174Y00002445D01*
X00016292Y00002560D01*
X00016408Y00002677D01*
X00016522Y00002797D01*
X00016632Y00002919D01*
X00016740Y00003044D01*
X00016846Y00003171D01*
X00016948Y00003301D01*
X00017048Y00003432D01*
X00017144Y00003566D01*
X00017238Y00003702D01*
X00017328Y00003840D01*
X00017416Y00003980D01*
X00017500Y00004121D01*
X00017582Y00004265D01*
X00017660Y00004410D01*
X00017735Y00004557D01*
X00017807Y00004706D01*
X00017875Y00004856D01*
X00017940Y00005008D01*
X00018002Y00005161D01*
X00018060Y00005315D01*
X00018115Y00005470D01*
X00018167Y00005627D01*
X00018215Y00005785D01*
X00018260Y00005944D01*
X00018301Y00006104D01*
X00018338Y00006264D01*
X00018372Y00006426D01*
X00018403Y00006588D01*
X00018430Y00006751D01*
X00018453Y00006914D01*
X00018467Y00007028D01*
X00018471Y00007056D01*
X00018478Y00007084D01*
X00018486Y00007112D01*
X00018497Y00007139D01*
X00018510Y00007165D01*
X00018524Y00007190D01*
X00018541Y00007214D01*
X00018559Y00007237D01*
X00018579Y00007258D01*
X00018600Y00007278D01*
X00018622Y00007296D01*
X00018646Y00007313D01*
X00018671Y00007327D01*
X00018697Y00007340D01*
X00018724Y00007351D01*
X00018752Y00007360D01*
X00018780Y00007367D01*
X00018809Y00007371D01*
X00018838Y00007374D01*
X00018867Y00007374D01*
X00019712Y00007354D01*
X00019740Y00007352D01*
X00019768Y00007349D01*
X00019796Y00007343D01*
X00019823Y00007335D01*
X00019849Y00007326D01*
X00019875Y00007315D01*
X00019900Y00007301D01*
X00019924Y00007286D01*
X00019946Y00007270D01*
X00019968Y00007252D01*
X00019988Y00007232D01*
X00020006Y00007211D01*
X00020024Y00007189D01*
X00020039Y00007165D01*
X00020053Y00007141D01*
X00020065Y00007116D01*
X00020075Y00007089D01*
X00020083Y00007063D01*
X00020090Y00007035D01*
X00020094Y00007007D01*
X00020105Y00006914D01*
X00020128Y00006751D01*
X00020155Y00006588D01*
X00020186Y00006426D01*
X00020220Y00006264D01*
X00020257Y00006104D01*
X00020299Y00005944D01*
X00020343Y00005785D01*
X00020391Y00005627D01*
X00020443Y00005470D01*
X00020498Y00005315D01*
X00020556Y00005161D01*
X00020618Y00005008D01*
X00020683Y00004856D01*
X00020751Y00004706D01*
X00020823Y00004557D01*
X00020898Y00004410D01*
X00020976Y00004265D01*
X00021058Y00004121D01*
X00021142Y00003980D01*
X00021230Y00003840D01*
X00021320Y00003702D01*
X00021414Y00003566D01*
X00021511Y00003432D01*
X00021610Y00003301D01*
X00021712Y00003171D01*
X00021818Y00003044D01*
X00021926Y00002919D01*
X00022036Y00002797D01*
X00022150Y00002677D01*
X00022266Y00002560D01*
X00022384Y00002445D01*
X00022505Y00002333D01*
X00022629Y00002223D01*
X00022754Y00002116D01*
X00022883Y00002012D01*
X00023013Y00001911D01*
X00023146Y00001813D01*
X00023280Y00001718D01*
X00023417Y00001626D01*
X00023556Y00001536D01*
X00023697Y00001450D01*
X00023839Y00001367D01*
X00023984Y00001287D01*
X00024130Y00001210D01*
X00024277Y00001137D01*
X00024427Y00001067D01*
X00024577Y00001000D01*
X00024730Y00000936D01*
X00024883Y00000876D01*
X00025038Y00000819D01*
X00025194Y00000766D01*
X00025352Y00000716D01*
X00025510Y00000669D01*
X00025669Y00000626D01*
X00025829Y00000587D01*
X00025990Y00000551D01*
X00026152Y00000518D01*
X00026315Y00000489D01*
X00026478Y00000464D01*
X00026641Y00000442D01*
X00026805Y00000424D01*
X00026970Y00000410D01*
X00027134Y00000399D01*
X00027299Y00000392D01*
X00027464Y00000388D01*
X00027629Y00000388D01*
X00027794Y00000392D01*
X00027959Y00000399D01*
X00028124Y00000410D01*
X00028288Y00000424D01*
X00028452Y00000442D01*
X00028616Y00000464D01*
X00028779Y00000489D01*
X00028941Y00000518D01*
X00029103Y00000551D01*
X00029264Y00000587D01*
X00029424Y00000626D01*
X00029584Y00000669D01*
X00029742Y00000716D01*
X00029899Y00000766D01*
X00030055Y00000819D01*
X00030210Y00000876D01*
X00030364Y00000936D01*
X00030516Y00001000D01*
X00030667Y00001067D01*
X00030816Y00001137D01*
X00030964Y00001210D01*
X00031110Y00001287D01*
X00031254Y00001367D01*
X00031397Y00001450D01*
X00031538Y00001536D01*
X00031676Y00001626D01*
X00031813Y00001718D01*
X00031948Y00001813D01*
X00032080Y00001911D01*
X00032211Y00002012D01*
X00032339Y00002116D01*
X00032465Y00002223D01*
X00032588Y00002333D01*
X00032709Y00002445D01*
X00032828Y00002560D01*
X00032944Y00002677D01*
X00033057Y00002797D01*
X00033168Y00002919D01*
X00033276Y00003044D01*
X00033381Y00003171D01*
X00033483Y00003301D01*
X00033583Y00003432D01*
X00033680Y00003566D01*
X00033773Y00003702D01*
X00033864Y00003840D01*
X00033951Y00003980D01*
X00034036Y00004121D01*
X00034117Y00004265D01*
X00034195Y00004410D01*
X00034270Y00004557D01*
X00034342Y00004706D01*
X00034411Y00004856D01*
X00034476Y00005008D01*
X00034537Y00005161D01*
X00034596Y00005315D01*
X00034651Y00005470D01*
X00034702Y00005627D01*
X00034750Y00005785D01*
X00034795Y00005944D01*
X00034836Y00006104D01*
X00034874Y00006264D01*
X00034908Y00006426D01*
X00034938Y00006588D01*
X00034965Y00006751D01*
X00034988Y00006914D01*
X00035002Y00007028D01*
X00035006Y00007055D01*
X00035013Y00007083D01*
X00035021Y00007110D01*
X00035031Y00007136D01*
X00035043Y00007162D01*
X00035057Y00007186D01*
X00035073Y00007210D01*
X00035090Y00007232D01*
X00035109Y00007253D01*
X00035129Y00007273D01*
X00035151Y00007291D01*
X00035174Y00007308D01*
X00035198Y00007323D01*
X00035223Y00007336D01*
X00035249Y00007347D01*
X00035276Y00007356D01*
X00035303Y00007364D01*
X00035331Y00007369D01*
X00035359Y00007373D01*
X00035387Y00007374D01*
X00036214Y00007387D01*
X00036245Y00007386D01*
X00036276Y00007383D01*
X00036307Y00007377D01*
X00036337Y00007369D01*
X00036366Y00007359D01*
X00036395Y00007346D01*
X00036422Y00007331D01*
X00036448Y00007314D01*
X00036473Y00007295D01*
X00036496Y00007274D01*
X00036518Y00007251D01*
X00036537Y00007227D01*
X00036555Y00007201D01*
X00036570Y00007174D01*
X00036583Y00007145D01*
X00036594Y00007116D01*
X00036603Y00007086D01*
X00036609Y00007055D01*
X00036612Y00007024D01*
X00036614Y00006993D01*
X00036614Y00000000D01*
X00038582Y00000000D01*
X00038582Y00038582D01*
X00036614Y00038582D01*
X00036614Y00028439D01*
X00036612Y00028408D01*
X00036609Y00028377D01*
X00036603Y00028346D01*
X00036594Y00028316D01*
X00036583Y00028287D01*
X00036570Y00028259D01*
X00036555Y00028232D01*
X00036537Y00028206D01*
X00036518Y00028182D01*
X00036497Y00028159D01*
X00036474Y00028138D01*
X00036449Y00028119D01*
X00036423Y00028102D01*
X00036396Y00028087D01*
X00036368Y00028074D01*
X00036338Y00028063D01*
X00036308Y00028055D01*
X00036278Y00028049D01*
X00036247Y00028046D01*
X00036216Y00028045D01*
X00035394Y00028054D01*
X00035365Y00028056D01*
X00035337Y00028059D01*
X00035308Y00028065D01*
X00035281Y00028072D01*
X00035254Y00028082D01*
X00035227Y00028093D01*
X00035202Y00028107D01*
X00035177Y00028122D01*
X00035154Y00028139D01*
X00035132Y00028158D01*
X00035112Y00028178D01*
X00035093Y00028199D01*
X00035076Y00028222D01*
X00035060Y00028246D01*
X00035046Y00028272D01*
X00035034Y00028298D01*
X00035024Y00028325D01*
X00035016Y00028352D01*
X00035010Y00028380D01*
X00035006Y00028409D01*
X00035006Y00028410D01*
X00034986Y00028574D01*
X00034963Y00028737D01*
X00034935Y00028900D01*
X00034904Y00029062D01*
X00034870Y00029223D01*
X00034832Y00029384D01*
X00034791Y00029543D01*
X00034746Y00029702D01*
X00034697Y00029860D01*
X00034645Y00030017D01*
X00034590Y00030172D01*
X00034531Y00030326D01*
X00034469Y00030479D01*
X00034404Y00030631D01*
X00034335Y00030781D01*
X00034263Y00030929D01*
X00034188Y00031076D01*
X00034109Y00031221D01*
X00034028Y00031364D01*
X00033943Y00031506D01*
X00033855Y00031646D01*
X00033764Y00031783D01*
X00033670Y00031919D01*
X00033573Y00032053D01*
X00033473Y00032184D01*
X00033371Y00032313D01*
X00033265Y00032440D01*
X00033157Y00032564D01*
X00033046Y00032687D01*
X00032932Y00032806D01*
X00032816Y00032923D01*
X00032697Y00033038D01*
X00032576Y00033150D01*
X00032452Y00033259D01*
X00032326Y00033366D01*
X00032198Y00033469D01*
X00032067Y00033570D01*
X00031934Y00033668D01*
X00031800Y00033763D01*
X00031663Y00033855D01*
X00031524Y00033944D01*
X00031383Y00034030D01*
X00031240Y00034113D01*
X00031095Y00034192D01*
X00030949Y00034269D01*
X00030801Y00034342D01*
X00030652Y00034412D01*
X00030501Y00034478D01*
X00030501Y00034478D01*
X00030345Y00034548D01*
X00030195Y00034630D01*
X00030052Y00034723D01*
X00029917Y00034828D01*
X00029790Y00034943D01*
X00029673Y00035067D01*
X00029566Y00035201D01*
X00029471Y00035342D01*
X00029386Y00035491D01*
X00029314Y00035646D01*
X00029254Y00035806D01*
X00029207Y00035970D01*
X00029174Y00036138D01*
X00029154Y00036307D01*
X00029147Y00036478D01*
X00029138Y00036645D01*
X00029112Y00036811D01*
X00029068Y00036973D01*
X00029008Y00037129D01*
X00028932Y00037278D01*
X00028841Y00037419D01*
X00028736Y00037549D01*
X00028617Y00037667D01*
X00028487Y00037773D01*
X00028347Y00037864D01*
X00028198Y00037940D01*
X00028041Y00038000D01*
X00027879Y00038043D01*
X00027714Y00038069D01*
X00027547Y00038078D01*
X00027379Y00038069D01*
X00027214Y00038043D01*
X00027052Y00038000D01*
X00026896Y00037940D01*
X00026747Y00037864D01*
X00026606Y00037773D01*
X00026476Y00037667D01*
X00026358Y00037549D01*
X00026252Y00037419D01*
X00026161Y00037278D01*
X00026085Y00037129D01*
X00026025Y00036973D01*
X00025982Y00036811D01*
X00025956Y00036645D01*
X00025947Y00036478D01*
X00025940Y00036307D01*
X00025920Y00036138D01*
X00025886Y00035970D01*
X00025839Y00035806D01*
X00025779Y00035646D01*
X00025707Y00035491D01*
X00025623Y00035342D01*
X00025527Y00035201D01*
X00025420Y00035067D01*
X00025303Y00034943D01*
X00025177Y00034828D01*
X00025042Y00034723D01*
X00024899Y00034630D01*
X00024749Y00034548D01*
X00024593Y00034478D01*
X00024442Y00034412D01*
X00024292Y00034342D01*
X00024144Y00034269D01*
X00023998Y00034192D01*
X00023854Y00034113D01*
X00023711Y00034030D01*
X00023570Y00033944D01*
X00023431Y00033855D01*
X00023294Y00033763D01*
X00023159Y00033668D01*
X00023026Y00033570D01*
X00022896Y00033469D01*
X00022767Y00033366D01*
X00022641Y00033259D01*
X00022517Y00033150D01*
X00022396Y00033038D01*
X00022277Y00032923D01*
X00022161Y00032806D01*
X00022048Y00032687D01*
X00021937Y00032565D01*
X00021828Y00032440D01*
X00021723Y00032313D01*
X00021620Y00032184D01*
X00021520Y00032053D01*
X00021423Y00031919D01*
X00021330Y00031783D01*
X00021239Y00031646D01*
X00021151Y00031506D01*
X00021066Y00031364D01*
X00020984Y00031221D01*
X00020906Y00031076D01*
X00020830Y00030929D01*
X00020758Y00030781D01*
X00020690Y00030631D01*
X00020624Y00030479D01*
X00020562Y00030326D01*
X00020503Y00030172D01*
X00020448Y00030017D01*
X00020396Y00029860D01*
X00020348Y00029702D01*
X00020303Y00029543D01*
X00020261Y00029384D01*
X00020223Y00029223D01*
X00020189Y00029062D01*
X00020158Y00028900D01*
X00020131Y00028737D01*
X00020107Y00028574D01*
X00020089Y00028429D01*
X00020085Y00028401D01*
X00020079Y00028374D01*
X00020071Y00028347D01*
X00020061Y00028322D01*
X00020049Y00028296D01*
X00020035Y00028272D01*
X00020020Y00028249D01*
X00020003Y00028227D01*
X00019984Y00028206D01*
X00019965Y00028186D01*
X00019943Y00028168D01*
X00019921Y00028152D01*
X00019898Y00028137D01*
X00019873Y00028124D01*
X00019848Y00028112D01*
X00019821Y00028103D01*
X00019795Y00028095D01*
X00019768Y00028089D01*
X00019740Y00028085D01*
X00019712Y00028083D01*
X00018876Y00028055D01*
X00018847Y00028055D01*
X00018817Y00028057D01*
X00018788Y00028062D01*
X00018759Y00028068D01*
X00018731Y00028077D01*
X00018703Y00028088D01*
X00018677Y00028101D01*
X00018651Y00028116D01*
X00018627Y00028133D01*
X00018604Y00028152D01*
X00018582Y00028172D01*
X00018562Y00028194D01*
X00018544Y00028217D01*
X00018527Y00028242D01*
X00018513Y00028268D01*
X00018500Y00028294D01*
X00018490Y00028322D01*
X00018481Y00028350D01*
X00018475Y00028379D01*
X00018471Y00028409D01*
X00018471Y00028410D01*
X00018451Y00028574D01*
X00018427Y00028737D01*
X00018400Y00028900D01*
X00018369Y00029062D01*
X00018335Y00029223D01*
X00018297Y00029384D01*
X00018255Y00029543D01*
X00018210Y00029702D01*
X00018162Y00029860D01*
X00018110Y00030017D01*
X00018055Y00030172D01*
X00017996Y00030326D01*
X00017934Y00030479D01*
X00017868Y00030631D01*
X00017800Y00030781D01*
X00017728Y00030929D01*
X00017652Y00031076D01*
X00017574Y00031221D01*
X00017492Y00031364D01*
X00017407Y00031506D01*
X00017319Y00031646D01*
X00017229Y00031783D01*
X00017135Y00031919D01*
X00017038Y00032053D01*
X00016938Y00032184D01*
X00016835Y00032313D01*
X00016730Y00032440D01*
X00016621Y00032564D01*
X00016510Y00032687D01*
X00016397Y00032806D01*
X00016281Y00032923D01*
X00016162Y00033038D01*
X00016041Y00033150D01*
X00015917Y00033259D01*
X00015791Y00033366D01*
X00015662Y00033469D01*
X00015532Y00033570D01*
X00015399Y00033668D01*
X00015264Y00033763D01*
X00015127Y00033855D01*
X00014988Y00033944D01*
X00014847Y00034030D01*
X00014705Y00034113D01*
X00014560Y00034192D01*
X00014414Y00034269D01*
X00014266Y00034342D01*
X00014116Y00034412D01*
X00013965Y00034478D01*
X00013965Y00034478D01*
X00013809Y00034548D01*
X00013659Y00034630D01*
X00013516Y00034723D01*
X00013381Y00034828D01*
X00013255Y00034943D01*
X00013138Y00035067D01*
X00013031Y00035201D01*
X00012935Y00035342D01*
X00012851Y00035491D01*
X00012779Y00035646D01*
X00012719Y00035806D01*
X00012672Y00035970D01*
X00012638Y00036138D01*
X00012618Y00036307D01*
X00012611Y00036478D01*
X00012603Y00036645D01*
X00012576Y00036811D01*
X00012533Y00036973D01*
X00012473Y00037129D01*
X00012397Y00037278D01*
X00012306Y00037419D01*
X00012200Y00037549D01*
X00012082Y00037667D01*
X00011952Y00037773D01*
X00011811Y00037864D01*
X00011662Y00037940D01*
X00011506Y00038000D01*
X00011344Y00038043D01*
X00011179Y00038069D01*
X00011011Y00038078D01*
X00010844Y00038069D01*
X00010679Y00038043D01*
X00010517Y00038000D01*
X00010361Y00037940D01*
X00010211Y00037864D01*
X00010071Y00037773D01*
X00009941Y00037667D01*
X00009822Y00037549D01*
X00009717Y00037419D01*
X00009626Y00037278D01*
X00009550Y00037129D01*
X00009490Y00036973D01*
X00009446Y00036811D01*
X00009420Y00036645D01*
X00009411Y00036478D01*
X00009405Y00036307D01*
X00009384Y00036138D01*
X00009351Y00035970D01*
X00009304Y00035806D01*
X00009244Y00035646D01*
X00009172Y00035491D01*
X00009087Y00035342D01*
X00008992Y00035201D01*
X00008885Y00035067D01*
X00008768Y00034943D01*
X00008641Y00034828D01*
X00008506Y00034723D01*
X00008363Y00034630D01*
X00008213Y00034548D01*
X00008057Y00034478D01*
X00007906Y00034412D01*
X00007757Y00034342D01*
X00007609Y00034269D01*
X00007463Y00034192D01*
X00007318Y00034113D01*
X00007175Y00034030D01*
X00007034Y00033944D01*
X00006896Y00033855D01*
X00006759Y00033763D01*
X00006624Y00033668D01*
X00006491Y00033570D01*
X00006360Y00033469D01*
X00006232Y00033366D01*
X00006106Y00033259D01*
X00005982Y00033150D01*
X00005861Y00033038D01*
X00005742Y00032923D01*
X00005626Y00032806D01*
X00005512Y00032687D01*
X00005401Y00032565D01*
X00005293Y00032440D01*
X00005187Y00032313D01*
X00005085Y00032184D01*
X00004985Y00032053D01*
X00004888Y00031919D01*
X00004794Y00031783D01*
X00004703Y00031646D01*
X00004615Y00031506D01*
X00004530Y00031364D01*
X00004449Y00031221D01*
X00004370Y00031076D01*
X00004295Y00030929D01*
X00004223Y00030781D01*
X00004154Y00030631D01*
X00004089Y00030479D01*
X00004027Y00030326D01*
X00003968Y00030172D01*
X00003913Y00030017D01*
X00003861Y00029860D01*
X00003812Y00029702D01*
X00003767Y00029543D01*
X00003726Y00029384D01*
X00003688Y00029223D01*
X00003654Y00029062D01*
X00003623Y00028900D01*
X00003596Y00028737D01*
X00003572Y00028574D01*
X00003554Y00028429D01*
M02*