%
M48
METRIC,000.000
T01C0.50
%
T01
X008776Y072211
X008691Y071215
X008657Y070215
X008673Y069215
X008743Y068218
X005250Y067607
X005250Y068607
X005250Y069607
X005250Y070607
X005250Y071607
X029576Y046654
X028614Y046916
X027617Y046951
X026639Y046759
X029178Y050774
X030174Y050862
X026466Y050794
X027465Y050742
X008776Y022211
X008691Y021215
X008657Y020215
X008673Y019215
X008743Y018218
X005250Y017607
X005250Y018607
X005250Y019607
X005250Y020607
X005250Y021607
X047167Y067925
X047250Y068921
X047283Y069920
X047264Y070920
X047193Y071917
X050776Y072211
X050691Y071215
X050657Y070215
X050673Y069215
X050743Y068218
X047167Y017925
X047250Y018921
X047283Y019920
X047264Y020920
X047193Y021917
X050776Y022211
X050691Y021215
X050657Y020215
X050673Y019215
X050743Y018218
X071576Y046654
X070614Y046916
X069617Y046951
X068639Y046759
X071178Y050774
X072174Y050862
X068466Y050794
X069465Y050742
X089167Y067925
X089250Y068921
X089283Y069920
X089264Y070920
X089193Y071917
X092750Y072178
X092750Y071178
X092750Y070178
X092750Y069178
X092750Y068178
X089167Y017925
X089250Y018921
X089283Y019920
X089264Y020920
X089193Y021917
X092750Y022178
X092750Y021178
X092750Y020178
X092750Y019178
X092750Y018178
M30