%MOIN*%
%OFA0B0*%
%FSLAX46Y46*%
%IPPOS*%
%LPD*%
%ADD10C,0.22047244094488189*%
%ADD11C,0.01*%
%ADD22C,0.22047244094488189*%
%ADD23C,0.01*%
%ADD24C,0.22047244094488189*%
%ADD25C,0.01*%
%ADD26C,0.22047244094488189*%
%ADD27C,0.01*%
%ADD28C,0.11811023622047245*%
%ADD29C,0.01*%
%ADD30C,0.11811023622047245*%
%ADD31C,0.01*%
D10*
X-0004409448Y0005039370D02*
X0001140551Y0001679370D03*
D11*
G36*
X0001173803Y0001508600D02*
G01*
X0001206983Y0001506297D01*
X0001240024Y0001502464D01*
X0001272850Y0001497109D01*
X0001305394Y0001490244D01*
X0001337588Y0001481883D01*
X0001369360Y0001472044D01*
X0001400644Y0001460748D01*
X0001431373Y0001448020D01*
X0001461482Y0001433886D01*
X0001490905Y0001418376D01*
X0001519581Y0001401525D01*
X0001547448Y0001383367D01*
X0001574447Y0001363941D01*
X0001600519Y0001343289D01*
X0001625611Y0001321455D01*
X0001649667Y0001298485D01*
X0001672636Y0001274430D01*
X0001694470Y0001249338D01*
X0001715122Y0001223266D01*
X0001734548Y0001196267D01*
X0001752706Y0001168400D01*
X0001769557Y0001139724D01*
X0001785067Y0001110300D01*
X0001799201Y0001080192D01*
X0001811930Y0001049463D01*
X0001823225Y0001018179D01*
X0001833064Y0000986407D01*
X0001841425Y0000954213D01*
X0001848290Y0000921669D01*
X0001853645Y0000888842D01*
X0001857478Y0000855802D01*
X0001859781Y0000822622D01*
X0001860549Y0000789370D01*
X0001859781Y0000756118D01*
X0001857478Y0000722937D01*
X0001853645Y0000689897D01*
X0001848290Y0000657070D01*
X0001841425Y0000624526D01*
X0001833064Y0000592332D01*
X0001823225Y0000560561D01*
X0001811930Y0000529276D01*
X0001799201Y0000498547D01*
X0001785067Y0000468439D01*
X0001769557Y0000439015D01*
X0001752706Y0000410339D01*
X0001734548Y0000382472D01*
X0001715122Y0000355473D01*
X0001694470Y0000329401D01*
X0001672636Y0000304310D01*
X0001649667Y0000280254D01*
X0001625611Y0000257284D01*
X0001600519Y0000235450D01*
X0001574447Y0000214798D01*
X0001547448Y0000195372D01*
X0001519581Y0000177215D01*
X0001490905Y0000160363D01*
X0001461482Y0000144853D01*
X0001431373Y0000130719D01*
X0001400644Y0000117991D01*
X0001369360Y0000106695D01*
X0001337588Y0000096857D01*
X0001305394Y0000088495D01*
X0001272850Y0000081630D01*
X0001240024Y0000076275D01*
X0001206983Y0000072442D01*
X0001173803Y0000070139D01*
X0001140551Y0000069371D01*
X0001107299Y0000070139D01*
X0001074118Y0000072442D01*
X0001041078Y0000076275D01*
X0001008251Y0000081630D01*
X0000975707Y0000088495D01*
X0000943513Y0000096857D01*
X0000911742Y0000106695D01*
X0000880457Y0000117991D01*
X0000849728Y0000130719D01*
X0000819620Y0000144853D01*
X0000790196Y0000160363D01*
X0000761520Y0000177215D01*
X0000733653Y0000195372D01*
X0000706654Y0000214798D01*
X0000680582Y0000235450D01*
X0000655491Y0000257284D01*
X0000631435Y0000280254D01*
X0000608465Y0000304310D01*
X0000586631Y0000329401D01*
X0000565979Y0000355473D01*
X0000546553Y0000382472D01*
X0000528396Y0000410339D01*
X0000511544Y0000439015D01*
X0000496034Y0000468439D01*
X0000481900Y0000498547D01*
X0000469172Y0000529276D01*
X0000457876Y0000560561D01*
X0000448038Y0000592332D01*
X0000439676Y0000624526D01*
X0000432811Y0000657070D01*
X0000427457Y0000689897D01*
X0000423623Y0000722937D01*
X0000421320Y0000756118D01*
X0000420552Y0000789370D01*
X0000421320Y0000822622D01*
X0000423623Y0000855802D01*
X0000427457Y0000888842D01*
X0000432811Y0000921669D01*
X0000439676Y0000954213D01*
X0000448038Y0000986407D01*
X0000457876Y0001018179D01*
X0000469172Y0001049463D01*
X0000481900Y0001080192D01*
X0000496034Y0001110300D01*
X0000511544Y0001139724D01*
X0000528396Y0001168400D01*
X0000546553Y0001196267D01*
X0000565979Y0001223266D01*
X0000586631Y0001249338D01*
X0000608465Y0001274430D01*
X0000631435Y0001298485D01*
X0000655491Y0001321455D01*
X0000680582Y0001343289D01*
X0000706654Y0001363941D01*
X0000733653Y0001383367D01*
X0000761520Y0001401525D01*
X0000790196Y0001418376D01*
X0000819620Y0001433886D01*
X0000849728Y0001448020D01*
X0000880457Y0001460748D01*
X0000911742Y0001472044D01*
X0000943513Y0001481883D01*
X0000975707Y0001490244D01*
X0001008251Y0001497109D01*
X0001041078Y0001502464D01*
X0001074118Y0001506297D01*
X0001107299Y0001508600D01*
X0001140551Y0001509368D01*
X0001173803Y0001508600D01*
X0001173803Y0001508600D01*
G37*
X0001173803Y0001508600D02*
X0001206983Y0001506297D01*
X0001240024Y0001502464D01*
X0001272850Y0001497109D01*
X0001305394Y0001490244D01*
X0001337588Y0001481883D01*
X0001369360Y0001472044D01*
X0001400644Y0001460748D01*
X0001431373Y0001448020D01*
X0001461482Y0001433886D01*
X0001490905Y0001418376D01*
X0001519581Y0001401525D01*
X0001547448Y0001383367D01*
X0001574447Y0001363941D01*
X0001600519Y0001343289D01*
X0001625611Y0001321455D01*
X0001649667Y0001298485D01*
X0001672636Y0001274430D01*
X0001694470Y0001249338D01*
X0001715122Y0001223266D01*
X0001734548Y0001196267D01*
X0001752706Y0001168400D01*
X0001769557Y0001139724D01*
X0001785067Y0001110300D01*
X0001799201Y0001080192D01*
X0001811930Y0001049463D01*
X0001823225Y0001018179D01*
X0001833064Y0000986407D01*
X0001841425Y0000954213D01*
X0001848290Y0000921669D01*
X0001853645Y0000888842D01*
X0001857478Y0000855802D01*
X0001859781Y0000822622D01*
X0001860549Y0000789370D01*
X0001859781Y0000756118D01*
X0001857478Y0000722937D01*
X0001853645Y0000689897D01*
X0001848290Y0000657070D01*
X0001841425Y0000624526D01*
X0001833064Y0000592332D01*
X0001823225Y0000560561D01*
X0001811930Y0000529276D01*
X0001799201Y0000498547D01*
X0001785067Y0000468439D01*
X0001769557Y0000439015D01*
X0001752706Y0000410339D01*
X0001734548Y0000382472D01*
X0001715122Y0000355473D01*
X0001694470Y0000329401D01*
X0001672636Y0000304310D01*
X0001649667Y0000280254D01*
X0001625611Y0000257284D01*
X0001600519Y0000235450D01*
X0001574447Y0000214798D01*
X0001547448Y0000195372D01*
X0001519581Y0000177215D01*
X0001490905Y0000160363D01*
X0001461482Y0000144853D01*
X0001431373Y0000130719D01*
X0001400644Y0000117991D01*
X0001369360Y0000106695D01*
X0001337588Y0000096857D01*
X0001305394Y0000088495D01*
X0001272850Y0000081630D01*
X0001240024Y0000076275D01*
X0001206983Y0000072442D01*
X0001173803Y0000070139D01*
X0001140551Y0000069371D01*
X0001107299Y0000070139D01*
X0001074118Y0000072442D01*
X0001041078Y0000076275D01*
X0001008251Y0000081630D01*
X0000975707Y0000088495D01*
X0000943513Y0000096857D01*
X0000911742Y0000106695D01*
X0000880457Y0000117991D01*
X0000849728Y0000130719D01*
X0000819620Y0000144853D01*
X0000790196Y0000160363D01*
X0000761520Y0000177215D01*
X0000733653Y0000195372D01*
X0000706654Y0000214798D01*
X0000680582Y0000235450D01*
X0000655491Y0000257284D01*
X0000631435Y0000280254D01*
X0000608465Y0000304310D01*
X0000586631Y0000329401D01*
X0000565979Y0000355473D01*
X0000546553Y0000382472D01*
X0000528396Y0000410339D01*
X0000511544Y0000439015D01*
X0000496034Y0000468439D01*
X0000481900Y0000498547D01*
X0000469172Y0000529276D01*
X0000457876Y0000560561D01*
X0000448038Y0000592332D01*
X0000439676Y0000624526D01*
X0000432811Y0000657070D01*
X0000427457Y0000689897D01*
X0000423623Y0000722937D01*
X0000421320Y0000756118D01*
X0000420552Y0000789370D01*
X0000421320Y0000822622D01*
X0000423623Y0000855802D01*
X0000427457Y0000888842D01*
X0000432811Y0000921669D01*
X0000439676Y0000954213D01*
X0000448038Y0000986407D01*
X0000457876Y0001018179D01*
X0000469172Y0001049463D01*
X0000481900Y0001080192D01*
X0000496034Y0001110300D01*
X0000511544Y0001139724D01*
X0000528396Y0001168400D01*
X0000546553Y0001196267D01*
X0000565979Y0001223266D01*
X0000586631Y0001249338D01*
X0000608465Y0001274430D01*
X0000631435Y0001298485D01*
X0000655491Y0001321455D01*
X0000680582Y0001343289D01*
X0000706654Y0001363941D01*
X0000733653Y0001383367D01*
X0000761520Y0001401525D01*
X0000790196Y0001418376D01*
X0000819620Y0001433886D01*
X0000849728Y0001448020D01*
X0000880457Y0001460748D01*
X0000911742Y0001472044D01*
X0000943513Y0001481883D01*
X0000975707Y0001490244D01*
X0001008251Y0001497109D01*
X0001041078Y0001502464D01*
X0001074118Y0001506297D01*
X0001107299Y0001508600D01*
X0001140551Y0001509368D01*
X0001173803Y0001508600D01*
G04 next file*
G04 #@! TF.GenerationSoftware,KiCad,Pcbnew,(5.1.4)-1*
G04 #@! TF.CreationDate,2019-08-25T10:21:43-07:00*
G04 #@! TF.ProjectId,mudd_keychain,6d756464-5f6b-4657-9963-6861696e2e6b,A*
G04 #@! TF.SameCoordinates,Original*
G04 #@! TF.FileFunction,Copper,L1,Top*
G04 #@! TF.FilePolarity,Positive*
G04 Gerber Fmt 4.6, Leading zero omitted, Abs format (unit mm)*
G04 Created by KiCad (PCBNEW (5.1.4)-1) date 2019-08-25 10:21:43*
G04 APERTURE LIST*
G04 APERTURE END LIST*
D22*
X-0002755905Y0005039370D02*
X0002794094Y0001679370D03*
D23*
G36*
X0002827346Y0001508600D02*
G01*
X0002860527Y0001506297D01*
X0002893567Y0001502464D01*
X0002926393Y0001497109D01*
X0002958938Y0001490244D01*
X0002991132Y0001481883D01*
X0003022903Y0001472044D01*
X0003054187Y0001460748D01*
X0003084917Y0001448020D01*
X0003115025Y0001433886D01*
X0003144449Y0001418376D01*
X0003173125Y0001401525D01*
X0003200991Y0001383367D01*
X0003227990Y0001363941D01*
X0003254063Y0001343289D01*
X0003279154Y0001321455D01*
X0003303210Y0001298485D01*
X0003326179Y0001274430D01*
X0003348014Y0001249338D01*
X0003368665Y0001223266D01*
X0003388091Y0001196267D01*
X0003406249Y0001168400D01*
X0003423101Y0001139724D01*
X0003438610Y0001110300D01*
X0003452744Y0001080192D01*
X0003465473Y0001049463D01*
X0003476769Y0001018179D01*
X0003486607Y0000986407D01*
X0003494968Y0000954213D01*
X0003501833Y0000921669D01*
X0003507188Y0000888842D01*
X0003511021Y0000855802D01*
X0003513324Y0000822622D01*
X0003514093Y0000789370D01*
X0003513324Y0000756118D01*
X0003511021Y0000722937D01*
X0003507188Y0000689897D01*
X0003501833Y0000657070D01*
X0003494968Y0000624526D01*
X0003486607Y0000592332D01*
X0003476769Y0000560561D01*
X0003465473Y0000529276D01*
X0003452744Y0000498547D01*
X0003438610Y0000468439D01*
X0003423101Y0000439015D01*
X0003406249Y0000410339D01*
X0003388091Y0000382472D01*
X0003368665Y0000355473D01*
X0003348014Y0000329401D01*
X0003326179Y0000304310D01*
X0003303210Y0000280254D01*
X0003279154Y0000257284D01*
X0003254063Y0000235450D01*
X0003227990Y0000214798D01*
X0003200991Y0000195372D01*
X0003173125Y0000177215D01*
X0003144449Y0000160363D01*
X0003115025Y0000144853D01*
X0003084917Y0000130719D01*
X0003054187Y0000117991D01*
X0003022903Y0000106695D01*
X0002991132Y0000096857D01*
X0002958938Y0000088495D01*
X0002926393Y0000081630D01*
X0002893567Y0000076275D01*
X0002860527Y0000072442D01*
X0002827346Y0000070139D01*
X0002794094Y0000069371D01*
X0002760842Y0000070139D01*
X0002727661Y0000072442D01*
X0002694621Y0000076275D01*
X0002661795Y0000081630D01*
X0002629250Y0000088495D01*
X0002597056Y0000096857D01*
X0002565285Y0000106695D01*
X0002534001Y0000117991D01*
X0002503271Y0000130719D01*
X0002473163Y0000144853D01*
X0002443739Y0000160363D01*
X0002415063Y0000177215D01*
X0002387197Y0000195372D01*
X0002360198Y0000214798D01*
X0002334125Y0000235450D01*
X0002309034Y0000257284D01*
X0002284978Y0000280254D01*
X0002262009Y0000304310D01*
X0002240174Y0000329401D01*
X0002219523Y0000355473D01*
X0002200097Y0000382472D01*
X0002181939Y0000410339D01*
X0002165087Y0000439015D01*
X0002149578Y0000468439D01*
X0002135444Y0000498547D01*
X0002122715Y0000529276D01*
X0002111419Y0000560561D01*
X0002101581Y0000592332D01*
X0002093220Y0000624526D01*
X0002086355Y0000657070D01*
X0002081000Y0000689897D01*
X0002077167Y0000722937D01*
X0002074864Y0000756118D01*
X0002074095Y0000789370D01*
X0002074864Y0000822622D01*
X0002077167Y0000855802D01*
X0002081000Y0000888842D01*
X0002086355Y0000921669D01*
X0002093220Y0000954213D01*
X0002101581Y0000986407D01*
X0002111419Y0001018179D01*
X0002122715Y0001049463D01*
X0002135444Y0001080192D01*
X0002149578Y0001110300D01*
X0002165087Y0001139724D01*
X0002181939Y0001168400D01*
X0002200097Y0001196267D01*
X0002219523Y0001223266D01*
X0002240174Y0001249338D01*
X0002262009Y0001274430D01*
X0002284978Y0001298485D01*
X0002309034Y0001321455D01*
X0002334125Y0001343289D01*
X0002360198Y0001363941D01*
X0002387197Y0001383367D01*
X0002415063Y0001401525D01*
X0002443739Y0001418376D01*
X0002473163Y0001433886D01*
X0002503271Y0001448020D01*
X0002534001Y0001460748D01*
X0002565285Y0001472044D01*
X0002597056Y0001481883D01*
X0002629250Y0001490244D01*
X0002661795Y0001497109D01*
X0002694621Y0001502464D01*
X0002727661Y0001506297D01*
X0002760842Y0001508600D01*
X0002794094Y0001509368D01*
X0002827346Y0001508600D01*
X0002827346Y0001508600D01*
G37*
X0002827346Y0001508600D02*
X0002860527Y0001506297D01*
X0002893567Y0001502464D01*
X0002926393Y0001497109D01*
X0002958938Y0001490244D01*
X0002991132Y0001481883D01*
X0003022903Y0001472044D01*
X0003054187Y0001460748D01*
X0003084917Y0001448020D01*
X0003115025Y0001433886D01*
X0003144449Y0001418376D01*
X0003173125Y0001401525D01*
X0003200991Y0001383367D01*
X0003227990Y0001363941D01*
X0003254063Y0001343289D01*
X0003279154Y0001321455D01*
X0003303210Y0001298485D01*
X0003326179Y0001274430D01*
X0003348014Y0001249338D01*
X0003368665Y0001223266D01*
X0003388091Y0001196267D01*
X0003406249Y0001168400D01*
X0003423101Y0001139724D01*
X0003438610Y0001110300D01*
X0003452744Y0001080192D01*
X0003465473Y0001049463D01*
X0003476769Y0001018179D01*
X0003486607Y0000986407D01*
X0003494968Y0000954213D01*
X0003501833Y0000921669D01*
X0003507188Y0000888842D01*
X0003511021Y0000855802D01*
X0003513324Y0000822622D01*
X0003514093Y0000789370D01*
X0003513324Y0000756118D01*
X0003511021Y0000722937D01*
X0003507188Y0000689897D01*
X0003501833Y0000657070D01*
X0003494968Y0000624526D01*
X0003486607Y0000592332D01*
X0003476769Y0000560561D01*
X0003465473Y0000529276D01*
X0003452744Y0000498547D01*
X0003438610Y0000468439D01*
X0003423101Y0000439015D01*
X0003406249Y0000410339D01*
X0003388091Y0000382472D01*
X0003368665Y0000355473D01*
X0003348014Y0000329401D01*
X0003326179Y0000304310D01*
X0003303210Y0000280254D01*
X0003279154Y0000257284D01*
X0003254063Y0000235450D01*
X0003227990Y0000214798D01*
X0003200991Y0000195372D01*
X0003173125Y0000177215D01*
X0003144449Y0000160363D01*
X0003115025Y0000144853D01*
X0003084917Y0000130719D01*
X0003054187Y0000117991D01*
X0003022903Y0000106695D01*
X0002991132Y0000096857D01*
X0002958938Y0000088495D01*
X0002926393Y0000081630D01*
X0002893567Y0000076275D01*
X0002860527Y0000072442D01*
X0002827346Y0000070139D01*
X0002794094Y0000069371D01*
X0002760842Y0000070139D01*
X0002727661Y0000072442D01*
X0002694621Y0000076275D01*
X0002661795Y0000081630D01*
X0002629250Y0000088495D01*
X0002597056Y0000096857D01*
X0002565285Y0000106695D01*
X0002534001Y0000117991D01*
X0002503271Y0000130719D01*
X0002473163Y0000144853D01*
X0002443739Y0000160363D01*
X0002415063Y0000177215D01*
X0002387197Y0000195372D01*
X0002360198Y0000214798D01*
X0002334125Y0000235450D01*
X0002309034Y0000257284D01*
X0002284978Y0000280254D01*
X0002262009Y0000304310D01*
X0002240174Y0000329401D01*
X0002219523Y0000355473D01*
X0002200097Y0000382472D01*
X0002181939Y0000410339D01*
X0002165087Y0000439015D01*
X0002149578Y0000468439D01*
X0002135444Y0000498547D01*
X0002122715Y0000529276D01*
X0002111419Y0000560561D01*
X0002101581Y0000592332D01*
X0002093220Y0000624526D01*
X0002086355Y0000657070D01*
X0002081000Y0000689897D01*
X0002077167Y0000722937D01*
X0002074864Y0000756118D01*
X0002074095Y0000789370D01*
X0002074864Y0000822622D01*
X0002077167Y0000855802D01*
X0002081000Y0000888842D01*
X0002086355Y0000921669D01*
X0002093220Y0000954213D01*
X0002101581Y0000986407D01*
X0002111419Y0001018179D01*
X0002122715Y0001049463D01*
X0002135444Y0001080192D01*
X0002149578Y0001110300D01*
X0002165087Y0001139724D01*
X0002181939Y0001168400D01*
X0002200097Y0001196267D01*
X0002219523Y0001223266D01*
X0002240174Y0001249338D01*
X0002262009Y0001274430D01*
X0002284978Y0001298485D01*
X0002309034Y0001321455D01*
X0002334125Y0001343289D01*
X0002360198Y0001363941D01*
X0002387197Y0001383367D01*
X0002415063Y0001401525D01*
X0002443739Y0001418376D01*
X0002473163Y0001433886D01*
X0002503271Y0001448020D01*
X0002534001Y0001460748D01*
X0002565285Y0001472044D01*
X0002597056Y0001481883D01*
X0002629250Y0001490244D01*
X0002661795Y0001497109D01*
X0002694621Y0001502464D01*
X0002727661Y0001506297D01*
X0002760842Y0001508600D01*
X0002794094Y0001509368D01*
X0002827346Y0001508600D01*
G04 next file*
G04 #@! TF.GenerationSoftware,KiCad,Pcbnew,(5.1.4)-1*
G04 #@! TF.CreationDate,2019-08-25T10:21:43-07:00*
G04 #@! TF.ProjectId,mudd_keychain,6d756464-5f6b-4657-9963-6861696e2e6b,A*
G04 #@! TF.SameCoordinates,Original*
G04 #@! TF.FileFunction,Copper,L1,Top*
G04 #@! TF.FilePolarity,Positive*
G04 Gerber Fmt 4.6, Leading zero omitted, Abs format (unit mm)*
G04 Created by KiCad (PCBNEW (5.1.4)-1) date 2019-08-25 10:21:43*
G04 APERTURE LIST*
G04 APERTURE END LIST*
D24*
X-0004409448Y0007007874D02*
X0001140551Y0003647874D03*
D25*
G36*
X0001173803Y0003477104D02*
G01*
X0001206983Y0003474801D01*
X0001240024Y0003470968D01*
X0001272850Y0003465613D01*
X0001305394Y0003458748D01*
X0001337588Y0003450387D01*
X0001369360Y0003440548D01*
X0001400644Y0003429252D01*
X0001431373Y0003416524D01*
X0001461482Y0003402390D01*
X0001490905Y0003386880D01*
X0001519581Y0003370029D01*
X0001547448Y0003351871D01*
X0001574447Y0003332445D01*
X0001600519Y0003311793D01*
X0001625611Y0003289959D01*
X0001649667Y0003266989D01*
X0001672636Y0003242934D01*
X0001694470Y0003217842D01*
X0001715122Y0003191770D01*
X0001734548Y0003164771D01*
X0001752706Y0003136904D01*
X0001769557Y0003108228D01*
X0001785067Y0003078804D01*
X0001799201Y0003048696D01*
X0001811930Y0003017967D01*
X0001823225Y0002986683D01*
X0001833064Y0002954911D01*
X0001841425Y0002922717D01*
X0001848290Y0002890173D01*
X0001853645Y0002857346D01*
X0001857478Y0002824306D01*
X0001859781Y0002791126D01*
X0001860549Y0002757874D01*
X0001859781Y0002724621D01*
X0001857478Y0002691441D01*
X0001853645Y0002658401D01*
X0001848290Y0002625574D01*
X0001841425Y0002593030D01*
X0001833064Y0002560836D01*
X0001823225Y0002529065D01*
X0001811930Y0002497780D01*
X0001799201Y0002467051D01*
X0001785067Y0002436943D01*
X0001769557Y0002407519D01*
X0001752706Y0002378843D01*
X0001734548Y0002350976D01*
X0001715122Y0002323977D01*
X0001694470Y0002297905D01*
X0001672636Y0002272814D01*
X0001649667Y0002248758D01*
X0001625611Y0002225788D01*
X0001600519Y0002203954D01*
X0001574447Y0002183302D01*
X0001547448Y0002163876D01*
X0001519581Y0002145718D01*
X0001490905Y0002128867D01*
X0001461482Y0002113357D01*
X0001431373Y0002099223D01*
X0001400644Y0002086495D01*
X0001369360Y0002075199D01*
X0001337588Y0002065360D01*
X0001305394Y0002056999D01*
X0001272850Y0002050134D01*
X0001240024Y0002044779D01*
X0001206983Y0002040946D01*
X0001173803Y0002038643D01*
X0001140551Y0002037875D01*
X0001107299Y0002038643D01*
X0001074118Y0002040946D01*
X0001041078Y0002044779D01*
X0001008251Y0002050134D01*
X0000975707Y0002056999D01*
X0000943513Y0002065360D01*
X0000911742Y0002075199D01*
X0000880457Y0002086495D01*
X0000849728Y0002099223D01*
X0000819620Y0002113357D01*
X0000790196Y0002128867D01*
X0000761520Y0002145718D01*
X0000733653Y0002163876D01*
X0000706654Y0002183302D01*
X0000680582Y0002203954D01*
X0000655491Y0002225788D01*
X0000631435Y0002248758D01*
X0000608465Y0002272814D01*
X0000586631Y0002297905D01*
X0000565979Y0002323977D01*
X0000546553Y0002350976D01*
X0000528396Y0002378843D01*
X0000511544Y0002407519D01*
X0000496034Y0002436943D01*
X0000481900Y0002467051D01*
X0000469172Y0002497780D01*
X0000457876Y0002529065D01*
X0000448038Y0002560836D01*
X0000439676Y0002593030D01*
X0000432811Y0002625574D01*
X0000427457Y0002658401D01*
X0000423623Y0002691441D01*
X0000421320Y0002724621D01*
X0000420552Y0002757874D01*
X0000421320Y0002791126D01*
X0000423623Y0002824306D01*
X0000427457Y0002857346D01*
X0000432811Y0002890173D01*
X0000439676Y0002922717D01*
X0000448038Y0002954911D01*
X0000457876Y0002986683D01*
X0000469172Y0003017967D01*
X0000481900Y0003048696D01*
X0000496034Y0003078804D01*
X0000511544Y0003108228D01*
X0000528396Y0003136904D01*
X0000546553Y0003164771D01*
X0000565979Y0003191770D01*
X0000586631Y0003217842D01*
X0000608465Y0003242934D01*
X0000631435Y0003266989D01*
X0000655491Y0003289959D01*
X0000680582Y0003311793D01*
X0000706654Y0003332445D01*
X0000733653Y0003351871D01*
X0000761520Y0003370029D01*
X0000790196Y0003386880D01*
X0000819620Y0003402390D01*
X0000849728Y0003416524D01*
X0000880457Y0003429252D01*
X0000911742Y0003440548D01*
X0000943513Y0003450387D01*
X0000975707Y0003458748D01*
X0001008251Y0003465613D01*
X0001041078Y0003470968D01*
X0001074118Y0003474801D01*
X0001107299Y0003477104D01*
X0001140551Y0003477872D01*
X0001173803Y0003477104D01*
X0001173803Y0003477104D01*
G37*
X0001173803Y0003477104D02*
X0001206983Y0003474801D01*
X0001240024Y0003470968D01*
X0001272850Y0003465613D01*
X0001305394Y0003458748D01*
X0001337588Y0003450387D01*
X0001369360Y0003440548D01*
X0001400644Y0003429252D01*
X0001431373Y0003416524D01*
X0001461482Y0003402390D01*
X0001490905Y0003386880D01*
X0001519581Y0003370029D01*
X0001547448Y0003351871D01*
X0001574447Y0003332445D01*
X0001600519Y0003311793D01*
X0001625611Y0003289959D01*
X0001649667Y0003266989D01*
X0001672636Y0003242934D01*
X0001694470Y0003217842D01*
X0001715122Y0003191770D01*
X0001734548Y0003164771D01*
X0001752706Y0003136904D01*
X0001769557Y0003108228D01*
X0001785067Y0003078804D01*
X0001799201Y0003048696D01*
X0001811930Y0003017967D01*
X0001823225Y0002986683D01*
X0001833064Y0002954911D01*
X0001841425Y0002922717D01*
X0001848290Y0002890173D01*
X0001853645Y0002857346D01*
X0001857478Y0002824306D01*
X0001859781Y0002791126D01*
X0001860549Y0002757874D01*
X0001859781Y0002724621D01*
X0001857478Y0002691441D01*
X0001853645Y0002658401D01*
X0001848290Y0002625574D01*
X0001841425Y0002593030D01*
X0001833064Y0002560836D01*
X0001823225Y0002529065D01*
X0001811930Y0002497780D01*
X0001799201Y0002467051D01*
X0001785067Y0002436943D01*
X0001769557Y0002407519D01*
X0001752706Y0002378843D01*
X0001734548Y0002350976D01*
X0001715122Y0002323977D01*
X0001694470Y0002297905D01*
X0001672636Y0002272814D01*
X0001649667Y0002248758D01*
X0001625611Y0002225788D01*
X0001600519Y0002203954D01*
X0001574447Y0002183302D01*
X0001547448Y0002163876D01*
X0001519581Y0002145718D01*
X0001490905Y0002128867D01*
X0001461482Y0002113357D01*
X0001431373Y0002099223D01*
X0001400644Y0002086495D01*
X0001369360Y0002075199D01*
X0001337588Y0002065360D01*
X0001305394Y0002056999D01*
X0001272850Y0002050134D01*
X0001240024Y0002044779D01*
X0001206983Y0002040946D01*
X0001173803Y0002038643D01*
X0001140551Y0002037875D01*
X0001107299Y0002038643D01*
X0001074118Y0002040946D01*
X0001041078Y0002044779D01*
X0001008251Y0002050134D01*
X0000975707Y0002056999D01*
X0000943513Y0002065360D01*
X0000911742Y0002075199D01*
X0000880457Y0002086495D01*
X0000849728Y0002099223D01*
X0000819620Y0002113357D01*
X0000790196Y0002128867D01*
X0000761520Y0002145718D01*
X0000733653Y0002163876D01*
X0000706654Y0002183302D01*
X0000680582Y0002203954D01*
X0000655491Y0002225788D01*
X0000631435Y0002248758D01*
X0000608465Y0002272814D01*
X0000586631Y0002297905D01*
X0000565979Y0002323977D01*
X0000546553Y0002350976D01*
X0000528396Y0002378843D01*
X0000511544Y0002407519D01*
X0000496034Y0002436943D01*
X0000481900Y0002467051D01*
X0000469172Y0002497780D01*
X0000457876Y0002529065D01*
X0000448038Y0002560836D01*
X0000439676Y0002593030D01*
X0000432811Y0002625574D01*
X0000427457Y0002658401D01*
X0000423623Y0002691441D01*
X0000421320Y0002724621D01*
X0000420552Y0002757874D01*
X0000421320Y0002791126D01*
X0000423623Y0002824306D01*
X0000427457Y0002857346D01*
X0000432811Y0002890173D01*
X0000439676Y0002922717D01*
X0000448038Y0002954911D01*
X0000457876Y0002986683D01*
X0000469172Y0003017967D01*
X0000481900Y0003048696D01*
X0000496034Y0003078804D01*
X0000511544Y0003108228D01*
X0000528396Y0003136904D01*
X0000546553Y0003164771D01*
X0000565979Y0003191770D01*
X0000586631Y0003217842D01*
X0000608465Y0003242934D01*
X0000631435Y0003266989D01*
X0000655491Y0003289959D01*
X0000680582Y0003311793D01*
X0000706654Y0003332445D01*
X0000733653Y0003351871D01*
X0000761520Y0003370029D01*
X0000790196Y0003386880D01*
X0000819620Y0003402390D01*
X0000849728Y0003416524D01*
X0000880457Y0003429252D01*
X0000911742Y0003440548D01*
X0000943513Y0003450387D01*
X0000975707Y0003458748D01*
X0001008251Y0003465613D01*
X0001041078Y0003470968D01*
X0001074118Y0003474801D01*
X0001107299Y0003477104D01*
X0001140551Y0003477872D01*
X0001173803Y0003477104D01*
G04 next file*
G04 #@! TF.GenerationSoftware,KiCad,Pcbnew,(5.1.4)-1*
G04 #@! TF.CreationDate,2019-08-25T10:21:43-07:00*
G04 #@! TF.ProjectId,mudd_keychain,6d756464-5f6b-4657-9963-6861696e2e6b,A*
G04 #@! TF.SameCoordinates,Original*
G04 #@! TF.FileFunction,Copper,L1,Top*
G04 #@! TF.FilePolarity,Positive*
G04 Gerber Fmt 4.6, Leading zero omitted, Abs format (unit mm)*
G04 Created by KiCad (PCBNEW (5.1.4)-1) date 2019-08-25 10:21:43*
G04 APERTURE LIST*
G04 APERTURE END LIST*
D26*
X-0002755905Y0007007874D02*
X0002794094Y0003647874D03*
D27*
G36*
X0002827346Y0003477104D02*
G01*
X0002860527Y0003474801D01*
X0002893567Y0003470968D01*
X0002926393Y0003465613D01*
X0002958938Y0003458748D01*
X0002991132Y0003450387D01*
X0003022903Y0003440548D01*
X0003054187Y0003429252D01*
X0003084917Y0003416524D01*
X0003115025Y0003402390D01*
X0003144449Y0003386880D01*
X0003173125Y0003370029D01*
X0003200991Y0003351871D01*
X0003227990Y0003332445D01*
X0003254063Y0003311793D01*
X0003279154Y0003289959D01*
X0003303210Y0003266989D01*
X0003326179Y0003242934D01*
X0003348014Y0003217842D01*
X0003368665Y0003191770D01*
X0003388091Y0003164771D01*
X0003406249Y0003136904D01*
X0003423101Y0003108228D01*
X0003438610Y0003078804D01*
X0003452744Y0003048696D01*
X0003465473Y0003017967D01*
X0003476769Y0002986683D01*
X0003486607Y0002954911D01*
X0003494968Y0002922717D01*
X0003501833Y0002890173D01*
X0003507188Y0002857346D01*
X0003511021Y0002824306D01*
X0003513324Y0002791126D01*
X0003514093Y0002757874D01*
X0003513324Y0002724621D01*
X0003511021Y0002691441D01*
X0003507188Y0002658401D01*
X0003501833Y0002625574D01*
X0003494968Y0002593030D01*
X0003486607Y0002560836D01*
X0003476769Y0002529065D01*
X0003465473Y0002497780D01*
X0003452744Y0002467051D01*
X0003438610Y0002436943D01*
X0003423101Y0002407519D01*
X0003406249Y0002378843D01*
X0003388091Y0002350976D01*
X0003368665Y0002323977D01*
X0003348014Y0002297905D01*
X0003326179Y0002272814D01*
X0003303210Y0002248758D01*
X0003279154Y0002225788D01*
X0003254063Y0002203954D01*
X0003227990Y0002183302D01*
X0003200991Y0002163876D01*
X0003173125Y0002145718D01*
X0003144449Y0002128867D01*
X0003115025Y0002113357D01*
X0003084917Y0002099223D01*
X0003054187Y0002086495D01*
X0003022903Y0002075199D01*
X0002991132Y0002065360D01*
X0002958938Y0002056999D01*
X0002926393Y0002050134D01*
X0002893567Y0002044779D01*
X0002860527Y0002040946D01*
X0002827346Y0002038643D01*
X0002794094Y0002037875D01*
X0002760842Y0002038643D01*
X0002727661Y0002040946D01*
X0002694621Y0002044779D01*
X0002661795Y0002050134D01*
X0002629250Y0002056999D01*
X0002597056Y0002065360D01*
X0002565285Y0002075199D01*
X0002534001Y0002086495D01*
X0002503271Y0002099223D01*
X0002473163Y0002113357D01*
X0002443739Y0002128867D01*
X0002415063Y0002145718D01*
X0002387197Y0002163876D01*
X0002360198Y0002183302D01*
X0002334125Y0002203954D01*
X0002309034Y0002225788D01*
X0002284978Y0002248758D01*
X0002262009Y0002272814D01*
X0002240174Y0002297905D01*
X0002219523Y0002323977D01*
X0002200097Y0002350976D01*
X0002181939Y0002378843D01*
X0002165087Y0002407519D01*
X0002149578Y0002436943D01*
X0002135444Y0002467051D01*
X0002122715Y0002497780D01*
X0002111419Y0002529065D01*
X0002101581Y0002560836D01*
X0002093220Y0002593030D01*
X0002086355Y0002625574D01*
X0002081000Y0002658401D01*
X0002077167Y0002691441D01*
X0002074864Y0002724621D01*
X0002074095Y0002757874D01*
X0002074864Y0002791126D01*
X0002077167Y0002824306D01*
X0002081000Y0002857346D01*
X0002086355Y0002890173D01*
X0002093220Y0002922717D01*
X0002101581Y0002954911D01*
X0002111419Y0002986683D01*
X0002122715Y0003017967D01*
X0002135444Y0003048696D01*
X0002149578Y0003078804D01*
X0002165087Y0003108228D01*
X0002181939Y0003136904D01*
X0002200097Y0003164771D01*
X0002219523Y0003191770D01*
X0002240174Y0003217842D01*
X0002262009Y0003242934D01*
X0002284978Y0003266989D01*
X0002309034Y0003289959D01*
X0002334125Y0003311793D01*
X0002360198Y0003332445D01*
X0002387197Y0003351871D01*
X0002415063Y0003370029D01*
X0002443739Y0003386880D01*
X0002473163Y0003402390D01*
X0002503271Y0003416524D01*
X0002534001Y0003429252D01*
X0002565285Y0003440548D01*
X0002597056Y0003450387D01*
X0002629250Y0003458748D01*
X0002661795Y0003465613D01*
X0002694621Y0003470968D01*
X0002727661Y0003474801D01*
X0002760842Y0003477104D01*
X0002794094Y0003477872D01*
X0002827346Y0003477104D01*
X0002827346Y0003477104D01*
G37*
X0002827346Y0003477104D02*
X0002860527Y0003474801D01*
X0002893567Y0003470968D01*
X0002926393Y0003465613D01*
X0002958938Y0003458748D01*
X0002991132Y0003450387D01*
X0003022903Y0003440548D01*
X0003054187Y0003429252D01*
X0003084917Y0003416524D01*
X0003115025Y0003402390D01*
X0003144449Y0003386880D01*
X0003173125Y0003370029D01*
X0003200991Y0003351871D01*
X0003227990Y0003332445D01*
X0003254063Y0003311793D01*
X0003279154Y0003289959D01*
X0003303210Y0003266989D01*
X0003326179Y0003242934D01*
X0003348014Y0003217842D01*
X0003368665Y0003191770D01*
X0003388091Y0003164771D01*
X0003406249Y0003136904D01*
X0003423101Y0003108228D01*
X0003438610Y0003078804D01*
X0003452744Y0003048696D01*
X0003465473Y0003017967D01*
X0003476769Y0002986683D01*
X0003486607Y0002954911D01*
X0003494968Y0002922717D01*
X0003501833Y0002890173D01*
X0003507188Y0002857346D01*
X0003511021Y0002824306D01*
X0003513324Y0002791126D01*
X0003514093Y0002757874D01*
X0003513324Y0002724621D01*
X0003511021Y0002691441D01*
X0003507188Y0002658401D01*
X0003501833Y0002625574D01*
X0003494968Y0002593030D01*
X0003486607Y0002560836D01*
X0003476769Y0002529065D01*
X0003465473Y0002497780D01*
X0003452744Y0002467051D01*
X0003438610Y0002436943D01*
X0003423101Y0002407519D01*
X0003406249Y0002378843D01*
X0003388091Y0002350976D01*
X0003368665Y0002323977D01*
X0003348014Y0002297905D01*
X0003326179Y0002272814D01*
X0003303210Y0002248758D01*
X0003279154Y0002225788D01*
X0003254063Y0002203954D01*
X0003227990Y0002183302D01*
X0003200991Y0002163876D01*
X0003173125Y0002145718D01*
X0003144449Y0002128867D01*
X0003115025Y0002113357D01*
X0003084917Y0002099223D01*
X0003054187Y0002086495D01*
X0003022903Y0002075199D01*
X0002991132Y0002065360D01*
X0002958938Y0002056999D01*
X0002926393Y0002050134D01*
X0002893567Y0002044779D01*
X0002860527Y0002040946D01*
X0002827346Y0002038643D01*
X0002794094Y0002037875D01*
X0002760842Y0002038643D01*
X0002727661Y0002040946D01*
X0002694621Y0002044779D01*
X0002661795Y0002050134D01*
X0002629250Y0002056999D01*
X0002597056Y0002065360D01*
X0002565285Y0002075199D01*
X0002534001Y0002086495D01*
X0002503271Y0002099223D01*
X0002473163Y0002113357D01*
X0002443739Y0002128867D01*
X0002415063Y0002145718D01*
X0002387197Y0002163876D01*
X0002360198Y0002183302D01*
X0002334125Y0002203954D01*
X0002309034Y0002225788D01*
X0002284978Y0002248758D01*
X0002262009Y0002272814D01*
X0002240174Y0002297905D01*
X0002219523Y0002323977D01*
X0002200097Y0002350976D01*
X0002181939Y0002378843D01*
X0002165087Y0002407519D01*
X0002149578Y0002436943D01*
X0002135444Y0002467051D01*
X0002122715Y0002497780D01*
X0002111419Y0002529065D01*
X0002101581Y0002560836D01*
X0002093220Y0002593030D01*
X0002086355Y0002625574D01*
X0002081000Y0002658401D01*
X0002077167Y0002691441D01*
X0002074864Y0002724621D01*
X0002074095Y0002757874D01*
X0002074864Y0002791126D01*
X0002077167Y0002824306D01*
X0002081000Y0002857346D01*
X0002086355Y0002890173D01*
X0002093220Y0002922717D01*
X0002101581Y0002954911D01*
X0002111419Y0002986683D01*
X0002122715Y0003017967D01*
X0002135444Y0003048696D01*
X0002149578Y0003078804D01*
X0002165087Y0003108228D01*
X0002181939Y0003136904D01*
X0002200097Y0003164771D01*
X0002219523Y0003191770D01*
X0002240174Y0003217842D01*
X0002262009Y0003242934D01*
X0002284978Y0003266989D01*
X0002309034Y0003289959D01*
X0002334125Y0003311793D01*
X0002360198Y0003332445D01*
X0002387197Y0003351871D01*
X0002415063Y0003370029D01*
X0002443739Y0003386880D01*
X0002473163Y0003402390D01*
X0002503271Y0003416524D01*
X0002534001Y0003429252D01*
X0002565285Y0003440548D01*
X0002597056Y0003450387D01*
X0002629250Y0003458748D01*
X0002661795Y0003465613D01*
X0002694621Y0003470968D01*
X0002727661Y0003474801D01*
X0002760842Y0003477104D01*
X0002794094Y0003477872D01*
X0002827346Y0003477104D01*
G04 next file*
G04 #@! TF.GenerationSoftware,KiCad,Pcbnew,(5.1.4)-1*
G04 #@! TF.CreationDate,2019-08-25T11:07:58-07:00*
G04 #@! TF.ProjectId,mudd-small-frame-A,6d756464-2d73-46d6-916c-6c2d6672616d,rev?*
G04 #@! TF.SameCoordinates,Original*
G04 #@! TF.FileFunction,Copper,L1,Top*
G04 #@! TF.FilePolarity,Positive*
G04 Gerber Fmt 4.6, Leading zero omitted, Abs format (unit mm)*
G04 Created by KiCad (PCBNEW (5.1.4)-1) date 2019-08-25 11:07:58*
G04 APERTURE LIST*
G04 APERTURE END LIST*
D28*
X-0002007874Y0005826771D02*
X0003799212Y0000098425D03*
X0003799212Y0003759842D03*
D29*
G36*
X0003733922Y0000044843D02*
G01*
X0003745630Y0000033135D01*
X0003756332Y0000025984D01*
X0003726771Y0000025984D01*
X0003726771Y0000055545D01*
X0003733922Y0000044843D01*
X0003733922Y0000044843D01*
G37*
X0003733922Y0000044843D02*
X0003745630Y0000033135D01*
X0003756332Y0000025984D01*
X0003726771Y0000025984D01*
X0003726771Y0000055545D01*
X0003733922Y0000044843D01*
G36*
X0003871653Y0000025984D02*
G01*
X0003842092Y0000025984D01*
X0003852794Y0000033135D01*
X0003864502Y0000044843D01*
X0003871653Y0000055545D01*
X0003871653Y0000025984D01*
X0003871653Y0000025984D01*
G37*
X0003871653Y0000025984D02*
X0003842092Y0000025984D01*
X0003852794Y0000033135D01*
X0003864502Y0000044843D01*
X0003871653Y0000055545D01*
X0003871653Y0000025984D01*
G36*
X0003871653Y0000141304D02*
G01*
X0003864502Y0000152007D01*
X0003852794Y0000163715D01*
X0003839027Y0000172913D01*
X0003823730Y0000179250D01*
X0003807491Y0000182480D01*
X0003790933Y0000182480D01*
X0003774694Y0000179250D01*
X0003759397Y0000172913D01*
X0003745630Y0000163715D01*
X0003733922Y0000152007D01*
X0003726771Y0000141304D01*
X0003726771Y0003716962D01*
X0003733922Y0003706260D01*
X0003745630Y0003694552D01*
X0003759397Y0003685353D01*
X0003774694Y0003679017D01*
X0003790933Y0003675787D01*
X0003807491Y0003675787D01*
X0003823730Y0003679017D01*
X0003839027Y0003685353D01*
X0003852794Y0003694552D01*
X0003864502Y0003706260D01*
X0003871653Y0003716962D01*
X0003871653Y0000141304D01*
X0003871653Y0000141304D01*
G37*
X0003871653Y0000141304D02*
X0003864502Y0000152007D01*
X0003852794Y0000163715D01*
X0003839027Y0000172913D01*
X0003823730Y0000179250D01*
X0003807491Y0000182480D01*
X0003790933Y0000182480D01*
X0003774694Y0000179250D01*
X0003759397Y0000172913D01*
X0003745630Y0000163715D01*
X0003733922Y0000152007D01*
X0003726771Y0000141304D01*
X0003726771Y0003716962D01*
X0003733922Y0003706260D01*
X0003745630Y0003694552D01*
X0003759397Y0003685353D01*
X0003774694Y0003679017D01*
X0003790933Y0003675787D01*
X0003807491Y0003675787D01*
X0003823730Y0003679017D01*
X0003839027Y0003685353D01*
X0003852794Y0003694552D01*
X0003864502Y0003706260D01*
X0003871653Y0003716962D01*
X0003871653Y0000141304D01*
G36*
X0003745630Y0003825132D02*
G01*
X0003733922Y0003813424D01*
X0003726771Y0003802722D01*
X0003726771Y0003832283D01*
X0003756332Y0003832283D01*
X0003745630Y0003825132D01*
X0003745630Y0003825132D01*
G37*
X0003745630Y0003825132D02*
X0003733922Y0003813424D01*
X0003726771Y0003802722D01*
X0003726771Y0003832283D01*
X0003756332Y0003832283D01*
X0003745630Y0003825132D01*
G36*
X0003871653Y0003802722D02*
G01*
X0003864502Y0003813424D01*
X0003852794Y0003825132D01*
X0003842092Y0003832283D01*
X0003871653Y0003832283D01*
X0003871653Y0003802722D01*
X0003871653Y0003802722D01*
G37*
X0003871653Y0003802722D02*
X0003864502Y0003813424D01*
X0003852794Y0003825132D01*
X0003842092Y0003832283D01*
X0003871653Y0003832283D01*
X0003871653Y0003802722D01*
G04 next file*
G04 #@! TF.GenerationSoftware,KiCad,Pcbnew,(5.1.4)-1*
G04 #@! TF.CreationDate,2019-08-25T11:04:58-07:00*
G04 #@! TF.ProjectId,mudd-small-frame-B,6d756464-2d73-46d6-916c-6c2d6672616d,rev?*
G04 #@! TF.SameCoordinates,Original*
G04 #@! TF.FileFunction,Copper,L1,Top*
G04 #@! TF.FilePolarity,Positive*
G04 Gerber Fmt 4.6, Leading zero omitted, Abs format (unit mm)*
G04 Created by KiCad (PCBNEW (5.1.4)-1) date 2019-08-25 11:04:58*
G04 APERTURE LIST*
G04 APERTURE END LIST*
D30*
X-0005669291Y0005629921D02*
X0000137795Y0000098425D03*
X0000137795Y0003759842D03*
D31*
G36*
X0000072505Y0000044843D02*
G01*
X0000084213Y0000033135D01*
X0000094915Y0000025984D01*
X0000065354Y0000025984D01*
X0000065354Y0000055545D01*
X0000072505Y0000044843D01*
X0000072505Y0000044843D01*
G37*
X0000072505Y0000044843D02*
X0000084213Y0000033135D01*
X0000094915Y0000025984D01*
X0000065354Y0000025984D01*
X0000065354Y0000055545D01*
X0000072505Y0000044843D01*
G36*
X0000210236Y0000025984D02*
G01*
X0000180674Y0000025984D01*
X0000191377Y0000033135D01*
X0000203085Y0000044843D01*
X0000210236Y0000055545D01*
X0000210236Y0000025984D01*
X0000210236Y0000025984D01*
G37*
X0000210236Y0000025984D02*
X0000180674Y0000025984D01*
X0000191377Y0000033135D01*
X0000203085Y0000044843D01*
X0000210236Y0000055545D01*
X0000210236Y0000025984D01*
G36*
X0000210236Y0000141304D02*
G01*
X0000203085Y0000152007D01*
X0000191377Y0000163715D01*
X0000177610Y0000172913D01*
X0000162313Y0000179250D01*
X0000146073Y0000182480D01*
X0000129516Y0000182480D01*
X0000113277Y0000179250D01*
X0000097980Y0000172913D01*
X0000084213Y0000163715D01*
X0000072505Y0000152007D01*
X0000065354Y0000141304D01*
X0000065354Y0003716962D01*
X0000072505Y0003706260D01*
X0000084213Y0003694552D01*
X0000097980Y0003685353D01*
X0000113277Y0003679017D01*
X0000129516Y0003675787D01*
X0000146073Y0003675787D01*
X0000162313Y0003679017D01*
X0000177610Y0003685353D01*
X0000191377Y0003694552D01*
X0000203085Y0003706260D01*
X0000210236Y0003716962D01*
X0000210236Y0000141304D01*
X0000210236Y0000141304D01*
G37*
X0000210236Y0000141304D02*
X0000203085Y0000152007D01*
X0000191377Y0000163715D01*
X0000177610Y0000172913D01*
X0000162313Y0000179250D01*
X0000146073Y0000182480D01*
X0000129516Y0000182480D01*
X0000113277Y0000179250D01*
X0000097980Y0000172913D01*
X0000084213Y0000163715D01*
X0000072505Y0000152007D01*
X0000065354Y0000141304D01*
X0000065354Y0003716962D01*
X0000072505Y0003706260D01*
X0000084213Y0003694552D01*
X0000097980Y0003685353D01*
X0000113277Y0003679017D01*
X0000129516Y0003675787D01*
X0000146073Y0003675787D01*
X0000162313Y0003679017D01*
X0000177610Y0003685353D01*
X0000191377Y0003694552D01*
X0000203085Y0003706260D01*
X0000210236Y0003716962D01*
X0000210236Y0000141304D01*
G36*
X0000084213Y0003825132D02*
G01*
X0000072505Y0003813424D01*
X0000065354Y0003802722D01*
X0000065354Y0003832283D01*
X0000094915Y0003832283D01*
X0000084213Y0003825132D01*
X0000084213Y0003825132D01*
G37*
X0000084213Y0003825132D02*
X0000072505Y0003813424D01*
X0000065354Y0003802722D01*
X0000065354Y0003832283D01*
X0000094915Y0003832283D01*
X0000084213Y0003825132D01*
G36*
X0000210236Y0003802722D02*
G01*
X0000203085Y0003813424D01*
X0000191377Y0003825132D01*
X0000180674Y0003832283D01*
X0000210236Y0003832283D01*
X0000210236Y0003802722D01*
X0000210236Y0003802722D01*
G37*
X0000210236Y0003802722D02*
X0000203085Y0003813424D01*
X0000191377Y0003825132D01*
X0000180674Y0003832283D01*
X0000210236Y0003832283D01*
X0000210236Y0003802722D01*
M02*