%MOIN*%
%OFA0B0*%
%FSLAX44Y44*%
%IPPOS*%
%LPD*%
%ADD10C,0*%
D10*
X00035396Y00026713D02*
X00035396Y00026713D01*
X00035396Y00026713D01*
X00035400Y00026741D01*
X00035406Y00026768D01*
X00035415Y00026795D01*
X00035425Y00026821D01*
X00035437Y00026847D01*
X00035451Y00026871D01*
X00035467Y00026895D01*
X00035484Y00026917D01*
X00035503Y00026938D01*
X00035523Y00026958D01*
X00035545Y00026976D01*
X00035568Y00026993D01*
X00035592Y00027008D01*
X00035617Y00027021D01*
X00035643Y00027032D01*
X00035669Y00027041D01*
X00035697Y00027049D01*
X00035724Y00027054D01*
X00035752Y00027058D01*
X00035781Y00027059D01*
X00036608Y00027072D01*
X00036639Y00027071D01*
X00036670Y00027068D01*
X00036701Y00027062D01*
X00036731Y00027054D01*
X00036760Y00027044D01*
X00036789Y00027031D01*
X00036816Y00027016D01*
X00036842Y00026999D01*
X00036867Y00026980D01*
X00036890Y00026959D01*
X00036911Y00026936D01*
X00036931Y00026912D01*
X00036948Y00026886D01*
X00036964Y00026859D01*
X00036977Y00026830D01*
X00036988Y00026801D01*
X00036996Y00026771D01*
X00037002Y00026740D01*
X00037006Y00026709D01*
X00037007Y00026678D01*
X00037007Y00009148D01*
X00037006Y00009117D01*
X00037003Y00009087D01*
X00036997Y00009057D01*
X00036988Y00009027D01*
X00036978Y00008998D01*
X00036965Y00008970D01*
X00036950Y00008944D01*
X00036934Y00008918D01*
X00036915Y00008894D01*
X00036894Y00008871D01*
X00036872Y00008850D01*
X00036848Y00008831D01*
X00036823Y00008814D01*
X00036796Y00008799D01*
X00036768Y00008786D01*
X00036740Y00008775D01*
X00036710Y00008766D01*
X00036680Y00008760D01*
X00036650Y00008756D01*
X00036620Y00008754D01*
X00035747Y00008741D01*
X00035719Y00008742D01*
X00035692Y00008744D01*
X00035664Y00008749D01*
X00035637Y00008755D01*
X00035610Y00008763D01*
X00035584Y00008774D01*
X00035559Y00008786D01*
X00035535Y00008800D01*
X00035512Y00008815D01*
X00035489Y00008832D01*
X00035469Y00008851D01*
X00035449Y00008871D01*
X00035431Y00008892D01*
X00035415Y00008915D01*
X00035400Y00008939D01*
X00035387Y00008963D01*
X00035376Y00008989D01*
X00035366Y00009015D01*
X00035359Y00009042D01*
X00035353Y00009070D01*
X00035329Y00009215D01*
X00035298Y00009377D01*
X00035264Y00009538D01*
X00035226Y00009699D01*
X00035184Y00009858D01*
X00035139Y00010017D01*
X00035091Y00010175D01*
X00035039Y00010332D01*
X00034984Y00010487D01*
X00034925Y00010641D01*
X00034863Y00010794D01*
X00034798Y00010946D01*
X00034729Y00011096D01*
X00034657Y00011244D01*
X00034581Y00011391D01*
X00034503Y00011536D01*
X00034421Y00011679D01*
X00034336Y00011821D01*
X00034249Y00011961D01*
X00034158Y00012098D01*
X00034064Y00012234D01*
X00033967Y00012367D01*
X00033867Y00012499D01*
X00033764Y00012628D01*
X00033659Y00012755D01*
X00033551Y00012879D01*
X00033440Y00013002D01*
X00033326Y00013121D01*
X00033210Y00013238D01*
X00033091Y00013353D01*
X00032970Y00013465D01*
X00032846Y00013574D01*
X00032720Y00013680D01*
X00032592Y00013784D01*
X00032461Y00013885D01*
X00032328Y00013983D01*
X00032193Y00014078D01*
X00032056Y00014170D01*
X00031917Y00014259D01*
X00031776Y00014345D01*
X00031634Y00014427D01*
X00031489Y00014507D01*
X00031343Y00014583D01*
X00031195Y00014657D01*
X00031045Y00014727D01*
X00030895Y00014793D01*
X00030895Y00014793D01*
X00030738Y00014863D01*
X00030588Y00014945D01*
X00030445Y00015038D01*
X00030310Y00015143D01*
X00030184Y00015258D01*
X00030067Y00015382D01*
X00029960Y00015516D01*
X00029864Y00015657D01*
X00029780Y00015806D01*
X00029708Y00015961D01*
X00029648Y00016121D01*
X00029601Y00016285D01*
X00029568Y00016453D01*
X00029547Y00016622D01*
X00029540Y00016793D01*
X00029532Y00016960D01*
X00029505Y00017126D01*
X00029462Y00017288D01*
X00029402Y00017444D01*
X00029326Y00017593D01*
X00029235Y00017734D01*
X00029129Y00017864D01*
X00029011Y00017982D01*
X00028881Y00018088D01*
X00028740Y00018179D01*
X00028591Y00018255D01*
X00028548Y00018271D01*
X00028524Y00018282D01*
X00028501Y00018293D01*
X00028478Y00018307D01*
X00028456Y00018322D01*
X00028436Y00018338D01*
X00028416Y00018356D01*
X00028398Y00018374D01*
X00028381Y00018395D01*
X00028365Y00018416D01*
X00028351Y00018438D01*
X00028338Y00018461D01*
X00028327Y00018485D01*
X00028318Y00018509D01*
X00028310Y00018534D01*
X00028304Y00018560D01*
X00028299Y00018586D01*
X00028297Y00018612D01*
X00028296Y00018638D01*
X00028297Y00018665D01*
X00028299Y00018691D01*
X00028445Y00019782D01*
X00028449Y00019808D01*
X00028455Y00019833D01*
X00028463Y00019858D01*
X00028472Y00019883D01*
X00028483Y00019906D01*
X00028496Y00019929D01*
X00028510Y00019952D01*
X00028525Y00019973D01*
X00028542Y00019993D01*
X00028560Y00020012D01*
X00028579Y00020029D01*
X00028600Y00020046D01*
X00028621Y00020060D01*
X00028644Y00020074D01*
X00028667Y00020086D01*
X00028691Y00020096D01*
X00028715Y00020105D01*
X00028741Y00020112D01*
X00028766Y00020118D01*
X00028792Y00020121D01*
X00028846Y00020127D01*
X00029009Y00020149D01*
X00029172Y00020174D01*
X00029335Y00020203D01*
X00029497Y00020236D01*
X00029658Y00020272D01*
X00029818Y00020311D01*
X00029977Y00020354D01*
X00030136Y00020401D01*
X00030293Y00020451D01*
X00030449Y00020504D01*
X00030604Y00020561D01*
X00030757Y00020621D01*
X00030910Y00020685D01*
X00031060Y00020752D01*
X00031210Y00020822D01*
X00031358Y00020895D01*
X00031504Y00020972D01*
X00031648Y00021052D01*
X00031791Y00021135D01*
X00031931Y00021221D01*
X00032070Y00021311D01*
X00032207Y00021403D01*
X00032342Y00021498D01*
X00032474Y00021596D01*
X00032605Y00021698D01*
X00032733Y00021801D01*
X00032858Y00021908D01*
X00032982Y00022018D01*
X00033103Y00022130D01*
X00033221Y00022245D01*
X00033337Y00022362D01*
X00033451Y00022482D01*
X00033562Y00022604D01*
X00033670Y00022729D01*
X00033775Y00022856D01*
X00033877Y00022986D01*
X00033977Y00023117D01*
X00034073Y00023251D01*
X00034167Y00023387D01*
X00034258Y00023525D01*
X00034345Y00023665D01*
X00034430Y00023806D01*
X00034511Y00023950D01*
X00034589Y00024095D01*
X00034664Y00024242D01*
X00034736Y00024391D01*
X00034804Y00024541D01*
X00034869Y00024693D01*
X00034931Y00024846D01*
X00034989Y00025000D01*
X00035044Y00025155D01*
X00035096Y00025312D01*
X00035144Y00025470D01*
X00035189Y00025629D01*
X00035230Y00025789D01*
X00035267Y00025949D01*
X00035301Y00026111D01*
X00035332Y00026273D01*
X00035359Y00026436D01*
X00035382Y00026599D01*
X00035396Y00026713D01*
X00037007Y00028439D02*
X00037007Y00028439D01*
X00037006Y00028408D01*
X00037002Y00028377D01*
X00036996Y00028346D01*
X00036988Y00028316D01*
X00036977Y00028287D01*
X00036964Y00028259D01*
X00036949Y00028232D01*
X00036931Y00028206D01*
X00036912Y00028182D01*
X00036891Y00028159D01*
X00036868Y00028138D01*
X00036843Y00028119D01*
X00036817Y00028102D01*
X00036790Y00028087D01*
X00036761Y00028074D01*
X00036732Y00028063D01*
X00036702Y00028055D01*
X00036671Y00028049D01*
X00036640Y00028046D01*
X00036609Y00028045D01*
X00035787Y00028054D01*
X00035759Y00028056D01*
X00035730Y00028059D01*
X00035702Y00028065D01*
X00035674Y00028072D01*
X00035647Y00028082D01*
X00035621Y00028093D01*
X00035596Y00028107D01*
X00035571Y00028122D01*
X00035548Y00028139D01*
X00035526Y00028158D01*
X00035506Y00028178D01*
X00035487Y00028199D01*
X00035469Y00028222D01*
X00035454Y00028246D01*
X00035440Y00028272D01*
X00035428Y00028298D01*
X00035418Y00028325D01*
X00035410Y00028352D01*
X00035404Y00028380D01*
X00035400Y00028409D01*
X00035400Y00028410D01*
X00035380Y00028574D01*
X00035356Y00028737D01*
X00035329Y00028900D01*
X00035298Y00029062D01*
X00035264Y00029223D01*
X00035226Y00029384D01*
X00035184Y00029543D01*
X00035139Y00029702D01*
X00035091Y00029860D01*
X00035039Y00030017D01*
X00034984Y00030172D01*
X00034925Y00030326D01*
X00034863Y00030479D01*
X00034798Y00030631D01*
X00034729Y00030781D01*
X00034657Y00030929D01*
X00034581Y00031076D01*
X00034503Y00031221D01*
X00034421Y00031364D01*
X00034336Y00031506D01*
X00034249Y00031646D01*
X00034158Y00031783D01*
X00034064Y00031919D01*
X00033967Y00032053D01*
X00033867Y00032184D01*
X00033764Y00032313D01*
X00033659Y00032440D01*
X00033551Y00032564D01*
X00033440Y00032687D01*
X00033326Y00032806D01*
X00033210Y00032923D01*
X00033091Y00033038D01*
X00032970Y00033150D01*
X00032846Y00033259D01*
X00032720Y00033366D01*
X00032592Y00033469D01*
X00032461Y00033570D01*
X00032328Y00033668D01*
X00032193Y00033763D01*
X00032056Y00033855D01*
X00031917Y00033944D01*
X00031776Y00034030D01*
X00031634Y00034113D01*
X00031489Y00034192D01*
X00031343Y00034269D01*
X00031195Y00034342D01*
X00031045Y00034412D01*
X00030895Y00034478D01*
X00030895Y00034478D01*
X00030738Y00034548D01*
X00030588Y00034630D01*
X00030445Y00034723D01*
X00030310Y00034828D01*
X00030184Y00034943D01*
X00030067Y00035067D01*
X00029960Y00035201D01*
X00029864Y00035342D01*
X00029780Y00035491D01*
X00029708Y00035646D01*
X00029648Y00035806D01*
X00029601Y00035970D01*
X00029568Y00036138D01*
X00029547Y00036307D01*
X00029540Y00036478D01*
X00029532Y00036645D01*
X00029505Y00036811D01*
X00029462Y00036973D01*
X00029402Y00037129D01*
X00029326Y00037278D01*
X00029235Y00037419D01*
X00029129Y00037549D01*
X00029011Y00037667D01*
X00028881Y00037773D01*
X00028740Y00037864D01*
X00028591Y00037940D01*
X00028435Y00038000D01*
X00028273Y00038043D01*
X00028108Y00038069D01*
X00027940Y00038078D01*
X00027773Y00038069D01*
X00027608Y00038043D01*
X00027446Y00038000D01*
X00027290Y00037940D01*
X00027140Y00037864D01*
X00027000Y00037773D01*
X00026870Y00037667D01*
X00026751Y00037549D01*
X00026646Y00037419D01*
X00026555Y00037278D01*
X00026479Y00037129D01*
X00026419Y00036973D01*
X00026375Y00036811D01*
X00026349Y00036645D01*
X00026340Y00036478D01*
X00026334Y00036307D01*
X00026313Y00036138D01*
X00026280Y00035970D01*
X00026233Y00035806D01*
X00026173Y00035646D01*
X00026101Y00035491D01*
X00026017Y00035342D01*
X00025921Y00035201D01*
X00025814Y00035067D01*
X00025697Y00034943D01*
X00025571Y00034828D01*
X00025435Y00034723D01*
X00025292Y00034630D01*
X00025142Y00034548D01*
X00024986Y00034478D01*
X00024835Y00034412D01*
X00024686Y00034342D01*
X00024538Y00034269D01*
X00024392Y00034192D01*
X00024247Y00034113D01*
X00024105Y00034030D01*
X00023964Y00033944D01*
X00023825Y00033855D01*
X00023688Y00033763D01*
X00023553Y00033668D01*
X00023420Y00033570D01*
X00023289Y00033469D01*
X00023161Y00033366D01*
X00023035Y00033259D01*
X00022911Y00033150D01*
X00022790Y00033038D01*
X00022671Y00032923D01*
X00022555Y00032806D01*
X00022441Y00032687D01*
X00022330Y00032565D01*
X00022222Y00032440D01*
X00022117Y00032313D01*
X00022014Y00032184D01*
X00021914Y00032053D01*
X00021817Y00031919D01*
X00021723Y00031783D01*
X00021632Y00031646D01*
X00021544Y00031506D01*
X00021460Y00031364D01*
X00021378Y00031221D01*
X00021299Y00031076D01*
X00021224Y00030929D01*
X00021152Y00030781D01*
X00021083Y00030631D01*
X00021018Y00030479D01*
X00020956Y00030326D01*
X00020897Y00030172D01*
X00020842Y00030017D01*
X00020790Y00029860D01*
X00020741Y00029702D01*
X00020697Y00029543D01*
X00020655Y00029384D01*
X00020617Y00029223D01*
X00020583Y00029062D01*
X00020552Y00028900D01*
X00020525Y00028737D01*
X00020501Y00028574D01*
X00020483Y00028429D01*
X00020479Y00028401D01*
X00020473Y00028374D01*
X00020464Y00028347D01*
X00020454Y00028322D01*
X00020442Y00028296D01*
X00020429Y00028272D01*
X00020414Y00028249D01*
X00020397Y00028227D01*
X00020378Y00028206D01*
X00020358Y00028186D01*
X00020337Y00028168D01*
X00020315Y00028152D01*
X00020291Y00028137D01*
X00020267Y00028124D01*
X00020241Y00028112D01*
X00020215Y00028103D01*
X00020188Y00028095D01*
X00020161Y00028089D01*
X00020134Y00028085D01*
X00020106Y00028083D01*
X00019270Y00028055D01*
X00019240Y00028055D01*
X00019211Y00028057D01*
X00019181Y00028062D01*
X00019153Y00028068D01*
X00019124Y00028077D01*
X00019097Y00028088D01*
X00019070Y00028101D01*
X00019045Y00028116D01*
X00019020Y00028133D01*
X00018997Y00028152D01*
X00018976Y00028172D01*
X00018956Y00028194D01*
X00018938Y00028217D01*
X00018921Y00028242D01*
X00018907Y00028268D01*
X00018894Y00028294D01*
X00018883Y00028322D01*
X00018875Y00028350D01*
X00018869Y00028379D01*
X00018865Y00028409D01*
X00018865Y00028410D01*
X00018844Y00028574D01*
X00018821Y00028737D01*
X00018794Y00028900D01*
X00018763Y00029062D01*
X00018728Y00029223D01*
X00018690Y00029384D01*
X00018649Y00029543D01*
X00018604Y00029702D01*
X00018556Y00029860D01*
X00018504Y00030017D01*
X00018448Y00030172D01*
X00018390Y00030326D01*
X00018328Y00030479D01*
X00018262Y00030631D01*
X00018193Y00030781D01*
X00018121Y00030929D01*
X00018046Y00031076D01*
X00017968Y00031221D01*
X00017886Y00031364D01*
X00017801Y00031506D01*
X00017713Y00031646D01*
X00017622Y00031783D01*
X00017528Y00031919D01*
X00017431Y00032053D01*
X00017332Y00032184D01*
X00017229Y00032313D01*
X00017123Y00032440D01*
X00017015Y00032564D01*
X00016904Y00032687D01*
X00016791Y00032806D01*
X00016674Y00032923D01*
X00016556Y00033038D01*
X00016434Y00033150D01*
X00016311Y00033259D01*
X00016185Y00033366D01*
X00016056Y00033469D01*
X00015926Y00033570D01*
X00015793Y00033668D01*
X00015658Y00033763D01*
X00015521Y00033855D01*
X00015382Y00033944D01*
X00015241Y00034030D01*
X00015098Y00034113D01*
X00014954Y00034192D01*
X00014807Y00034269D01*
X00014660Y00034342D01*
X00014510Y00034412D01*
X00014359Y00034478D01*
X00014359Y00034478D01*
X00014203Y00034548D01*
X00014053Y00034630D01*
X00013910Y00034723D01*
X00013775Y00034828D01*
X00013648Y00034943D01*
X00013531Y00035067D01*
X00013425Y00035201D01*
X00013329Y00035342D01*
X00013245Y00035491D01*
X00013172Y00035646D01*
X00013113Y00035806D01*
X00013066Y00035970D01*
X00013032Y00036138D01*
X00013012Y00036307D01*
X00013005Y00036478D01*
X00012996Y00036645D01*
X00012970Y00036811D01*
X00012927Y00036973D01*
X00012867Y00037129D01*
X00012791Y00037278D01*
X00012699Y00037419D01*
X00012594Y00037549D01*
X00012476Y00037667D01*
X00012345Y00037773D01*
X00012205Y00037864D01*
X00012056Y00037940D01*
X00011899Y00038000D01*
X00011738Y00038043D01*
X00011572Y00038069D01*
X00011405Y00038078D01*
X00011238Y00038069D01*
X00011072Y00038043D01*
X00010911Y00038000D01*
X00010754Y00037940D01*
X00010605Y00037864D01*
X00010465Y00037773D01*
X00010334Y00037667D01*
X00010216Y00037549D01*
X00010111Y00037419D01*
X00010019Y00037278D01*
X00009943Y00037129D01*
X00009883Y00036973D01*
X00009840Y00036811D01*
X00009814Y00036645D01*
X00009805Y00036478D01*
X00009798Y00036307D01*
X00009778Y00036138D01*
X00009744Y00035970D01*
X00009697Y00035806D01*
X00009638Y00035646D01*
X00009565Y00035491D01*
X00009481Y00035342D01*
X00009385Y00035201D01*
X00009279Y00035067D01*
X00009162Y00034943D01*
X00009035Y00034828D01*
X00008900Y00034723D01*
X00008757Y00034630D01*
X00008607Y00034548D01*
X00008451Y00034478D01*
X00008300Y00034412D01*
X00008151Y00034342D01*
X00008003Y00034269D01*
X00007856Y00034192D01*
X00007712Y00034113D01*
X00007569Y00034030D01*
X00007428Y00033944D01*
X00007289Y00033855D01*
X00007152Y00033763D01*
X00007017Y00033668D01*
X00006884Y00033570D01*
X00006754Y00033469D01*
X00006625Y00033366D01*
X00006499Y00033259D01*
X00006376Y00033150D01*
X00006254Y00033038D01*
X00006136Y00032923D01*
X00006019Y00032806D01*
X00005906Y00032687D01*
X00005795Y00032565D01*
X00005687Y00032440D01*
X00005581Y00032313D01*
X00005478Y00032184D01*
X00005379Y00032053D01*
X00005282Y00031919D01*
X00005188Y00031783D01*
X00005097Y00031646D01*
X00005009Y00031506D01*
X00004924Y00031364D01*
X00004843Y00031221D01*
X00004764Y00031076D01*
X00004689Y00030929D01*
X00004617Y00030781D01*
X00004548Y00030631D01*
X00004482Y00030479D01*
X00004420Y00030326D01*
X00004362Y00030172D01*
X00004306Y00030017D01*
X00004254Y00029860D01*
X00004206Y00029702D01*
X00004161Y00029543D01*
X00004120Y00029384D01*
X00004082Y00029223D01*
X00004047Y00029062D01*
X00004016Y00028900D01*
X00003989Y00028737D01*
X00003966Y00028574D01*
X00003948Y00028429D01*
X00003948Y00028429D01*
X00003943Y00028401D01*
X00003937Y00028375D01*
X00003929Y00028348D01*
X00003919Y00028322D01*
X00003908Y00028297D01*
X00003894Y00028273D01*
X00003879Y00028250D01*
X00003862Y00028228D01*
X00003844Y00028207D01*
X00003825Y00028188D01*
X00003804Y00028170D01*
X00003782Y00028153D01*
X00003759Y00028138D01*
X00003734Y00028125D01*
X00003709Y00028114D01*
X00003684Y00028104D01*
X00003657Y00028096D01*
X00003630Y00028090D01*
X00003603Y00028086D01*
X00003575Y00028083D01*
X00002774Y00028046D01*
X00002742Y00028045D01*
X00002710Y00028048D01*
X00002679Y00028053D01*
X00002648Y00028060D01*
X00002618Y00028070D01*
X00002588Y00028082D01*
X00002560Y00028097D01*
X00002533Y00028114D01*
X00002508Y00028133D01*
X00002484Y00028154D01*
X00002462Y00028177D01*
X00002441Y00028202D01*
X00002423Y00028228D01*
X00002407Y00028255D01*
X00002393Y00028284D01*
X00002382Y00028314D01*
X00002373Y00028344D01*
X00002367Y00028375D01*
X00002363Y00028407D01*
X00002362Y00028439D01*
X00002362Y00038582D01*
X00000393Y00038582D01*
X00000393Y00000000D01*
X00002362Y00000000D01*
X00002362Y00007387D01*
X00002363Y00007419D01*
X00002367Y00007451D01*
X00002373Y00007482D01*
X00002382Y00007513D01*
X00002394Y00007543D01*
X00002408Y00007572D01*
X00002424Y00007600D01*
X00002443Y00007626D01*
X00002463Y00007651D01*
X00002485Y00007673D01*
X00002510Y00007695D01*
X00002536Y00007714D01*
X00002563Y00007730D01*
X00002592Y00007745D01*
X00002621Y00007757D01*
X00002652Y00007767D01*
X00002683Y00007774D01*
X00002715Y00007778D01*
X00002747Y00007780D01*
X00002779Y00007780D01*
X00003549Y00007734D01*
X00003577Y00007731D01*
X00003605Y00007726D01*
X00003632Y00007720D01*
X00003659Y00007711D01*
X00003685Y00007700D01*
X00003711Y00007688D01*
X00003735Y00007674D01*
X00003758Y00007658D01*
X00003781Y00007640D01*
X00003801Y00007621D01*
X00003821Y00007601D01*
X00003839Y00007579D01*
X00003855Y00007556D01*
X00003870Y00007532D01*
X00003882Y00007506D01*
X00003893Y00007480D01*
X00003902Y00007454D01*
X00003909Y00007426D01*
X00003915Y00007399D01*
X00003918Y00007370D01*
X00003928Y00007242D01*
X00003944Y00007078D01*
X00003963Y00006914D01*
X00003987Y00006751D01*
X00004014Y00006588D01*
X00004044Y00006426D01*
X00004078Y00006264D01*
X00004116Y00006104D01*
X00004157Y00005944D01*
X00004201Y00005785D01*
X00004249Y00005627D01*
X00004301Y00005470D01*
X00004356Y00005315D01*
X00004414Y00005161D01*
X00004476Y00005008D01*
X00004541Y00004856D01*
X00004610Y00004706D01*
X00004681Y00004557D01*
X00004756Y00004410D01*
X00004834Y00004265D01*
X00004916Y00004121D01*
X00005000Y00003980D01*
X00005088Y00003840D01*
X00005179Y00003702D01*
X00005272Y00003566D01*
X00005369Y00003432D01*
X00005468Y00003301D01*
X00005571Y00003171D01*
X00005676Y00003044D01*
X00005784Y00002919D01*
X00005895Y00002797D01*
X00006008Y00002677D01*
X00006124Y00002560D01*
X00006242Y00002445D01*
X00006363Y00002333D01*
X00006487Y00002223D01*
X00006613Y00002116D01*
X00006741Y00002012D01*
X00006871Y00001911D01*
X00007004Y00001813D01*
X00007139Y00001718D01*
X00007275Y00001626D01*
X00007414Y00001536D01*
X00007555Y00001450D01*
X00007697Y00001367D01*
X00007842Y00001287D01*
X00007988Y00001210D01*
X00008136Y00001137D01*
X00008285Y00001067D01*
X00008436Y00001000D01*
X00008588Y00000936D01*
X00008742Y00000876D01*
X00008897Y00000819D01*
X00009053Y00000766D01*
X00009210Y00000716D01*
X00009368Y00000669D01*
X00009528Y00000626D01*
X00009688Y00000587D01*
X00009849Y00000551D01*
X00010011Y00000518D01*
X00010173Y00000489D01*
X00010336Y00000464D01*
X00010500Y00000442D01*
X00010664Y00000424D01*
X00010828Y00000410D01*
X00010993Y00000399D01*
X00011158Y00000392D01*
X00011322Y00000388D01*
X00011488Y00000388D01*
X00011652Y00000392D01*
X00011817Y00000399D01*
X00011982Y00000410D01*
X00012146Y00000424D01*
X00012310Y00000442D01*
X00012474Y00000464D01*
X00012637Y00000489D01*
X00012799Y00000518D01*
X00012961Y00000551D01*
X00013122Y00000587D01*
X00013282Y00000626D01*
X00013442Y00000669D01*
X00013600Y00000716D01*
X00013757Y00000766D01*
X00013913Y00000819D01*
X00014068Y00000876D01*
X00014222Y00000936D01*
X00014374Y00001000D01*
X00014525Y00001067D01*
X00014674Y00001137D01*
X00014822Y00001210D01*
X00014968Y00001287D01*
X00015113Y00001367D01*
X00015255Y00001450D01*
X00015396Y00001536D01*
X00015535Y00001626D01*
X00015671Y00001718D01*
X00015806Y00001813D01*
X00015939Y00001911D01*
X00016069Y00002012D01*
X00016197Y00002116D01*
X00016323Y00002223D01*
X00016447Y00002333D01*
X00016568Y00002445D01*
X00016686Y00002560D01*
X00016802Y00002677D01*
X00016915Y00002797D01*
X00017026Y00002919D01*
X00017134Y00003044D01*
X00017239Y00003171D01*
X00017342Y00003301D01*
X00017441Y00003432D01*
X00017538Y00003566D01*
X00017631Y00003702D01*
X00017722Y00003840D01*
X00017810Y00003980D01*
X00017894Y00004121D01*
X00017976Y00004265D01*
X00018054Y00004410D01*
X00018129Y00004557D01*
X00018200Y00004706D01*
X00018269Y00004856D01*
X00018334Y00005008D01*
X00018396Y00005161D01*
X00018454Y00005315D01*
X00018509Y00005470D01*
X00018561Y00005627D01*
X00018609Y00005785D01*
X00018653Y00005944D01*
X00018694Y00006104D01*
X00018732Y00006264D01*
X00018766Y00006426D01*
X00018796Y00006588D01*
X00018823Y00006751D01*
X00018847Y00006914D01*
X00018866Y00007078D01*
X00018882Y00007242D01*
X00018894Y00007390D01*
X00018897Y00007420D01*
X00018903Y00007449D01*
X00018911Y00007478D01*
X00018921Y00007506D01*
X00018933Y00007533D01*
X00018947Y00007560D01*
X00018963Y00007585D01*
X00018981Y00007609D01*
X00019001Y00007631D01*
X00019022Y00007652D01*
X00019045Y00007671D01*
X00019070Y00007689D01*
X00019095Y00007704D01*
X00019122Y00007718D01*
X00019149Y00007729D01*
X00019178Y00007739D01*
X00019207Y00007746D01*
X00019236Y00007751D01*
X00019266Y00007753D01*
X00019296Y00007754D01*
X00020071Y00007734D01*
X00020099Y00007732D01*
X00020128Y00007729D01*
X00020156Y00007723D01*
X00020184Y00007714D01*
X00020211Y00007704D01*
X00020238Y00007692D01*
X00020263Y00007678D01*
X00020287Y00007663D01*
X00020310Y00007645D01*
X00020332Y00007626D01*
X00020352Y00007605D01*
X00020371Y00007583D01*
X00020388Y00007560D01*
X00020403Y00007535D01*
X00020416Y00007510D01*
X00020428Y00007483D01*
X00020437Y00007456D01*
X00020445Y00007428D01*
X00020450Y00007399D01*
X00020453Y00007370D01*
X00020463Y00007242D01*
X00020479Y00007078D01*
X00020499Y00006914D01*
X00020522Y00006751D01*
X00020549Y00006588D01*
X00020580Y00006426D01*
X00020614Y00006264D01*
X00020651Y00006104D01*
X00020692Y00005944D01*
X00020737Y00005785D01*
X00020785Y00005627D01*
X00020836Y00005470D01*
X00020891Y00005315D01*
X00020950Y00005161D01*
X00021012Y00005008D01*
X00021077Y00004856D01*
X00021145Y00004706D01*
X00021217Y00004557D01*
X00021292Y00004410D01*
X00021370Y00004265D01*
X00021451Y00004121D01*
X00021536Y00003980D01*
X00021623Y00003840D01*
X00021714Y00003702D01*
X00021808Y00003566D01*
X00021904Y00003432D01*
X00022004Y00003301D01*
X00022106Y00003171D01*
X00022211Y00003044D01*
X00022319Y00002919D01*
X00022430Y00002797D01*
X00022543Y00002677D01*
X00022659Y00002560D01*
X00022778Y00002445D01*
X00022899Y00002333D01*
X00023022Y00002223D01*
X00023148Y00002116D01*
X00023276Y00002012D01*
X00023407Y00001911D01*
X00023539Y00001813D01*
X00023674Y00001718D01*
X00023811Y00001626D01*
X00023950Y00001536D01*
X00024090Y00001450D01*
X00024233Y00001367D01*
X00024377Y00001287D01*
X00024523Y00001210D01*
X00024671Y00001137D01*
X00024820Y00001067D01*
X00024971Y00001000D01*
X00025123Y00000936D01*
X00025277Y00000876D01*
X00025432Y00000819D01*
X00025588Y00000766D01*
X00025745Y00000716D01*
X00025904Y00000669D01*
X00026063Y00000626D01*
X00026223Y00000587D01*
X00026384Y00000551D01*
X00026546Y00000518D01*
X00026708Y00000489D01*
X00026872Y00000464D01*
X00027035Y00000442D01*
X00027199Y00000424D01*
X00027363Y00000410D01*
X00027528Y00000399D01*
X00027693Y00000392D01*
X00027858Y00000388D01*
X00028023Y00000388D01*
X00028188Y00000392D01*
X00028353Y00000399D01*
X00028517Y00000410D01*
X00028682Y00000424D01*
X00028846Y00000442D01*
X00029009Y00000464D01*
X00029172Y00000489D01*
X00029335Y00000518D01*
X00029497Y00000551D01*
X00029658Y00000587D01*
X00029818Y00000626D01*
X00029977Y00000669D01*
X00030136Y00000716D01*
X00030293Y00000766D01*
X00030449Y00000819D01*
X00030604Y00000876D01*
X00030757Y00000936D01*
X00030910Y00001000D01*
X00031060Y00001067D01*
X00031210Y00001137D01*
X00031358Y00001210D01*
X00031504Y00001287D01*
X00031648Y00001367D01*
X00031791Y00001450D01*
X00031931Y00001536D01*
X00032070Y00001626D01*
X00032207Y00001718D01*
X00032342Y00001813D01*
X00032474Y00001911D01*
X00032605Y00002012D01*
X00032733Y00002116D01*
X00032858Y00002223D01*
X00032982Y00002333D01*
X00033103Y00002445D01*
X00033221Y00002560D01*
X00033337Y00002677D01*
X00033451Y00002797D01*
X00033562Y00002919D01*
X00033670Y00003044D01*
X00033775Y00003171D01*
X00033877Y00003301D01*
X00033977Y00003432D01*
X00034073Y00003566D01*
X00034167Y00003702D01*
X00034258Y00003840D01*
X00034345Y00003980D01*
X00034430Y00004121D01*
X00034511Y00004265D01*
X00034589Y00004410D01*
X00034664Y00004557D01*
X00034736Y00004706D01*
X00034804Y00004856D01*
X00034869Y00005008D01*
X00034931Y00005161D01*
X00034989Y00005315D01*
X00035044Y00005470D01*
X00035096Y00005627D01*
X00035144Y00005785D01*
X00035189Y00005944D01*
X00035230Y00006104D01*
X00035267Y00006264D01*
X00035301Y00006426D01*
X00035332Y00006588D01*
X00035359Y00006751D01*
X00035382Y00006914D01*
X00035402Y00007078D01*
X00035418Y00007242D01*
X00035429Y00007390D01*
X00035432Y00007419D01*
X00035438Y00007447D01*
X00035445Y00007475D01*
X00035454Y00007502D01*
X00035466Y00007528D01*
X00035479Y00007554D01*
X00035494Y00007578D01*
X00035511Y00007602D01*
X00035529Y00007624D01*
X00035549Y00007644D01*
X00035571Y00007663D01*
X00035594Y00007681D01*
X00035618Y00007697D01*
X00035643Y00007711D01*
X00035669Y00007723D01*
X00035696Y00007733D01*
X00035723Y00007741D01*
X00035751Y00007747D01*
X00035780Y00007752D01*
X00035808Y00007754D01*
X00036600Y00007780D01*
X00036632Y00007780D01*
X00036663Y00007777D01*
X00036695Y00007772D01*
X00036725Y00007764D01*
X00036755Y00007754D01*
X00036784Y00007742D01*
X00036812Y00007727D01*
X00036839Y00007710D01*
X00036864Y00007691D01*
X00036887Y00007670D01*
X00036909Y00007647D01*
X00036929Y00007623D01*
X00036947Y00007597D01*
X00036963Y00007569D01*
X00036976Y00007541D01*
X00036987Y00007511D01*
X00036996Y00007481D01*
X00037002Y00007450D01*
X00037006Y00007418D01*
X00037007Y00007387D01*
X00037007Y00000000D01*
X00038976Y00000000D01*
X00038976Y00038582D01*
X00037007Y00038582D01*
X00037007Y00028439D01*
X00018860Y00026713D02*
X00018860Y00026713D01*
X00018865Y00026741D01*
X00018871Y00026770D01*
X00018880Y00026797D01*
X00018891Y00026824D01*
X00018904Y00026850D01*
X00018918Y00026875D01*
X00018934Y00026899D01*
X00018953Y00026922D01*
X00018972Y00026943D01*
X00018993Y00026963D01*
X00019016Y00026981D01*
X00019040Y00026998D01*
X00019065Y00027012D01*
X00019091Y00027025D01*
X00019118Y00027036D01*
X00019146Y00027045D01*
X00019174Y00027052D01*
X00019203Y00027056D01*
X00019232Y00027059D01*
X00019261Y00027059D01*
X00020106Y00027039D01*
X00020134Y00027037D01*
X00020162Y00027034D01*
X00020189Y00027028D01*
X00020217Y00027020D01*
X00020243Y00027011D01*
X00020269Y00027000D01*
X00020293Y00026986D01*
X00020317Y00026972D01*
X00020340Y00026955D01*
X00020361Y00026937D01*
X00020382Y00026917D01*
X00020400Y00026896D01*
X00020417Y00026874D01*
X00020433Y00026850D01*
X00020447Y00026826D01*
X00020459Y00026801D01*
X00020469Y00026774D01*
X00020477Y00026748D01*
X00020483Y00026720D01*
X00020488Y00026692D01*
X00020499Y00026599D01*
X00020522Y00026436D01*
X00020549Y00026273D01*
X00020580Y00026111D01*
X00020614Y00025949D01*
X00020651Y00025789D01*
X00020692Y00025629D01*
X00020737Y00025470D01*
X00020785Y00025312D01*
X00020836Y00025156D01*
X00020891Y00025000D01*
X00020950Y00024846D01*
X00021012Y00024693D01*
X00021077Y00024541D01*
X00021145Y00024391D01*
X00021217Y00024242D01*
X00021292Y00024095D01*
X00021370Y00023950D01*
X00021451Y00023806D01*
X00021536Y00023665D01*
X00021623Y00023525D01*
X00021714Y00023387D01*
X00021808Y00023251D01*
X00021904Y00023117D01*
X00022004Y00022986D01*
X00022106Y00022856D01*
X00022211Y00022729D01*
X00022319Y00022604D01*
X00022430Y00022482D01*
X00022543Y00022362D01*
X00022659Y00022245D01*
X00022778Y00022130D01*
X00022899Y00022018D01*
X00023022Y00021908D01*
X00023148Y00021801D01*
X00023276Y00021698D01*
X00023407Y00021596D01*
X00023539Y00021498D01*
X00023674Y00021403D01*
X00023811Y00021311D01*
X00023950Y00021221D01*
X00024090Y00021135D01*
X00024233Y00021052D01*
X00024377Y00020972D01*
X00024523Y00020895D01*
X00024671Y00020822D01*
X00024820Y00020752D01*
X00024971Y00020685D01*
X00025123Y00020621D01*
X00025277Y00020561D01*
X00025432Y00020504D01*
X00025588Y00020451D01*
X00025745Y00020401D01*
X00025904Y00020354D01*
X00026063Y00020311D01*
X00026223Y00020272D01*
X00026384Y00020236D01*
X00026546Y00020203D01*
X00026708Y00020174D01*
X00026872Y00020149D01*
X00027035Y00020127D01*
X00027110Y00020119D01*
X00027136Y00020115D01*
X00027162Y00020110D01*
X00027187Y00020103D01*
X00027212Y00020094D01*
X00027236Y00020083D01*
X00027259Y00020071D01*
X00027282Y00020058D01*
X00027303Y00020043D01*
X00027324Y00020026D01*
X00027343Y00020008D01*
X00027361Y00019989D01*
X00027378Y00019969D01*
X00027393Y00019948D01*
X00027407Y00019926D01*
X00027420Y00019903D01*
X00027430Y00019879D01*
X00027440Y00019854D01*
X00027447Y00019829D01*
X00027453Y00019804D01*
X00027457Y00019778D01*
X00027596Y00018694D01*
X00027599Y00018668D01*
X00027599Y00018642D01*
X00027598Y00018616D01*
X00027596Y00018590D01*
X00027591Y00018564D01*
X00027585Y00018538D01*
X00027577Y00018513D01*
X00027567Y00018489D01*
X00027556Y00018465D01*
X00027544Y00018442D01*
X00027529Y00018420D01*
X00027514Y00018399D01*
X00027497Y00018379D01*
X00027479Y00018361D01*
X00027459Y00018343D01*
X00027438Y00018327D01*
X00027417Y00018312D01*
X00027394Y00018299D01*
X00027371Y00018287D01*
X00027347Y00018277D01*
X00027290Y00018255D01*
X00027140Y00018179D01*
X00027000Y00018088D01*
X00026870Y00017982D01*
X00026751Y00017864D01*
X00026646Y00017734D01*
X00026555Y00017593D01*
X00026479Y00017444D01*
X00026419Y00017288D01*
X00026375Y00017126D01*
X00026349Y00016960D01*
X00026340Y00016793D01*
X00026334Y00016622D01*
X00026313Y00016453D01*
X00026280Y00016285D01*
X00026233Y00016121D01*
X00026173Y00015961D01*
X00026101Y00015806D01*
X00026017Y00015657D01*
X00025921Y00015516D01*
X00025814Y00015382D01*
X00025697Y00015258D01*
X00025571Y00015143D01*
X00025435Y00015038D01*
X00025292Y00014945D01*
X00025142Y00014863D01*
X00024986Y00014793D01*
X00024835Y00014727D01*
X00024686Y00014657D01*
X00024538Y00014584D01*
X00024392Y00014507D01*
X00024247Y00014427D01*
X00024105Y00014345D01*
X00023964Y00014259D01*
X00023825Y00014170D01*
X00023688Y00014078D01*
X00023553Y00013983D01*
X00023420Y00013885D01*
X00023289Y00013784D01*
X00023161Y00013680D01*
X00023035Y00013574D01*
X00022911Y00013465D01*
X00022790Y00013353D01*
X00022671Y00013238D01*
X00022555Y00013121D01*
X00022441Y00013002D01*
X00022330Y00012879D01*
X00022222Y00012755D01*
X00022117Y00012628D01*
X00022014Y00012499D01*
X00021914Y00012367D01*
X00021817Y00012234D01*
X00021723Y00012098D01*
X00021632Y00011961D01*
X00021544Y00011821D01*
X00021460Y00011679D01*
X00021378Y00011536D01*
X00021299Y00011391D01*
X00021224Y00011244D01*
X00021152Y00011096D01*
X00021083Y00010946D01*
X00021018Y00010794D01*
X00020956Y00010641D01*
X00020897Y00010487D01*
X00020842Y00010332D01*
X00020790Y00010175D01*
X00020741Y00010017D01*
X00020697Y00009858D01*
X00020655Y00009699D01*
X00020617Y00009538D01*
X00020583Y00009377D01*
X00020552Y00009215D01*
X00020531Y00009091D01*
X00020526Y00009064D01*
X00020518Y00009038D01*
X00020509Y00009012D01*
X00020499Y00008987D01*
X00020486Y00008963D01*
X00020472Y00008940D01*
X00020456Y00008918D01*
X00020439Y00008897D01*
X00020421Y00008877D01*
X00020401Y00008858D01*
X00020379Y00008841D01*
X00020357Y00008826D01*
X00020334Y00008812D01*
X00020310Y00008799D01*
X00020285Y00008788D01*
X00020259Y00008780D01*
X00020233Y00008772D01*
X00020206Y00008767D01*
X00020179Y00008764D01*
X00020152Y00008762D01*
X00019215Y00008741D01*
X00019187Y00008741D01*
X00019159Y00008744D01*
X00019131Y00008748D01*
X00019104Y00008754D01*
X00019077Y00008763D01*
X00019051Y00008773D01*
X00019025Y00008785D01*
X00019001Y00008799D01*
X00018977Y00008814D01*
X00018955Y00008831D01*
X00018934Y00008850D01*
X00018915Y00008870D01*
X00018896Y00008892D01*
X00018880Y00008914D01*
X00018865Y00008938D01*
X00018852Y00008963D01*
X00018841Y00008989D01*
X00018831Y00009015D01*
X00018823Y00009042D01*
X00018818Y00009070D01*
X00018794Y00009215D01*
X00018763Y00009377D01*
X00018728Y00009538D01*
X00018690Y00009699D01*
X00018649Y00009858D01*
X00018604Y00010017D01*
X00018556Y00010175D01*
X00018504Y00010332D01*
X00018448Y00010487D01*
X00018390Y00010641D01*
X00018328Y00010794D01*
X00018262Y00010946D01*
X00018193Y00011096D01*
X00018121Y00011244D01*
X00018046Y00011391D01*
X00017968Y00011536D01*
X00017886Y00011679D01*
X00017801Y00011821D01*
X00017713Y00011961D01*
X00017622Y00012098D01*
X00017528Y00012234D01*
X00017431Y00012367D01*
X00017332Y00012499D01*
X00017229Y00012628D01*
X00017123Y00012755D01*
X00017015Y00012879D01*
X00016904Y00013002D01*
X00016791Y00013121D01*
X00016674Y00013238D01*
X00016556Y00013353D01*
X00016434Y00013465D01*
X00016311Y00013574D01*
X00016185Y00013680D01*
X00016056Y00013784D01*
X00015926Y00013885D01*
X00015793Y00013983D01*
X00015658Y00014078D01*
X00015521Y00014170D01*
X00015382Y00014259D01*
X00015241Y00014345D01*
X00015098Y00014427D01*
X00014954Y00014507D01*
X00014807Y00014583D01*
X00014660Y00014657D01*
X00014510Y00014727D01*
X00014359Y00014793D01*
X00014359Y00014793D01*
X00014203Y00014863D01*
X00014053Y00014945D01*
X00013910Y00015038D01*
X00013775Y00015143D01*
X00013648Y00015258D01*
X00013531Y00015382D01*
X00013425Y00015516D01*
X00013329Y00015657D01*
X00013245Y00015806D01*
X00013172Y00015961D01*
X00013113Y00016121D01*
X00013066Y00016285D01*
X00013032Y00016453D01*
X00013012Y00016622D01*
X00013005Y00016793D01*
X00012996Y00016960D01*
X00012970Y00017126D01*
X00012927Y00017288D01*
X00012867Y00017444D01*
X00012791Y00017593D01*
X00012699Y00017734D01*
X00012594Y00017864D01*
X00012476Y00017982D01*
X00012345Y00018088D01*
X00012205Y00018179D01*
X00012056Y00018255D01*
X00012013Y00018271D01*
X00011989Y00018282D01*
X00011965Y00018293D01*
X00011943Y00018307D01*
X00011921Y00018322D01*
X00011900Y00018338D01*
X00011881Y00018356D01*
X00011862Y00018374D01*
X00011845Y00018395D01*
X00011830Y00018416D01*
X00011816Y00018438D01*
X00011803Y00018461D01*
X00011792Y00018485D01*
X00011782Y00018509D01*
X00011775Y00018534D01*
X00011768Y00018560D01*
X00011764Y00018586D01*
X00011761Y00018612D01*
X00011760Y00018638D01*
X00011761Y00018665D01*
X00011764Y00018691D01*
X00011910Y00019782D01*
X00011914Y00019808D01*
X00011920Y00019833D01*
X00011928Y00019858D01*
X00011937Y00019883D01*
X00011948Y00019906D01*
X00011960Y00019929D01*
X00011974Y00019952D01*
X00011990Y00019973D01*
X00012007Y00019993D01*
X00012025Y00020012D01*
X00012044Y00020029D01*
X00012064Y00020046D01*
X00012086Y00020060D01*
X00012108Y00020074D01*
X00012131Y00020086D01*
X00012155Y00020096D01*
X00012180Y00020105D01*
X00012205Y00020112D01*
X00012231Y00020118D01*
X00012257Y00020121D01*
X00012310Y00020127D01*
X00012474Y00020149D01*
X00012637Y00020174D01*
X00012799Y00020203D01*
X00012961Y00020236D01*
X00013122Y00020272D01*
X00013282Y00020311D01*
X00013442Y00020354D01*
X00013600Y00020401D01*
X00013757Y00020451D01*
X00013913Y00020504D01*
X00014068Y00020561D01*
X00014222Y00020621D01*
X00014374Y00020685D01*
X00014525Y00020752D01*
X00014674Y00020822D01*
X00014822Y00020895D01*
X00014968Y00020972D01*
X00015113Y00021052D01*
X00015255Y00021135D01*
X00015396Y00021221D01*
X00015535Y00021311D01*
X00015671Y00021403D01*
X00015806Y00021498D01*
X00015939Y00021596D01*
X00016069Y00021698D01*
X00016197Y00021801D01*
X00016323Y00021908D01*
X00016447Y00022018D01*
X00016568Y00022130D01*
X00016686Y00022245D01*
X00016802Y00022362D01*
X00016915Y00022482D01*
X00017026Y00022604D01*
X00017134Y00022729D01*
X00017239Y00022856D01*
X00017342Y00022986D01*
X00017441Y00023117D01*
X00017538Y00023251D01*
X00017631Y00023387D01*
X00017722Y00023525D01*
X00017810Y00023665D01*
X00017894Y00023806D01*
X00017976Y00023950D01*
X00018054Y00024095D01*
X00018129Y00024242D01*
X00018200Y00024391D01*
X00018269Y00024541D01*
X00018334Y00024693D01*
X00018396Y00024846D01*
X00018454Y00025000D01*
X00018509Y00025155D01*
X00018561Y00025312D01*
X00018609Y00025470D01*
X00018653Y00025629D01*
X00018694Y00025789D01*
X00018732Y00025949D01*
X00018766Y00026111D01*
X00018796Y00026273D01*
X00018823Y00026436D01*
X00018847Y00026599D01*
X00018860Y00026713D01*
X00002362Y00026678D02*
X00002362Y00026678D01*
X00002363Y00026710D01*
X00002367Y00026741D01*
X00002373Y00026772D01*
X00002382Y00026803D01*
X00002393Y00026833D01*
X00002407Y00026861D01*
X00002423Y00026889D01*
X00002441Y00026915D01*
X00002461Y00026939D01*
X00002483Y00026962D01*
X00002506Y00026983D01*
X00002532Y00027002D01*
X00002559Y00027019D01*
X00002587Y00027034D01*
X00002616Y00027046D01*
X00002646Y00027056D01*
X00002677Y00027064D01*
X00002708Y00027069D01*
X00002740Y00027072D01*
X00002771Y00027072D01*
X00003577Y00027039D01*
X00003605Y00027037D01*
X00003632Y00027033D01*
X00003660Y00027027D01*
X00003686Y00027019D01*
X00003712Y00027009D01*
X00003737Y00026998D01*
X00003762Y00026984D01*
X00003785Y00026969D01*
X00003807Y00026953D01*
X00003828Y00026935D01*
X00003848Y00026915D01*
X00003866Y00026894D01*
X00003883Y00026872D01*
X00003898Y00026849D01*
X00003912Y00026825D01*
X00003924Y00026799D01*
X00003934Y00026773D01*
X00003942Y00026747D01*
X00003948Y00026720D01*
X00003952Y00026692D01*
X00003963Y00026599D01*
X00003987Y00026436D01*
X00004014Y00026273D01*
X00004044Y00026111D01*
X00004078Y00025949D01*
X00004116Y00025789D01*
X00004157Y00025629D01*
X00004201Y00025470D01*
X00004249Y00025312D01*
X00004301Y00025156D01*
X00004356Y00025000D01*
X00004414Y00024846D01*
X00004476Y00024693D01*
X00004541Y00024541D01*
X00004610Y00024391D01*
X00004681Y00024242D01*
X00004756Y00024095D01*
X00004834Y00023950D01*
X00004916Y00023806D01*
X00005000Y00023665D01*
X00005088Y00023525D01*
X00005179Y00023387D01*
X00005272Y00023251D01*
X00005369Y00023117D01*
X00005468Y00022986D01*
X00005571Y00022856D01*
X00005676Y00022729D01*
X00005784Y00022604D01*
X00005895Y00022482D01*
X00006008Y00022362D01*
X00006124Y00022245D01*
X00006242Y00022130D01*
X00006363Y00022018D01*
X00006487Y00021908D01*
X00006613Y00021801D01*
X00006741Y00021698D01*
X00006871Y00021596D01*
X00007004Y00021498D01*
X00007139Y00021403D01*
X00007275Y00021311D01*
X00007414Y00021221D01*
X00007555Y00021135D01*
X00007697Y00021052D01*
X00007842Y00020972D01*
X00007988Y00020895D01*
X00008136Y00020822D01*
X00008285Y00020752D01*
X00008436Y00020685D01*
X00008588Y00020621D01*
X00008742Y00020561D01*
X00008897Y00020504D01*
X00009053Y00020451D01*
X00009210Y00020401D01*
X00009368Y00020354D01*
X00009528Y00020311D01*
X00009688Y00020272D01*
X00009849Y00020236D01*
X00010011Y00020203D01*
X00010173Y00020174D01*
X00010336Y00020149D01*
X00010500Y00020127D01*
X00010575Y00020119D01*
X00010601Y00020115D01*
X00010626Y00020110D01*
X00010652Y00020103D01*
X00010676Y00020094D01*
X00010700Y00020083D01*
X00010724Y00020071D01*
X00010746Y00020058D01*
X00010768Y00020043D01*
X00010788Y00020026D01*
X00010807Y00020008D01*
X00010826Y00019989D01*
X00010842Y00019969D01*
X00010858Y00019948D01*
X00010872Y00019926D01*
X00010884Y00019903D01*
X00010895Y00019879D01*
X00010904Y00019854D01*
X00010912Y00019829D01*
X00010918Y00019804D01*
X00010922Y00019778D01*
X00011061Y00018694D01*
X00011063Y00018668D01*
X00011064Y00018642D01*
X00011063Y00018616D01*
X00011060Y00018590D01*
X00011056Y00018564D01*
X00011049Y00018538D01*
X00011042Y00018513D01*
X00011032Y00018489D01*
X00011021Y00018465D01*
X00011008Y00018442D01*
X00010994Y00018420D01*
X00010978Y00018399D01*
X00010961Y00018379D01*
X00010943Y00018361D01*
X00010924Y00018343D01*
X00010903Y00018327D01*
X00010881Y00018312D01*
X00010859Y00018299D01*
X00010835Y00018287D01*
X00010811Y00018277D01*
X00010754Y00018255D01*
X00010605Y00018179D01*
X00010465Y00018088D01*
X00010334Y00017982D01*
X00010216Y00017864D01*
X00010111Y00017734D01*
X00010019Y00017593D01*
X00009943Y00017444D01*
X00009883Y00017288D01*
X00009840Y00017126D01*
X00009814Y00016960D01*
X00009805Y00016793D01*
X00009798Y00016622D01*
X00009778Y00016453D01*
X00009744Y00016285D01*
X00009697Y00016121D01*
X00009638Y00015961D01*
X00009565Y00015806D01*
X00009481Y00015657D01*
X00009385Y00015516D01*
X00009279Y00015382D01*
X00009162Y00015258D01*
X00009035Y00015143D01*
X00008900Y00015038D01*
X00008757Y00014945D01*
X00008607Y00014863D01*
X00008451Y00014793D01*
X00008300Y00014727D01*
X00008151Y00014657D01*
X00008003Y00014584D01*
X00007856Y00014507D01*
X00007712Y00014427D01*
X00007569Y00014345D01*
X00007428Y00014259D01*
X00007289Y00014170D01*
X00007152Y00014078D01*
X00007017Y00013983D01*
X00006884Y00013885D01*
X00006754Y00013784D01*
X00006625Y00013680D01*
X00006499Y00013574D01*
X00006376Y00013465D01*
X00006254Y00013353D01*
X00006136Y00013238D01*
X00006019Y00013121D01*
X00005906Y00013002D01*
X00005795Y00012879D01*
X00005687Y00012755D01*
X00005581Y00012628D01*
X00005478Y00012499D01*
X00005379Y00012367D01*
X00005282Y00012234D01*
X00005188Y00012098D01*
X00005097Y00011961D01*
X00005009Y00011821D01*
X00004924Y00011679D01*
X00004843Y00011536D01*
X00004764Y00011391D01*
X00004689Y00011244D01*
X00004617Y00011096D01*
X00004548Y00010946D01*
X00004482Y00010794D01*
X00004420Y00010641D01*
X00004362Y00010487D01*
X00004306Y00010332D01*
X00004254Y00010175D01*
X00004206Y00010017D01*
X00004161Y00009858D01*
X00004120Y00009699D01*
X00004082Y00009538D01*
X00004047Y00009377D01*
X00004016Y00009215D01*
X00003996Y00009091D01*
X00003990Y00009064D01*
X00003983Y00009037D01*
X00003974Y00009012D01*
X00003963Y00008986D01*
X00003950Y00008962D01*
X00003936Y00008939D01*
X00003920Y00008916D01*
X00003902Y00008895D01*
X00003883Y00008875D01*
X00003863Y00008857D01*
X00003842Y00008839D01*
X00003819Y00008824D01*
X00003795Y00008810D01*
X00003771Y00008798D01*
X00003746Y00008787D01*
X00003720Y00008778D01*
X00003693Y00008772D01*
X00003666Y00008766D01*
X00003639Y00008763D01*
X00003611Y00008762D01*
X00002759Y00008754D01*
X00002728Y00008755D01*
X00002697Y00008758D01*
X00002667Y00008764D01*
X00002637Y00008772D01*
X00002607Y00008783D01*
X00002579Y00008796D01*
X00002552Y00008811D01*
X00002526Y00008828D01*
X00002501Y00008847D01*
X00002478Y00008868D01*
X00002457Y00008891D01*
X00002438Y00008915D01*
X00002420Y00008941D01*
X00002405Y00008968D01*
X00002392Y00008996D01*
X00002381Y00009025D01*
X00002373Y00009055D01*
X00002367Y00009086D01*
X00002363Y00009116D01*
X00002362Y00009148D01*
X00002362Y00026678D01*
M02*