%MOIN*%
%OFA0B0*%
%FSLAX46Y46*%
%IPPOS*%
%LPD*%
%ADD10C,0.00984251968503937*%
%ADD11C,0.011811023622047244*%
%ADD12C,0.013779527559055118*%
%ADD13C,0.015748031496062992*%
%LPD*%
D10*
X0000758500Y0000019700D02*
X0000774499Y0000020100D01*
X0000790600Y0000020799D01*
X0000806600Y0000021800D01*
X0000822600Y0000023200D01*
X0000838600Y0000025000D01*
X0000854500Y0000027100D01*
X0000870400Y0000029600D01*
X0000886200Y0000032400D01*
X0000902000Y0000035500D01*
X0000917700Y0000039000D01*
X0000933300Y0000042899D01*
X0000948800Y0000047100D01*
X0000964200Y0000051600D01*
X0000979500Y0000056500D01*
X0000994700Y0000061700D01*
X0001009800Y0000067200D01*
X0001024799Y0000073100D01*
X0001039600Y0000079300D01*
X0001054300Y0000085799D01*
X0001068800Y0000092600D01*
X0001083200Y0000099800D01*
X0001097400Y0000107300D01*
X0001111500Y0000115100D01*
X0001125400Y0000123100D01*
X0001139100Y0000131500D01*
X0001152600Y0000140200D01*
X0001165900Y0000149200D01*
X0001179000Y0000158500D01*
X0001191900Y0000168100D01*
X0001204600Y0000177900D01*
X0001217100Y0000188000D01*
X0001229400Y0000198400D01*
X0001241400Y0000209100D01*
X0001253200Y0000220000D01*
X0001264700Y0000231200D01*
X0001275999Y0000242600D01*
X0001287000Y0000254300D01*
X0001297800Y0000266200D01*
X0001308300Y0000278300D01*
X0001318599Y0000290700D01*
X0001328500Y0000303300D01*
X0001338200Y0000316099D01*
X0001347600Y0000329200D01*
X0001356800Y0000342400D01*
X0001365600Y0000355800D01*
X0001374100Y0000369400D01*
X0001382300Y0000383300D01*
X0001390300Y0000397200D01*
X0001397900Y0000411400D01*
X0001405200Y0000425700D01*
X0001412200Y0000440200D01*
X0001418800Y0000454800D01*
X0001425200Y0000469500D01*
X0001431200Y0000484400D01*
X0001436900Y0000499500D01*
X0001442200Y0000514599D01*
X0001447200Y0000529900D01*
X0001451900Y0000545300D01*
X0001456300Y0000560700D01*
X0001460300Y0000576300D01*
X0001463900Y0000591900D01*
X0001467200Y0000607700D01*
X0001470199Y0000623400D01*
X0001472800Y0000639300D01*
X0001475100Y0000655200D01*
X0001477000Y0000671199D01*
X0001478600Y0000687200D01*
X0001479800Y0000703200D01*
X0001480700Y0000719200D01*
X0001481200Y0000735299D01*
X0001481300Y0000751400D01*
X0001481100Y0000767400D01*
X0001480600Y0000783499D01*
X0001479700Y0000799500D01*
X0001478400Y0000815500D01*
X0001476799Y0000831500D01*
X0001474900Y0000847500D01*
X0001472600Y0000863400D01*
X0001469900Y0000879200D01*
X0001466900Y0000895000D01*
X0001463599Y0000910700D01*
X0001459900Y0000926400D01*
X0001455800Y0000941900D01*
X0001451500Y0000957400D01*
X0001446800Y0000972700D01*
X0001441700Y0000988000D01*
X0001436300Y0001003100D01*
X0001430600Y0001018100D01*
X0001424500Y0001032999D01*
X0001418200Y0001047800D01*
X0001411500Y0001062400D01*
X0001404500Y0001076800D01*
X0001397100Y0001091100D01*
X0001389500Y0001105300D01*
X0001381500Y0001119200D01*
X0001373300Y0001133000D01*
X0001364700Y0001146600D01*
X0001355900Y0001160000D01*
X0001346700Y0001173200D01*
X0001337300Y0001186200D01*
X0001327600Y0001199000D01*
X0001317599Y0001211600D01*
X0001307300Y0001224000D01*
X0001296800Y0001236100D01*
X0001285900Y0001248000D01*
X0001274900Y0001259600D01*
X0001263599Y0001271000D01*
X0001252000Y0001282199D01*
X0001240200Y0001293100D01*
X0001228100Y0001303700D01*
X0001215900Y0001314100D01*
X0001203400Y0001324199D01*
X0001190700Y0001334000D01*
X0001177700Y0001343600D01*
X0001164600Y0001352800D01*
X0001151200Y0001361800D01*
X0001137700Y0001370400D01*
X0001124000Y0001378799D01*
X0001110100Y0001386800D01*
X0001096000Y0001394600D01*
X0001081800Y0001402000D01*
X0001067400Y0001409199D01*
X0001052800Y0001415999D01*
X0001037900Y0001422500D01*
X0001037900Y0001422600D01*
X0001037800Y0001422600D01*
X0001022200Y0001429500D01*
X0001020799Y0001430200D01*
X0001005800Y0001438400D01*
X0001004500Y0001439199D01*
X0000990200Y0001448600D01*
X0000988900Y0001449500D01*
X0000975400Y0001459900D01*
X0000974200Y0001460900D01*
X0000961500Y0001472400D01*
X0000960400Y0001473500D01*
X0000948700Y0001486000D01*
X0000947700Y0001487200D01*
X0000937000Y0001500500D01*
X0000936100Y0001501800D01*
X0000926500Y0001515900D01*
X0000925700Y0001517200D01*
X0000917300Y0001532100D01*
X0000916600Y0001533500D01*
X0000909300Y0001548999D01*
X0000908700Y0001550400D01*
X0000902800Y0001566400D01*
X0000902300Y0001567900D01*
X0000897600Y0001584400D01*
X0000897200Y0001585900D01*
X0000893900Y0001602600D01*
X0000893600Y0001604200D01*
X0000891600Y0001621100D01*
X0000891500Y0001622700D01*
X0000890800Y0001639600D01*
X0000890000Y0001655200D01*
X0000887700Y0001669700D01*
X0000883900Y0001683900D01*
X0000878600Y0001697600D01*
X0000871900Y0001710700D01*
X0000863900Y0001723000D01*
X0000854700Y0001734400D01*
X0000844300Y0001744800D01*
X0000832900Y0001754000D01*
X0000820600Y0001762000D01*
X0000807500Y0001768700D01*
X0000793800Y0001774000D01*
X0000779600Y0001777800D01*
X0000765100Y0001780100D01*
X0000750499Y0001780800D01*
X0000735800Y0001780100D01*
X0000721300Y0001777800D01*
X0000707100Y0001774000D01*
X0000693400Y0001768700D01*
X0000680299Y0001762000D01*
X0000667999Y0001754000D01*
X0000656600Y0001744800D01*
X0000646200Y0001734400D01*
X0000637000Y0001723000D01*
X0000629000Y0001710700D01*
X0000622300Y0001697600D01*
X0000617000Y0001683900D01*
X0000613200Y0001669700D01*
X0000610900Y0001655200D01*
X0000610100Y0001639600D01*
X0000609400Y0001622700D01*
X0000609300Y0001621100D01*
X0000607300Y0001604200D01*
X0000607000Y0001602600D01*
X0000603700Y0001585900D01*
X0000603300Y0001584400D01*
X0000598600Y0001567900D01*
X0000598100Y0001566400D01*
X0000592200Y0001550400D01*
X0000591600Y0001548999D01*
X0000584300Y0001533500D01*
X0000583600Y0001532100D01*
X0000575200Y0001517200D01*
X0000574400Y0001515900D01*
X0000564800Y0001501800D01*
X0000563900Y0001500500D01*
X0000553200Y0001487200D01*
X0000552200Y0001486000D01*
X0000540500Y0001473500D01*
X0000539400Y0001472400D01*
X0000526700Y0001460900D01*
X0000525500Y0001459900D01*
X0000512000Y0001449500D01*
X0000510700Y0001448600D01*
X0000496400Y0001439199D01*
X0000495100Y0001438400D01*
X0000480100Y0001430200D01*
X0000478700Y0001429500D01*
X0000463100Y0001422600D01*
X0000463000Y0001422500D01*
X0000448100Y0001415999D01*
X0000433500Y0001409199D01*
X0000419099Y0001402000D01*
X0000404900Y0001394600D01*
X0000390800Y0001386800D01*
X0000376900Y0001378799D01*
X0000363200Y0001370400D01*
X0000349700Y0001361800D01*
X0000336300Y0001352800D01*
X0000323200Y0001343500D01*
X0000310300Y0001334000D01*
X0000297500Y0001324199D01*
X0000285000Y0001314100D01*
X0000272800Y0001303700D01*
X0000260700Y0001293100D01*
X0000248900Y0001282199D01*
X0000237300Y0001271000D01*
X0000226000Y0001259600D01*
X0000215000Y0001248000D01*
X0000204100Y0001236100D01*
X0000193599Y0001224000D01*
X0000183300Y0001211600D01*
X0000173300Y0001199000D01*
X0000163600Y0001186200D01*
X0000154200Y0001173200D01*
X0000145000Y0001160000D01*
X0000136200Y0001146600D01*
X0000127599Y0001133000D01*
X0000119400Y0001119200D01*
X0000111400Y0001105300D01*
X0000103800Y0001091100D01*
X0000096400Y0001076800D01*
X0000089400Y0001062400D01*
X0000082700Y0001047800D01*
X0000076400Y0001032999D01*
X0000070300Y0001018100D01*
X0000064600Y0001003100D01*
X0000059200Y0000988000D01*
X0000054100Y0000972700D01*
X0000049400Y0000957400D01*
X0000045100Y0000941900D01*
X0000040999Y0000926400D01*
X0000037300Y0000910700D01*
X0000034000Y0000895000D01*
X0000031000Y0000879200D01*
X0000028300Y0000863400D01*
X0000026000Y0000847500D01*
X0000024100Y0000831500D01*
X0000022499Y0000815500D01*
X0000021200Y0000799500D01*
X0000020300Y0000783499D01*
X0000019800Y0000767400D01*
X0000019600Y0000751400D01*
X0000019700Y0000735299D01*
X0000020200Y0000719200D01*
X0000021100Y0000703200D01*
X0000022299Y0000687200D01*
X0000023900Y0000671199D01*
X0000025800Y0000655200D01*
X0000028100Y0000639300D01*
X0000030700Y0000623400D01*
X0000033700Y0000607700D01*
X0000037000Y0000591900D01*
X0000040600Y0000576300D01*
X0000044599Y0000560700D01*
X0000049000Y0000545300D01*
X0000053700Y0000529900D01*
X0000058700Y0000514599D01*
X0000064000Y0000499500D01*
X0000069700Y0000484400D01*
X0000075700Y0000469600D01*
X0000082100Y0000454800D01*
X0000088700Y0000440200D01*
X0000095699Y0000425700D01*
X0000103000Y0000411400D01*
X0000110600Y0000397200D01*
X0000118600Y0000383200D01*
X0000126800Y0000369400D01*
X0000135300Y0000355800D01*
X0000144100Y0000342400D01*
X0000153300Y0000329200D01*
X0000162700Y0000316200D01*
X0000172399Y0000303300D01*
X0000182299Y0000290700D01*
X0000192600Y0000278300D01*
X0000203100Y0000266200D01*
X0000213900Y0000254300D01*
X0000224900Y0000242600D01*
X0000236200Y0000231200D01*
X0000247700Y0000220000D01*
X0000259500Y0000209100D01*
X0000271500Y0000198400D01*
X0000283800Y0000188000D01*
X0000296300Y0000177900D01*
X0000309000Y0000168100D01*
X0000321899Y0000158500D01*
X0000335000Y0000149200D01*
X0000348300Y0000140200D01*
X0000361800Y0000131500D01*
X0000375500Y0000123100D01*
X0000389400Y0000115100D01*
X0000403500Y0000107300D01*
X0000417700Y0000099800D01*
X0000432100Y0000092600D01*
X0000446600Y0000085799D01*
X0000461300Y0000079300D01*
X0000476100Y0000073100D01*
X0000491100Y0000067200D01*
X0000506200Y0000061700D01*
X0000521400Y0000056500D01*
X0000536700Y0000051600D01*
X0000552100Y0000047100D01*
X0000567600Y0000042899D01*
X0000583200Y0000039000D01*
X0000598900Y0000035500D01*
X0000614600Y0000032400D01*
X0000630500Y0000029600D01*
X0000646300Y0000027100D01*
X0000662299Y0000025000D01*
X0000678200Y0000023200D01*
X0000694300Y0000021800D01*
X0000710300Y0000020799D01*
X0000726400Y0000020100D01*
X0000742400Y0000019700D01*
X0000758500Y0000019700D01*
X0000738800Y0001502800D02*
X0000736900Y0001502800D01*
X0000734999Y0001503100D01*
X0000719799Y0001506199D01*
X0000719799Y0001506199D01*
X0000712200Y0001507700D01*
X0000710300Y0001508100D01*
X0000708500Y0001508800D01*
X0000687000Y0001517700D01*
X0000685200Y0001518500D01*
X0000683599Y0001519500D01*
X0000664200Y0001532400D01*
X0000662700Y0001533600D01*
X0000661200Y0001534900D01*
X0000644800Y0001551300D01*
X0000643500Y0001552800D01*
X0000642300Y0001554300D01*
X0000629400Y0001573700D01*
X0000628400Y0001575300D01*
X0000627600Y0001577100D01*
X0000618700Y0001598600D01*
X0000618000Y0001600400D01*
X0000617600Y0001602300D01*
X0000613000Y0001625100D01*
X0000612700Y0001627000D01*
X0000612700Y0001628900D01*
X0000612700Y0001652199D01*
X0000612700Y0001654100D01*
X0000613000Y0001656000D01*
X0000617600Y0001678800D01*
X0000618000Y0001680700D01*
X0000618700Y0001682500D01*
X0000627600Y0001704000D01*
X0000628400Y0001705800D01*
X0000629400Y0001707400D01*
X0000642300Y0001726800D01*
X0000643500Y0001728300D01*
X0000644800Y0001729800D01*
X0000661200Y0001746200D01*
X0000662700Y0001747500D01*
X0000664200Y0001748700D01*
X0000683599Y0001761600D01*
X0000685200Y0001762600D01*
X0000687000Y0001763400D01*
X0000708500Y0001772300D01*
X0000710300Y0001773000D01*
X0000712200Y0001773400D01*
X0000719799Y0001774900D01*
X0000719799Y0001774900D01*
X0000734999Y0001778000D01*
X0000736900Y0001778300D01*
X0000738800Y0001778300D01*
X0000762100Y0001778300D01*
X0000764000Y0001778300D01*
X0000765900Y0001778000D01*
X0000781100Y0001774900D01*
X0000788700Y0001773400D01*
X0000790600Y0001773000D01*
X0000792400Y0001772300D01*
X0000813899Y0001763400D01*
X0000815700Y0001762600D01*
X0000817300Y0001761600D01*
X0000836700Y0001748700D01*
X0000838199Y0001747500D01*
X0000839700Y0001746200D01*
X0000856100Y0001729800D01*
X0000857400Y0001728300D01*
X0000858600Y0001726800D01*
X0000871500Y0001707400D01*
X0000872500Y0001705800D01*
X0000873300Y0001704000D01*
X0000882200Y0001682500D01*
X0000882900Y0001680700D01*
X0000883300Y0001678800D01*
X0000887900Y0001656000D01*
X0000888200Y0001654100D01*
X0000888200Y0001652199D01*
X0000888200Y0001628900D01*
X0000888200Y0001627000D01*
X0000887900Y0001625100D01*
X0000883300Y0001602300D01*
X0000882900Y0001600400D01*
X0000882200Y0001598600D01*
X0000873300Y0001577100D01*
X0000872500Y0001575300D01*
X0000871500Y0001573700D01*
X0000858600Y0001554300D01*
X0000857400Y0001552800D01*
X0000856100Y0001551300D01*
X0000839700Y0001534900D01*
X0000838199Y0001533600D01*
X0000836700Y0001532400D01*
X0000817300Y0001519500D01*
X0000815700Y0001518500D01*
X0000813899Y0001517700D01*
X0000792400Y0001508800D01*
X0000790600Y0001508100D01*
X0000788700Y0001507700D01*
X0000781100Y0001506199D01*
X0000781100Y0001506199D01*
X0000765900Y0001503100D01*
X0000764000Y0001502800D01*
X0000762100Y0001502800D01*
X0000738800Y0001502800D01*
X0000774100Y0000039300D02*
X0000772600Y0000040400D01*
X0000772300Y0000040200D01*
X0000771900Y0000040100D01*
X0000771700Y0000040999D01*
X0000771700Y0000041100D01*
X0000771599Y0000041100D01*
X0000771299Y0000041100D01*
X0000769100Y0000042699D01*
X0000769100Y0000042699D01*
X0000768499Y0000039400D01*
X0000767300Y0000039600D01*
X0000764300Y0000040300D01*
X0000764000Y0000040400D01*
X0000763700Y0000040300D01*
X0000761300Y0000041100D01*
X0000760300Y0000041500D01*
X0000755000Y0000043499D01*
X0000754700Y0000043600D01*
X0000747399Y0000046699D01*
X0000747199Y0000046699D01*
X0000739700Y0000049900D01*
X0000729500Y0000054100D01*
X0000720900Y0000057200D01*
X0000712600Y0000059700D01*
X0000703600Y0000061900D01*
X0000692799Y0000063799D01*
X0000679900Y0000065800D01*
X0000669400Y0000067200D01*
X0000669200Y0000067200D01*
X0000648100Y0000070300D01*
X0000647800Y0000070300D01*
X0000646600Y0000070500D01*
X0000646200Y0000070600D01*
X0000627700Y0000074000D01*
X0000626800Y0000074200D01*
X0000609500Y0000078100D01*
X0000608600Y0000078400D01*
X0000591300Y0000083300D01*
X0000590600Y0000083499D01*
X0000572900Y0000089300D01*
X0000572200Y0000089500D01*
X0000547400Y0000098600D01*
X0000546400Y0000099000D01*
X0000525100Y0000108200D01*
X0000524000Y0000108700D01*
X0000522900Y0000109300D01*
X0000522700Y0000109400D01*
X0000504600Y0000118900D01*
X0000502900Y0000119900D01*
X0000487500Y0000130100D01*
X0000485700Y0000131500D01*
X0000472600Y0000142600D01*
X0000471400Y0000143700D01*
X0000470500Y0000144500D01*
X0000469900Y0000145100D01*
X0000458600Y0000157400D01*
X0000457300Y0000159100D01*
X0000449100Y0000170199D01*
X0000448600Y0000171000D01*
X0000438900Y0000185600D01*
X0000437700Y0000187599D01*
X0000437200Y0000188700D01*
X0000436000Y0000191500D01*
X0000435300Y0000194500D01*
X0000435100Y0000195700D01*
X0000434800Y0000198800D01*
X0000434800Y0000207100D01*
X0000429900Y0000205100D01*
X0000426600Y0000206500D01*
X0000424200Y0000203700D01*
X0000413300Y0000202200D01*
X0000411100Y0000203800D01*
X0000409000Y0000202000D01*
X0000397800Y0000202900D01*
X0000395700Y0000205100D01*
X0000392900Y0000203700D01*
X0000378700Y0000207600D01*
X0000376599Y0000210900D01*
X0000372700Y0000210200D01*
X0000361000Y0000217100D01*
X0000359899Y0000221100D01*
X0000355700Y0000221600D01*
X0000346399Y0000231600D01*
X0000344699Y0000233600D01*
X0000343399Y0000235800D01*
X0000340800Y0000240700D01*
X0000338899Y0000239900D01*
X0000337099Y0000239200D01*
X0000335200Y0000238700D01*
X0000326100Y0000236700D01*
X0000324100Y0000237700D01*
X0000322600Y0000236100D01*
X0000310600Y0000234900D01*
X0000310100Y0000235300D01*
X0000309600Y0000234800D01*
X0000302200Y0000234400D01*
X0000302000Y0000234500D01*
X0000301900Y0000234400D01*
X0000283700Y0000233700D01*
X0000270900Y0000244900D01*
X0000266900Y0000244700D01*
X0000266600Y0000247500D01*
X0000265500Y0000248100D01*
X0000265600Y0000249500D01*
X0000263300Y0000251500D01*
X0000264900Y0000253500D01*
X0000264200Y0000255100D01*
X0000263500Y0000258000D01*
X0000263500Y0000258100D01*
X0000264700Y0000263600D01*
X0000263900Y0000271300D01*
X0000266400Y0000274800D01*
X0000266600Y0000275200D01*
X0000268200Y0000280200D01*
X0000269900Y0000287500D01*
X0000270400Y0000290000D01*
X0000270400Y0000290400D01*
X0000270400Y0000290400D01*
X0000273100Y0000303400D01*
X0000273600Y0000305200D01*
X0000276600Y0000315200D01*
X0000276800Y0000315600D01*
X0000276500Y0000315799D01*
X0000274100Y0000317800D01*
X0000273200Y0000318700D01*
X0000272700Y0000319300D01*
X0000262400Y0000330400D01*
X0000261299Y0000331800D01*
X0000260200Y0000333300D01*
X0000253900Y0000343399D01*
X0000253900Y0000343399D01*
X0000247700Y0000353500D01*
X0000243100Y0000358800D01*
X0000240100Y0000361000D01*
X0000240000Y0000361100D01*
X0000236500Y0000361900D01*
X0000236000Y0000362000D01*
X0000233300Y0000362700D01*
X0000231200Y0000363400D01*
X0000229300Y0000364200D01*
X0000228200Y0000364800D01*
X0000225600Y0000366400D01*
X0000223200Y0000368400D01*
X0000222400Y0000369300D01*
X0000220300Y0000371600D01*
X0000218700Y0000374300D01*
X0000218200Y0000375400D01*
X0000217000Y0000378199D01*
X0000216300Y0000381199D01*
X0000216100Y0000382400D01*
X0000215900Y0000384299D01*
X0000215800Y0000385300D01*
X0000215800Y0000387500D01*
X0000216000Y0000389600D01*
X0000216200Y0000390800D01*
X0000216900Y0000393800D01*
X0000218100Y0000396700D01*
X0000218700Y0000397800D01*
X0000220300Y0000400400D01*
X0000222300Y0000402800D01*
X0000223100Y0000403600D01*
X0000224900Y0000405200D01*
X0000226700Y0000406500D01*
X0000229600Y0000408300D01*
X0000231000Y0000409000D01*
X0000232100Y0000409600D01*
X0000233100Y0000410100D01*
X0000238000Y0000412200D01*
X0000239300Y0000412700D01*
X0000245300Y0000414900D01*
X0000246400Y0000415300D01*
X0000252600Y0000417100D01*
X0000254199Y0000417500D01*
X0000259700Y0000418700D01*
X0000260700Y0000418900D01*
X0000261900Y0000419099D01*
X0000262500Y0000419099D01*
X0000263400Y0000419300D01*
X0000264200Y0000418700D01*
X0000264900Y0000419400D01*
X0000271100Y0000419700D01*
X0000273500Y0000417700D01*
X0000274300Y0000417400D01*
X0000277400Y0000419099D01*
X0000282300Y0000418100D01*
X0000284800Y0000417400D01*
X0000287100Y0000416400D01*
X0000288200Y0000415800D01*
X0000288600Y0000415600D01*
X0000294000Y0000412700D01*
X0000295500Y0000411900D01*
X0000297400Y0000410600D01*
X0000302500Y0000407700D01*
X0000309200Y0000404500D01*
X0000317399Y0000401100D01*
X0000317800Y0000400899D01*
X0000330000Y0000397300D01*
X0000337800Y0000396399D01*
X0000340600Y0000396800D01*
X0000340700Y0000397300D01*
X0000340900Y0000398400D01*
X0000331099Y0000397899D01*
X0000325700Y0000402600D01*
X0000325300Y0000402900D01*
X0000319300Y0000408499D01*
X0000319099Y0000410300D01*
X0000317200Y0000410500D01*
X0000312300Y0000415800D01*
X0000310700Y0000417700D01*
X0000306600Y0000423400D01*
X0000305200Y0000425700D01*
X0000301700Y0000432400D01*
X0000302100Y0000434500D01*
X0000300200Y0000435400D01*
X0000296900Y0000443800D01*
X0000296400Y0000445100D01*
X0000293000Y0000455800D01*
X0000292800Y0000456500D01*
X0000292700Y0000456800D01*
X0000292600Y0000456400D01*
X0000291600Y0000453700D01*
X0000290300Y0000450600D01*
X0000289800Y0000449500D01*
X0000289200Y0000448400D01*
X0000289000Y0000448000D01*
X0000286200Y0000442800D01*
X0000285000Y0000440800D01*
X0000282700Y0000437500D01*
X0000280500Y0000434900D01*
X0000279600Y0000434100D01*
X0000277100Y0000431900D01*
X0000276200Y0000431300D01*
X0000276000Y0000431300D01*
X0000274100Y0000430200D01*
X0000273500Y0000429900D01*
X0000270700Y0000428700D01*
X0000267700Y0000428000D01*
X0000266500Y0000427800D01*
X0000263400Y0000427500D01*
X0000260299Y0000427800D01*
X0000259100Y0000428000D01*
X0000256100Y0000428700D01*
X0000254300Y0000429400D01*
X0000253500Y0000429600D01*
X0000250600Y0000430800D01*
X0000250199Y0000431000D01*
X0000248000Y0000432600D01*
X0000247200Y0000432600D01*
X0000245500Y0000434100D01*
X0000244500Y0000435000D01*
X0000243700Y0000435900D01*
X0000242400Y0000437300D01*
X0000241600Y0000438200D01*
X0000239500Y0000435600D01*
X0000238000Y0000433900D01*
X0000237000Y0000433000D01*
X0000233700Y0000429700D01*
X0000232900Y0000428900D01*
X0000225300Y0000422200D01*
X0000224300Y0000421400D01*
X0000216600Y0000415300D01*
X0000215600Y0000414600D01*
X0000208300Y0000409600D01*
X0000206900Y0000408800D01*
X0000200700Y0000405300D01*
X0000197900Y0000405900D01*
X0000196600Y0000403400D01*
X0000192200Y0000401800D01*
X0000190700Y0000402399D01*
X0000189799Y0000402000D01*
X0000186799Y0000401300D01*
X0000185600Y0000401100D01*
X0000185100Y0000404700D01*
X0000184900Y0000404600D01*
X0000184499Y0000402399D01*
X0000184400Y0000402399D01*
X0000181900Y0000403000D01*
X0000178399Y0000401200D01*
X0000176500Y0000401600D01*
X0000174400Y0000402300D01*
X0000172299Y0000403200D01*
X0000171200Y0000403800D01*
X0000168599Y0000405400D01*
X0000166200Y0000407400D01*
X0000165400Y0000408300D01*
X0000163400Y0000410600D01*
X0000161799Y0000413300D01*
X0000161200Y0000414400D01*
X0000160400Y0000416000D01*
X0000159800Y0000417800D01*
X0000158900Y0000420900D01*
X0000158400Y0000423200D01*
X0000157500Y0000429100D01*
X0000157400Y0000429100D01*
X0000157300Y0000430400D01*
X0000157100Y0000431300D01*
X0000156300Y0000438600D01*
X0000156300Y0000439000D01*
X0000156300Y0000439100D01*
X0000156200Y0000440700D01*
X0000156200Y0000440800D01*
X0000156200Y0000440800D01*
X0000156200Y0000441200D01*
X0000156500Y0000456900D01*
X0000156700Y0000459700D01*
X0000156900Y0000460900D01*
X0000157200Y0000462500D01*
X0000159700Y0000472700D01*
X0000159300Y0000472700D01*
X0000158100Y0000472900D01*
X0000157800Y0000473000D01*
X0000147000Y0000474800D01*
X0000144900Y0000475300D01*
X0000142800Y0000476100D01*
X0000134600Y0000479500D01*
X0000133200Y0000480100D01*
X0000132100Y0000480700D01*
X0000130399Y0000481700D01*
X0000130200Y0000481800D01*
X0000130100Y0000481900D01*
X0000125200Y0000485100D01*
X0000123600Y0000486200D01*
X0000122100Y0000487600D01*
X0000121300Y0000488500D01*
X0000119200Y0000490800D01*
X0000117600Y0000493500D01*
X0000117100Y0000494600D01*
X0000115900Y0000497400D01*
X0000115200Y0000500399D01*
X0000115000Y0000501600D01*
X0000114700Y0000504700D01*
X0000115000Y0000507800D01*
X0000115200Y0000509000D01*
X0000115900Y0000512000D01*
X0000117100Y0000514900D01*
X0000117600Y0000516000D01*
X0000119200Y0000518599D01*
X0000121300Y0000520900D01*
X0000122100Y0000521800D01*
X0000123200Y0000522800D01*
X0000153700Y0000549200D01*
X0000166800Y0000560500D01*
X0000177100Y0000569600D01*
X0000184900Y0000576700D01*
X0000189700Y0000581300D01*
X0000192800Y0000584700D01*
X0000194399Y0000586900D01*
X0000194600Y0000587200D01*
X0000195000Y0000588300D01*
X0000195300Y0000589800D01*
X0000196400Y0000598500D01*
X0000196400Y0000611300D01*
X0000195000Y0000626300D01*
X0000192400Y0000641900D01*
X0000191000Y0000647900D01*
X0000179000Y0000643000D01*
X0000167200Y0000647700D01*
X0000164200Y0000645400D01*
X0000161500Y0000648700D01*
X0000158799Y0000649100D01*
X0000157700Y0000651500D01*
X0000153700Y0000653099D01*
X0000154900Y0000656600D01*
X0000146800Y0000666400D01*
X0000148000Y0000682700D01*
X0000148000Y0000683000D01*
X0000148800Y0000692200D01*
X0000148900Y0000692799D01*
X0000149900Y0000701799D01*
X0000150000Y0000702500D01*
X0000150500Y0000705700D01*
X0000150100Y0000705900D01*
X0000150100Y0000705900D01*
X0000149000Y0000706500D01*
X0000147200Y0000707499D01*
X0000145600Y0000708700D01*
X0000135700Y0000716599D01*
X0000134000Y0000718100D01*
X0000133100Y0000719000D01*
X0000132700Y0000719400D01*
X0000124000Y0000728700D01*
X0000122600Y0000730400D01*
X0000118200Y0000736200D01*
X0000116500Y0000739000D01*
X0000115900Y0000740100D01*
X0000115300Y0000741500D01*
X0000113100Y0000746600D01*
X0000114600Y0000750299D01*
X0000114100Y0000751000D01*
X0000111500Y0000753399D01*
X0000110900Y0000759700D01*
X0000110800Y0000761500D01*
X0000110800Y0000762800D01*
X0000110800Y0000762900D01*
X0000110800Y0000772900D01*
X0000111100Y0000776000D01*
X0000111300Y0000777200D01*
X0000112000Y0000780200D01*
X0000113200Y0000783100D01*
X0000113700Y0000784200D01*
X0000115300Y0000786800D01*
X0000115600Y0000787200D01*
X0000115300Y0000787900D01*
X0000114600Y0000790200D01*
X0000114200Y0000792200D01*
X0000114400Y0000792500D01*
X0000114200Y0000793000D01*
X0000114200Y0000799100D01*
X0000114400Y0000800100D01*
X0000115100Y0000803200D01*
X0000116300Y0000806000D01*
X0000116800Y0000807100D01*
X0000118500Y0000809700D01*
X0000119400Y0000810899D01*
X0000120700Y0000813000D01*
X0000122700Y0000815400D01*
X0000123100Y0000815700D01*
X0000127400Y0000818800D01*
X0000127700Y0000819500D01*
X0000130399Y0000820800D01*
X0000132800Y0000821700D01*
X0000138700Y0000823500D01*
X0000139400Y0000823700D01*
X0000147500Y0000825900D01*
X0000148000Y0000826000D01*
X0000157500Y0000828200D01*
X0000157800Y0000828300D01*
X0000167899Y0000830600D01*
X0000168300Y0000830600D01*
X0000178100Y0000832600D01*
X0000178600Y0000832700D01*
X0000187400Y0000834200D01*
X0000187700Y0000834300D01*
X0000188900Y0000834500D01*
X0000189099Y0000834500D01*
X0000191399Y0000834800D01*
X0000191700Y0000834700D01*
X0000191900Y0000834900D01*
X0000202700Y0000836200D01*
X0000203499Y0000835600D01*
X0000204200Y0000836400D01*
X0000212300Y0000836700D01*
X0000213800Y0000835400D01*
X0000215300Y0000836600D01*
X0000221800Y0000835900D01*
X0000222700Y0000835800D01*
X0000223900Y0000835600D01*
X0000226700Y0000835000D01*
X0000232800Y0000833100D01*
X0000235300Y0000832099D01*
X0000241000Y0000829400D01*
X0000242800Y0000828700D01*
X0000243300Y0000828700D01*
X0000249100Y0000828900D01*
X0000250100Y0000829000D01*
X0000250100Y0000829000D01*
X0000250199Y0000829000D01*
X0000249700Y0000830400D01*
X0000249500Y0000831000D01*
X0000247100Y0000838600D01*
X0000243400Y0000850200D01*
X0000238800Y0000863000D01*
X0000234200Y0000875100D01*
X0000231500Y0000881700D01*
X0000225400Y0000895900D01*
X0000214900Y0000903100D01*
X0000214600Y0000903300D01*
X0000209300Y0000907100D01*
X0000208400Y0000907700D01*
X0000203600Y0000911600D01*
X0000202600Y0000912500D01*
X0000197700Y0000916900D01*
X0000197100Y0000917500D01*
X0000196200Y0000918400D01*
X0000196000Y0000918600D01*
X0000190700Y0000924100D01*
X0000190100Y0000924700D01*
X0000183900Y0000931700D01*
X0000183500Y0000932200D01*
X0000176000Y0000941100D01*
X0000175800Y0000941400D01*
X0000166500Y0000952800D01*
X0000166500Y0000952900D01*
X0000160900Y0000959800D01*
X0000160900Y0000959900D01*
X0000152100Y0000970800D01*
X0000152100Y0000970900D01*
X0000144200Y0000980800D01*
X0000144200Y0000980800D01*
X0000137600Y0000989300D01*
X0000137500Y0000989400D01*
X0000132500Y0000995900D01*
X0000132300Y0000996100D01*
X0000129099Y0001000300D01*
X0000128300Y0001001500D01*
X0000127400Y0001002999D01*
X0000126400Y0001004699D01*
X0000125900Y0001005800D01*
X0000124700Y0001008599D01*
X0000124000Y0001011600D01*
X0000123800Y0001012799D01*
X0000123500Y0001015900D01*
X0000123800Y0001018999D01*
X0000124000Y0001020200D01*
X0000124700Y0001023200D01*
X0000125900Y0001026100D01*
X0000126400Y0001027199D01*
X0000128000Y0001029800D01*
X0000130000Y0001032100D01*
X0000130899Y0001032999D01*
X0000133300Y0001034999D01*
X0000135900Y0001036600D01*
X0000137000Y0001037199D01*
X0000139900Y0001038400D01*
X0000142800Y0001039099D01*
X0000144100Y0001039299D01*
X0000146500Y0001039500D01*
X0000149000Y0001039400D01*
X0000151000Y0001039299D01*
X0000152300Y0001039099D01*
X0000153500Y0001038899D01*
X0000154100Y0001038800D01*
X0000159100Y0001037800D01*
X0000159700Y0001037700D01*
X0000166700Y0001036200D01*
X0000166900Y0001036100D01*
X0000169600Y0001035500D01*
X0000177100Y0001034000D01*
X0000179500Y0001033700D01*
X0000177699Y0001039800D01*
X0000177200Y0001042200D01*
X0000176999Y0001043400D01*
X0000176700Y0001046500D01*
X0000176999Y0001049600D01*
X0000177200Y0001050800D01*
X0000177500Y0001052600D01*
X0000182600Y0001072700D01*
X0000184599Y0001080900D01*
X0000185700Y0001086800D01*
X0000185999Y0001088900D01*
X0000185999Y0001089000D01*
X0000185999Y0001091300D01*
X0000186200Y0001093600D01*
X0000186400Y0001095300D01*
X0000186600Y0001096500D01*
X0000187300Y0001099500D01*
X0000188500Y0001102300D01*
X0000189099Y0001103400D01*
X0000190700Y0001106100D01*
X0000192700Y0001108400D01*
X0000193599Y0001109300D01*
X0000195899Y0001111300D01*
X0000198500Y0001112900D01*
X0000199600Y0001113500D01*
X0000202500Y0001114700D01*
X0000205500Y0001115400D01*
X0000206700Y0001115600D01*
X0000209300Y0001115800D01*
X0000211300Y0001115900D01*
X0000213100Y0001114200D01*
X0000213400Y0001114300D01*
X0000213500Y0001114300D01*
X0000213700Y0001115400D01*
X0000214100Y0001115400D01*
X0000217100Y0001114600D01*
X0000219900Y0001113500D01*
X0000220600Y0001113100D01*
X0000220700Y0001113100D01*
X0000223500Y0001111900D01*
X0000224100Y0001111600D01*
X0000227200Y0001109400D01*
X0000227900Y0001109400D01*
X0000229000Y0001108400D01*
X0000229700Y0001107800D01*
X0000233400Y0001105200D01*
X0000239700Y0001101300D01*
X0000244600Y0001098300D01*
X0000244900Y0001098100D01*
X0000253900Y0001092300D01*
X0000254600Y0001091900D01*
X0000263700Y0001085500D01*
X0000264400Y0001084900D01*
X0000269000Y0001081400D01*
X0000274300Y0001088100D01*
X0000274900Y0001088900D01*
X0000279700Y0001094400D01*
X0000280600Y0001095400D01*
X0000281500Y0001096300D01*
X0000281800Y0001096500D01*
X0000285200Y0001099800D01*
X0000286400Y0001100900D01*
X0000286400Y0001100900D01*
X0000288100Y0001102100D01*
X0000289900Y0001103200D01*
X0000291000Y0001103700D01*
X0000292400Y0001104400D01*
X0000293900Y0001105000D01*
X0000296100Y0001105800D01*
X0000298400Y0001106300D01*
X0000299600Y0001106500D01*
X0000302700Y0001106700D01*
X0000305800Y0001106500D01*
X0000307000Y0001106300D01*
X0000310000Y0001105600D01*
X0000312900Y0001104400D01*
X0000313900Y0001103800D01*
X0000316600Y0001102200D01*
X0000318899Y0001100200D01*
X0000319800Y0001099300D01*
X0000321100Y0001097900D01*
X0000322199Y0001096400D01*
X0000324999Y0001092300D01*
X0000326200Y0001090300D01*
X0000326699Y0001089200D01*
X0000326900Y0001088700D01*
X0000327500Y0001087500D01*
X0000327500Y0001088000D01*
X0000327800Y0001090100D01*
X0000327999Y0001091300D01*
X0000328099Y0001092300D01*
X0000329799Y0001100100D01*
X0000329799Y0001100400D01*
X0000329799Y0001100400D01*
X0000329900Y0001100800D01*
X0000329499Y0001101900D01*
X0000329100Y0001102900D01*
X0000328700Y0001103800D01*
X0000323599Y0001117100D01*
X0000322900Y0001119500D01*
X0000319800Y0001132100D01*
X0000319400Y0001133700D01*
X0000319200Y0001134900D01*
X0000319099Y0001136300D01*
X0000318100Y0001147300D01*
X0000318100Y0001147800D01*
X0000315400Y0001148600D01*
X0000309100Y0001151200D01*
X0000307600Y0001151900D01*
X0000301300Y0001155100D01*
X0000301300Y0001155100D01*
X0000300200Y0001155700D01*
X0000298300Y0001156800D01*
X0000296500Y0001158100D01*
X0000292700Y0001161300D01*
X0000291300Y0001162500D01*
X0000290400Y0001163300D01*
X0000288800Y0001165300D01*
X0000287300Y0001167400D01*
X0000284800Y0001171800D01*
X0000284200Y0001172800D01*
X0000283700Y0001173900D01*
X0000282900Y0001175800D01*
X0000281400Y0001179500D01*
X0000280900Y0001181100D01*
X0000279100Y0001187300D01*
X0000278700Y0001188700D01*
X0000277200Y0001196200D01*
X0000277000Y0001197100D01*
X0000276800Y0001198300D01*
X0000276800Y0001198400D01*
X0000275600Y0001206000D01*
X0000275600Y0001206000D01*
X0000275600Y0001206100D01*
X0000275600Y0001206100D01*
X0000275400Y0001207100D01*
X0000274700Y0001214200D01*
X0000274600Y0001215700D01*
X0000274400Y0001221100D01*
X0000274500Y0001222900D01*
X0000274700Y0001224700D01*
X0000274900Y0001225900D01*
X0000275000Y0001226700D01*
X0000275600Y0001229500D01*
X0000276300Y0001232100D01*
X0000277300Y0001234500D01*
X0000277900Y0001235600D01*
X0000279500Y0001238300D01*
X0000281500Y0001240600D01*
X0000282400Y0001241500D01*
X0000284600Y0001243400D01*
X0000287100Y0001245000D01*
X0000287500Y0001245200D01*
X0000287700Y0001245300D01*
X0000288800Y0001245800D01*
X0000291600Y0001247000D01*
X0000294600Y0001247700D01*
X0000295900Y0001247900D01*
X0000298900Y0001248200D01*
X0000302000Y0001247900D01*
X0000303200Y0001247700D01*
X0000306300Y0001247000D01*
X0000308800Y0001246200D01*
X0000310700Y0001245400D01*
X0000315600Y0001243300D01*
X0000316300Y0001243000D01*
X0000319900Y0001241200D01*
X0000324999Y0001239000D01*
X0000327200Y0001238400D01*
X0000329200Y0001238600D01*
X0000336100Y0001239900D01*
X0000345900Y0001242300D01*
X0000356500Y0001245200D01*
X0000366700Y0001248500D01*
X0000369900Y0001249600D01*
X0000370800Y0001249900D01*
X0000383800Y0001253800D01*
X0000386300Y0001254400D01*
X0000387500Y0001254600D01*
X0000388400Y0001254700D01*
X0000399000Y0001255900D01*
X0000401600Y0001253900D01*
X0000404300Y0001255800D01*
X0000413100Y0001254400D01*
X0000413100Y0001254400D01*
X0000414400Y0001254200D01*
X0000416100Y0001253900D01*
X0000416200Y0001253900D01*
X0000418600Y0001254400D01*
X0000419200Y0001254600D01*
X0000430900Y0001257100D01*
X0000432000Y0001257400D01*
X0000433200Y0001257500D01*
X0000435000Y0001257700D01*
X0000436700Y0001257800D01*
X0000449700Y0001257500D01*
X0000452300Y0001257200D01*
X0000453500Y0001257000D01*
X0000454500Y0001256900D01*
X0000469400Y0001253700D01*
X0000470800Y0001253400D01*
X0000471900Y0001253000D01*
X0000472800Y0001252700D01*
X0000481700Y0001249700D01*
X0000484300Y0001248600D01*
X0000485400Y0001248000D01*
X0000485800Y0001247800D01*
X0000492600Y0001244100D01*
X0000494200Y0001243200D01*
X0000495700Y0001242100D01*
X0000502299Y0001236600D01*
X0000503499Y0001235600D01*
X0000505900Y0001233300D01*
X0000506300Y0001233000D01*
X0000507100Y0001232100D01*
X0000507399Y0001231900D01*
X0000512599Y0001226400D01*
X0000514200Y0001224600D01*
X0000518000Y0001219600D01*
X0000519700Y0001216700D01*
X0000522700Y0001211000D01*
X0000522800Y0001210900D01*
X0000523300Y0001209800D01*
X0000524200Y0001207700D01*
X0000527100Y0001199900D01*
X0000527400Y0001199100D01*
X0000528900Y0001194500D01*
X0000529000Y0001194400D01*
X0000534900Y0001176000D01*
X0000532400Y0001170700D01*
X0000535800Y0001166100D01*
X0000533100Y0001145500D01*
X0000532000Y0001144600D01*
X0000532700Y0001143300D01*
X0000528700Y0001122200D01*
X0000528100Y0001119700D01*
X0000526000Y0001113400D01*
X0000528700Y0001112700D01*
X0000531600Y0001111500D01*
X0000532700Y0001111000D01*
X0000535300Y0001109300D01*
X0000537700Y0001107300D01*
X0000538500Y0001106500D01*
X0000540500Y0001104100D01*
X0000542200Y0001101500D01*
X0000542700Y0001100400D01*
X0000543900Y0001097500D01*
X0000544600Y0001094500D01*
X0000544800Y0001093300D01*
X0000545000Y0001091100D01*
X0000545000Y0001088800D01*
X0000544900Y0001086700D01*
X0000544700Y0001085000D01*
X0000544500Y0001083800D01*
X0000544300Y0001082800D01*
X0000543200Y0001077900D01*
X0000543100Y0001077100D01*
X0000541300Y0001070200D01*
X0000541300Y0001069900D01*
X0000540800Y0001068300D01*
X0000540300Y0001066700D01*
X0000535900Y0001054600D01*
X0000535000Y0001052500D01*
X0000534400Y0001051400D01*
X0000533700Y0001050000D01*
X0000527300Y0001039600D01*
X0000525500Y0001037199D01*
X0000524800Y0001036400D01*
X0000524800Y0001036400D01*
X0000515900Y0001026899D01*
X0000515499Y0001026500D01*
X0000514599Y0001025600D01*
X0000512700Y0001023900D01*
X0000500600Y0001014600D01*
X0000499400Y0001013700D01*
X0000494600Y0001010600D01*
X0000484900Y0001004200D01*
X0000476500Y0000998200D01*
X0000476800Y0000996800D01*
X0000477000Y0000995600D01*
X0000477200Y0000994600D01*
X0000477400Y0000992800D01*
X0000477500Y0000991000D01*
X0000477400Y0000990100D01*
X0000483700Y0000991700D01*
X0000484900Y0000991900D01*
X0000492500Y0000993400D01*
X0000493000Y0000993500D01*
X0000494200Y0000993700D01*
X0000494500Y0000993700D01*
X0000502299Y0000994800D01*
X0000502700Y0000994500D01*
X0000503100Y0000994900D01*
X0000510200Y0000995600D01*
X0000510900Y0000995100D01*
X0000511499Y0000995700D01*
X0000516900Y0000995900D01*
X0000517900Y0000995100D01*
X0000520499Y0000995300D01*
X0000521400Y0000995200D01*
X0000521900Y0000995500D01*
X0000524600Y0000995100D01*
X0000527600Y0000994400D01*
X0000530500Y0000993200D01*
X0000531600Y0000992600D01*
X0000534200Y0000991000D01*
X0000536500Y0000989000D01*
X0000537400Y0000988100D01*
X0000539000Y0000986300D01*
X0000540400Y0000984300D01*
X0000540600Y0000984000D01*
X0000541200Y0000982900D01*
X0000541700Y0000981800D01*
X0000542900Y0000978900D01*
X0000543600Y0000975900D01*
X0000543800Y0000974700D01*
X0000544100Y0000971600D01*
X0000543800Y0000968600D01*
X0000543600Y0000967300D01*
X0000543100Y0000964900D01*
X0000542400Y0000962500D01*
X0000542000Y0000961300D01*
X0000540100Y0000956200D01*
X0000540000Y0000955800D01*
X0000538200Y0000951300D01*
X0000539700Y0000953000D01*
X0000540800Y0000954300D01*
X0000541700Y0000955100D01*
X0000542000Y0000955500D01*
X0000555600Y0000968500D01*
X0000556000Y0000968800D01*
X0000556000Y0000968800D01*
X0000556900Y0000969600D01*
X0000573500Y0000982900D01*
X0000574600Y0000983700D01*
X0000579200Y0000986900D01*
X0000578900Y0000987400D01*
X0000577300Y0000990000D01*
X0000576700Y0000991100D01*
X0000575500Y0000993900D01*
X0000574800Y0000997000D01*
X0000574600Y0000998200D01*
X0000574400Y0001001200D01*
X0000574600Y0001004300D01*
X0000574800Y0001005500D01*
X0000575500Y0001008500D01*
X0000576700Y0001011400D01*
X0000577300Y0001012500D01*
X0000578900Y0001015099D01*
X0000580900Y0001017500D01*
X0000581700Y0001018300D01*
X0000584000Y0001020300D01*
X0000586600Y0001021900D01*
X0000586900Y0001022100D01*
X0000579300Y0001025900D01*
X0000579300Y0001025900D01*
X0000578200Y0001026500D01*
X0000575600Y0001028100D01*
X0000573200Y0001030100D01*
X0000572300Y0001030999D01*
X0000570300Y0001033300D01*
X0000568700Y0001036000D01*
X0000568200Y0001037099D01*
X0000567000Y0001039900D01*
X0000566300Y0001042899D01*
X0000566100Y0001044100D01*
X0000565800Y0001047199D01*
X0000566100Y0001050300D01*
X0000566300Y0001051500D01*
X0000567000Y0001054500D01*
X0000568200Y0001057400D01*
X0000568700Y0001058500D01*
X0000570300Y0001061100D01*
X0000572300Y0001063500D01*
X0000573200Y0001064300D01*
X0000575600Y0001066300D01*
X0000578200Y0001067900D01*
X0000579300Y0001068500D01*
X0000581300Y0001069400D01*
X0000583400Y0001070100D01*
X0000590200Y0001071800D01*
X0000603300Y0001075300D01*
X0000611700Y0001078400D01*
X0000615800Y0001080700D01*
X0000618000Y0001082800D01*
X0000620700Y0001086800D01*
X0000623900Y0001094300D01*
X0000628200Y0001107000D01*
X0000629000Y0001109900D01*
X0000630600Y0001115400D01*
X0000631599Y0001120300D01*
X0000632400Y0001125100D01*
X0000633100Y0001132800D01*
X0000633800Y0001142900D01*
X0000634500Y0001156300D01*
X0000634500Y0001156400D01*
X0000634799Y0001163300D01*
X0000635400Y0001178500D01*
X0000636000Y0001194900D01*
X0000636500Y0001210800D01*
X0000636800Y0001225400D01*
X0000637100Y0001236500D01*
X0000637200Y0001248600D01*
X0000637200Y0001248900D01*
X0000634200Y0001249700D01*
X0000633200Y0001250000D01*
X0000626700Y0001252000D01*
X0000625900Y0001252300D01*
X0000619800Y0001254500D01*
X0000618700Y0001254900D01*
X0000613900Y0001257000D01*
X0000612800Y0001257500D01*
X0000611700Y0001258100D01*
X0000610100Y0001258900D01*
X0000607500Y0001260600D01*
X0000605700Y0001261900D01*
X0000604100Y0001263300D01*
X0000603200Y0001264199D01*
X0000601200Y0001266500D01*
X0000599600Y0001269200D01*
X0000599000Y0001270300D01*
X0000597900Y0001273100D01*
X0000597100Y0001276100D01*
X0000596900Y0001277300D01*
X0000596900Y0001278000D01*
X0000596700Y0001278300D01*
X0000594700Y0001280600D01*
X0000593800Y0001281999D01*
X0000591700Y0001281000D01*
X0000574400Y0001287399D01*
X0000570600Y0001286100D01*
X0000569600Y0001288500D01*
X0000568800Y0001288700D01*
X0000568600Y0001289600D01*
X0000565900Y0001290600D01*
X0000567300Y0001294500D01*
X0000560500Y0001311400D01*
X0000563500Y0001318799D01*
X0000564200Y0001320300D01*
X0000564800Y0001321400D01*
X0000565500Y0001322700D01*
X0000571800Y0001333000D01*
X0000573100Y0001335000D01*
X0000574700Y0001336799D01*
X0000575600Y0001337600D01*
X0000576500Y0001338500D01*
X0000585600Y0001346500D01*
X0000587600Y0001347999D01*
X0000589700Y0001349199D01*
X0000590800Y0001349800D01*
X0000591600Y0001350200D01*
X0000602900Y0001355300D01*
X0000604600Y0001356000D01*
X0000606500Y0001356500D01*
X0000609900Y0001357300D01*
X0000610500Y0001357400D01*
X0000621200Y0001359600D01*
X0000627500Y0001361300D01*
X0000628200Y0001361599D01*
X0000632199Y0001367199D01*
X0000633200Y0001368400D01*
X0000637300Y0001373300D01*
X0000638400Y0001374500D01*
X0000639300Y0001375400D01*
X0000641199Y0001377100D01*
X0000641900Y0001377600D01*
X0000642800Y0001381100D01*
X0000643500Y0001383200D01*
X0000644399Y0001385100D01*
X0000644900Y0001386200D01*
X0000645400Y0001387100D01*
X0000648300Y0001392200D01*
X0000649300Y0001393800D01*
X0000650399Y0001395300D01*
X0000654100Y0001399500D01*
X0000655100Y0001400700D01*
X0000655999Y0001401500D01*
X0000657800Y0001403100D01*
X0000659700Y0001404400D01*
X0000663200Y0001406500D01*
X0000664400Y0001407200D01*
X0000665499Y0001407800D01*
X0000668399Y0001408999D01*
X0000671399Y0001409700D01*
X0000671900Y0001409799D01*
X0000672300Y0001411700D01*
X0000673100Y0001413800D01*
X0000675000Y0001418500D01*
X0000675600Y0001419900D01*
X0000676200Y0001420999D01*
X0000677399Y0001423100D01*
X0000679000Y0001425100D01*
X0000681200Y0001427599D01*
X0000682000Y0001428399D01*
X0000682800Y0001429300D01*
X0000685000Y0001431100D01*
X0000687300Y0001432700D01*
X0000693800Y0001436200D01*
X0000694400Y0001436500D01*
X0000695499Y0001437100D01*
X0000698300Y0001438200D01*
X0000701300Y0001439000D01*
X0000702500Y0001439199D01*
X0000704799Y0001439399D01*
X0000712600Y0001439700D01*
X0000713400Y0001439000D01*
X0000714900Y0001442000D01*
X0000715100Y0001442400D01*
X0000715100Y0001442400D01*
X0000716300Y0001444300D01*
X0000717700Y0001445999D01*
X0000718600Y0001447000D01*
X0000719400Y0001447800D01*
X0000720199Y0001448700D01*
X0000722200Y0001450400D01*
X0000724400Y0001451900D01*
X0000727800Y0001453800D01*
X0000728600Y0001454200D01*
X0000729700Y0001454800D01*
X0000731600Y0001455600D01*
X0000737200Y0001457799D01*
X0000738500Y0001458199D01*
X0000745100Y0001460300D01*
X0000746200Y0001460600D01*
X0000752600Y0001462200D01*
X0000754200Y0001462500D01*
X0000755500Y0001462700D01*
X0000755500Y0001462700D01*
X0000760500Y0001463500D01*
X0000761300Y0001462900D01*
X0000761600Y0001463000D01*
X0000762100Y0001463100D01*
X0000762199Y0001462200D01*
X0000763200Y0001461500D01*
X0000765900Y0001463599D01*
X0000768299Y0001463300D01*
X0000769000Y0001463200D01*
X0000770200Y0001463000D01*
X0000773200Y0001462300D01*
X0000776000Y0001461100D01*
X0000777100Y0001460500D01*
X0000779800Y0001458900D01*
X0000781600Y0001457300D01*
X0000788800Y0001459700D01*
X0000791800Y0001460400D01*
X0000793000Y0001460600D01*
X0000795600Y0001460800D01*
X0000805900Y0001461100D01*
X0000809400Y0001457999D01*
X0000813500Y0001460000D01*
X0000822900Y0001457100D01*
X0000826000Y0001455800D01*
X0000827100Y0001455300D01*
X0000828900Y0001454200D01*
X0000832500Y0001451900D01*
X0000833900Y0001450800D01*
X0000835300Y0001449700D01*
X0000839300Y0001445900D01*
X0000839700Y0001445500D01*
X0000840600Y0001444600D01*
X0000842600Y0001442300D01*
X0000844200Y0001439700D01*
X0000844800Y0001438600D01*
X0000846000Y0001435700D01*
X0000846700Y0001432700D01*
X0000846900Y0001431500D01*
X0000846900Y0001431400D01*
X0000847300Y0001428900D01*
X0000847500Y0001425800D01*
X0000847400Y0001424800D01*
X0000849300Y0001424200D01*
X0000851200Y0001424200D01*
X0000854600Y0001421100D01*
X0000855000Y0001421900D01*
X0000855400Y0001421700D01*
X0000857500Y0001420400D01*
X0000858000Y0001421300D01*
X0000858100Y0001421199D01*
X0000860700Y0001419600D01*
X0000863000Y0001417700D01*
X0000863900Y0001416800D01*
X0000865900Y0001414400D01*
X0000867500Y0001411800D01*
X0000868000Y0001410700D01*
X0000868800Y0001408900D01*
X0000869600Y0001408700D01*
X0000869500Y0001407300D01*
X0000870800Y0001406000D01*
X0000869900Y0001404900D01*
X0000869900Y0001404900D01*
X0000870100Y0001403599D01*
X0000869700Y0001403599D01*
X0000870300Y0001401000D01*
X0000870500Y0001399800D01*
X0000870700Y0001396700D01*
X0000870500Y0001393600D01*
X0000870500Y0001393500D01*
X0000869300Y0001393700D01*
X0000869200Y0001393200D01*
X0000868000Y0001390400D01*
X0000867900Y0001390000D01*
X0000867700Y0001390100D01*
X0000866900Y0001383000D01*
X0000864500Y0001380700D01*
X0000863300Y0001379199D01*
X0000860100Y0001374500D01*
X0000856200Y0001367900D01*
X0000855000Y0001365700D01*
X0000854300Y0001364600D01*
X0000846500Y0001352600D01*
X0000845300Y0001351000D01*
X0000843900Y0001349500D01*
X0000843000Y0001348599D01*
X0000842900Y0001348399D01*
X0000834700Y0001340500D01*
X0000832500Y0001338600D01*
X0000829900Y0001336999D01*
X0000828800Y0001336500D01*
X0000828200Y0001336199D01*
X0000819700Y0001332200D01*
X0000814400Y0001334000D01*
X0000810300Y0001330100D01*
X0000802800Y0001330100D01*
X0000806500Y0001323900D01*
X0000807200Y0001322600D01*
X0000807799Y0001321500D01*
X0000808200Y0001320800D01*
X0000815900Y0001303900D01*
X0000816800Y0001301500D01*
X0000822100Y0001284500D01*
X0000822500Y0001283000D01*
X0000822600Y0001282500D01*
X0000822700Y0001281900D01*
X0000824200Y0001274300D01*
X0000824300Y0001273700D01*
X0000824500Y0001272500D01*
X0000824600Y0001271600D01*
X0000825400Y0001264399D01*
X0000825600Y0001262700D01*
X0000825700Y0001254700D01*
X0000825700Y0001253500D01*
X0000825400Y0001243500D01*
X0000825300Y0001243000D01*
X0000824900Y0001235600D01*
X0000823600Y0001210900D01*
X0000823200Y0001187400D01*
X0000823700Y0001165400D01*
X0000824900Y0001145300D01*
X0000826900Y0001128300D01*
X0000829300Y0001114900D01*
X0000832400Y0001104300D01*
X0000832900Y0001102900D01*
X0000838500Y0001092800D01*
X0000843500Y0001087100D01*
X0000847900Y0001084300D01*
X0000854100Y0001082500D01*
X0000858600Y0001082200D01*
X0000865000Y0001082700D01*
X0000869000Y0001083900D01*
X0000869100Y0001084000D01*
X0000873700Y0001086200D01*
X0000876200Y0001087200D01*
X0000878900Y0001088100D01*
X0000881900Y0001088800D01*
X0000883100Y0001089000D01*
X0000886200Y0001089200D01*
X0000889200Y0001089000D01*
X0000890500Y0001088800D01*
X0000893400Y0001088100D01*
X0000896200Y0001087000D01*
X0000896500Y0001086800D01*
X0000896600Y0001086800D01*
X0000897700Y0001086200D01*
X0000900300Y0001084600D01*
X0000902700Y0001082600D01*
X0000903500Y0001081700D01*
X0000905600Y0001079400D01*
X0000907200Y0001076700D01*
X0000907700Y0001075600D01*
X0000908900Y0001072800D01*
X0000909600Y0001069800D01*
X0000909800Y0001068600D01*
X0000910100Y0001065500D01*
X0000909800Y0001062400D01*
X0000909600Y0001061200D01*
X0000909200Y0001059300D01*
X0000908600Y0001057400D01*
X0000907800Y0001055200D01*
X0000907200Y0001053700D01*
X0000905100Y0001049100D01*
X0000904900Y0001048700D01*
X0000902900Y0001044800D01*
X0000902800Y0001044600D01*
X0000902300Y0001043500D01*
X0000901200Y0001041700D01*
X0000894800Y0001031800D01*
X0000893600Y0001030200D01*
X0000892200Y0001028600D01*
X0000891400Y0001027800D01*
X0000890800Y0001027300D01*
X0000886600Y0001023300D01*
X0000886600Y0001023300D01*
X0000887100Y0001022799D01*
X0000889000Y0001019700D01*
X0000889600Y0001018999D01*
X0000890400Y0001017700D01*
X0000891700Y0001016999D01*
X0000892800Y0001013700D01*
X0000893600Y0001010500D01*
X0000893800Y0001009300D01*
X0000894000Y0001006999D01*
X0000894000Y0001006599D01*
X0000894300Y0001003900D01*
X0000895300Y0000999000D01*
X0000896400Y0000994900D01*
X0000897000Y0000992800D01*
X0000897300Y0000992200D01*
X0000897900Y0000991200D01*
X0000899800Y0000988700D01*
X0000903200Y0000984900D01*
X0000907700Y0000980500D01*
X0000915100Y0000973500D01*
X0000924800Y0000964600D01*
X0000937100Y0000953600D01*
X0000937100Y0000953600D01*
X0000937100Y0000953600D01*
X0000942900Y0000948500D01*
X0000944300Y0000950800D01*
X0000946400Y0000953200D01*
X0000947200Y0000954100D01*
X0000949600Y0000956100D01*
X0000951800Y0000957400D01*
X0000950600Y0000958500D01*
X0000950600Y0000958600D01*
X0000949700Y0000959400D01*
X0000949200Y0000960000D01*
X0000942800Y0000966900D01*
X0000942200Y0000967600D01*
X0000936900Y0000973900D01*
X0000936000Y0000975100D01*
X0000932400Y0000980100D01*
X0000930900Y0000982600D01*
X0000930300Y0000983700D01*
X0000929700Y0000985100D01*
X0000928500Y0000987900D01*
X0000927800Y0000990100D01*
X0000927300Y0000992300D01*
X0000927100Y0000993600D01*
X0000926800Y0000996600D01*
X0000927100Y0000999700D01*
X0000927300Y0001000899D01*
X0000928000Y0001003900D01*
X0000929200Y0001006799D01*
X0000929700Y0001007900D01*
X0000931300Y0001010500D01*
X0000933300Y0001012899D01*
X0000934200Y0001013800D01*
X0000936600Y0001015800D01*
X0000939200Y0001017400D01*
X0000940300Y0001017900D01*
X0000942300Y0001018799D01*
X0000944400Y0001019500D01*
X0000946100Y0001019900D01*
X0000947900Y0001020300D01*
X0000949200Y0001020500D01*
X0000951700Y0001020699D01*
X0000954200Y0001020600D01*
X0000959000Y0001020200D01*
X0000960100Y0001020000D01*
X0000961300Y0001019800D01*
X0000961700Y0001019800D01*
X0000968700Y0001018500D01*
X0000969400Y0001018400D01*
X0000977800Y0001016600D01*
X0000978400Y0001016500D01*
X0000980800Y0001015900D01*
X0000979600Y0001018699D01*
X0000978900Y0001021700D01*
X0000978700Y0001022899D01*
X0000978400Y0001026000D01*
X0000978600Y0001028400D01*
X0000974100Y0001031400D01*
X0000972900Y0001032200D01*
X0000961500Y0001040999D01*
X0000960100Y0001042300D01*
X0000950000Y0001051800D01*
X0000949600Y0001052200D01*
X0000948700Y0001053000D01*
X0000947800Y0001054000D01*
X0000937900Y0001065200D01*
X0000937100Y0001066200D01*
X0000927500Y0001078600D01*
X0000927200Y0001079100D01*
X0000920900Y0001087700D01*
X0000920700Y0001088000D01*
X0000915400Y0001095600D01*
X0000915100Y0001096000D01*
X0000911200Y0001102000D01*
X0000910600Y0001103000D01*
X0000908500Y0001106700D01*
X0000908000Y0001107500D01*
X0000907400Y0001108600D01*
X0000906300Y0001111300D01*
X0000906000Y0001112100D01*
X0000905300Y0001115300D01*
X0000905100Y0001116500D01*
X0000904800Y0001119600D01*
X0000905100Y0001122600D01*
X0000905300Y0001123900D01*
X0000906000Y0001126900D01*
X0000907200Y0001129700D01*
X0000907700Y0001130800D01*
X0000909300Y0001133500D01*
X0000911300Y0001135800D01*
X0000912200Y0001136700D01*
X0000914600Y0001138700D01*
X0000917200Y0001140300D01*
X0000918300Y0001140900D01*
X0000918900Y0001141100D01*
X0000920400Y0001141900D01*
X0000923000Y0001142900D01*
X0000925700Y0001143500D01*
X0000926500Y0001143600D01*
X0000923700Y0001148600D01*
X0000923400Y0001149200D01*
X0000922900Y0001150300D01*
X0000922500Y0001151100D01*
X0000918200Y0001160700D01*
X0000917400Y0001162900D01*
X0000914700Y0001171400D01*
X0000914100Y0001174200D01*
X0000912800Y0001182500D01*
X0000913900Y0001184400D01*
X0000912300Y0001186100D01*
X0000912000Y0001193800D01*
X0000912100Y0001195600D01*
X0000912800Y0001209200D01*
X0000913000Y0001211300D01*
X0000913200Y0001212500D01*
X0000913300Y0001213300D01*
X0000915500Y0001224000D01*
X0000916000Y0001226100D01*
X0000916800Y0001228200D01*
X0000920800Y0001237100D01*
X0000921200Y0001238000D01*
X0000921800Y0001239100D01*
X0000922700Y0001240600D01*
X0000923700Y0001242100D01*
X0000929800Y0001250100D01*
X0000931300Y0001251900D01*
X0000933500Y0001254200D01*
X0000933800Y0001254400D01*
X0000934600Y0001255300D01*
X0000935900Y0001256500D01*
X0000946700Y0001265500D01*
X0000949000Y0001267200D01*
X0000961300Y0001274800D01*
X0000962700Y0001275500D01*
X0000963800Y0001276100D01*
X0000964700Y0001276599D01*
X0000977600Y0001282199D01*
X0000980200Y0001283200D01*
X0000992900Y0001286700D01*
X0000995100Y0001287200D01*
X0000996300Y0001287399D01*
X0000997600Y0001287500D01*
X0001009200Y0001288599D01*
X0001012200Y0001286200D01*
X0001015500Y0001288199D01*
X0001022500Y0001287100D01*
X0001024000Y0001287999D01*
X0001025099Y0001288599D01*
X0001025600Y0001288799D01*
X0001031300Y0001291600D01*
X0001033199Y0001292300D01*
X0001034600Y0001292800D01*
X0001035600Y0001293200D01*
X0001038899Y0001294100D01*
X0001041400Y0001294700D01*
X0001042600Y0001294900D01*
X0001042899Y0001294900D01*
X0001046000Y0001295400D01*
X0001048100Y0001293799D01*
X0001050100Y0001295500D01*
X0001053600Y0001295300D01*
X0001055400Y0001295100D01*
X0001056700Y0001294900D01*
X0001057900Y0001294700D01*
X0001062600Y0001293599D01*
X0001064200Y0001293200D01*
X0001070600Y0001291100D01*
X0001071300Y0001290900D01*
X0001080100Y0001287799D01*
X0001080400Y0001287700D01*
X0001092300Y0001283300D01*
X0001097100Y0001281700D01*
X0001098300Y0001281500D01*
X0001102000Y0001281500D01*
X0001107800Y0001282100D01*
X0001113000Y0001282900D01*
X0001114600Y0001283400D01*
X0001114800Y0001283500D01*
X0001118200Y0001286400D01*
X0001118500Y0001286600D01*
X0001127600Y0001295100D01*
X0001129700Y0001296800D01*
X0001132100Y0001298100D01*
X0001133200Y0001298700D01*
X0001136000Y0001299900D01*
X0001139000Y0001300599D01*
X0001140200Y0001300799D01*
X0001143300Y0001301000D01*
X0001146400Y0001300799D01*
X0001147600Y0001300599D01*
X0001150600Y0001299900D01*
X0001153400Y0001298700D01*
X0001154500Y0001298100D01*
X0001157200Y0001296500D01*
X0001159500Y0001294500D01*
X0001160400Y0001293700D01*
X0001162400Y0001291300D01*
X0001164000Y0001288700D01*
X0001164600Y0001287599D01*
X0001165400Y0001285800D01*
X0001166000Y0001283900D01*
X0001167400Y0001279000D01*
X0001167900Y0001276800D01*
X0001168600Y0001272400D01*
X0001168600Y0001272300D01*
X0001168800Y0001271100D01*
X0001168900Y0001269599D01*
X0001169500Y0001262700D01*
X0001169600Y0001261800D01*
X0001169900Y0001253800D01*
X0001169900Y0001253400D01*
X0001169900Y0001253200D01*
X0001169900Y0001252500D01*
X0001169700Y0001243500D01*
X0001169400Y0001240800D01*
X0001169200Y0001239600D01*
X0001169200Y0001239500D01*
X0001168100Y0001232600D01*
X0001167700Y0001230700D01*
X0001167100Y0001228900D01*
X0001164700Y0001222500D01*
X0001163900Y0001220800D01*
X0001163000Y0001218800D01*
X0001162800Y0001218600D01*
X0001162300Y0001217500D01*
X0001161000Y0001215400D01*
X0001155000Y0001206500D01*
X0001153900Y0001204900D01*
X0001152600Y0001203500D01*
X0001151700Y0001202700D01*
X0001151400Y0001202300D01*
X0001143500Y0001194800D01*
X0001141900Y0001193500D01*
X0001140200Y0001192300D01*
X0001131400Y0001187000D01*
X0001130700Y0001186600D01*
X0001130800Y0001185900D01*
X0001131000Y0001184600D01*
X0001131700Y0001176300D01*
X0001131800Y0001173900D01*
X0001131500Y0001171500D01*
X0001131300Y0001170300D01*
X0001130700Y0001167500D01*
X0001128000Y0001159000D01*
X0001126800Y0001155800D01*
X0001126200Y0001154700D01*
X0001125700Y0001153700D01*
X0001121600Y0001146800D01*
X0001121500Y0001146700D01*
X0001118800Y0001142200D01*
X0001118600Y0001141700D01*
X0001118600Y0001141500D01*
X0001119400Y0001137600D01*
X0001121600Y0001130600D01*
X0001123000Y0001126200D01*
X0001123300Y0001125300D01*
X0001124400Y0001121200D01*
X0001124800Y0001119600D01*
X0001125200Y0001117400D01*
X0001125500Y0001118200D01*
X0001126100Y0001119400D01*
X0001126700Y0001120500D01*
X0001126700Y0001120500D01*
X0001131200Y0001129400D01*
X0001131300Y0001129500D01*
X0001131300Y0001129500D01*
X0001132900Y0001132200D01*
X0001137000Y0001137700D01*
X0001138900Y0001140000D01*
X0001139800Y0001140800D01*
X0001142100Y0001142800D01*
X0001145400Y0001145200D01*
X0001148100Y0001146800D01*
X0001149200Y0001147400D01*
X0001150100Y0001147900D01*
X0001154100Y0001149600D01*
X0001155000Y0001150000D01*
X0001156800Y0001150700D01*
X0001158800Y0001151300D01*
X0001160800Y0001151700D01*
X0001162000Y0001151900D01*
X0001165000Y0001152200D01*
X0001168100Y0001151900D01*
X0001169300Y0001151700D01*
X0001172300Y0001151000D01*
X0001175200Y0001149800D01*
X0001176300Y0001149300D01*
X0001178900Y0001147700D01*
X0001181300Y0001145600D01*
X0001182100Y0001144800D01*
X0001184200Y0001142400D01*
X0001185800Y0001139800D01*
X0001186300Y0001138700D01*
X0001187500Y0001135800D01*
X0001188200Y0001132800D01*
X0001188400Y0001131600D01*
X0001188500Y0001131300D01*
X0001188700Y0001129600D01*
X0001188900Y0001127500D01*
X0001189000Y0001124700D01*
X0001196100Y0001129500D01*
X0001196200Y0001129600D01*
X0001196400Y0001129700D01*
X0001204800Y0001135600D01*
X0001211300Y0001140800D01*
X0001214100Y0001143700D01*
X0001219000Y0001150900D01*
X0001220100Y0001152300D01*
X0001221300Y0001153700D01*
X0001222200Y0001154600D01*
X0001224600Y0001156600D01*
X0001227200Y0001158200D01*
X0001228300Y0001158800D01*
X0001231200Y0001159900D01*
X0001234200Y0001160700D01*
X0001235400Y0001160900D01*
X0001238400Y0001161100D01*
X0001241500Y0001160900D01*
X0001242700Y0001160700D01*
X0001245700Y0001159900D01*
X0001248600Y0001158800D01*
X0001249700Y0001158200D01*
X0001252300Y0001156600D01*
X0001254700Y0001154600D01*
X0001255600Y0001153700D01*
X0001257600Y0001151400D01*
X0001259200Y0001148700D01*
X0001259700Y0001147600D01*
X0001260900Y0001144800D01*
X0001261600Y0001141800D01*
X0001261800Y0001140600D01*
X0001262100Y0001137500D01*
X0001262100Y0001130200D01*
X0001262500Y0001126900D01*
X0001263900Y0001121200D01*
X0001265700Y0001116100D01*
X0001265700Y0001115900D01*
X0001268700Y0001107200D01*
X0001269200Y0001105600D01*
X0001271500Y0001096100D01*
X0001271900Y0001094600D01*
X0001272800Y0001089100D01*
X0001271800Y0001087500D01*
X0001273200Y0001086100D01*
X0001273300Y0001084700D01*
X0001281999Y0001086800D01*
X0001282399Y0001086900D01*
X0001292700Y0001089100D01*
X0001293200Y0001089200D01*
X0001301600Y0001090800D01*
X0001302200Y0001091000D01*
X0001303400Y0001091100D01*
X0001303900Y0001091200D01*
X0001309500Y0001092000D01*
X0001310500Y0001091200D01*
X0001311400Y0001092100D01*
X0001312199Y0001092200D01*
X0001315200Y0001089600D01*
X0001315500Y0001091800D01*
X0001316400Y0001091700D01*
X0001319400Y0001091000D01*
X0001322300Y0001089800D01*
X0001323400Y0001089200D01*
X0001326000Y0001087600D01*
X0001328400Y0001085600D01*
X0001329200Y0001084700D01*
X0001331199Y0001082400D01*
X0001332900Y0001079800D01*
X0001333400Y0001078700D01*
X0001334600Y0001075800D01*
X0001334800Y0001075200D01*
X0001335000Y0001074600D01*
X0001335700Y0001071600D01*
X0001335900Y0001070400D01*
X0001336100Y0001067300D01*
X0001335900Y0001064300D01*
X0001335800Y0001063500D01*
X0001335000Y0001060500D01*
X0001335000Y0001060500D01*
X0001335100Y0001060300D01*
X0001334600Y0001059100D01*
X0001333800Y0001057200D01*
X0001333200Y0001056100D01*
X0001331900Y0001053900D01*
X0001330399Y0001051900D01*
X0001327500Y0001048700D01*
X0001326800Y0001047900D01*
X0001325900Y0001046999D01*
X0001325700Y0001046800D01*
X0001321000Y0001042300D01*
X0001320800Y0001042100D01*
X0001314300Y0001035099D01*
X0001307300Y0001024799D01*
X0001302900Y0001017300D01*
X0001297800Y0001008100D01*
X0001297500Y0001007600D01*
X0001292900Y0000999900D01*
X0001292400Y0000999100D01*
X0001287700Y0000992100D01*
X0001287100Y0000991200D01*
X0001281900Y0000984300D01*
X0001281300Y0000983600D01*
X0001275000Y0000975900D01*
X0001274600Y0000975500D01*
X0001266500Y0000966400D01*
X0001266300Y0000966100D01*
X0001257200Y0000956100D01*
X0001247600Y0000945200D01*
X0001241100Y0000936800D01*
X0001237300Y0000930500D01*
X0001234800Y0000924600D01*
X0001232700Y0000916600D01*
X0001231000Y0000906500D01*
X0001230800Y0000905200D01*
X0001230700Y0000904700D01*
X0001230500Y0000903500D01*
X0001230400Y0000902900D01*
X0001226600Y0000883300D01*
X0001226000Y0000880800D01*
X0001221900Y0000868700D01*
X0001227200Y0000868500D01*
X0001235200Y0000869600D01*
X0001247900Y0000873000D01*
X0001248700Y0000873200D01*
X0001249200Y0000873400D01*
X0001264600Y0000877600D01*
X0001266300Y0000878000D01*
X0001279600Y0000880500D01*
X0001280100Y0000880600D01*
X0001281300Y0000880800D01*
X0001283400Y0000881000D01*
X0001295900Y0000881600D01*
X0001297200Y0000880400D01*
X0001298600Y0000881600D01*
X0001311500Y0000880400D01*
X0001312799Y0000880200D01*
X0001314000Y0000880000D01*
X0001314900Y0000879900D01*
X0001329400Y0000876900D01*
X0001330500Y0000876700D01*
X0001340400Y0000874100D01*
X0001341500Y0000872300D01*
X0001344200Y0000871200D01*
X0001345300Y0000870600D01*
X0001347900Y0000869000D01*
X0001350200Y0000867000D01*
X0001351100Y0000866100D01*
X0001353100Y0000863800D01*
X0001354700Y0000861200D01*
X0001355300Y0000860100D01*
X0001356500Y0000857200D01*
X0001356500Y0000856900D01*
X0001356800Y0000856700D01*
X0001357700Y0000855800D01*
X0001359700Y0000853400D01*
X0001361300Y0000850800D01*
X0001361900Y0000849700D01*
X0001363100Y0000846900D01*
X0001363800Y0000843900D01*
X0001364000Y0000842600D01*
X0001364200Y0000840800D01*
X0001364200Y0000839000D01*
X0001363600Y0000816700D01*
X0001363600Y0000816700D01*
X0001363600Y0000816600D01*
X0001363300Y0000806800D01*
X0001363300Y0000806100D01*
X0001362900Y0000799500D01*
X0001362700Y0000797600D01*
X0001362500Y0000796400D01*
X0001362400Y0000796200D01*
X0001361700Y0000791700D01*
X0001361199Y0000789599D01*
X0001360500Y0000787500D01*
X0001359200Y0000784300D01*
X0001358500Y0000782900D01*
X0001358000Y0000781800D01*
X0001357100Y0000780400D01*
X0001356100Y0000778900D01*
X0001354100Y0000776200D01*
X0001352800Y0000774700D01*
X0001351100Y0000772800D01*
X0001350600Y0000772300D01*
X0001349700Y0000771399D01*
X0001349100Y0000770800D01*
X0001342999Y0000765299D01*
X0001341500Y0000764000D01*
X0001339900Y0000762900D01*
X0001333500Y0000759000D01*
X0001332300Y0000758400D01*
X0001331199Y0000757800D01*
X0001328900Y0000756800D01*
X0001331199Y0000750299D01*
X0001331700Y0000748600D01*
X0001332000Y0000746999D01*
X0001332200Y0000745700D01*
X0001332300Y0000744900D01*
X0001333600Y0000733700D01*
X0001333800Y0000731600D01*
X0001333700Y0000729600D01*
X0001333100Y0000723800D01*
X0001333000Y0000722500D01*
X0001332800Y0000721300D01*
X0001332300Y0000719300D01*
X0001330999Y0000714400D01*
X0001330399Y0000712500D01*
X0001329600Y0000710599D01*
X0001329000Y0000709500D01*
X0001327400Y0000706900D01*
X0001325400Y0000704599D01*
X0001324500Y0000703700D01*
X0001323600Y0000702800D01*
X0001321800Y0000701200D01*
X0001321000Y0000701300D01*
X0001318799Y0000699700D01*
X0001318399Y0000699500D01*
X0001315600Y0000698300D01*
X0001314600Y0000698100D01*
X0001312100Y0000697100D01*
X0001309100Y0000696300D01*
X0001308000Y0000696200D01*
X0001307900Y0000697200D01*
X0001305200Y0000697400D01*
X0001304700Y0000697500D01*
X0001304400Y0000697800D01*
X0001301600Y0000696100D01*
X0001299900Y0000696400D01*
X0001299100Y0000696600D01*
X0001292700Y0000698100D01*
X0001289800Y0000697800D01*
X0001289000Y0000692999D01*
X0001288799Y0000692299D01*
X0001288100Y0000688500D01*
X0001286900Y0000682500D01*
X0001286500Y0000679400D01*
X0001286400Y0000676400D01*
X0001286600Y0000672400D01*
X0001287500Y0000666100D01*
X0001289000Y0000657000D01*
X0001289000Y0000657000D01*
X0001289000Y0000657000D01*
X0001289300Y0000655400D01*
X0001292500Y0000638500D01*
X0001295700Y0000625700D01*
X0001298600Y0000616600D01*
X0001301100Y0000611500D01*
X0001302000Y0000610100D01*
X0001304300Y0000607700D01*
X0001309900Y0000603300D01*
X0001319100Y0000597200D01*
X0001332100Y0000589700D01*
X0001341700Y0000584500D01*
X0001362200Y0000573700D01*
X0001364700Y0000572100D01*
X0001366900Y0000570200D01*
X0001367799Y0000569300D01*
X0001369800Y0000567000D01*
X0001371400Y0000564300D01*
X0001372000Y0000563200D01*
X0001373199Y0000560400D01*
X0001373900Y0000557400D01*
X0001374100Y0000556200D01*
X0001374300Y0000553100D01*
X0001374100Y0000550000D01*
X0001373900Y0000548800D01*
X0001373199Y0000545800D01*
X0001372000Y0000542900D01*
X0001371400Y0000541800D01*
X0001369800Y0000539200D01*
X0001367799Y0000536800D01*
X0001366900Y0000536000D01*
X0001364600Y0000534000D01*
X0001362000Y0000532400D01*
X0001360900Y0000531800D01*
X0001359200Y0000531000D01*
X0001351600Y0000528000D01*
X0001350400Y0000527600D01*
X0001337399Y0000523300D01*
X0001335700Y0000522900D01*
X0001335900Y0000521900D01*
X0001335999Y0000521100D01*
X0001336599Y0000515599D01*
X0001336799Y0000513700D01*
X0001336900Y0000505600D01*
X0001336900Y0000505200D01*
X0001336900Y0000502499D01*
X0001336799Y0000502100D01*
X0001336599Y0000493100D01*
X0001336500Y0000492500D01*
X0001335999Y0000484000D01*
X0001335999Y0000483200D01*
X0001335300Y0000476800D01*
X0001335200Y0000476700D01*
X0001335000Y0000474600D01*
X0001335000Y0000474500D01*
X0001335000Y0000474500D01*
X0001335000Y0000474500D01*
X0001334800Y0000473300D01*
X0001334700Y0000472800D01*
X0001333300Y0000465400D01*
X0001327800Y0000461600D01*
X0001325700Y0000459800D01*
X0001323100Y0000458100D01*
X0001322300Y0000457800D01*
X0001322000Y0000457500D01*
X0001322000Y0000453400D01*
X0001317900Y0000453200D01*
X0001316300Y0000451500D01*
X0001314100Y0000452000D01*
X0001310600Y0000449600D01*
X0001308200Y0000453000D01*
X0001294399Y0000452700D01*
X0001285100Y0000461400D01*
X0001280100Y0000465500D01*
X0001279600Y0000465800D01*
X0001278300Y0000466100D01*
X0001273200Y0000467800D01*
X0001271200Y0000471500D01*
X0001270800Y0000471800D01*
X0001270600Y0000471900D01*
X0001269399Y0000472200D01*
X0001265700Y0000471900D01*
X0001260200Y0000476500D01*
X0001258900Y0000477700D01*
X0001258000Y0000478600D01*
X0001257400Y0000479200D01*
X0001257200Y0000479500D01*
X0001257100Y0000479500D01*
X0001255500Y0000481300D01*
X0001253200Y0000478500D01*
X0001252100Y0000477400D01*
X0001251300Y0000476500D01*
X0001250200Y0000475500D01*
X0001247500Y0000473100D01*
X0001245600Y0000471700D01*
X0001243600Y0000470500D01*
X0001242500Y0000470000D01*
X0001240000Y0000468900D01*
X0001237400Y0000468200D01*
X0001236800Y0000468100D01*
X0001236700Y0000468100D01*
X0001236100Y0000468000D01*
X0001235400Y0000467900D01*
X0001232300Y0000467600D01*
X0001229200Y0000467900D01*
X0001228000Y0000468100D01*
X0001225000Y0000468800D01*
X0001222200Y0000470000D01*
X0001221100Y0000470500D01*
X0001218400Y0000472100D01*
X0001217000Y0000473300D01*
X0001216300Y0000473300D01*
X0001214100Y0000475200D01*
X0001214100Y0000475800D01*
X0001212500Y0000478000D01*
X0001211200Y0000478200D01*
X0001207600Y0000482600D01*
X0001206900Y0000483500D01*
X0001202600Y0000489400D01*
X0001202300Y0000489900D01*
X0001201600Y0000490800D01*
X0001201300Y0000491200D01*
X0001197200Y0000497500D01*
X0001193800Y0000490100D01*
X0001193600Y0000489600D01*
X0001189500Y0000481100D01*
X0001188400Y0000480700D01*
X0001188700Y0000479600D01*
X0001184400Y0000471300D01*
X0001184200Y0000470800D01*
X0001180200Y0000463600D01*
X0001179800Y0000462900D01*
X0001176500Y0000457600D01*
X0001175000Y0000455400D01*
X0001173000Y0000452900D01*
X0001172900Y0000452900D01*
X0001171600Y0000451300D01*
X0001170700Y0000450500D01*
X0001168400Y0000448500D01*
X0001167400Y0000447900D01*
X0001167400Y0000447800D01*
X0001167400Y0000447800D01*
X0001167300Y0000447800D01*
X0001165700Y0000446900D01*
X0001164700Y0000446300D01*
X0001162900Y0000445600D01*
X0001163700Y0000437800D01*
X0001171500Y0000440800D01*
X0001180200Y0000444600D01*
X0001180500Y0000444700D01*
X0001195000Y0000450700D01*
X0001196300Y0000451200D01*
X0001211200Y0000456200D01*
X0001212500Y0000456600D01*
X0001226900Y0000460300D01*
X0001228500Y0000460600D01*
X0001241500Y0000462900D01*
X0001241700Y0000462900D01*
X0001242900Y0000463100D01*
X0001245100Y0000463300D01*
X0001255600Y0000463800D01*
X0001256700Y0000462900D01*
X0001257800Y0000463800D01*
X0001258500Y0000463700D01*
X0001258700Y0000463700D01*
X0001266900Y0000463100D01*
X0001268500Y0000462900D01*
X0001269700Y0000462700D01*
X0001272700Y0000462000D01*
X0001275599Y0000460800D01*
X0001276700Y0000460300D01*
X0001279300Y0000458700D01*
X0001281700Y0000456700D01*
X0001282500Y0000455800D01*
X0001284500Y0000453400D01*
X0001286200Y0000450800D01*
X0001286700Y0000449700D01*
X0001287900Y0000446900D01*
X0001288599Y0000443800D01*
X0001288799Y0000442600D01*
X0001289000Y0000439500D01*
X0001288799Y0000436500D01*
X0001288599Y0000435300D01*
X0001287900Y0000432200D01*
X0001286700Y0000429400D01*
X0001286200Y0000428300D01*
X0001284500Y0000425700D01*
X0001282500Y0000423300D01*
X0001281700Y0000422400D01*
X0001280100Y0000421000D01*
X0001278300Y0000419800D01*
X0001269100Y0000413900D01*
X0001262400Y0000408200D01*
X0001255400Y0000399200D01*
X0001247600Y0000385600D01*
X0001244300Y0000378800D01*
X0001241200Y0000371900D01*
X0001239000Y0000371000D01*
X0001239400Y0000368600D01*
X0001236600Y0000364300D01*
X0001235400Y0000362500D01*
X0001233900Y0000360900D01*
X0001233100Y0000360099D01*
X0001231700Y0000358800D01*
X0001228300Y0000356000D01*
X0001226500Y0000354700D01*
X0001225700Y0000354200D01*
X0001228700Y0000348600D01*
X0001228800Y0000348400D01*
X0001229300Y0000347300D01*
X0001230400Y0000344699D01*
X0001233000Y0000337099D01*
X0001235600Y0000329900D01*
X0001238100Y0000324800D01*
X0001240300Y0000321300D01*
X0001243200Y0000317300D01*
X0001243700Y0000316600D01*
X0001243700Y0000316600D01*
X0001244400Y0000315500D01*
X0001246200Y0000312400D01*
X0001246100Y0000311800D01*
X0001246800Y0000310700D01*
X0001247300Y0000309600D01*
X0001248500Y0000306800D01*
X0001249200Y0000303800D01*
X0001249300Y0000303200D01*
X0001249400Y0000302800D01*
X0001249400Y0000302700D01*
X0001249500Y0000302000D01*
X0001249400Y0000301900D01*
X0001249600Y0000300200D01*
X0001249300Y0000297100D01*
X0001249100Y0000295900D01*
X0001248400Y0000292900D01*
X0001247200Y0000290100D01*
X0001246700Y0000289000D01*
X0001245100Y0000286300D01*
X0001243100Y0000284000D01*
X0001242200Y0000283100D01*
X0001239900Y0000281100D01*
X0001237200Y0000279500D01*
X0001236100Y0000278900D01*
X0001233300Y0000277800D01*
X0001232200Y0000277500D01*
X0001231100Y0000277100D01*
X0001228100Y0000276300D01*
X0001227900Y0000276300D01*
X0001227700Y0000277600D01*
X0001225700Y0000275900D01*
X0001223500Y0000275900D01*
X0001220800Y0000276200D01*
X0001219500Y0000276300D01*
X0001218900Y0000276500D01*
X0001214100Y0000277400D01*
X0001213100Y0000277600D01*
X0001208900Y0000278600D01*
X0001203100Y0000279800D01*
X0001195400Y0000280600D01*
X0001188000Y0000280900D01*
X0001179600Y0000281200D01*
X0001178400Y0000281300D01*
X0001177900Y0000279100D01*
X0001177200Y0000277000D01*
X0001173400Y0000267800D01*
X0001172700Y0000266300D01*
X0001172200Y0000265200D01*
X0001170600Y0000262600D01*
X0001165900Y0000256000D01*
X0001163800Y0000253600D01*
X0001162900Y0000252699D01*
X0001161000Y0000251000D01*
X0001153400Y0000245200D01*
X0001151900Y0000244200D01*
X0001150300Y0000243300D01*
X0001149200Y0000242700D01*
X0001147100Y0000241800D01*
X0001136600Y0000237900D01*
X0001133500Y0000239300D01*
X0001131200Y0000236700D01*
X0001118600Y0000235000D01*
X0001116900Y0000236400D01*
X0001115100Y0000234900D01*
X0001101100Y0000235500D01*
X0001099000Y0000235700D01*
X0001094600Y0000236400D01*
X0001085800Y0000237600D01*
X0001077000Y0000238500D01*
X0001071300Y0000238800D01*
X0001060000Y0000238900D01*
X0001046100Y0000252100D01*
X0001046100Y0000198400D01*
X0001041900Y0000193900D01*
X0001043800Y0000188299D01*
X0001038999Y0000178800D01*
X0001037600Y0000178300D01*
X0001037900Y0000176800D01*
X0001033099Y0000168499D01*
X0001032400Y0000167300D01*
X0001026300Y0000158300D01*
X0001025700Y0000157400D01*
X0001019099Y0000148800D01*
X0001018300Y0000147800D01*
X0001012000Y0000140600D01*
X0001009900Y0000140300D01*
X0001009600Y0000138200D01*
X0001004699Y0000133600D01*
X0001003300Y0000132400D01*
X0001001800Y0000131400D01*
X0000993400Y0000126099D01*
X0000992000Y0000125300D01*
X0000980300Y0000119300D01*
X0000980200Y0000119200D01*
X0000979100Y0000118600D01*
X0000978300Y0000118300D01*
X0000963900Y0000111700D01*
X0000963200Y0000111400D01*
X0000946600Y0000104500D01*
X0000946100Y0000104300D01*
X0000927800Y0000097300D01*
X0000927400Y0000097100D01*
X0000908000Y0000090300D01*
X0000907500Y0000090100D01*
X0000887700Y0000083600D01*
X0000887400Y0000083499D01*
X0000879400Y0000081100D01*
X0000879400Y0000081100D01*
X0000859100Y0000074900D01*
X0000842400Y0000069700D01*
X0000828800Y0000065300D01*
X0000818000Y0000061600D01*
X0000809800Y0000058400D01*
X0000803900Y0000055800D01*
X0000800200Y0000053800D01*
X0000796800Y0000051700D01*
X0000793300Y0000048900D01*
X0000793100Y0000048800D01*
X0000788900Y0000045500D01*
X0000786400Y0000044000D01*
X0000783300Y0000042300D01*
X0000783000Y0000042400D01*
X0000782400Y0000042000D01*
X0000781300Y0000041399D01*
X0000778500Y0000040200D01*
X0000775500Y0000039499D01*
X0000774700Y0000039400D01*
X0000774700Y0000039499D01*
X0000774499Y0000039400D01*
X0000774100Y0000039300D01*
X0000599500Y0000720300D02*
X0000606800Y0000720400D01*
X0000607900Y0000720400D01*
X0000611100Y0000737600D01*
X0000611400Y0000739100D01*
X0000616000Y0000756199D01*
X0000616600Y0000758100D01*
X0000618800Y0000764000D01*
X0000618200Y0000763200D01*
X0000617200Y0000761800D01*
X0000616000Y0000760500D01*
X0000615100Y0000759600D01*
X0000612700Y0000757600D01*
X0000610100Y0000756000D01*
X0000609000Y0000755400D01*
X0000608800Y0000755300D01*
X0000608400Y0000755200D01*
X0000608300Y0000755200D01*
X0000606100Y0000754300D01*
X0000604700Y0000753900D01*
X0000604700Y0000752300D01*
X0000604700Y0000751900D01*
X0000604500Y0000743200D01*
X0000604500Y0000742600D01*
X0000604200Y0000736200D01*
X0000604100Y0000734600D01*
X0000603600Y0000731200D01*
X0000603500Y0000731100D01*
X0000603400Y0000730400D01*
X0000603200Y0000729199D01*
X0000602500Y0000726199D01*
X0000601600Y0000724000D01*
X0000601600Y0000723900D01*
X0000601500Y0000723600D01*
X0000601400Y0000723600D01*
X0000601300Y0000723400D01*
X0000600900Y0000722500D01*
X0000599500Y0000720300D01*
X0001028799Y0000715200D02*
X0001029300Y0000716100D01*
X0001032100Y0000721900D01*
X0001032500Y0000723099D01*
X0001032100Y0000726400D01*
X0001032000Y0000729800D01*
X0001032100Y0000731300D01*
X0001031199Y0000731700D01*
X0001030100Y0000732299D01*
X0001027600Y0000733800D01*
X0001019200Y0000739800D01*
X0001016699Y0000741900D01*
X0001015800Y0000742800D01*
X0001015500Y0000743000D01*
X0001014300Y0000744299D01*
X0001013300Y0000745400D01*
X0001012600Y0000746300D01*
X0001007600Y0000742000D01*
X0001006599Y0000741500D01*
X0001005900Y0000741199D01*
X0001006200Y0000739800D01*
X0001006400Y0000738600D01*
X0001006599Y0000735900D01*
X0001006500Y0000733300D01*
X0001006100Y0000729700D01*
X0001006000Y0000728799D01*
X0001005800Y0000727600D01*
X0001005200Y0000725000D01*
X0001004300Y0000722600D01*
X0001003200Y0000720199D01*
X0001022400Y0000720199D01*
X0001027300Y0000715700D01*
X0001027900Y0000716200D01*
X0001028799Y0000715200D01*
X0000799300Y0000720199D02*
X0000798200Y0000720500D01*
X0000795900Y0000720700D01*
X0000791100Y0000720500D01*
X0000789000Y0000720199D01*
X0000799300Y0000720199D01*
X0000846900Y0000229100D02*
X0000847400Y0000231200D01*
X0000848600Y0000234000D01*
X0000849100Y0000235100D01*
X0000850800Y0000237900D01*
X0000851700Y0000239100D01*
X0000851700Y0000239100D01*
X0000849700Y0000239200D01*
X0000847500Y0000239500D01*
X0000846300Y0000239700D01*
X0000845100Y0000239900D01*
X0000838500Y0000241300D01*
X0000836600Y0000241800D01*
X0000834800Y0000242500D01*
X0000830100Y0000244600D01*
X0000829099Y0000245100D01*
X0000828000Y0000245600D01*
X0000826400Y0000246500D01*
X0000824900Y0000247600D01*
X0000819600Y0000251699D01*
X0000817700Y0000253400D01*
X0000816800Y0000254199D01*
X0000814800Y0000256600D01*
X0000813200Y0000259200D01*
X0000812600Y0000260299D01*
X0000812300Y0000261000D01*
X0000810400Y0000265100D01*
X0000809400Y0000267700D01*
X0000808800Y0000270300D01*
X0000808600Y0000271600D01*
X0000808300Y0000274600D01*
X0000808600Y0000277700D01*
X0000808800Y0000278900D01*
X0000809500Y0000281900D01*
X0000811000Y0000286700D01*
X0000812200Y0000289500D01*
X0000812800Y0000290600D01*
X0000813999Y0000292600D01*
X0000815400Y0000294500D01*
X0000820500Y0000300400D01*
X0000821400Y0000301400D01*
X0000822300Y0000302300D01*
X0000822800Y0000302800D01*
X0000824600Y0000304400D01*
X0000827800Y0000307600D01*
X0000828900Y0000309100D01*
X0000829200Y0000309600D01*
X0000829700Y0000310700D01*
X0000831200Y0000313200D01*
X0000832099Y0000314400D01*
X0000834200Y0000316900D01*
X0000835100Y0000317700D01*
X0000836600Y0000319099D01*
X0000833700Y0000323900D01*
X0000833000Y0000325199D01*
X0000832400Y0000326300D01*
X0000831500Y0000328300D01*
X0000829300Y0000334099D01*
X0000828500Y0000336999D01*
X0000827500Y0000341599D01*
X0000827400Y0000342000D01*
X0000826099Y0000348900D01*
X0000825400Y0000349399D01*
X0000823400Y0000350799D01*
X0000819200Y0000354200D01*
X0000817700Y0000355600D01*
X0000816800Y0000356500D01*
X0000816700Y0000356600D01*
X0000810800Y0000362500D01*
X0000810800Y0000362500D01*
X0000810200Y0000363200D01*
X0000803100Y0000371100D01*
X0000803100Y0000371100D01*
X0000802700Y0000371600D01*
X0000795100Y0000380600D01*
X0000794800Y0000381000D01*
X0000787200Y0000390600D01*
X0000786900Y0000391000D01*
X0000780000Y0000400300D01*
X0000779500Y0000401000D01*
X0000773800Y0000409300D01*
X0000773300Y0000410100D01*
X0000771200Y0000413300D01*
X0000771599Y0000415300D01*
X0000771399Y0000415800D01*
X0000769500Y0000416600D01*
X0000763500Y0000429700D01*
X0000762800Y0000431500D01*
X0000762199Y0000433400D01*
X0000758900Y0000447300D01*
X0000760500Y0000450100D01*
X0000758200Y0000452400D01*
X0000757800Y0000466100D01*
X0000760100Y0000468800D01*
X0000758300Y0000471800D01*
X0000760800Y0000484400D01*
X0000761300Y0000486200D01*
X0000761900Y0000488000D01*
X0000763600Y0000492200D01*
X0000764300Y0000493700D01*
X0000764900Y0000494800D01*
X0000764900Y0000494800D01*
X0000766300Y0000497700D01*
X0000766300Y0000497700D01*
X0000766300Y0000497700D01*
X0000768000Y0000500299D01*
X0000769900Y0000502700D01*
X0000770800Y0000503499D01*
X0000772500Y0000505100D01*
X0000774200Y0000506200D01*
X0000775100Y0000509800D01*
X0000775700Y0000511499D01*
X0000777200Y0000515499D01*
X0000778100Y0000517599D01*
X0000778700Y0000518700D01*
X0000779500Y0000520200D01*
X0000780499Y0000521599D01*
X0000781900Y0000523499D01*
X0000783100Y0000524800D01*
X0000783200Y0000526600D01*
X0000783400Y0000527900D01*
X0000784100Y0000530900D01*
X0000785300Y0000533700D01*
X0000785900Y0000534800D01*
X0000787500Y0000537400D01*
X0000789500Y0000539800D01*
X0000790400Y0000540600D01*
X0000792699Y0000542700D01*
X0000795400Y0000544300D01*
X0000796500Y0000544800D01*
X0000798000Y0000545500D01*
X0000798600Y0000546200D01*
X0000799500Y0000547000D01*
X0000801799Y0000549000D01*
X0000804500Y0000550700D01*
X0000805600Y0000551200D01*
X0000806300Y0000551500D01*
X0000806800Y0000552700D01*
X0000807600Y0000554500D01*
X0000808100Y0000555600D01*
X0000808900Y0000557000D01*
X0000809500Y0000557900D01*
X0000810800Y0000559800D01*
X0000812300Y0000561500D01*
X0000813200Y0000562300D01*
X0000815500Y0000564400D01*
X0000818200Y0000566000D01*
X0000819300Y0000566500D01*
X0000822100Y0000567700D01*
X0000824400Y0000568300D01*
X0000824600Y0000569400D01*
X0000826099Y0000577800D01*
X0000826600Y0000584500D01*
X0000826300Y0000589300D01*
X0000825300Y0000594600D01*
X0000825200Y0000595100D01*
X0000824100Y0000601400D01*
X0000824100Y0000601500D01*
X0000823900Y0000602700D01*
X0000823700Y0000604100D01*
X0000822999Y0000612500D01*
X0000822999Y0000613600D01*
X0000822800Y0000620800D01*
X0000822400Y0000628400D01*
X0000821800Y0000631699D01*
X0000821300Y0000633100D01*
X0000820800Y0000634600D01*
X0000818900Y0000641700D01*
X0000820800Y0000645500D01*
X0000818000Y0000648700D01*
X0000818100Y0000654200D01*
X0000816999Y0000654400D01*
X0000814500Y0000655000D01*
X0000812100Y0000655899D01*
X0000811700Y0000656099D01*
X0000811300Y0000655700D01*
X0000808900Y0000653700D01*
X0000806300Y0000652100D01*
X0000805200Y0000651500D01*
X0000803600Y0000650800D01*
X0000801899Y0000650199D01*
X0000799900Y0000649600D01*
X0000798000Y0000649100D01*
X0000792900Y0000648100D01*
X0000792400Y0000648000D01*
X0000785200Y0000646799D01*
X0000784300Y0000647299D01*
X0000783699Y0000646600D01*
X0000781100Y0000646200D01*
X0000773300Y0000644900D01*
X0000771800Y0000644399D01*
X0000770700Y0000642500D01*
X0000769300Y0000640500D01*
X0000767700Y0000638700D01*
X0000766900Y0000637899D01*
X0000766000Y0000637100D01*
X0000768599Y0000636000D01*
X0000769700Y0000635400D01*
X0000772300Y0000633800D01*
X0000774700Y0000631799D01*
X0000775500Y0000631000D01*
X0000777499Y0000628700D01*
X0000778400Y0000627300D01*
X0000778500Y0000627200D01*
X0000779100Y0000626100D01*
X0000779100Y0000626100D01*
X0000780300Y0000623200D01*
X0000781100Y0000620100D01*
X0000781300Y0000618900D01*
X0000781500Y0000615800D01*
X0000781300Y0000612700D01*
X0000781100Y0000611500D01*
X0000780300Y0000608500D01*
X0000780300Y0000608400D01*
X0000780900Y0000606100D01*
X0000781100Y0000604900D01*
X0000781300Y0000601800D01*
X0000781100Y0000598700D01*
X0000780900Y0000597500D01*
X0000780300Y0000594800D01*
X0000779300Y0000592200D01*
X0000778600Y0000590700D01*
X0000778300Y0000590100D01*
X0000777699Y0000589000D01*
X0000776200Y0000586600D01*
X0000774399Y0000584400D01*
X0000773600Y0000583500D01*
X0000773300Y0000583200D01*
X0000772400Y0000582300D01*
X0000770300Y0000580500D01*
X0000768000Y0000579000D01*
X0000768299Y0000578100D01*
X0000769100Y0000575100D01*
X0000769300Y0000573900D01*
X0000769500Y0000570800D01*
X0000769300Y0000567700D01*
X0000769100Y0000566500D01*
X0000768599Y0000564400D01*
X0000768000Y0000562400D01*
X0000766900Y0000559700D01*
X0000766100Y0000558000D01*
X0000765599Y0000556900D01*
X0000763900Y0000554300D01*
X0000761900Y0000551900D01*
X0000761100Y0000551100D01*
X0000758700Y0000549000D01*
X0000756099Y0000547400D01*
X0000755000Y0000546900D01*
X0000753299Y0000546100D01*
X0000750600Y0000545100D01*
X0000750299Y0000544900D01*
X0000748200Y0000543300D01*
X0000748000Y0000543100D01*
X0000746100Y0000541500D01*
X0000740800Y0000537500D01*
X0000738299Y0000535900D01*
X0000730800Y0000531900D01*
X0000728899Y0000532400D01*
X0000728000Y0000530500D01*
X0000719799Y0000527100D01*
X0000717700Y0000526400D01*
X0000710300Y0000524300D01*
X0000707799Y0000525500D01*
X0000705900Y0000523400D01*
X0000702600Y0000523100D01*
X0000699200Y0000525700D01*
X0000695499Y0000523499D01*
X0000689799Y0000524500D01*
X0000688100Y0000524900D01*
X0000686499Y0000525500D01*
X0000679400Y0000528100D01*
X0000677499Y0000529000D01*
X0000676400Y0000529600D01*
X0000676100Y0000529700D01*
X0000670999Y0000532400D01*
X0000673500Y0000530200D01*
X0000673800Y0000528000D01*
X0000673900Y0000527800D01*
X0000674499Y0000526700D01*
X0000674599Y0000526400D01*
X0000677499Y0000525800D01*
X0000680699Y0000521400D01*
X0000682200Y0000518900D01*
X0000682700Y0000517800D01*
X0000683699Y0000515700D01*
X0000684100Y0000514599D01*
X0000684600Y0000512800D01*
X0000685000Y0000510900D01*
X0000685200Y0000509700D01*
X0000685400Y0000507700D01*
X0000685800Y0000501499D01*
X0000685800Y0000499600D01*
X0000685600Y0000497700D01*
X0000684400Y0000489400D01*
X0000682700Y0000487900D01*
X0000683799Y0000485900D01*
X0000681400Y0000477100D01*
X0000680699Y0000474800D01*
X0000677499Y0000466900D01*
X0000676500Y0000466400D01*
X0000675800Y0000464200D01*
X0000675900Y0000463600D01*
X0000674599Y0000461300D01*
X0000673600Y0000459700D01*
X0000672500Y0000458200D01*
X0000668599Y0000453600D01*
X0000666300Y0000453300D01*
X0000666200Y0000451400D01*
X0000670600Y0000449700D01*
X0000672300Y0000448900D01*
X0000673400Y0000448300D01*
X0000673600Y0000448200D01*
X0000677799Y0000446000D01*
X0000679000Y0000445300D01*
X0000687000Y0000440400D01*
X0000688000Y0000439700D01*
X0000697700Y0000432800D01*
X0000698300Y0000432300D01*
X0000708600Y0000424300D01*
X0000709100Y0000423900D01*
X0000718900Y0000415700D01*
X0000719599Y0000415100D01*
X0000727700Y0000407600D01*
X0000728200Y0000406999D01*
X0000729099Y0000406200D01*
X0000729299Y0000405900D01*
X0000732500Y0000402700D01*
X0000733100Y0000401900D01*
X0000737700Y0000396700D01*
X0000739300Y0000394600D01*
X0000741700Y0000390800D01*
X0000742800Y0000389000D01*
X0000743300Y0000387900D01*
X0000744500Y0000385000D01*
X0000745200Y0000382000D01*
X0000745400Y0000380800D01*
X0000745700Y0000378000D01*
X0000745700Y0000375500D01*
X0000745500Y0000372099D01*
X0000745300Y0000370900D01*
X0000744600Y0000367900D01*
X0000743400Y0000365100D01*
X0000742800Y0000364000D01*
X0000741199Y0000361300D01*
X0000739200Y0000359000D01*
X0000738299Y0000358100D01*
X0000736300Y0000356400D01*
X0000734100Y0000354900D01*
X0000731400Y0000353400D01*
X0000730600Y0000353500D01*
X0000725600Y0000351900D01*
X0000725200Y0000351800D01*
X0000723300Y0000351700D01*
X0000722000Y0000350200D01*
X0000716200Y0000349399D01*
X0000715200Y0000350200D01*
X0000714199Y0000349299D01*
X0000704999Y0000349000D01*
X0000704699Y0000349199D01*
X0000704399Y0000349000D01*
X0000695599Y0000348900D01*
X0000695499Y0000349000D01*
X0000695499Y0000348900D01*
X0000686000Y0000348900D01*
X0000686299Y0000346800D01*
X0000689000Y0000335200D01*
X0000689199Y0000334500D01*
X0000689199Y0000334400D01*
X0000691500Y0000325900D01*
X0000691800Y0000324899D01*
X0000692999Y0000319300D01*
X0000692000Y0000317399D01*
X0000692200Y0000316400D01*
X0000693600Y0000315000D01*
X0000693800Y0000311200D01*
X0000693800Y0000309100D01*
X0000693600Y0000307100D01*
X0000693400Y0000305800D01*
X0000692999Y0000304100D01*
X0000692299Y0000301200D01*
X0000691600Y0000299000D01*
X0000690800Y0000297200D01*
X0000690800Y0000297200D01*
X0000689699Y0000295000D01*
X0000689699Y0000294900D01*
X0000689100Y0000293800D01*
X0000687700Y0000291500D01*
X0000686100Y0000289400D01*
X0000683499Y0000286600D01*
X0000686000Y0000286500D01*
X0000687500Y0000286300D01*
X0000691500Y0000285700D01*
X0000697500Y0000284900D01*
X0000698100Y0000284900D01*
X0000698200Y0000286600D01*
X0000698200Y0000287500D01*
X0000698599Y0000293600D01*
X0000698799Y0000295300D01*
X0000698999Y0000296500D01*
X0000699300Y0000298000D01*
X0000700200Y0000301700D01*
X0000700900Y0000304000D01*
X0000701799Y0000306100D01*
X0000702400Y0000307200D01*
X0000703200Y0000308700D01*
X0000704200Y0000310100D01*
X0000705800Y0000312300D01*
X0000707599Y0000314300D01*
X0000708500Y0000315200D01*
X0000710799Y0000317100D01*
X0000713300Y0000318700D01*
X0000715900Y0000320100D01*
X0000716000Y0000320200D01*
X0000717099Y0000320700D01*
X0000719300Y0000321700D01*
X0000721000Y0000322300D01*
X0000722200Y0000322700D01*
X0000728700Y0000324600D01*
X0000729900Y0000324899D01*
X0000737100Y0000326599D01*
X0000737999Y0000326699D01*
X0000738500Y0000326800D01*
X0000739000Y0000326900D01*
X0000740200Y0000327100D01*
X0000740500Y0000327100D01*
X0000745400Y0000327800D01*
X0000746300Y0000327200D01*
X0000746999Y0000327300D01*
X0000747099Y0000326800D01*
X0000749999Y0000326100D01*
X0000751400Y0000325500D01*
X0000754600Y0000327200D01*
X0000756499Y0000326599D01*
X0000758400Y0000326000D01*
X0000760200Y0000325199D01*
X0000761300Y0000324600D01*
X0000764000Y0000323000D01*
X0000766300Y0000321000D01*
X0000767200Y0000320100D01*
X0000769200Y0000317800D01*
X0000770800Y0000315100D01*
X0000771399Y0000314000D01*
X0000772600Y0000311200D01*
X0000773300Y0000308200D01*
X0000773500Y0000307000D01*
X0000773700Y0000304200D01*
X0000773600Y0000301400D01*
X0000773300Y0000299400D01*
X0000773200Y0000298800D01*
X0000773100Y0000298000D01*
X0000773300Y0000296600D01*
X0000774200Y0000292200D01*
X0000774399Y0000291300D01*
X0000774599Y0000290100D01*
X0000774700Y0000289700D01*
X0000775700Y0000282200D01*
X0000775800Y0000281500D01*
X0000776700Y0000272600D01*
X0000776700Y0000272200D01*
X0000777000Y0000267800D01*
X0000777000Y0000267600D01*
X0000777599Y0000260000D01*
X0000779200Y0000259100D01*
X0000785000Y0000256900D01*
X0000795100Y0000254000D01*
X0000801300Y0000252500D01*
X0000801500Y0000252400D01*
X0000814100Y0000249200D01*
X0000815800Y0000248700D01*
X0000825000Y0000245500D01*
X0000827400Y0000244400D01*
X0000828500Y0000243900D01*
X0000829500Y0000243300D01*
X0000836100Y0000239500D01*
X0000838199Y0000238100D01*
X0000840100Y0000236400D01*
X0000841000Y0000235500D01*
X0000841600Y0000235000D01*
X0000846200Y0000229900D01*
X0000846900Y0000229100D01*
X0000594100Y0000623200D02*
X0000594300Y0000624100D01*
X0000594500Y0000625400D01*
X0000594600Y0000625900D01*
X0000594300Y0000626000D01*
X0000594200Y0000626000D01*
X0000592200Y0000625200D01*
X0000591300Y0000625000D01*
X0000593300Y0000623800D01*
X0000594100Y0000623200D01*
X0001046100Y0000281500D02*
X0001051100Y0000285900D01*
X0001055100Y0000290200D01*
X0001058100Y0000295200D01*
X0001061500Y0000304100D01*
X0001062400Y0000307200D01*
X0001063800Y0000313000D01*
X0001064500Y0000318600D01*
X0001064600Y0000326300D01*
X0001064100Y0000336100D01*
X0001062600Y0000348500D01*
X0001060300Y0000362800D01*
X0001056900Y0000381700D01*
X0001056400Y0000384299D01*
X0001056400Y0000384400D01*
X0001053800Y0000398000D01*
X0001053800Y0000398200D01*
X0001051500Y0000410800D01*
X0001051500Y0000411000D01*
X0001049600Y0000422100D01*
X0001049500Y0000422400D01*
X0001049400Y0000423600D01*
X0001049300Y0000423600D01*
X0001048900Y0000426400D01*
X0001046700Y0000427000D01*
X0001046100Y0000427200D01*
X0001046100Y0000281500D01*
D11*
X0000289400Y0001134600D02*
X0000288300Y0001135200D01*
X0000286400Y0001136300D01*
X0000284200Y0001137800D01*
X0000282400Y0001139100D01*
X0000281400Y0001139900D01*
X0000277600Y0001143100D01*
X0000276700Y0001143800D01*
X0000275400Y0001145000D01*
X0000274600Y0001145800D01*
X0000273700Y0001146600D01*
X0000272700Y0001147800D01*
X0000271000Y0001149700D01*
X0000269100Y0001152100D01*
X0000267700Y0001154200D01*
X0000266900Y0001155500D01*
X0000264300Y0001160000D01*
X0000264000Y0001160500D01*
X0000263500Y0001161500D01*
X0000263200Y0001162000D01*
X0000262600Y0001163100D01*
X0000262100Y0001164300D01*
X0000261299Y0001166100D01*
X0000260799Y0001167300D01*
X0000259299Y0001171100D01*
X0000259000Y0001172000D01*
X0000258500Y0001173600D01*
X0000258199Y0001174600D01*
X0000256400Y0001180700D01*
X0000256199Y0001181600D01*
X0000255800Y0001183000D01*
X0000255600Y0001183900D01*
X0000254000Y0001191300D01*
X0000253900Y0001191900D01*
X0000253800Y0001192800D01*
X0000253699Y0001193400D01*
X0000253500Y0001194600D01*
X0000253500Y0001194600D01*
X0000253500Y0001194700D01*
X0000252300Y0001202300D01*
X0000252300Y0001202300D01*
X0000252199Y0001202400D01*
X0000252199Y0001202500D01*
X0000252400Y0001203000D01*
X0000252199Y0001203000D01*
X0000252000Y0001204000D01*
X0000252000Y0001204600D01*
X0000251199Y0001211700D01*
X0000251100Y0001212600D01*
X0000251000Y0001214100D01*
X0000251000Y0001215000D01*
X0000250800Y0001220400D01*
X0000250800Y0001221500D01*
X0000250900Y0001223300D01*
X0000251000Y0001225500D01*
X0000251199Y0001227300D01*
X0000251300Y0001228400D01*
X0000251500Y0001229600D01*
X0000251600Y0001230100D01*
X0000251800Y0001230900D01*
X0000251900Y0001231400D01*
X0000252400Y0001234100D01*
X0000252800Y0001235700D01*
X0000253500Y0001238300D01*
X0000254600Y0001241300D01*
X0000255600Y0001243800D01*
X0000256299Y0001245300D01*
X0000256900Y0001246400D01*
X0000257799Y0001248000D01*
X0000259400Y0001250600D01*
X0000261500Y0001253600D01*
X0000263600Y0001256000D01*
X0000264800Y0001257300D01*
X0000265700Y0001258200D01*
X0000267000Y0001259400D01*
X0000269200Y0001261300D01*
X0000272100Y0001263399D01*
X0000274600Y0001265000D01*
X0000276100Y0001265900D01*
X0000276500Y0001266100D01*
X0000276600Y0001266100D01*
X0000276800Y0001266300D01*
X0000277000Y0001266300D01*
X0000278100Y0001266900D01*
X0000279700Y0001267700D01*
X0000282600Y0001268800D01*
X0000286100Y0001269999D01*
X0000289100Y0001270700D01*
X0000291000Y0001271100D01*
X0000292200Y0001271300D01*
X0000294000Y0001271500D01*
X0000297100Y0001271700D01*
X0000300800Y0001271700D01*
X0000303900Y0001271500D01*
X0000305700Y0001271300D01*
X0000306900Y0001271100D01*
X0000308800Y0001270700D01*
X0000311800Y0001269999D01*
X0000313600Y0001269500D01*
X0000316200Y0001268600D01*
X0000317300Y0001268200D01*
X0000319200Y0001267500D01*
X0000320300Y0001267000D01*
X0000325199Y0001264900D01*
X0000325600Y0001264700D01*
X0000326200Y0001264399D01*
X0000326599Y0001264199D01*
X0000329599Y0001262700D01*
X0000331099Y0001263000D01*
X0000340000Y0001265200D01*
X0000349700Y0001267900D01*
X0000359200Y0001270900D01*
X0000362000Y0001271900D01*
X0000362600Y0001272100D01*
X0000363500Y0001272400D01*
X0000364000Y0001272600D01*
X0000377000Y0001276399D01*
X0000378500Y0001276900D01*
X0000381099Y0001277400D01*
X0000382600Y0001277700D01*
X0000383900Y0001277900D01*
X0000384299Y0001278000D01*
X0000385200Y0001278100D01*
X0000385699Y0001278200D01*
X0000396299Y0001279400D01*
X0000402200Y0001278900D01*
X0000407900Y0001279200D01*
X0000415500Y0001278000D01*
X0000425800Y0001280200D01*
X0000426500Y0001280400D01*
X0000427600Y0001280600D01*
X0000428300Y0001280700D01*
X0000429500Y0001280900D01*
X0000430600Y0001281000D01*
X0000432300Y0001281200D01*
X0000434400Y0001281399D01*
X0000436200Y0001281399D01*
X0000437300Y0001281399D01*
X0000450200Y0001281100D01*
X0000451800Y0001281000D01*
X0000454400Y0001280800D01*
X0000456000Y0001280600D01*
X0000457200Y0001280400D01*
X0000457800Y0001280300D01*
X0000458800Y0001280100D01*
X0000459400Y0001280000D01*
X0000474300Y0001276800D01*
X0000475200Y0001276599D01*
X0000476500Y0001276300D01*
X0000477400Y0001275999D01*
X0000478500Y0001275700D01*
X0000479000Y0001275599D01*
X0000479900Y0001275300D01*
X0000480500Y0001275100D01*
X0000489400Y0001272000D01*
X0000490900Y0001271400D01*
X0000493500Y0001270399D01*
X0000495000Y0001269599D01*
X0000496100Y0001269100D01*
X0000496400Y0001269000D01*
X0000496800Y0001268700D01*
X0000497000Y0001268600D01*
X0000503800Y0001264900D01*
X0000504800Y0001264399D01*
X0000506399Y0001263399D01*
X0000508300Y0001262200D01*
X0000509800Y0001261000D01*
X0000510700Y0001260400D01*
X0000517300Y0001254900D01*
X0000518000Y0001254300D01*
X0000519100Y0001253300D01*
X0000519800Y0001252700D01*
X0000522200Y0001250400D01*
X0000522400Y0001250200D01*
X0000522800Y0001249900D01*
X0000523000Y0001249700D01*
X0000523800Y0001248800D01*
X0000524000Y0001248700D01*
X0000524200Y0001248400D01*
X0000524400Y0001248300D01*
X0000529600Y0001242800D01*
X0000530600Y0001241700D01*
X0000532200Y0001239900D01*
X0000533100Y0001238800D01*
X0000536800Y0001233800D01*
X0000538000Y0001232100D01*
X0000539700Y0001229300D01*
X0000540700Y0001227600D01*
X0000543700Y0001221800D01*
X0000543700Y0001221700D01*
X0000543800Y0001221700D01*
X0000543800Y0001221600D01*
X0000544400Y0001220500D01*
X0000545000Y0001219300D01*
X0000545900Y0001217200D01*
X0000546400Y0001216000D01*
X0000549300Y0001208100D01*
X0000549400Y0001207700D01*
X0000549700Y0001206900D01*
X0000549900Y0001206500D01*
X0000551400Y0001201800D01*
X0000551400Y0001201700D01*
X0000551500Y0001201600D01*
X0000551500Y0001201600D01*
X0000557400Y0001183200D01*
X0000558400Y0001174500D01*
X0000558100Y0001173300D01*
X0000558700Y0001172100D01*
X0000559200Y0001163000D01*
X0000556500Y0001142400D01*
X0000555900Y0001140700D01*
X0000555900Y0001138900D01*
X0000553300Y0001125000D01*
X0000554400Y0001124000D01*
X0000555200Y0001123200D01*
X0000556500Y0001121800D01*
X0000558500Y0001119500D01*
X0000560700Y0001116400D01*
X0000562300Y0001113800D01*
X0000563200Y0001112200D01*
X0000563800Y0001111100D01*
X0000564500Y0001109400D01*
X0000565700Y0001106600D01*
X0000566900Y0001103000D01*
X0000567600Y0001100100D01*
X0000568000Y0001098200D01*
X0000568100Y0001097000D01*
X0000568300Y0001095700D01*
X0000568500Y0001093500D01*
X0000568700Y0001090800D01*
X0000568600Y0001089600D01*
X0000569800Y0001090100D01*
X0000571800Y0001091000D01*
X0000574300Y0001091900D01*
X0000576400Y0001092600D01*
X0000577700Y0001093000D01*
X0000584200Y0001094600D01*
X0000596100Y0001097900D01*
X0000600400Y0001099400D01*
X0000601900Y0001102800D01*
X0000605700Y0001114200D01*
X0000606400Y0001116500D01*
X0000607600Y0001121100D01*
X0000608400Y0001124600D01*
X0000608900Y0001128100D01*
X0000609600Y0001134800D01*
X0000610200Y0001144300D01*
X0000610900Y0001157500D01*
X0000611200Y0001164300D01*
X0000611800Y0001179300D01*
X0000612400Y0001195600D01*
X0000612800Y0001211600D01*
X0000613200Y0001225900D01*
X0000613300Y0001231700D01*
X0000611700Y0001232300D01*
X0000611100Y0001232500D01*
X0000609900Y0001233000D01*
X0000609300Y0001233200D01*
X0000604500Y0001235300D01*
X0000603800Y0001235600D01*
X0000602700Y0001236100D01*
X0000602100Y0001236500D01*
X0000601000Y0001237000D01*
X0000600000Y0001237500D01*
X0000598500Y0001238400D01*
X0000597500Y0001239000D01*
X0000594900Y0001240600D01*
X0000593800Y0001241300D01*
X0000592100Y0001242600D01*
X0000590000Y0001244200D01*
X0000588400Y0001245700D01*
X0000587400Y0001246600D01*
X0000586500Y0001247500D01*
X0000585300Y0001248900D01*
X0000583300Y0001251200D01*
X0000581100Y0001254200D01*
X0000579500Y0001256800D01*
X0000578500Y0001258500D01*
X0000578000Y0001259600D01*
X0000577200Y0001261200D01*
X0000569100Y0001264199D01*
X0000560700Y0001264600D01*
X0000555600Y0001269999D01*
X0000552300Y0001271700D01*
X0000550500Y0001275100D01*
X0000544600Y0001280500D01*
X0000544100Y0001288700D01*
X0000538600Y0001302700D01*
X0000536900Y0001311500D01*
X0000538600Y0001320300D01*
X0000541600Y0001327700D01*
X0000542000Y0001328600D01*
X0000542700Y0001330100D01*
X0000543200Y0001330999D01*
X0000543700Y0001332100D01*
X0000544100Y0001332900D01*
X0000544900Y0001334200D01*
X0000545300Y0001335000D01*
X0000551600Y0001345300D01*
X0000552400Y0001346500D01*
X0000553700Y0001348399D01*
X0000555500Y0001350700D01*
X0000557000Y0001352400D01*
X0000558000Y0001353500D01*
X0000558900Y0001354300D01*
X0000559400Y0001354900D01*
X0000560400Y0001355800D01*
X0000560900Y0001356300D01*
X0000570100Y0001364300D01*
X0000571200Y0001365200D01*
X0000573100Y0001366700D01*
X0000575600Y0001368300D01*
X0000577700Y0001369600D01*
X0000579000Y0001370300D01*
X0000580100Y0001370800D01*
X0000580600Y0001371100D01*
X0000581400Y0001371500D01*
X0000581900Y0001371800D01*
X0000593200Y0001376800D01*
X0000594200Y0001377300D01*
X0000596000Y0001377900D01*
X0000598100Y0001378700D01*
X0000599900Y0001379199D01*
X0000601000Y0001379500D01*
X0000604500Y0001380300D01*
X0000604800Y0001380400D01*
X0000605400Y0001380500D01*
X0000605700Y0001380600D01*
X0000614000Y0001382300D01*
X0000614500Y0001382900D01*
X0000615100Y0001383600D01*
X0000619300Y0001388500D01*
X0000619900Y0001389300D01*
X0000621000Y0001390500D01*
X0000621900Y0001392700D01*
X0000622800Y0001394700D01*
X0000623300Y0001395900D01*
X0000623900Y0001396999D01*
X0000624100Y0001397500D01*
X0000624600Y0001398300D01*
X0000624800Y0001398800D01*
X0000627800Y0001403900D01*
X0000628300Y0001404900D01*
X0000629300Y0001406400D01*
X0000630600Y0001408300D01*
X0000631799Y0001409799D01*
X0000632500Y0001410600D01*
X0000636200Y0001414900D01*
X0000636800Y0001415599D01*
X0000637799Y0001416700D01*
X0000638400Y0001417400D01*
X0000639300Y0001418200D01*
X0000640400Y0001419200D01*
X0000642100Y0001420800D01*
X0000644399Y0001422500D01*
X0000646300Y0001423900D01*
X0000647500Y0001424600D01*
X0000650900Y0001426700D01*
X0000651700Y0001427199D01*
X0000652899Y0001427900D01*
X0000653399Y0001428100D01*
X0000653499Y0001428399D01*
X0000654200Y0001429800D01*
X0000654600Y0001430600D01*
X0000655100Y0001431700D01*
X0000655799Y0001433000D01*
X0000657100Y0001435200D01*
X0000658799Y0001437600D01*
X0000660300Y0001439599D01*
X0000661300Y0001440800D01*
X0000663500Y0001443200D01*
X0000663900Y0001443700D01*
X0000664800Y0001444600D01*
X0000665299Y0001445100D01*
X0000666100Y0001445999D01*
X0000667400Y0001447100D01*
X0000669500Y0001449000D01*
X0000672200Y0001451000D01*
X0000674499Y0001452500D01*
X0000676000Y0001453400D01*
X0000682500Y0001456900D01*
X0000682800Y0001457100D01*
X0000683299Y0001457400D01*
X0000683599Y0001457599D01*
X0000684700Y0001458100D01*
X0000686399Y0001458900D01*
X0000689299Y0001460100D01*
X0000692799Y0001461200D01*
X0000695799Y0001461900D01*
X0000697600Y0001462300D01*
X0000698799Y0001462500D01*
X0000700200Y0001462700D01*
X0000701000Y0001462700D01*
X0000701399Y0001463200D01*
X0000702200Y0001463999D01*
X0000702700Y0001464500D01*
X0000703500Y0001465400D01*
X0000704699Y0001466400D01*
X0000706700Y0001468200D01*
X0000709200Y0001470100D01*
X0000711300Y0001471500D01*
X0000712700Y0001472400D01*
X0000716100Y0001474300D01*
X0000716599Y0001474600D01*
X0000717400Y0001475000D01*
X0000717900Y0001475300D01*
X0000719000Y0001475799D01*
X0000720099Y0001476399D01*
X0000722000Y0001477200D01*
X0000723099Y0001477700D01*
X0000728700Y0001479800D01*
X0000729500Y0001480100D01*
X0000729500Y0001480100D01*
X0000715200Y0001483000D01*
X0000715200Y0001483000D01*
X0000707499Y0001484500D01*
X0000706400Y0001484800D01*
X0000704499Y0001485200D01*
X0000702300Y0001485900D01*
X0000700500Y0001486600D01*
X0000699400Y0001487000D01*
X0000677900Y0001495900D01*
X0000676900Y0001496300D01*
X0000675100Y0001497200D01*
X0000673100Y0001498300D01*
X0000671399Y0001499300D01*
X0000670400Y0001499900D01*
X0000651100Y0001512799D01*
X0000650199Y0001513500D01*
X0000648600Y0001514600D01*
X0000646799Y0001516100D01*
X0000645400Y0001517400D01*
X0000644500Y0001518200D01*
X0000628100Y0001534600D01*
X0000627300Y0001535500D01*
X0000626000Y0001536900D01*
X0000624500Y0001538700D01*
X0000623400Y0001540300D01*
X0000622700Y0001541200D01*
X0000617100Y0001549600D01*
X0000614300Y0001542200D01*
X0000613900Y0001541300D01*
X0000613300Y0001539900D01*
X0000613000Y0001539000D01*
X0000605700Y0001523500D01*
X0000605300Y0001522700D01*
X0000604600Y0001521300D01*
X0000604200Y0001520500D01*
X0000595700Y0001505600D01*
X0000595300Y0001504800D01*
X0000594400Y0001503500D01*
X0000593900Y0001502700D01*
X0000584300Y0001488500D01*
X0000583800Y0001487800D01*
X0000582900Y0001486500D01*
X0000582300Y0001485800D01*
X0000571600Y0001472400D01*
X0000571000Y0001471700D01*
X0000570000Y0001470500D01*
X0000569400Y0001469799D01*
X0000557700Y0001457400D01*
X0000557000Y0001456700D01*
X0000555900Y0001455600D01*
X0000555200Y0001454900D01*
X0000542600Y0001443500D01*
X0000541900Y0001442800D01*
X0000540700Y0001441800D01*
X0000540000Y0001441300D01*
X0000526400Y0001430800D01*
X0000525700Y0001430200D01*
X0000524400Y0001429300D01*
X0000523599Y0001428800D01*
X0000509300Y0001419500D01*
X0000508499Y0001419000D01*
X0000507200Y0001418200D01*
X0000506399Y0001417700D01*
X0000491400Y0001409500D01*
X0000490600Y0001409100D01*
X0000489200Y0001408400D01*
X0000488300Y0001408000D01*
X0000472700Y0001401000D01*
X0000472600Y0001401000D01*
X0000472600Y0001400900D01*
X0000472500Y0001400900D01*
X0000457900Y0001394500D01*
X0000443800Y0001387900D01*
X0000429900Y0001381000D01*
X0000416000Y0001373799D01*
X0000402500Y0001366300D01*
X0000389000Y0001358500D01*
X0000375700Y0001350400D01*
X0000362600Y0001341999D01*
X0000349700Y0001333300D01*
X0000336999Y0001324399D01*
X0000324500Y0001315200D01*
X0000312200Y0001305700D01*
X0000300100Y0001295900D01*
X0000288200Y0001285900D01*
X0000276500Y0001275500D01*
X0000265100Y0001265000D01*
X0000253900Y0001254200D01*
X0000243000Y0001243200D01*
X0000232300Y0001231900D01*
X0000221800Y0001220400D01*
X0000211600Y0001208700D01*
X0000201700Y0001196700D01*
X0000192000Y0001184500D01*
X0000182600Y0001172200D01*
X0000173500Y0001159600D01*
X0000164600Y0001146800D01*
X0000156000Y0001133800D01*
X0000147700Y0001120600D01*
X0000139800Y0001107300D01*
X0000132100Y0001093800D01*
X0000124700Y0001080100D01*
X0000117600Y0001066300D01*
X0000110800Y0001052300D01*
X0000104300Y0001038200D01*
X0000098100Y0001023900D01*
X0000092299Y0001009500D01*
X0000086800Y0000994900D01*
X0000081500Y0000980300D01*
X0000076700Y0000965600D01*
X0000072100Y0000950700D01*
X0000067900Y0000935700D01*
X0000064000Y0000920700D01*
X0000060400Y0000905500D01*
X0000057100Y0000890300D01*
X0000054200Y0000875100D01*
X0000051700Y0000859700D01*
X0000049400Y0000844300D01*
X0000047500Y0000828900D01*
X0000046000Y0000813400D01*
X0000044799Y0000797900D01*
X0000043900Y0000782400D01*
X0000043400Y0000766900D01*
X0000043200Y0000751300D01*
X0000043299Y0000735800D01*
X0000043800Y0000720199D01*
X0000044700Y0000704699D01*
X0000045800Y0000689199D01*
X0000047400Y0000673700D01*
X0000049200Y0000658300D01*
X0000051400Y0000642900D01*
X0000054000Y0000627600D01*
X0000056800Y0000612300D01*
X0000060000Y0000597100D01*
X0000063600Y0000581900D01*
X0000067400Y0000566900D01*
X0000071700Y0000551900D01*
X0000076200Y0000537000D01*
X0000081000Y0000522200D01*
X0000086199Y0000507600D01*
X0000091700Y0000493000D01*
X0000097500Y0000478600D01*
X0000103700Y0000464400D01*
X0000110100Y0000450200D01*
X0000116900Y0000436200D01*
X0000123900Y0000422300D01*
X0000131300Y0000408700D01*
X0000139000Y0000395100D01*
X0000146900Y0000381800D01*
X0000155200Y0000368600D01*
X0000163700Y0000355600D01*
X0000172600Y0000342800D01*
X0000181700Y0000330200D01*
X0000191000Y0000317800D01*
X0000200700Y0000305600D01*
X0000210600Y0000293600D01*
X0000220800Y0000281900D01*
X0000231200Y0000270300D01*
X0000240100Y0000260900D01*
X0000240500Y0000263400D01*
X0000240800Y0000264900D01*
X0000240400Y0000268600D01*
X0000241000Y0000277400D01*
X0000244800Y0000285300D01*
X0000245200Y0000285800D01*
X0000245400Y0000286400D01*
X0000246800Y0000292400D01*
X0000247100Y0000294300D01*
X0000247200Y0000294600D01*
X0000247300Y0000294900D01*
X0000247300Y0000294900D01*
X0000247300Y0000295100D01*
X0000250000Y0000308100D01*
X0000250100Y0000308900D01*
X0000245100Y0000314400D01*
X0000244300Y0000315200D01*
X0000243200Y0000316600D01*
X0000241800Y0000318400D01*
X0000240800Y0000319900D01*
X0000240200Y0000320800D01*
X0000233900Y0000330900D01*
X0000233900Y0000330900D01*
X0000233800Y0000330999D01*
X0000233800Y0000330999D01*
X0000228600Y0000339500D01*
X0000228500Y0000339500D01*
X0000227400Y0000339800D01*
X0000226100Y0000340199D01*
X0000224100Y0000340800D01*
X0000221700Y0000341799D01*
X0000219700Y0000342600D01*
X0000218500Y0000343199D01*
X0000217400Y0000343700D01*
X0000215800Y0000344599D01*
X0000213200Y0000346299D01*
X0000210200Y0000348400D01*
X0000207900Y0000350400D01*
X0000206500Y0000351700D01*
X0000205700Y0000352499D01*
X0000204400Y0000353899D01*
X0000202400Y0000356300D01*
X0000200200Y0000359300D01*
X0000198600Y0000361900D01*
X0000197700Y0000363500D01*
X0000197100Y0000364599D01*
X0000196300Y0000366300D01*
X0000195200Y0000369199D01*
X0000194000Y0000372700D01*
X0000193300Y0000375700D01*
X0000192899Y0000377500D01*
X0000192800Y0000378400D01*
X0000191399Y0000378199D01*
X0000191399Y0000378199D01*
X0000190500Y0000378000D01*
X0000189300Y0000377800D01*
X0000184900Y0000378900D01*
X0000181300Y0000377700D01*
X0000172700Y0000378300D01*
X0000170899Y0000378700D01*
X0000169600Y0000379100D01*
X0000167400Y0000379699D01*
X0000164899Y0000380700D01*
X0000162800Y0000381600D01*
X0000161600Y0000382200D01*
X0000160500Y0000382699D01*
X0000158900Y0000383600D01*
X0000156200Y0000385300D01*
X0000153200Y0000387400D01*
X0000150900Y0000389500D01*
X0000149500Y0000390700D01*
X0000148700Y0000391600D01*
X0000147400Y0000392900D01*
X0000145400Y0000395300D01*
X0000143200Y0000398300D01*
X0000141600Y0000400899D01*
X0000140700Y0000402500D01*
X0000140100Y0000403600D01*
X0000139700Y0000404600D01*
X0000138900Y0000406300D01*
X0000138100Y0000408400D01*
X0000137500Y0000410100D01*
X0000137200Y0000411200D01*
X0000136300Y0000414300D01*
X0000135900Y0000415700D01*
X0000135400Y0000418000D01*
X0000135100Y0000419400D01*
X0000134100Y0000425300D01*
X0000134100Y0000425300D01*
X0000134100Y0000425400D01*
X0000134100Y0000425400D01*
X0000133900Y0000426700D01*
X0000133800Y0000427200D01*
X0000133700Y0000428200D01*
X0000133600Y0000428800D01*
X0000132800Y0000436100D01*
X0000132800Y0000436300D01*
X0000132800Y0000436800D01*
X0000132800Y0000437000D01*
X0000132700Y0000437100D01*
X0000132700Y0000438300D01*
X0000132600Y0000439800D01*
X0000132700Y0000439800D01*
X0000132700Y0000440000D01*
X0000132600Y0000440000D01*
X0000132600Y0000440300D01*
X0000132600Y0000441500D01*
X0000132800Y0000454700D01*
X0000125500Y0000457700D01*
X0000124600Y0000458100D01*
X0000123300Y0000458700D01*
X0000122500Y0000459100D01*
X0000121400Y0000459600D01*
X0000120300Y0000460200D01*
X0000118600Y0000461200D01*
X0000117600Y0000461800D01*
X0000117400Y0000462000D01*
X0000117300Y0000462000D01*
X0000117200Y0000462100D01*
X0000117100Y0000462100D01*
X0000112300Y0000465300D01*
X0000111300Y0000466000D01*
X0000109700Y0000467200D01*
X0000107800Y0000468700D01*
X0000106300Y0000470100D01*
X0000105400Y0000470900D01*
X0000104600Y0000471800D01*
X0000103300Y0000473100D01*
X0000101300Y0000475500D01*
X0000099099Y0000478500D01*
X0000097500Y0000481100D01*
X0000096600Y0000482700D01*
X0000096000Y0000483800D01*
X0000095200Y0000485500D01*
X0000094100Y0000488400D01*
X0000092900Y0000491900D01*
X0000092200Y0000494900D01*
X0000091800Y0000496700D01*
X0000091600Y0000497900D01*
X0000091400Y0000499800D01*
X0000091200Y0000502900D01*
X0000091200Y0000506600D01*
X0000091400Y0000509600D01*
X0000091600Y0000511499D01*
X0000091800Y0000512700D01*
X0000092200Y0000514499D01*
X0000092900Y0000517499D01*
X0000094100Y0000521000D01*
X0000095200Y0000523900D01*
X0000096000Y0000525600D01*
X0000096600Y0000526700D01*
X0000097500Y0000528300D01*
X0000099099Y0000530900D01*
X0000101300Y0000533900D01*
X0000103300Y0000536300D01*
X0000104600Y0000537700D01*
X0000105400Y0000538500D01*
X0000106000Y0000539100D01*
X0000107100Y0000540100D01*
X0000107700Y0000540700D01*
X0000138200Y0000567000D01*
X0000151300Y0000578400D01*
X0000161400Y0000587200D01*
X0000168699Y0000593900D01*
X0000172499Y0000597600D01*
X0000172800Y0000599900D01*
X0000172800Y0000610100D01*
X0000171800Y0000620700D01*
X0000170300Y0000621000D01*
X0000165300Y0000623000D01*
X0000161500Y0000622000D01*
X0000151600Y0000627300D01*
X0000144900Y0000629900D01*
X0000140400Y0000635500D01*
X0000132200Y0000643200D01*
X0000132000Y0000647199D01*
X0000128599Y0000651300D01*
X0000124300Y0000659199D01*
X0000123300Y0000668099D01*
X0000124400Y0000684400D01*
X0000124400Y0000684600D01*
X0000124500Y0000684900D01*
X0000124500Y0000685100D01*
X0000125300Y0000694300D01*
X0000125300Y0000694600D01*
X0000125300Y0000694600D01*
X0000120900Y0000698200D01*
X0000119900Y0000698999D01*
X0000118300Y0000700500D01*
X0000117300Y0000701399D01*
X0000116400Y0000702300D01*
X0000116200Y0000702500D01*
X0000115800Y0000702900D01*
X0000115500Y0000703200D01*
X0000106800Y0000712500D01*
X0000105900Y0000713500D01*
X0000104500Y0000715200D01*
X0000103600Y0000716200D01*
X0000099300Y0000722100D01*
X0000098200Y0000723700D01*
X0000096400Y0000726500D01*
X0000095400Y0000728300D01*
X0000094899Y0000729400D01*
X0000094500Y0000730200D01*
X0000093799Y0000731600D01*
X0000093399Y0000732500D01*
X0000091300Y0000737500D01*
X0000089800Y0000744800D01*
X0000088000Y0000751100D01*
X0000087400Y0000757400D01*
X0000087299Y0000758500D01*
X0000087200Y0000760200D01*
X0000087200Y0000761300D01*
X0000087200Y0000762599D01*
X0000087200Y0000762700D01*
X0000087200Y0000762800D01*
X0000087200Y0000772900D01*
X0000087299Y0000774800D01*
X0000087500Y0000777800D01*
X0000087699Y0000779700D01*
X0000087900Y0000780900D01*
X0000088300Y0000782700D01*
X0000089000Y0000785700D01*
X0000090200Y0000789200D01*
X0000090800Y0000790700D01*
X0000090600Y0000793000D01*
X0000090600Y0000799100D01*
X0000090900Y0000802800D01*
X0000091000Y0000803800D01*
X0000091400Y0000805700D01*
X0000092100Y0000808700D01*
X0000093300Y0000812200D01*
X0000094500Y0000815100D01*
X0000095200Y0000816800D01*
X0000095800Y0000817800D01*
X0000096700Y0000819500D01*
X0000098300Y0000822100D01*
X0000100100Y0000824500D01*
X0000100599Y0000825400D01*
X0000102800Y0000828400D01*
X0000104800Y0000830700D01*
X0000106000Y0000832099D01*
X0000106400Y0000832400D01*
X0000109200Y0000834800D01*
X0000110800Y0000836000D01*
X0000110900Y0000836200D01*
X0000117800Y0000841000D01*
X0000120600Y0000842200D01*
X0000122000Y0000842800D01*
X0000124400Y0000843800D01*
X0000125900Y0000844300D01*
X0000131700Y0000846100D01*
X0000132200Y0000846200D01*
X0000132900Y0000846400D01*
X0000133400Y0000846500D01*
X0000141500Y0000848700D01*
X0000141800Y0000848800D01*
X0000142200Y0000848900D01*
X0000142500Y0000848900D01*
X0000152000Y0000851200D01*
X0000152200Y0000851300D01*
X0000152500Y0000851300D01*
X0000152800Y0000851400D01*
X0000162800Y0000853600D01*
X0000163100Y0000853700D01*
X0000163400Y0000853700D01*
X0000163700Y0000853800D01*
X0000173500Y0000855800D01*
X0000173800Y0000855800D01*
X0000174300Y0000855900D01*
X0000174599Y0000856000D01*
X0000183300Y0000857500D01*
X0000183500Y0000857500D01*
X0000183799Y0000857600D01*
X0000184000Y0000857600D01*
X0000185200Y0000857800D01*
X0000185299Y0000857800D01*
X0000185500Y0000857800D01*
X0000185600Y0000857900D01*
X0000187900Y0000858200D01*
X0000188500Y0000858200D01*
X0000189000Y0000858400D01*
X0000199800Y0000859700D01*
X0000201400Y0000859600D01*
X0000203100Y0000860000D01*
X0000211200Y0000860300D01*
X0000214500Y0000859800D01*
X0000214700Y0000859900D01*
X0000212300Y0000866400D01*
X0000209700Y0000872500D01*
X0000206400Y0000880300D01*
X0000201500Y0000883600D01*
X0000201300Y0000883800D01*
X0000201000Y0000884000D01*
X0000200800Y0000884100D01*
X0000195600Y0000887900D01*
X0000195000Y0000888200D01*
X0000194200Y0000888900D01*
X0000193700Y0000889300D01*
X0000188800Y0000893100D01*
X0000188200Y0000893700D01*
X0000187200Y0000894500D01*
X0000186600Y0000895100D01*
X0000181800Y0000899500D01*
X0000181400Y0000899900D01*
X0000180699Y0000900400D01*
X0000180400Y0000900800D01*
X0000179500Y0000901700D01*
X0000179400Y0000901800D01*
X0000179100Y0000902000D01*
X0000179000Y0000902200D01*
X0000173700Y0000907700D01*
X0000173300Y0000908100D01*
X0000172700Y0000908700D01*
X0000172399Y0000909100D01*
X0000166200Y0000916100D01*
X0000166000Y0000916300D01*
X0000165599Y0000916700D01*
X0000165400Y0000917000D01*
X0000157899Y0000926000D01*
X0000157800Y0000926100D01*
X0000157600Y0000926300D01*
X0000157500Y0000926500D01*
X0000148200Y0000937900D01*
X0000148200Y0000937900D01*
X0000148100Y0000938000D01*
X0000148100Y0000938100D01*
X0000142500Y0000945000D01*
X0000142500Y0000945000D01*
X0000142400Y0000945100D01*
X0000142400Y0000945100D01*
X0000133600Y0000956100D01*
X0000133600Y0000956100D01*
X0000133500Y0000956200D01*
X0000133500Y0000956200D01*
X0000125700Y0000966100D01*
X0000125700Y0000966100D01*
X0000125599Y0000966200D01*
X0000125599Y0000966300D01*
X0000119000Y0000974700D01*
X0000118900Y0000974700D01*
X0000118900Y0000974800D01*
X0000118800Y0000974900D01*
X0000113800Y0000981500D01*
X0000113600Y0000981600D01*
X0000113400Y0000981900D01*
X0000113300Y0000982000D01*
X0000110200Y0000986200D01*
X0000109700Y0000986900D01*
X0000108900Y0000988100D01*
X0000108400Y0000988800D01*
X0000107400Y0000990300D01*
X0000106900Y0000991300D01*
X0000105900Y0000992900D01*
X0000105400Y0000993900D01*
X0000104800Y0000995000D01*
X0000104000Y0000996700D01*
X0000102900Y0000999600D01*
X0000101700Y0001003100D01*
X0000101000Y0001006100D01*
X0000100599Y0001007900D01*
X0000100400Y0001009100D01*
X0000100200Y0001010999D01*
X0000100000Y0001014100D01*
X0000100000Y0001017800D01*
X0000100200Y0001020799D01*
X0000100400Y0001022700D01*
X0000100599Y0001023900D01*
X0000101000Y0001025700D01*
X0000101700Y0001028700D01*
X0000102900Y0001032200D01*
X0000104000Y0001035099D01*
X0000104800Y0001036800D01*
X0000105400Y0001037900D01*
X0000106300Y0001039500D01*
X0000107900Y0001042100D01*
X0000110100Y0001045099D01*
X0000112100Y0001047500D01*
X0000113300Y0001048800D01*
X0000114200Y0001049700D01*
X0000115500Y0001051000D01*
X0000117900Y0001053000D01*
X0000120900Y0001055200D01*
X0000123600Y0001056800D01*
X0000125200Y0001057700D01*
X0000126300Y0001058300D01*
X0000128000Y0001059000D01*
X0000130800Y0001060200D01*
X0000134300Y0001061300D01*
X0000137300Y0001062100D01*
X0000139200Y0001062400D01*
X0000140400Y0001062600D01*
X0000141800Y0001062800D01*
X0000144300Y0001063000D01*
X0000147200Y0001063100D01*
X0000149700Y0001063100D01*
X0000151200Y0001063000D01*
X0000153200Y0001062800D01*
X0000154000Y0001062700D01*
X0000155200Y0001062500D01*
X0000155700Y0001062500D01*
X0000159700Y0001078300D01*
X0000161500Y0001085800D01*
X0000162400Y0001090600D01*
X0000162400Y0001090700D01*
X0000162400Y0001091600D01*
X0000162499Y0001093000D01*
X0000162700Y0001095300D01*
X0000162800Y0001096300D01*
X0000162900Y0001098000D01*
X0000163100Y0001099000D01*
X0000163299Y0001100200D01*
X0000163600Y0001102000D01*
X0000164400Y0001105000D01*
X0000165499Y0001108500D01*
X0000166700Y0001111400D01*
X0000167500Y0001113100D01*
X0000168000Y0001114100D01*
X0000168900Y0001115800D01*
X0000170500Y0001118400D01*
X0000172700Y0001121400D01*
X0000174699Y0001123800D01*
X0000176000Y0001125100D01*
X0000176899Y0001126000D01*
X0000178200Y0001127300D01*
X0000180600Y0001129300D01*
X0000183600Y0001131400D01*
X0000186200Y0001133000D01*
X0000187800Y0001134000D01*
X0000188900Y0001134500D01*
X0000190599Y0001135300D01*
X0000193400Y0001136500D01*
X0000197000Y0001137600D01*
X0000200000Y0001138300D01*
X0000201800Y0001138700D01*
X0000203000Y0001138900D01*
X0000204500Y0001139100D01*
X0000207100Y0001139300D01*
X0000208600Y0001139400D01*
X0000210600Y0001139500D01*
X0000216400Y0001138500D01*
X0000217400Y0001138800D01*
X0000217800Y0001138700D01*
X0000219600Y0001138300D01*
X0000222600Y0001137600D01*
X0000226100Y0001136500D01*
X0000229000Y0001135300D01*
X0000230000Y0001134800D01*
X0000232500Y0001133800D01*
X0000234200Y0001133000D01*
X0000234800Y0001132700D01*
X0000238000Y0001130800D01*
X0000241000Y0001128600D01*
X0000241000Y0001128500D01*
X0000243000Y0001127200D01*
X0000243000Y0001127300D01*
X0000246400Y0001125000D01*
X0000252199Y0001121300D01*
X0000256900Y0001118500D01*
X0000257100Y0001118300D01*
X0000257400Y0001118100D01*
X0000257600Y0001118000D01*
X0000265100Y0001113200D01*
X0000265200Y0001113400D01*
X0000265300Y0001113500D01*
X0000268800Y0001116800D01*
X0000269500Y0001117500D01*
X0000270700Y0001118500D01*
X0000271400Y0001119200D01*
X0000271400Y0001119200D01*
X0000272400Y0001119900D01*
X0000274100Y0001121200D01*
X0000276200Y0001122600D01*
X0000278100Y0001123600D01*
X0000279200Y0001124200D01*
X0000280300Y0001124800D01*
X0000281100Y0001125200D01*
X0000282500Y0001125800D01*
X0000283300Y0001126200D01*
X0000284800Y0001126800D01*
X0000286200Y0001127300D01*
X0000288400Y0001128100D01*
X0000291100Y0001128900D01*
X0000293300Y0001129400D01*
X0000294700Y0001129600D01*
X0000295900Y0001129800D01*
X0000296100Y0001129800D01*
X0000296100Y0001130000D01*
X0000295900Y0001131200D01*
X0000295900Y0001131300D01*
X0000290600Y0001134000D01*
X0000290500Y0001134000D01*
X0000289400Y0001134600D01*
X0000869600Y0000053400D02*
X0000881800Y0000055600D01*
X0000897100Y0000058700D01*
X0000912300Y0000062000D01*
X0000927400Y0000065800D01*
X0000942400Y0000069800D01*
X0000957300Y0000074200D01*
X0000972100Y0000078900D01*
X0000986800Y0000084000D01*
X0001001400Y0000089300D01*
X0001015900Y0000095000D01*
X0001030200Y0000101000D01*
X0001044500Y0000107300D01*
X0001058500Y0000113900D01*
X0001072400Y0000120800D01*
X0001086200Y0000128099D01*
X0001099800Y0000135600D01*
X0001113200Y0000143400D01*
X0001126500Y0000151500D01*
X0001139600Y0000160000D01*
X0001152500Y0000168699D01*
X0001165100Y0000177600D01*
X0001177700Y0000186900D01*
X0001190000Y0000196400D01*
X0001202000Y0000206200D01*
X0001213900Y0000216300D01*
X0001225500Y0000226600D01*
X0001236900Y0000237200D01*
X0001248100Y0000248000D01*
X0001259000Y0000259000D01*
X0001269700Y0000270300D01*
X0001280100Y0000281900D01*
X0001290300Y0000293600D01*
X0001300199Y0000305600D01*
X0001309800Y0000317800D01*
X0001319199Y0000330200D01*
X0001328300Y0000342800D01*
X0001337199Y0000355600D01*
X0001345700Y0000368600D01*
X0001354000Y0000381800D01*
X0001361900Y0000395100D01*
X0001369600Y0000408700D01*
X0001376900Y0000422300D01*
X0001384000Y0000436200D01*
X0001390799Y0000450200D01*
X0001397199Y0000464300D01*
X0001403300Y0000478600D01*
X0001409199Y0000493100D01*
X0001414700Y0000507600D01*
X0001419900Y0000522200D01*
X0001424700Y0000537000D01*
X0001429200Y0000551900D01*
X0001433399Y0000566900D01*
X0001437300Y0000581900D01*
X0001440900Y0000597100D01*
X0001444100Y0000612300D01*
X0001446900Y0000627600D01*
X0001449500Y0000642900D01*
X0001451700Y0000658300D01*
X0001453500Y0000673700D01*
X0001455100Y0000689199D01*
X0001456200Y0000704699D01*
X0001457100Y0000720199D01*
X0001457599Y0000735800D01*
X0001457700Y0000751300D01*
X0001457500Y0000766900D01*
X0001457000Y0000782400D01*
X0001456100Y0000797900D01*
X0001454900Y0000813400D01*
X0001453400Y0000828900D01*
X0001451500Y0000844300D01*
X0001449200Y0000859700D01*
X0001446700Y0000875100D01*
X0001443800Y0000890300D01*
X0001440500Y0000905500D01*
X0001436900Y0000920700D01*
X0001433000Y0000935700D01*
X0001428800Y0000950700D01*
X0001424200Y0000965500D01*
X0001419300Y0000980300D01*
X0001414100Y0000995000D01*
X0001408600Y0001009500D01*
X0001402799Y0001023900D01*
X0001396600Y0001038200D01*
X0001390100Y0001052300D01*
X0001383300Y0001066300D01*
X0001376200Y0001080100D01*
X0001368800Y0001093800D01*
X0001361100Y0001107300D01*
X0001353100Y0001120700D01*
X0001344900Y0001133800D01*
X0001336300Y0001146800D01*
X0001327400Y0001159600D01*
X0001318300Y0001172100D01*
X0001308900Y0001184600D01*
X0001299200Y0001196700D01*
X0001289300Y0001208700D01*
X0001279100Y0001220400D01*
X0001268600Y0001231900D01*
X0001257900Y0001243200D01*
X0001247000Y0001254200D01*
X0001235800Y0001265000D01*
X0001224400Y0001275599D01*
X0001212700Y0001285800D01*
X0001200800Y0001295900D01*
X0001188700Y0001305700D01*
X0001176400Y0001315100D01*
X0001163900Y0001324399D01*
X0001151200Y0001333300D01*
X0001138300Y0001341999D01*
X0001125200Y0001350400D01*
X0001111900Y0001358500D01*
X0001098500Y0001366300D01*
X0001084900Y0001373799D01*
X0001071000Y0001381000D01*
X0001057100Y0001387900D01*
X0001042999Y0001394500D01*
X0001028400Y0001400900D01*
X0001028400Y0001400900D01*
X0001028200Y0001401000D01*
X0001012600Y0001408000D01*
X0001011700Y0001408400D01*
X0001010300Y0001409100D01*
X0001009500Y0001409500D01*
X0000994500Y0001417700D01*
X0000993700Y0001418200D01*
X0000992400Y0001419000D01*
X0000991600Y0001419500D01*
X0000977300Y0001428800D01*
X0000976500Y0001429300D01*
X0000975200Y0001430200D01*
X0000974500Y0001430800D01*
X0000960900Y0001441200D01*
X0000960200Y0001441800D01*
X0000959000Y0001442800D01*
X0000958300Y0001443500D01*
X0000945700Y0001454900D01*
X0000945000Y0001455600D01*
X0000943900Y0001456700D01*
X0000943200Y0001457400D01*
X0000931500Y0001469799D01*
X0000930900Y0001470500D01*
X0000929900Y0001471700D01*
X0000929300Y0001472400D01*
X0000918600Y0001485800D01*
X0000918000Y0001486500D01*
X0000917100Y0001487800D01*
X0000916600Y0001488500D01*
X0000907000Y0001502700D01*
X0000906500Y0001503500D01*
X0000905600Y0001504800D01*
X0000905200Y0001505600D01*
X0000896700Y0001520500D01*
X0000896300Y0001521300D01*
X0000895600Y0001522700D01*
X0000895200Y0001523500D01*
X0000887900Y0001539000D01*
X0000887600Y0001539900D01*
X0000887000Y0001541300D01*
X0000886600Y0001542200D01*
X0000883800Y0001549600D01*
X0000878200Y0001541200D01*
X0000877500Y0001540300D01*
X0000876400Y0001538700D01*
X0000874900Y0001536900D01*
X0000873600Y0001535500D01*
X0000872800Y0001534600D01*
X0000856400Y0001518200D01*
X0000855500Y0001517400D01*
X0000854100Y0001516100D01*
X0000852300Y0001514600D01*
X0000850700Y0001513500D01*
X0000849800Y0001512799D01*
X0000830500Y0001499900D01*
X0000829500Y0001499300D01*
X0000827800Y0001498300D01*
X0000825800Y0001497200D01*
X0000824000Y0001496300D01*
X0000822999Y0001495900D01*
X0000801500Y0001487000D01*
X0000800400Y0001486600D01*
X0000798600Y0001485900D01*
X0000796400Y0001485200D01*
X0000794500Y0001484800D01*
X0000793400Y0001484500D01*
X0000791800Y0001484200D01*
X0000793400Y0001484300D01*
X0000794900Y0001484400D01*
X0000805300Y0001484700D01*
X0000813000Y0001483500D01*
X0000820600Y0001482599D01*
X0000830000Y0001479600D01*
X0000831800Y0001479000D01*
X0000834900Y0001477700D01*
X0000836700Y0001476900D01*
X0000837800Y0001476300D01*
X0000838900Y0001475700D01*
X0000840700Y0001474700D01*
X0000841800Y0001474000D01*
X0000845400Y0001471700D01*
X0000846300Y0001471100D01*
X0000847700Y0001469999D01*
X0000849400Y0001468700D01*
X0000850700Y0001467600D01*
X0000851500Y0001466900D01*
X0000855500Y0001463100D01*
X0000855800Y0001462900D01*
X0000856200Y0001462400D01*
X0000856400Y0001462200D01*
X0000857300Y0001461300D01*
X0000858600Y0001460000D01*
X0000860600Y0001457599D01*
X0000862700Y0001454600D01*
X0000864300Y0001451999D01*
X0000865200Y0001450400D01*
X0000865800Y0001449300D01*
X0000866600Y0001447600D01*
X0000867800Y0001444700D01*
X0000868600Y0001442300D01*
X0000868800Y0001442300D01*
X0000868900Y0001442200D01*
X0000870500Y0001441300D01*
X0000873100Y0001439700D01*
X0000876000Y0001437600D01*
X0000878400Y0001435600D01*
X0000879700Y0001434399D01*
X0000880600Y0001433500D01*
X0000881800Y0001432100D01*
X0000883800Y0001429800D01*
X0000886000Y0001426800D01*
X0000887600Y0001424100D01*
X0000888500Y0001422500D01*
X0000889000Y0001422199D01*
X0000889300Y0001420900D01*
X0000889900Y0001419700D01*
X0000890600Y0001417900D01*
X0000890200Y0001417700D01*
X0000890800Y0001415300D01*
X0000894400Y0001407900D01*
X0000893500Y0001405100D01*
X0000893600Y0001404700D01*
X0000893800Y0001403500D01*
X0000894000Y0001401700D01*
X0000894300Y0001398600D01*
X0000894300Y0001394800D01*
X0000894000Y0001391700D01*
X0000893800Y0001389900D01*
X0000893800Y0001389800D01*
X0000891800Y0001386500D01*
X0000891000Y0001384200D01*
X0000890700Y0001383500D01*
X0000890400Y0001380500D01*
X0000888100Y0001372399D01*
X0000883000Y0001365700D01*
X0000882100Y0001364800D01*
X0000880100Y0001361900D01*
X0000876600Y0001356000D01*
X0000875600Y0001354199D01*
X0000875200Y0001353500D01*
X0000874500Y0001352300D01*
X0000874100Y0001351600D01*
X0000866200Y0001339700D01*
X0000865600Y0001338700D01*
X0000864400Y0001336999D01*
X0000862800Y0001335100D01*
X0000861500Y0001333600D01*
X0000860600Y0001332800D01*
X0000859700Y0001331900D01*
X0000859600Y0001331800D01*
X0000859500Y0001331600D01*
X0000859400Y0001331500D01*
X0000851200Y0001323600D01*
X0000849900Y0001322400D01*
X0000847600Y0001320500D01*
X0000844800Y0001318399D01*
X0000842200Y0001316900D01*
X0000840700Y0001316000D01*
X0000839600Y0001315400D01*
X0000839200Y0001315300D01*
X0000838600Y0001315000D01*
X0000838300Y0001314800D01*
X0000837100Y0001314300D01*
X0000837400Y0001313700D01*
X0000838000Y0001312300D01*
X0000838900Y0001309900D01*
X0000839400Y0001308500D01*
X0000844600Y0001291500D01*
X0000844900Y0001290600D01*
X0000845300Y0001289100D01*
X0000845500Y0001288199D01*
X0000845600Y0001287700D01*
X0000845700Y0001287300D01*
X0000845800Y0001286800D01*
X0000845900Y0001286400D01*
X0000847400Y0001278800D01*
X0000847500Y0001278400D01*
X0000847600Y0001277800D01*
X0000847600Y0001277400D01*
X0000847800Y0001276199D01*
X0000847900Y0001275599D01*
X0000848000Y0001274800D01*
X0000848100Y0001274200D01*
X0000848900Y0001267100D01*
X0000849000Y0001266000D01*
X0000849100Y0001264300D01*
X0000849200Y0001263300D01*
X0000849400Y0001255300D01*
X0000849400Y0001254600D01*
X0000849400Y0001253300D01*
X0000849300Y0001252600D01*
X0000849000Y0001242600D01*
X0000849000Y0001242300D01*
X0000848900Y0001241800D01*
X0000848900Y0001241500D01*
X0000848500Y0001234200D01*
X0000847200Y0001210100D01*
X0000846800Y0001187500D01*
X0000847300Y0001166400D01*
X0000848500Y0001147400D01*
X0000850300Y0001131700D01*
X0000852300Y0001120300D01*
X0000854500Y0001112700D01*
X0000858000Y0001106400D01*
X0000858400Y0001105900D01*
X0000858500Y0001105900D01*
X0000860500Y0001106000D01*
X0000863300Y0001107400D01*
X0000864800Y0001108100D01*
X0000867400Y0001109100D01*
X0000868900Y0001109700D01*
X0000871600Y0001110600D01*
X0000873400Y0001111100D01*
X0000876400Y0001111800D01*
X0000878200Y0001112100D01*
X0000879400Y0001112300D01*
X0000881200Y0001112600D01*
X0000881800Y0001112600D01*
X0000881700Y0001112800D01*
X0000881500Y0001114700D01*
X0000881300Y0001117700D01*
X0000881300Y0001121400D01*
X0000881500Y0001124500D01*
X0000881700Y0001126300D01*
X0000881900Y0001127500D01*
X0000882300Y0001129400D01*
X0000883000Y0001132400D01*
X0000884200Y0001135900D01*
X0000885300Y0001138800D01*
X0000886100Y0001140500D01*
X0000886700Y0001141600D01*
X0000887600Y0001143200D01*
X0000889200Y0001145800D01*
X0000891400Y0001148800D01*
X0000893400Y0001151100D01*
X0000894600Y0001152500D01*
X0000895500Y0001153400D01*
X0000895700Y0001153500D01*
X0000895300Y0001154500D01*
X0000894800Y0001155900D01*
X0000892200Y0001164400D01*
X0000891700Y0001166100D01*
X0000891100Y0001168800D01*
X0000890700Y0001170500D01*
X0000889400Y0001178800D01*
X0000889500Y0001181800D01*
X0000888700Y0001185200D01*
X0000888400Y0001192900D01*
X0000888400Y0001194000D01*
X0000888400Y0001195800D01*
X0000888500Y0001196800D01*
X0000889200Y0001210400D01*
X0000889300Y0001211700D01*
X0000889500Y0001213700D01*
X0000889700Y0001215000D01*
X0000889800Y0001216200D01*
X0000889900Y0001216700D01*
X0000890100Y0001217500D01*
X0000890200Y0001217900D01*
X0000892300Y0001228700D01*
X0000892600Y0001230000D01*
X0000893200Y0001232100D01*
X0000894000Y0001234600D01*
X0000894700Y0001236600D01*
X0000895200Y0001237800D01*
X0000899200Y0001246700D01*
X0000899500Y0001247300D01*
X0000899900Y0001248200D01*
X0000900200Y0001248700D01*
X0000900700Y0001249800D01*
X0000901300Y0001250800D01*
X0000902100Y0001252300D01*
X0000903200Y0001254100D01*
X0000904200Y0001255500D01*
X0000904900Y0001256400D01*
X0000911000Y0001264399D01*
X0000911900Y0001265500D01*
X0000913300Y0001267200D01*
X0000914300Y0001268300D01*
X0000916500Y0001270600D01*
X0000916700Y0001270800D01*
X0000916900Y0001271000D01*
X0000917100Y0001271200D01*
X0000917900Y0001272000D01*
X0000918700Y0001272700D01*
X0000919900Y0001273900D01*
X0000920700Y0001274500D01*
X0000931500Y0001283600D01*
X0000932900Y0001284700D01*
X0000935200Y0001286400D01*
X0000936700Y0001287399D01*
X0000948900Y0001294900D01*
X0000949700Y0001295400D01*
X0000951100Y0001296100D01*
X0000951900Y0001296600D01*
X0000953000Y0001297100D01*
X0000953600Y0001297400D01*
X0000954600Y0001297900D01*
X0000955200Y0001298200D01*
X0000968000Y0001303800D01*
X0000969600Y0001304500D01*
X0000972300Y0001305400D01*
X0000973900Y0001305900D01*
X0000986600Y0001309500D01*
X0000987900Y0001309800D01*
X0000990100Y0001310300D01*
X0000991400Y0001310500D01*
X0000992600Y0001310700D01*
X0000993400Y0001310800D01*
X0000994600Y0001311000D01*
X0000995400Y0001311100D01*
X0001006999Y0001312100D01*
X0001013700Y0001311500D01*
X0001018300Y0001311500D01*
X0001021200Y0001312900D01*
X0001022300Y0001313400D01*
X0001024100Y0001314100D01*
X0001025300Y0001314600D01*
X0001026700Y0001315100D01*
X0001027300Y0001315300D01*
X0001028300Y0001315600D01*
X0001028899Y0001315800D01*
X0001032200Y0001316800D01*
X0001033700Y0001317200D01*
X0001036200Y0001317700D01*
X0001037700Y0001317999D01*
X0001038899Y0001318199D01*
X0001039099Y0001318199D01*
X0001039400Y0001318300D01*
X0001039600Y0001318300D01*
X0001042600Y0001318799D01*
X0001046999Y0001318500D01*
X0001051600Y0001319100D01*
X0001055200Y0001318900D01*
X0001056300Y0001318799D01*
X0001058100Y0001318599D01*
X0001059100Y0001318399D01*
X0001060400Y0001318199D01*
X0001061100Y0001318100D01*
X0001062400Y0001317900D01*
X0001063100Y0001317700D01*
X0001067800Y0001316600D01*
X0001068800Y0001316400D01*
X0001070300Y0001316000D01*
X0001071300Y0001315700D01*
X0001077700Y0001313700D01*
X0001078100Y0001313500D01*
X0001078800Y0001313300D01*
X0001079200Y0001313200D01*
X0001088100Y0001310000D01*
X0001088200Y0001310000D01*
X0001088500Y0001309900D01*
X0001088600Y0001309800D01*
X0001100100Y0001305599D01*
X0001101200Y0001305200D01*
X0001104100Y0001305500D01*
X0001111600Y0001312399D01*
X0001112900Y0001313500D01*
X0001115000Y0001315200D01*
X0001117600Y0001317000D01*
X0001119900Y0001318399D01*
X0001121300Y0001319199D01*
X0001122400Y0001319800D01*
X0001124100Y0001320500D01*
X0001127000Y0001321700D01*
X0001130500Y0001322900D01*
X0001133500Y0001323600D01*
X0001135300Y0001323900D01*
X0001136500Y0001324100D01*
X0001138400Y0001324300D01*
X0001141400Y0001324599D01*
X0001145200Y0001324599D01*
X0001148200Y0001324300D01*
X0001150100Y0001324100D01*
X0001151300Y0001323900D01*
X0001153100Y0001323600D01*
X0001156100Y0001322900D01*
X0001159600Y0001321700D01*
X0001162500Y0001320500D01*
X0001164200Y0001319800D01*
X0001165300Y0001319199D01*
X0001166900Y0001318300D01*
X0001169500Y0001316700D01*
X0001172500Y0001314500D01*
X0001174900Y0001312500D01*
X0001176200Y0001311200D01*
X0001177100Y0001310400D01*
X0001178400Y0001309000D01*
X0001180400Y0001306700D01*
X0001182600Y0001303600D01*
X0001184200Y0001301000D01*
X0001185100Y0001299400D01*
X0001185600Y0001298300D01*
X0001186100Y0001297200D01*
X0001186900Y0001295400D01*
X0001187800Y0001293200D01*
X0001188400Y0001291400D01*
X0001188800Y0001290300D01*
X0001190100Y0001285300D01*
X0001190500Y0001284000D01*
X0001190900Y0001281900D01*
X0001191200Y0001280600D01*
X0001191900Y0001276100D01*
X0001191900Y0001276100D01*
X0001191900Y0001275999D01*
X0001192100Y0001274800D01*
X0001192200Y0001273900D01*
X0001192400Y0001272400D01*
X0001192500Y0001271500D01*
X0001193100Y0001264600D01*
X0001193100Y0001264100D01*
X0001193100Y0001263199D01*
X0001193200Y0001262700D01*
X0001193500Y0001254700D01*
X0001193500Y0001254400D01*
X0001193500Y0001254000D01*
X0001193500Y0001253700D01*
X0001193500Y0001253500D01*
X0001193500Y0001253100D01*
X0001193500Y0001252400D01*
X0001193500Y0001252000D01*
X0001193300Y0001242900D01*
X0001193200Y0001241300D01*
X0001192900Y0001238700D01*
X0001192800Y0001237100D01*
X0001192600Y0001235900D01*
X0001192500Y0001235800D01*
X0001192500Y0001235700D01*
X0001192500Y0001235600D01*
X0001191400Y0001228700D01*
X0001191200Y0001227600D01*
X0001190700Y0001225700D01*
X0001190100Y0001223500D01*
X0001189500Y0001221600D01*
X0001189200Y0001220500D01*
X0001186800Y0001214200D01*
X0001186300Y0001213100D01*
X0001185600Y0001211400D01*
X0001185100Y0001210400D01*
X0001184200Y0001208500D01*
X0001184100Y0001208300D01*
X0001184000Y0001208000D01*
X0001183900Y0001207800D01*
X0001183300Y0001206700D01*
X0001182600Y0001205500D01*
X0001181400Y0001203400D01*
X0001180600Y0001202200D01*
X0001174600Y0001193200D01*
X0001173900Y0001192300D01*
X0001172800Y0001190800D01*
X0001171400Y0001189100D01*
X0001170100Y0001187700D01*
X0001169300Y0001186800D01*
X0001168400Y0001186000D01*
X0001168200Y0001185800D01*
X0001167900Y0001185400D01*
X0001167700Y0001185200D01*
X0001159800Y0001177700D01*
X0001158800Y0001176900D01*
X0001157200Y0001175500D01*
X0001156500Y0001175000D01*
X0001157100Y0001175100D01*
X0001158300Y0001175300D01*
X0001160100Y0001175500D01*
X0001163200Y0001175700D01*
X0001166900Y0001175700D01*
X0001170000Y0001175500D01*
X0001171800Y0001175300D01*
X0001173000Y0001175100D01*
X0001174800Y0001174700D01*
X0001177900Y0001174000D01*
X0001181400Y0001172800D01*
X0001184200Y0001171700D01*
X0001185900Y0001170900D01*
X0001187000Y0001170300D01*
X0001188600Y0001169400D01*
X0001191300Y0001167800D01*
X0001194300Y0001165600D01*
X0001196600Y0001163600D01*
X0001198000Y0001162400D01*
X0001198100Y0001162200D01*
X0001199400Y0001164100D01*
X0001200100Y0001165000D01*
X0001201200Y0001166500D01*
X0001202600Y0001168200D01*
X0001203900Y0001169600D01*
X0001204600Y0001170400D01*
X0001205500Y0001171300D01*
X0001206900Y0001172500D01*
X0001209200Y0001174600D01*
X0001212200Y0001176700D01*
X0001214900Y0001178300D01*
X0001216500Y0001179300D01*
X0001217600Y0001179800D01*
X0001219300Y0001180600D01*
X0001222100Y0001181800D01*
X0001225600Y0001182900D01*
X0001228600Y0001183600D01*
X0001230500Y0001184000D01*
X0001231700Y0001184200D01*
X0001233500Y0001184400D01*
X0001236600Y0001184700D01*
X0001240300Y0001184700D01*
X0001243400Y0001184400D01*
X0001245200Y0001184200D01*
X0001246400Y0001184000D01*
X0001248300Y0001183600D01*
X0001251300Y0001182900D01*
X0001254800Y0001181800D01*
X0001257600Y0001180600D01*
X0001259300Y0001179800D01*
X0001260400Y0001179300D01*
X0001262000Y0001178300D01*
X0001264700Y0001176700D01*
X0001267700Y0001174600D01*
X0001269999Y0001172500D01*
X0001271400Y0001171300D01*
X0001272300Y0001170400D01*
X0001273500Y0001169100D01*
X0001275500Y0001166700D01*
X0001277700Y0001163700D01*
X0001279300Y0001161100D01*
X0001280200Y0001159400D01*
X0001280800Y0001158300D01*
X0001281599Y0001156700D01*
X0001282700Y0001153800D01*
X0001283900Y0001150300D01*
X0001284600Y0001147300D01*
X0001285000Y0001145500D01*
X0001285200Y0001144300D01*
X0001285400Y0001142400D01*
X0001285600Y0001139300D01*
X0001285700Y0001137500D01*
X0001285700Y0001131600D01*
X0001285700Y0001131200D01*
X0001286500Y0001128000D01*
X0001287999Y0001123900D01*
X0001287999Y0001123800D01*
X0001288100Y0001123600D01*
X0001288100Y0001123500D01*
X0001291100Y0001114800D01*
X0001291400Y0001113900D01*
X0001291600Y0001113000D01*
X0001297200Y0001114000D01*
X0001297500Y0001114100D01*
X0001298200Y0001114200D01*
X0001298500Y0001114300D01*
X0001299700Y0001114500D01*
X0001299999Y0001114500D01*
X0001300500Y0001114600D01*
X0001300799Y0001114600D01*
X0001306399Y0001115400D01*
X0001308400Y0001115300D01*
X0001310500Y0001115700D01*
X0001311300Y0001115800D01*
X0001317700Y0001114800D01*
X0001319199Y0001115200D01*
X0001320100Y0001115000D01*
X0001322000Y0001114700D01*
X0001324900Y0001114000D01*
X0001328500Y0001112800D01*
X0001331300Y0001111600D01*
X0001333000Y0001110900D01*
X0001334100Y0001110300D01*
X0001335700Y0001109400D01*
X0001338400Y0001107800D01*
X0001341400Y0001105600D01*
X0001343700Y0001103600D01*
X0001345100Y0001102300D01*
X0001346000Y0001101400D01*
X0001347200Y0001100100D01*
X0001349199Y0001097700D01*
X0001351400Y0001094700D01*
X0001353000Y0001092100D01*
X0001353900Y0001090500D01*
X0001354500Y0001089400D01*
X0001355199Y0001087700D01*
X0001356400Y0001084900D01*
X0001357600Y0001081300D01*
X0001357600Y0001081300D01*
X0001357900Y0001080200D01*
X0001358700Y0001077200D01*
X0001359000Y0001075300D01*
X0001359200Y0001074100D01*
X0001359400Y0001072300D01*
X0001359700Y0001069200D01*
X0001359700Y0001065500D01*
X0001359400Y0001062400D01*
X0001359200Y0001060600D01*
X0001359100Y0001059800D01*
X0001358700Y0001058000D01*
X0001358000Y0001055000D01*
X0001357400Y0001053000D01*
X0001357200Y0001051900D01*
X0001356700Y0001050600D01*
X0001356200Y0001049500D01*
X0001355399Y0001047600D01*
X0001354900Y0001046500D01*
X0001354300Y0001045400D01*
X0001353600Y0001044000D01*
X0001352200Y0001041800D01*
X0001350500Y0001039299D01*
X0001348900Y0001037300D01*
X0001347999Y0001036100D01*
X0001345100Y0001032899D01*
X0001344600Y0001032400D01*
X0001343900Y0001031700D01*
X0001343500Y0001031199D01*
X0001342599Y0001030300D01*
X0001342500Y0001030200D01*
X0001342199Y0001030000D01*
X0001342100Y0001029900D01*
X0001337700Y0001025600D01*
X0001332800Y0001020300D01*
X0001327300Y0001012200D01*
X0001323400Y0001005600D01*
X0001318399Y0000996600D01*
X0001318300Y0000996300D01*
X0001317999Y0000995800D01*
X0001317799Y0000995500D01*
X0001313200Y0000987800D01*
X0001312900Y0000987300D01*
X0001312300Y0000986500D01*
X0001311999Y0000986000D01*
X0001307400Y0000979000D01*
X0001306999Y0000978500D01*
X0001306399Y0000977600D01*
X0001305999Y0000977000D01*
X0001300799Y0000970100D01*
X0001300399Y0000969600D01*
X0001299799Y0000968900D01*
X0001299500Y0000968500D01*
X0001293100Y0000960800D01*
X0001292900Y0000960600D01*
X0001292500Y0000960100D01*
X0001292300Y0000959800D01*
X0001284300Y0000950700D01*
X0001284100Y0000950600D01*
X0001283900Y0000950400D01*
X0001283800Y0000950300D01*
X0001274800Y0000940400D01*
X0001265900Y0000930200D01*
X0001260600Y0000923400D01*
X0001258400Y0000919700D01*
X0001257200Y0000916900D01*
X0001255800Y0000911600D01*
X0001254300Y0000903000D01*
X0001254200Y0000902100D01*
X0001254200Y0000901800D01*
X0001254100Y0000901300D01*
X0001254100Y0000901100D01*
X0001253900Y0000899800D01*
X0001253800Y0000899400D01*
X0001253800Y0000899100D01*
X0001258200Y0000900400D01*
X0001259300Y0000900700D01*
X0001261000Y0000901000D01*
X0001262000Y0000901300D01*
X0001275300Y0000903700D01*
X0001275599Y0000903800D01*
X0001276100Y0000903800D01*
X0001276399Y0000903900D01*
X0001277600Y0000904100D01*
X0001278800Y0000904300D01*
X0001280900Y0000904500D01*
X0001282199Y0000904600D01*
X0001294700Y0000905200D01*
X0001297700Y0000904800D01*
X0001300799Y0000905100D01*
X0001313600Y0000903900D01*
X0001314400Y0000903800D01*
X0001315700Y0000903700D01*
X0001316500Y0000903600D01*
X0001317700Y0000903400D01*
X0001318199Y0000903300D01*
X0001319100Y0000903100D01*
X0001319600Y0000903000D01*
X0001334100Y0000900100D01*
X0001334800Y0000899900D01*
X0001335800Y0000899700D01*
X0001336500Y0000899500D01*
X0001346400Y0000896900D01*
X0001354399Y0000893000D01*
X0001355500Y0000891900D01*
X0001356000Y0000891700D01*
X0001357600Y0000890800D01*
X0001360199Y0000889100D01*
X0001363200Y0000887000D01*
X0001365600Y0000885000D01*
X0001366900Y0000883700D01*
X0001367799Y0000882800D01*
X0001369100Y0000881500D01*
X0001371100Y0000879100D01*
X0001373199Y0000876100D01*
X0001374900Y0000873500D01*
X0001375800Y0000871900D01*
X0001376300Y0000870800D01*
X0001376800Y0000869800D01*
X0001377700Y0000868800D01*
X0001379900Y0000865800D01*
X0001381500Y0000863100D01*
X0001382400Y0000861500D01*
X0001382900Y0000860400D01*
X0001383700Y0000858700D01*
X0001384900Y0000855900D01*
X0001385999Y0000852400D01*
X0001386800Y0000849400D01*
X0001387100Y0000847500D01*
X0001387300Y0000846300D01*
X0001387500Y0000845300D01*
X0001387700Y0000843500D01*
X0001387800Y0000841300D01*
X0001387800Y0000839500D01*
X0001387800Y0000838400D01*
X0001387300Y0000816100D01*
X0001387300Y0000816100D01*
X0001387200Y0000815900D01*
X0001387000Y0000806100D01*
X0001386900Y0000805700D01*
X0001386900Y0000805000D01*
X0001386900Y0000804600D01*
X0001386500Y0000797900D01*
X0001386400Y0000796800D01*
X0001386200Y0000795000D01*
X0001385999Y0000793900D01*
X0001385799Y0000792699D01*
X0001385799Y0000792599D01*
X0001385799Y0000792300D01*
X0001385700Y0000792200D01*
X0001384999Y0000787700D01*
X0001384700Y0000786400D01*
X0001384200Y0000784300D01*
X0001383500Y0000781700D01*
X0001382800Y0000779700D01*
X0001382300Y0000778400D01*
X0001381000Y0000775300D01*
X0001380600Y0000774399D01*
X0001379999Y0000773000D01*
X0001379599Y0000772200D01*
X0001378999Y0000771100D01*
X0001378500Y0000770200D01*
X0001377700Y0000768700D01*
X0001376600Y0000767000D01*
X0001375600Y0000765599D01*
X0001375000Y0000764800D01*
X0001372999Y0000762000D01*
X0001372200Y0000761100D01*
X0001370900Y0000759499D01*
X0001370100Y0000758600D01*
X0001368400Y0000756700D01*
X0001368100Y0000756399D01*
X0001367599Y0000755900D01*
X0001367300Y0000755600D01*
X0001366399Y0000754700D01*
X0001366000Y0000754400D01*
X0001365400Y0000753800D01*
X0001365100Y0000753399D01*
X0001359000Y0000747900D01*
X0001358100Y0000747099D01*
X0001356600Y0000745800D01*
X0001356100Y0000745400D01*
X0001357100Y0000736400D01*
X0001357200Y0000735199D01*
X0001357300Y0000733100D01*
X0001357400Y0000730700D01*
X0001357300Y0000728600D01*
X0001357200Y0000727400D01*
X0001356700Y0000721600D01*
X0001356600Y0000720900D01*
X0001356400Y0000719599D01*
X0001356300Y0000718800D01*
X0001356100Y0000717600D01*
X0001355900Y0000716400D01*
X0001355399Y0000714300D01*
X0001355100Y0000713100D01*
X0001353800Y0000708300D01*
X0001353500Y0000707100D01*
X0001352900Y0000705200D01*
X0001352000Y0000702900D01*
X0001351200Y0000701000D01*
X0001350600Y0000699900D01*
X0001350100Y0000698799D01*
X0001349199Y0000697200D01*
X0001347500Y0000694600D01*
X0001345400Y0000691600D01*
X0001343399Y0000689199D01*
X0001342100Y0000687900D01*
X0001341200Y0000687000D01*
X0001340700Y0000686499D01*
X0001339800Y0000685600D01*
X0001339200Y0000685100D01*
X0001337399Y0000683499D01*
X0001333800Y0000681400D01*
X0001332700Y0000680599D01*
X0001329500Y0000678600D01*
X0001329200Y0000678500D01*
X0001327500Y0000677699D01*
X0001324599Y0000676500D01*
X0001322800Y0000675900D01*
X0001321200Y0000675200D01*
X0001317599Y0000674099D01*
X0001314600Y0000673400D01*
X0001312799Y0000673000D01*
X0001311700Y0000672800D01*
X0001310400Y0000673200D01*
X0001310900Y0000669700D01*
X0001312300Y0000661000D01*
X0001312599Y0000659599D01*
X0001315600Y0000643500D01*
X0001318399Y0000632199D01*
X0001320600Y0000625400D01*
X0001321000Y0000624600D01*
X0001323600Y0000622500D01*
X0001331500Y0000617400D01*
X0001343700Y0000610400D01*
X0001352900Y0000605400D01*
X0001373300Y0000594500D01*
X0001374800Y0000593600D01*
X0001377300Y0000592100D01*
X0001380100Y0000590000D01*
X0001382400Y0000588100D01*
X0001383600Y0000586900D01*
X0001384500Y0000586000D01*
X0001385799Y0000584700D01*
X0001387800Y0000582300D01*
X0001390000Y0000579300D01*
X0001391599Y0000576700D01*
X0001392500Y0000575000D01*
X0001393000Y0000573900D01*
X0001393800Y0000572300D01*
X0001395000Y0000569400D01*
X0001396100Y0000565900D01*
X0001396900Y0000562900D01*
X0001397199Y0000561100D01*
X0001397399Y0000559900D01*
X0001397599Y0000558000D01*
X0001397900Y0000554900D01*
X0001397900Y0000551200D01*
X0001397599Y0000548100D01*
X0001397399Y0000546300D01*
X0001397199Y0000545100D01*
X0001396900Y0000543300D01*
X0001396100Y0000540300D01*
X0001395000Y0000536800D01*
X0001393800Y0000533900D01*
X0001393000Y0000532200D01*
X0001392500Y0000531100D01*
X0001391599Y0000529500D01*
X0001390000Y0000526900D01*
X0001387800Y0000523900D01*
X0001385799Y0000521499D01*
X0001384500Y0000520100D01*
X0001383600Y0000519300D01*
X0001382300Y0000518000D01*
X0001379900Y0000516000D01*
X0001376900Y0000513800D01*
X0001374300Y0000512200D01*
X0001372700Y0000511300D01*
X0001371600Y0000510800D01*
X0001370600Y0000510300D01*
X0001368900Y0000509499D01*
X0001367900Y0000509100D01*
X0001360500Y0000506100D01*
X0001360500Y0000506000D01*
X0001360500Y0000505700D01*
X0001360500Y0000505200D01*
X0001360500Y0000504900D01*
X0001360500Y0000502200D01*
X0001360500Y0000502000D01*
X0001360500Y0000501600D01*
X0001360500Y0000501399D01*
X0001360199Y0000492400D01*
X0001360199Y0000492000D01*
X0001360100Y0000491400D01*
X0001360100Y0000491000D01*
X0001359600Y0000482600D01*
X0001359600Y0000482100D01*
X0001359500Y0000481200D01*
X0001359500Y0000480800D01*
X0001358800Y0000474400D01*
X0001358600Y0000473700D01*
X0001358500Y0000472700D01*
X0001358300Y0000470900D01*
X0001358300Y0000470800D01*
X0001358300Y0000470700D01*
X0001358300Y0000470700D01*
X0001358100Y0000469500D01*
X0001358000Y0000469200D01*
X0001358000Y0000468800D01*
X0001357900Y0000468500D01*
X0001356500Y0000461000D01*
X0001353100Y0000452500D01*
X0001346800Y0000446000D01*
X0001342300Y0000442900D01*
X0001341000Y0000441800D01*
X0001340900Y0000441700D01*
X0001339000Y0000436900D01*
X0001328800Y0000432400D01*
X0001323700Y0000429100D01*
X0001317500Y0000428800D01*
X0001311000Y0000427300D01*
X0001310900Y0000426700D01*
X0001309700Y0000423200D01*
X0001308500Y0000420400D01*
X0001307800Y0000418700D01*
X0001307200Y0000417600D01*
X0001306300Y0000416000D01*
X0001304700Y0000413300D01*
X0001302500Y0000410300D01*
X0001300500Y0000408000D01*
X0001299200Y0000406600D01*
X0001298400Y0000405700D01*
X0001297400Y0000404900D01*
X0001295800Y0000403400D01*
X0001293900Y0000401800D01*
X0001292100Y0000400600D01*
X0001291100Y0000399900D01*
X0001283200Y0000394899D01*
X0001279600Y0000391799D01*
X0001275000Y0000385900D01*
X0001268600Y0000374700D01*
X0001265700Y0000368700D01*
X0001262600Y0000362000D01*
X0001260600Y0000359200D01*
X0001259300Y0000355900D01*
X0001256500Y0000351600D01*
X0001255800Y0000350500D01*
X0001254500Y0000348700D01*
X0001254200Y0000348300D01*
X0001255300Y0000344999D01*
X0001257500Y0000339000D01*
X0001258800Y0000336300D01*
X0001259800Y0000334600D01*
X0001262300Y0000331199D01*
X0001262600Y0000330800D01*
X0001263100Y0000330100D01*
X0001263399Y0000329699D01*
X0001263399Y0000329699D01*
X0001263799Y0000329000D01*
X0001264500Y0000327899D01*
X0001264900Y0000327300D01*
X0001266700Y0000324100D01*
X0001267300Y0000322400D01*
X0001267800Y0000321400D01*
X0001268400Y0000320300D01*
X0001269200Y0000318700D01*
X0001270399Y0000315799D01*
X0001271500Y0000312300D01*
X0001272200Y0000309300D01*
X0001272600Y0000307500D01*
X0001272700Y0000306900D01*
X0001272800Y0000306000D01*
X0001272900Y0000305700D01*
X0001273000Y0000305000D01*
X0001272900Y0000303700D01*
X0001273000Y0000303700D01*
X0001273100Y0000302000D01*
X0001273100Y0000298300D01*
X0001272900Y0000295200D01*
X0001272700Y0000293400D01*
X0001272500Y0000292200D01*
X0001272100Y0000290400D01*
X0001271400Y0000287400D01*
X0001270199Y0000283900D01*
X0001269100Y0000281000D01*
X0001268300Y0000279300D01*
X0001267700Y0000278200D01*
X0001266800Y0000276600D01*
X0001265200Y0000274000D01*
X0001263000Y0000271000D01*
X0001261000Y0000268600D01*
X0001259800Y0000267300D01*
X0001258900Y0000266400D01*
X0001257500Y0000265200D01*
X0001255200Y0000263200D01*
X0001252200Y0000261000D01*
X0001249600Y0000259400D01*
X0001247900Y0000258500D01*
X0001246900Y0000257900D01*
X0001245200Y0000257100D01*
X0001242300Y0000255900D01*
X0001240300Y0000255300D01*
X0001240200Y0000255199D01*
X0001236600Y0000254100D01*
X0001233600Y0000253400D01*
X0001231800Y0000253000D01*
X0001231600Y0000253000D01*
X0001230700Y0000253199D01*
X0001225300Y0000252300D01*
X0001223100Y0000252300D01*
X0001221400Y0000252400D01*
X0001218700Y0000252600D01*
X0001217000Y0000252800D01*
X0001215800Y0000253000D01*
X0001215500Y0000253100D01*
X0001214900Y0000253199D01*
X0001214500Y0000253199D01*
X0001209700Y0000254199D01*
X0001209000Y0000254300D01*
X0001208000Y0000254500D01*
X0001207400Y0000254699D01*
X0001203900Y0000255500D01*
X0001199500Y0000256400D01*
X0001194500Y0000256900D01*
X0001194200Y0000256500D01*
X0001193800Y0000255600D01*
X0001193200Y0000254500D01*
X0001192400Y0000252900D01*
X0001190800Y0000250300D01*
X0001189800Y0000248800D01*
X0001185000Y0000242200D01*
X0001183800Y0000240700D01*
X0001181800Y0000238300D01*
X0001180500Y0000236900D01*
X0001179600Y0000236000D01*
X0001178500Y0000235000D01*
X0001176600Y0000233300D01*
X0001175400Y0000232300D01*
X0001167700Y0000226400D01*
X0001166900Y0000225800D01*
X0001165400Y0000224800D01*
X0001163600Y0000223600D01*
X0001162000Y0000222700D01*
X0001161100Y0000222200D01*
X0001160000Y0000221700D01*
X0001158700Y0000221100D01*
X0001156500Y0000220100D01*
X0001155200Y0000219600D01*
X0001144700Y0000215800D01*
X0001139100Y0000214800D01*
X0001134300Y0000213300D01*
X0001121700Y0000211600D01*
X0001118000Y0000211800D01*
X0001114100Y0000211300D01*
X0001100100Y0000211900D01*
X0001098800Y0000212000D01*
X0001096800Y0000212200D01*
X0001095500Y0000212300D01*
X0001091100Y0000213000D01*
X0001083000Y0000214200D01*
X0001075300Y0000214900D01*
X0001070500Y0000215200D01*
X0001069700Y0000215200D01*
X0001069700Y0000198400D01*
X0001068100Y0000189799D01*
X0001067100Y0000188299D01*
X0001067300Y0000186500D01*
X0001064800Y0000177600D01*
X0001060000Y0000168200D01*
X0001059000Y0000166800D01*
X0001058400Y0000165100D01*
X0001053600Y0000156800D01*
X0001053200Y0000156000D01*
X0001052400Y0000154800D01*
X0001052000Y0000154100D01*
X0001045900Y0000145100D01*
X0001045500Y0000144600D01*
X0001044800Y0000143600D01*
X0001044400Y0000143100D01*
X0001037900Y0000134500D01*
X0001037400Y0000133900D01*
X0001036600Y0000132900D01*
X0001036100Y0000132300D01*
X0001029900Y0000125099D01*
X0001027400Y0000123200D01*
X0001025600Y0000120800D01*
X0001020699Y0000116200D01*
X0001019900Y0000115500D01*
X0001018500Y0000114400D01*
X0001016799Y0000113100D01*
X0001015300Y0000112000D01*
X0001014400Y0000111400D01*
X0001006000Y0000106200D01*
X0001005200Y0000105600D01*
X0001003700Y0000104800D01*
X0001002799Y0000104300D01*
X0000991100Y0000098300D01*
X0000991000Y0000098200D01*
X0000990900Y0000098200D01*
X0000990900Y0000098200D01*
X0000989800Y0000097600D01*
X0000989300Y0000097400D01*
X0000988600Y0000097000D01*
X0000988100Y0000096799D01*
X0000973700Y0000090200D01*
X0000973300Y0000089999D01*
X0000972700Y0000089800D01*
X0000972300Y0000089599D01*
X0000955700Y0000082700D01*
X0000955400Y0000082600D01*
X0000954800Y0000082399D01*
X0000954500Y0000082200D01*
X0000936300Y0000075200D01*
X0000936000Y0000075100D01*
X0000935500Y0000075000D01*
X0000935200Y0000074900D01*
X0000915900Y0000068000D01*
X0000915600Y0000067900D01*
X0000915200Y0000067700D01*
X0000914900Y0000067700D01*
X0000895000Y0000061200D01*
X0000894800Y0000061100D01*
X0000894500Y0000061000D01*
X0000894300Y0000060900D01*
X0000886400Y0000058500D01*
X0000886300Y0000058500D01*
X0000886200Y0000058500D01*
X0000869600Y0000053400D01*
X0000925200Y0001036500D02*
X0000926900Y0001037500D01*
X0000928500Y0001038400D01*
X0000929500Y0001038999D01*
X0000927500Y0001041299D01*
X0000926500Y0001039199D01*
X0000926400Y0001038899D01*
X0000926200Y0001038500D01*
X0000926000Y0001038200D01*
X0000925200Y0001036500D01*
X0000551200Y0001007500D02*
X0000551300Y0001008000D01*
X0000551400Y0001009200D01*
X0000551800Y0001010999D01*
X0000552500Y0001014000D01*
X0000553400Y0001016799D01*
X0000552400Y0001018000D01*
X0000550200Y0001020999D01*
X0000548600Y0001023600D01*
X0000547700Y0001025300D01*
X0000547100Y0001026400D01*
X0000547000Y0001026600D01*
X0000546400Y0001025800D01*
X0000544700Y0001023400D01*
X0000542400Y0001020600D01*
X0000542100Y0001020300D01*
X0000542000Y0001020200D01*
X0000537800Y0001015700D01*
X0000539500Y0001014999D01*
X0000541200Y0001014200D01*
X0000542300Y0001013700D01*
X0000543900Y0001012799D01*
X0000546500Y0001011100D01*
X0000549500Y0001008999D01*
X0000551200Y0001007500D01*
X0000800900Y0000582900D02*
X0000802800Y0000584200D01*
X0000802900Y0000584700D01*
X0000802800Y0000586400D01*
X0000802600Y0000587300D01*
X0000802300Y0000586300D01*
X0000801300Y0000583800D01*
X0000800900Y0000582900D01*
X0000738900Y0000429300D02*
X0000736000Y0000441900D01*
X0000735700Y0000446700D01*
X0000734600Y0000451600D01*
X0000734200Y0000465400D01*
X0000735099Y0000471100D01*
X0000735199Y0000476400D01*
X0000737600Y0000488900D01*
X0000737899Y0000490000D01*
X0000738299Y0000491800D01*
X0000739000Y0000494000D01*
X0000739600Y0000495800D01*
X0000740000Y0000496800D01*
X0000741700Y0000501000D01*
X0000742100Y0000502000D01*
X0000742800Y0000503499D01*
X0000743300Y0000504399D01*
X0000743800Y0000505499D01*
X0000743800Y0000505600D01*
X0000745300Y0000508399D01*
X0000745300Y0000508499D01*
X0000745300Y0000508499D01*
X0000745300Y0000508499D01*
X0000745300Y0000508499D01*
X0000745300Y0000508499D01*
X0000745300Y0000508499D01*
X0000745300Y0000508499D01*
X0000746200Y0000510100D01*
X0000747800Y0000512700D01*
X0000749700Y0000515200D01*
X0000749500Y0000515100D01*
X0000741900Y0000511100D01*
X0000739400Y0000510300D01*
X0000737000Y0000508700D01*
X0000728799Y0000505300D01*
X0000727600Y0000504800D01*
X0000725500Y0000504100D01*
X0000724200Y0000503700D01*
X0000716899Y0000501600D01*
X0000712500Y0000501200D01*
X0000709400Y0000500200D01*
X0000709400Y0000499700D01*
X0000709300Y0000497400D01*
X0000709100Y0000495500D01*
X0000709000Y0000494400D01*
X0000707799Y0000486100D01*
X0000706900Y0000483200D01*
X0000706600Y0000479800D01*
X0000704300Y0000471000D01*
X0000703900Y0000469600D01*
X0000703100Y0000467300D01*
X0000702600Y0000465900D01*
X0000700200Y0000460000D01*
X0000701100Y0000459300D01*
X0000701799Y0000458900D01*
X0000711400Y0000452000D01*
X0000711800Y0000451700D01*
X0000712500Y0000451200D01*
X0000712900Y0000450900D01*
X0000723099Y0000443000D01*
X0000723400Y0000442700D01*
X0000724000Y0000442200D01*
X0000724400Y0000441900D01*
X0000734100Y0000433800D01*
X0000734500Y0000433400D01*
X0000735199Y0000432800D01*
X0000735600Y0000432400D01*
X0000738900Y0000429300D01*
X0000797000Y0000309300D02*
X0000797500Y0000309900D01*
X0000802600Y0000315799D01*
X0000803100Y0000316400D01*
X0000804100Y0000317499D01*
X0000804700Y0000318100D01*
X0000805600Y0000318999D01*
X0000805900Y0000319300D01*
X0000806400Y0000319700D01*
X0000806600Y0000320000D01*
X0000808100Y0000321400D01*
X0000808700Y0000321899D01*
X0000807200Y0000325800D01*
X0000806700Y0000327500D01*
X0000805800Y0000330400D01*
X0000805400Y0000332100D01*
X0000804600Y0000335599D01*
X0000804300Y0000335900D01*
X0000803400Y0000336700D01*
X0000801899Y0000338000D01*
X0000801000Y0000338899D01*
X0000800100Y0000339800D01*
X0000800000Y0000339900D01*
X0000799900Y0000340000D01*
X0000794000Y0000345900D01*
X0000793800Y0000346399D01*
X0000793700Y0000346299D01*
X0000793000Y0000347000D01*
X0000792599Y0000347500D01*
X0000785500Y0000355399D01*
X0000785500Y0000355399D01*
X0000785300Y0000355600D01*
X0000784600Y0000356400D01*
X0000777000Y0000365400D01*
X0000776800Y0000365700D01*
X0000776500Y0000366099D01*
X0000776300Y0000366400D01*
X0000769300Y0000375199D01*
X0000769300Y0000373800D01*
X0000769000Y0000370400D01*
X0000768800Y0000368400D01*
X0000768599Y0000367200D01*
X0000768200Y0000365400D01*
X0000767500Y0000362400D01*
X0000766400Y0000358900D01*
X0000765200Y0000356000D01*
X0000764400Y0000354300D01*
X0000763900Y0000353200D01*
X0000763000Y0000351600D01*
X0000761800Y0000349700D01*
X0000762599Y0000349399D01*
X0000763800Y0000349100D01*
X0000765700Y0000348500D01*
X0000768000Y0000347600D01*
X0000769900Y0000346800D01*
X0000771000Y0000346199D01*
X0000772100Y0000345700D01*
X0000773700Y0000344799D01*
X0000776300Y0000343199D01*
X0000779300Y0000341000D01*
X0000781700Y0000339000D01*
X0000783000Y0000337700D01*
X0000783900Y0000336800D01*
X0000785200Y0000335499D01*
X0000787200Y0000333100D01*
X0000789400Y0000330100D01*
X0000791000Y0000327500D01*
X0000791900Y0000325900D01*
X0000792400Y0000324800D01*
X0000793200Y0000323100D01*
X0000794400Y0000320200D01*
X0000795500Y0000316700D01*
X0000796300Y0000313700D01*
X0000796600Y0000311900D01*
X0000796800Y0000310700D01*
X0000797000Y0000309300D01*
X0000552100Y0000071700D02*
X0000539300Y0000076400D01*
X0000538600Y0000076600D01*
X0000537600Y0000077100D01*
X0000537000Y0000077300D01*
X0000515800Y0000086500D01*
X0000515100Y0000086800D01*
X0000514000Y0000087299D01*
X0000513300Y0000087600D01*
X0000512200Y0000088200D01*
X0000512100Y0000088300D01*
X0000511800Y0000088400D01*
X0000511700Y0000088499D01*
X0000493600Y0000098000D01*
X0000492600Y0000098600D01*
X0000490900Y0000099600D01*
X0000489900Y0000100200D01*
X0000474500Y0000110400D01*
X0000473400Y0000111200D01*
X0000471500Y0000112600D01*
X0000470400Y0000113400D01*
X0000457300Y0000124500D01*
X0000456600Y0000125200D01*
X0000455400Y0000126300D01*
X0000454700Y0000127000D01*
X0000453800Y0000127800D01*
X0000453400Y0000128200D01*
X0000452800Y0000128800D01*
X0000452500Y0000129200D01*
X0000441200Y0000141500D01*
X0000440400Y0000142500D01*
X0000439000Y0000144100D01*
X0000438200Y0000145200D01*
X0000430000Y0000156300D01*
X0000429700Y0000156700D01*
X0000429200Y0000157500D01*
X0000428900Y0000157899D01*
X0000419200Y0000172600D01*
X0000418500Y0000173700D01*
X0000417300Y0000175700D01*
X0000416700Y0000176899D01*
X0000416100Y0000178000D01*
X0000415700Y0000178800D01*
X0000412000Y0000179000D01*
X0000407200Y0000178499D01*
X0000395900Y0000179400D01*
X0000391500Y0000180600D01*
X0000386800Y0000180900D01*
X0000372500Y0000184800D01*
X0000366400Y0000187700D01*
X0000360700Y0000189799D01*
X0000349000Y0000196700D01*
X0000343399Y0000201700D01*
X0000338300Y0000205500D01*
X0000330900Y0000213600D01*
X0000328099Y0000213500D01*
X0000324999Y0000212600D01*
X0000313000Y0000211400D01*
X0000311900Y0000211500D01*
X0000310800Y0000211200D01*
X0000303300Y0000210800D01*
X0000303100Y0000210900D01*
X0000302800Y0000210800D01*
X0000293800Y0000210500D01*
X0000298900Y0000206200D01*
X0000311000Y0000196400D01*
X0000323200Y0000186900D01*
X0000335699Y0000177600D01*
X0000348400Y0000168699D01*
X0000361300Y0000160000D01*
X0000374400Y0000151500D01*
X0000387700Y0000143400D01*
X0000401100Y0000135600D01*
X0000414700Y0000128099D01*
X0000428500Y0000120800D01*
X0000442400Y0000113900D01*
X0000456400Y0000107300D01*
X0000470700Y0000101000D01*
X0000485000Y0000095000D01*
X0000499500Y0000089300D01*
X0000514100Y0000084000D01*
X0000528800Y0000078900D01*
X0000543600Y0000074200D01*
X0000552100Y0000071700D01*
D12*
X0000513599Y0001291000D02*
X0000512900Y0001292600D01*
X0000512100Y0001295000D01*
X0000511499Y0001297600D01*
X0000509800Y0001306399D01*
X0000509300Y0001311700D01*
X0000509900Y0001316900D01*
X0000511600Y0001325700D01*
X0000512200Y0001328200D01*
X0000513100Y0001330700D01*
X0000516100Y0001338100D01*
X0000516300Y0001338600D01*
X0000516700Y0001339600D01*
X0000517000Y0001340100D01*
X0000517700Y0001341600D01*
X0000517900Y0001342100D01*
X0000518400Y0001342999D01*
X0000518599Y0001343600D01*
X0000519200Y0001344700D01*
X0000519400Y0001345100D01*
X0000519800Y0001345900D01*
X0000520100Y0001346300D01*
X0000520800Y0001347600D01*
X0000521000Y0001348100D01*
X0000521499Y0001348799D01*
X0000521700Y0001349300D01*
X0000528000Y0001359600D01*
X0000528500Y0001360300D01*
X0000529200Y0001361500D01*
X0000529700Y0001362200D01*
X0000531000Y0001364100D01*
X0000532000Y0001365500D01*
X0000533800Y0001367700D01*
X0000534800Y0001369000D01*
X0000536400Y0001370700D01*
X0000537000Y0001371300D01*
X0000537900Y0001372399D01*
X0000538500Y0001372999D01*
X0000539400Y0001373799D01*
X0000539700Y0001374200D01*
X0000540300Y0001374700D01*
X0000540600Y0001375000D01*
X0000541500Y0001375900D01*
X0000541900Y0001376200D01*
X0000542500Y0001376700D01*
X0000542800Y0001377000D01*
X0000551900Y0001384999D01*
X0000552600Y0001385599D01*
X0000553700Y0001386500D01*
X0000554400Y0001387000D01*
X0000556300Y0001388500D01*
X0000557700Y0001389500D01*
X0000560100Y0001391199D01*
X0000561600Y0001392100D01*
X0000563700Y0001393300D01*
X0000564400Y0001393700D01*
X0000565700Y0001394400D01*
X0000566400Y0001394800D01*
X0000567500Y0001395400D01*
X0000567800Y0001395600D01*
X0000568400Y0001395800D01*
X0000568700Y0001396000D01*
X0000569500Y0001396400D01*
X0000569800Y0001396500D01*
X0000570400Y0001396799D01*
X0000570600Y0001396900D01*
X0000581900Y0001402000D01*
X0000582500Y0001402200D01*
X0000583500Y0001402600D01*
X0000584200Y0001402900D01*
X0000585900Y0001403599D01*
X0000587100Y0001403999D01*
X0000589300Y0001404800D01*
X0000590500Y0001405200D01*
X0000592400Y0001405700D01*
X0000593000Y0001405900D01*
X0000594100Y0001406100D01*
X0000594700Y0001406300D01*
X0000598100Y0001407100D01*
X0000598400Y0001407700D01*
X0000598700Y0001408400D01*
X0000599300Y0001409500D01*
X0000599500Y0001409700D01*
X0000599700Y0001410199D01*
X0000599900Y0001410500D01*
X0000600300Y0001411300D01*
X0000600500Y0001411600D01*
X0000600700Y0001412100D01*
X0000600900Y0001412400D01*
X0000603800Y0001417500D01*
X0000604200Y0001418100D01*
X0000604700Y0001419100D01*
X0000605100Y0001419600D01*
X0000606100Y0001421199D01*
X0000606800Y0001422300D01*
X0000608100Y0001424100D01*
X0000608900Y0001425200D01*
X0000610000Y0001426700D01*
X0000610400Y0001427199D01*
X0000611200Y0001428100D01*
X0000611600Y0001428600D01*
X0000615300Y0001432800D01*
X0000615600Y0001433300D01*
X0000616200Y0001433900D01*
X0000616600Y0001434300D01*
X0000617600Y0001435400D01*
X0000618000Y0001435800D01*
X0000618600Y0001436500D01*
X0000619000Y0001436900D01*
X0000619800Y0001437700D01*
X0000620400Y0001438300D01*
X0000621500Y0001439300D01*
X0000622100Y0001439799D01*
X0000623800Y0001441400D01*
X0000625100Y0001442500D01*
X0000627300Y0001444200D01*
X0000628700Y0001445200D01*
X0000630600Y0001446500D01*
X0000631300Y0001447000D01*
X0000632500Y0001447800D01*
X0000632600Y0001447800D01*
X0000633400Y0001449200D01*
X0000634300Y0001450700D01*
X0000636000Y0001453100D01*
X0000637100Y0001454600D01*
X0000638600Y0001456500D01*
X0000639100Y0001457200D01*
X0000640100Y0001458399D01*
X0000640699Y0001459000D01*
X0000642800Y0001461500D01*
X0000643100Y0001461800D01*
X0000643600Y0001462300D01*
X0000643899Y0001462600D01*
X0000644700Y0001463500D01*
X0000645000Y0001463799D01*
X0000645500Y0001464300D01*
X0000645800Y0001464599D01*
X0000646600Y0001465500D01*
X0000647299Y0001466200D01*
X0000648600Y0001467300D01*
X0000649300Y0001468000D01*
X0000651400Y0001469799D01*
X0000652899Y0001471000D01*
X0000655600Y0001473000D01*
X0000657200Y0001474200D01*
X0000658400Y0001474900D01*
X0000657300Y0001475600D01*
X0000656700Y0001475999D01*
X0000655700Y0001476599D01*
X0000655100Y0001477000D01*
X0000635800Y0001489900D01*
X0000635199Y0001490300D01*
X0000634300Y0001490900D01*
X0000633700Y0001491300D01*
X0000632199Y0001492500D01*
X0000631100Y0001493300D01*
X0000629300Y0001494799D01*
X0000628300Y0001495700D01*
X0000626900Y0001497000D01*
X0000626400Y0001497400D01*
X0000625500Y0001498200D01*
X0000625100Y0001498700D01*
X0000624100Y0001499700D01*
X0000619700Y0001492000D01*
X0000619400Y0001491500D01*
X0000619000Y0001490700D01*
X0000618700Y0001490300D01*
X0000617900Y0001488900D01*
X0000617600Y0001488500D01*
X0000617000Y0001487700D01*
X0000616700Y0001487200D01*
X0000607200Y0001473100D01*
X0000606900Y0001472600D01*
X0000606300Y0001471900D01*
X0000606000Y0001471400D01*
X0000605100Y0001470199D01*
X0000604700Y0001469700D01*
X0000604200Y0001469000D01*
X0000603800Y0001468600D01*
X0000593200Y0001455200D01*
X0000592800Y0001454800D01*
X0000592200Y0001454100D01*
X0000591900Y0001453600D01*
X0000590800Y0001452500D01*
X0000590500Y0001452100D01*
X0000589800Y0001451399D01*
X0000589500Y0001451000D01*
X0000577800Y0001438500D01*
X0000577400Y0001438100D01*
X0000576700Y0001437400D01*
X0000576400Y0001437000D01*
X0000575200Y0001435900D01*
X0000574800Y0001435600D01*
X0000574200Y0001434900D01*
X0000573800Y0001434600D01*
X0000561100Y0001423100D01*
X0000560700Y0001422700D01*
X0000560000Y0001422100D01*
X0000559600Y0001421700D01*
X0000558400Y0001420700D01*
X0000558000Y0001420400D01*
X0000557300Y0001419800D01*
X0000556800Y0001419500D01*
X0000543300Y0001408999D01*
X0000542900Y0001408700D01*
X0000542100Y0001408100D01*
X0000541700Y0001407800D01*
X0000540400Y0001406900D01*
X0000540000Y0001406600D01*
X0000539200Y0001406000D01*
X0000538700Y0001405700D01*
X0000524400Y0001396400D01*
X0000524000Y0001396100D01*
X0000523200Y0001395600D01*
X0000522700Y0001395300D01*
X0000521400Y0001394500D01*
X0000520900Y0001394200D01*
X0000520100Y0001393800D01*
X0000519599Y0001393500D01*
X0000504600Y0001385300D01*
X0000504100Y0001385100D01*
X0000503299Y0001384599D01*
X0000502800Y0001384400D01*
X0000501399Y0001383700D01*
X0000500900Y0001383400D01*
X0000500000Y0001383000D01*
X0000499600Y0001382800D01*
X0000484000Y0001375800D01*
X0000483900Y0001375800D01*
X0000483900Y0001375800D01*
X0000483800Y0001375800D01*
X0000483700Y0001375800D01*
X0000483700Y0001375700D01*
X0000483600Y0001375700D01*
X0000469300Y0001369400D01*
X0000455700Y0001363000D01*
X0000442300Y0001356400D01*
X0000429100Y0001349500D01*
X0000416000Y0001342300D01*
X0000403100Y0001334800D01*
X0000390299Y0001327000D01*
X0000377700Y0001318999D01*
X0000365300Y0001310600D01*
X0000353100Y0001302000D01*
X0000343199Y0001294700D01*
X0000350300Y0001297000D01*
X0000352800Y0001297900D01*
X0000353100Y0001298000D01*
X0000353700Y0001298200D01*
X0000353999Y0001298300D01*
X0000354900Y0001298600D01*
X0000355299Y0001298700D01*
X0000355800Y0001298900D01*
X0000356100Y0001299000D01*
X0000369099Y0001302800D01*
X0000369900Y0001303100D01*
X0000371500Y0001303500D01*
X0000372400Y0001303700D01*
X0000374999Y0001304300D01*
X0000375900Y0001304500D01*
X0000377400Y0001304800D01*
X0000378300Y0001305000D01*
X0000379500Y0001305200D01*
X0000379800Y0001305200D01*
X0000380300Y0001305300D01*
X0000380600Y0001305300D01*
X0000381400Y0001305400D01*
X0000381800Y0001305500D01*
X0000382300Y0001305500D01*
X0000382500Y0001305599D01*
X0000393100Y0001306799D01*
X0000395800Y0001306999D01*
X0000398500Y0001306900D01*
X0000402800Y0001306500D01*
X0000406800Y0001306700D01*
X0000409500Y0001306700D01*
X0000412200Y0001306399D01*
X0000414700Y0001305999D01*
X0000419900Y0001307100D01*
X0000420300Y0001307200D01*
X0000421000Y0001307400D01*
X0000421400Y0001307400D01*
X0000422500Y0001307600D01*
X0000422900Y0001307700D01*
X0000423600Y0001307800D01*
X0000424000Y0001307900D01*
X0000425200Y0001308100D01*
X0000425800Y0001308200D01*
X0000426900Y0001308300D01*
X0000427500Y0001308400D01*
X0000429200Y0001308600D01*
X0000430500Y0001308700D01*
X0000432600Y0001308900D01*
X0000433800Y0001308900D01*
X0000435600Y0001308900D01*
X0000436200Y0001309000D01*
X0000437300Y0001309000D01*
X0000437900Y0001308900D01*
X0000450900Y0001308600D01*
X0000451800Y0001308600D01*
X0000453400Y0001308500D01*
X0000454300Y0001308500D01*
X0000456900Y0001308200D01*
X0000457800Y0001308100D01*
X0000459400Y0001307900D01*
X0000460300Y0001307800D01*
X0000461500Y0001307600D01*
X0000461900Y0001307500D01*
X0000462500Y0001307400D01*
X0000462800Y0001307400D01*
X0000463800Y0001307200D01*
X0000464200Y0001307100D01*
X0000464800Y0001306999D01*
X0000465100Y0001306900D01*
X0000480100Y0001303800D01*
X0000480500Y0001303700D01*
X0000481400Y0001303500D01*
X0000481900Y0001303300D01*
X0000483200Y0001303000D01*
X0000483700Y0001302900D01*
X0000484500Y0001302700D01*
X0000485000Y0001302500D01*
X0000486100Y0001302200D01*
X0000486400Y0001302100D01*
X0000487000Y0001301900D01*
X0000487300Y0001301800D01*
X0000488200Y0001301600D01*
X0000488600Y0001301400D01*
X0000489100Y0001301300D01*
X0000489400Y0001301200D01*
X0000498300Y0001298100D01*
X0000499200Y0001297800D01*
X0000500800Y0001297200D01*
X0000501700Y0001296800D01*
X0000504299Y0001295700D01*
X0000505200Y0001295300D01*
X0000506700Y0001294599D01*
X0000507600Y0001294199D01*
X0000508700Y0001293599D01*
X0000508800Y0001293599D01*
X0000509000Y0001293399D01*
X0000509200Y0001293399D01*
X0000509600Y0001293100D01*
X0000509700Y0001293100D01*
X0000510000Y0001292900D01*
X0000510100Y0001292900D01*
X0000513599Y0001291000D01*
X0000876700Y0001263399D02*
X0000877000Y0001263799D01*
X0000877300Y0001264399D01*
X0000878200Y0001265900D01*
X0000878800Y0001267000D01*
X0000879900Y0001268800D01*
X0000880600Y0001269799D01*
X0000881600Y0001271200D01*
X0000882000Y0001271700D01*
X0000882600Y0001272600D01*
X0000882900Y0001273100D01*
X0000889100Y0001281100D01*
X0000889600Y0001281799D01*
X0000890400Y0001282800D01*
X0000890900Y0001283400D01*
X0000892400Y0001285200D01*
X0000893000Y0001285800D01*
X0000893900Y0001286800D01*
X0000894400Y0001287399D01*
X0000896700Y0001289700D01*
X0000896800Y0001289800D01*
X0000896900Y0001290000D01*
X0000897000Y0001290100D01*
X0000897300Y0001290300D01*
X0000897400Y0001290400D01*
X0000897500Y0001290600D01*
X0000897600Y0001290600D01*
X0000898500Y0001291500D01*
X0000898900Y0001291900D01*
X0000899600Y0001292600D01*
X0000900000Y0001293000D01*
X0000901300Y0001294199D01*
X0000901700Y0001294599D01*
X0000902500Y0001295300D01*
X0000903000Y0001295600D01*
X0000913700Y0001304700D01*
X0000914500Y0001305400D01*
X0000915900Y0001306399D01*
X0000916700Y0001306999D01*
X0000919100Y0001308700D01*
X0000919900Y0001309300D01*
X0000921400Y0001310300D01*
X0000922200Y0001310800D01*
X0000934500Y0001318399D01*
X0000934900Y0001318599D01*
X0000935800Y0001319100D01*
X0000936200Y0001319400D01*
X0000937600Y0001320200D01*
X0000938100Y0001320400D01*
X0000939000Y0001320900D01*
X0000939400Y0001321200D01*
X0000940500Y0001321700D01*
X0000940900Y0001321900D01*
X0000941500Y0001322200D01*
X0000941800Y0001322300D01*
X0000942800Y0001322800D01*
X0000943100Y0001323000D01*
X0000943700Y0001323200D01*
X0000944100Y0001323400D01*
X0000956900Y0001329100D01*
X0000957800Y0001329400D01*
X0000959400Y0001330100D01*
X0000960300Y0001330399D01*
X0000963000Y0001331400D01*
X0000964000Y0001331700D01*
X0000965600Y0001332200D01*
X0000966500Y0001332500D01*
X0000979200Y0001335999D01*
X0000979900Y0001336199D01*
X0000981200Y0001336500D01*
X0000982000Y0001336700D01*
X0000984200Y0001337199D01*
X0000985000Y0001337300D01*
X0000986300Y0001337600D01*
X0000987100Y0001337700D01*
X0000988300Y0001337900D01*
X0000988700Y0001338000D01*
X0000989500Y0001338100D01*
X0000989900Y0001338200D01*
X0000991200Y0001338300D01*
X0000991700Y0001338400D01*
X0000992400Y0001338400D01*
X0000992900Y0001338500D01*
X0001004500Y0001339600D01*
X0001007100Y0001339700D01*
X0001009800Y0001339500D01*
X0001012699Y0001339300D01*
X0001013600Y0001339600D01*
X0001014200Y0001339900D01*
X0001015300Y0001340300D01*
X0001016000Y0001340500D01*
X0001017400Y0001341000D01*
X0001017800Y0001341200D01*
X0001018400Y0001341400D01*
X0001018699Y0001341500D01*
X0001019700Y0001341800D01*
X0001020100Y0001341900D01*
X0001020699Y0001342100D01*
X0001021099Y0001342199D01*
X0001024400Y0001343199D01*
X0001025199Y0001343399D01*
X0001026700Y0001343800D01*
X0001027600Y0001344100D01*
X0001030100Y0001344600D01*
X0001030999Y0001344800D01*
X0001032500Y0001345100D01*
X0001033400Y0001345300D01*
X0001034600Y0001345400D01*
X0001034800Y0001345500D01*
X0001034899Y0001345500D01*
X0001034899Y0001345500D01*
X0001035199Y0001345500D01*
X0001035300Y0001345600D01*
X0001035500Y0001345600D01*
X0001035600Y0001345600D01*
X0001038700Y0001346000D01*
X0001041400Y0001346300D01*
X0001044100Y0001346300D01*
X0001046000Y0001346200D01*
X0001048200Y0001346500D01*
X0001050800Y0001346700D01*
X0001053400Y0001346600D01*
X0001057000Y0001346400D01*
X0001057600Y0001346300D01*
X0001058700Y0001346200D01*
X0001059300Y0001346200D01*
X0001061100Y0001346000D01*
X0001061800Y0001345900D01*
X0001062800Y0001345700D01*
X0001063500Y0001345600D01*
X0001064700Y0001345500D01*
X0001065100Y0001345400D01*
X0001065900Y0001345200D01*
X0001066300Y0001345200D01*
X0001067600Y0001344900D01*
X0001068000Y0001344800D01*
X0001068800Y0001344700D01*
X0001069200Y0001344600D01*
X0001073900Y0001343500D01*
X0001074500Y0001343399D01*
X0001075400Y0001343199D01*
X0001076000Y0001342999D01*
X0001077500Y0001342599D01*
X0001078100Y0001342399D01*
X0001079000Y0001342199D01*
X0001079600Y0001341999D01*
X0001086000Y0001340000D01*
X0001086200Y0001339900D01*
X0001086700Y0001339700D01*
X0001086900Y0001339700D01*
X0001087600Y0001339400D01*
X0001087800Y0001339400D01*
X0001088200Y0001339200D01*
X0001088500Y0001339100D01*
X0001093300Y0001337399D01*
X0001084900Y0001342300D01*
X0001071800Y0001349500D01*
X0001058600Y0001356400D01*
X0001045199Y0001363000D01*
X0001031600Y0001369400D01*
X0001017300Y0001375700D01*
X0001017200Y0001375700D01*
X0001016899Y0001375800D01*
X0001001300Y0001382800D01*
X0001000899Y0001383000D01*
X0001000000Y0001383400D01*
X0000999500Y0001383700D01*
X0000998100Y0001384400D01*
X0000997600Y0001384599D01*
X0000996800Y0001385100D01*
X0000996300Y0001385300D01*
X0000981300Y0001393500D01*
X0000980800Y0001393800D01*
X0000980000Y0001394200D01*
X0000979600Y0001394500D01*
X0000978200Y0001395300D01*
X0000977700Y0001395600D01*
X0000976900Y0001396100D01*
X0000976500Y0001396400D01*
X0000962200Y0001405700D01*
X0000961700Y0001406000D01*
X0000961000Y0001406600D01*
X0000960500Y0001406900D01*
X0000959200Y0001407800D01*
X0000958800Y0001408100D01*
X0000958000Y0001408700D01*
X0000957600Y0001408999D01*
X0000944100Y0001419400D01*
X0000943700Y0001419800D01*
X0000942900Y0001420400D01*
X0000942500Y0001420700D01*
X0000941300Y0001421700D01*
X0000940900Y0001422100D01*
X0000940200Y0001422700D01*
X0000939800Y0001423100D01*
X0000927100Y0001434600D01*
X0000926700Y0001434900D01*
X0000926000Y0001435600D01*
X0000925600Y0001435900D01*
X0000924500Y0001437000D01*
X0000924100Y0001437400D01*
X0000923500Y0001438100D01*
X0000923100Y0001438500D01*
X0000911400Y0001451000D01*
X0000911000Y0001451399D01*
X0000910400Y0001452100D01*
X0000910100Y0001452500D01*
X0000909000Y0001453600D01*
X0000908700Y0001454100D01*
X0000908100Y0001454800D01*
X0000907700Y0001455200D01*
X0000897100Y0001468500D01*
X0000896700Y0001469000D01*
X0000896200Y0001469700D01*
X0000895800Y0001470199D01*
X0000894900Y0001471400D01*
X0000894600Y0001471900D01*
X0000894000Y0001472600D01*
X0000893700Y0001473100D01*
X0000884200Y0001487200D01*
X0000883900Y0001487700D01*
X0000883300Y0001488500D01*
X0000883000Y0001488900D01*
X0000882200Y0001490300D01*
X0000881900Y0001490700D01*
X0000881500Y0001491500D01*
X0000881200Y0001492000D01*
X0000876800Y0001499700D01*
X0000875900Y0001498700D01*
X0000875400Y0001498200D01*
X0000874500Y0001497400D01*
X0000874000Y0001497000D01*
X0000872600Y0001495700D01*
X0000871600Y0001494799D01*
X0000869800Y0001493300D01*
X0000868700Y0001492500D01*
X0000867200Y0001491300D01*
X0000866600Y0001490900D01*
X0000866100Y0001490600D01*
X0000866400Y0001490400D01*
X0000867300Y0001489600D01*
X0000868700Y0001488500D01*
X0000869100Y0001488100D01*
X0000869900Y0001487400D01*
X0000870400Y0001487000D01*
X0000874400Y0001483200D01*
X0000874500Y0001483000D01*
X0000874800Y0001482799D01*
X0000875000Y0001482599D01*
X0000875400Y0001482199D01*
X0000875500Y0001482100D01*
X0000875800Y0001481799D01*
X0000875900Y0001481700D01*
X0000876800Y0001480800D01*
X0000877600Y0001480000D01*
X0000878800Y0001478700D01*
X0000879500Y0001477900D01*
X0000881500Y0001475500D01*
X0000882900Y0001473800D01*
X0000885000Y0001470800D01*
X0000886200Y0001469000D01*
X0000887800Y0001466400D01*
X0000888400Y0001465500D01*
X0000889300Y0001463900D01*
X0000889800Y0001462900D01*
X0000890400Y0001461800D01*
X0000890800Y0001460900D01*
X0000892300Y0001459800D01*
X0000894000Y0001458500D01*
X0000896300Y0001456500D01*
X0000897100Y0001455800D01*
X0000898400Y0001454600D01*
X0000899200Y0001453900D01*
X0000900000Y0001453000D01*
X0000900800Y0001452199D01*
X0000902100Y0001450800D01*
X0000902800Y0001450000D01*
X0000904800Y0001447700D01*
X0000906100Y0001445999D01*
X0000908300Y0001443000D01*
X0000909500Y0001441200D01*
X0000911100Y0001438500D01*
X0000911300Y0001438300D01*
X0000911600Y0001438000D01*
X0000912100Y0001436800D01*
X0000912600Y0001436000D01*
X0000912500Y0001435900D01*
X0000914200Y0001432400D01*
X0000914400Y0001432400D01*
X0000914900Y0001431300D01*
X0000915300Y0001430300D01*
X0000916100Y0001428399D01*
X0000916100Y0001426300D01*
X0000919200Y0001419900D01*
X0000921900Y0001409999D01*
X0000921300Y0001405400D01*
X0000921400Y0001404900D01*
X0000921500Y0001403799D01*
X0000921800Y0001400700D01*
X0000921800Y0001398600D01*
X0000921800Y0001394800D01*
X0000921700Y0001392600D01*
X0000921500Y0001389500D01*
X0000921400Y0001388500D01*
X0000921200Y0001386600D01*
X0000921000Y0001385500D01*
X0000921000Y0001385399D01*
X0000919600Y0001380200D01*
X0000917600Y0001376000D01*
X0000917500Y0001375200D01*
X0000916900Y0001372799D01*
X0000914500Y0001364700D01*
X0000912700Y0001360100D01*
X0000910200Y0001355900D01*
X0000905100Y0001349199D01*
X0000903600Y0001347300D01*
X0000903500Y0001347200D01*
X0000903400Y0001347100D01*
X0000900500Y0001342199D01*
X0000899700Y0001340800D01*
X0000899400Y0001340300D01*
X0000899000Y0001339600D01*
X0000898800Y0001339200D01*
X0000898100Y0001338000D01*
X0000897800Y0001337600D01*
X0000897400Y0001336900D01*
X0000897100Y0001336500D01*
X0000889300Y0001324599D01*
X0000888900Y0001323999D01*
X0000888200Y0001323000D01*
X0000887800Y0001322400D01*
X0000886600Y0001320800D01*
X0000885700Y0001319600D01*
X0000884200Y0001317799D01*
X0000883300Y0001316700D01*
X0000881900Y0001315200D01*
X0000881400Y0001314700D01*
X0000880600Y0001313800D01*
X0000880100Y0001313300D01*
X0000879200Y0001312399D01*
X0000879100Y0001312300D01*
X0000879000Y0001312199D01*
X0000879000Y0001312199D01*
X0000878900Y0001311999D01*
X0000878800Y0001311999D01*
X0000878700Y0001311900D01*
X0000878600Y0001311799D01*
X0000870500Y0001303900D01*
X0000869900Y0001303300D01*
X0000871000Y0001299700D01*
X0000871100Y0001299200D01*
X0000871400Y0001298300D01*
X0000871500Y0001297700D01*
X0000871900Y0001296200D01*
X0000872100Y0001295700D01*
X0000872300Y0001294799D01*
X0000872400Y0001294199D01*
X0000872500Y0001293700D01*
X0000872600Y0001293500D01*
X0000872600Y0001293200D01*
X0000872700Y0001293000D01*
X0000872800Y0001292400D01*
X0000872800Y0001292200D01*
X0000872900Y0001291900D01*
X0000873000Y0001291700D01*
X0000874400Y0001284100D01*
X0000874500Y0001283900D01*
X0000874500Y0001283500D01*
X0000874600Y0001283200D01*
X0000874700Y0001282599D01*
X0000874700Y0001282300D01*
X0000874800Y0001281900D01*
X0000874900Y0001281700D01*
X0000875000Y0001280500D01*
X0000875100Y0001280200D01*
X0000875200Y0001279700D01*
X0000875200Y0001279400D01*
X0000875300Y0001278500D01*
X0000875400Y0001278200D01*
X0000875400Y0001277600D01*
X0000875500Y0001277300D01*
X0000876300Y0001270199D01*
X0000876300Y0001269599D01*
X0000876400Y0001268500D01*
X0000876500Y0001267900D01*
X0000876600Y0001266200D01*
X0000876600Y0001265600D01*
X0000876700Y0001264500D01*
X0000876700Y0001263900D01*
X0000876700Y0001263399D01*
X0001213900Y0001208100D02*
X0001217100Y0001209100D01*
X0001219200Y0001209700D01*
X0001222200Y0001210400D01*
X0001223300Y0001210700D01*
X0001225100Y0001211000D01*
X0001226200Y0001211200D01*
X0001227400Y0001211400D01*
X0001228400Y0001211600D01*
X0001230300Y0001211800D01*
X0001231400Y0001211900D01*
X0001234400Y0001212100D01*
X0001236600Y0001212200D01*
X0001240300Y0001212200D01*
X0001242500Y0001212100D01*
X0001245500Y0001211900D01*
X0001246600Y0001211800D01*
X0001248400Y0001211600D01*
X0001249500Y0001211400D01*
X0001250100Y0001211300D01*
X0001248400Y0001213100D01*
X0001238200Y0001224000D01*
X0001227600Y0001234600D01*
X0001220800Y0001241200D01*
X0001220700Y0001239800D01*
X0001220600Y0001238900D01*
X0001220400Y0001236200D01*
X0001220300Y0001235300D01*
X0001220100Y0001233700D01*
X0001220000Y0001232800D01*
X0001219800Y0001231600D01*
X0001219800Y0001231500D01*
X0001219700Y0001231400D01*
X0001219700Y0001231300D01*
X0001219700Y0001231200D01*
X0001219700Y0001231100D01*
X0001219700Y0001231100D01*
X0001218600Y0001224200D01*
X0001218400Y0001223600D01*
X0001218200Y0001222400D01*
X0001218100Y0001221800D01*
X0001217700Y0001219900D01*
X0001217400Y0001218600D01*
X0001216800Y0001216300D01*
X0001216400Y0001215000D01*
X0001215800Y0001213200D01*
X0001215600Y0001212500D01*
X0001215200Y0001211400D01*
X0001214900Y0001210800D01*
X0001213900Y0001208100D01*
X0000584500Y0001187700D02*
X0000584800Y0001196500D01*
X0000585300Y0001212300D01*
X0000585300Y0001214200D01*
X0000584900Y0001214400D01*
X0000584300Y0001214800D01*
X0000583400Y0001215300D01*
X0000582900Y0001215600D01*
X0000580300Y0001217300D01*
X0000579600Y0001217700D01*
X0000578500Y0001218400D01*
X0000577900Y0001218900D01*
X0000576100Y0001220100D01*
X0000574900Y0001221100D01*
X0000573500Y0001222200D01*
X0000575100Y0001217700D01*
X0000575200Y0001217500D01*
X0000575400Y0001217000D01*
X0000575500Y0001216800D01*
X0000575700Y0001216000D01*
X0000575800Y0001215800D01*
X0000576000Y0001215300D01*
X0000576000Y0001215100D01*
X0000577600Y0001210400D01*
X0000577600Y0001210400D01*
X0000577600Y0001210300D01*
X0000577700Y0001210200D01*
X0000577700Y0001210100D01*
X0000577700Y0001210000D01*
X0000583600Y0001191600D01*
X0000584300Y0001189100D01*
X0000584500Y0001187700D01*
X0000232900Y0001163300D02*
X0000232400Y0001164800D01*
X0000232200Y0001165400D01*
X0000231900Y0001166300D01*
X0000231700Y0001166900D01*
X0000229900Y0001173100D01*
X0000229800Y0001173600D01*
X0000229500Y0001174400D01*
X0000229400Y0001174900D01*
X0000229100Y0001176400D01*
X0000228900Y0001176900D01*
X0000228700Y0001177700D01*
X0000228600Y0001178200D01*
X0000227300Y0001184500D01*
X0000223000Y0001179300D01*
X0000213700Y0001167600D01*
X0000213200Y0001166900D01*
X0000215100Y0001166700D01*
X0000217900Y0001166200D01*
X0000221700Y0001166000D01*
X0000222100Y0001165900D01*
X0000223200Y0001165700D01*
X0000225000Y0001165400D01*
X0000226100Y0001165100D01*
X0000229100Y0001164400D01*
X0000231100Y0001163800D01*
X0000232900Y0001163300D01*
X0001412200Y0000595600D02*
X0001414000Y0000603100D01*
X0001417000Y0000617600D01*
X0001419800Y0000632400D01*
X0001422199Y0000647099D01*
X0001424300Y0000661899D01*
X0001426100Y0000676700D01*
X0001427599Y0000691600D01*
X0001428700Y0000706500D01*
X0001429500Y0000721400D01*
X0001430000Y0000736300D01*
X0001430200Y0000751300D01*
X0001430000Y0000766200D01*
X0001429500Y0000781200D01*
X0001428600Y0000796100D01*
X0001427500Y0000811000D01*
X0001426000Y0000825800D01*
X0001424200Y0000840700D01*
X0001421999Y0000855500D01*
X0001419500Y0000870200D01*
X0001416700Y0000884900D01*
X0001413600Y0000899500D01*
X0001410199Y0000914100D01*
X0001406400Y0000928500D01*
X0001402400Y0000942900D01*
X0001397999Y0000957200D01*
X0001393300Y0000971400D01*
X0001388300Y0000985400D01*
X0001383000Y0000999400D01*
X0001377300Y0001013200D01*
X0001372999Y0001023400D01*
X0001372200Y0001022300D01*
X0001370600Y0001020300D01*
X0001370100Y0001019600D01*
X0001369100Y0001018400D01*
X0001368500Y0001017700D01*
X0001365600Y0001014500D01*
X0001365300Y0001014200D01*
X0001364900Y0001013800D01*
X0001364700Y0001013500D01*
X0001363900Y0001012699D01*
X0001363700Y0001012500D01*
X0001363200Y0001012000D01*
X0001363000Y0001011700D01*
X0001362100Y0001010899D01*
X0001362000Y0001010799D01*
X0001361900Y0001010699D01*
X0001361800Y0001010600D01*
X0001361599Y0001010400D01*
X0001361500Y0001010300D01*
X0001361399Y0001010100D01*
X0001361300Y0001010100D01*
X0001357500Y0001006400D01*
X0001354399Y0001003100D01*
X0001350600Y0000997500D01*
X0001347400Y0000992000D01*
X0001342500Y0000983200D01*
X0001342399Y0000983000D01*
X0001342199Y0000982700D01*
X0001342100Y0000982500D01*
X0001341800Y0000982000D01*
X0001341700Y0000981800D01*
X0001341500Y0000981500D01*
X0001341400Y0000981400D01*
X0001336799Y0000973600D01*
X0001336599Y0000973300D01*
X0001336300Y0000972800D01*
X0001336199Y0000972500D01*
X0001335600Y0000971700D01*
X0001335500Y0000971400D01*
X0001335100Y0000971000D01*
X0001335000Y0000970700D01*
X0001330300Y0000963700D01*
X0001330100Y0000963400D01*
X0001329700Y0000962900D01*
X0001329500Y0000962500D01*
X0001328900Y0000961600D01*
X0001328600Y0000961300D01*
X0001328200Y0000960800D01*
X0001328000Y0000960400D01*
X0001322800Y0000953500D01*
X0001322600Y0000953200D01*
X0001322200Y0000952800D01*
X0001322000Y0000952600D01*
X0001321500Y0000951800D01*
X0001321300Y0000951600D01*
X0001320900Y0000951100D01*
X0001320700Y0000950900D01*
X0001314300Y0000943200D01*
X0001314200Y0000943100D01*
X0001314000Y0000942800D01*
X0001313800Y0000942600D01*
X0001313500Y0000942200D01*
X0001313300Y0000942000D01*
X0001313100Y0000941800D01*
X0001312999Y0000941600D01*
X0001304900Y0000932500D01*
X0001304800Y0000932400D01*
X0001304800Y0000932400D01*
X0001316100Y0000931400D01*
X0001316600Y0000931300D01*
X0001317400Y0000931200D01*
X0001317799Y0000931200D01*
X0001319100Y0000931000D01*
X0001319600Y0000931000D01*
X0001320400Y0000930800D01*
X0001320800Y0000930800D01*
X0001322000Y0000930600D01*
X0001322300Y0000930500D01*
X0001322800Y0000930400D01*
X0001323100Y0000930400D01*
X0001323999Y0000930200D01*
X0001324300Y0000930200D01*
X0001324799Y0000930100D01*
X0001325100Y0000930000D01*
X0001339600Y0000927100D01*
X0001340000Y0000927000D01*
X0001340700Y0000926800D01*
X0001341000Y0000926800D01*
X0001342100Y0000926500D01*
X0001342500Y0000926400D01*
X0001343100Y0000926300D01*
X0001343500Y0000926200D01*
X0001353400Y0000923500D01*
X0001355900Y0000922800D01*
X0001358300Y0000921700D01*
X0001366399Y0000917900D01*
X0001370900Y0000915200D01*
X0001371600Y0000914500D01*
X0001372000Y0000914300D01*
X0001374600Y0000912600D01*
X0001376400Y0000911400D01*
X0001379399Y0000909300D01*
X0001381100Y0000907900D01*
X0001383500Y0000905900D01*
X0001384300Y0000905200D01*
X0001385700Y0000903900D01*
X0001386400Y0000903200D01*
X0001387300Y0000902300D01*
X0001388000Y0000901500D01*
X0001389300Y0000900200D01*
X0001390000Y0000899400D01*
X0001391999Y0000897000D01*
X0001393400Y0000895300D01*
X0001395500Y0000892300D01*
X0001396700Y0000890500D01*
X0001398400Y0000887900D01*
X0001398900Y0000887000D01*
X0001399800Y0000885400D01*
X0001400200Y0000884700D01*
X0001402100Y0000882000D01*
X0001403300Y0000880200D01*
X0001405000Y0000877500D01*
X0001405500Y0000876600D01*
X0001406400Y0000875000D01*
X0001406900Y0000874000D01*
X0001407500Y0000872900D01*
X0001408000Y0000872000D01*
X0001408700Y0000870300D01*
X0001409199Y0000869300D01*
X0001410400Y0000866400D01*
X0001411100Y0000864400D01*
X0001412200Y0000860900D01*
X0001412800Y0000858800D01*
X0001413600Y0000855800D01*
X0001413800Y0000854800D01*
X0001414100Y0000852900D01*
X0001414300Y0000851900D01*
X0001414500Y0000850600D01*
X0001414600Y0000850000D01*
X0001414800Y0000848900D01*
X0001414800Y0000848300D01*
X0001414999Y0000846500D01*
X0001415199Y0000845300D01*
X0001415300Y0000843100D01*
X0001415399Y0000841900D01*
X0001415399Y0000840100D01*
X0001415399Y0000839400D01*
X0001415399Y0000838400D01*
X0001415399Y0000837700D01*
X0001414800Y0000815400D01*
X0001414800Y0000815300D01*
X0001414800Y0000815300D01*
X0001414800Y0000815000D01*
X0001414500Y0000805200D01*
X0001414500Y0000805000D01*
X0001414500Y0000804600D01*
X0001414500Y0000804400D01*
X0001414400Y0000803700D01*
X0001414400Y0000803500D01*
X0001414400Y0000803100D01*
X0001414400Y0000802900D01*
X0001414000Y0000796200D01*
X0001413900Y0000795500D01*
X0001413800Y0000794400D01*
X0001413700Y0000793800D01*
X0001413500Y0000792000D01*
X0001413500Y0000791300D01*
X0001413300Y0000790200D01*
X0001413200Y0000789599D01*
X0001413000Y0000788400D01*
X0001413000Y0000788300D01*
X0001413000Y0000788200D01*
X0001413000Y0000788100D01*
X0001412900Y0000787800D01*
X0001412900Y0000787700D01*
X0001412900Y0000787600D01*
X0001412900Y0000787500D01*
X0001412100Y0000783100D01*
X0001412000Y0000782300D01*
X0001411700Y0000781000D01*
X0001411600Y0000780300D01*
X0001411100Y0000778100D01*
X0001410700Y0000776600D01*
X0001409999Y0000774100D01*
X0001409500Y0000772600D01*
X0001408799Y0000770600D01*
X0001408500Y0000769800D01*
X0001408000Y0000768599D01*
X0001407700Y0000767900D01*
X0001406400Y0000764700D01*
X0001406200Y0000764200D01*
X0001405900Y0000763400D01*
X0001405600Y0000762900D01*
X0001405000Y0000761500D01*
X0001404800Y0000761000D01*
X0001404400Y0000760200D01*
X0001404100Y0000759700D01*
X0001403599Y0000758600D01*
X0001403300Y0000758100D01*
X0001402799Y0000757200D01*
X0001402500Y0000756700D01*
X0001401700Y0000755200D01*
X0001401100Y0000754100D01*
X0001400000Y0000752400D01*
X0001399300Y0000751400D01*
X0001398400Y0000749999D01*
X0001397999Y0000749500D01*
X0001397399Y0000748700D01*
X0001397100Y0000748200D01*
X0001395000Y0000745500D01*
X0001394600Y0000744900D01*
X0001393800Y0000743900D01*
X0001393400Y0000743400D01*
X0001392100Y0000741800D01*
X0001391599Y0000741299D01*
X0001390799Y0000740400D01*
X0001390300Y0000739900D01*
X0001388600Y0000737999D01*
X0001388400Y0000737800D01*
X0001388100Y0000737500D01*
X0001387900Y0000737300D01*
X0001387400Y0000736800D01*
X0001387200Y0000736600D01*
X0001386900Y0000736300D01*
X0001386800Y0000736100D01*
X0001385900Y0000735199D01*
X0001385700Y0000734999D01*
X0001385300Y0000734700D01*
X0001385100Y0000734500D01*
X0001384900Y0000734200D01*
X0001384900Y0000733400D01*
X0001384900Y0000731000D01*
X0001384900Y0000729600D01*
X0001384799Y0000727500D01*
X0001384799Y0000726800D01*
X0001384700Y0000725600D01*
X0001384599Y0000724900D01*
X0001384100Y0000719100D01*
X0001384100Y0000718600D01*
X0001384000Y0000717900D01*
X0001383900Y0000717400D01*
X0001383800Y0000716200D01*
X0001383700Y0000715700D01*
X0001383600Y0000715000D01*
X0001383500Y0000714500D01*
X0001383300Y0000713300D01*
X0001383200Y0000712600D01*
X0001383000Y0000711300D01*
X0001382800Y0000710599D01*
X0001382400Y0000708500D01*
X0001382200Y0000707799D01*
X0001381900Y0000706600D01*
X0001381700Y0000705900D01*
X0001380400Y0000701100D01*
X0001380200Y0000700400D01*
X0001379900Y0000699200D01*
X0001379700Y0000698499D01*
X0001378999Y0000696600D01*
X0001378599Y0000695299D01*
X0001377700Y0000692999D01*
X0001377200Y0000691700D01*
X0001376300Y0000689799D01*
X0001376000Y0000689199D01*
X0001375500Y0000688100D01*
X0001375200Y0000687400D01*
X0001374600Y0000686299D01*
X0001374100Y0000685400D01*
X0001373199Y0000683799D01*
X0001372700Y0000682800D01*
X0001371100Y0000680199D01*
X0001369800Y0000678400D01*
X0001367700Y0000675400D01*
X0001366300Y0000673700D01*
X0001364300Y0000671299D01*
X0001363600Y0000670500D01*
X0001362300Y0000669200D01*
X0001361599Y0000668399D01*
X0001360700Y0000667500D01*
X0001360399Y0000667200D01*
X0001359900Y0000666700D01*
X0001359600Y0000666400D01*
X0001358700Y0000665499D01*
X0001358300Y0000665199D01*
X0001357800Y0000664700D01*
X0001357400Y0000664400D01*
X0001355599Y0000662800D01*
X0001353600Y0000661200D01*
X0001351300Y0000659700D01*
X0001348900Y0000658300D01*
X0001348900Y0000658300D01*
X0001347100Y0000657100D01*
X0001343900Y0000655100D01*
X0001341999Y0000654100D01*
X0001341700Y0000653900D01*
X0001342599Y0000649300D01*
X0001344400Y0000641900D01*
X0001346000Y0000640899D01*
X0001357100Y0000634400D01*
X0001365900Y0000629700D01*
X0001386200Y0000618900D01*
X0001387100Y0000618400D01*
X0001388700Y0000617500D01*
X0001389500Y0000617000D01*
X0001391999Y0000615400D01*
X0001393700Y0000614200D01*
X0001396500Y0000612200D01*
X0001398100Y0000610900D01*
X0001400300Y0000609000D01*
X0001401100Y0000608300D01*
X0001402400Y0000607100D01*
X0001403100Y0000606400D01*
X0001403999Y0000605500D01*
X0001404700Y0000604700D01*
X0001406000Y0000603400D01*
X0001406700Y0000602600D01*
X0001408700Y0000600200D01*
X0001410100Y0000598500D01*
X0001412200Y0000595600D01*
X0000126800Y0000920500D02*
X0000126800Y0000920600D01*
X0000126700Y0000920600D01*
X0000126700Y0000920700D01*
X0000126599Y0000920800D01*
X0000126599Y0000920800D01*
X0000121000Y0000927700D01*
X0000121000Y0000927800D01*
X0000121000Y0000927800D01*
X0000121000Y0000927800D01*
X0000120900Y0000927900D01*
X0000120900Y0000927900D01*
X0000120900Y0000927900D01*
X0000120900Y0000927900D01*
X0000112100Y0000938900D01*
X0000112100Y0000938900D01*
X0000112000Y0000939000D01*
X0000112000Y0000939000D01*
X0000111900Y0000939100D01*
X0000111900Y0000939100D01*
X0000104200Y0000948900D01*
X0000104100Y0000949000D01*
X0000104000Y0000949100D01*
X0000104000Y0000949200D01*
X0000103900Y0000949300D01*
X0000103900Y0000949300D01*
X0000103900Y0000949300D01*
X0000101400Y0000952400D01*
X0000098500Y0000942900D01*
X0000094500Y0000928500D01*
X0000090700Y0000914100D01*
X0000087299Y0000899500D01*
X0000084200Y0000884900D01*
X0000081400Y0000870200D01*
X0000078900Y0000855500D01*
X0000076700Y0000840700D01*
X0000076500Y0000839000D01*
X0000077200Y0000839900D01*
X0000078300Y0000841600D01*
X0000080499Y0000844600D01*
X0000081800Y0000846300D01*
X0000083800Y0000848600D01*
X0000084600Y0000849400D01*
X0000085799Y0000850800D01*
X0000086599Y0000851600D01*
X0000086900Y0000851900D01*
X0000088499Y0000853400D01*
X0000091300Y0000855800D01*
X0000092999Y0000857100D01*
X0000094400Y0000858100D01*
X0000095100Y0000858800D01*
X0000102100Y0000863600D01*
X0000104100Y0000864900D01*
X0000106300Y0000866000D01*
X0000109100Y0000867300D01*
X0000109900Y0000867700D01*
X0000111300Y0000868200D01*
X0000112200Y0000868600D01*
X0000114600Y0000869500D01*
X0000115400Y0000869800D01*
X0000116900Y0000870300D01*
X0000117800Y0000870600D01*
X0000123600Y0000872400D01*
X0000123900Y0000872500D01*
X0000124300Y0000872600D01*
X0000124600Y0000872700D01*
X0000125400Y0000872900D01*
X0000125599Y0000873000D01*
X0000126099Y0000873100D01*
X0000126400Y0000873200D01*
X0000134500Y0000875300D01*
X0000134600Y0000875400D01*
X0000134800Y0000875400D01*
X0000135000Y0000875500D01*
X0000135400Y0000875600D01*
X0000135600Y0000875600D01*
X0000135800Y0000875700D01*
X0000136000Y0000875700D01*
X0000145500Y0000878000D01*
X0000145700Y0000878000D01*
X0000145900Y0000878100D01*
X0000146000Y0000878100D01*
X0000146400Y0000878200D01*
X0000146500Y0000878200D01*
X0000146700Y0000878300D01*
X0000146800Y0000878300D01*
X0000156900Y0000880500D01*
X0000157100Y0000880600D01*
X0000157300Y0000880600D01*
X0000157400Y0000880600D01*
X0000157700Y0000880700D01*
X0000157899Y0000880700D01*
X0000158100Y0000880800D01*
X0000158200Y0000880800D01*
X0000160900Y0000881300D01*
X0000160000Y0000882300D01*
X0000159800Y0000882400D01*
X0000159800Y0000882500D01*
X0000159499Y0000882700D01*
X0000159400Y0000882800D01*
X0000159300Y0000883000D01*
X0000159200Y0000883100D01*
X0000153900Y0000888500D01*
X0000153700Y0000888800D01*
X0000153300Y0000889200D01*
X0000153100Y0000889400D01*
X0000152500Y0000890000D01*
X0000152300Y0000890200D01*
X0000152000Y0000890600D01*
X0000151700Y0000890800D01*
X0000145600Y0000897800D01*
X0000145400Y0000898000D01*
X0000145200Y0000898200D01*
X0000145100Y0000898400D01*
X0000144800Y0000898800D01*
X0000144600Y0000898900D01*
X0000144400Y0000899100D01*
X0000144300Y0000899300D01*
X0000136800Y0000908300D01*
X0000136700Y0000908400D01*
X0000136600Y0000908500D01*
X0000136500Y0000908600D01*
X0000136400Y0000908800D01*
X0000136300Y0000908800D01*
X0000136200Y0000909000D01*
X0000136100Y0000909100D01*
X0000126800Y0000920500D01*
X0000126800Y0000920500D01*
X0000096000Y0000567000D02*
X0000120200Y0000587900D01*
X0000133100Y0000599100D01*
X0000137700Y0000603200D01*
X0000134800Y0000604300D01*
X0000128700Y0000607700D01*
X0000123600Y0000612400D01*
X0000120100Y0000616700D01*
X0000113200Y0000623300D01*
X0000107100Y0000631799D01*
X0000106300Y0000635199D01*
X0000105800Y0000635800D01*
X0000104500Y0000638099D01*
X0000100200Y0000645900D01*
X0000098100Y0000650800D01*
X0000097000Y0000655899D01*
X0000095900Y0000664800D01*
X0000095699Y0000667400D01*
X0000095800Y0000670000D01*
X0000096700Y0000683000D01*
X0000096500Y0000683199D01*
X0000096400Y0000683299D01*
X0000096000Y0000683799D01*
X0000095800Y0000683899D01*
X0000095600Y0000684200D01*
X0000095500Y0000684300D01*
X0000086700Y0000693600D01*
X0000086199Y0000694200D01*
X0000085300Y0000695200D01*
X0000084800Y0000695799D01*
X0000083400Y0000697500D01*
X0000082900Y0000698100D01*
X0000081999Y0000699100D01*
X0000081599Y0000699800D01*
X0000077200Y0000705600D01*
X0000076500Y0000706500D01*
X0000075400Y0000708200D01*
X0000074800Y0000709200D01*
X0000073000Y0000712000D01*
X0000072400Y0000713000D01*
X0000071800Y0000714099D01*
X0000072200Y0000706500D01*
X0000073300Y0000691600D01*
X0000074800Y0000676700D01*
X0000076600Y0000661899D01*
X0000078700Y0000647099D01*
X0000081100Y0000632400D01*
X0000083899Y0000617700D01*
X0000086900Y0000603000D01*
X0000090300Y0000588500D01*
X0000094100Y0000574000D01*
X0000096000Y0000567000D01*
X0001290500Y0000337900D02*
X0001297100Y0000346600D01*
X0001305799Y0000358700D01*
X0001314300Y0000371000D01*
X0001322500Y0000383500D01*
X0001330399Y0000396100D01*
X0001335400Y0000404400D01*
X0001332300Y0000402900D01*
X0001330399Y0000402500D01*
X0001330300Y0000402500D01*
X0001329799Y0000401600D01*
X0001328200Y0000398900D01*
X0001327000Y0000397100D01*
X0001324799Y0000394100D01*
X0001323400Y0000392400D01*
X0001321400Y0000390100D01*
X0001320700Y0000389300D01*
X0001319500Y0000387900D01*
X0001318700Y0000387100D01*
X0001317799Y0000386200D01*
X0001317300Y0000385699D01*
X0001316400Y0000384900D01*
X0001315800Y0000384299D01*
X0001314300Y0000382900D01*
X0001313100Y0000382000D01*
X0001311100Y0000380400D01*
X0001309900Y0000379500D01*
X0001308200Y0000378199D01*
X0001307600Y0000377800D01*
X0001306500Y0000377100D01*
X0001305900Y0000376699D01*
X0001299599Y0000372600D01*
X0001299500Y0000372600D01*
X0001297900Y0000370499D01*
X0001293000Y0000361900D01*
X0001290700Y0000356999D01*
X0001287500Y0000350300D01*
X0001286400Y0000348100D01*
X0001285300Y0000346399D01*
X0001285700Y0000345900D01*
X0001285800Y0000345700D01*
X0001286100Y0000345200D01*
X0001286300Y0000344999D01*
X0001286300Y0000344999D01*
X0001286600Y0000344599D01*
X0001287000Y0000343900D01*
X0001287200Y0000343600D01*
X0001287900Y0000342400D01*
X0001288100Y0000342100D01*
X0001288500Y0000341400D01*
X0001288799Y0000341000D01*
X0001290500Y0000337900D01*
X0001086700Y0000159900D02*
X0001099100Y0000167099D01*
X0001111900Y0000174900D01*
X0001124400Y0000182999D01*
X0001126600Y0000184499D01*
X0001125400Y0000184300D01*
X0001122700Y0000184100D01*
X0001120000Y0000184100D01*
X0001119100Y0000184200D01*
X0001118100Y0000184000D01*
X0001115500Y0000183799D01*
X0001112900Y0000183699D01*
X0001098800Y0000184400D01*
X0001098100Y0000184400D01*
X0001096900Y0000184499D01*
X0001096200Y0000184599D01*
X0001095100Y0000184700D01*
X0001094300Y0000181900D01*
X0001093800Y0000179100D01*
X0001091400Y0000170199D01*
X0001090500Y0000167600D01*
X0001089400Y0000165200D01*
X0001086700Y0000159900D01*
D13*
X0000945500Y0001358400D02*
X0000945700Y0001358500D01*
X0000946200Y0001358700D01*
X0000947800Y0001359300D01*
X0000948300Y0001359500D01*
X0000949200Y0001359900D01*
X0000949700Y0001360100D01*
X0000952400Y0001360999D01*
X0000953000Y0001361199D01*
X0000953900Y0001361500D01*
X0000954400Y0001361700D01*
X0000956100Y0001362200D01*
X0000956600Y0001362400D01*
X0000957600Y0001362700D01*
X0000958100Y0001362800D01*
X0000967100Y0001365300D01*
X0000966200Y0001365800D01*
X0000965900Y0001366000D01*
X0000965500Y0001366300D01*
X0000965200Y0001366399D01*
X0000964400Y0001366900D01*
X0000964100Y0001366999D01*
X0000963700Y0001367300D01*
X0000963400Y0001367500D01*
X0000962000Y0001368300D01*
X0000961800Y0001368400D01*
X0000961300Y0001368700D01*
X0000961000Y0001368900D01*
X0000960200Y0001369400D01*
X0000960000Y0001369600D01*
X0000959500Y0001369900D01*
X0000959300Y0001370000D01*
X0000950900Y0001375400D01*
X0000950100Y0001372200D01*
X0000949200Y0001369200D01*
X0000947900Y0001366399D01*
X0000947600Y0001365600D01*
X0000947500Y0001365300D01*
X0000947100Y0001363900D01*
X0000945500Y0001358400D01*
X0000481600Y0001335600D02*
X0000481700Y0001335800D01*
X0000482500Y0001338700D01*
X0000483400Y0001341200D01*
X0000482300Y0001340700D01*
X0000474600Y0001337100D01*
X0000481600Y0001335600D01*
X0001366399Y0000952400D02*
X0001364400Y0000958400D01*
X0001363900Y0000957500D01*
X0001363700Y0000957300D01*
X0001363600Y0000957000D01*
X0001363500Y0000956800D01*
X0001363200Y0000956300D01*
X0001363100Y0000956200D01*
X0001362900Y0000955900D01*
X0001362800Y0000955700D01*
X0001362300Y0000954900D01*
X0001362200Y0000954700D01*
X0001362000Y0000954400D01*
X0001361900Y0000954300D01*
X0001361599Y0000953900D01*
X0001362900Y0000953600D01*
X0001365400Y0000952800D01*
X0001366399Y0000952400D01*
X0001391100Y0000651900D02*
X0001391500Y0000654800D01*
X0001391100Y0000654200D01*
X0001390300Y0000653199D01*
X0001389800Y0000652600D01*
X0001391100Y0000651900D01*
G04 next file*
%LPD*%
G04 #@! TF.GenerationSoftware,KiCad,Pcbnew,(5.1.4)-1*
G04 #@! TF.CreationDate,2019-09-21T21:19:18-07:00*
G04 #@! TF.ProjectId,rudd_keychain_v2,72756464-5f6b-4657-9963-6861696e5f76,A*
G04 #@! TF.SameCoordinates,Original*
G04 #@! TF.FileFunction,Legend,Top*
G04 #@! TF.FilePolarity,Positive*
G04 Gerber Fmt 4.6, Leading zero omitted, Abs format (unit mm)*
G04 Created by KiCad (PCBNEW (5.1.4)-1) date 2019-09-21 21:19:18*
G04 APERTURE LIST*
G04 APERTURE END LIST*
M02*