G04 #@! TF.GenerationSoftware,KiCad,Pcbnew,(5.1.4)-1*
G04 #@! TF.CreationDate,2019-09-21T21:19:18-07:00*
G04 #@! TF.ProjectId,rudd_keychain_v2,72756464-5f6b-4657-9963-6861696e5f76,A*
G04 #@! TF.SameCoordinates,Original*
G04 #@! TF.FileFunction,Soldermask,Bot*
G04 #@! TF.FilePolarity,Negative*
%FSLAX46Y46*%
G04 Gerber Fmt 4.6, Leading zero omitted, Abs format (unit mm)*
G04 Created by KiCad (PCBNEW (5.1.4)-1) date 2019-09-21 21:19:18*
%MOMM*%
%LPD*%
G04 APERTURE LIST*
%ADD10C,0.010000*%
%ADD11C,0.100000*%
G04 APERTURE END LIST*
D10*
G36*
X130956655Y-94692890D02*
G01*
X130938455Y-94805934D01*
X130924118Y-94982639D01*
X130916708Y-95185069D01*
X130916664Y-95188188D01*
X130921907Y-95418483D01*
X130950852Y-95592588D01*
X131012104Y-95754783D01*
X131036472Y-95804599D01*
X131189534Y-96031500D01*
X131389585Y-96221554D01*
X131611451Y-96356177D01*
X131829958Y-96416784D01*
X131867908Y-96418399D01*
X132005013Y-96429716D01*
X132093788Y-96457923D01*
X132104961Y-96468488D01*
X132099091Y-96537593D01*
X132049922Y-96658712D01*
X132006359Y-96739651D01*
X131903215Y-96969187D01*
X131884558Y-97180091D01*
X131951849Y-97397571D01*
X132054600Y-97572774D01*
X132160375Y-97748978D01*
X132214860Y-97905114D01*
X132219977Y-98070760D01*
X132177648Y-98275492D01*
X132113519Y-98479602D01*
X132076490Y-98593211D01*
X132048404Y-98696869D01*
X132028344Y-98805961D01*
X132015395Y-98935872D01*
X132008640Y-99101987D01*
X132007164Y-99319691D01*
X132010050Y-99604370D01*
X132016382Y-99971410D01*
X132018387Y-100077335D01*
X132042136Y-101323271D01*
X131887834Y-101626735D01*
X131790370Y-101803573D01*
X131692043Y-101958347D01*
X131625087Y-102044822D01*
X131504218Y-102156708D01*
X131380833Y-102246729D01*
X131281573Y-102297545D01*
X131236683Y-102297616D01*
X131203284Y-102216084D01*
X131172982Y-102054889D01*
X131147452Y-101835959D01*
X131128364Y-101581219D01*
X131117392Y-101312598D01*
X131116208Y-101052022D01*
X131125284Y-100837134D01*
X131142878Y-100284022D01*
X131113737Y-99769140D01*
X131039874Y-99309444D01*
X130923302Y-98921894D01*
X130888010Y-98838897D01*
X130772101Y-98611933D01*
X130668315Y-98471157D01*
X130585319Y-98410628D01*
X130485527Y-98366618D01*
X130439310Y-98348961D01*
X130432805Y-98394366D01*
X130428648Y-98508335D01*
X130428033Y-98564866D01*
X130400073Y-98753392D01*
X130313979Y-98990185D01*
X130224833Y-99176719D01*
X130129058Y-99355673D01*
X130046086Y-99495115D01*
X129989061Y-99573560D01*
X129976186Y-99583114D01*
X129934743Y-99545610D01*
X129880307Y-99438517D01*
X129849186Y-99356249D01*
X129805224Y-99244870D01*
X129747878Y-99153699D01*
X129658977Y-99064695D01*
X129520353Y-98959815D01*
X129313838Y-98821017D01*
X129303156Y-98814011D01*
X129068540Y-98649106D01*
X128872044Y-98489568D01*
X128735538Y-98353665D01*
X128706256Y-98315468D01*
X128574800Y-98122015D01*
X128574800Y-98338016D01*
X128554826Y-98503995D01*
X128503168Y-98709561D01*
X128449923Y-98861343D01*
X128374669Y-99082863D01*
X128314698Y-99323804D01*
X128291677Y-99463612D01*
X128277924Y-99646385D01*
X128293983Y-99779084D01*
X128349688Y-99911254D01*
X128397326Y-99995772D01*
X128468935Y-100132476D01*
X128505620Y-100232420D01*
X128504505Y-100264828D01*
X128445876Y-100264569D01*
X128310249Y-100240066D01*
X128118137Y-100195613D01*
X127901433Y-100138657D01*
X127608931Y-100061262D01*
X127320855Y-99991263D01*
X127059207Y-99933454D01*
X126845990Y-99892633D01*
X126703206Y-99873595D01*
X126681777Y-99872800D01*
X126693564Y-99903623D01*
X126766518Y-99985062D01*
X126885573Y-100100564D01*
X126907381Y-100120632D01*
X127120205Y-100351762D01*
X127330828Y-100657741D01*
X127453377Y-100869932D01*
X127584610Y-101104984D01*
X127701967Y-101301277D01*
X127819677Y-101477822D01*
X127951965Y-101653626D01*
X128113060Y-101847701D01*
X128317186Y-102079055D01*
X128551043Y-102336600D01*
X128807816Y-102627700D01*
X128999884Y-102875578D01*
X129139097Y-103103810D01*
X129237302Y-103335973D01*
X129306349Y-103595645D01*
X129358085Y-103906401D01*
X129364656Y-103955586D01*
X129460509Y-104451254D01*
X129620274Y-104921820D01*
X129702325Y-105113862D01*
X129779774Y-105267632D01*
X129868685Y-105405682D01*
X129985120Y-105550564D01*
X130145141Y-105724831D01*
X130322749Y-105908132D01*
X130645818Y-106219887D01*
X130981930Y-106511612D01*
X131315208Y-106771580D01*
X131629774Y-106988067D01*
X131909753Y-107149345D01*
X132125612Y-107239642D01*
X132320058Y-107290795D01*
X132564871Y-107343704D01*
X132809600Y-107387543D01*
X132827719Y-107390342D01*
X133245238Y-107453928D01*
X133703854Y-107270370D01*
X134003904Y-107132919D01*
X134355114Y-106939449D01*
X134763135Y-106686460D01*
X135233617Y-106370450D01*
X135763000Y-105994601D01*
X135975933Y-105843058D01*
X136174956Y-105706574D01*
X136337124Y-105600573D01*
X136436100Y-105542176D01*
X136601200Y-105458190D01*
X136601200Y-105632854D01*
X136596088Y-105725088D01*
X136567082Y-105788362D01*
X136493683Y-105840928D01*
X136355387Y-105901034D01*
X136257424Y-105938882D01*
X136103933Y-106003382D01*
X135969662Y-106077290D01*
X135833934Y-106176095D01*
X135676069Y-106315285D01*
X135475391Y-106510349D01*
X135418577Y-106567181D01*
X135191409Y-106801943D01*
X135028388Y-106988260D01*
X134916092Y-107143307D01*
X134841099Y-107284257D01*
X134822553Y-107329803D01*
X134766863Y-107483855D01*
X134730198Y-107599635D01*
X134721600Y-107640309D01*
X134762327Y-107703021D01*
X134874825Y-107712749D01*
X135044572Y-107670137D01*
X135165859Y-107620630D01*
X135348335Y-107539901D01*
X135457919Y-107504268D01*
X135513102Y-107514423D01*
X135532373Y-107571058D01*
X135534400Y-107634409D01*
X135505355Y-107750510D01*
X135410492Y-107888636D01*
X135287578Y-108019130D01*
X135155653Y-108155123D01*
X135085667Y-108250800D01*
X135063377Y-108333067D01*
X135073471Y-108423621D01*
X135126921Y-108541380D01*
X135232447Y-108597340D01*
X135398305Y-108591889D01*
X135632750Y-108525416D01*
X135805781Y-108458068D01*
X136185885Y-108299830D01*
X136269778Y-107909015D01*
X136311455Y-107717572D01*
X136346050Y-107563585D01*
X136367244Y-107475070D01*
X136369407Y-107467400D01*
X136395723Y-107486045D01*
X136452282Y-107579699D01*
X136528630Y-107730275D01*
X136559639Y-107796445D01*
X136734135Y-108176290D01*
X137146523Y-107569000D01*
X137121217Y-106954684D01*
X137111977Y-106692151D01*
X137110847Y-106513794D01*
X137119360Y-106402405D01*
X137139049Y-106340773D01*
X137171445Y-106311690D01*
X137178756Y-106308579D01*
X137232331Y-106305458D01*
X137256590Y-106364845D01*
X137261600Y-106481089D01*
X137309011Y-106724593D01*
X137379357Y-106858684D01*
X137497114Y-107031979D01*
X137604413Y-106811126D01*
X137658860Y-106684630D01*
X137686030Y-106567132D01*
X137689686Y-106423456D01*
X137673589Y-106218425D01*
X137670776Y-106190636D01*
X137629841Y-105791000D01*
X137795609Y-105619758D01*
X137961376Y-105448517D01*
X138221037Y-105594358D01*
X138376189Y-105691548D01*
X138456156Y-105773085D01*
X138480600Y-105859732D01*
X138480749Y-105868633D01*
X138448489Y-106026752D01*
X138353841Y-106256113D01*
X138200145Y-106550485D01*
X137990743Y-106903635D01*
X137728974Y-107309332D01*
X137628472Y-107458375D01*
X137435275Y-107745556D01*
X137292429Y-107968457D01*
X137190380Y-108144856D01*
X137119575Y-108292534D01*
X137070460Y-108429270D01*
X137036267Y-108560467D01*
X136994879Y-108772766D01*
X136966136Y-108978167D01*
X136956800Y-109115728D01*
X136956800Y-109321600D01*
X134061200Y-109321600D01*
X134061200Y-115647888D01*
X134061201Y-121974177D01*
X134183000Y-122214536D01*
X134304245Y-122425496D01*
X134458498Y-122653963D01*
X134625261Y-122872961D01*
X134784035Y-123055512D01*
X134910308Y-123171721D01*
X135123423Y-123305905D01*
X135420656Y-123459722D01*
X135787764Y-123627352D01*
X136210504Y-123802978D01*
X136674635Y-123980780D01*
X137165912Y-124154941D01*
X137670094Y-124319643D01*
X137871200Y-124381275D01*
X138388312Y-124537955D01*
X138817900Y-124671561D01*
X139170368Y-124786096D01*
X139456117Y-124885566D01*
X139685550Y-124973972D01*
X139869068Y-125055319D01*
X140017074Y-125133611D01*
X140139970Y-125212851D01*
X140246192Y-125295386D01*
X140354554Y-125377177D01*
X140432486Y-125419413D01*
X140443934Y-125421113D01*
X140505541Y-125400553D01*
X140639863Y-125347833D01*
X140826397Y-125271200D01*
X141020800Y-125189101D01*
X141289413Y-125078482D01*
X141531713Y-124990168D01*
X141770376Y-124918576D01*
X142028077Y-124858126D01*
X142327488Y-124803237D01*
X142691286Y-124748327D01*
X142960643Y-124711622D01*
X143498033Y-124633267D01*
X143968215Y-124547576D01*
X144405581Y-124446658D01*
X144844519Y-124322619D01*
X145295041Y-124175924D01*
X145924560Y-123945230D01*
X146463536Y-123712417D01*
X146922904Y-123470410D01*
X147313600Y-123212133D01*
X147646561Y-122930512D01*
X147932721Y-122618474D01*
X148139607Y-122335715D01*
X148386344Y-121964031D01*
X148399272Y-116519115D01*
X148411863Y-111216052D01*
X145999200Y-111216052D01*
X145984586Y-111278707D01*
X145929652Y-111338528D01*
X145817760Y-111407472D01*
X145632273Y-111497499D01*
X145565251Y-111527947D01*
X145302052Y-111664604D01*
X145083467Y-111813433D01*
X144924541Y-111961697D01*
X144840320Y-112096664D01*
X144830800Y-112149605D01*
X144793063Y-112208690D01*
X144693560Y-112307201D01*
X144552854Y-112425026D01*
X144535114Y-112438787D01*
X144312798Y-112626870D01*
X144135086Y-112810916D01*
X144015494Y-112974904D01*
X143967541Y-113102812D01*
X143967200Y-113111903D01*
X143931797Y-113197279D01*
X143842246Y-113311016D01*
X143789400Y-113363444D01*
X143661065Y-113512610D01*
X143611746Y-113646077D01*
X143611600Y-113652603D01*
X143570420Y-113775255D01*
X143439663Y-113894879D01*
X143432507Y-113899751D01*
X143311046Y-114005501D01*
X143230967Y-114118694D01*
X143221087Y-114145708D01*
X143212310Y-114303803D01*
X143241912Y-114513742D01*
X143301205Y-114737329D01*
X143381501Y-114936369D01*
X143414358Y-114995438D01*
X143512557Y-115113038D01*
X143675513Y-115265364D01*
X143880815Y-115434947D01*
X144106050Y-115604315D01*
X144328808Y-115756000D01*
X144526677Y-115872532D01*
X144563359Y-115891093D01*
X144699971Y-115952549D01*
X144792766Y-115968935D01*
X144887859Y-115942450D01*
X144958782Y-115909962D01*
X145107852Y-115852953D01*
X145239666Y-115824674D01*
X145255667Y-115824000D01*
X145352942Y-115858446D01*
X145490523Y-115948211D01*
X145645687Y-116072934D01*
X145795715Y-116212257D01*
X145917883Y-116345818D01*
X145989471Y-116453258D01*
X145999200Y-116490256D01*
X145959797Y-116589540D01*
X145862854Y-116628407D01*
X145740277Y-116594635D01*
X145735055Y-116591453D01*
X145679170Y-116561643D01*
X145681807Y-116585912D01*
X145745147Y-116676650D01*
X145751595Y-116685384D01*
X145822727Y-116815583D01*
X145805937Y-116897730D01*
X145699588Y-116933951D01*
X145561395Y-116932365D01*
X145429834Y-116929914D01*
X145360834Y-116965088D01*
X145316785Y-117058551D01*
X145313400Y-117068600D01*
X145232781Y-117198207D01*
X145121204Y-117237896D01*
X145000759Y-117183956D01*
X144950590Y-117129531D01*
X144881202Y-117047910D01*
X144823830Y-117039706D01*
X144732286Y-117098822D01*
X144730106Y-117100417D01*
X144585107Y-117166838D01*
X144460671Y-117154726D01*
X144380505Y-117070639D01*
X144364074Y-116999175D01*
X144352759Y-116840207D01*
X144345517Y-116738400D01*
X144335825Y-116614859D01*
X144329644Y-116548631D01*
X144282204Y-116494325D01*
X144163880Y-116415370D01*
X143998308Y-116324376D01*
X143809124Y-116233954D01*
X143619966Y-116156714D01*
X143548980Y-116132131D01*
X143430203Y-116101373D01*
X143331522Y-116105875D01*
X143212699Y-116152563D01*
X143106601Y-116208269D01*
X142904813Y-116333609D01*
X142659807Y-116508796D01*
X142399792Y-116711421D01*
X142152978Y-116919078D01*
X141947574Y-117109359D01*
X141868670Y-117191585D01*
X141753556Y-117324325D01*
X141691267Y-117419652D01*
X141690336Y-117483737D01*
X141759299Y-117522755D01*
X141906688Y-117542879D01*
X142141039Y-117550281D01*
X142365829Y-117551200D01*
X143050458Y-117551200D01*
X143139446Y-117687013D01*
X143204988Y-117843398D01*
X143222244Y-118048051D01*
X143190726Y-118314089D01*
X143109943Y-118654627D01*
X143102209Y-118682381D01*
X143043829Y-118897437D01*
X143013139Y-119040420D01*
X143008103Y-119136410D01*
X143026685Y-119210490D01*
X143054798Y-119266581D01*
X143192067Y-119417015D01*
X143392668Y-119523224D01*
X143624660Y-119576267D01*
X143856101Y-119567206D01*
X143984608Y-119526798D01*
X144101497Y-119432820D01*
X144191281Y-119292974D01*
X144221200Y-119173697D01*
X144247030Y-119103177D01*
X144311350Y-118988099D01*
X144334644Y-118951515D01*
X144481655Y-118804090D01*
X144664249Y-118750755D01*
X144876230Y-118792985D01*
X144919700Y-118812117D01*
X145047361Y-118886909D01*
X145080633Y-118948395D01*
X145034000Y-118999000D01*
X144984870Y-119060537D01*
X145032342Y-119117091D01*
X145122900Y-119149852D01*
X145263235Y-119201335D01*
X145416235Y-119279551D01*
X145427700Y-119286503D01*
X145558135Y-119403101D01*
X145589938Y-119524802D01*
X145522743Y-119641681D01*
X145442955Y-119700609D01*
X145355665Y-119759560D01*
X145315787Y-119823830D01*
X145311478Y-119928248D01*
X145324043Y-120050301D01*
X145338049Y-120202183D01*
X145330180Y-120274396D01*
X145296136Y-120287337D01*
X145275427Y-120280951D01*
X145191663Y-120263942D01*
X145033913Y-120243951D01*
X144829602Y-120224208D01*
X144721240Y-120215637D01*
X144487265Y-120201329D01*
X144314146Y-120202662D01*
X144161663Y-120224936D01*
X143989600Y-120273450D01*
X143806810Y-120336133D01*
X143367020Y-120491418D01*
X143114517Y-120395474D01*
X142953357Y-120342681D01*
X142812520Y-120324220D01*
X142644272Y-120336536D01*
X142538307Y-120352574D01*
X142342544Y-120378526D01*
X142198271Y-120376028D01*
X142058385Y-120341163D01*
X141960600Y-120304528D01*
X141813821Y-120241906D01*
X141737946Y-120185428D01*
X141708948Y-120105034D01*
X141702987Y-119982219D01*
X141697813Y-119746060D01*
X141687232Y-119591055D01*
X141664756Y-119496764D01*
X141623899Y-119442747D01*
X141558177Y-119408565D01*
X141516100Y-119393274D01*
X141349193Y-119343965D01*
X141165950Y-119302189D01*
X141152306Y-119299678D01*
X141027189Y-119281934D01*
X140978883Y-119295024D01*
X140985322Y-119346426D01*
X140988587Y-119355162D01*
X140999013Y-119466829D01*
X140975169Y-119603653D01*
X140950357Y-119723639D01*
X140924554Y-119912818D01*
X140901843Y-120138912D01*
X140893259Y-120250796D01*
X140859744Y-120740593D01*
X140648172Y-120890068D01*
X140494032Y-120977552D01*
X140281784Y-121059178D01*
X139994011Y-121141132D01*
X139827000Y-121181690D01*
X139507594Y-121263184D01*
X139272184Y-121345909D01*
X139103981Y-121443963D01*
X138986201Y-121571443D01*
X138902054Y-121742445D01*
X138834756Y-121971067D01*
X138821597Y-122025991D01*
X138770408Y-122252419D01*
X138744452Y-122403847D01*
X138744405Y-122503867D01*
X138770944Y-122576066D01*
X138824748Y-122644034D01*
X138839807Y-122660225D01*
X138924451Y-122732299D01*
X139013223Y-122744591D01*
X139120801Y-122717987D01*
X139221616Y-122692886D01*
X139299217Y-122701157D01*
X139383651Y-122755426D01*
X139504966Y-122868319D01*
X139524794Y-122887745D01*
X139640174Y-123012899D01*
X139713985Y-123116390D01*
X139730233Y-123170326D01*
X139739750Y-123252308D01*
X139785101Y-123339690D01*
X139839008Y-123496261D01*
X139829766Y-123624922D01*
X139796839Y-123743146D01*
X139734869Y-123791038D01*
X139621499Y-123799600D01*
X139504882Y-123811595D01*
X139447298Y-123841041D01*
X139446000Y-123846771D01*
X139402565Y-123937394D01*
X139298838Y-124015933D01*
X139174686Y-124053256D01*
X139162972Y-124053600D01*
X139067682Y-124030703D01*
X139039745Y-123944184D01*
X139039600Y-123932820D01*
X139008457Y-123810594D01*
X138961564Y-123747275D01*
X138897117Y-123716016D01*
X138824204Y-123746162D01*
X138742884Y-123817255D01*
X138626893Y-123918652D01*
X138562535Y-123941061D01*
X138535669Y-123882931D01*
X138531600Y-123794092D01*
X138523113Y-123686650D01*
X138479655Y-123655535D01*
X138397276Y-123669898D01*
X138262952Y-123703612D01*
X138295032Y-123430666D01*
X138310248Y-123271060D01*
X138297993Y-123173568D01*
X138243189Y-123099465D01*
X138131474Y-123010560D01*
X137935488Y-122803236D01*
X137824394Y-122541331D01*
X137799299Y-122227740D01*
X137804791Y-122158160D01*
X137812756Y-121967360D01*
X137789623Y-121861895D01*
X137775991Y-121847749D01*
X137724629Y-121763668D01*
X137721874Y-121634482D01*
X137762747Y-121501401D01*
X137828183Y-121415912D01*
X137937566Y-121327339D01*
X137817474Y-121164905D01*
X137742871Y-121055549D01*
X137725531Y-120978437D01*
X137761008Y-120885098D01*
X137787274Y-120835550D01*
X137843071Y-120718781D01*
X137847200Y-120636007D01*
X137799677Y-120533754D01*
X137787384Y-120512191D01*
X137731952Y-120396344D01*
X137734619Y-120320592D01*
X137765221Y-120274277D01*
X137865389Y-120206420D01*
X137974471Y-120200655D01*
X138050955Y-120257737D01*
X138056030Y-120269000D01*
X138125669Y-120322764D01*
X138259976Y-120345389D01*
X138427231Y-120337855D01*
X138595713Y-120301148D01*
X138714823Y-120248582D01*
X138850687Y-120143820D01*
X138899540Y-120038525D01*
X138860415Y-119918642D01*
X138732345Y-119770116D01*
X138678428Y-119719677D01*
X138550627Y-119591336D01*
X138460963Y-119477601D01*
X138430000Y-119407828D01*
X138408869Y-119378176D01*
X138338949Y-119409555D01*
X138210450Y-119507049D01*
X138163300Y-119546330D01*
X137942474Y-119717512D01*
X137760605Y-119816256D01*
X137593022Y-119849334D01*
X137415055Y-119823518D01*
X137297031Y-119784105D01*
X137117925Y-119714874D01*
X136985928Y-119652521D01*
X136893606Y-119580865D01*
X136833522Y-119483729D01*
X136798242Y-119344935D01*
X136780332Y-119148304D01*
X136772356Y-118877659D01*
X136768687Y-118634428D01*
X136764531Y-118267599D01*
X136765424Y-117989739D01*
X136773172Y-117788271D01*
X136789578Y-117650614D01*
X136816448Y-117564191D01*
X136855587Y-117516423D01*
X136908798Y-117494731D01*
X136932773Y-117490749D01*
X137054411Y-117475000D01*
X136956626Y-117257618D01*
X136894393Y-117044348D01*
X136920498Y-116879340D01*
X137034482Y-116764175D01*
X137108909Y-116730889D01*
X137204588Y-116687004D01*
X137248970Y-116621032D01*
X137261281Y-116497910D01*
X137261600Y-116452398D01*
X137277508Y-116278072D01*
X137318572Y-116106080D01*
X137374806Y-115965173D01*
X137436226Y-115884105D01*
X137462208Y-115874800D01*
X137490854Y-115826667D01*
X137509356Y-115692306D01*
X137515600Y-115496798D01*
X137522264Y-115309799D01*
X137539857Y-115164707D01*
X137564778Y-115089399D01*
X137568634Y-115086019D01*
X137644506Y-115087867D01*
X137750842Y-115137880D01*
X137849314Y-115189489D01*
X137906603Y-115195912D01*
X137906965Y-115195568D01*
X137947869Y-115096510D01*
X137964026Y-114923253D01*
X137957755Y-114699527D01*
X137931370Y-114449063D01*
X137887189Y-114195590D01*
X137827527Y-113962841D01*
X137771838Y-113811181D01*
X137630921Y-113563091D01*
X137447872Y-113343520D01*
X137242768Y-113170041D01*
X137035686Y-113060222D01*
X136879216Y-113030000D01*
X136728865Y-113076255D01*
X136581966Y-113199994D01*
X136459803Y-113378680D01*
X136395109Y-113542672D01*
X136354890Y-113767540D01*
X136333316Y-114064706D01*
X136330042Y-114406658D01*
X136344722Y-114765884D01*
X136377013Y-115114873D01*
X136418207Y-115383757D01*
X136461741Y-115629495D01*
X136482755Y-115804123D01*
X136482479Y-115935319D01*
X136462142Y-116050758D01*
X136449798Y-116094957D01*
X136383742Y-116282144D01*
X136299428Y-116474954D01*
X136208666Y-116651516D01*
X136123264Y-116789959D01*
X136055031Y-116868410D01*
X136027245Y-116877588D01*
X135972948Y-116810680D01*
X135953602Y-116674469D01*
X135968698Y-116494860D01*
X136017727Y-116297760D01*
X136039834Y-116236910D01*
X136096930Y-116088065D01*
X136134765Y-115981778D01*
X136144000Y-115948398D01*
X136106429Y-115959170D01*
X136010783Y-116013723D01*
X135943733Y-116056689D01*
X135786901Y-116141671D01*
X135688311Y-116147007D01*
X135641734Y-116071573D01*
X135636000Y-116001242D01*
X135670133Y-115896821D01*
X135781270Y-115783671D01*
X135864600Y-115722400D01*
X136020078Y-115589737D01*
X136091862Y-115467727D01*
X136074353Y-115366904D01*
X136061510Y-115352043D01*
X136001545Y-115353969D01*
X135886648Y-115395495D01*
X135825481Y-115424599D01*
X135621142Y-115528845D01*
X135652257Y-115358922D01*
X135679139Y-115234982D01*
X135725116Y-115045162D01*
X135782298Y-114821536D01*
X135812086Y-114709082D01*
X135891630Y-114351291D01*
X135935024Y-114018207D01*
X135941084Y-113870882D01*
X135956997Y-113545782D01*
X136009459Y-113292585D01*
X136106429Y-113085703D01*
X136237064Y-112919317D01*
X136464665Y-112743639D01*
X136727052Y-112655022D01*
X137009762Y-112651661D01*
X137298334Y-112731753D01*
X137578304Y-112893491D01*
X137819319Y-113116776D01*
X137965055Y-113290788D01*
X138070195Y-113444931D01*
X138150962Y-113611064D01*
X138223577Y-113821045D01*
X138282353Y-114026124D01*
X138332363Y-114228281D01*
X138361973Y-114411614D01*
X138374118Y-114610522D01*
X138371733Y-114859400D01*
X138366203Y-115008757D01*
X138355421Y-115217159D01*
X138339373Y-115402563D01*
X138314022Y-115579383D01*
X138275331Y-115762028D01*
X138219262Y-115964911D01*
X138141778Y-116202441D01*
X138038841Y-116489031D01*
X137906414Y-116839092D01*
X137740460Y-117267035D01*
X137715936Y-117329848D01*
X137588491Y-117660742D01*
X137466181Y-117986770D01*
X137356803Y-118286506D01*
X137268156Y-118538522D01*
X137208037Y-118721391D01*
X137200991Y-118744823D01*
X137085743Y-119136549D01*
X137204700Y-119232874D01*
X137357692Y-119315127D01*
X137519434Y-119315177D01*
X137697068Y-119229773D01*
X137897738Y-119055665D01*
X138099742Y-118825644D01*
X138251503Y-118626913D01*
X138347257Y-118468534D01*
X138403343Y-118319529D01*
X138427847Y-118203640D01*
X138467805Y-117990296D01*
X138512422Y-117849755D01*
X138577312Y-117753813D01*
X138678088Y-117674265D01*
X138743173Y-117633991D01*
X138849762Y-117547586D01*
X138999732Y-117395630D01*
X139178357Y-117195915D01*
X139370910Y-116966232D01*
X139562664Y-116724373D01*
X139738893Y-116488130D01*
X139884869Y-116275294D01*
X139936515Y-116192314D01*
X140089154Y-115860283D01*
X140172459Y-115506832D01*
X140183942Y-115157687D01*
X140121114Y-114838577D01*
X140077836Y-114731800D01*
X140040373Y-114658486D01*
X140021542Y-114646855D01*
X140018635Y-114708808D01*
X140028945Y-114856250D01*
X140034496Y-114922300D01*
X140045550Y-115093681D01*
X140046732Y-115216628D01*
X140037821Y-115265164D01*
X140037445Y-115265200D01*
X140016783Y-115218739D01*
X139979493Y-115091987D01*
X139930728Y-114903890D01*
X139875645Y-114673395D01*
X139871466Y-114655203D01*
X139811000Y-114398814D01*
X139764778Y-114227110D01*
X139726859Y-114125202D01*
X139691298Y-114078199D01*
X139652155Y-114071214D01*
X139639665Y-114074426D01*
X139579146Y-114078090D01*
X139552001Y-114022388D01*
X139545567Y-113909723D01*
X139543533Y-113715800D01*
X139456667Y-113868200D01*
X139369800Y-114020600D01*
X139339981Y-113741200D01*
X139323116Y-113599265D01*
X139312053Y-113553722D01*
X139304694Y-113599671D01*
X139301881Y-113652300D01*
X139287004Y-113774857D01*
X139260510Y-113839716D01*
X139253125Y-113842800D01*
X139218955Y-113798275D01*
X139163528Y-113679801D01*
X139097072Y-113510026D01*
X139075334Y-113449100D01*
X139017234Y-113287092D01*
X138978305Y-113187709D01*
X138964118Y-113164689D01*
X138967175Y-113182400D01*
X139005799Y-113386927D01*
X139024310Y-113561937D01*
X139024944Y-113695435D01*
X139009935Y-113775431D01*
X138981518Y-113789930D01*
X138941926Y-113726941D01*
X138893819Y-113576100D01*
X138840584Y-113396693D01*
X138798397Y-113300747D01*
X138771767Y-113292288D01*
X138765201Y-113375345D01*
X138772428Y-113467649D01*
X138784099Y-113622340D01*
X138776072Y-113680421D01*
X138749589Y-113644698D01*
X138705896Y-113517980D01*
X138646234Y-113303074D01*
X138578064Y-113028847D01*
X138499826Y-112677918D01*
X138453022Y-112400467D01*
X138435937Y-112173931D01*
X138446857Y-111975749D01*
X138483550Y-111785400D01*
X138510116Y-111626203D01*
X138528152Y-111414950D01*
X138533464Y-111226600D01*
X138544881Y-110993087D01*
X138577555Y-110806425D01*
X138605617Y-110730328D01*
X138654923Y-110551176D01*
X138648817Y-110334946D01*
X138637079Y-110170857D01*
X138657206Y-110064417D01*
X138718754Y-109974153D01*
X138736380Y-109954918D01*
X138897482Y-109848712D01*
X139011752Y-109829600D01*
X139165380Y-109803572D01*
X139282733Y-109750213D01*
X139428232Y-109692940D01*
X139587522Y-109693623D01*
X139720544Y-109747832D01*
X139771077Y-109804200D01*
X139819468Y-109891954D01*
X139837870Y-109925136D01*
X139889493Y-109940648D01*
X140018363Y-109965765D01*
X140201096Y-109996124D01*
X140294073Y-110010246D01*
X140535447Y-110052060D01*
X140700991Y-110101827D01*
X140816294Y-110173565D01*
X140906946Y-110281292D01*
X140965089Y-110377819D01*
X141033049Y-110423270D01*
X141179028Y-110477462D01*
X141380797Y-110532624D01*
X141458365Y-110550264D01*
X141753165Y-110622628D01*
X141957052Y-110694518D01*
X142080543Y-110771280D01*
X142134159Y-110858258D01*
X142138400Y-110895803D01*
X142097740Y-111016286D01*
X141993275Y-111156451D01*
X141851280Y-111288987D01*
X141698031Y-111386585D01*
X141645950Y-111407650D01*
X141471107Y-111437922D01*
X141247544Y-111441364D01*
X141024008Y-111419823D01*
X140855700Y-111377748D01*
X140781253Y-111372405D01*
X140766800Y-111400222D01*
X140813784Y-111474278D01*
X140955472Y-111522010D01*
X141192973Y-111543594D01*
X141527394Y-111539204D01*
X141617700Y-111534564D01*
X141870218Y-111522035D01*
X142037547Y-111519587D01*
X142135702Y-111528342D01*
X142180700Y-111549422D01*
X142189200Y-111574612D01*
X142146126Y-111636902D01*
X142038194Y-111705622D01*
X141990001Y-111727072D01*
X141838834Y-111772852D01*
X141681685Y-111780944D01*
X141494701Y-111758282D01*
X141283320Y-111730386D01*
X141070585Y-111712711D01*
X140971815Y-111709494D01*
X140836594Y-111712755D01*
X140786220Y-111729001D01*
X140804016Y-111767209D01*
X140824590Y-111788760D01*
X140917422Y-111839466D01*
X141071730Y-111885376D01*
X141192993Y-111907518D01*
X141419380Y-111956117D01*
X141547276Y-112024934D01*
X141575988Y-112110618D01*
X141504819Y-112209818D01*
X141333077Y-112319181D01*
X141283342Y-112343513D01*
X141144364Y-112430471D01*
X141086009Y-112514881D01*
X141112710Y-112582930D01*
X141195937Y-112615861D01*
X141294402Y-112662916D01*
X141413212Y-112755185D01*
X141437065Y-112778049D01*
X141572555Y-112879115D01*
X141763656Y-112981345D01*
X141971907Y-113067878D01*
X142158847Y-113121853D01*
X142243538Y-113131600D01*
X142387179Y-113104657D01*
X142565987Y-113037017D01*
X142733488Y-112948459D01*
X142815047Y-112888362D01*
X142901304Y-112785728D01*
X142991064Y-112643799D01*
X143006415Y-112614865D01*
X143137108Y-112413558D01*
X143330813Y-112183381D01*
X143563822Y-111948394D01*
X143812424Y-111732658D01*
X144033633Y-111572442D01*
X144212865Y-111453079D01*
X144314667Y-111361559D01*
X144348061Y-111272347D01*
X144322066Y-111159912D01*
X144245702Y-110998718D01*
X144240165Y-110987822D01*
X144175708Y-110782804D01*
X144203303Y-110608395D01*
X144254474Y-110532100D01*
X144377086Y-110448771D01*
X144505741Y-110466362D01*
X144585500Y-110523273D01*
X144656058Y-110573311D01*
X144678298Y-110545358D01*
X144678400Y-110539973D01*
X144721479Y-110429371D01*
X144824303Y-110333240D01*
X144947261Y-110287265D01*
X144959454Y-110286800D01*
X145095198Y-110329121D01*
X145170591Y-110439949D01*
X145174440Y-110563725D01*
X145150524Y-110688835D01*
X145276913Y-110589417D01*
X145437915Y-110501776D01*
X145574064Y-110509116D01*
X145633440Y-110550959D01*
X145687454Y-110665209D01*
X145681465Y-110801248D01*
X145636283Y-110883397D01*
X145612977Y-110922357D01*
X145674870Y-110916191D01*
X145682386Y-110914261D01*
X145799911Y-110929739D01*
X145911316Y-111014065D01*
X145985493Y-111137603D01*
X145999200Y-111216052D01*
X148411863Y-111216052D01*
X148412200Y-111074200D01*
X148607952Y-111451660D01*
X148714339Y-111649272D01*
X148818460Y-111830115D01*
X148900746Y-111960440D01*
X148912752Y-111977325D01*
X149069569Y-112132920D01*
X149284356Y-112273639D01*
X149514129Y-112373159D01*
X149593300Y-112394055D01*
X149705273Y-112428617D01*
X149757837Y-112466937D01*
X149758401Y-112470532D01*
X149724746Y-112522986D01*
X149634714Y-112627736D01*
X149504703Y-112766183D01*
X149437252Y-112834796D01*
X149189669Y-113113318D01*
X149002430Y-113399275D01*
X148871048Y-113708757D01*
X148791038Y-114057852D01*
X148757914Y-114462650D01*
X148767190Y-114939240D01*
X148783771Y-115178582D01*
X148811692Y-115511616D01*
X148835670Y-115752588D01*
X148859225Y-115910763D01*
X148885878Y-115995404D01*
X148919149Y-116015775D01*
X148962558Y-115981139D01*
X149019626Y-115900761D01*
X149043846Y-115862956D01*
X149121881Y-115753853D01*
X149217914Y-115651712D01*
X149344502Y-115548047D01*
X149514203Y-115434372D01*
X149739573Y-115302202D01*
X150033170Y-115143051D01*
X150364057Y-114970794D01*
X151096713Y-114593726D01*
X151196945Y-114789099D01*
X151236396Y-114875131D01*
X151262528Y-114964920D01*
X151276824Y-115078530D01*
X151280769Y-115236028D01*
X151275847Y-115457477D01*
X151265547Y-115716802D01*
X151233918Y-116449133D01*
X151372459Y-116328951D01*
X151526589Y-116188640D01*
X151651593Y-116054202D01*
X151755425Y-115909460D01*
X151846040Y-115738241D01*
X151931394Y-115524367D01*
X152019442Y-115251665D01*
X152118139Y-114903959D01*
X152172613Y-114701998D01*
X152280413Y-114311604D01*
X152374848Y-114005879D01*
X152463090Y-113769988D01*
X152552309Y-113589097D01*
X152649676Y-113448371D01*
X152762362Y-113332975D01*
X152878563Y-113241554D01*
X153113159Y-113073080D01*
X153188380Y-113253108D01*
X153249238Y-113451848D01*
X153253579Y-113647110D01*
X153199903Y-113873723D01*
X153156424Y-113995200D01*
X153085367Y-114285767D01*
X153066395Y-114620837D01*
X153097832Y-114959585D01*
X153178003Y-115261183D01*
X153211549Y-115338815D01*
X153282725Y-115470946D01*
X153341664Y-115554625D01*
X153363387Y-115570000D01*
X153407985Y-115530896D01*
X153494028Y-115426140D01*
X153606525Y-115274562D01*
X153666696Y-115189000D01*
X153786871Y-115021334D01*
X153888200Y-114891295D01*
X153955601Y-114817725D01*
X153971647Y-114808000D01*
X154009488Y-114851772D01*
X154067220Y-114965999D01*
X154126326Y-115110462D01*
X154247059Y-115359732D01*
X154421707Y-115581256D01*
X154506185Y-115665200D01*
X154698902Y-115835256D01*
X154896175Y-115988623D01*
X155081437Y-116114761D01*
X155238120Y-116203129D01*
X155349656Y-116243188D01*
X155396461Y-116231597D01*
X155419332Y-116152953D01*
X155443399Y-116004775D01*
X155463501Y-115818932D01*
X155463721Y-115816312D01*
X155457563Y-115415740D01*
X155370885Y-115060338D01*
X155206934Y-114760515D01*
X155094037Y-114631798D01*
X154981275Y-114510731D01*
X154906876Y-114409851D01*
X154889200Y-114365890D01*
X154897066Y-114305013D01*
X154901900Y-114300041D01*
X154953997Y-114309654D01*
X155079976Y-114335011D01*
X155254291Y-114370958D01*
X155284069Y-114377162D01*
X155598282Y-114417676D01*
X155906870Y-114412825D01*
X156180501Y-114365324D01*
X156389841Y-114277882D01*
X156395196Y-114274425D01*
X156517369Y-114194374D01*
X155741385Y-113523423D01*
X155406509Y-113232940D01*
X155140455Y-112998802D01*
X154934587Y-112811601D01*
X154780272Y-112661930D01*
X154668875Y-112540384D01*
X154591761Y-112437556D01*
X154540295Y-112344039D01*
X154505844Y-112250426D01*
X154480273Y-112149548D01*
X154441654Y-111842347D01*
X154443019Y-111464164D01*
X154482628Y-111036655D01*
X154558741Y-110581475D01*
X154631938Y-110261400D01*
X154692569Y-110011265D01*
X154742155Y-109783359D01*
X154775511Y-109603142D01*
X154787461Y-109497373D01*
X154747577Y-109177836D01*
X154637609Y-108840493D01*
X154472895Y-108516867D01*
X154268774Y-108238485D01*
X154095863Y-108075915D01*
X153920693Y-107942307D01*
X154105412Y-108289053D01*
X154200085Y-108474572D01*
X154253188Y-108613271D01*
X154274126Y-108746221D01*
X154272303Y-108914488D01*
X154267547Y-108997063D01*
X154217750Y-109320585D01*
X154116405Y-109632608D01*
X153975538Y-109905797D01*
X153807175Y-110112812D01*
X153758769Y-110153657D01*
X153627450Y-110237985D01*
X153437650Y-110340748D01*
X153225283Y-110442798D01*
X153173595Y-110465643D01*
X152924915Y-110564326D01*
X152723167Y-110619546D01*
X152528722Y-110641042D01*
X152454226Y-110642400D01*
X152192662Y-110625624D01*
X151977620Y-110566909D01*
X151789593Y-110453676D01*
X151609071Y-110273344D01*
X151416547Y-110013334D01*
X151370041Y-109943270D01*
X151195173Y-109675940D01*
X151073372Y-109912622D01*
X150919454Y-110144701D01*
X150743199Y-110294564D01*
X150555820Y-110353029D01*
X150535045Y-110353486D01*
X150464137Y-110338367D01*
X150374519Y-110287575D01*
X150254384Y-110191505D01*
X150091926Y-110040556D01*
X149875338Y-109825122D01*
X149834600Y-109783751D01*
X149641656Y-109585167D01*
X149474977Y-109409400D01*
X149347307Y-109270220D01*
X149271385Y-109181397D01*
X149256161Y-109158613D01*
X149231625Y-109176225D01*
X149182957Y-109271646D01*
X149118977Y-109426577D01*
X149091061Y-109501147D01*
X148986431Y-109842822D01*
X148949030Y-110123988D01*
X148980554Y-110361771D01*
X149082695Y-110573302D01*
X149212777Y-110731398D01*
X149305808Y-110843105D01*
X149327930Y-110919913D01*
X149272091Y-110966659D01*
X149131237Y-110988178D01*
X148898316Y-110989306D01*
X148839277Y-110987483D01*
X148412200Y-110972600D01*
X148384284Y-109321600D01*
X147228971Y-109321600D01*
X146399980Y-109321600D01*
X145234390Y-109321600D01*
X141136512Y-109321600D01*
X138830175Y-109321600D01*
X138865386Y-109080300D01*
X138907337Y-108871570D01*
X138967299Y-108656008D01*
X138982847Y-108610400D01*
X139044839Y-108470272D01*
X139128031Y-108371099D01*
X139262899Y-108281500D01*
X139344450Y-108238061D01*
X139510674Y-108159846D01*
X139650351Y-108119648D01*
X139808737Y-108108767D01*
X139982179Y-108115495D01*
X140301302Y-108159821D01*
X140585922Y-108247912D01*
X140815847Y-108370860D01*
X140970888Y-108519758D01*
X140997351Y-108563372D01*
X141050328Y-108708889D01*
X141093418Y-108902578D01*
X141109620Y-109025037D01*
X141136512Y-109321600D01*
X145234390Y-109321600D01*
X144902463Y-109320016D01*
X144607286Y-109315576D01*
X144363063Y-109308743D01*
X144183997Y-109299981D01*
X144084293Y-109289754D01*
X144068417Y-109283500D01*
X144060987Y-109217015D01*
X144041945Y-109080543D01*
X144017174Y-108915200D01*
X143922469Y-108400433D01*
X143807304Y-107964530D01*
X143665689Y-107585785D01*
X143626085Y-107498832D01*
X143540277Y-107309508D01*
X143495252Y-107167316D01*
X143495567Y-107046075D01*
X143545778Y-106919609D01*
X143650444Y-106761738D01*
X143785412Y-106583583D01*
X143905038Y-106435057D01*
X144053448Y-106260970D01*
X144216595Y-106076536D01*
X144380433Y-105896969D01*
X144530914Y-105737484D01*
X144653992Y-105613295D01*
X144735620Y-105539615D01*
X144761220Y-105526686D01*
X144760140Y-105581020D01*
X144743165Y-105714601D01*
X144713237Y-105906837D01*
X144676702Y-106118303D01*
X144637810Y-106357583D01*
X144611202Y-106568521D01*
X144599557Y-106726165D01*
X144603509Y-106799934D01*
X144651544Y-106944983D01*
X144713045Y-107094345D01*
X144774016Y-107217749D01*
X144820462Y-107284923D01*
X144829904Y-107289600D01*
X144875932Y-107251657D01*
X144958819Y-107153673D01*
X145032063Y-107056101D01*
X145135919Y-106923848D01*
X145202896Y-106872265D01*
X145243295Y-106891001D01*
X145258432Y-106964858D01*
X145269449Y-107119384D01*
X145275485Y-107333699D01*
X145275679Y-107586924D01*
X145274720Y-107653482D01*
X145272774Y-107909590D01*
X145275876Y-108128503D01*
X145283390Y-108290544D01*
X145294681Y-108376037D01*
X145298308Y-108383456D01*
X145370849Y-108391965D01*
X145480608Y-108335692D01*
X145605433Y-108232306D01*
X145723172Y-108099474D01*
X145796000Y-107986489D01*
X145882414Y-107850137D01*
X145964572Y-107763077D01*
X146026307Y-107738070D01*
X146051377Y-107784900D01*
X146075209Y-108122079D01*
X146119456Y-108454076D01*
X146179013Y-108751792D01*
X146248776Y-108986126D01*
X146271774Y-109041561D01*
X146399980Y-109321600D01*
X147228971Y-109321600D01*
X146993970Y-108734354D01*
X146881735Y-108445279D01*
X146814374Y-108241648D01*
X146794745Y-108116398D01*
X146825708Y-108062465D01*
X146910124Y-108072787D01*
X147050850Y-108140301D01*
X147199434Y-108226849D01*
X147352517Y-108311992D01*
X147472338Y-108365649D01*
X147532179Y-108376251D01*
X147561035Y-108308644D01*
X147571577Y-108177418D01*
X147565189Y-108018625D01*
X147543257Y-107868318D01*
X147508700Y-107765183D01*
X147439349Y-107679854D01*
X147315436Y-107558336D01*
X147163097Y-107426168D01*
X147154900Y-107419492D01*
X147013396Y-107298828D01*
X146909634Y-107199262D01*
X146863523Y-107140099D01*
X146862800Y-107136260D01*
X146822764Y-107081268D01*
X146707646Y-106973477D01*
X146524934Y-106819293D01*
X146282115Y-106625122D01*
X146102285Y-106485636D01*
X145982843Y-106357710D01*
X145948400Y-106218936D01*
X145958929Y-106118610D01*
X146011099Y-106077819D01*
X146123829Y-106070400D01*
X146276518Y-106097171D01*
X146383495Y-106192241D01*
X146390529Y-106202169D01*
X146460770Y-106293762D01*
X146580301Y-106439755D01*
X146731102Y-106618443D01*
X146862800Y-106771093D01*
X147029499Y-106954931D01*
X147190810Y-107113151D01*
X147367972Y-107263255D01*
X147582220Y-107422747D01*
X147854794Y-107609130D01*
X147980400Y-107692170D01*
X148717000Y-108176093D01*
X149631400Y-108161986D01*
X150108782Y-108150029D01*
X150501073Y-108128126D01*
X150824573Y-108092915D01*
X151095576Y-108041033D01*
X151330382Y-107969116D01*
X151545286Y-107873804D01*
X151756585Y-107751732D01*
X151820290Y-107710331D01*
X152110756Y-107493249D01*
X152360189Y-107249286D01*
X152577299Y-106964507D01*
X152770798Y-106624979D01*
X152949397Y-106216767D01*
X153121807Y-105725937D01*
X153182517Y-105531334D01*
X153281402Y-105226659D01*
X153400651Y-104890225D01*
X153522530Y-104570881D01*
X153595452Y-104394000D01*
X153824908Y-103860600D01*
X154232885Y-103581200D01*
X154366983Y-103485660D01*
X154490013Y-103387466D01*
X154613217Y-103274675D01*
X154747836Y-103135345D01*
X154905112Y-102957533D01*
X155096287Y-102729299D01*
X155332602Y-102438699D01*
X155474172Y-102262574D01*
X155696367Y-101984370D01*
X155895226Y-101733261D01*
X156062572Y-101519747D01*
X156190225Y-101354330D01*
X156270008Y-101247512D01*
X156294016Y-101209881D01*
X156242061Y-101214729D01*
X156115100Y-101239278D01*
X155936746Y-101278801D01*
X155861056Y-101296607D01*
X155634175Y-101341270D01*
X155391549Y-101373521D01*
X155155906Y-101392247D01*
X154949972Y-101396337D01*
X154796476Y-101384678D01*
X154718145Y-101356158D01*
X154715514Y-101352655D01*
X154716696Y-101287142D01*
X154742934Y-101149226D01*
X154789138Y-100963531D01*
X154815162Y-100870686D01*
X154942092Y-100432861D01*
X154811351Y-99917091D01*
X154759403Y-99696343D01*
X154722612Y-99508512D01*
X154705257Y-99377594D01*
X154707111Y-99332260D01*
X154702761Y-99272449D01*
X154652256Y-99271101D01*
X154611377Y-99311448D01*
X154557451Y-99356562D01*
X154435968Y-99439532D01*
X154267100Y-99546968D01*
X154138479Y-99625380D01*
X153910315Y-99771047D01*
X153679953Y-99932825D01*
X153485231Y-100083653D01*
X153424607Y-100135931D01*
X153286161Y-100256237D01*
X153175312Y-100343610D01*
X153114390Y-100380546D01*
X153112215Y-100380800D01*
X153067039Y-100342406D01*
X152976006Y-100238204D01*
X152852869Y-100084664D01*
X152728044Y-99920704D01*
X152588756Y-99741828D01*
X152468921Y-99603146D01*
X152382049Y-99519313D01*
X152343008Y-99503072D01*
X152273172Y-99607386D01*
X152187149Y-99786899D01*
X152093393Y-100018243D01*
X152000358Y-100278049D01*
X151916497Y-100542950D01*
X151850264Y-100789577D01*
X151814817Y-100963145D01*
X151779539Y-101201864D01*
X151764618Y-101379248D01*
X151770221Y-101533532D01*
X151796519Y-101702955D01*
X151818556Y-101810328D01*
X151868023Y-102116194D01*
X151865047Y-102361362D01*
X151804383Y-102575103D01*
X151680787Y-102786691D01*
X151631795Y-102852643D01*
X151500197Y-103022339D01*
X151406025Y-103126665D01*
X151335904Y-103160303D01*
X151276460Y-103117937D01*
X151214319Y-102994251D01*
X151136106Y-102783927D01*
X151083231Y-102634574D01*
X150995523Y-102384228D01*
X150937326Y-102199929D01*
X150903844Y-102052088D01*
X150890282Y-101911119D01*
X150891845Y-101747435D01*
X150903738Y-101531448D01*
X150903934Y-101528257D01*
X150928814Y-101237707D01*
X150968043Y-100904862D01*
X151014603Y-100586754D01*
X151032613Y-100482400D01*
X151099550Y-100047537D01*
X151125956Y-99692263D01*
X151112233Y-99403179D01*
X151070909Y-99204757D01*
X151040661Y-99070265D01*
X151049197Y-98954223D01*
X151101932Y-98808816D01*
X151120489Y-98767063D01*
X151250068Y-98428968D01*
X151328951Y-98109000D01*
X151352581Y-97830264D01*
X151335225Y-97678045D01*
X151292877Y-97478291D01*
X151283917Y-97359352D01*
X151315301Y-97303941D01*
X151393982Y-97294772D01*
X151484418Y-97307200D01*
X151640046Y-97316441D01*
X151799380Y-97281695D01*
X151960225Y-97215985D01*
X152121879Y-97133860D01*
X152219572Y-97052633D01*
X152285187Y-96939484D01*
X152322135Y-96843420D01*
X152367414Y-96686828D01*
X152407000Y-96497851D01*
X152437800Y-96301319D01*
X152456719Y-96122063D01*
X152460665Y-95984913D01*
X152446545Y-95914699D01*
X152438378Y-95910400D01*
X152373075Y-95931778D01*
X152249331Y-95986800D01*
X152146000Y-96037400D01*
X151974958Y-96110180D01*
X151814260Y-96156127D01*
X151744507Y-96164400D01*
X151585698Y-96148247D01*
X151357922Y-96104198D01*
X151087771Y-96038870D01*
X150801838Y-95958877D01*
X150526715Y-95870834D01*
X150438054Y-95839399D01*
X150109710Y-95740990D01*
X149840721Y-95710153D01*
X149615914Y-95745405D01*
X149585266Y-95756226D01*
X149439752Y-95776708D01*
X149252259Y-95733236D01*
X149245372Y-95730826D01*
X148949987Y-95666234D01*
X148621654Y-95673885D01*
X148242322Y-95754332D01*
X148214477Y-95762385D01*
X147988763Y-95839773D01*
X147815718Y-95933340D01*
X147647127Y-96071290D01*
X147585052Y-96130578D01*
X147451043Y-96269561D01*
X147355309Y-96396592D01*
X147279564Y-96543582D01*
X147205522Y-96742443D01*
X147166965Y-96860238D01*
X147017226Y-97327690D01*
X147087273Y-97850945D01*
X147187974Y-98385755D01*
X147336404Y-98835073D01*
X147534722Y-99204211D01*
X147737088Y-99451822D01*
X147855863Y-99579344D01*
X147930454Y-99674081D01*
X147947743Y-99718923D01*
X147942979Y-99720400D01*
X147874084Y-99702949D01*
X147732286Y-99655598D01*
X147539147Y-99585849D01*
X147344421Y-99512126D01*
X147129193Y-99431073D01*
X146951457Y-99368070D01*
X146830770Y-99329787D01*
X146787001Y-99322065D01*
X146790815Y-99376057D01*
X146817351Y-99502657D01*
X146861215Y-99676842D01*
X146872406Y-99718158D01*
X146983865Y-100023918D01*
X147145866Y-100288535D01*
X147373218Y-100529971D01*
X147680731Y-100766185D01*
X147802600Y-100846225D01*
X148056629Y-101014994D01*
X148326168Y-101206195D01*
X148592052Y-101405022D01*
X148835111Y-101596669D01*
X149036181Y-101766331D01*
X149176092Y-101899202D01*
X149199600Y-101925326D01*
X149346307Y-102105288D01*
X149430160Y-102227000D01*
X149446627Y-102283857D01*
X149446082Y-102284444D01*
X149397154Y-102268809D01*
X149279354Y-102212735D01*
X149112203Y-102125878D01*
X148977414Y-102052559D01*
X148787117Y-101948219D01*
X148632752Y-101865329D01*
X148533960Y-101814332D01*
X148508486Y-101803199D01*
X148503763Y-101848089D01*
X148512834Y-101961519D01*
X148520963Y-102026590D01*
X148516280Y-102295027D01*
X148460795Y-102496490D01*
X148387887Y-102680645D01*
X148329562Y-102776365D01*
X148270860Y-102792427D01*
X148196822Y-102737607D01*
X148145218Y-102681641D01*
X147977066Y-102546601D01*
X147757263Y-102447181D01*
X147751800Y-102445491D01*
X147591449Y-102405000D01*
X147399747Y-102368945D01*
X147201511Y-102340267D01*
X147021556Y-102321902D01*
X146884699Y-102316789D01*
X146815755Y-102327867D01*
X146812000Y-102334213D01*
X146829808Y-102394459D01*
X146877188Y-102524168D01*
X146945075Y-102698837D01*
X146969248Y-102759231D01*
X147136257Y-103092712D01*
X147346499Y-103351966D01*
X147619792Y-103556659D01*
X147922273Y-103704838D01*
X148089798Y-103777734D01*
X148209764Y-103837228D01*
X148261135Y-103872668D01*
X148260994Y-103876340D01*
X148204954Y-103877747D01*
X148069340Y-103864796D01*
X147874793Y-103839841D01*
X147653023Y-103806977D01*
X147420421Y-103773459D01*
X147225910Y-103751004D01*
X147090531Y-103741664D01*
X147035870Y-103746797D01*
X147044597Y-103802384D01*
X147097274Y-103918995D01*
X147182770Y-104072284D01*
X147190596Y-104085241D01*
X147292530Y-104241452D01*
X147392399Y-104357010D01*
X147517816Y-104456261D01*
X147696395Y-104563554D01*
X147792983Y-104616381D01*
X148333280Y-104850114D01*
X148691600Y-104950423D01*
X148951909Y-105013044D01*
X149222275Y-105083686D01*
X149455586Y-105149887D01*
X149515361Y-105168300D01*
X149698840Y-105230991D01*
X149811058Y-105287420D01*
X149879023Y-105357111D01*
X149929748Y-105459591D01*
X149934461Y-105471267D01*
X149983142Y-105598306D01*
X150010338Y-105679709D01*
X150012400Y-105690428D01*
X149965233Y-105700777D01*
X149838252Y-105708942D01*
X149653234Y-105713853D01*
X149517100Y-105714793D01*
X149058992Y-105687139D01*
X148646087Y-105597892D01*
X148247776Y-105437599D01*
X147833449Y-105196809D01*
X147828000Y-105193224D01*
X147508372Y-104955887D01*
X147160027Y-104650724D01*
X146803939Y-104298530D01*
X146461080Y-103920099D01*
X146152422Y-103536226D01*
X146139767Y-103519284D01*
X145860537Y-103187739D01*
X145514915Y-102857542D01*
X145092113Y-102519253D01*
X144614900Y-102185608D01*
X144469661Y-102087499D01*
X144365074Y-102013322D01*
X144322884Y-101978521D01*
X144322800Y-101978134D01*
X144360326Y-101943426D01*
X144458277Y-101866511D01*
X144582859Y-101773352D01*
X144842918Y-101582451D01*
X144570159Y-101441222D01*
X144288392Y-101329901D01*
X144038574Y-101297596D01*
X143850901Y-101281769D01*
X143730976Y-101232487D01*
X143688059Y-101193885D01*
X143525027Y-101083362D01*
X143293215Y-101023193D01*
X143014885Y-101018635D01*
X142966561Y-101023530D01*
X142765318Y-101033184D01*
X142627445Y-101002476D01*
X142583646Y-100978481D01*
X142360931Y-100879426D01*
X142113102Y-100864916D01*
X141864316Y-100919205D01*
X141703687Y-100966937D01*
X141597258Y-100980976D01*
X141502446Y-100958542D01*
X141376669Y-100896852D01*
X141356225Y-100886018D01*
X141212200Y-100815620D01*
X141105524Y-100791259D01*
X140985912Y-100807571D01*
X140883703Y-100835612D01*
X140708962Y-100876635D01*
X140550730Y-100897979D01*
X140500100Y-100898773D01*
X140210739Y-100884261D01*
X140000001Y-100879096D01*
X139845188Y-100885122D01*
X139723600Y-100904182D01*
X139612540Y-100938118D01*
X139511804Y-100979029D01*
X139345353Y-101043703D01*
X139222246Y-101065959D01*
X139096109Y-101051055D01*
X139027234Y-101033954D01*
X138786426Y-100999373D01*
X138548445Y-101033609D01*
X138285835Y-101141938D01*
X138188700Y-101195068D01*
X138033276Y-101293042D01*
X137951420Y-101373236D01*
X137923079Y-101457331D01*
X137922000Y-101483394D01*
X137908293Y-101606809D01*
X137872979Y-101781824D01*
X137839712Y-101912007D01*
X137811121Y-102002511D01*
X137773784Y-102088513D01*
X137720001Y-102178136D01*
X137642073Y-102279498D01*
X137532300Y-102400723D01*
X137382981Y-102549931D01*
X137186417Y-102735244D01*
X136934908Y-102964782D01*
X136620753Y-103246667D01*
X136321800Y-103512966D01*
X135810304Y-103928454D01*
X135301561Y-104256336D01*
X134772720Y-104507327D01*
X134200930Y-104692142D01*
X133563342Y-104821497D01*
X133515817Y-104828728D01*
X133231965Y-104862879D01*
X132962712Y-104880504D01*
X132725766Y-104882027D01*
X132538839Y-104867872D01*
X132419640Y-104838465D01*
X132384800Y-104801593D01*
X132428601Y-104746829D01*
X132543824Y-104670082D01*
X132706203Y-104583515D01*
X132891471Y-104499292D01*
X133075360Y-104429578D01*
X133197600Y-104394172D01*
X133363676Y-104349599D01*
X133589530Y-104281426D01*
X133852395Y-104197358D01*
X134129503Y-104105098D01*
X134398085Y-104012351D01*
X134635374Y-103926822D01*
X134818601Y-103856216D01*
X134918137Y-103811968D01*
X135021144Y-103739753D01*
X135161594Y-103618739D01*
X135305800Y-103478423D01*
X135559800Y-103215276D01*
X135399619Y-103248794D01*
X135223549Y-103250327D01*
X134972460Y-103199573D01*
X134877231Y-103172295D01*
X134705489Y-103117857D01*
X134602973Y-103070917D01*
X134572421Y-103018838D01*
X134616577Y-102948980D01*
X134738181Y-102848705D01*
X134939975Y-102705373D01*
X134985351Y-102673799D01*
X135131738Y-102558525D01*
X135299951Y-102405380D01*
X135473456Y-102232177D01*
X135635718Y-102056731D01*
X135770206Y-101896856D01*
X135860383Y-101770366D01*
X135890000Y-101699094D01*
X135844660Y-101687515D01*
X135722441Y-101699636D01*
X135544052Y-101730873D01*
X135330199Y-101776645D01*
X135101589Y-101832366D01*
X134878927Y-101893455D01*
X134682921Y-101955328D01*
X134606272Y-101983230D01*
X134449875Y-102031895D01*
X134311400Y-102056475D01*
X134292443Y-102057200D01*
X134224273Y-102051260D01*
X134190754Y-102017300D01*
X134183887Y-101931103D01*
X134195676Y-101768455D01*
X134195972Y-101765100D01*
X134237014Y-101472455D01*
X134305109Y-101259262D01*
X134407676Y-101105286D01*
X134454251Y-101060640D01*
X134579362Y-100953081D01*
X134421881Y-100898183D01*
X134314459Y-100849648D01*
X134265182Y-100805494D01*
X134264835Y-100802542D01*
X134305196Y-100758431D01*
X134411918Y-100677718D01*
X134564125Y-100575879D01*
X134607735Y-100548372D01*
X134955310Y-100319208D01*
X135244037Y-100096101D01*
X135500557Y-99854172D01*
X135751510Y-99568544D01*
X135995376Y-99252541D01*
X136154234Y-99033817D01*
X136288787Y-98840910D01*
X136388359Y-98689734D01*
X136442271Y-98596201D01*
X136448800Y-98576729D01*
X136410014Y-98558484D01*
X136290304Y-98574756D01*
X136084645Y-98626511D01*
X135882073Y-98685821D01*
X135658136Y-98751615D01*
X135472232Y-98802092D01*
X135344276Y-98832127D01*
X135294469Y-98837001D01*
X135312808Y-98789179D01*
X135377194Y-98671263D01*
X135478716Y-98498610D01*
X135608463Y-98286579D01*
X135681122Y-98170618D01*
X135892931Y-97824370D01*
X136049354Y-97539637D01*
X136157612Y-97297918D01*
X136224927Y-97080710D01*
X136258521Y-96869511D01*
X136265915Y-96672400D01*
X136247789Y-96326464D01*
X136192645Y-96052947D01*
X136091703Y-95826673D01*
X135936183Y-95622463D01*
X135879167Y-95563324D01*
X135604971Y-95332788D01*
X135294437Y-95141839D01*
X134968215Y-94997952D01*
X134646957Y-94908597D01*
X134351312Y-94881246D01*
X134106222Y-94921838D01*
X133977342Y-94959915D01*
X133900562Y-94952924D01*
X133836288Y-94898475D01*
X133735888Y-94824613D01*
X133589826Y-94755028D01*
X133554029Y-94742273D01*
X133470602Y-94717571D01*
X133392004Y-94706291D01*
X133301655Y-94712207D01*
X133182978Y-94739094D01*
X133019394Y-94790727D01*
X132794326Y-94870881D01*
X132491195Y-94983331D01*
X132484606Y-94985792D01*
X132317830Y-95041127D01*
X132174148Y-95065648D01*
X132009977Y-95063233D01*
X131830530Y-95044005D01*
X131626657Y-95013415D01*
X131485759Y-94972912D01*
X131369427Y-94905911D01*
X131239255Y-94795830D01*
X131224615Y-94782382D01*
X130991583Y-94567581D01*
X130956655Y-94692890D01*
X130956655Y-94692890D01*
G37*
X130956655Y-94692890D02*
X130938455Y-94805934D01*
X130924118Y-94982639D01*
X130916708Y-95185069D01*
X130916664Y-95188188D01*
X130921907Y-95418483D01*
X130950852Y-95592588D01*
X131012104Y-95754783D01*
X131036472Y-95804599D01*
X131189534Y-96031500D01*
X131389585Y-96221554D01*
X131611451Y-96356177D01*
X131829958Y-96416784D01*
X131867908Y-96418399D01*
X132005013Y-96429716D01*
X132093788Y-96457923D01*
X132104961Y-96468488D01*
X132099091Y-96537593D01*
X132049922Y-96658712D01*
X132006359Y-96739651D01*
X131903215Y-96969187D01*
X131884558Y-97180091D01*
X131951849Y-97397571D01*
X132054600Y-97572774D01*
X132160375Y-97748978D01*
X132214860Y-97905114D01*
X132219977Y-98070760D01*
X132177648Y-98275492D01*
X132113519Y-98479602D01*
X132076490Y-98593211D01*
X132048404Y-98696869D01*
X132028344Y-98805961D01*
X132015395Y-98935872D01*
X132008640Y-99101987D01*
X132007164Y-99319691D01*
X132010050Y-99604370D01*
X132016382Y-99971410D01*
X132018387Y-100077335D01*
X132042136Y-101323271D01*
X131887834Y-101626735D01*
X131790370Y-101803573D01*
X131692043Y-101958347D01*
X131625087Y-102044822D01*
X131504218Y-102156708D01*
X131380833Y-102246729D01*
X131281573Y-102297545D01*
X131236683Y-102297616D01*
X131203284Y-102216084D01*
X131172982Y-102054889D01*
X131147452Y-101835959D01*
X131128364Y-101581219D01*
X131117392Y-101312598D01*
X131116208Y-101052022D01*
X131125284Y-100837134D01*
X131142878Y-100284022D01*
X131113737Y-99769140D01*
X131039874Y-99309444D01*
X130923302Y-98921894D01*
X130888010Y-98838897D01*
X130772101Y-98611933D01*
X130668315Y-98471157D01*
X130585319Y-98410628D01*
X130485527Y-98366618D01*
X130439310Y-98348961D01*
X130432805Y-98394366D01*
X130428648Y-98508335D01*
X130428033Y-98564866D01*
X130400073Y-98753392D01*
X130313979Y-98990185D01*
X130224833Y-99176719D01*
X130129058Y-99355673D01*
X130046086Y-99495115D01*
X129989061Y-99573560D01*
X129976186Y-99583114D01*
X129934743Y-99545610D01*
X129880307Y-99438517D01*
X129849186Y-99356249D01*
X129805224Y-99244870D01*
X129747878Y-99153699D01*
X129658977Y-99064695D01*
X129520353Y-98959815D01*
X129313838Y-98821017D01*
X129303156Y-98814011D01*
X129068540Y-98649106D01*
X128872044Y-98489568D01*
X128735538Y-98353665D01*
X128706256Y-98315468D01*
X128574800Y-98122015D01*
X128574800Y-98338016D01*
X128554826Y-98503995D01*
X128503168Y-98709561D01*
X128449923Y-98861343D01*
X128374669Y-99082863D01*
X128314698Y-99323804D01*
X128291677Y-99463612D01*
X128277924Y-99646385D01*
X128293983Y-99779084D01*
X128349688Y-99911254D01*
X128397326Y-99995772D01*
X128468935Y-100132476D01*
X128505620Y-100232420D01*
X128504505Y-100264828D01*
X128445876Y-100264569D01*
X128310249Y-100240066D01*
X128118137Y-100195613D01*
X127901433Y-100138657D01*
X127608931Y-100061262D01*
X127320855Y-99991263D01*
X127059207Y-99933454D01*
X126845990Y-99892633D01*
X126703206Y-99873595D01*
X126681777Y-99872800D01*
X126693564Y-99903623D01*
X126766518Y-99985062D01*
X126885573Y-100100564D01*
X126907381Y-100120632D01*
X127120205Y-100351762D01*
X127330828Y-100657741D01*
X127453377Y-100869932D01*
X127584610Y-101104984D01*
X127701967Y-101301277D01*
X127819677Y-101477822D01*
X127951965Y-101653626D01*
X128113060Y-101847701D01*
X128317186Y-102079055D01*
X128551043Y-102336600D01*
X128807816Y-102627700D01*
X128999884Y-102875578D01*
X129139097Y-103103810D01*
X129237302Y-103335973D01*
X129306349Y-103595645D01*
X129358085Y-103906401D01*
X129364656Y-103955586D01*
X129460509Y-104451254D01*
X129620274Y-104921820D01*
X129702325Y-105113862D01*
X129779774Y-105267632D01*
X129868685Y-105405682D01*
X129985120Y-105550564D01*
X130145141Y-105724831D01*
X130322749Y-105908132D01*
X130645818Y-106219887D01*
X130981930Y-106511612D01*
X131315208Y-106771580D01*
X131629774Y-106988067D01*
X131909753Y-107149345D01*
X132125612Y-107239642D01*
X132320058Y-107290795D01*
X132564871Y-107343704D01*
X132809600Y-107387543D01*
X132827719Y-107390342D01*
X133245238Y-107453928D01*
X133703854Y-107270370D01*
X134003904Y-107132919D01*
X134355114Y-106939449D01*
X134763135Y-106686460D01*
X135233617Y-106370450D01*
X135763000Y-105994601D01*
X135975933Y-105843058D01*
X136174956Y-105706574D01*
X136337124Y-105600573D01*
X136436100Y-105542176D01*
X136601200Y-105458190D01*
X136601200Y-105632854D01*
X136596088Y-105725088D01*
X136567082Y-105788362D01*
X136493683Y-105840928D01*
X136355387Y-105901034D01*
X136257424Y-105938882D01*
X136103933Y-106003382D01*
X135969662Y-106077290D01*
X135833934Y-106176095D01*
X135676069Y-106315285D01*
X135475391Y-106510349D01*
X135418577Y-106567181D01*
X135191409Y-106801943D01*
X135028388Y-106988260D01*
X134916092Y-107143307D01*
X134841099Y-107284257D01*
X134822553Y-107329803D01*
X134766863Y-107483855D01*
X134730198Y-107599635D01*
X134721600Y-107640309D01*
X134762327Y-107703021D01*
X134874825Y-107712749D01*
X135044572Y-107670137D01*
X135165859Y-107620630D01*
X135348335Y-107539901D01*
X135457919Y-107504268D01*
X135513102Y-107514423D01*
X135532373Y-107571058D01*
X135534400Y-107634409D01*
X135505355Y-107750510D01*
X135410492Y-107888636D01*
X135287578Y-108019130D01*
X135155653Y-108155123D01*
X135085667Y-108250800D01*
X135063377Y-108333067D01*
X135073471Y-108423621D01*
X135126921Y-108541380D01*
X135232447Y-108597340D01*
X135398305Y-108591889D01*
X135632750Y-108525416D01*
X135805781Y-108458068D01*
X136185885Y-108299830D01*
X136269778Y-107909015D01*
X136311455Y-107717572D01*
X136346050Y-107563585D01*
X136367244Y-107475070D01*
X136369407Y-107467400D01*
X136395723Y-107486045D01*
X136452282Y-107579699D01*
X136528630Y-107730275D01*
X136559639Y-107796445D01*
X136734135Y-108176290D01*
X137146523Y-107569000D01*
X137121217Y-106954684D01*
X137111977Y-106692151D01*
X137110847Y-106513794D01*
X137119360Y-106402405D01*
X137139049Y-106340773D01*
X137171445Y-106311690D01*
X137178756Y-106308579D01*
X137232331Y-106305458D01*
X137256590Y-106364845D01*
X137261600Y-106481089D01*
X137309011Y-106724593D01*
X137379357Y-106858684D01*
X137497114Y-107031979D01*
X137604413Y-106811126D01*
X137658860Y-106684630D01*
X137686030Y-106567132D01*
X137689686Y-106423456D01*
X137673589Y-106218425D01*
X137670776Y-106190636D01*
X137629841Y-105791000D01*
X137795609Y-105619758D01*
X137961376Y-105448517D01*
X138221037Y-105594358D01*
X138376189Y-105691548D01*
X138456156Y-105773085D01*
X138480600Y-105859732D01*
X138480749Y-105868633D01*
X138448489Y-106026752D01*
X138353841Y-106256113D01*
X138200145Y-106550485D01*
X137990743Y-106903635D01*
X137728974Y-107309332D01*
X137628472Y-107458375D01*
X137435275Y-107745556D01*
X137292429Y-107968457D01*
X137190380Y-108144856D01*
X137119575Y-108292534D01*
X137070460Y-108429270D01*
X137036267Y-108560467D01*
X136994879Y-108772766D01*
X136966136Y-108978167D01*
X136956800Y-109115728D01*
X136956800Y-109321600D01*
X134061200Y-109321600D01*
X134061200Y-115647888D01*
X134061201Y-121974177D01*
X134183000Y-122214536D01*
X134304245Y-122425496D01*
X134458498Y-122653963D01*
X134625261Y-122872961D01*
X134784035Y-123055512D01*
X134910308Y-123171721D01*
X135123423Y-123305905D01*
X135420656Y-123459722D01*
X135787764Y-123627352D01*
X136210504Y-123802978D01*
X136674635Y-123980780D01*
X137165912Y-124154941D01*
X137670094Y-124319643D01*
X137871200Y-124381275D01*
X138388312Y-124537955D01*
X138817900Y-124671561D01*
X139170368Y-124786096D01*
X139456117Y-124885566D01*
X139685550Y-124973972D01*
X139869068Y-125055319D01*
X140017074Y-125133611D01*
X140139970Y-125212851D01*
X140246192Y-125295386D01*
X140354554Y-125377177D01*
X140432486Y-125419413D01*
X140443934Y-125421113D01*
X140505541Y-125400553D01*
X140639863Y-125347833D01*
X140826397Y-125271200D01*
X141020800Y-125189101D01*
X141289413Y-125078482D01*
X141531713Y-124990168D01*
X141770376Y-124918576D01*
X142028077Y-124858126D01*
X142327488Y-124803237D01*
X142691286Y-124748327D01*
X142960643Y-124711622D01*
X143498033Y-124633267D01*
X143968215Y-124547576D01*
X144405581Y-124446658D01*
X144844519Y-124322619D01*
X145295041Y-124175924D01*
X145924560Y-123945230D01*
X146463536Y-123712417D01*
X146922904Y-123470410D01*
X147313600Y-123212133D01*
X147646561Y-122930512D01*
X147932721Y-122618474D01*
X148139607Y-122335715D01*
X148386344Y-121964031D01*
X148399272Y-116519115D01*
X148411863Y-111216052D01*
X145999200Y-111216052D01*
X145984586Y-111278707D01*
X145929652Y-111338528D01*
X145817760Y-111407472D01*
X145632273Y-111497499D01*
X145565251Y-111527947D01*
X145302052Y-111664604D01*
X145083467Y-111813433D01*
X144924541Y-111961697D01*
X144840320Y-112096664D01*
X144830800Y-112149605D01*
X144793063Y-112208690D01*
X144693560Y-112307201D01*
X144552854Y-112425026D01*
X144535114Y-112438787D01*
X144312798Y-112626870D01*
X144135086Y-112810916D01*
X144015494Y-112974904D01*
X143967541Y-113102812D01*
X143967200Y-113111903D01*
X143931797Y-113197279D01*
X143842246Y-113311016D01*
X143789400Y-113363444D01*
X143661065Y-113512610D01*
X143611746Y-113646077D01*
X143611600Y-113652603D01*
X143570420Y-113775255D01*
X143439663Y-113894879D01*
X143432507Y-113899751D01*
X143311046Y-114005501D01*
X143230967Y-114118694D01*
X143221087Y-114145708D01*
X143212310Y-114303803D01*
X143241912Y-114513742D01*
X143301205Y-114737329D01*
X143381501Y-114936369D01*
X143414358Y-114995438D01*
X143512557Y-115113038D01*
X143675513Y-115265364D01*
X143880815Y-115434947D01*
X144106050Y-115604315D01*
X144328808Y-115756000D01*
X144526677Y-115872532D01*
X144563359Y-115891093D01*
X144699971Y-115952549D01*
X144792766Y-115968935D01*
X144887859Y-115942450D01*
X144958782Y-115909962D01*
X145107852Y-115852953D01*
X145239666Y-115824674D01*
X145255667Y-115824000D01*
X145352942Y-115858446D01*
X145490523Y-115948211D01*
X145645687Y-116072934D01*
X145795715Y-116212257D01*
X145917883Y-116345818D01*
X145989471Y-116453258D01*
X145999200Y-116490256D01*
X145959797Y-116589540D01*
X145862854Y-116628407D01*
X145740277Y-116594635D01*
X145735055Y-116591453D01*
X145679170Y-116561643D01*
X145681807Y-116585912D01*
X145745147Y-116676650D01*
X145751595Y-116685384D01*
X145822727Y-116815583D01*
X145805937Y-116897730D01*
X145699588Y-116933951D01*
X145561395Y-116932365D01*
X145429834Y-116929914D01*
X145360834Y-116965088D01*
X145316785Y-117058551D01*
X145313400Y-117068600D01*
X145232781Y-117198207D01*
X145121204Y-117237896D01*
X145000759Y-117183956D01*
X144950590Y-117129531D01*
X144881202Y-117047910D01*
X144823830Y-117039706D01*
X144732286Y-117098822D01*
X144730106Y-117100417D01*
X144585107Y-117166838D01*
X144460671Y-117154726D01*
X144380505Y-117070639D01*
X144364074Y-116999175D01*
X144352759Y-116840207D01*
X144345517Y-116738400D01*
X144335825Y-116614859D01*
X144329644Y-116548631D01*
X144282204Y-116494325D01*
X144163880Y-116415370D01*
X143998308Y-116324376D01*
X143809124Y-116233954D01*
X143619966Y-116156714D01*
X143548980Y-116132131D01*
X143430203Y-116101373D01*
X143331522Y-116105875D01*
X143212699Y-116152563D01*
X143106601Y-116208269D01*
X142904813Y-116333609D01*
X142659807Y-116508796D01*
X142399792Y-116711421D01*
X142152978Y-116919078D01*
X141947574Y-117109359D01*
X141868670Y-117191585D01*
X141753556Y-117324325D01*
X141691267Y-117419652D01*
X141690336Y-117483737D01*
X141759299Y-117522755D01*
X141906688Y-117542879D01*
X142141039Y-117550281D01*
X142365829Y-117551200D01*
X143050458Y-117551200D01*
X143139446Y-117687013D01*
X143204988Y-117843398D01*
X143222244Y-118048051D01*
X143190726Y-118314089D01*
X143109943Y-118654627D01*
X143102209Y-118682381D01*
X143043829Y-118897437D01*
X143013139Y-119040420D01*
X143008103Y-119136410D01*
X143026685Y-119210490D01*
X143054798Y-119266581D01*
X143192067Y-119417015D01*
X143392668Y-119523224D01*
X143624660Y-119576267D01*
X143856101Y-119567206D01*
X143984608Y-119526798D01*
X144101497Y-119432820D01*
X144191281Y-119292974D01*
X144221200Y-119173697D01*
X144247030Y-119103177D01*
X144311350Y-118988099D01*
X144334644Y-118951515D01*
X144481655Y-118804090D01*
X144664249Y-118750755D01*
X144876230Y-118792985D01*
X144919700Y-118812117D01*
X145047361Y-118886909D01*
X145080633Y-118948395D01*
X145034000Y-118999000D01*
X144984870Y-119060537D01*
X145032342Y-119117091D01*
X145122900Y-119149852D01*
X145263235Y-119201335D01*
X145416235Y-119279551D01*
X145427700Y-119286503D01*
X145558135Y-119403101D01*
X145589938Y-119524802D01*
X145522743Y-119641681D01*
X145442955Y-119700609D01*
X145355665Y-119759560D01*
X145315787Y-119823830D01*
X145311478Y-119928248D01*
X145324043Y-120050301D01*
X145338049Y-120202183D01*
X145330180Y-120274396D01*
X145296136Y-120287337D01*
X145275427Y-120280951D01*
X145191663Y-120263942D01*
X145033913Y-120243951D01*
X144829602Y-120224208D01*
X144721240Y-120215637D01*
X144487265Y-120201329D01*
X144314146Y-120202662D01*
X144161663Y-120224936D01*
X143989600Y-120273450D01*
X143806810Y-120336133D01*
X143367020Y-120491418D01*
X143114517Y-120395474D01*
X142953357Y-120342681D01*
X142812520Y-120324220D01*
X142644272Y-120336536D01*
X142538307Y-120352574D01*
X142342544Y-120378526D01*
X142198271Y-120376028D01*
X142058385Y-120341163D01*
X141960600Y-120304528D01*
X141813821Y-120241906D01*
X141737946Y-120185428D01*
X141708948Y-120105034D01*
X141702987Y-119982219D01*
X141697813Y-119746060D01*
X141687232Y-119591055D01*
X141664756Y-119496764D01*
X141623899Y-119442747D01*
X141558177Y-119408565D01*
X141516100Y-119393274D01*
X141349193Y-119343965D01*
X141165950Y-119302189D01*
X141152306Y-119299678D01*
X141027189Y-119281934D01*
X140978883Y-119295024D01*
X140985322Y-119346426D01*
X140988587Y-119355162D01*
X140999013Y-119466829D01*
X140975169Y-119603653D01*
X140950357Y-119723639D01*
X140924554Y-119912818D01*
X140901843Y-120138912D01*
X140893259Y-120250796D01*
X140859744Y-120740593D01*
X140648172Y-120890068D01*
X140494032Y-120977552D01*
X140281784Y-121059178D01*
X139994011Y-121141132D01*
X139827000Y-121181690D01*
X139507594Y-121263184D01*
X139272184Y-121345909D01*
X139103981Y-121443963D01*
X138986201Y-121571443D01*
X138902054Y-121742445D01*
X138834756Y-121971067D01*
X138821597Y-122025991D01*
X138770408Y-122252419D01*
X138744452Y-122403847D01*
X138744405Y-122503867D01*
X138770944Y-122576066D01*
X138824748Y-122644034D01*
X138839807Y-122660225D01*
X138924451Y-122732299D01*
X139013223Y-122744591D01*
X139120801Y-122717987D01*
X139221616Y-122692886D01*
X139299217Y-122701157D01*
X139383651Y-122755426D01*
X139504966Y-122868319D01*
X139524794Y-122887745D01*
X139640174Y-123012899D01*
X139713985Y-123116390D01*
X139730233Y-123170326D01*
X139739750Y-123252308D01*
X139785101Y-123339690D01*
X139839008Y-123496261D01*
X139829766Y-123624922D01*
X139796839Y-123743146D01*
X139734869Y-123791038D01*
X139621499Y-123799600D01*
X139504882Y-123811595D01*
X139447298Y-123841041D01*
X139446000Y-123846771D01*
X139402565Y-123937394D01*
X139298838Y-124015933D01*
X139174686Y-124053256D01*
X139162972Y-124053600D01*
X139067682Y-124030703D01*
X139039745Y-123944184D01*
X139039600Y-123932820D01*
X139008457Y-123810594D01*
X138961564Y-123747275D01*
X138897117Y-123716016D01*
X138824204Y-123746162D01*
X138742884Y-123817255D01*
X138626893Y-123918652D01*
X138562535Y-123941061D01*
X138535669Y-123882931D01*
X138531600Y-123794092D01*
X138523113Y-123686650D01*
X138479655Y-123655535D01*
X138397276Y-123669898D01*
X138262952Y-123703612D01*
X138295032Y-123430666D01*
X138310248Y-123271060D01*
X138297993Y-123173568D01*
X138243189Y-123099465D01*
X138131474Y-123010560D01*
X137935488Y-122803236D01*
X137824394Y-122541331D01*
X137799299Y-122227740D01*
X137804791Y-122158160D01*
X137812756Y-121967360D01*
X137789623Y-121861895D01*
X137775991Y-121847749D01*
X137724629Y-121763668D01*
X137721874Y-121634482D01*
X137762747Y-121501401D01*
X137828183Y-121415912D01*
X137937566Y-121327339D01*
X137817474Y-121164905D01*
X137742871Y-121055549D01*
X137725531Y-120978437D01*
X137761008Y-120885098D01*
X137787274Y-120835550D01*
X137843071Y-120718781D01*
X137847200Y-120636007D01*
X137799677Y-120533754D01*
X137787384Y-120512191D01*
X137731952Y-120396344D01*
X137734619Y-120320592D01*
X137765221Y-120274277D01*
X137865389Y-120206420D01*
X137974471Y-120200655D01*
X138050955Y-120257737D01*
X138056030Y-120269000D01*
X138125669Y-120322764D01*
X138259976Y-120345389D01*
X138427231Y-120337855D01*
X138595713Y-120301148D01*
X138714823Y-120248582D01*
X138850687Y-120143820D01*
X138899540Y-120038525D01*
X138860415Y-119918642D01*
X138732345Y-119770116D01*
X138678428Y-119719677D01*
X138550627Y-119591336D01*
X138460963Y-119477601D01*
X138430000Y-119407828D01*
X138408869Y-119378176D01*
X138338949Y-119409555D01*
X138210450Y-119507049D01*
X138163300Y-119546330D01*
X137942474Y-119717512D01*
X137760605Y-119816256D01*
X137593022Y-119849334D01*
X137415055Y-119823518D01*
X137297031Y-119784105D01*
X137117925Y-119714874D01*
X136985928Y-119652521D01*
X136893606Y-119580865D01*
X136833522Y-119483729D01*
X136798242Y-119344935D01*
X136780332Y-119148304D01*
X136772356Y-118877659D01*
X136768687Y-118634428D01*
X136764531Y-118267599D01*
X136765424Y-117989739D01*
X136773172Y-117788271D01*
X136789578Y-117650614D01*
X136816448Y-117564191D01*
X136855587Y-117516423D01*
X136908798Y-117494731D01*
X136932773Y-117490749D01*
X137054411Y-117475000D01*
X136956626Y-117257618D01*
X136894393Y-117044348D01*
X136920498Y-116879340D01*
X137034482Y-116764175D01*
X137108909Y-116730889D01*
X137204588Y-116687004D01*
X137248970Y-116621032D01*
X137261281Y-116497910D01*
X137261600Y-116452398D01*
X137277508Y-116278072D01*
X137318572Y-116106080D01*
X137374806Y-115965173D01*
X137436226Y-115884105D01*
X137462208Y-115874800D01*
X137490854Y-115826667D01*
X137509356Y-115692306D01*
X137515600Y-115496798D01*
X137522264Y-115309799D01*
X137539857Y-115164707D01*
X137564778Y-115089399D01*
X137568634Y-115086019D01*
X137644506Y-115087867D01*
X137750842Y-115137880D01*
X137849314Y-115189489D01*
X137906603Y-115195912D01*
X137906965Y-115195568D01*
X137947869Y-115096510D01*
X137964026Y-114923253D01*
X137957755Y-114699527D01*
X137931370Y-114449063D01*
X137887189Y-114195590D01*
X137827527Y-113962841D01*
X137771838Y-113811181D01*
X137630921Y-113563091D01*
X137447872Y-113343520D01*
X137242768Y-113170041D01*
X137035686Y-113060222D01*
X136879216Y-113030000D01*
X136728865Y-113076255D01*
X136581966Y-113199994D01*
X136459803Y-113378680D01*
X136395109Y-113542672D01*
X136354890Y-113767540D01*
X136333316Y-114064706D01*
X136330042Y-114406658D01*
X136344722Y-114765884D01*
X136377013Y-115114873D01*
X136418207Y-115383757D01*
X136461741Y-115629495D01*
X136482755Y-115804123D01*
X136482479Y-115935319D01*
X136462142Y-116050758D01*
X136449798Y-116094957D01*
X136383742Y-116282144D01*
X136299428Y-116474954D01*
X136208666Y-116651516D01*
X136123264Y-116789959D01*
X136055031Y-116868410D01*
X136027245Y-116877588D01*
X135972948Y-116810680D01*
X135953602Y-116674469D01*
X135968698Y-116494860D01*
X136017727Y-116297760D01*
X136039834Y-116236910D01*
X136096930Y-116088065D01*
X136134765Y-115981778D01*
X136144000Y-115948398D01*
X136106429Y-115959170D01*
X136010783Y-116013723D01*
X135943733Y-116056689D01*
X135786901Y-116141671D01*
X135688311Y-116147007D01*
X135641734Y-116071573D01*
X135636000Y-116001242D01*
X135670133Y-115896821D01*
X135781270Y-115783671D01*
X135864600Y-115722400D01*
X136020078Y-115589737D01*
X136091862Y-115467727D01*
X136074353Y-115366904D01*
X136061510Y-115352043D01*
X136001545Y-115353969D01*
X135886648Y-115395495D01*
X135825481Y-115424599D01*
X135621142Y-115528845D01*
X135652257Y-115358922D01*
X135679139Y-115234982D01*
X135725116Y-115045162D01*
X135782298Y-114821536D01*
X135812086Y-114709082D01*
X135891630Y-114351291D01*
X135935024Y-114018207D01*
X135941084Y-113870882D01*
X135956997Y-113545782D01*
X136009459Y-113292585D01*
X136106429Y-113085703D01*
X136237064Y-112919317D01*
X136464665Y-112743639D01*
X136727052Y-112655022D01*
X137009762Y-112651661D01*
X137298334Y-112731753D01*
X137578304Y-112893491D01*
X137819319Y-113116776D01*
X137965055Y-113290788D01*
X138070195Y-113444931D01*
X138150962Y-113611064D01*
X138223577Y-113821045D01*
X138282353Y-114026124D01*
X138332363Y-114228281D01*
X138361973Y-114411614D01*
X138374118Y-114610522D01*
X138371733Y-114859400D01*
X138366203Y-115008757D01*
X138355421Y-115217159D01*
X138339373Y-115402563D01*
X138314022Y-115579383D01*
X138275331Y-115762028D01*
X138219262Y-115964911D01*
X138141778Y-116202441D01*
X138038841Y-116489031D01*
X137906414Y-116839092D01*
X137740460Y-117267035D01*
X137715936Y-117329848D01*
X137588491Y-117660742D01*
X137466181Y-117986770D01*
X137356803Y-118286506D01*
X137268156Y-118538522D01*
X137208037Y-118721391D01*
X137200991Y-118744823D01*
X137085743Y-119136549D01*
X137204700Y-119232874D01*
X137357692Y-119315127D01*
X137519434Y-119315177D01*
X137697068Y-119229773D01*
X137897738Y-119055665D01*
X138099742Y-118825644D01*
X138251503Y-118626913D01*
X138347257Y-118468534D01*
X138403343Y-118319529D01*
X138427847Y-118203640D01*
X138467805Y-117990296D01*
X138512422Y-117849755D01*
X138577312Y-117753813D01*
X138678088Y-117674265D01*
X138743173Y-117633991D01*
X138849762Y-117547586D01*
X138999732Y-117395630D01*
X139178357Y-117195915D01*
X139370910Y-116966232D01*
X139562664Y-116724373D01*
X139738893Y-116488130D01*
X139884869Y-116275294D01*
X139936515Y-116192314D01*
X140089154Y-115860283D01*
X140172459Y-115506832D01*
X140183942Y-115157687D01*
X140121114Y-114838577D01*
X140077836Y-114731800D01*
X140040373Y-114658486D01*
X140021542Y-114646855D01*
X140018635Y-114708808D01*
X140028945Y-114856250D01*
X140034496Y-114922300D01*
X140045550Y-115093681D01*
X140046732Y-115216628D01*
X140037821Y-115265164D01*
X140037445Y-115265200D01*
X140016783Y-115218739D01*
X139979493Y-115091987D01*
X139930728Y-114903890D01*
X139875645Y-114673395D01*
X139871466Y-114655203D01*
X139811000Y-114398814D01*
X139764778Y-114227110D01*
X139726859Y-114125202D01*
X139691298Y-114078199D01*
X139652155Y-114071214D01*
X139639665Y-114074426D01*
X139579146Y-114078090D01*
X139552001Y-114022388D01*
X139545567Y-113909723D01*
X139543533Y-113715800D01*
X139456667Y-113868200D01*
X139369800Y-114020600D01*
X139339981Y-113741200D01*
X139323116Y-113599265D01*
X139312053Y-113553722D01*
X139304694Y-113599671D01*
X139301881Y-113652300D01*
X139287004Y-113774857D01*
X139260510Y-113839716D01*
X139253125Y-113842800D01*
X139218955Y-113798275D01*
X139163528Y-113679801D01*
X139097072Y-113510026D01*
X139075334Y-113449100D01*
X139017234Y-113287092D01*
X138978305Y-113187709D01*
X138964118Y-113164689D01*
X138967175Y-113182400D01*
X139005799Y-113386927D01*
X139024310Y-113561937D01*
X139024944Y-113695435D01*
X139009935Y-113775431D01*
X138981518Y-113789930D01*
X138941926Y-113726941D01*
X138893819Y-113576100D01*
X138840584Y-113396693D01*
X138798397Y-113300747D01*
X138771767Y-113292288D01*
X138765201Y-113375345D01*
X138772428Y-113467649D01*
X138784099Y-113622340D01*
X138776072Y-113680421D01*
X138749589Y-113644698D01*
X138705896Y-113517980D01*
X138646234Y-113303074D01*
X138578064Y-113028847D01*
X138499826Y-112677918D01*
X138453022Y-112400467D01*
X138435937Y-112173931D01*
X138446857Y-111975749D01*
X138483550Y-111785400D01*
X138510116Y-111626203D01*
X138528152Y-111414950D01*
X138533464Y-111226600D01*
X138544881Y-110993087D01*
X138577555Y-110806425D01*
X138605617Y-110730328D01*
X138654923Y-110551176D01*
X138648817Y-110334946D01*
X138637079Y-110170857D01*
X138657206Y-110064417D01*
X138718754Y-109974153D01*
X138736380Y-109954918D01*
X138897482Y-109848712D01*
X139011752Y-109829600D01*
X139165380Y-109803572D01*
X139282733Y-109750213D01*
X139428232Y-109692940D01*
X139587522Y-109693623D01*
X139720544Y-109747832D01*
X139771077Y-109804200D01*
X139819468Y-109891954D01*
X139837870Y-109925136D01*
X139889493Y-109940648D01*
X140018363Y-109965765D01*
X140201096Y-109996124D01*
X140294073Y-110010246D01*
X140535447Y-110052060D01*
X140700991Y-110101827D01*
X140816294Y-110173565D01*
X140906946Y-110281292D01*
X140965089Y-110377819D01*
X141033049Y-110423270D01*
X141179028Y-110477462D01*
X141380797Y-110532624D01*
X141458365Y-110550264D01*
X141753165Y-110622628D01*
X141957052Y-110694518D01*
X142080543Y-110771280D01*
X142134159Y-110858258D01*
X142138400Y-110895803D01*
X142097740Y-111016286D01*
X141993275Y-111156451D01*
X141851280Y-111288987D01*
X141698031Y-111386585D01*
X141645950Y-111407650D01*
X141471107Y-111437922D01*
X141247544Y-111441364D01*
X141024008Y-111419823D01*
X140855700Y-111377748D01*
X140781253Y-111372405D01*
X140766800Y-111400222D01*
X140813784Y-111474278D01*
X140955472Y-111522010D01*
X141192973Y-111543594D01*
X141527394Y-111539204D01*
X141617700Y-111534564D01*
X141870218Y-111522035D01*
X142037547Y-111519587D01*
X142135702Y-111528342D01*
X142180700Y-111549422D01*
X142189200Y-111574612D01*
X142146126Y-111636902D01*
X142038194Y-111705622D01*
X141990001Y-111727072D01*
X141838834Y-111772852D01*
X141681685Y-111780944D01*
X141494701Y-111758282D01*
X141283320Y-111730386D01*
X141070585Y-111712711D01*
X140971815Y-111709494D01*
X140836594Y-111712755D01*
X140786220Y-111729001D01*
X140804016Y-111767209D01*
X140824590Y-111788760D01*
X140917422Y-111839466D01*
X141071730Y-111885376D01*
X141192993Y-111907518D01*
X141419380Y-111956117D01*
X141547276Y-112024934D01*
X141575988Y-112110618D01*
X141504819Y-112209818D01*
X141333077Y-112319181D01*
X141283342Y-112343513D01*
X141144364Y-112430471D01*
X141086009Y-112514881D01*
X141112710Y-112582930D01*
X141195937Y-112615861D01*
X141294402Y-112662916D01*
X141413212Y-112755185D01*
X141437065Y-112778049D01*
X141572555Y-112879115D01*
X141763656Y-112981345D01*
X141971907Y-113067878D01*
X142158847Y-113121853D01*
X142243538Y-113131600D01*
X142387179Y-113104657D01*
X142565987Y-113037017D01*
X142733488Y-112948459D01*
X142815047Y-112888362D01*
X142901304Y-112785728D01*
X142991064Y-112643799D01*
X143006415Y-112614865D01*
X143137108Y-112413558D01*
X143330813Y-112183381D01*
X143563822Y-111948394D01*
X143812424Y-111732658D01*
X144033633Y-111572442D01*
X144212865Y-111453079D01*
X144314667Y-111361559D01*
X144348061Y-111272347D01*
X144322066Y-111159912D01*
X144245702Y-110998718D01*
X144240165Y-110987822D01*
X144175708Y-110782804D01*
X144203303Y-110608395D01*
X144254474Y-110532100D01*
X144377086Y-110448771D01*
X144505741Y-110466362D01*
X144585500Y-110523273D01*
X144656058Y-110573311D01*
X144678298Y-110545358D01*
X144678400Y-110539973D01*
X144721479Y-110429371D01*
X144824303Y-110333240D01*
X144947261Y-110287265D01*
X144959454Y-110286800D01*
X145095198Y-110329121D01*
X145170591Y-110439949D01*
X145174440Y-110563725D01*
X145150524Y-110688835D01*
X145276913Y-110589417D01*
X145437915Y-110501776D01*
X145574064Y-110509116D01*
X145633440Y-110550959D01*
X145687454Y-110665209D01*
X145681465Y-110801248D01*
X145636283Y-110883397D01*
X145612977Y-110922357D01*
X145674870Y-110916191D01*
X145682386Y-110914261D01*
X145799911Y-110929739D01*
X145911316Y-111014065D01*
X145985493Y-111137603D01*
X145999200Y-111216052D01*
X148411863Y-111216052D01*
X148412200Y-111074200D01*
X148607952Y-111451660D01*
X148714339Y-111649272D01*
X148818460Y-111830115D01*
X148900746Y-111960440D01*
X148912752Y-111977325D01*
X149069569Y-112132920D01*
X149284356Y-112273639D01*
X149514129Y-112373159D01*
X149593300Y-112394055D01*
X149705273Y-112428617D01*
X149757837Y-112466937D01*
X149758401Y-112470532D01*
X149724746Y-112522986D01*
X149634714Y-112627736D01*
X149504703Y-112766183D01*
X149437252Y-112834796D01*
X149189669Y-113113318D01*
X149002430Y-113399275D01*
X148871048Y-113708757D01*
X148791038Y-114057852D01*
X148757914Y-114462650D01*
X148767190Y-114939240D01*
X148783771Y-115178582D01*
X148811692Y-115511616D01*
X148835670Y-115752588D01*
X148859225Y-115910763D01*
X148885878Y-115995404D01*
X148919149Y-116015775D01*
X148962558Y-115981139D01*
X149019626Y-115900761D01*
X149043846Y-115862956D01*
X149121881Y-115753853D01*
X149217914Y-115651712D01*
X149344502Y-115548047D01*
X149514203Y-115434372D01*
X149739573Y-115302202D01*
X150033170Y-115143051D01*
X150364057Y-114970794D01*
X151096713Y-114593726D01*
X151196945Y-114789099D01*
X151236396Y-114875131D01*
X151262528Y-114964920D01*
X151276824Y-115078530D01*
X151280769Y-115236028D01*
X151275847Y-115457477D01*
X151265547Y-115716802D01*
X151233918Y-116449133D01*
X151372459Y-116328951D01*
X151526589Y-116188640D01*
X151651593Y-116054202D01*
X151755425Y-115909460D01*
X151846040Y-115738241D01*
X151931394Y-115524367D01*
X152019442Y-115251665D01*
X152118139Y-114903959D01*
X152172613Y-114701998D01*
X152280413Y-114311604D01*
X152374848Y-114005879D01*
X152463090Y-113769988D01*
X152552309Y-113589097D01*
X152649676Y-113448371D01*
X152762362Y-113332975D01*
X152878563Y-113241554D01*
X153113159Y-113073080D01*
X153188380Y-113253108D01*
X153249238Y-113451848D01*
X153253579Y-113647110D01*
X153199903Y-113873723D01*
X153156424Y-113995200D01*
X153085367Y-114285767D01*
X153066395Y-114620837D01*
X153097832Y-114959585D01*
X153178003Y-115261183D01*
X153211549Y-115338815D01*
X153282725Y-115470946D01*
X153341664Y-115554625D01*
X153363387Y-115570000D01*
X153407985Y-115530896D01*
X153494028Y-115426140D01*
X153606525Y-115274562D01*
X153666696Y-115189000D01*
X153786871Y-115021334D01*
X153888200Y-114891295D01*
X153955601Y-114817725D01*
X153971647Y-114808000D01*
X154009488Y-114851772D01*
X154067220Y-114965999D01*
X154126326Y-115110462D01*
X154247059Y-115359732D01*
X154421707Y-115581256D01*
X154506185Y-115665200D01*
X154698902Y-115835256D01*
X154896175Y-115988623D01*
X155081437Y-116114761D01*
X155238120Y-116203129D01*
X155349656Y-116243188D01*
X155396461Y-116231597D01*
X155419332Y-116152953D01*
X155443399Y-116004775D01*
X155463501Y-115818932D01*
X155463721Y-115816312D01*
X155457563Y-115415740D01*
X155370885Y-115060338D01*
X155206934Y-114760515D01*
X155094037Y-114631798D01*
X154981275Y-114510731D01*
X154906876Y-114409851D01*
X154889200Y-114365890D01*
X154897066Y-114305013D01*
X154901900Y-114300041D01*
X154953997Y-114309654D01*
X155079976Y-114335011D01*
X155254291Y-114370958D01*
X155284069Y-114377162D01*
X155598282Y-114417676D01*
X155906870Y-114412825D01*
X156180501Y-114365324D01*
X156389841Y-114277882D01*
X156395196Y-114274425D01*
X156517369Y-114194374D01*
X155741385Y-113523423D01*
X155406509Y-113232940D01*
X155140455Y-112998802D01*
X154934587Y-112811601D01*
X154780272Y-112661930D01*
X154668875Y-112540384D01*
X154591761Y-112437556D01*
X154540295Y-112344039D01*
X154505844Y-112250426D01*
X154480273Y-112149548D01*
X154441654Y-111842347D01*
X154443019Y-111464164D01*
X154482628Y-111036655D01*
X154558741Y-110581475D01*
X154631938Y-110261400D01*
X154692569Y-110011265D01*
X154742155Y-109783359D01*
X154775511Y-109603142D01*
X154787461Y-109497373D01*
X154747577Y-109177836D01*
X154637609Y-108840493D01*
X154472895Y-108516867D01*
X154268774Y-108238485D01*
X154095863Y-108075915D01*
X153920693Y-107942307D01*
X154105412Y-108289053D01*
X154200085Y-108474572D01*
X154253188Y-108613271D01*
X154274126Y-108746221D01*
X154272303Y-108914488D01*
X154267547Y-108997063D01*
X154217750Y-109320585D01*
X154116405Y-109632608D01*
X153975538Y-109905797D01*
X153807175Y-110112812D01*
X153758769Y-110153657D01*
X153627450Y-110237985D01*
X153437650Y-110340748D01*
X153225283Y-110442798D01*
X153173595Y-110465643D01*
X152924915Y-110564326D01*
X152723167Y-110619546D01*
X152528722Y-110641042D01*
X152454226Y-110642400D01*
X152192662Y-110625624D01*
X151977620Y-110566909D01*
X151789593Y-110453676D01*
X151609071Y-110273344D01*
X151416547Y-110013334D01*
X151370041Y-109943270D01*
X151195173Y-109675940D01*
X151073372Y-109912622D01*
X150919454Y-110144701D01*
X150743199Y-110294564D01*
X150555820Y-110353029D01*
X150535045Y-110353486D01*
X150464137Y-110338367D01*
X150374519Y-110287575D01*
X150254384Y-110191505D01*
X150091926Y-110040556D01*
X149875338Y-109825122D01*
X149834600Y-109783751D01*
X149641656Y-109585167D01*
X149474977Y-109409400D01*
X149347307Y-109270220D01*
X149271385Y-109181397D01*
X149256161Y-109158613D01*
X149231625Y-109176225D01*
X149182957Y-109271646D01*
X149118977Y-109426577D01*
X149091061Y-109501147D01*
X148986431Y-109842822D01*
X148949030Y-110123988D01*
X148980554Y-110361771D01*
X149082695Y-110573302D01*
X149212777Y-110731398D01*
X149305808Y-110843105D01*
X149327930Y-110919913D01*
X149272091Y-110966659D01*
X149131237Y-110988178D01*
X148898316Y-110989306D01*
X148839277Y-110987483D01*
X148412200Y-110972600D01*
X148384284Y-109321600D01*
X147228971Y-109321600D01*
X146399980Y-109321600D01*
X145234390Y-109321600D01*
X141136512Y-109321600D01*
X138830175Y-109321600D01*
X138865386Y-109080300D01*
X138907337Y-108871570D01*
X138967299Y-108656008D01*
X138982847Y-108610400D01*
X139044839Y-108470272D01*
X139128031Y-108371099D01*
X139262899Y-108281500D01*
X139344450Y-108238061D01*
X139510674Y-108159846D01*
X139650351Y-108119648D01*
X139808737Y-108108767D01*
X139982179Y-108115495D01*
X140301302Y-108159821D01*
X140585922Y-108247912D01*
X140815847Y-108370860D01*
X140970888Y-108519758D01*
X140997351Y-108563372D01*
X141050328Y-108708889D01*
X141093418Y-108902578D01*
X141109620Y-109025037D01*
X141136512Y-109321600D01*
X145234390Y-109321600D01*
X144902463Y-109320016D01*
X144607286Y-109315576D01*
X144363063Y-109308743D01*
X144183997Y-109299981D01*
X144084293Y-109289754D01*
X144068417Y-109283500D01*
X144060987Y-109217015D01*
X144041945Y-109080543D01*
X144017174Y-108915200D01*
X143922469Y-108400433D01*
X143807304Y-107964530D01*
X143665689Y-107585785D01*
X143626085Y-107498832D01*
X143540277Y-107309508D01*
X143495252Y-107167316D01*
X143495567Y-107046075D01*
X143545778Y-106919609D01*
X143650444Y-106761738D01*
X143785412Y-106583583D01*
X143905038Y-106435057D01*
X144053448Y-106260970D01*
X144216595Y-106076536D01*
X144380433Y-105896969D01*
X144530914Y-105737484D01*
X144653992Y-105613295D01*
X144735620Y-105539615D01*
X144761220Y-105526686D01*
X144760140Y-105581020D01*
X144743165Y-105714601D01*
X144713237Y-105906837D01*
X144676702Y-106118303D01*
X144637810Y-106357583D01*
X144611202Y-106568521D01*
X144599557Y-106726165D01*
X144603509Y-106799934D01*
X144651544Y-106944983D01*
X144713045Y-107094345D01*
X144774016Y-107217749D01*
X144820462Y-107284923D01*
X144829904Y-107289600D01*
X144875932Y-107251657D01*
X144958819Y-107153673D01*
X145032063Y-107056101D01*
X145135919Y-106923848D01*
X145202896Y-106872265D01*
X145243295Y-106891001D01*
X145258432Y-106964858D01*
X145269449Y-107119384D01*
X145275485Y-107333699D01*
X145275679Y-107586924D01*
X145274720Y-107653482D01*
X145272774Y-107909590D01*
X145275876Y-108128503D01*
X145283390Y-108290544D01*
X145294681Y-108376037D01*
X145298308Y-108383456D01*
X145370849Y-108391965D01*
X145480608Y-108335692D01*
X145605433Y-108232306D01*
X145723172Y-108099474D01*
X145796000Y-107986489D01*
X145882414Y-107850137D01*
X145964572Y-107763077D01*
X146026307Y-107738070D01*
X146051377Y-107784900D01*
X146075209Y-108122079D01*
X146119456Y-108454076D01*
X146179013Y-108751792D01*
X146248776Y-108986126D01*
X146271774Y-109041561D01*
X146399980Y-109321600D01*
X147228971Y-109321600D01*
X146993970Y-108734354D01*
X146881735Y-108445279D01*
X146814374Y-108241648D01*
X146794745Y-108116398D01*
X146825708Y-108062465D01*
X146910124Y-108072787D01*
X147050850Y-108140301D01*
X147199434Y-108226849D01*
X147352517Y-108311992D01*
X147472338Y-108365649D01*
X147532179Y-108376251D01*
X147561035Y-108308644D01*
X147571577Y-108177418D01*
X147565189Y-108018625D01*
X147543257Y-107868318D01*
X147508700Y-107765183D01*
X147439349Y-107679854D01*
X147315436Y-107558336D01*
X147163097Y-107426168D01*
X147154900Y-107419492D01*
X147013396Y-107298828D01*
X146909634Y-107199262D01*
X146863523Y-107140099D01*
X146862800Y-107136260D01*
X146822764Y-107081268D01*
X146707646Y-106973477D01*
X146524934Y-106819293D01*
X146282115Y-106625122D01*
X146102285Y-106485636D01*
X145982843Y-106357710D01*
X145948400Y-106218936D01*
X145958929Y-106118610D01*
X146011099Y-106077819D01*
X146123829Y-106070400D01*
X146276518Y-106097171D01*
X146383495Y-106192241D01*
X146390529Y-106202169D01*
X146460770Y-106293762D01*
X146580301Y-106439755D01*
X146731102Y-106618443D01*
X146862800Y-106771093D01*
X147029499Y-106954931D01*
X147190810Y-107113151D01*
X147367972Y-107263255D01*
X147582220Y-107422747D01*
X147854794Y-107609130D01*
X147980400Y-107692170D01*
X148717000Y-108176093D01*
X149631400Y-108161986D01*
X150108782Y-108150029D01*
X150501073Y-108128126D01*
X150824573Y-108092915D01*
X151095576Y-108041033D01*
X151330382Y-107969116D01*
X151545286Y-107873804D01*
X151756585Y-107751732D01*
X151820290Y-107710331D01*
X152110756Y-107493249D01*
X152360189Y-107249286D01*
X152577299Y-106964507D01*
X152770798Y-106624979D01*
X152949397Y-106216767D01*
X153121807Y-105725937D01*
X153182517Y-105531334D01*
X153281402Y-105226659D01*
X153400651Y-104890225D01*
X153522530Y-104570881D01*
X153595452Y-104394000D01*
X153824908Y-103860600D01*
X154232885Y-103581200D01*
X154366983Y-103485660D01*
X154490013Y-103387466D01*
X154613217Y-103274675D01*
X154747836Y-103135345D01*
X154905112Y-102957533D01*
X155096287Y-102729299D01*
X155332602Y-102438699D01*
X155474172Y-102262574D01*
X155696367Y-101984370D01*
X155895226Y-101733261D01*
X156062572Y-101519747D01*
X156190225Y-101354330D01*
X156270008Y-101247512D01*
X156294016Y-101209881D01*
X156242061Y-101214729D01*
X156115100Y-101239278D01*
X155936746Y-101278801D01*
X155861056Y-101296607D01*
X155634175Y-101341270D01*
X155391549Y-101373521D01*
X155155906Y-101392247D01*
X154949972Y-101396337D01*
X154796476Y-101384678D01*
X154718145Y-101356158D01*
X154715514Y-101352655D01*
X154716696Y-101287142D01*
X154742934Y-101149226D01*
X154789138Y-100963531D01*
X154815162Y-100870686D01*
X154942092Y-100432861D01*
X154811351Y-99917091D01*
X154759403Y-99696343D01*
X154722612Y-99508512D01*
X154705257Y-99377594D01*
X154707111Y-99332260D01*
X154702761Y-99272449D01*
X154652256Y-99271101D01*
X154611377Y-99311448D01*
X154557451Y-99356562D01*
X154435968Y-99439532D01*
X154267100Y-99546968D01*
X154138479Y-99625380D01*
X153910315Y-99771047D01*
X153679953Y-99932825D01*
X153485231Y-100083653D01*
X153424607Y-100135931D01*
X153286161Y-100256237D01*
X153175312Y-100343610D01*
X153114390Y-100380546D01*
X153112215Y-100380800D01*
X153067039Y-100342406D01*
X152976006Y-100238204D01*
X152852869Y-100084664D01*
X152728044Y-99920704D01*
X152588756Y-99741828D01*
X152468921Y-99603146D01*
X152382049Y-99519313D01*
X152343008Y-99503072D01*
X152273172Y-99607386D01*
X152187149Y-99786899D01*
X152093393Y-100018243D01*
X152000358Y-100278049D01*
X151916497Y-100542950D01*
X151850264Y-100789577D01*
X151814817Y-100963145D01*
X151779539Y-101201864D01*
X151764618Y-101379248D01*
X151770221Y-101533532D01*
X151796519Y-101702955D01*
X151818556Y-101810328D01*
X151868023Y-102116194D01*
X151865047Y-102361362D01*
X151804383Y-102575103D01*
X151680787Y-102786691D01*
X151631795Y-102852643D01*
X151500197Y-103022339D01*
X151406025Y-103126665D01*
X151335904Y-103160303D01*
X151276460Y-103117937D01*
X151214319Y-102994251D01*
X151136106Y-102783927D01*
X151083231Y-102634574D01*
X150995523Y-102384228D01*
X150937326Y-102199929D01*
X150903844Y-102052088D01*
X150890282Y-101911119D01*
X150891845Y-101747435D01*
X150903738Y-101531448D01*
X150903934Y-101528257D01*
X150928814Y-101237707D01*
X150968043Y-100904862D01*
X151014603Y-100586754D01*
X151032613Y-100482400D01*
X151099550Y-100047537D01*
X151125956Y-99692263D01*
X151112233Y-99403179D01*
X151070909Y-99204757D01*
X151040661Y-99070265D01*
X151049197Y-98954223D01*
X151101932Y-98808816D01*
X151120489Y-98767063D01*
X151250068Y-98428968D01*
X151328951Y-98109000D01*
X151352581Y-97830264D01*
X151335225Y-97678045D01*
X151292877Y-97478291D01*
X151283917Y-97359352D01*
X151315301Y-97303941D01*
X151393982Y-97294772D01*
X151484418Y-97307200D01*
X151640046Y-97316441D01*
X151799380Y-97281695D01*
X151960225Y-97215985D01*
X152121879Y-97133860D01*
X152219572Y-97052633D01*
X152285187Y-96939484D01*
X152322135Y-96843420D01*
X152367414Y-96686828D01*
X152407000Y-96497851D01*
X152437800Y-96301319D01*
X152456719Y-96122063D01*
X152460665Y-95984913D01*
X152446545Y-95914699D01*
X152438378Y-95910400D01*
X152373075Y-95931778D01*
X152249331Y-95986800D01*
X152146000Y-96037400D01*
X151974958Y-96110180D01*
X151814260Y-96156127D01*
X151744507Y-96164400D01*
X151585698Y-96148247D01*
X151357922Y-96104198D01*
X151087771Y-96038870D01*
X150801838Y-95958877D01*
X150526715Y-95870834D01*
X150438054Y-95839399D01*
X150109710Y-95740990D01*
X149840721Y-95710153D01*
X149615914Y-95745405D01*
X149585266Y-95756226D01*
X149439752Y-95776708D01*
X149252259Y-95733236D01*
X149245372Y-95730826D01*
X148949987Y-95666234D01*
X148621654Y-95673885D01*
X148242322Y-95754332D01*
X148214477Y-95762385D01*
X147988763Y-95839773D01*
X147815718Y-95933340D01*
X147647127Y-96071290D01*
X147585052Y-96130578D01*
X147451043Y-96269561D01*
X147355309Y-96396592D01*
X147279564Y-96543582D01*
X147205522Y-96742443D01*
X147166965Y-96860238D01*
X147017226Y-97327690D01*
X147087273Y-97850945D01*
X147187974Y-98385755D01*
X147336404Y-98835073D01*
X147534722Y-99204211D01*
X147737088Y-99451822D01*
X147855863Y-99579344D01*
X147930454Y-99674081D01*
X147947743Y-99718923D01*
X147942979Y-99720400D01*
X147874084Y-99702949D01*
X147732286Y-99655598D01*
X147539147Y-99585849D01*
X147344421Y-99512126D01*
X147129193Y-99431073D01*
X146951457Y-99368070D01*
X146830770Y-99329787D01*
X146787001Y-99322065D01*
X146790815Y-99376057D01*
X146817351Y-99502657D01*
X146861215Y-99676842D01*
X146872406Y-99718158D01*
X146983865Y-100023918D01*
X147145866Y-100288535D01*
X147373218Y-100529971D01*
X147680731Y-100766185D01*
X147802600Y-100846225D01*
X148056629Y-101014994D01*
X148326168Y-101206195D01*
X148592052Y-101405022D01*
X148835111Y-101596669D01*
X149036181Y-101766331D01*
X149176092Y-101899202D01*
X149199600Y-101925326D01*
X149346307Y-102105288D01*
X149430160Y-102227000D01*
X149446627Y-102283857D01*
X149446082Y-102284444D01*
X149397154Y-102268809D01*
X149279354Y-102212735D01*
X149112203Y-102125878D01*
X148977414Y-102052559D01*
X148787117Y-101948219D01*
X148632752Y-101865329D01*
X148533960Y-101814332D01*
X148508486Y-101803199D01*
X148503763Y-101848089D01*
X148512834Y-101961519D01*
X148520963Y-102026590D01*
X148516280Y-102295027D01*
X148460795Y-102496490D01*
X148387887Y-102680645D01*
X148329562Y-102776365D01*
X148270860Y-102792427D01*
X148196822Y-102737607D01*
X148145218Y-102681641D01*
X147977066Y-102546601D01*
X147757263Y-102447181D01*
X147751800Y-102445491D01*
X147591449Y-102405000D01*
X147399747Y-102368945D01*
X147201511Y-102340267D01*
X147021556Y-102321902D01*
X146884699Y-102316789D01*
X146815755Y-102327867D01*
X146812000Y-102334213D01*
X146829808Y-102394459D01*
X146877188Y-102524168D01*
X146945075Y-102698837D01*
X146969248Y-102759231D01*
X147136257Y-103092712D01*
X147346499Y-103351966D01*
X147619792Y-103556659D01*
X147922273Y-103704838D01*
X148089798Y-103777734D01*
X148209764Y-103837228D01*
X148261135Y-103872668D01*
X148260994Y-103876340D01*
X148204954Y-103877747D01*
X148069340Y-103864796D01*
X147874793Y-103839841D01*
X147653023Y-103806977D01*
X147420421Y-103773459D01*
X147225910Y-103751004D01*
X147090531Y-103741664D01*
X147035870Y-103746797D01*
X147044597Y-103802384D01*
X147097274Y-103918995D01*
X147182770Y-104072284D01*
X147190596Y-104085241D01*
X147292530Y-104241452D01*
X147392399Y-104357010D01*
X147517816Y-104456261D01*
X147696395Y-104563554D01*
X147792983Y-104616381D01*
X148333280Y-104850114D01*
X148691600Y-104950423D01*
X148951909Y-105013044D01*
X149222275Y-105083686D01*
X149455586Y-105149887D01*
X149515361Y-105168300D01*
X149698840Y-105230991D01*
X149811058Y-105287420D01*
X149879023Y-105357111D01*
X149929748Y-105459591D01*
X149934461Y-105471267D01*
X149983142Y-105598306D01*
X150010338Y-105679709D01*
X150012400Y-105690428D01*
X149965233Y-105700777D01*
X149838252Y-105708942D01*
X149653234Y-105713853D01*
X149517100Y-105714793D01*
X149058992Y-105687139D01*
X148646087Y-105597892D01*
X148247776Y-105437599D01*
X147833449Y-105196809D01*
X147828000Y-105193224D01*
X147508372Y-104955887D01*
X147160027Y-104650724D01*
X146803939Y-104298530D01*
X146461080Y-103920099D01*
X146152422Y-103536226D01*
X146139767Y-103519284D01*
X145860537Y-103187739D01*
X145514915Y-102857542D01*
X145092113Y-102519253D01*
X144614900Y-102185608D01*
X144469661Y-102087499D01*
X144365074Y-102013322D01*
X144322884Y-101978521D01*
X144322800Y-101978134D01*
X144360326Y-101943426D01*
X144458277Y-101866511D01*
X144582859Y-101773352D01*
X144842918Y-101582451D01*
X144570159Y-101441222D01*
X144288392Y-101329901D01*
X144038574Y-101297596D01*
X143850901Y-101281769D01*
X143730976Y-101232487D01*
X143688059Y-101193885D01*
X143525027Y-101083362D01*
X143293215Y-101023193D01*
X143014885Y-101018635D01*
X142966561Y-101023530D01*
X142765318Y-101033184D01*
X142627445Y-101002476D01*
X142583646Y-100978481D01*
X142360931Y-100879426D01*
X142113102Y-100864916D01*
X141864316Y-100919205D01*
X141703687Y-100966937D01*
X141597258Y-100980976D01*
X141502446Y-100958542D01*
X141376669Y-100896852D01*
X141356225Y-100886018D01*
X141212200Y-100815620D01*
X141105524Y-100791259D01*
X140985912Y-100807571D01*
X140883703Y-100835612D01*
X140708962Y-100876635D01*
X140550730Y-100897979D01*
X140500100Y-100898773D01*
X140210739Y-100884261D01*
X140000001Y-100879096D01*
X139845188Y-100885122D01*
X139723600Y-100904182D01*
X139612540Y-100938118D01*
X139511804Y-100979029D01*
X139345353Y-101043703D01*
X139222246Y-101065959D01*
X139096109Y-101051055D01*
X139027234Y-101033954D01*
X138786426Y-100999373D01*
X138548445Y-101033609D01*
X138285835Y-101141938D01*
X138188700Y-101195068D01*
X138033276Y-101293042D01*
X137951420Y-101373236D01*
X137923079Y-101457331D01*
X137922000Y-101483394D01*
X137908293Y-101606809D01*
X137872979Y-101781824D01*
X137839712Y-101912007D01*
X137811121Y-102002511D01*
X137773784Y-102088513D01*
X137720001Y-102178136D01*
X137642073Y-102279498D01*
X137532300Y-102400723D01*
X137382981Y-102549931D01*
X137186417Y-102735244D01*
X136934908Y-102964782D01*
X136620753Y-103246667D01*
X136321800Y-103512966D01*
X135810304Y-103928454D01*
X135301561Y-104256336D01*
X134772720Y-104507327D01*
X134200930Y-104692142D01*
X133563342Y-104821497D01*
X133515817Y-104828728D01*
X133231965Y-104862879D01*
X132962712Y-104880504D01*
X132725766Y-104882027D01*
X132538839Y-104867872D01*
X132419640Y-104838465D01*
X132384800Y-104801593D01*
X132428601Y-104746829D01*
X132543824Y-104670082D01*
X132706203Y-104583515D01*
X132891471Y-104499292D01*
X133075360Y-104429578D01*
X133197600Y-104394172D01*
X133363676Y-104349599D01*
X133589530Y-104281426D01*
X133852395Y-104197358D01*
X134129503Y-104105098D01*
X134398085Y-104012351D01*
X134635374Y-103926822D01*
X134818601Y-103856216D01*
X134918137Y-103811968D01*
X135021144Y-103739753D01*
X135161594Y-103618739D01*
X135305800Y-103478423D01*
X135559800Y-103215276D01*
X135399619Y-103248794D01*
X135223549Y-103250327D01*
X134972460Y-103199573D01*
X134877231Y-103172295D01*
X134705489Y-103117857D01*
X134602973Y-103070917D01*
X134572421Y-103018838D01*
X134616577Y-102948980D01*
X134738181Y-102848705D01*
X134939975Y-102705373D01*
X134985351Y-102673799D01*
X135131738Y-102558525D01*
X135299951Y-102405380D01*
X135473456Y-102232177D01*
X135635718Y-102056731D01*
X135770206Y-101896856D01*
X135860383Y-101770366D01*
X135890000Y-101699094D01*
X135844660Y-101687515D01*
X135722441Y-101699636D01*
X135544052Y-101730873D01*
X135330199Y-101776645D01*
X135101589Y-101832366D01*
X134878927Y-101893455D01*
X134682921Y-101955328D01*
X134606272Y-101983230D01*
X134449875Y-102031895D01*
X134311400Y-102056475D01*
X134292443Y-102057200D01*
X134224273Y-102051260D01*
X134190754Y-102017300D01*
X134183887Y-101931103D01*
X134195676Y-101768455D01*
X134195972Y-101765100D01*
X134237014Y-101472455D01*
X134305109Y-101259262D01*
X134407676Y-101105286D01*
X134454251Y-101060640D01*
X134579362Y-100953081D01*
X134421881Y-100898183D01*
X134314459Y-100849648D01*
X134265182Y-100805494D01*
X134264835Y-100802542D01*
X134305196Y-100758431D01*
X134411918Y-100677718D01*
X134564125Y-100575879D01*
X134607735Y-100548372D01*
X134955310Y-100319208D01*
X135244037Y-100096101D01*
X135500557Y-99854172D01*
X135751510Y-99568544D01*
X135995376Y-99252541D01*
X136154234Y-99033817D01*
X136288787Y-98840910D01*
X136388359Y-98689734D01*
X136442271Y-98596201D01*
X136448800Y-98576729D01*
X136410014Y-98558484D01*
X136290304Y-98574756D01*
X136084645Y-98626511D01*
X135882073Y-98685821D01*
X135658136Y-98751615D01*
X135472232Y-98802092D01*
X135344276Y-98832127D01*
X135294469Y-98837001D01*
X135312808Y-98789179D01*
X135377194Y-98671263D01*
X135478716Y-98498610D01*
X135608463Y-98286579D01*
X135681122Y-98170618D01*
X135892931Y-97824370D01*
X136049354Y-97539637D01*
X136157612Y-97297918D01*
X136224927Y-97080710D01*
X136258521Y-96869511D01*
X136265915Y-96672400D01*
X136247789Y-96326464D01*
X136192645Y-96052947D01*
X136091703Y-95826673D01*
X135936183Y-95622463D01*
X135879167Y-95563324D01*
X135604971Y-95332788D01*
X135294437Y-95141839D01*
X134968215Y-94997952D01*
X134646957Y-94908597D01*
X134351312Y-94881246D01*
X134106222Y-94921838D01*
X133977342Y-94959915D01*
X133900562Y-94952924D01*
X133836288Y-94898475D01*
X133735888Y-94824613D01*
X133589826Y-94755028D01*
X133554029Y-94742273D01*
X133470602Y-94717571D01*
X133392004Y-94706291D01*
X133301655Y-94712207D01*
X133182978Y-94739094D01*
X133019394Y-94790727D01*
X132794326Y-94870881D01*
X132491195Y-94983331D01*
X132484606Y-94985792D01*
X132317830Y-95041127D01*
X132174148Y-95065648D01*
X132009977Y-95063233D01*
X131830530Y-95044005D01*
X131626657Y-95013415D01*
X131485759Y-94972912D01*
X131369427Y-94905911D01*
X131239255Y-94795830D01*
X131224615Y-94782382D01*
X130991583Y-94567581D01*
X130956655Y-94692890D01*
G36*
X150787311Y-115224588D02*
G01*
X150662546Y-115275715D01*
X150488406Y-115359635D01*
X150283611Y-115466356D01*
X150066883Y-115585888D01*
X149856943Y-115708239D01*
X149672513Y-115823417D01*
X149555955Y-115903653D01*
X149376366Y-116050275D01*
X149206960Y-116212615D01*
X149093587Y-116343972D01*
X149007684Y-116469812D01*
X148963471Y-116573548D01*
X148951411Y-116695219D01*
X148961964Y-116874862D01*
X148963316Y-116890800D01*
X148984833Y-117056929D01*
X149025368Y-117295395D01*
X149079980Y-117579797D01*
X149143727Y-117883737D01*
X149177258Y-118033800D01*
X149249216Y-118357030D01*
X149298916Y-118606909D01*
X149329506Y-118808456D01*
X149344134Y-118986690D01*
X149345950Y-119166632D01*
X149340266Y-119329200D01*
X149309554Y-119672366D01*
X149244739Y-119953703D01*
X149132247Y-120210885D01*
X148958504Y-120481585D01*
X148893211Y-120570000D01*
X148775845Y-120736922D01*
X148728042Y-120855018D01*
X148755930Y-120946728D01*
X148865636Y-121034488D01*
X149046815Y-121132404D01*
X149327784Y-121244642D01*
X149604228Y-121283614D01*
X149889127Y-121261412D01*
X150252009Y-121163197D01*
X150549870Y-120987835D01*
X150785764Y-120732776D01*
X150962744Y-120395467D01*
X150979921Y-120350019D01*
X151046337Y-120191260D01*
X151109345Y-120079583D01*
X151152703Y-120040400D01*
X151223470Y-120074398D01*
X151324978Y-120158894D01*
X151353441Y-120187414D01*
X151484612Y-120292635D01*
X151656918Y-120368589D01*
X151887352Y-120419783D01*
X152192906Y-120450725D01*
X152381401Y-120460095D01*
X152845401Y-120477526D01*
X152750268Y-120347863D01*
X152697905Y-120238360D01*
X152641767Y-120060045D01*
X152591394Y-119844832D01*
X152577433Y-119769831D01*
X152509654Y-119438597D01*
X152431704Y-119184029D01*
X152335209Y-118981209D01*
X152286722Y-118904858D01*
X152250651Y-118823312D01*
X152297830Y-118765222D01*
X152317887Y-118752458D01*
X152657181Y-118506641D01*
X152916921Y-118224837D01*
X153076108Y-117969342D01*
X153255189Y-117679037D01*
X153448386Y-117455652D01*
X153643399Y-117311803D01*
X153759832Y-117268090D01*
X153880344Y-117240179D01*
X153949400Y-117222275D01*
X153951021Y-117195939D01*
X153877939Y-117150908D01*
X153753209Y-117096156D01*
X153599889Y-117040657D01*
X153441034Y-116993387D01*
X153299701Y-116963321D01*
X153276250Y-116960239D01*
X153119827Y-116951890D01*
X152996162Y-116978241D01*
X152858109Y-117052244D01*
X152797865Y-117091667D01*
X152633077Y-117186495D01*
X152414466Y-117291864D01*
X152184968Y-117387327D01*
X152148703Y-117400828D01*
X151771610Y-117510854D01*
X151447155Y-117548178D01*
X151180649Y-117513412D01*
X150977401Y-117407171D01*
X150853128Y-117251288D01*
X150792372Y-117065911D01*
X150755004Y-116803552D01*
X150741931Y-116486307D01*
X150754060Y-116136276D01*
X150792297Y-115775558D01*
X150792511Y-115774074D01*
X150821787Y-115553196D01*
X150840966Y-115371997D01*
X150848022Y-115252434D01*
X150843980Y-115216246D01*
X150787311Y-115224588D01*
X150787311Y-115224588D01*
G37*
X150787311Y-115224588D02*
X150662546Y-115275715D01*
X150488406Y-115359635D01*
X150283611Y-115466356D01*
X150066883Y-115585888D01*
X149856943Y-115708239D01*
X149672513Y-115823417D01*
X149555955Y-115903653D01*
X149376366Y-116050275D01*
X149206960Y-116212615D01*
X149093587Y-116343972D01*
X149007684Y-116469812D01*
X148963471Y-116573548D01*
X148951411Y-116695219D01*
X148961964Y-116874862D01*
X148963316Y-116890800D01*
X148984833Y-117056929D01*
X149025368Y-117295395D01*
X149079980Y-117579797D01*
X149143727Y-117883737D01*
X149177258Y-118033800D01*
X149249216Y-118357030D01*
X149298916Y-118606909D01*
X149329506Y-118808456D01*
X149344134Y-118986690D01*
X149345950Y-119166632D01*
X149340266Y-119329200D01*
X149309554Y-119672366D01*
X149244739Y-119953703D01*
X149132247Y-120210885D01*
X148958504Y-120481585D01*
X148893211Y-120570000D01*
X148775845Y-120736922D01*
X148728042Y-120855018D01*
X148755930Y-120946728D01*
X148865636Y-121034488D01*
X149046815Y-121132404D01*
X149327784Y-121244642D01*
X149604228Y-121283614D01*
X149889127Y-121261412D01*
X150252009Y-121163197D01*
X150549870Y-120987835D01*
X150785764Y-120732776D01*
X150962744Y-120395467D01*
X150979921Y-120350019D01*
X151046337Y-120191260D01*
X151109345Y-120079583D01*
X151152703Y-120040400D01*
X151223470Y-120074398D01*
X151324978Y-120158894D01*
X151353441Y-120187414D01*
X151484612Y-120292635D01*
X151656918Y-120368589D01*
X151887352Y-120419783D01*
X152192906Y-120450725D01*
X152381401Y-120460095D01*
X152845401Y-120477526D01*
X152750268Y-120347863D01*
X152697905Y-120238360D01*
X152641767Y-120060045D01*
X152591394Y-119844832D01*
X152577433Y-119769831D01*
X152509654Y-119438597D01*
X152431704Y-119184029D01*
X152335209Y-118981209D01*
X152286722Y-118904858D01*
X152250651Y-118823312D01*
X152297830Y-118765222D01*
X152317887Y-118752458D01*
X152657181Y-118506641D01*
X152916921Y-118224837D01*
X153076108Y-117969342D01*
X153255189Y-117679037D01*
X153448386Y-117455652D01*
X153643399Y-117311803D01*
X153759832Y-117268090D01*
X153880344Y-117240179D01*
X153949400Y-117222275D01*
X153951021Y-117195939D01*
X153877939Y-117150908D01*
X153753209Y-117096156D01*
X153599889Y-117040657D01*
X153441034Y-116993387D01*
X153299701Y-116963321D01*
X153276250Y-116960239D01*
X153119827Y-116951890D01*
X152996162Y-116978241D01*
X152858109Y-117052244D01*
X152797865Y-117091667D01*
X152633077Y-117186495D01*
X152414466Y-117291864D01*
X152184968Y-117387327D01*
X152148703Y-117400828D01*
X151771610Y-117510854D01*
X151447155Y-117548178D01*
X151180649Y-117513412D01*
X150977401Y-117407171D01*
X150853128Y-117251288D01*
X150792372Y-117065911D01*
X150755004Y-116803552D01*
X150741931Y-116486307D01*
X150754060Y-116136276D01*
X150792297Y-115775558D01*
X150792511Y-115774074D01*
X150821787Y-115553196D01*
X150840966Y-115371997D01*
X150848022Y-115252434D01*
X150843980Y-115216246D01*
X150787311Y-115224588D01*
G36*
X131216364Y-114397607D02*
G01*
X131211416Y-114492710D01*
X131197835Y-114662757D01*
X131177442Y-114889946D01*
X131152058Y-115156470D01*
X131123504Y-115444526D01*
X131093602Y-115736309D01*
X131064174Y-116014014D01*
X131037040Y-116259837D01*
X131014023Y-116455973D01*
X130996943Y-116584618D01*
X130988203Y-116627930D01*
X130913581Y-116639283D01*
X130764726Y-116614227D01*
X130559942Y-116558305D01*
X130317530Y-116477059D01*
X130055793Y-116376031D01*
X129825187Y-116275708D01*
X129456734Y-116123067D01*
X129077310Y-115996287D01*
X128711135Y-115901559D01*
X128382429Y-115845075D01*
X128115412Y-115833026D01*
X128097795Y-115834141D01*
X127889623Y-115849400D01*
X128151687Y-116017020D01*
X128400816Y-116228252D01*
X128642132Y-116536741D01*
X128872565Y-116938255D01*
X128972314Y-117149102D01*
X129054049Y-117324279D01*
X129123896Y-117433635D01*
X129210119Y-117504683D01*
X129340982Y-117564930D01*
X129437145Y-117601530D01*
X129602697Y-117672222D01*
X129726703Y-117741540D01*
X129780117Y-117791494D01*
X129761686Y-117867093D01*
X129680442Y-117985372D01*
X129595226Y-118080090D01*
X129449970Y-118254216D01*
X129346546Y-118450796D01*
X129279131Y-118647824D01*
X129202924Y-118858612D01*
X129107040Y-119059590D01*
X129022486Y-119192867D01*
X128937718Y-119308685D01*
X128891957Y-119388221D01*
X128889563Y-119406896D01*
X128945483Y-119405910D01*
X129068890Y-119382340D01*
X129186763Y-119353331D01*
X129386348Y-119314833D01*
X129630520Y-119287933D01*
X129838617Y-119279002D01*
X130053873Y-119272579D01*
X130212104Y-119246918D01*
X130357535Y-119191181D01*
X130492337Y-119118827D01*
X130771240Y-118959255D01*
X130741770Y-119156927D01*
X130712364Y-119345286D01*
X130681532Y-119530605D01*
X130680175Y-119538389D01*
X130689714Y-119759422D01*
X130784323Y-119992818D01*
X130904907Y-120159900D01*
X131098791Y-120308529D01*
X131364675Y-120406002D01*
X131684756Y-120448681D01*
X132041230Y-120432928D01*
X132156200Y-120415636D01*
X132391655Y-120381702D01*
X132639080Y-120357443D01*
X132805668Y-120349213D01*
X133099536Y-120345200D01*
X132916975Y-120184909D01*
X132748436Y-120003683D01*
X132614214Y-119777672D01*
X132500726Y-119482318D01*
X132467441Y-119372181D01*
X132420563Y-119172242D01*
X132394154Y-118958195D01*
X132389108Y-118716306D01*
X132406317Y-118432841D01*
X132446676Y-118094065D01*
X132511077Y-117686245D01*
X132600414Y-117195645D01*
X132613400Y-117127700D01*
X132678324Y-116781809D01*
X132736083Y-116459371D01*
X132783914Y-116177021D01*
X132819056Y-115951390D01*
X132838747Y-115799112D01*
X132842000Y-115750907D01*
X132828273Y-115581332D01*
X132778041Y-115442226D01*
X132677731Y-115318443D01*
X132513768Y-115194839D01*
X132272580Y-115056269D01*
X132172719Y-115004157D01*
X131937341Y-114874303D01*
X131711707Y-114734252D01*
X131526262Y-114603683D01*
X131436325Y-114528140D01*
X131303823Y-114412388D01*
X131231075Y-114376003D01*
X131216364Y-114397607D01*
X131216364Y-114397607D01*
G37*
X131216364Y-114397607D02*
X131211416Y-114492710D01*
X131197835Y-114662757D01*
X131177442Y-114889946D01*
X131152058Y-115156470D01*
X131123504Y-115444526D01*
X131093602Y-115736309D01*
X131064174Y-116014014D01*
X131037040Y-116259837D01*
X131014023Y-116455973D01*
X130996943Y-116584618D01*
X130988203Y-116627930D01*
X130913581Y-116639283D01*
X130764726Y-116614227D01*
X130559942Y-116558305D01*
X130317530Y-116477059D01*
X130055793Y-116376031D01*
X129825187Y-116275708D01*
X129456734Y-116123067D01*
X129077310Y-115996287D01*
X128711135Y-115901559D01*
X128382429Y-115845075D01*
X128115412Y-115833026D01*
X128097795Y-115834141D01*
X127889623Y-115849400D01*
X128151687Y-116017020D01*
X128400816Y-116228252D01*
X128642132Y-116536741D01*
X128872565Y-116938255D01*
X128972314Y-117149102D01*
X129054049Y-117324279D01*
X129123896Y-117433635D01*
X129210119Y-117504683D01*
X129340982Y-117564930D01*
X129437145Y-117601530D01*
X129602697Y-117672222D01*
X129726703Y-117741540D01*
X129780117Y-117791494D01*
X129761686Y-117867093D01*
X129680442Y-117985372D01*
X129595226Y-118080090D01*
X129449970Y-118254216D01*
X129346546Y-118450796D01*
X129279131Y-118647824D01*
X129202924Y-118858612D01*
X129107040Y-119059590D01*
X129022486Y-119192867D01*
X128937718Y-119308685D01*
X128891957Y-119388221D01*
X128889563Y-119406896D01*
X128945483Y-119405910D01*
X129068890Y-119382340D01*
X129186763Y-119353331D01*
X129386348Y-119314833D01*
X129630520Y-119287933D01*
X129838617Y-119279002D01*
X130053873Y-119272579D01*
X130212104Y-119246918D01*
X130357535Y-119191181D01*
X130492337Y-119118827D01*
X130771240Y-118959255D01*
X130741770Y-119156927D01*
X130712364Y-119345286D01*
X130681532Y-119530605D01*
X130680175Y-119538389D01*
X130689714Y-119759422D01*
X130784323Y-119992818D01*
X130904907Y-120159900D01*
X131098791Y-120308529D01*
X131364675Y-120406002D01*
X131684756Y-120448681D01*
X132041230Y-120432928D01*
X132156200Y-120415636D01*
X132391655Y-120381702D01*
X132639080Y-120357443D01*
X132805668Y-120349213D01*
X133099536Y-120345200D01*
X132916975Y-120184909D01*
X132748436Y-120003683D01*
X132614214Y-119777672D01*
X132500726Y-119482318D01*
X132467441Y-119372181D01*
X132420563Y-119172242D01*
X132394154Y-118958195D01*
X132389108Y-118716306D01*
X132406317Y-118432841D01*
X132446676Y-118094065D01*
X132511077Y-117686245D01*
X132600414Y-117195645D01*
X132613400Y-117127700D01*
X132678324Y-116781809D01*
X132736083Y-116459371D01*
X132783914Y-116177021D01*
X132819056Y-115951390D01*
X132838747Y-115799112D01*
X132842000Y-115750907D01*
X132828273Y-115581332D01*
X132778041Y-115442226D01*
X132677731Y-115318443D01*
X132513768Y-115194839D01*
X132272580Y-115056269D01*
X132172719Y-115004157D01*
X131937341Y-114874303D01*
X131711707Y-114734252D01*
X131526262Y-114603683D01*
X131436325Y-114528140D01*
X131303823Y-114412388D01*
X131231075Y-114376003D01*
X131216364Y-114397607D01*
G36*
X128417728Y-107126318D02*
G01*
X128358856Y-107229180D01*
X128279276Y-107386149D01*
X128188170Y-107577390D01*
X128094725Y-107783062D01*
X128008123Y-107983329D01*
X127937550Y-108158352D01*
X127892189Y-108288294D01*
X127887348Y-108305600D01*
X127836440Y-108542566D01*
X127818011Y-108765199D01*
X127832425Y-109007129D01*
X127880044Y-109301986D01*
X127899125Y-109397389D01*
X127933432Y-109571256D01*
X127953522Y-109710227D01*
X127958694Y-109840533D01*
X127948245Y-109988404D01*
X127921472Y-110180072D01*
X127877673Y-110441768D01*
X127869949Y-110486606D01*
X127784842Y-110933461D01*
X127698014Y-111290541D01*
X127605795Y-111569652D01*
X127504515Y-111782600D01*
X127434225Y-111888336D01*
X127305229Y-112024935D01*
X127111898Y-112177223D01*
X126845747Y-112350913D01*
X126498290Y-112551718D01*
X126246131Y-112688193D01*
X125723590Y-112965603D01*
X125917295Y-113042587D01*
X126248956Y-113151442D01*
X126551247Y-113206268D01*
X126802261Y-113203697D01*
X126871450Y-113189310D01*
X127001759Y-113160330D01*
X127084705Y-113154907D01*
X127095136Y-113159001D01*
X127084521Y-113211455D01*
X127027061Y-113309981D01*
X127009092Y-113335424D01*
X126898096Y-113487676D01*
X126785270Y-113642521D01*
X126784100Y-113644126D01*
X126727425Y-113735326D01*
X126693701Y-113835928D01*
X126677837Y-113974134D01*
X126674739Y-114178147D01*
X126675404Y-114246034D01*
X126682146Y-114475525D01*
X126695075Y-114689846D01*
X126711723Y-114850957D01*
X126716571Y-114880589D01*
X126752136Y-115070164D01*
X127000892Y-114837482D01*
X127177252Y-114692543D01*
X127320605Y-114615007D01*
X127374697Y-114604800D01*
X127503443Y-114561872D01*
X127643510Y-114445707D01*
X127648999Y-114439700D01*
X127771940Y-114303689D01*
X127919534Y-114140382D01*
X127997000Y-114054662D01*
X128195749Y-113834724D01*
X128442832Y-114196343D01*
X128560205Y-114357293D01*
X128661585Y-114476750D01*
X128730763Y-114536361D01*
X128745741Y-114539353D01*
X128799721Y-114490840D01*
X128890989Y-114379806D01*
X129001244Y-114228768D01*
X129018383Y-114203915D01*
X129131010Y-114032314D01*
X129195861Y-113902838D01*
X129225862Y-113776138D01*
X129233937Y-113612863D01*
X129234005Y-113547442D01*
X129218788Y-113316727D01*
X129180277Y-113050807D01*
X129132405Y-112830235D01*
X129058294Y-112499492D01*
X129035108Y-112255711D01*
X129062776Y-112097978D01*
X129073808Y-112077611D01*
X129137071Y-112062458D01*
X129250526Y-112104976D01*
X129392355Y-112191157D01*
X129540744Y-112306993D01*
X129673876Y-112438478D01*
X129716344Y-112490175D01*
X129789557Y-112605180D01*
X129844329Y-112744602D01*
X129888930Y-112935115D01*
X129926680Y-113168618D01*
X129970641Y-113426223D01*
X130026414Y-113686286D01*
X130084339Y-113905446D01*
X130105192Y-113969800D01*
X130169037Y-114130241D01*
X130258993Y-114329127D01*
X130363819Y-114544660D01*
X130472271Y-114755042D01*
X130573107Y-114938475D01*
X130655084Y-115073160D01*
X130706960Y-115137299D01*
X130707526Y-115137659D01*
X130735125Y-115104725D01*
X130769251Y-114993672D01*
X130803235Y-114827118D01*
X130808433Y-114795446D01*
X130841762Y-114588022D01*
X130885421Y-114319945D01*
X130932949Y-114030765D01*
X130965448Y-113834620D01*
X131004143Y-113599232D01*
X131035930Y-113400561D01*
X131057441Y-113260024D01*
X131065299Y-113199620D01*
X131085770Y-113219622D01*
X131138480Y-113312150D01*
X131212449Y-113457779D01*
X131220034Y-113473365D01*
X131385916Y-113753806D01*
X131596331Y-114017907D01*
X131829787Y-114243860D01*
X132064794Y-114409856D01*
X132207000Y-114474868D01*
X132513709Y-114588754D01*
X132739542Y-114702713D01*
X132903713Y-114834289D01*
X133025435Y-115001020D01*
X133123920Y-115220448D01*
X133170029Y-115354100D01*
X133225268Y-115518149D01*
X133260874Y-115598153D01*
X133286560Y-115607337D01*
X133312042Y-115558922D01*
X133314968Y-115551382D01*
X133356718Y-115397000D01*
X133397395Y-115166630D01*
X133434301Y-114885869D01*
X133464740Y-114580315D01*
X133486016Y-114275568D01*
X133495432Y-113997226D01*
X133494168Y-113850308D01*
X133484542Y-113601863D01*
X133468572Y-113421100D01*
X133438094Y-113274119D01*
X133384945Y-113127018D01*
X133300960Y-112945897D01*
X133252793Y-112848021D01*
X133066811Y-112514779D01*
X132864686Y-112244541D01*
X132730798Y-112102900D01*
X132433012Y-111810800D01*
X132644210Y-111810800D01*
X132907313Y-111761982D01*
X133154182Y-111622967D01*
X133375626Y-111404916D01*
X133562455Y-111118986D01*
X133705479Y-110776338D01*
X133790803Y-110418544D01*
X133807051Y-110292607D01*
X133791821Y-110243007D01*
X133732147Y-110246182D01*
X133700665Y-110254745D01*
X133390260Y-110319086D01*
X133153267Y-110315194D01*
X132995455Y-110247069D01*
X132869844Y-110145355D01*
X133052832Y-110068898D01*
X133176299Y-109997237D01*
X133276918Y-109883214D01*
X133378370Y-109701078D01*
X133520921Y-109409715D01*
X133351970Y-109096649D01*
X133250544Y-108885599D01*
X133206350Y-108726950D01*
X133206911Y-108620791D01*
X133218661Y-108509892D01*
X133215190Y-108458444D01*
X133214013Y-108458000D01*
X133171284Y-108488686D01*
X133063744Y-108573595D01*
X132904710Y-108701997D01*
X132707499Y-108863165D01*
X132551852Y-108991400D01*
X132334232Y-109169605D01*
X132143649Y-109322538D01*
X131993856Y-109439409D01*
X131898607Y-109509433D01*
X131871748Y-109524800D01*
X131834676Y-109481986D01*
X131806268Y-109402295D01*
X131758687Y-109316187D01*
X131654597Y-109180769D01*
X131510947Y-109016919D01*
X131394361Y-108894902D01*
X131013200Y-108510013D01*
X131013200Y-108844625D01*
X131009026Y-109030889D01*
X130989000Y-109150161D01*
X130941865Y-109236944D01*
X130856366Y-109325742D01*
X130856197Y-109325900D01*
X130690025Y-109446108D01*
X130485099Y-109523932D01*
X130223323Y-109563451D01*
X129886603Y-109568747D01*
X129794000Y-109565439D01*
X129492522Y-109542758D01*
X129261307Y-109496794D01*
X129069645Y-109415518D01*
X128886824Y-109286900D01*
X128735826Y-109150975D01*
X128570386Y-108975148D01*
X128453687Y-108800672D01*
X128381204Y-108608147D01*
X128348412Y-108378172D01*
X128350787Y-108091347D01*
X128383804Y-107728272D01*
X128390572Y-107670600D01*
X128416520Y-107445028D01*
X128435763Y-107260349D01*
X128446248Y-107137536D01*
X128446705Y-107097403D01*
X128417728Y-107126318D01*
X128417728Y-107126318D01*
G37*
X128417728Y-107126318D02*
X128358856Y-107229180D01*
X128279276Y-107386149D01*
X128188170Y-107577390D01*
X128094725Y-107783062D01*
X128008123Y-107983329D01*
X127937550Y-108158352D01*
X127892189Y-108288294D01*
X127887348Y-108305600D01*
X127836440Y-108542566D01*
X127818011Y-108765199D01*
X127832425Y-109007129D01*
X127880044Y-109301986D01*
X127899125Y-109397389D01*
X127933432Y-109571256D01*
X127953522Y-109710227D01*
X127958694Y-109840533D01*
X127948245Y-109988404D01*
X127921472Y-110180072D01*
X127877673Y-110441768D01*
X127869949Y-110486606D01*
X127784842Y-110933461D01*
X127698014Y-111290541D01*
X127605795Y-111569652D01*
X127504515Y-111782600D01*
X127434225Y-111888336D01*
X127305229Y-112024935D01*
X127111898Y-112177223D01*
X126845747Y-112350913D01*
X126498290Y-112551718D01*
X126246131Y-112688193D01*
X125723590Y-112965603D01*
X125917295Y-113042587D01*
X126248956Y-113151442D01*
X126551247Y-113206268D01*
X126802261Y-113203697D01*
X126871450Y-113189310D01*
X127001759Y-113160330D01*
X127084705Y-113154907D01*
X127095136Y-113159001D01*
X127084521Y-113211455D01*
X127027061Y-113309981D01*
X127009092Y-113335424D01*
X126898096Y-113487676D01*
X126785270Y-113642521D01*
X126784100Y-113644126D01*
X126727425Y-113735326D01*
X126693701Y-113835928D01*
X126677837Y-113974134D01*
X126674739Y-114178147D01*
X126675404Y-114246034D01*
X126682146Y-114475525D01*
X126695075Y-114689846D01*
X126711723Y-114850957D01*
X126716571Y-114880589D01*
X126752136Y-115070164D01*
X127000892Y-114837482D01*
X127177252Y-114692543D01*
X127320605Y-114615007D01*
X127374697Y-114604800D01*
X127503443Y-114561872D01*
X127643510Y-114445707D01*
X127648999Y-114439700D01*
X127771940Y-114303689D01*
X127919534Y-114140382D01*
X127997000Y-114054662D01*
X128195749Y-113834724D01*
X128442832Y-114196343D01*
X128560205Y-114357293D01*
X128661585Y-114476750D01*
X128730763Y-114536361D01*
X128745741Y-114539353D01*
X128799721Y-114490840D01*
X128890989Y-114379806D01*
X129001244Y-114228768D01*
X129018383Y-114203915D01*
X129131010Y-114032314D01*
X129195861Y-113902838D01*
X129225862Y-113776138D01*
X129233937Y-113612863D01*
X129234005Y-113547442D01*
X129218788Y-113316727D01*
X129180277Y-113050807D01*
X129132405Y-112830235D01*
X129058294Y-112499492D01*
X129035108Y-112255711D01*
X129062776Y-112097978D01*
X129073808Y-112077611D01*
X129137071Y-112062458D01*
X129250526Y-112104976D01*
X129392355Y-112191157D01*
X129540744Y-112306993D01*
X129673876Y-112438478D01*
X129716344Y-112490175D01*
X129789557Y-112605180D01*
X129844329Y-112744602D01*
X129888930Y-112935115D01*
X129926680Y-113168618D01*
X129970641Y-113426223D01*
X130026414Y-113686286D01*
X130084339Y-113905446D01*
X130105192Y-113969800D01*
X130169037Y-114130241D01*
X130258993Y-114329127D01*
X130363819Y-114544660D01*
X130472271Y-114755042D01*
X130573107Y-114938475D01*
X130655084Y-115073160D01*
X130706960Y-115137299D01*
X130707526Y-115137659D01*
X130735125Y-115104725D01*
X130769251Y-114993672D01*
X130803235Y-114827118D01*
X130808433Y-114795446D01*
X130841762Y-114588022D01*
X130885421Y-114319945D01*
X130932949Y-114030765D01*
X130965448Y-113834620D01*
X131004143Y-113599232D01*
X131035930Y-113400561D01*
X131057441Y-113260024D01*
X131065299Y-113199620D01*
X131085770Y-113219622D01*
X131138480Y-113312150D01*
X131212449Y-113457779D01*
X131220034Y-113473365D01*
X131385916Y-113753806D01*
X131596331Y-114017907D01*
X131829787Y-114243860D01*
X132064794Y-114409856D01*
X132207000Y-114474868D01*
X132513709Y-114588754D01*
X132739542Y-114702713D01*
X132903713Y-114834289D01*
X133025435Y-115001020D01*
X133123920Y-115220448D01*
X133170029Y-115354100D01*
X133225268Y-115518149D01*
X133260874Y-115598153D01*
X133286560Y-115607337D01*
X133312042Y-115558922D01*
X133314968Y-115551382D01*
X133356718Y-115397000D01*
X133397395Y-115166630D01*
X133434301Y-114885869D01*
X133464740Y-114580315D01*
X133486016Y-114275568D01*
X133495432Y-113997226D01*
X133494168Y-113850308D01*
X133484542Y-113601863D01*
X133468572Y-113421100D01*
X133438094Y-113274119D01*
X133384945Y-113127018D01*
X133300960Y-112945897D01*
X133252793Y-112848021D01*
X133066811Y-112514779D01*
X132864686Y-112244541D01*
X132730798Y-112102900D01*
X132433012Y-111810800D01*
X132644210Y-111810800D01*
X132907313Y-111761982D01*
X133154182Y-111622967D01*
X133375626Y-111404916D01*
X133562455Y-111118986D01*
X133705479Y-110776338D01*
X133790803Y-110418544D01*
X133807051Y-110292607D01*
X133791821Y-110243007D01*
X133732147Y-110246182D01*
X133700665Y-110254745D01*
X133390260Y-110319086D01*
X133153267Y-110315194D01*
X132995455Y-110247069D01*
X132869844Y-110145355D01*
X133052832Y-110068898D01*
X133176299Y-109997237D01*
X133276918Y-109883214D01*
X133378370Y-109701078D01*
X133520921Y-109409715D01*
X133351970Y-109096649D01*
X133250544Y-108885599D01*
X133206350Y-108726950D01*
X133206911Y-108620791D01*
X133218661Y-108509892D01*
X133215190Y-108458444D01*
X133214013Y-108458000D01*
X133171284Y-108488686D01*
X133063744Y-108573595D01*
X132904710Y-108701997D01*
X132707499Y-108863165D01*
X132551852Y-108991400D01*
X132334232Y-109169605D01*
X132143649Y-109322538D01*
X131993856Y-109439409D01*
X131898607Y-109509433D01*
X131871748Y-109524800D01*
X131834676Y-109481986D01*
X131806268Y-109402295D01*
X131758687Y-109316187D01*
X131654597Y-109180769D01*
X131510947Y-109016919D01*
X131394361Y-108894902D01*
X131013200Y-108510013D01*
X131013200Y-108844625D01*
X131009026Y-109030889D01*
X130989000Y-109150161D01*
X130941865Y-109236944D01*
X130856366Y-109325742D01*
X130856197Y-109325900D01*
X130690025Y-109446108D01*
X130485099Y-109523932D01*
X130223323Y-109563451D01*
X129886603Y-109568747D01*
X129794000Y-109565439D01*
X129492522Y-109542758D01*
X129261307Y-109496794D01*
X129069645Y-109415518D01*
X128886824Y-109286900D01*
X128735826Y-109150975D01*
X128570386Y-108975148D01*
X128453687Y-108800672D01*
X128381204Y-108608147D01*
X128348412Y-108378172D01*
X128350787Y-108091347D01*
X128383804Y-107728272D01*
X128390572Y-107670600D01*
X128416520Y-107445028D01*
X128435763Y-107260349D01*
X128446248Y-107137536D01*
X128446705Y-107097403D01*
X128417728Y-107126318D01*
G36*
X154452545Y-106378212D02*
G01*
X154298886Y-106426327D01*
X154137506Y-106502130D01*
X154013308Y-106550326D01*
X153868810Y-106567627D01*
X153667446Y-106557774D01*
X153629506Y-106554128D01*
X153289000Y-106520027D01*
X153147899Y-106841313D01*
X152899047Y-107293533D01*
X152580374Y-107672837D01*
X152188239Y-107982904D01*
X151820484Y-108182990D01*
X151662929Y-108248934D01*
X151499403Y-108302029D01*
X151313819Y-108344820D01*
X151090092Y-108379856D01*
X150812135Y-108409683D01*
X150463864Y-108436849D01*
X150056436Y-108462325D01*
X149643893Y-108483105D01*
X149316472Y-108490659D01*
X149058316Y-108482966D01*
X148853566Y-108458005D01*
X148686366Y-108413754D01*
X148540856Y-108348192D01*
X148401180Y-108259298D01*
X148387739Y-108249639D01*
X148271582Y-108170486D01*
X148197640Y-108129687D01*
X148183600Y-108129657D01*
X148215719Y-108178080D01*
X148299885Y-108278087D01*
X148416745Y-108406803D01*
X148552122Y-108538062D01*
X148692981Y-108639221D01*
X148860269Y-108719145D01*
X149074937Y-108786701D01*
X149357932Y-108850753D01*
X149555200Y-108888607D01*
X149992025Y-108978729D01*
X150370523Y-109076164D01*
X150677432Y-109176956D01*
X150899488Y-109277150D01*
X150940392Y-109301772D01*
X151076772Y-109377845D01*
X151171712Y-109393350D01*
X151231966Y-109372204D01*
X151346544Y-109265458D01*
X151438279Y-109101243D01*
X151484009Y-108923691D01*
X151485600Y-108888899D01*
X151498137Y-108795323D01*
X151553702Y-108778863D01*
X151599900Y-108790427D01*
X151881104Y-108906164D01*
X152097002Y-109072374D01*
X152214042Y-109213031D01*
X152340989Y-109398085D01*
X152419057Y-109546451D01*
X152464129Y-109699726D01*
X152492086Y-109899510D01*
X152497736Y-109956113D01*
X152525624Y-110147013D01*
X152565846Y-110248499D01*
X152603200Y-110272638D01*
X152684080Y-110259534D01*
X152828982Y-110213766D01*
X153009373Y-110144576D01*
X153046166Y-110129178D01*
X153284915Y-110010800D01*
X153477421Y-109882376D01*
X153561659Y-109804117D01*
X153672305Y-109644221D01*
X153778906Y-109434357D01*
X153865657Y-109212289D01*
X153916757Y-109015782D01*
X153924000Y-108938226D01*
X153904511Y-108839098D01*
X153852067Y-108674192D01*
X153775705Y-108470245D01*
X153720868Y-108337218D01*
X153630173Y-108116344D01*
X153552917Y-107912427D01*
X153499967Y-107754929D01*
X153484771Y-107696954D01*
X153451808Y-107532136D01*
X153675204Y-107566995D01*
X153928620Y-107632608D01*
X154186370Y-107742680D01*
X154412208Y-107879019D01*
X154559759Y-108010965D01*
X154792601Y-108363327D01*
X154963824Y-108790638D01*
X155070841Y-109285156D01*
X155104907Y-109641997D01*
X155117800Y-109886194D01*
X155703482Y-110123660D01*
X155673809Y-109709930D01*
X155653153Y-109475592D01*
X155626478Y-109245055D01*
X155599244Y-109064970D01*
X155596868Y-109052399D01*
X155564424Y-108876844D01*
X155558628Y-108774586D01*
X155588178Y-108718920D01*
X155661774Y-108683141D01*
X155723932Y-108662344D01*
X155961912Y-108542498D01*
X156214897Y-108340469D01*
X156436749Y-108104616D01*
X156547021Y-107956934D01*
X156600552Y-107828056D01*
X156616163Y-107668872D01*
X156616400Y-107635877D01*
X156616400Y-107382168D01*
X156460103Y-107513684D01*
X156260592Y-107621545D01*
X156026213Y-107636842D01*
X155753507Y-107559680D01*
X155702000Y-107536871D01*
X155473400Y-107430774D01*
X155730005Y-107341312D01*
X155912421Y-107272568D01*
X156081906Y-107200434D01*
X156143054Y-107170949D01*
X156248783Y-107099903D01*
X156364687Y-106998701D01*
X156468313Y-106890726D01*
X156537208Y-106799361D01*
X156549053Y-106748119D01*
X156479178Y-106716075D01*
X156330739Y-106670305D01*
X156125022Y-106615858D01*
X155883314Y-106557783D01*
X155626900Y-106501128D01*
X155377067Y-106450943D01*
X155155101Y-106412276D01*
X155096542Y-106403594D01*
X154821863Y-106369878D01*
X154617034Y-106360406D01*
X154452545Y-106378212D01*
X154452545Y-106378212D01*
G37*
X154452545Y-106378212D02*
X154298886Y-106426327D01*
X154137506Y-106502130D01*
X154013308Y-106550326D01*
X153868810Y-106567627D01*
X153667446Y-106557774D01*
X153629506Y-106554128D01*
X153289000Y-106520027D01*
X153147899Y-106841313D01*
X152899047Y-107293533D01*
X152580374Y-107672837D01*
X152188239Y-107982904D01*
X151820484Y-108182990D01*
X151662929Y-108248934D01*
X151499403Y-108302029D01*
X151313819Y-108344820D01*
X151090092Y-108379856D01*
X150812135Y-108409683D01*
X150463864Y-108436849D01*
X150056436Y-108462325D01*
X149643893Y-108483105D01*
X149316472Y-108490659D01*
X149058316Y-108482966D01*
X148853566Y-108458005D01*
X148686366Y-108413754D01*
X148540856Y-108348192D01*
X148401180Y-108259298D01*
X148387739Y-108249639D01*
X148271582Y-108170486D01*
X148197640Y-108129687D01*
X148183600Y-108129657D01*
X148215719Y-108178080D01*
X148299885Y-108278087D01*
X148416745Y-108406803D01*
X148552122Y-108538062D01*
X148692981Y-108639221D01*
X148860269Y-108719145D01*
X149074937Y-108786701D01*
X149357932Y-108850753D01*
X149555200Y-108888607D01*
X149992025Y-108978729D01*
X150370523Y-109076164D01*
X150677432Y-109176956D01*
X150899488Y-109277150D01*
X150940392Y-109301772D01*
X151076772Y-109377845D01*
X151171712Y-109393350D01*
X151231966Y-109372204D01*
X151346544Y-109265458D01*
X151438279Y-109101243D01*
X151484009Y-108923691D01*
X151485600Y-108888899D01*
X151498137Y-108795323D01*
X151553702Y-108778863D01*
X151599900Y-108790427D01*
X151881104Y-108906164D01*
X152097002Y-109072374D01*
X152214042Y-109213031D01*
X152340989Y-109398085D01*
X152419057Y-109546451D01*
X152464129Y-109699726D01*
X152492086Y-109899510D01*
X152497736Y-109956113D01*
X152525624Y-110147013D01*
X152565846Y-110248499D01*
X152603200Y-110272638D01*
X152684080Y-110259534D01*
X152828982Y-110213766D01*
X153009373Y-110144576D01*
X153046166Y-110129178D01*
X153284915Y-110010800D01*
X153477421Y-109882376D01*
X153561659Y-109804117D01*
X153672305Y-109644221D01*
X153778906Y-109434357D01*
X153865657Y-109212289D01*
X153916757Y-109015782D01*
X153924000Y-108938226D01*
X153904511Y-108839098D01*
X153852067Y-108674192D01*
X153775705Y-108470245D01*
X153720868Y-108337218D01*
X153630173Y-108116344D01*
X153552917Y-107912427D01*
X153499967Y-107754929D01*
X153484771Y-107696954D01*
X153451808Y-107532136D01*
X153675204Y-107566995D01*
X153928620Y-107632608D01*
X154186370Y-107742680D01*
X154412208Y-107879019D01*
X154559759Y-108010965D01*
X154792601Y-108363327D01*
X154963824Y-108790638D01*
X155070841Y-109285156D01*
X155104907Y-109641997D01*
X155117800Y-109886194D01*
X155703482Y-110123660D01*
X155673809Y-109709930D01*
X155653153Y-109475592D01*
X155626478Y-109245055D01*
X155599244Y-109064970D01*
X155596868Y-109052399D01*
X155564424Y-108876844D01*
X155558628Y-108774586D01*
X155588178Y-108718920D01*
X155661774Y-108683141D01*
X155723932Y-108662344D01*
X155961912Y-108542498D01*
X156214897Y-108340469D01*
X156436749Y-108104616D01*
X156547021Y-107956934D01*
X156600552Y-107828056D01*
X156616163Y-107668872D01*
X156616400Y-107635877D01*
X156616400Y-107382168D01*
X156460103Y-107513684D01*
X156260592Y-107621545D01*
X156026213Y-107636842D01*
X155753507Y-107559680D01*
X155702000Y-107536871D01*
X155473400Y-107430774D01*
X155730005Y-107341312D01*
X155912421Y-107272568D01*
X156081906Y-107200434D01*
X156143054Y-107170949D01*
X156248783Y-107099903D01*
X156364687Y-106998701D01*
X156468313Y-106890726D01*
X156537208Y-106799361D01*
X156549053Y-106748119D01*
X156479178Y-106716075D01*
X156330739Y-106670305D01*
X156125022Y-106615858D01*
X155883314Y-106557783D01*
X155626900Y-106501128D01*
X155377067Y-106450943D01*
X155155101Y-106412276D01*
X155096542Y-106403594D01*
X154821863Y-106369878D01*
X154617034Y-106360406D01*
X154452545Y-106378212D01*
G36*
X126764134Y-105250083D02*
G01*
X126395659Y-105325322D01*
X126143908Y-105391653D01*
X126147694Y-105426545D01*
X126222485Y-105501078D01*
X126353335Y-105600718D01*
X126372508Y-105613954D01*
X126568063Y-105754904D01*
X126769140Y-105911260D01*
X126898400Y-106019819D01*
X127127000Y-106222525D01*
X126847600Y-106219795D01*
X126556936Y-106197587D01*
X126342760Y-106132032D01*
X126186229Y-106014905D01*
X126097812Y-105892600D01*
X125980186Y-105689400D01*
X125994793Y-106257699D01*
X126002327Y-106506242D01*
X126013206Y-106675917D01*
X126032638Y-106789443D01*
X126065833Y-106869535D01*
X126117998Y-106938910D01*
X126161800Y-106986135D01*
X126315287Y-107127355D01*
X126477582Y-107225171D01*
X126682325Y-107296108D01*
X126886349Y-107342082D01*
X127049557Y-107377835D01*
X127163945Y-107409852D01*
X127203200Y-107429752D01*
X127172043Y-107478699D01*
X127092390Y-107576037D01*
X127030200Y-107646577D01*
X126882987Y-107873141D01*
X126786942Y-108150585D01*
X126754079Y-108436036D01*
X126767737Y-108583338D01*
X126800888Y-108705844D01*
X126846644Y-108746167D01*
X126888799Y-108738088D01*
X127158503Y-108674200D01*
X127396486Y-108700993D01*
X127403884Y-108703510D01*
X127510148Y-108733631D01*
X127552265Y-108713413D01*
X127559683Y-108645857D01*
X127591160Y-108369329D01*
X127674633Y-108041864D01*
X127799384Y-107692460D01*
X127954692Y-107350114D01*
X128129840Y-107043823D01*
X128178330Y-106972218D01*
X128265019Y-106875207D01*
X128388861Y-106766099D01*
X128525397Y-106662666D01*
X128650168Y-106582681D01*
X128738719Y-106543916D01*
X128763518Y-106546984D01*
X128769571Y-106604843D01*
X128767974Y-106746750D01*
X128759394Y-106955491D01*
X128744494Y-107213854D01*
X128729199Y-107434906D01*
X128709957Y-107731841D01*
X128697328Y-108004111D01*
X128691894Y-108230949D01*
X128694240Y-108391589D01*
X128700654Y-108452780D01*
X128800279Y-108692108D01*
X128979673Y-108919574D01*
X129217207Y-109116905D01*
X129491254Y-109265832D01*
X129755900Y-109344194D01*
X129946400Y-109377003D01*
X129946400Y-109077523D01*
X129955869Y-108883265D01*
X129993595Y-108742127D01*
X130073564Y-108606637D01*
X130092979Y-108579921D01*
X130196814Y-108454347D01*
X130340792Y-108299725D01*
X130509614Y-108130226D01*
X130687984Y-107960020D01*
X130860603Y-107803280D01*
X131012173Y-107674175D01*
X131127397Y-107586876D01*
X131190978Y-107555554D01*
X131196564Y-107557630D01*
X131195228Y-107614034D01*
X131165268Y-107725468D01*
X131159208Y-107743300D01*
X131133621Y-107949027D01*
X131178725Y-108165221D01*
X131283388Y-108346726D01*
X131316249Y-108380214D01*
X131377314Y-108428308D01*
X131439272Y-108443858D01*
X131532211Y-108425569D01*
X131686214Y-108372148D01*
X131710387Y-108363256D01*
X131918168Y-108299772D01*
X132169243Y-108241357D01*
X132384800Y-108204340D01*
X132878784Y-108121192D01*
X133276549Y-108015861D01*
X133581268Y-107887243D01*
X133796111Y-107734230D01*
X133827774Y-107701490D01*
X133882382Y-107635760D01*
X133887063Y-107604327D01*
X133828855Y-107605995D01*
X133694799Y-107639573D01*
X133563547Y-107677161D01*
X133255805Y-107727412D01*
X132888417Y-107723849D01*
X132485321Y-107670417D01*
X132070454Y-107571062D01*
X131667755Y-107429729D01*
X131445000Y-107327968D01*
X131224444Y-107192162D01*
X130963499Y-106992384D01*
X130681234Y-106747048D01*
X130396718Y-106474568D01*
X130129017Y-106193358D01*
X129897200Y-105921834D01*
X129720335Y-105678408D01*
X129695416Y-105638348D01*
X129621415Y-105515727D01*
X129573268Y-105436359D01*
X129564503Y-105422157D01*
X129516320Y-105429456D01*
X129404300Y-105463145D01*
X129338338Y-105485657D01*
X129096493Y-105545364D01*
X128835079Y-105554747D01*
X128532610Y-105512407D01*
X128167602Y-105416947D01*
X128136548Y-105407435D01*
X127746364Y-105298858D01*
X127408335Y-105236604D01*
X127091309Y-105220428D01*
X126764134Y-105250083D01*
X126764134Y-105250083D01*
G37*
X126764134Y-105250083D02*
X126395659Y-105325322D01*
X126143908Y-105391653D01*
X126147694Y-105426545D01*
X126222485Y-105501078D01*
X126353335Y-105600718D01*
X126372508Y-105613954D01*
X126568063Y-105754904D01*
X126769140Y-105911260D01*
X126898400Y-106019819D01*
X127127000Y-106222525D01*
X126847600Y-106219795D01*
X126556936Y-106197587D01*
X126342760Y-106132032D01*
X126186229Y-106014905D01*
X126097812Y-105892600D01*
X125980186Y-105689400D01*
X125994793Y-106257699D01*
X126002327Y-106506242D01*
X126013206Y-106675917D01*
X126032638Y-106789443D01*
X126065833Y-106869535D01*
X126117998Y-106938910D01*
X126161800Y-106986135D01*
X126315287Y-107127355D01*
X126477582Y-107225171D01*
X126682325Y-107296108D01*
X126886349Y-107342082D01*
X127049557Y-107377835D01*
X127163945Y-107409852D01*
X127203200Y-107429752D01*
X127172043Y-107478699D01*
X127092390Y-107576037D01*
X127030200Y-107646577D01*
X126882987Y-107873141D01*
X126786942Y-108150585D01*
X126754079Y-108436036D01*
X126767737Y-108583338D01*
X126800888Y-108705844D01*
X126846644Y-108746167D01*
X126888799Y-108738088D01*
X127158503Y-108674200D01*
X127396486Y-108700993D01*
X127403884Y-108703510D01*
X127510148Y-108733631D01*
X127552265Y-108713413D01*
X127559683Y-108645857D01*
X127591160Y-108369329D01*
X127674633Y-108041864D01*
X127799384Y-107692460D01*
X127954692Y-107350114D01*
X128129840Y-107043823D01*
X128178330Y-106972218D01*
X128265019Y-106875207D01*
X128388861Y-106766099D01*
X128525397Y-106662666D01*
X128650168Y-106582681D01*
X128738719Y-106543916D01*
X128763518Y-106546984D01*
X128769571Y-106604843D01*
X128767974Y-106746750D01*
X128759394Y-106955491D01*
X128744494Y-107213854D01*
X128729199Y-107434906D01*
X128709957Y-107731841D01*
X128697328Y-108004111D01*
X128691894Y-108230949D01*
X128694240Y-108391589D01*
X128700654Y-108452780D01*
X128800279Y-108692108D01*
X128979673Y-108919574D01*
X129217207Y-109116905D01*
X129491254Y-109265832D01*
X129755900Y-109344194D01*
X129946400Y-109377003D01*
X129946400Y-109077523D01*
X129955869Y-108883265D01*
X129993595Y-108742127D01*
X130073564Y-108606637D01*
X130092979Y-108579921D01*
X130196814Y-108454347D01*
X130340792Y-108299725D01*
X130509614Y-108130226D01*
X130687984Y-107960020D01*
X130860603Y-107803280D01*
X131012173Y-107674175D01*
X131127397Y-107586876D01*
X131190978Y-107555554D01*
X131196564Y-107557630D01*
X131195228Y-107614034D01*
X131165268Y-107725468D01*
X131159208Y-107743300D01*
X131133621Y-107949027D01*
X131178725Y-108165221D01*
X131283388Y-108346726D01*
X131316249Y-108380214D01*
X131377314Y-108428308D01*
X131439272Y-108443858D01*
X131532211Y-108425569D01*
X131686214Y-108372148D01*
X131710387Y-108363256D01*
X131918168Y-108299772D01*
X132169243Y-108241357D01*
X132384800Y-108204340D01*
X132878784Y-108121192D01*
X133276549Y-108015861D01*
X133581268Y-107887243D01*
X133796111Y-107734230D01*
X133827774Y-107701490D01*
X133882382Y-107635760D01*
X133887063Y-107604327D01*
X133828855Y-107605995D01*
X133694799Y-107639573D01*
X133563547Y-107677161D01*
X133255805Y-107727412D01*
X132888417Y-107723849D01*
X132485321Y-107670417D01*
X132070454Y-107571062D01*
X131667755Y-107429729D01*
X131445000Y-107327968D01*
X131224444Y-107192162D01*
X130963499Y-106992384D01*
X130681234Y-106747048D01*
X130396718Y-106474568D01*
X130129017Y-106193358D01*
X129897200Y-105921834D01*
X129720335Y-105678408D01*
X129695416Y-105638348D01*
X129621415Y-105515727D01*
X129573268Y-105436359D01*
X129564503Y-105422157D01*
X129516320Y-105429456D01*
X129404300Y-105463145D01*
X129338338Y-105485657D01*
X129096493Y-105545364D01*
X128835079Y-105554747D01*
X128532610Y-105512407D01*
X128167602Y-105416947D01*
X128136548Y-105407435D01*
X127746364Y-105298858D01*
X127408335Y-105236604D01*
X127091309Y-105220428D01*
X126764134Y-105250083D01*
G36*
X140578069Y-90443397D02*
G01*
X140573396Y-90503012D01*
X140589188Y-90626507D01*
X140603363Y-90699812D01*
X140625947Y-90851801D01*
X140606400Y-90922654D01*
X140537317Y-90913963D01*
X140411297Y-90827321D01*
X140328829Y-90758873D01*
X140078267Y-90595364D01*
X139810854Y-90508894D01*
X139547620Y-90501775D01*
X139309600Y-90576321D01*
X139216959Y-90636623D01*
X139114912Y-90732690D01*
X139104889Y-90796987D01*
X139187670Y-90842436D01*
X139230100Y-90854173D01*
X139383529Y-90910089D01*
X139563419Y-91000786D01*
X139739536Y-91107901D01*
X139881645Y-91213065D01*
X139959006Y-91296953D01*
X139994071Y-91408972D01*
X139956192Y-91461338D01*
X139856834Y-91450946D01*
X139707463Y-91374688D01*
X139697101Y-91367911D01*
X139468683Y-91243372D01*
X139265679Y-91201010D01*
X139057103Y-91238493D01*
X138897545Y-91307757D01*
X138733404Y-91381229D01*
X138589396Y-91429245D01*
X138523710Y-91440000D01*
X138410843Y-91440000D01*
X138514848Y-91536895D01*
X138586976Y-91625605D01*
X138687514Y-91776496D01*
X138798137Y-91961536D01*
X138831813Y-92021815D01*
X139030114Y-92324879D01*
X139237217Y-92526995D01*
X139453696Y-92628484D01*
X139680124Y-92629662D01*
X139831412Y-92577501D01*
X139953947Y-92524490D01*
X140021498Y-92518305D01*
X140068825Y-92558146D01*
X140079094Y-92571801D01*
X140132596Y-92627169D01*
X140186507Y-92606211D01*
X140224339Y-92570290D01*
X140307255Y-92516821D01*
X140364936Y-92541815D01*
X140452937Y-92572001D01*
X140621344Y-92578429D01*
X140733599Y-92571948D01*
X141046200Y-92546019D01*
X140873863Y-92676867D01*
X140577415Y-92951558D01*
X140298984Y-93302787D01*
X140053744Y-93705531D01*
X139856866Y-94134767D01*
X139723522Y-94565473D01*
X139720431Y-94579190D01*
X139682906Y-94772107D01*
X139662280Y-94954412D01*
X139657298Y-95157013D01*
X139666705Y-95410818D01*
X139678878Y-95602617D01*
X139711774Y-96239934D01*
X139721710Y-96854428D01*
X139709551Y-97433974D01*
X139676162Y-97966445D01*
X139622406Y-98439715D01*
X139549148Y-98841658D01*
X139457254Y-99160146D01*
X139418496Y-99254863D01*
X139225727Y-99603641D01*
X139003599Y-99858911D01*
X138744114Y-100026494D01*
X138439275Y-100112212D01*
X138220484Y-100126800D01*
X137948701Y-100106725D01*
X137739663Y-100042363D01*
X137705348Y-100025101D01*
X137589905Y-99968875D01*
X137522633Y-99947038D01*
X137515600Y-99950590D01*
X137536754Y-100007447D01*
X137591147Y-100124658D01*
X137640103Y-100223471D01*
X137803272Y-100474046D01*
X137997378Y-100654669D01*
X138206035Y-100750777D01*
X138240996Y-100757544D01*
X138589944Y-100799976D01*
X138878444Y-100807577D01*
X139141150Y-100781259D01*
X139141200Y-100781251D01*
X139545594Y-100681224D01*
X139876972Y-100523917D01*
X139987411Y-100447445D01*
X140161232Y-100314866D01*
X140807172Y-100450958D01*
X141076070Y-100506459D01*
X141271874Y-100541647D01*
X141420703Y-100558116D01*
X141548675Y-100557458D01*
X141681906Y-100541267D01*
X141833857Y-100513582D01*
X142040653Y-100470069D01*
X142226155Y-100424780D01*
X142352274Y-100387062D01*
X142357762Y-100384997D01*
X142453699Y-100359788D01*
X142543748Y-100375755D01*
X142663232Y-100442491D01*
X142726624Y-100485167D01*
X142984266Y-100643579D01*
X143217541Y-100737566D01*
X143467505Y-100780438D01*
X143658268Y-100787200D01*
X144154400Y-100750278D01*
X144589072Y-100638241D01*
X144805400Y-100543811D01*
X145059400Y-100414660D01*
X144881600Y-100369895D01*
X144525235Y-100272478D01*
X144248541Y-100172003D01*
X144035645Y-100052894D01*
X143870674Y-99899570D01*
X143737755Y-99696454D01*
X143621015Y-99427965D01*
X143504580Y-99078527D01*
X143478510Y-98992829D01*
X143434476Y-98834475D01*
X143400010Y-98675916D01*
X143373001Y-98498528D01*
X143351341Y-98283687D01*
X143332921Y-98012768D01*
X143315631Y-97667146D01*
X143307779Y-97485200D01*
X143292616Y-97096569D01*
X143278252Y-96681229D01*
X143265688Y-96271676D01*
X143255924Y-95900409D01*
X143250174Y-95614095D01*
X143246629Y-95298307D01*
X143250030Y-95069911D01*
X143264650Y-94914732D01*
X143294761Y-94818599D01*
X143344635Y-94767338D01*
X143418544Y-94746775D01*
X143512805Y-94742777D01*
X143622515Y-94728376D01*
X143770540Y-94691763D01*
X143933346Y-94641336D01*
X144087397Y-94585493D01*
X144209159Y-94532633D01*
X144275097Y-94491153D01*
X144272000Y-94471865D01*
X144191877Y-94458717D01*
X144034901Y-94444680D01*
X143825782Y-94431661D01*
X143647792Y-94423645D01*
X143338330Y-94403547D01*
X143128061Y-94370518D01*
X143017485Y-94324696D01*
X143007101Y-94266224D01*
X143022273Y-94247546D01*
X143085021Y-94231818D01*
X143229139Y-94216384D01*
X143434408Y-94202846D01*
X143680606Y-94192807D01*
X143730087Y-94191434D01*
X143982170Y-94182102D01*
X144197557Y-94168741D01*
X144355880Y-94153007D01*
X144436773Y-94136558D01*
X144441648Y-94133547D01*
X144436064Y-94098368D01*
X144348721Y-94072871D01*
X144199038Y-94057465D01*
X144006433Y-94052563D01*
X143790324Y-94058575D01*
X143570129Y-94075912D01*
X143365266Y-94104985D01*
X143338062Y-94110185D01*
X143098171Y-94152648D01*
X142942011Y-94166913D01*
X142855964Y-94153862D01*
X142839435Y-94142554D01*
X142840915Y-94089722D01*
X142926648Y-94026397D01*
X143080414Y-93957180D01*
X143285993Y-93886672D01*
X143527164Y-93819473D01*
X143787709Y-93760184D01*
X144051406Y-93713405D01*
X144302037Y-93683737D01*
X144486452Y-93675404D01*
X144639662Y-93696458D01*
X144831310Y-93750788D01*
X144955756Y-93799140D01*
X145236007Y-93923081D01*
X145159707Y-93735640D01*
X145000145Y-93472929D01*
X144768007Y-93269761D01*
X144482072Y-93141221D01*
X144393797Y-93120442D01*
X144107135Y-93061507D01*
X143903372Y-93007494D01*
X143764480Y-92951639D01*
X143672434Y-92887177D01*
X143625377Y-92832110D01*
X143485910Y-92638255D01*
X143380698Y-92513638D01*
X143290154Y-92443854D01*
X142421168Y-92443854D01*
X142371234Y-92451989D01*
X142305345Y-92442649D01*
X142304559Y-92425308D01*
X142372549Y-92413181D01*
X142401925Y-92421297D01*
X142421168Y-92443854D01*
X143290154Y-92443854D01*
X143288368Y-92442478D01*
X143187547Y-92408996D01*
X143056861Y-92397412D01*
X143035585Y-92396660D01*
X142897489Y-92390819D01*
X142855850Y-92384185D01*
X142905531Y-92374719D01*
X142963900Y-92368193D01*
X143089669Y-92346159D01*
X143143335Y-92299261D01*
X143154400Y-92206351D01*
X143124069Y-92089108D01*
X143049711Y-91958686D01*
X142956279Y-91849657D01*
X142868724Y-91796595D01*
X142857951Y-91795599D01*
X142808536Y-91837908D01*
X142784081Y-91897199D01*
X142734542Y-91983778D01*
X142651215Y-91980094D01*
X142528829Y-91885694D01*
X142517091Y-91874109D01*
X142434139Y-91763946D01*
X142397865Y-91626717D01*
X142392400Y-91501964D01*
X142378974Y-91324654D01*
X142329912Y-91206324D01*
X142274826Y-91144055D01*
X142109094Y-91053331D01*
X141911583Y-91045240D01*
X141732000Y-91109800D01*
X141598799Y-91171658D01*
X141519642Y-91159341D01*
X141474526Y-91062223D01*
X141456133Y-90963250D01*
X141413518Y-90804105D01*
X141347694Y-90677490D01*
X141324957Y-90652017D01*
X141238163Y-90602434D01*
X141095531Y-90547523D01*
X140927566Y-90495803D01*
X140764775Y-90455797D01*
X140637662Y-90436024D01*
X140578069Y-90443397D01*
X140578069Y-90443397D01*
G37*
X140578069Y-90443397D02*
X140573396Y-90503012D01*
X140589188Y-90626507D01*
X140603363Y-90699812D01*
X140625947Y-90851801D01*
X140606400Y-90922654D01*
X140537317Y-90913963D01*
X140411297Y-90827321D01*
X140328829Y-90758873D01*
X140078267Y-90595364D01*
X139810854Y-90508894D01*
X139547620Y-90501775D01*
X139309600Y-90576321D01*
X139216959Y-90636623D01*
X139114912Y-90732690D01*
X139104889Y-90796987D01*
X139187670Y-90842436D01*
X139230100Y-90854173D01*
X139383529Y-90910089D01*
X139563419Y-91000786D01*
X139739536Y-91107901D01*
X139881645Y-91213065D01*
X139959006Y-91296953D01*
X139994071Y-91408972D01*
X139956192Y-91461338D01*
X139856834Y-91450946D01*
X139707463Y-91374688D01*
X139697101Y-91367911D01*
X139468683Y-91243372D01*
X139265679Y-91201010D01*
X139057103Y-91238493D01*
X138897545Y-91307757D01*
X138733404Y-91381229D01*
X138589396Y-91429245D01*
X138523710Y-91440000D01*
X138410843Y-91440000D01*
X138514848Y-91536895D01*
X138586976Y-91625605D01*
X138687514Y-91776496D01*
X138798137Y-91961536D01*
X138831813Y-92021815D01*
X139030114Y-92324879D01*
X139237217Y-92526995D01*
X139453696Y-92628484D01*
X139680124Y-92629662D01*
X139831412Y-92577501D01*
X139953947Y-92524490D01*
X140021498Y-92518305D01*
X140068825Y-92558146D01*
X140079094Y-92571801D01*
X140132596Y-92627169D01*
X140186507Y-92606211D01*
X140224339Y-92570290D01*
X140307255Y-92516821D01*
X140364936Y-92541815D01*
X140452937Y-92572001D01*
X140621344Y-92578429D01*
X140733599Y-92571948D01*
X141046200Y-92546019D01*
X140873863Y-92676867D01*
X140577415Y-92951558D01*
X140298984Y-93302787D01*
X140053744Y-93705531D01*
X139856866Y-94134767D01*
X139723522Y-94565473D01*
X139720431Y-94579190D01*
X139682906Y-94772107D01*
X139662280Y-94954412D01*
X139657298Y-95157013D01*
X139666705Y-95410818D01*
X139678878Y-95602617D01*
X139711774Y-96239934D01*
X139721710Y-96854428D01*
X139709551Y-97433974D01*
X139676162Y-97966445D01*
X139622406Y-98439715D01*
X139549148Y-98841658D01*
X139457254Y-99160146D01*
X139418496Y-99254863D01*
X139225727Y-99603641D01*
X139003599Y-99858911D01*
X138744114Y-100026494D01*
X138439275Y-100112212D01*
X138220484Y-100126800D01*
X137948701Y-100106725D01*
X137739663Y-100042363D01*
X137705348Y-100025101D01*
X137589905Y-99968875D01*
X137522633Y-99947038D01*
X137515600Y-99950590D01*
X137536754Y-100007447D01*
X137591147Y-100124658D01*
X137640103Y-100223471D01*
X137803272Y-100474046D01*
X137997378Y-100654669D01*
X138206035Y-100750777D01*
X138240996Y-100757544D01*
X138589944Y-100799976D01*
X138878444Y-100807577D01*
X139141150Y-100781259D01*
X139141200Y-100781251D01*
X139545594Y-100681224D01*
X139876972Y-100523917D01*
X139987411Y-100447445D01*
X140161232Y-100314866D01*
X140807172Y-100450958D01*
X141076070Y-100506459D01*
X141271874Y-100541647D01*
X141420703Y-100558116D01*
X141548675Y-100557458D01*
X141681906Y-100541267D01*
X141833857Y-100513582D01*
X142040653Y-100470069D01*
X142226155Y-100424780D01*
X142352274Y-100387062D01*
X142357762Y-100384997D01*
X142453699Y-100359788D01*
X142543748Y-100375755D01*
X142663232Y-100442491D01*
X142726624Y-100485167D01*
X142984266Y-100643579D01*
X143217541Y-100737566D01*
X143467505Y-100780438D01*
X143658268Y-100787200D01*
X144154400Y-100750278D01*
X144589072Y-100638241D01*
X144805400Y-100543811D01*
X145059400Y-100414660D01*
X144881600Y-100369895D01*
X144525235Y-100272478D01*
X144248541Y-100172003D01*
X144035645Y-100052894D01*
X143870674Y-99899570D01*
X143737755Y-99696454D01*
X143621015Y-99427965D01*
X143504580Y-99078527D01*
X143478510Y-98992829D01*
X143434476Y-98834475D01*
X143400010Y-98675916D01*
X143373001Y-98498528D01*
X143351341Y-98283687D01*
X143332921Y-98012768D01*
X143315631Y-97667146D01*
X143307779Y-97485200D01*
X143292616Y-97096569D01*
X143278252Y-96681229D01*
X143265688Y-96271676D01*
X143255924Y-95900409D01*
X143250174Y-95614095D01*
X143246629Y-95298307D01*
X143250030Y-95069911D01*
X143264650Y-94914732D01*
X143294761Y-94818599D01*
X143344635Y-94767338D01*
X143418544Y-94746775D01*
X143512805Y-94742777D01*
X143622515Y-94728376D01*
X143770540Y-94691763D01*
X143933346Y-94641336D01*
X144087397Y-94585493D01*
X144209159Y-94532633D01*
X144275097Y-94491153D01*
X144272000Y-94471865D01*
X144191877Y-94458717D01*
X144034901Y-94444680D01*
X143825782Y-94431661D01*
X143647792Y-94423645D01*
X143338330Y-94403547D01*
X143128061Y-94370518D01*
X143017485Y-94324696D01*
X143007101Y-94266224D01*
X143022273Y-94247546D01*
X143085021Y-94231818D01*
X143229139Y-94216384D01*
X143434408Y-94202846D01*
X143680606Y-94192807D01*
X143730087Y-94191434D01*
X143982170Y-94182102D01*
X144197557Y-94168741D01*
X144355880Y-94153007D01*
X144436773Y-94136558D01*
X144441648Y-94133547D01*
X144436064Y-94098368D01*
X144348721Y-94072871D01*
X144199038Y-94057465D01*
X144006433Y-94052563D01*
X143790324Y-94058575D01*
X143570129Y-94075912D01*
X143365266Y-94104985D01*
X143338062Y-94110185D01*
X143098171Y-94152648D01*
X142942011Y-94166913D01*
X142855964Y-94153862D01*
X142839435Y-94142554D01*
X142840915Y-94089722D01*
X142926648Y-94026397D01*
X143080414Y-93957180D01*
X143285993Y-93886672D01*
X143527164Y-93819473D01*
X143787709Y-93760184D01*
X144051406Y-93713405D01*
X144302037Y-93683737D01*
X144486452Y-93675404D01*
X144639662Y-93696458D01*
X144831310Y-93750788D01*
X144955756Y-93799140D01*
X145236007Y-93923081D01*
X145159707Y-93735640D01*
X145000145Y-93472929D01*
X144768007Y-93269761D01*
X144482072Y-93141221D01*
X144393797Y-93120442D01*
X144107135Y-93061507D01*
X143903372Y-93007494D01*
X143764480Y-92951639D01*
X143672434Y-92887177D01*
X143625377Y-92832110D01*
X143485910Y-92638255D01*
X143380698Y-92513638D01*
X143290154Y-92443854D01*
X142421168Y-92443854D01*
X142371234Y-92451989D01*
X142305345Y-92442649D01*
X142304559Y-92425308D01*
X142372549Y-92413181D01*
X142401925Y-92421297D01*
X142421168Y-92443854D01*
X143290154Y-92443854D01*
X143288368Y-92442478D01*
X143187547Y-92408996D01*
X143056861Y-92397412D01*
X143035585Y-92396660D01*
X142897489Y-92390819D01*
X142855850Y-92384185D01*
X142905531Y-92374719D01*
X142963900Y-92368193D01*
X143089669Y-92346159D01*
X143143335Y-92299261D01*
X143154400Y-92206351D01*
X143124069Y-92089108D01*
X143049711Y-91958686D01*
X142956279Y-91849657D01*
X142868724Y-91796595D01*
X142857951Y-91795599D01*
X142808536Y-91837908D01*
X142784081Y-91897199D01*
X142734542Y-91983778D01*
X142651215Y-91980094D01*
X142528829Y-91885694D01*
X142517091Y-91874109D01*
X142434139Y-91763946D01*
X142397865Y-91626717D01*
X142392400Y-91501964D01*
X142378974Y-91324654D01*
X142329912Y-91206324D01*
X142274826Y-91144055D01*
X142109094Y-91053331D01*
X141911583Y-91045240D01*
X141732000Y-91109800D01*
X141598799Y-91171658D01*
X141519642Y-91159341D01*
X141474526Y-91062223D01*
X141456133Y-90963250D01*
X141413518Y-90804105D01*
X141347694Y-90677490D01*
X141324957Y-90652017D01*
X141238163Y-90602434D01*
X141095531Y-90547523D01*
X140927566Y-90495803D01*
X140764775Y-90455797D01*
X140637662Y-90436024D01*
X140578069Y-90443397D01*
D11*
G36*
X141651870Y-82420859D02*
G01*
X141845068Y-82459288D01*
X142391033Y-82685434D01*
X142882389Y-83013748D01*
X143300252Y-83431611D01*
X143628566Y-83922967D01*
X143854712Y-84468932D01*
X143970000Y-85048526D01*
X143970000Y-85639474D01*
X143854712Y-86219068D01*
X143628566Y-86765033D01*
X143300252Y-87256389D01*
X142882389Y-87674252D01*
X142391033Y-88002566D01*
X141845068Y-88228712D01*
X141651870Y-88267141D01*
X141265476Y-88344000D01*
X140674524Y-88344000D01*
X140288130Y-88267141D01*
X140094932Y-88228712D01*
X139548967Y-88002566D01*
X139057611Y-87674252D01*
X138639748Y-87256389D01*
X138311434Y-86765033D01*
X138085288Y-86219068D01*
X137970000Y-85639474D01*
X137970000Y-85048526D01*
X138085288Y-84468932D01*
X138311434Y-83922967D01*
X138639748Y-83431611D01*
X139057611Y-83013748D01*
X139548967Y-82685434D01*
X140094932Y-82459288D01*
X140288130Y-82420859D01*
X140674524Y-82344000D01*
X141265476Y-82344000D01*
X141651870Y-82420859D01*
X141651870Y-82420859D01*
G37*
M02*
