%MOIN*%
%OFA0B0*%
%FSLAX46Y46*%
%IPPOS*%
%LPD*%
%ADD10C,0.00039370078740157485*%
%ADD11C,0.22047244094488189*%
%ADD22C,0.00039370078740157485*%
%ADD23C,0.22047244094488189*%
%ADD24C,0.00039370078740157485*%
%ADD25C,0.22047244094488189*%
%ADD26C,0.00039370078740157485*%
%ADD27C,0.22047244094488189*%
D10*
G36*
X0000847964Y0003427280D02*
G01*
X0001183839Y0003427268D01*
X0001183839Y0002755541D01*
X0001520889Y0002755529D01*
X0001857939Y0002755517D01*
X0001857939Y0002081414D01*
X0000512077Y0002081427D01*
X0000512084Y0002754360D01*
X0000512090Y0003427293D01*
X0000847964Y0003427280D01*
G37*
X0000847964Y0003427280D02*
X0001183839Y0003427268D01*
X0001183839Y0002755541D01*
X0001520889Y0002755529D01*
X0001857939Y0002755517D01*
X0001857939Y0002081414D01*
X0000512077Y0002081427D01*
X0000512084Y0002754360D01*
X0000512090Y0003427293D01*
X0000847964Y0003427280D01*
D11*
X0000404839Y0003532168D03*
G04 next file*
G04 #@! TF.GenerationSoftware,KiCad,Pcbnew,(5.1.5)-3*
G04 #@! TF.CreationDate,2019-12-21T12:13:30-08:00*
G04 #@! TF.ProjectId,mole-diamond-keychain,6d6f6c65-2d64-4696-916d-6f6e642d6b65,A*
G04 #@! TF.SameCoordinates,Original*
G04 #@! TF.FileFunction,Copper,L1,Top*
G04 #@! TF.FilePolarity,Positive*
G04 Gerber Fmt 4.6, Leading zero omitted, Abs format (unit mm)*
G04 Created by KiCad (PCBNEW (5.1.5)-3) date 2019-12-21 12:13:30*
G04 APERTURE LIST*
G04 APERTURE END LIST*
D22*
G36*
X0000509726Y0000847964D02*
G01*
X0000509739Y0001183839D01*
X0001181466Y0001183839D01*
X0001181478Y0001520889D01*
X0001181490Y0001857939D01*
X0001855593Y0001857939D01*
X0001855580Y0000512077D01*
X0001182647Y0000512084D01*
X0000509714Y0000512090D01*
X0000509726Y0000847964D01*
G37*
X0000509726Y0000847964D02*
X0000509739Y0001183839D01*
X0001181466Y0001183839D01*
X0001181478Y0001520889D01*
X0001181490Y0001857939D01*
X0001855593Y0001857939D01*
X0001855580Y0000512077D01*
X0001182647Y0000512084D01*
X0000509714Y0000512090D01*
X0000509726Y0000847964D01*
D23*
X0000404839Y0000404839D03*
G04 next file*
G04 #@! TF.GenerationSoftware,KiCad,Pcbnew,(5.1.5)-3*
G04 #@! TF.CreationDate,2019-12-21T12:13:30-08:00*
G04 #@! TF.ProjectId,mole-diamond-keychain,6d6f6c65-2d64-4696-916d-6f6e642d6b65,A*
G04 #@! TF.SameCoordinates,Original*
G04 #@! TF.FileFunction,Copper,L1,Top*
G04 #@! TF.FilePolarity,Positive*
G04 Gerber Fmt 4.6, Leading zero omitted, Abs format (unit mm)*
G04 Created by KiCad (PCBNEW (5.1.5)-3) date 2019-12-21 12:13:30*
G04 APERTURE LIST*
G04 APERTURE END LIST*
D24*
G36*
X0003089042Y0000509726D02*
G01*
X0002753168Y0000509739D01*
X0002753168Y0001181466D01*
X0002416118Y0001181478D01*
X0002079068Y0001181490D01*
X0002079068Y0001855593D01*
X0003424929Y0001855580D01*
X0003424923Y0001182647D01*
X0003424917Y0000509714D01*
X0003089042Y0000509726D01*
G37*
X0003089042Y0000509726D02*
X0002753168Y0000509739D01*
X0002753168Y0001181466D01*
X0002416118Y0001181478D01*
X0002079068Y0001181490D01*
X0002079068Y0001855593D01*
X0003424929Y0001855580D01*
X0003424923Y0001182647D01*
X0003424917Y0000509714D01*
X0003089042Y0000509726D01*
D25*
X0003532168Y0000404839D03*
G04 next file*
G04 #@! TF.GenerationSoftware,KiCad,Pcbnew,(5.1.5)-3*
G04 #@! TF.CreationDate,2019-12-21T12:13:30-08:00*
G04 #@! TF.ProjectId,mole-diamond-keychain,6d6f6c65-2d64-4696-916d-6f6e642d6b65,A*
G04 #@! TF.SameCoordinates,Original*
G04 #@! TF.FileFunction,Copper,L1,Top*
G04 #@! TF.FilePolarity,Positive*
G04 Gerber Fmt 4.6, Leading zero omitted, Abs format (unit mm)*
G04 Created by KiCad (PCBNEW (5.1.5)-3) date 2019-12-21 12:13:30*
G04 APERTURE LIST*
G04 APERTURE END LIST*
D26*
G36*
X0003427280Y0003089042D02*
G01*
X0003427268Y0002753168D01*
X0002755541Y0002753168D01*
X0002755529Y0002416118D01*
X0002755517Y0002079068D01*
X0002081414Y0002079068D01*
X0002081427Y0003424929D01*
X0002754360Y0003424923D01*
X0003427293Y0003424917D01*
X0003427280Y0003089042D01*
G37*
X0003427280Y0003089042D02*
X0003427268Y0002753168D01*
X0002755541Y0002753168D01*
X0002755529Y0002416118D01*
X0002755517Y0002079068D01*
X0002081414Y0002079068D01*
X0002081427Y0003424929D01*
X0002754360Y0003424923D01*
X0003427293Y0003424917D01*
X0003427280Y0003089042D01*
D27*
X0003532168Y0003532168D03*
M02*