%MOIN*%
%OFA0B0*%
%FSLAX46Y46*%
%IPPOS*%
%LPD*%
%ADD10C,0.00039370078740157485*%
%ADD21C,0.00039370078740157485*%
%ADD22C,0.00039370078740157485*%
%ADD23C,0.00039370078740157485*%
D10*
G36*
X0000812505Y0003075728D02*
G01*
X0000818641Y0003040648D01*
X0000829436Y0003009695D01*
X0000845400Y0002981776D01*
X0000867043Y0002955799D01*
X0000869819Y0002952987D01*
X0000893145Y0002932569D01*
X0000916299Y0002917825D01*
X0000938854Y0002908870D01*
X0000960381Y0002905823D01*
X0000980454Y0002908803D01*
X0000998191Y0002917603D01*
X0001004662Y0002922724D01*
X0001008162Y0002926488D01*
X0001011071Y0002931372D01*
X0001014984Y0002937622D01*
X0001017987Y0002945434D01*
X0001020206Y0002956894D01*
X0001020935Y0002965210D01*
X0001018739Y0002988071D01*
X0001010903Y0003011568D01*
X0000998266Y0003034774D01*
X0000981668Y0003056761D01*
X0000961948Y0003076600D01*
X0000939947Y0003093366D01*
X0000916505Y0003106129D01*
X0000892460Y0003113962D01*
X0000885114Y0003115231D01*
X0000868754Y0003115083D01*
X0000849789Y0003111194D01*
X0000830689Y0003104143D01*
X0000824309Y0003100971D01*
X0000810609Y0003093610D01*
X0000812505Y0003075728D01*
G37*
X0000812505Y0003075728D02*
X0000818641Y0003040648D01*
X0000829436Y0003009695D01*
X0000845400Y0002981776D01*
X0000867043Y0002955799D01*
X0000869819Y0002952987D01*
X0000893145Y0002932569D01*
X0000916299Y0002917825D01*
X0000938854Y0002908870D01*
X0000960381Y0002905823D01*
X0000980454Y0002908803D01*
X0000998191Y0002917603D01*
X0001004662Y0002922724D01*
X0001008162Y0002926488D01*
X0001011071Y0002931372D01*
X0001014984Y0002937622D01*
X0001017987Y0002945434D01*
X0001020206Y0002956894D01*
X0001020935Y0002965210D01*
X0001018739Y0002988071D01*
X0001010903Y0003011568D01*
X0000998266Y0003034774D01*
X0000981668Y0003056761D01*
X0000961948Y0003076600D01*
X0000939947Y0003093366D01*
X0000916505Y0003106129D01*
X0000892460Y0003113962D01*
X0000885114Y0003115231D01*
X0000868754Y0003115083D01*
X0000849789Y0003111194D01*
X0000830689Y0003104143D01*
X0000824309Y0003100971D01*
X0000810609Y0003093610D01*
X0000812505Y0003075728D01*
G36*
X0000509726Y0003089035D02*
G01*
X0000509739Y0002753160D01*
X0000845615Y0002753172D01*
X0001181490Y0002753184D01*
X0001181478Y0003089060D01*
X0001181472Y0003262925D01*
X0001023802Y0003105255D01*
X0001041459Y0003083839D01*
X0001055384Y0003060738D01*
X0001060553Y0003048857D01*
X0001067403Y0003021381D01*
X0001067982Y0002993825D01*
X0001062614Y0002967072D01*
X0001051626Y0002942006D01*
X0001035342Y0002919510D01*
X0001014088Y0002900466D01*
X0001003306Y0002893443D01*
X0000981514Y0002882934D01*
X0000958561Y0002876778D01*
X0000932367Y0002874468D01*
X0000925089Y0002874433D01*
X0000893005Y0002877852D01*
X0000862778Y0002887176D01*
X0000835181Y0002901869D01*
X0000810986Y0002921393D01*
X0000790963Y0002945213D01*
X0000775885Y0002972793D01*
X0000773017Y0002980109D01*
X0000768098Y0002994746D01*
X0000764460Y0003008670D01*
X0000762118Y0003022790D01*
X0000761083Y0003038019D01*
X0000761369Y0003055266D01*
X0000762989Y0003075444D01*
X0000765956Y0003099463D01*
X0000770283Y0003128235D01*
X0000775613Y0003160490D01*
X0000778922Y0003181063D01*
X0000781695Y0003200378D01*
X0000783762Y0003217076D01*
X0000784953Y0003229803D01*
X0000785135Y0003236766D01*
X0000781560Y0003253547D01*
X0000773805Y0003265541D01*
X0000762607Y0003272465D01*
X0000748700Y0003274037D01*
X0000732823Y0003269972D01*
X0000718900Y0003262269D01*
X0000707123Y0003252693D01*
X0000698789Y0003241826D01*
X0000693355Y0003228341D01*
X0000690279Y0003210913D01*
X0000689042Y0003189277D01*
X0000688383Y0003169536D01*
X0000687286Y0003155207D01*
X0000685499Y0003145037D01*
X0000682769Y0003137772D01*
X0000678841Y0003132162D01*
X0000677123Y0003130343D01*
X0000667464Y0003124769D01*
X0000656335Y0003124440D01*
X0000645157Y0003128594D01*
X0000635352Y0003136467D01*
X0000628342Y0003147299D01*
X0000625669Y0003157934D01*
X0000627115Y0003174865D01*
X0000633568Y0003193914D01*
X0000644197Y0003213983D01*
X0000658169Y0003233972D01*
X0000674652Y0003252784D01*
X0000692816Y0003269320D01*
X0000711827Y0003282481D01*
X0000724888Y0003288972D01*
X0000745906Y0003294642D01*
X0000765229Y0003294087D01*
X0000782203Y0003287628D01*
X0000796173Y0003275588D01*
X0000806487Y0003258287D01*
X0000810273Y0003246994D01*
X0000811494Y0003238573D01*
X0000812331Y0003225006D01*
X0000812737Y0003207808D01*
X0000812668Y0003188491D01*
X0000812371Y0003176243D01*
X0000810557Y0003120436D01*
X0000830525Y0003130581D01*
X0000863516Y0003144249D01*
X0000895786Y0003151443D01*
X0000927107Y0003152175D01*
X0000957254Y0003146454D01*
X0000985998Y0003134290D01*
X0001004177Y0003122676D01*
X0001023802Y0003105255D01*
X0001181472Y0003262925D01*
X0001181466Y0003424936D01*
X0000845590Y0003424923D01*
X0000509714Y0003424911D01*
X0000509726Y0003089035D01*
G37*
X0000509726Y0003089035D02*
X0000509739Y0002753160D01*
X0000845615Y0002753172D01*
X0001181490Y0002753184D01*
X0001181478Y0003089060D01*
X0001181472Y0003262925D01*
X0001023802Y0003105255D01*
X0001041459Y0003083839D01*
X0001055384Y0003060738D01*
X0001060553Y0003048857D01*
X0001067403Y0003021381D01*
X0001067982Y0002993825D01*
X0001062614Y0002967072D01*
X0001051626Y0002942006D01*
X0001035342Y0002919510D01*
X0001014088Y0002900466D01*
X0001003306Y0002893443D01*
X0000981514Y0002882934D01*
X0000958561Y0002876778D01*
X0000932367Y0002874468D01*
X0000925089Y0002874433D01*
X0000893005Y0002877852D01*
X0000862778Y0002887176D01*
X0000835181Y0002901869D01*
X0000810986Y0002921393D01*
X0000790963Y0002945213D01*
X0000775885Y0002972793D01*
X0000773017Y0002980109D01*
X0000768098Y0002994746D01*
X0000764460Y0003008670D01*
X0000762118Y0003022790D01*
X0000761083Y0003038019D01*
X0000761369Y0003055266D01*
X0000762989Y0003075444D01*
X0000765956Y0003099463D01*
X0000770283Y0003128235D01*
X0000775613Y0003160490D01*
X0000778922Y0003181063D01*
X0000781695Y0003200378D01*
X0000783762Y0003217076D01*
X0000784953Y0003229803D01*
X0000785135Y0003236766D01*
X0000781560Y0003253547D01*
X0000773805Y0003265541D01*
X0000762607Y0003272465D01*
X0000748700Y0003274037D01*
X0000732823Y0003269972D01*
X0000718900Y0003262269D01*
X0000707123Y0003252693D01*
X0000698789Y0003241826D01*
X0000693355Y0003228341D01*
X0000690279Y0003210913D01*
X0000689042Y0003189277D01*
X0000688383Y0003169536D01*
X0000687286Y0003155207D01*
X0000685499Y0003145037D01*
X0000682769Y0003137772D01*
X0000678841Y0003132162D01*
X0000677123Y0003130343D01*
X0000667464Y0003124769D01*
X0000656335Y0003124440D01*
X0000645157Y0003128594D01*
X0000635352Y0003136467D01*
X0000628342Y0003147299D01*
X0000625669Y0003157934D01*
X0000627115Y0003174865D01*
X0000633568Y0003193914D01*
X0000644197Y0003213983D01*
X0000658169Y0003233972D01*
X0000674652Y0003252784D01*
X0000692816Y0003269320D01*
X0000711827Y0003282481D01*
X0000724888Y0003288972D01*
X0000745906Y0003294642D01*
X0000765229Y0003294087D01*
X0000782203Y0003287628D01*
X0000796173Y0003275588D01*
X0000806487Y0003258287D01*
X0000810273Y0003246994D01*
X0000811494Y0003238573D01*
X0000812331Y0003225006D01*
X0000812737Y0003207808D01*
X0000812668Y0003188491D01*
X0000812371Y0003176243D01*
X0000810557Y0003120436D01*
X0000830525Y0003130581D01*
X0000863516Y0003144249D01*
X0000895786Y0003151443D01*
X0000927107Y0003152175D01*
X0000957254Y0003146454D01*
X0000985998Y0003134290D01*
X0001004177Y0003122676D01*
X0001023802Y0003105255D01*
X0001181472Y0003262925D01*
X0001181466Y0003424936D01*
X0000845590Y0003424923D01*
X0000509714Y0003424911D01*
X0000509726Y0003089035D01*
G36*
X0001429834Y0002623418D02*
G01*
X0001424277Y0002605457D01*
X0001424208Y0002586064D01*
X0001424621Y0002583590D01*
X0001429907Y0002566099D01*
X0001440060Y0002544109D01*
X0001455062Y0002517656D01*
X0001474890Y0002486773D01*
X0001499525Y0002451495D01*
X0001516362Y0002428558D01*
X0001547377Y0002386972D01*
X0001434139Y0002448865D01*
X0001320901Y0002510757D01*
X0001294122Y0002483978D01*
X0001282654Y0002472406D01*
X0001275360Y0002464637D01*
X0001271637Y0002459825D01*
X0001270880Y0002457121D01*
X0001272486Y0002455681D01*
X0001273660Y0002455267D01*
X0001278007Y0002453790D01*
X0001287991Y0002450317D01*
X0001302962Y0002445074D01*
X0001322273Y0002438291D01*
X0001345275Y0002430194D01*
X0001371319Y0002421012D01*
X0001399759Y0002410973D01*
X0001427986Y0002400997D01*
X0001575996Y0002348659D01*
X0001629229Y0002295826D01*
X0001647201Y0002278085D01*
X0001661274Y0002264470D01*
X0001672195Y0002254328D01*
X0001680717Y0002247009D01*
X0001687587Y0002241859D01*
X0001693556Y0002238228D01*
X0001697952Y0002236082D01*
X0001714662Y0002230718D01*
X0001728210Y0002231092D01*
X0001738936Y0002237269D01*
X0001744975Y0002245129D01*
X0001746567Y0002254119D01*
X0001742788Y0002265319D01*
X0001734260Y0002278010D01*
X0001721601Y0002291476D01*
X0001705432Y0002305001D01*
X0001686372Y0002317865D01*
X0001677780Y0002322831D01*
X0001662000Y0002331080D01*
X0001644745Y0002339419D01*
X0001629322Y0002346259D01*
X0001626942Y0002347230D01*
X0001619258Y0002350319D01*
X0001612885Y0002353182D01*
X0001607252Y0002356462D01*
X0001601785Y0002360803D01*
X0001595913Y0002366848D01*
X0001589065Y0002375240D01*
X0001580668Y0002386621D01*
X0001570150Y0002401636D01*
X0001556941Y0002420927D01*
X0001542381Y0002442323D01*
X0001521292Y0002474159D01*
X0001503697Y0002502499D01*
X0001489788Y0002526995D01*
X0001479758Y0002547299D01*
X0001473799Y0002563063D01*
X0001472472Y0002568731D01*
X0001472532Y0002585250D01*
X0001477838Y0002599582D01*
X0001487356Y0002610777D01*
X0001500049Y0002617886D01*
X0001514881Y0002619958D01*
X0001526049Y0002617881D01*
X0001537416Y0002612986D01*
X0001549282Y0002606128D01*
X0001552218Y0002604078D01*
X0001560582Y0002598554D01*
X0001565879Y0002597166D01*
X0001569808Y0002599387D01*
X0001571830Y0002602011D01*
X0001571620Y0002604859D01*
X0001568410Y0002609038D01*
X0001561432Y0002615656D01*
X0001553877Y0002622346D01*
X0001530574Y0002640013D01*
X0001508315Y0002651212D01*
X0001487171Y0002655926D01*
X0001467212Y0002654134D01*
X0001454840Y0002649436D01*
X0001440236Y0002638545D01*
X0001429834Y0002623418D01*
G37*
X0001429834Y0002623418D02*
X0001424277Y0002605457D01*
X0001424208Y0002586064D01*
X0001424621Y0002583590D01*
X0001429907Y0002566099D01*
X0001440060Y0002544109D01*
X0001455062Y0002517656D01*
X0001474890Y0002486773D01*
X0001499525Y0002451495D01*
X0001516362Y0002428558D01*
X0001547377Y0002386972D01*
X0001434139Y0002448865D01*
X0001320901Y0002510757D01*
X0001294122Y0002483978D01*
X0001282654Y0002472406D01*
X0001275360Y0002464637D01*
X0001271637Y0002459825D01*
X0001270880Y0002457121D01*
X0001272486Y0002455681D01*
X0001273660Y0002455267D01*
X0001278007Y0002453790D01*
X0001287991Y0002450317D01*
X0001302962Y0002445074D01*
X0001322273Y0002438291D01*
X0001345275Y0002430194D01*
X0001371319Y0002421012D01*
X0001399759Y0002410973D01*
X0001427986Y0002400997D01*
X0001575996Y0002348659D01*
X0001629229Y0002295826D01*
X0001647201Y0002278085D01*
X0001661274Y0002264470D01*
X0001672195Y0002254328D01*
X0001680717Y0002247009D01*
X0001687587Y0002241859D01*
X0001693556Y0002238228D01*
X0001697952Y0002236082D01*
X0001714662Y0002230718D01*
X0001728210Y0002231092D01*
X0001738936Y0002237269D01*
X0001744975Y0002245129D01*
X0001746567Y0002254119D01*
X0001742788Y0002265319D01*
X0001734260Y0002278010D01*
X0001721601Y0002291476D01*
X0001705432Y0002305001D01*
X0001686372Y0002317865D01*
X0001677780Y0002322831D01*
X0001662000Y0002331080D01*
X0001644745Y0002339419D01*
X0001629322Y0002346259D01*
X0001626942Y0002347230D01*
X0001619258Y0002350319D01*
X0001612885Y0002353182D01*
X0001607252Y0002356462D01*
X0001601785Y0002360803D01*
X0001595913Y0002366848D01*
X0001589065Y0002375240D01*
X0001580668Y0002386621D01*
X0001570150Y0002401636D01*
X0001556941Y0002420927D01*
X0001542381Y0002442323D01*
X0001521292Y0002474159D01*
X0001503697Y0002502499D01*
X0001489788Y0002526995D01*
X0001479758Y0002547299D01*
X0001473799Y0002563063D01*
X0001472472Y0002568731D01*
X0001472532Y0002585250D01*
X0001477838Y0002599582D01*
X0001487356Y0002610777D01*
X0001500049Y0002617886D01*
X0001514881Y0002619958D01*
X0001526049Y0002617881D01*
X0001537416Y0002612986D01*
X0001549282Y0002606128D01*
X0001552218Y0002604078D01*
X0001560582Y0002598554D01*
X0001565879Y0002597166D01*
X0001569808Y0002599387D01*
X0001571830Y0002602011D01*
X0001571620Y0002604859D01*
X0001568410Y0002609038D01*
X0001561432Y0002615656D01*
X0001553877Y0002622346D01*
X0001530574Y0002640013D01*
X0001508315Y0002651212D01*
X0001487171Y0002655926D01*
X0001467212Y0002654134D01*
X0001454840Y0002649436D01*
X0001440236Y0002638545D01*
X0001429834Y0002623418D01*
G04 next file*
G04 #@! TF.GenerationSoftware,KiCad,Pcbnew,(5.1.5)-3*
G04 #@! TF.CreationDate,2019-12-21T12:13:31-08:00*
G04 #@! TF.ProjectId,mole-diamond-keychain,6d6f6c65-2d64-4696-916d-6f6e642d6b65,A*
G04 #@! TF.SameCoordinates,Original*
G04 #@! TF.FileFunction,Legend,Bot*
G04 #@! TF.FilePolarity,Positive*
G04 Gerber Fmt 4.6, Leading zero omitted, Abs format (unit mm)*
G04 Created by KiCad (PCBNEW (5.1.5)-3) date 2019-12-21 12:13:31*
G04 APERTURE LIST*
G04 APERTURE END LIST*
D21*
G36*
X0000861279Y0000812505D02*
G01*
X0000896358Y0000818641D01*
X0000927312Y0000829436D01*
X0000955231Y0000845400D01*
X0000981207Y0000867043D01*
X0000984020Y0000869819D01*
X0001004437Y0000893145D01*
X0001019182Y0000916299D01*
X0001028137Y0000938854D01*
X0001031184Y0000960381D01*
X0001028204Y0000980454D01*
X0001019404Y0000998191D01*
X0001014282Y0001004662D01*
X0001010519Y0001008162D01*
X0001005635Y0001011071D01*
X0000999385Y0001014984D01*
X0000991573Y0001017987D01*
X0000980113Y0001020206D01*
X0000971797Y0001020935D01*
X0000948936Y0001018739D01*
X0000925439Y0001010903D01*
X0000902233Y0000998266D01*
X0000880246Y0000981668D01*
X0000860406Y0000961948D01*
X0000843641Y0000939947D01*
X0000830878Y0000916505D01*
X0000823045Y0000892460D01*
X0000821776Y0000885114D01*
X0000821924Y0000868754D01*
X0000825813Y0000849789D01*
X0000832864Y0000830689D01*
X0000836036Y0000824309D01*
X0000843397Y0000810609D01*
X0000861279Y0000812505D01*
G37*
X0000861279Y0000812505D02*
X0000896358Y0000818641D01*
X0000927312Y0000829436D01*
X0000955231Y0000845400D01*
X0000981207Y0000867043D01*
X0000984020Y0000869819D01*
X0001004437Y0000893145D01*
X0001019182Y0000916299D01*
X0001028137Y0000938854D01*
X0001031184Y0000960381D01*
X0001028204Y0000980454D01*
X0001019404Y0000998191D01*
X0001014282Y0001004662D01*
X0001010519Y0001008162D01*
X0001005635Y0001011071D01*
X0000999385Y0001014984D01*
X0000991573Y0001017987D01*
X0000980113Y0001020206D01*
X0000971797Y0001020935D01*
X0000948936Y0001018739D01*
X0000925439Y0001010903D01*
X0000902233Y0000998266D01*
X0000880246Y0000981668D01*
X0000860406Y0000961948D01*
X0000843641Y0000939947D01*
X0000830878Y0000916505D01*
X0000823045Y0000892460D01*
X0000821776Y0000885114D01*
X0000821924Y0000868754D01*
X0000825813Y0000849789D01*
X0000832864Y0000830689D01*
X0000836036Y0000824309D01*
X0000843397Y0000810609D01*
X0000861279Y0000812505D01*
G36*
X0000847972Y0000509726D02*
G01*
X0001183847Y0000509739D01*
X0001183835Y0000845615D01*
X0001183823Y0001181490D01*
X0000847947Y0001181478D01*
X0000674081Y0001181472D01*
X0000831752Y0001023802D01*
X0000853168Y0001041459D01*
X0000876269Y0001055384D01*
X0000888150Y0001060553D01*
X0000915626Y0001067403D01*
X0000943182Y0001067982D01*
X0000969935Y0001062614D01*
X0000995001Y0001051626D01*
X0001017497Y0001035342D01*
X0001036541Y0001014088D01*
X0001043564Y0001003306D01*
X0001054073Y0000981514D01*
X0001060229Y0000958561D01*
X0001062539Y0000932367D01*
X0001062574Y0000925089D01*
X0001059155Y0000893005D01*
X0001049831Y0000862778D01*
X0001035138Y0000835181D01*
X0001015614Y0000810986D01*
X0000991793Y0000790963D01*
X0000964214Y0000775885D01*
X0000956898Y0000773017D01*
X0000942261Y0000768098D01*
X0000928337Y0000764460D01*
X0000914217Y0000762118D01*
X0000898988Y0000761083D01*
X0000881740Y0000761369D01*
X0000861562Y0000762989D01*
X0000837543Y0000765956D01*
X0000808772Y0000770283D01*
X0000776517Y0000775613D01*
X0000755944Y0000778922D01*
X0000736629Y0000781695D01*
X0000719930Y0000783762D01*
X0000707204Y0000784953D01*
X0000700240Y0000785135D01*
X0000683460Y0000781560D01*
X0000671466Y0000773805D01*
X0000664541Y0000762607D01*
X0000662970Y0000748700D01*
X0000667035Y0000732823D01*
X0000674738Y0000718900D01*
X0000684314Y0000707123D01*
X0000695181Y0000698789D01*
X0000708666Y0000693355D01*
X0000726094Y0000690279D01*
X0000747730Y0000689042D01*
X0000767470Y0000688383D01*
X0000781800Y0000687286D01*
X0000791970Y0000685499D01*
X0000799235Y0000682769D01*
X0000804845Y0000678841D01*
X0000806664Y0000677123D01*
X0000812237Y0000667464D01*
X0000812567Y0000656335D01*
X0000808413Y0000645157D01*
X0000800540Y0000635352D01*
X0000789708Y0000628342D01*
X0000779073Y0000625669D01*
X0000762142Y0000627115D01*
X0000743093Y0000633568D01*
X0000723024Y0000644197D01*
X0000703035Y0000658169D01*
X0000684222Y0000674652D01*
X0000667687Y0000692816D01*
X0000654526Y0000711827D01*
X0000648035Y0000724888D01*
X0000642365Y0000745906D01*
X0000642920Y0000765229D01*
X0000649379Y0000782203D01*
X0000661419Y0000796173D01*
X0000678720Y0000806487D01*
X0000690013Y0000810273D01*
X0000698434Y0000811494D01*
X0000712001Y0000812331D01*
X0000729199Y0000812737D01*
X0000748516Y0000812668D01*
X0000760764Y0000812371D01*
X0000816571Y0000810557D01*
X0000806426Y0000830525D01*
X0000792758Y0000863516D01*
X0000785563Y0000895786D01*
X0000784832Y0000927107D01*
X0000790553Y0000957254D01*
X0000802717Y0000985998D01*
X0000814330Y0001004177D01*
X0000831752Y0001023802D01*
X0000674081Y0001181472D01*
X0000512071Y0001181466D01*
X0000512083Y0000845590D01*
X0000512096Y0000509714D01*
X0000847972Y0000509726D01*
G37*
X0000847972Y0000509726D02*
X0001183847Y0000509739D01*
X0001183835Y0000845615D01*
X0001183823Y0001181490D01*
X0000847947Y0001181478D01*
X0000674081Y0001181472D01*
X0000831752Y0001023802D01*
X0000853168Y0001041459D01*
X0000876269Y0001055384D01*
X0000888150Y0001060553D01*
X0000915626Y0001067403D01*
X0000943182Y0001067982D01*
X0000969935Y0001062614D01*
X0000995001Y0001051626D01*
X0001017497Y0001035342D01*
X0001036541Y0001014088D01*
X0001043564Y0001003306D01*
X0001054073Y0000981514D01*
X0001060229Y0000958561D01*
X0001062539Y0000932367D01*
X0001062574Y0000925089D01*
X0001059155Y0000893005D01*
X0001049831Y0000862778D01*
X0001035138Y0000835181D01*
X0001015614Y0000810986D01*
X0000991793Y0000790963D01*
X0000964214Y0000775885D01*
X0000956898Y0000773017D01*
X0000942261Y0000768098D01*
X0000928337Y0000764460D01*
X0000914217Y0000762118D01*
X0000898988Y0000761083D01*
X0000881740Y0000761369D01*
X0000861562Y0000762989D01*
X0000837543Y0000765956D01*
X0000808772Y0000770283D01*
X0000776517Y0000775613D01*
X0000755944Y0000778922D01*
X0000736629Y0000781695D01*
X0000719930Y0000783762D01*
X0000707204Y0000784953D01*
X0000700240Y0000785135D01*
X0000683460Y0000781560D01*
X0000671466Y0000773805D01*
X0000664541Y0000762607D01*
X0000662970Y0000748700D01*
X0000667035Y0000732823D01*
X0000674738Y0000718900D01*
X0000684314Y0000707123D01*
X0000695181Y0000698789D01*
X0000708666Y0000693355D01*
X0000726094Y0000690279D01*
X0000747730Y0000689042D01*
X0000767470Y0000688383D01*
X0000781800Y0000687286D01*
X0000791970Y0000685499D01*
X0000799235Y0000682769D01*
X0000804845Y0000678841D01*
X0000806664Y0000677123D01*
X0000812237Y0000667464D01*
X0000812567Y0000656335D01*
X0000808413Y0000645157D01*
X0000800540Y0000635352D01*
X0000789708Y0000628342D01*
X0000779073Y0000625669D01*
X0000762142Y0000627115D01*
X0000743093Y0000633568D01*
X0000723024Y0000644197D01*
X0000703035Y0000658169D01*
X0000684222Y0000674652D01*
X0000667687Y0000692816D01*
X0000654526Y0000711827D01*
X0000648035Y0000724888D01*
X0000642365Y0000745906D01*
X0000642920Y0000765229D01*
X0000649379Y0000782203D01*
X0000661419Y0000796173D01*
X0000678720Y0000806487D01*
X0000690013Y0000810273D01*
X0000698434Y0000811494D01*
X0000712001Y0000812331D01*
X0000729199Y0000812737D01*
X0000748516Y0000812668D01*
X0000760764Y0000812371D01*
X0000816571Y0000810557D01*
X0000806426Y0000830525D01*
X0000792758Y0000863516D01*
X0000785563Y0000895786D01*
X0000784832Y0000927107D01*
X0000790553Y0000957254D01*
X0000802717Y0000985998D01*
X0000814330Y0001004177D01*
X0000831752Y0001023802D01*
X0000674081Y0001181472D01*
X0000512071Y0001181466D01*
X0000512083Y0000845590D01*
X0000512096Y0000509714D01*
X0000847972Y0000509726D01*
G36*
X0001313589Y0001429834D02*
G01*
X0001331550Y0001424277D01*
X0001350943Y0001424208D01*
X0001353417Y0001424621D01*
X0001370908Y0001429907D01*
X0001392898Y0001440060D01*
X0001419351Y0001455062D01*
X0001450234Y0001474890D01*
X0001485512Y0001499525D01*
X0001508449Y0001516362D01*
X0001550035Y0001547377D01*
X0001488142Y0001434139D01*
X0001426250Y0001320901D01*
X0001453028Y0001294122D01*
X0001464600Y0001282654D01*
X0001472370Y0001275360D01*
X0001477182Y0001271637D01*
X0001479886Y0001270880D01*
X0001481326Y0001272486D01*
X0001481740Y0001273660D01*
X0001483216Y0001278007D01*
X0001486690Y0001287991D01*
X0001491933Y0001302962D01*
X0001498716Y0001322273D01*
X0001506813Y0001345275D01*
X0001515995Y0001371319D01*
X0001526034Y0001399759D01*
X0001536010Y0001427986D01*
X0001588347Y0001575996D01*
X0001641181Y0001629229D01*
X0001658921Y0001647201D01*
X0001672537Y0001661274D01*
X0001682678Y0001672195D01*
X0001689998Y0001680717D01*
X0001695148Y0001687587D01*
X0001698779Y0001693556D01*
X0001700924Y0001697952D01*
X0001706289Y0001714662D01*
X0001705915Y0001728210D01*
X0001699738Y0001738936D01*
X0001691878Y0001744975D01*
X0001682887Y0001746567D01*
X0001671688Y0001742788D01*
X0001658997Y0001734260D01*
X0001645530Y0001721601D01*
X0001632006Y0001705432D01*
X0001619141Y0001686372D01*
X0001614176Y0001677780D01*
X0001605926Y0001662000D01*
X0001597588Y0001644745D01*
X0001590748Y0001629322D01*
X0001589777Y0001626942D01*
X0001586688Y0001619258D01*
X0001583825Y0001612885D01*
X0001580545Y0001607252D01*
X0001576204Y0001601785D01*
X0001570159Y0001595913D01*
X0001561767Y0001589065D01*
X0001550386Y0001580668D01*
X0001535371Y0001570150D01*
X0001516080Y0001556941D01*
X0001494683Y0001542381D01*
X0001462848Y0001521292D01*
X0001434508Y0001503697D01*
X0001410012Y0001489788D01*
X0001389708Y0001479758D01*
X0001373944Y0001473799D01*
X0001368276Y0001472472D01*
X0001351757Y0001472532D01*
X0001337425Y0001477838D01*
X0001326230Y0001487356D01*
X0001319121Y0001500049D01*
X0001317049Y0001514881D01*
X0001319126Y0001526049D01*
X0001324021Y0001537416D01*
X0001330878Y0001549282D01*
X0001332929Y0001552218D01*
X0001338453Y0001560582D01*
X0001339841Y0001565879D01*
X0001337620Y0001569808D01*
X0001334996Y0001571830D01*
X0001332147Y0001571620D01*
X0001327968Y0001568410D01*
X0001321351Y0001561432D01*
X0001314661Y0001553877D01*
X0001296994Y0001530574D01*
X0001285795Y0001508315D01*
X0001281081Y0001487171D01*
X0001282873Y0001467212D01*
X0001287570Y0001454840D01*
X0001298462Y0001440236D01*
X0001313589Y0001429834D01*
G37*
X0001313589Y0001429834D02*
X0001331550Y0001424277D01*
X0001350943Y0001424208D01*
X0001353417Y0001424621D01*
X0001370908Y0001429907D01*
X0001392898Y0001440060D01*
X0001419351Y0001455062D01*
X0001450234Y0001474890D01*
X0001485512Y0001499525D01*
X0001508449Y0001516362D01*
X0001550035Y0001547377D01*
X0001488142Y0001434139D01*
X0001426250Y0001320901D01*
X0001453028Y0001294122D01*
X0001464600Y0001282654D01*
X0001472370Y0001275360D01*
X0001477182Y0001271637D01*
X0001479886Y0001270880D01*
X0001481326Y0001272486D01*
X0001481740Y0001273660D01*
X0001483216Y0001278007D01*
X0001486690Y0001287991D01*
X0001491933Y0001302962D01*
X0001498716Y0001322273D01*
X0001506813Y0001345275D01*
X0001515995Y0001371319D01*
X0001526034Y0001399759D01*
X0001536010Y0001427986D01*
X0001588347Y0001575996D01*
X0001641181Y0001629229D01*
X0001658921Y0001647201D01*
X0001672537Y0001661274D01*
X0001682678Y0001672195D01*
X0001689998Y0001680717D01*
X0001695148Y0001687587D01*
X0001698779Y0001693556D01*
X0001700924Y0001697952D01*
X0001706289Y0001714662D01*
X0001705915Y0001728210D01*
X0001699738Y0001738936D01*
X0001691878Y0001744975D01*
X0001682887Y0001746567D01*
X0001671688Y0001742788D01*
X0001658997Y0001734260D01*
X0001645530Y0001721601D01*
X0001632006Y0001705432D01*
X0001619141Y0001686372D01*
X0001614176Y0001677780D01*
X0001605926Y0001662000D01*
X0001597588Y0001644745D01*
X0001590748Y0001629322D01*
X0001589777Y0001626942D01*
X0001586688Y0001619258D01*
X0001583825Y0001612885D01*
X0001580545Y0001607252D01*
X0001576204Y0001601785D01*
X0001570159Y0001595913D01*
X0001561767Y0001589065D01*
X0001550386Y0001580668D01*
X0001535371Y0001570150D01*
X0001516080Y0001556941D01*
X0001494683Y0001542381D01*
X0001462848Y0001521292D01*
X0001434508Y0001503697D01*
X0001410012Y0001489788D01*
X0001389708Y0001479758D01*
X0001373944Y0001473799D01*
X0001368276Y0001472472D01*
X0001351757Y0001472532D01*
X0001337425Y0001477838D01*
X0001326230Y0001487356D01*
X0001319121Y0001500049D01*
X0001317049Y0001514881D01*
X0001319126Y0001526049D01*
X0001324021Y0001537416D01*
X0001330878Y0001549282D01*
X0001332929Y0001552218D01*
X0001338453Y0001560582D01*
X0001339841Y0001565879D01*
X0001337620Y0001569808D01*
X0001334996Y0001571830D01*
X0001332147Y0001571620D01*
X0001327968Y0001568410D01*
X0001321351Y0001561432D01*
X0001314661Y0001553877D01*
X0001296994Y0001530574D01*
X0001285795Y0001508315D01*
X0001281081Y0001487171D01*
X0001282873Y0001467212D01*
X0001287570Y0001454840D01*
X0001298462Y0001440236D01*
X0001313589Y0001429834D01*
G04 next file*
G04 #@! TF.GenerationSoftware,KiCad,Pcbnew,(5.1.5)-3*
G04 #@! TF.CreationDate,2019-12-21T12:13:31-08:00*
G04 #@! TF.ProjectId,mole-diamond-keychain,6d6f6c65-2d64-4696-916d-6f6e642d6b65,A*
G04 #@! TF.SameCoordinates,Original*
G04 #@! TF.FileFunction,Legend,Bot*
G04 #@! TF.FilePolarity,Positive*
G04 Gerber Fmt 4.6, Leading zero omitted, Abs format (unit mm)*
G04 Created by KiCad (PCBNEW (5.1.5)-3) date 2019-12-21 12:13:31*
G04 APERTURE LIST*
G04 APERTURE END LIST*
D22*
G36*
X0003124502Y0000861279D02*
G01*
X0003118366Y0000896358D01*
X0003107570Y0000927312D01*
X0003091606Y0000955231D01*
X0003069964Y0000981207D01*
X0003067188Y0000984020D01*
X0003043861Y0001004437D01*
X0003020707Y0001019182D01*
X0002998153Y0001028137D01*
X0002976626Y0001031184D01*
X0002956552Y0001028204D01*
X0002938816Y0001019404D01*
X0002932345Y0001014282D01*
X0002928845Y0001010519D01*
X0002925936Y0001005635D01*
X0002922023Y0000999385D01*
X0002919020Y0000991573D01*
X0002916801Y0000980113D01*
X0002916072Y0000971797D01*
X0002918267Y0000948936D01*
X0002926103Y0000925439D01*
X0002938741Y0000902233D01*
X0002955339Y0000880246D01*
X0002975058Y0000860406D01*
X0002997059Y0000843641D01*
X0003020502Y0000830878D01*
X0003044547Y0000823045D01*
X0003051893Y0000821776D01*
X0003068253Y0000821924D01*
X0003087218Y0000825813D01*
X0003106318Y0000832864D01*
X0003112698Y0000836036D01*
X0003126398Y0000843397D01*
X0003124502Y0000861279D01*
G37*
X0003124502Y0000861279D02*
X0003118366Y0000896358D01*
X0003107570Y0000927312D01*
X0003091606Y0000955231D01*
X0003069964Y0000981207D01*
X0003067188Y0000984020D01*
X0003043861Y0001004437D01*
X0003020707Y0001019182D01*
X0002998153Y0001028137D01*
X0002976626Y0001031184D01*
X0002956552Y0001028204D01*
X0002938816Y0001019404D01*
X0002932345Y0001014282D01*
X0002928845Y0001010519D01*
X0002925936Y0001005635D01*
X0002922023Y0000999385D01*
X0002919020Y0000991573D01*
X0002916801Y0000980113D01*
X0002916072Y0000971797D01*
X0002918267Y0000948936D01*
X0002926103Y0000925439D01*
X0002938741Y0000902233D01*
X0002955339Y0000880246D01*
X0002975058Y0000860406D01*
X0002997059Y0000843641D01*
X0003020502Y0000830878D01*
X0003044547Y0000823045D01*
X0003051893Y0000821776D01*
X0003068253Y0000821924D01*
X0003087218Y0000825813D01*
X0003106318Y0000832864D01*
X0003112698Y0000836036D01*
X0003126398Y0000843397D01*
X0003124502Y0000861279D01*
G36*
X0003427280Y0000847972D02*
G01*
X0003427268Y0001183847D01*
X0003091392Y0001183835D01*
X0002755517Y0001183823D01*
X0002755529Y0000847947D01*
X0002755535Y0000674081D01*
X0002913205Y0000831752D01*
X0002895548Y0000853168D01*
X0002881623Y0000876269D01*
X0002876454Y0000888150D01*
X0002869604Y0000915626D01*
X0002869025Y0000943182D01*
X0002874393Y0000969935D01*
X0002885381Y0000995001D01*
X0002901665Y0001017497D01*
X0002922919Y0001036541D01*
X0002933701Y0001043564D01*
X0002955493Y0001054073D01*
X0002978446Y0001060229D01*
X0003004640Y0001062539D01*
X0003011918Y0001062574D01*
X0003044002Y0001059155D01*
X0003074228Y0001049831D01*
X0003101825Y0001035138D01*
X0003126021Y0001015614D01*
X0003146044Y0000991793D01*
X0003161122Y0000964214D01*
X0003163990Y0000956898D01*
X0003168909Y0000942261D01*
X0003172546Y0000928337D01*
X0003174889Y0000914217D01*
X0003175924Y0000898988D01*
X0003175638Y0000881740D01*
X0003174018Y0000861562D01*
X0003171051Y0000837543D01*
X0003166724Y0000808772D01*
X0003161394Y0000776517D01*
X0003158084Y0000755944D01*
X0003155312Y0000736629D01*
X0003153245Y0000719930D01*
X0003152054Y0000707204D01*
X0003151872Y0000700240D01*
X0003155446Y0000683460D01*
X0003163201Y0000671466D01*
X0003174400Y0000664541D01*
X0003188307Y0000662970D01*
X0003204184Y0000667035D01*
X0003218107Y0000674738D01*
X0003229884Y0000684314D01*
X0003238218Y0000695181D01*
X0003243652Y0000708666D01*
X0003246727Y0000726094D01*
X0003247964Y0000747730D01*
X0003248624Y0000767470D01*
X0003249720Y0000781800D01*
X0003251507Y0000791970D01*
X0003254238Y0000799235D01*
X0003258166Y0000804845D01*
X0003259884Y0000806664D01*
X0003269543Y0000812237D01*
X0003280672Y0000812567D01*
X0003291850Y0000808413D01*
X0003301655Y0000800540D01*
X0003308665Y0000789708D01*
X0003311338Y0000779073D01*
X0003309892Y0000762142D01*
X0003303439Y0000743093D01*
X0003292810Y0000723024D01*
X0003278838Y0000703035D01*
X0003262355Y0000684222D01*
X0003244191Y0000667687D01*
X0003225180Y0000654526D01*
X0003212119Y0000648035D01*
X0003191101Y0000642365D01*
X0003171778Y0000642920D01*
X0003154804Y0000649379D01*
X0003140834Y0000661419D01*
X0003130520Y0000678720D01*
X0003126734Y0000690013D01*
X0003125513Y0000698434D01*
X0003124676Y0000712001D01*
X0003124270Y0000729199D01*
X0003124339Y0000748516D01*
X0003124636Y0000760764D01*
X0003126450Y0000816571D01*
X0003106482Y0000806426D01*
X0003073490Y0000792758D01*
X0003041221Y0000785563D01*
X0003009900Y0000784832D01*
X0002979753Y0000790553D01*
X0002951009Y0000802717D01*
X0002932830Y0000814330D01*
X0002913205Y0000831752D01*
X0002755535Y0000674081D01*
X0002755541Y0000512071D01*
X0003091417Y0000512083D01*
X0003427293Y0000512096D01*
X0003427280Y0000847972D01*
G37*
X0003427280Y0000847972D02*
X0003427268Y0001183847D01*
X0003091392Y0001183835D01*
X0002755517Y0001183823D01*
X0002755529Y0000847947D01*
X0002755535Y0000674081D01*
X0002913205Y0000831752D01*
X0002895548Y0000853168D01*
X0002881623Y0000876269D01*
X0002876454Y0000888150D01*
X0002869604Y0000915626D01*
X0002869025Y0000943182D01*
X0002874393Y0000969935D01*
X0002885381Y0000995001D01*
X0002901665Y0001017497D01*
X0002922919Y0001036541D01*
X0002933701Y0001043564D01*
X0002955493Y0001054073D01*
X0002978446Y0001060229D01*
X0003004640Y0001062539D01*
X0003011918Y0001062574D01*
X0003044002Y0001059155D01*
X0003074228Y0001049831D01*
X0003101825Y0001035138D01*
X0003126021Y0001015614D01*
X0003146044Y0000991793D01*
X0003161122Y0000964214D01*
X0003163990Y0000956898D01*
X0003168909Y0000942261D01*
X0003172546Y0000928337D01*
X0003174889Y0000914217D01*
X0003175924Y0000898988D01*
X0003175638Y0000881740D01*
X0003174018Y0000861562D01*
X0003171051Y0000837543D01*
X0003166724Y0000808772D01*
X0003161394Y0000776517D01*
X0003158084Y0000755944D01*
X0003155312Y0000736629D01*
X0003153245Y0000719930D01*
X0003152054Y0000707204D01*
X0003151872Y0000700240D01*
X0003155446Y0000683460D01*
X0003163201Y0000671466D01*
X0003174400Y0000664541D01*
X0003188307Y0000662970D01*
X0003204184Y0000667035D01*
X0003218107Y0000674738D01*
X0003229884Y0000684314D01*
X0003238218Y0000695181D01*
X0003243652Y0000708666D01*
X0003246727Y0000726094D01*
X0003247964Y0000747730D01*
X0003248624Y0000767470D01*
X0003249720Y0000781800D01*
X0003251507Y0000791970D01*
X0003254238Y0000799235D01*
X0003258166Y0000804845D01*
X0003259884Y0000806664D01*
X0003269543Y0000812237D01*
X0003280672Y0000812567D01*
X0003291850Y0000808413D01*
X0003301655Y0000800540D01*
X0003308665Y0000789708D01*
X0003311338Y0000779073D01*
X0003309892Y0000762142D01*
X0003303439Y0000743093D01*
X0003292810Y0000723024D01*
X0003278838Y0000703035D01*
X0003262355Y0000684222D01*
X0003244191Y0000667687D01*
X0003225180Y0000654526D01*
X0003212119Y0000648035D01*
X0003191101Y0000642365D01*
X0003171778Y0000642920D01*
X0003154804Y0000649379D01*
X0003140834Y0000661419D01*
X0003130520Y0000678720D01*
X0003126734Y0000690013D01*
X0003125513Y0000698434D01*
X0003124676Y0000712001D01*
X0003124270Y0000729199D01*
X0003124339Y0000748516D01*
X0003124636Y0000760764D01*
X0003126450Y0000816571D01*
X0003106482Y0000806426D01*
X0003073490Y0000792758D01*
X0003041221Y0000785563D01*
X0003009900Y0000784832D01*
X0002979753Y0000790553D01*
X0002951009Y0000802717D01*
X0002932830Y0000814330D01*
X0002913205Y0000831752D01*
X0002755535Y0000674081D01*
X0002755541Y0000512071D01*
X0003091417Y0000512083D01*
X0003427293Y0000512096D01*
X0003427280Y0000847972D01*
G36*
X0002507172Y0001313589D02*
G01*
X0002512730Y0001331550D01*
X0002512799Y0001350943D01*
X0002512386Y0001353417D01*
X0002507100Y0001370908D01*
X0002496946Y0001392898D01*
X0002481945Y0001419351D01*
X0002462117Y0001450234D01*
X0002437482Y0001485512D01*
X0002420644Y0001508449D01*
X0002389630Y0001550035D01*
X0002502868Y0001488142D01*
X0002616106Y0001426250D01*
X0002642885Y0001453028D01*
X0002654352Y0001464600D01*
X0002661646Y0001472370D01*
X0002665370Y0001477182D01*
X0002666127Y0001479886D01*
X0002664521Y0001481326D01*
X0002663347Y0001481740D01*
X0002658999Y0001483216D01*
X0002649016Y0001486690D01*
X0002634045Y0001491933D01*
X0002614734Y0001498716D01*
X0002591732Y0001506813D01*
X0002565687Y0001515995D01*
X0002537248Y0001526034D01*
X0002509020Y0001536010D01*
X0002361011Y0001588347D01*
X0002307778Y0001641181D01*
X0002289805Y0001658921D01*
X0002275733Y0001672537D01*
X0002264811Y0001682678D01*
X0002256290Y0001689998D01*
X0002249420Y0001695148D01*
X0002243451Y0001698779D01*
X0002239055Y0001700924D01*
X0002222345Y0001706289D01*
X0002208797Y0001705915D01*
X0002198071Y0001699738D01*
X0002192032Y0001691878D01*
X0002190440Y0001682887D01*
X0002194218Y0001671688D01*
X0002202747Y0001658997D01*
X0002215406Y0001645530D01*
X0002231575Y0001632006D01*
X0002250634Y0001619141D01*
X0002259227Y0001614176D01*
X0002275007Y0001605926D01*
X0002292262Y0001597588D01*
X0002307685Y0001590748D01*
X0002310065Y0001589777D01*
X0002317749Y0001586688D01*
X0002324121Y0001583825D01*
X0002329755Y0001580545D01*
X0002335222Y0001576204D01*
X0002341094Y0001570159D01*
X0002347942Y0001561767D01*
X0002356339Y0001550386D01*
X0002366856Y0001535371D01*
X0002380066Y0001516080D01*
X0002394626Y0001494683D01*
X0002415715Y0001462848D01*
X0002433310Y0001434508D01*
X0002447219Y0001410012D01*
X0002457249Y0001389708D01*
X0002463208Y0001373944D01*
X0002464535Y0001368276D01*
X0002464475Y0001351757D01*
X0002459168Y0001337425D01*
X0002449651Y0001326230D01*
X0002436958Y0001319121D01*
X0002422126Y0001317049D01*
X0002410958Y0001319126D01*
X0002399591Y0001324021D01*
X0002387724Y0001330878D01*
X0002384789Y0001332929D01*
X0002376425Y0001338453D01*
X0002371127Y0001339841D01*
X0002367199Y0001337620D01*
X0002365177Y0001334996D01*
X0002365386Y0001332147D01*
X0002368596Y0001327968D01*
X0002375575Y0001321351D01*
X0002383130Y0001314661D01*
X0002406433Y0001296994D01*
X0002428692Y0001285795D01*
X0002449836Y0001281081D01*
X0002469795Y0001282873D01*
X0002482167Y0001287570D01*
X0002496770Y0001298462D01*
X0002507172Y0001313589D01*
G37*
X0002507172Y0001313589D02*
X0002512730Y0001331550D01*
X0002512799Y0001350943D01*
X0002512386Y0001353417D01*
X0002507100Y0001370908D01*
X0002496946Y0001392898D01*
X0002481945Y0001419351D01*
X0002462117Y0001450234D01*
X0002437482Y0001485512D01*
X0002420644Y0001508449D01*
X0002389630Y0001550035D01*
X0002502868Y0001488142D01*
X0002616106Y0001426250D01*
X0002642885Y0001453028D01*
X0002654352Y0001464600D01*
X0002661646Y0001472370D01*
X0002665370Y0001477182D01*
X0002666127Y0001479886D01*
X0002664521Y0001481326D01*
X0002663347Y0001481740D01*
X0002658999Y0001483216D01*
X0002649016Y0001486690D01*
X0002634045Y0001491933D01*
X0002614734Y0001498716D01*
X0002591732Y0001506813D01*
X0002565687Y0001515995D01*
X0002537248Y0001526034D01*
X0002509020Y0001536010D01*
X0002361011Y0001588347D01*
X0002307778Y0001641181D01*
X0002289805Y0001658921D01*
X0002275733Y0001672537D01*
X0002264811Y0001682678D01*
X0002256290Y0001689998D01*
X0002249420Y0001695148D01*
X0002243451Y0001698779D01*
X0002239055Y0001700924D01*
X0002222345Y0001706289D01*
X0002208797Y0001705915D01*
X0002198071Y0001699738D01*
X0002192032Y0001691878D01*
X0002190440Y0001682887D01*
X0002194218Y0001671688D01*
X0002202747Y0001658997D01*
X0002215406Y0001645530D01*
X0002231575Y0001632006D01*
X0002250634Y0001619141D01*
X0002259227Y0001614176D01*
X0002275007Y0001605926D01*
X0002292262Y0001597588D01*
X0002307685Y0001590748D01*
X0002310065Y0001589777D01*
X0002317749Y0001586688D01*
X0002324121Y0001583825D01*
X0002329755Y0001580545D01*
X0002335222Y0001576204D01*
X0002341094Y0001570159D01*
X0002347942Y0001561767D01*
X0002356339Y0001550386D01*
X0002366856Y0001535371D01*
X0002380066Y0001516080D01*
X0002394626Y0001494683D01*
X0002415715Y0001462848D01*
X0002433310Y0001434508D01*
X0002447219Y0001410012D01*
X0002457249Y0001389708D01*
X0002463208Y0001373944D01*
X0002464535Y0001368276D01*
X0002464475Y0001351757D01*
X0002459168Y0001337425D01*
X0002449651Y0001326230D01*
X0002436958Y0001319121D01*
X0002422126Y0001317049D01*
X0002410958Y0001319126D01*
X0002399591Y0001324021D01*
X0002387724Y0001330878D01*
X0002384789Y0001332929D01*
X0002376425Y0001338453D01*
X0002371127Y0001339841D01*
X0002367199Y0001337620D01*
X0002365177Y0001334996D01*
X0002365386Y0001332147D01*
X0002368596Y0001327968D01*
X0002375575Y0001321351D01*
X0002383130Y0001314661D01*
X0002406433Y0001296994D01*
X0002428692Y0001285795D01*
X0002449836Y0001281081D01*
X0002469795Y0001282873D01*
X0002482167Y0001287570D01*
X0002496770Y0001298462D01*
X0002507172Y0001313589D01*
G04 next file*
G04 #@! TF.GenerationSoftware,KiCad,Pcbnew,(5.1.5)-3*
G04 #@! TF.CreationDate,2019-12-21T12:13:31-08:00*
G04 #@! TF.ProjectId,mole-diamond-keychain,6d6f6c65-2d64-4696-916d-6f6e642d6b65,A*
G04 #@! TF.SameCoordinates,Original*
G04 #@! TF.FileFunction,Legend,Bot*
G04 #@! TF.FilePolarity,Positive*
G04 Gerber Fmt 4.6, Leading zero omitted, Abs format (unit mm)*
G04 Created by KiCad (PCBNEW (5.1.5)-3) date 2019-12-21 12:13:31*
G04 APERTURE LIST*
G04 APERTURE END LIST*
D23*
G36*
X0003075728Y0003124502D02*
G01*
X0003040648Y0003118366D01*
X0003009695Y0003107570D01*
X0002981776Y0003091606D01*
X0002955799Y0003069964D01*
X0002952987Y0003067188D01*
X0002932569Y0003043861D01*
X0002917825Y0003020707D01*
X0002908870Y0002998153D01*
X0002905823Y0002976626D01*
X0002908803Y0002956552D01*
X0002917603Y0002938816D01*
X0002922724Y0002932345D01*
X0002926488Y0002928845D01*
X0002931372Y0002925936D01*
X0002937622Y0002922023D01*
X0002945434Y0002919020D01*
X0002956894Y0002916801D01*
X0002965210Y0002916072D01*
X0002988071Y0002918267D01*
X0003011568Y0002926103D01*
X0003034774Y0002938741D01*
X0003056761Y0002955339D01*
X0003076600Y0002975058D01*
X0003093366Y0002997059D01*
X0003106129Y0003020502D01*
X0003113962Y0003044547D01*
X0003115231Y0003051893D01*
X0003115083Y0003068253D01*
X0003111194Y0003087218D01*
X0003104143Y0003106318D01*
X0003100971Y0003112698D01*
X0003093610Y0003126398D01*
X0003075728Y0003124502D01*
G37*
X0003075728Y0003124502D02*
X0003040648Y0003118366D01*
X0003009695Y0003107570D01*
X0002981776Y0003091606D01*
X0002955799Y0003069964D01*
X0002952987Y0003067188D01*
X0002932569Y0003043861D01*
X0002917825Y0003020707D01*
X0002908870Y0002998153D01*
X0002905823Y0002976626D01*
X0002908803Y0002956552D01*
X0002917603Y0002938816D01*
X0002922724Y0002932345D01*
X0002926488Y0002928845D01*
X0002931372Y0002925936D01*
X0002937622Y0002922023D01*
X0002945434Y0002919020D01*
X0002956894Y0002916801D01*
X0002965210Y0002916072D01*
X0002988071Y0002918267D01*
X0003011568Y0002926103D01*
X0003034774Y0002938741D01*
X0003056761Y0002955339D01*
X0003076600Y0002975058D01*
X0003093366Y0002997059D01*
X0003106129Y0003020502D01*
X0003113962Y0003044547D01*
X0003115231Y0003051893D01*
X0003115083Y0003068253D01*
X0003111194Y0003087218D01*
X0003104143Y0003106318D01*
X0003100971Y0003112698D01*
X0003093610Y0003126398D01*
X0003075728Y0003124502D01*
G36*
X0003089035Y0003427280D02*
G01*
X0002753160Y0003427268D01*
X0002753172Y0003091392D01*
X0002753184Y0002755517D01*
X0003089060Y0002755529D01*
X0003262925Y0002755535D01*
X0003105255Y0002913205D01*
X0003083839Y0002895548D01*
X0003060738Y0002881623D01*
X0003048857Y0002876454D01*
X0003021381Y0002869604D01*
X0002993825Y0002869025D01*
X0002967072Y0002874393D01*
X0002942006Y0002885381D01*
X0002919510Y0002901665D01*
X0002900466Y0002922919D01*
X0002893443Y0002933701D01*
X0002882934Y0002955493D01*
X0002876778Y0002978446D01*
X0002874468Y0003004640D01*
X0002874433Y0003011918D01*
X0002877852Y0003044002D01*
X0002887176Y0003074228D01*
X0002901869Y0003101825D01*
X0002921393Y0003126021D01*
X0002945213Y0003146044D01*
X0002972793Y0003161122D01*
X0002980109Y0003163990D01*
X0002994746Y0003168909D01*
X0003008670Y0003172546D01*
X0003022790Y0003174889D01*
X0003038019Y0003175924D01*
X0003055266Y0003175638D01*
X0003075444Y0003174018D01*
X0003099463Y0003171051D01*
X0003128235Y0003166724D01*
X0003160490Y0003161394D01*
X0003181063Y0003158084D01*
X0003200378Y0003155312D01*
X0003217076Y0003153245D01*
X0003229803Y0003152054D01*
X0003236766Y0003151872D01*
X0003253547Y0003155446D01*
X0003265541Y0003163201D01*
X0003272465Y0003174400D01*
X0003274037Y0003188307D01*
X0003269972Y0003204184D01*
X0003262269Y0003218107D01*
X0003252693Y0003229884D01*
X0003241826Y0003238218D01*
X0003228341Y0003243652D01*
X0003210913Y0003246727D01*
X0003189277Y0003247964D01*
X0003169536Y0003248624D01*
X0003155207Y0003249720D01*
X0003145037Y0003251507D01*
X0003137772Y0003254238D01*
X0003132162Y0003258166D01*
X0003130343Y0003259884D01*
X0003124769Y0003269543D01*
X0003124440Y0003280672D01*
X0003128594Y0003291850D01*
X0003136467Y0003301655D01*
X0003147299Y0003308665D01*
X0003157934Y0003311338D01*
X0003174865Y0003309892D01*
X0003193914Y0003303439D01*
X0003213983Y0003292810D01*
X0003233972Y0003278838D01*
X0003252784Y0003262355D01*
X0003269320Y0003244191D01*
X0003282481Y0003225180D01*
X0003288972Y0003212119D01*
X0003294642Y0003191101D01*
X0003294087Y0003171778D01*
X0003287628Y0003154804D01*
X0003275588Y0003140834D01*
X0003258287Y0003130520D01*
X0003246994Y0003126734D01*
X0003238573Y0003125513D01*
X0003225006Y0003124676D01*
X0003207808Y0003124270D01*
X0003188491Y0003124339D01*
X0003176243Y0003124636D01*
X0003120436Y0003126450D01*
X0003130581Y0003106482D01*
X0003144249Y0003073490D01*
X0003151443Y0003041221D01*
X0003152175Y0003009900D01*
X0003146454Y0002979753D01*
X0003134290Y0002951009D01*
X0003122676Y0002932830D01*
X0003105255Y0002913205D01*
X0003262925Y0002755535D01*
X0003424936Y0002755541D01*
X0003424923Y0003091417D01*
X0003424911Y0003427293D01*
X0003089035Y0003427280D01*
G37*
X0003089035Y0003427280D02*
X0002753160Y0003427268D01*
X0002753172Y0003091392D01*
X0002753184Y0002755517D01*
X0003089060Y0002755529D01*
X0003262925Y0002755535D01*
X0003105255Y0002913205D01*
X0003083839Y0002895548D01*
X0003060738Y0002881623D01*
X0003048857Y0002876454D01*
X0003021381Y0002869604D01*
X0002993825Y0002869025D01*
X0002967072Y0002874393D01*
X0002942006Y0002885381D01*
X0002919510Y0002901665D01*
X0002900466Y0002922919D01*
X0002893443Y0002933701D01*
X0002882934Y0002955493D01*
X0002876778Y0002978446D01*
X0002874468Y0003004640D01*
X0002874433Y0003011918D01*
X0002877852Y0003044002D01*
X0002887176Y0003074228D01*
X0002901869Y0003101825D01*
X0002921393Y0003126021D01*
X0002945213Y0003146044D01*
X0002972793Y0003161122D01*
X0002980109Y0003163990D01*
X0002994746Y0003168909D01*
X0003008670Y0003172546D01*
X0003022790Y0003174889D01*
X0003038019Y0003175924D01*
X0003055266Y0003175638D01*
X0003075444Y0003174018D01*
X0003099463Y0003171051D01*
X0003128235Y0003166724D01*
X0003160490Y0003161394D01*
X0003181063Y0003158084D01*
X0003200378Y0003155312D01*
X0003217076Y0003153245D01*
X0003229803Y0003152054D01*
X0003236766Y0003151872D01*
X0003253547Y0003155446D01*
X0003265541Y0003163201D01*
X0003272465Y0003174400D01*
X0003274037Y0003188307D01*
X0003269972Y0003204184D01*
X0003262269Y0003218107D01*
X0003252693Y0003229884D01*
X0003241826Y0003238218D01*
X0003228341Y0003243652D01*
X0003210913Y0003246727D01*
X0003189277Y0003247964D01*
X0003169536Y0003248624D01*
X0003155207Y0003249720D01*
X0003145037Y0003251507D01*
X0003137772Y0003254238D01*
X0003132162Y0003258166D01*
X0003130343Y0003259884D01*
X0003124769Y0003269543D01*
X0003124440Y0003280672D01*
X0003128594Y0003291850D01*
X0003136467Y0003301655D01*
X0003147299Y0003308665D01*
X0003157934Y0003311338D01*
X0003174865Y0003309892D01*
X0003193914Y0003303439D01*
X0003213983Y0003292810D01*
X0003233972Y0003278838D01*
X0003252784Y0003262355D01*
X0003269320Y0003244191D01*
X0003282481Y0003225180D01*
X0003288972Y0003212119D01*
X0003294642Y0003191101D01*
X0003294087Y0003171778D01*
X0003287628Y0003154804D01*
X0003275588Y0003140834D01*
X0003258287Y0003130520D01*
X0003246994Y0003126734D01*
X0003238573Y0003125513D01*
X0003225006Y0003124676D01*
X0003207808Y0003124270D01*
X0003188491Y0003124339D01*
X0003176243Y0003124636D01*
X0003120436Y0003126450D01*
X0003130581Y0003106482D01*
X0003144249Y0003073490D01*
X0003151443Y0003041221D01*
X0003152175Y0003009900D01*
X0003146454Y0002979753D01*
X0003134290Y0002951009D01*
X0003122676Y0002932830D01*
X0003105255Y0002913205D01*
X0003262925Y0002755535D01*
X0003424936Y0002755541D01*
X0003424923Y0003091417D01*
X0003424911Y0003427293D01*
X0003089035Y0003427280D01*
G36*
X0002623418Y0002507172D02*
G01*
X0002605457Y0002512730D01*
X0002586064Y0002512799D01*
X0002583590Y0002512386D01*
X0002566099Y0002507100D01*
X0002544109Y0002496946D01*
X0002517656Y0002481945D01*
X0002486773Y0002462117D01*
X0002451495Y0002437482D01*
X0002428558Y0002420644D01*
X0002386972Y0002389630D01*
X0002448865Y0002502868D01*
X0002510757Y0002616106D01*
X0002483978Y0002642885D01*
X0002472406Y0002654352D01*
X0002464637Y0002661646D01*
X0002459825Y0002665370D01*
X0002457121Y0002666127D01*
X0002455681Y0002664521D01*
X0002455267Y0002663347D01*
X0002453790Y0002658999D01*
X0002450317Y0002649016D01*
X0002445074Y0002634045D01*
X0002438291Y0002614734D01*
X0002430194Y0002591732D01*
X0002421012Y0002565687D01*
X0002410973Y0002537248D01*
X0002400997Y0002509020D01*
X0002348659Y0002361011D01*
X0002295826Y0002307778D01*
X0002278085Y0002289805D01*
X0002264470Y0002275733D01*
X0002254328Y0002264811D01*
X0002247009Y0002256290D01*
X0002241859Y0002249420D01*
X0002238228Y0002243451D01*
X0002236082Y0002239055D01*
X0002230718Y0002222345D01*
X0002231092Y0002208797D01*
X0002237269Y0002198071D01*
X0002245129Y0002192032D01*
X0002254119Y0002190440D01*
X0002265319Y0002194218D01*
X0002278010Y0002202747D01*
X0002291476Y0002215406D01*
X0002305001Y0002231575D01*
X0002317865Y0002250634D01*
X0002322831Y0002259227D01*
X0002331080Y0002275007D01*
X0002339419Y0002292262D01*
X0002346259Y0002307685D01*
X0002347230Y0002310065D01*
X0002350319Y0002317749D01*
X0002353182Y0002324121D01*
X0002356462Y0002329755D01*
X0002360803Y0002335222D01*
X0002366848Y0002341094D01*
X0002375240Y0002347942D01*
X0002386621Y0002356339D01*
X0002401636Y0002366856D01*
X0002420927Y0002380066D01*
X0002442323Y0002394626D01*
X0002474159Y0002415715D01*
X0002502499Y0002433310D01*
X0002526995Y0002447219D01*
X0002547299Y0002457249D01*
X0002563063Y0002463208D01*
X0002568731Y0002464535D01*
X0002585250Y0002464475D01*
X0002599582Y0002459168D01*
X0002610777Y0002449651D01*
X0002617886Y0002436958D01*
X0002619958Y0002422126D01*
X0002617881Y0002410958D01*
X0002612986Y0002399591D01*
X0002606128Y0002387724D01*
X0002604078Y0002384789D01*
X0002598554Y0002376425D01*
X0002597166Y0002371127D01*
X0002599387Y0002367199D01*
X0002602011Y0002365177D01*
X0002604859Y0002365386D01*
X0002609038Y0002368596D01*
X0002615656Y0002375575D01*
X0002622346Y0002383130D01*
X0002640013Y0002406433D01*
X0002651212Y0002428692D01*
X0002655926Y0002449836D01*
X0002654134Y0002469795D01*
X0002649436Y0002482167D01*
X0002638545Y0002496770D01*
X0002623418Y0002507172D01*
G37*
X0002623418Y0002507172D02*
X0002605457Y0002512730D01*
X0002586064Y0002512799D01*
X0002583590Y0002512386D01*
X0002566099Y0002507100D01*
X0002544109Y0002496946D01*
X0002517656Y0002481945D01*
X0002486773Y0002462117D01*
X0002451495Y0002437482D01*
X0002428558Y0002420644D01*
X0002386972Y0002389630D01*
X0002448865Y0002502868D01*
X0002510757Y0002616106D01*
X0002483978Y0002642885D01*
X0002472406Y0002654352D01*
X0002464637Y0002661646D01*
X0002459825Y0002665370D01*
X0002457121Y0002666127D01*
X0002455681Y0002664521D01*
X0002455267Y0002663347D01*
X0002453790Y0002658999D01*
X0002450317Y0002649016D01*
X0002445074Y0002634045D01*
X0002438291Y0002614734D01*
X0002430194Y0002591732D01*
X0002421012Y0002565687D01*
X0002410973Y0002537248D01*
X0002400997Y0002509020D01*
X0002348659Y0002361011D01*
X0002295826Y0002307778D01*
X0002278085Y0002289805D01*
X0002264470Y0002275733D01*
X0002254328Y0002264811D01*
X0002247009Y0002256290D01*
X0002241859Y0002249420D01*
X0002238228Y0002243451D01*
X0002236082Y0002239055D01*
X0002230718Y0002222345D01*
X0002231092Y0002208797D01*
X0002237269Y0002198071D01*
X0002245129Y0002192032D01*
X0002254119Y0002190440D01*
X0002265319Y0002194218D01*
X0002278010Y0002202747D01*
X0002291476Y0002215406D01*
X0002305001Y0002231575D01*
X0002317865Y0002250634D01*
X0002322831Y0002259227D01*
X0002331080Y0002275007D01*
X0002339419Y0002292262D01*
X0002346259Y0002307685D01*
X0002347230Y0002310065D01*
X0002350319Y0002317749D01*
X0002353182Y0002324121D01*
X0002356462Y0002329755D01*
X0002360803Y0002335222D01*
X0002366848Y0002341094D01*
X0002375240Y0002347942D01*
X0002386621Y0002356339D01*
X0002401636Y0002366856D01*
X0002420927Y0002380066D01*
X0002442323Y0002394626D01*
X0002474159Y0002415715D01*
X0002502499Y0002433310D01*
X0002526995Y0002447219D01*
X0002547299Y0002457249D01*
X0002563063Y0002463208D01*
X0002568731Y0002464535D01*
X0002585250Y0002464475D01*
X0002599582Y0002459168D01*
X0002610777Y0002449651D01*
X0002617886Y0002436958D01*
X0002619958Y0002422126D01*
X0002617881Y0002410958D01*
X0002612986Y0002399591D01*
X0002606128Y0002387724D01*
X0002604078Y0002384789D01*
X0002598554Y0002376425D01*
X0002597166Y0002371127D01*
X0002599387Y0002367199D01*
X0002602011Y0002365177D01*
X0002604859Y0002365386D01*
X0002609038Y0002368596D01*
X0002615656Y0002375575D01*
X0002622346Y0002383130D01*
X0002640013Y0002406433D01*
X0002651212Y0002428692D01*
X0002655926Y0002449836D01*
X0002654134Y0002469795D01*
X0002649436Y0002482167D01*
X0002638545Y0002496770D01*
X0002623418Y0002507172D01*
M02*