%
M48
METRIC,000.000
T01C0.50
%
T01
X030178Y051774
X031174Y051862
X027466Y051794
X028465Y051742
X030576Y047654
X029614Y047916
X028617Y047951
X027639Y047759
X072178Y051774
X073174Y051862
X069466Y051794
X070465Y051742
X072576Y047654
X071614Y047916
X070617Y047951
X069639Y047759
X009776Y073211
X009691Y072215
X009657Y071215
X009673Y070215
X009743Y069218
X006250Y068607
X006250Y069607
X006250Y070607
X006250Y071607
X006250Y072607
X090167Y068925
X090250Y069921
X090283Y070920
X090264Y071920
X090193Y072917
X093750Y073178
X093750Y072178
X093750Y071178
X093750Y070178
X093750Y069178
X048167Y068925
X048250Y069921
X048283Y070920
X048264Y071920
X048193Y072917
X051776Y073211
X051691Y072215
X051657Y071215
X051673Y070215
X051743Y069218
X048167Y018925
X048250Y019921
X048283Y020920
X048264Y021920
X048193Y022917
X051776Y023211
X051691Y022215
X051657Y021215
X051673Y020215
X051743Y019218
X009776Y023211
X009691Y022215
X009657Y021215
X009673Y020215
X009743Y019218
X006250Y018607
X006250Y019607
X006250Y020607
X006250Y021607
X006250Y022607
X090167Y018925
X090250Y019921
X090283Y020920
X090264Y021920
X090193Y022917
X093750Y023178
X093750Y022178
X093750Y021178
X093750Y020178
X093750Y019178
M30