%MOIN*%
%OFA0B0*%
%FSLAX46Y46*%
%IPPOS*%
%LPD*%
%ADD10C,0.22047244094488189*%
%ADD11C,0.01*%
%ADD22C,0.22047244094488189*%
%ADD23C,0.01*%
%ADD24C,0.22047244094488189*%
%ADD25C,0.01*%
%ADD26C,0.22047244094488189*%
%ADD27C,0.01*%
%ADD28C,0.11811023622047245*%
%ADD29C,0.01*%
%ADD30C,0.11811023622047245*%
%ADD31C,0.01*%
D10*
X-0004409448Y0007047244D02*
X0001140551Y0003687244D03*
D11*
G36*
X0001173803Y0003516474D02*
G01*
X0001206983Y0003514171D01*
X0001240024Y0003510338D01*
X0001272850Y0003504983D01*
X0001305394Y0003498118D01*
X0001337588Y0003489757D01*
X0001369360Y0003479918D01*
X0001400644Y0003468622D01*
X0001431373Y0003455894D01*
X0001461482Y0003441760D01*
X0001490905Y0003426250D01*
X0001519581Y0003409399D01*
X0001547448Y0003391241D01*
X0001574447Y0003371815D01*
X0001600519Y0003351163D01*
X0001625611Y0003329329D01*
X0001649667Y0003306360D01*
X0001672636Y0003282304D01*
X0001694470Y0003257212D01*
X0001715122Y0003231140D01*
X0001734548Y0003204141D01*
X0001752706Y0003176274D01*
X0001769557Y0003147598D01*
X0001785067Y0003118175D01*
X0001799201Y0003088066D01*
X0001811930Y0003057337D01*
X0001823225Y0003026053D01*
X0001833064Y0002994281D01*
X0001841425Y0002962087D01*
X0001848290Y0002929543D01*
X0001853645Y0002896716D01*
X0001857478Y0002863676D01*
X0001859781Y0002830496D01*
X0001860549Y0002797244D01*
X0001859781Y0002763992D01*
X0001857478Y0002730811D01*
X0001853645Y0002697771D01*
X0001848290Y0002664944D01*
X0001841425Y0002632400D01*
X0001833064Y0002600206D01*
X0001823225Y0002568435D01*
X0001811930Y0002537150D01*
X0001799201Y0002506421D01*
X0001785067Y0002476313D01*
X0001769557Y0002446889D01*
X0001752706Y0002418213D01*
X0001734548Y0002390346D01*
X0001715122Y0002363347D01*
X0001694470Y0002337275D01*
X0001672636Y0002312184D01*
X0001649667Y0002288128D01*
X0001625611Y0002265158D01*
X0001600519Y0002243324D01*
X0001574447Y0002222672D01*
X0001547448Y0002203246D01*
X0001519581Y0002185089D01*
X0001490905Y0002168237D01*
X0001461482Y0002152727D01*
X0001431373Y0002138593D01*
X0001400644Y0002125865D01*
X0001369360Y0002114569D01*
X0001337588Y0002104731D01*
X0001305394Y0002096369D01*
X0001272850Y0002089504D01*
X0001240024Y0002084149D01*
X0001206983Y0002080316D01*
X0001173803Y0002078013D01*
X0001140551Y0002077245D01*
X0001107299Y0002078013D01*
X0001074118Y0002080316D01*
X0001041078Y0002084149D01*
X0001008251Y0002089504D01*
X0000975707Y0002096369D01*
X0000943513Y0002104731D01*
X0000911742Y0002114569D01*
X0000880457Y0002125865D01*
X0000849728Y0002138593D01*
X0000819620Y0002152727D01*
X0000790196Y0002168237D01*
X0000761520Y0002185089D01*
X0000733653Y0002203246D01*
X0000706654Y0002222672D01*
X0000680582Y0002243324D01*
X0000655491Y0002265158D01*
X0000631435Y0002288128D01*
X0000608465Y0002312184D01*
X0000586631Y0002337275D01*
X0000565979Y0002363347D01*
X0000546553Y0002390346D01*
X0000528396Y0002418213D01*
X0000511544Y0002446889D01*
X0000496034Y0002476313D01*
X0000481900Y0002506421D01*
X0000469172Y0002537150D01*
X0000457876Y0002568435D01*
X0000448038Y0002600206D01*
X0000439676Y0002632400D01*
X0000432811Y0002664944D01*
X0000427457Y0002697771D01*
X0000423623Y0002730811D01*
X0000421320Y0002763992D01*
X0000420552Y0002797244D01*
X0000421320Y0002830496D01*
X0000423623Y0002863676D01*
X0000427457Y0002896716D01*
X0000432811Y0002929543D01*
X0000439676Y0002962087D01*
X0000448038Y0002994281D01*
X0000457876Y0003026053D01*
X0000469172Y0003057337D01*
X0000481900Y0003088066D01*
X0000496034Y0003118175D01*
X0000511544Y0003147598D01*
X0000528396Y0003176274D01*
X0000546553Y0003204141D01*
X0000565979Y0003231140D01*
X0000586631Y0003257212D01*
X0000608465Y0003282304D01*
X0000631435Y0003306360D01*
X0000655491Y0003329329D01*
X0000680582Y0003351163D01*
X0000706654Y0003371815D01*
X0000733653Y0003391241D01*
X0000761520Y0003409399D01*
X0000790196Y0003426250D01*
X0000819620Y0003441760D01*
X0000849728Y0003455894D01*
X0000880457Y0003468622D01*
X0000911742Y0003479918D01*
X0000943513Y0003489757D01*
X0000975707Y0003498118D01*
X0001008251Y0003504983D01*
X0001041078Y0003510338D01*
X0001074118Y0003514171D01*
X0001107299Y0003516474D01*
X0001140551Y0003517242D01*
X0001173803Y0003516474D01*
X0001173803Y0003516474D01*
G37*
X0001173803Y0003516474D02*
X0001206983Y0003514171D01*
X0001240024Y0003510338D01*
X0001272850Y0003504983D01*
X0001305394Y0003498118D01*
X0001337588Y0003489757D01*
X0001369360Y0003479918D01*
X0001400644Y0003468622D01*
X0001431373Y0003455894D01*
X0001461482Y0003441760D01*
X0001490905Y0003426250D01*
X0001519581Y0003409399D01*
X0001547448Y0003391241D01*
X0001574447Y0003371815D01*
X0001600519Y0003351163D01*
X0001625611Y0003329329D01*
X0001649667Y0003306360D01*
X0001672636Y0003282304D01*
X0001694470Y0003257212D01*
X0001715122Y0003231140D01*
X0001734548Y0003204141D01*
X0001752706Y0003176274D01*
X0001769557Y0003147598D01*
X0001785067Y0003118175D01*
X0001799201Y0003088066D01*
X0001811930Y0003057337D01*
X0001823225Y0003026053D01*
X0001833064Y0002994281D01*
X0001841425Y0002962087D01*
X0001848290Y0002929543D01*
X0001853645Y0002896716D01*
X0001857478Y0002863676D01*
X0001859781Y0002830496D01*
X0001860549Y0002797244D01*
X0001859781Y0002763992D01*
X0001857478Y0002730811D01*
X0001853645Y0002697771D01*
X0001848290Y0002664944D01*
X0001841425Y0002632400D01*
X0001833064Y0002600206D01*
X0001823225Y0002568435D01*
X0001811930Y0002537150D01*
X0001799201Y0002506421D01*
X0001785067Y0002476313D01*
X0001769557Y0002446889D01*
X0001752706Y0002418213D01*
X0001734548Y0002390346D01*
X0001715122Y0002363347D01*
X0001694470Y0002337275D01*
X0001672636Y0002312184D01*
X0001649667Y0002288128D01*
X0001625611Y0002265158D01*
X0001600519Y0002243324D01*
X0001574447Y0002222672D01*
X0001547448Y0002203246D01*
X0001519581Y0002185089D01*
X0001490905Y0002168237D01*
X0001461482Y0002152727D01*
X0001431373Y0002138593D01*
X0001400644Y0002125865D01*
X0001369360Y0002114569D01*
X0001337588Y0002104731D01*
X0001305394Y0002096369D01*
X0001272850Y0002089504D01*
X0001240024Y0002084149D01*
X0001206983Y0002080316D01*
X0001173803Y0002078013D01*
X0001140551Y0002077245D01*
X0001107299Y0002078013D01*
X0001074118Y0002080316D01*
X0001041078Y0002084149D01*
X0001008251Y0002089504D01*
X0000975707Y0002096369D01*
X0000943513Y0002104731D01*
X0000911742Y0002114569D01*
X0000880457Y0002125865D01*
X0000849728Y0002138593D01*
X0000819620Y0002152727D01*
X0000790196Y0002168237D01*
X0000761520Y0002185089D01*
X0000733653Y0002203246D01*
X0000706654Y0002222672D01*
X0000680582Y0002243324D01*
X0000655491Y0002265158D01*
X0000631435Y0002288128D01*
X0000608465Y0002312184D01*
X0000586631Y0002337275D01*
X0000565979Y0002363347D01*
X0000546553Y0002390346D01*
X0000528396Y0002418213D01*
X0000511544Y0002446889D01*
X0000496034Y0002476313D01*
X0000481900Y0002506421D01*
X0000469172Y0002537150D01*
X0000457876Y0002568435D01*
X0000448038Y0002600206D01*
X0000439676Y0002632400D01*
X0000432811Y0002664944D01*
X0000427457Y0002697771D01*
X0000423623Y0002730811D01*
X0000421320Y0002763992D01*
X0000420552Y0002797244D01*
X0000421320Y0002830496D01*
X0000423623Y0002863676D01*
X0000427457Y0002896716D01*
X0000432811Y0002929543D01*
X0000439676Y0002962087D01*
X0000448038Y0002994281D01*
X0000457876Y0003026053D01*
X0000469172Y0003057337D01*
X0000481900Y0003088066D01*
X0000496034Y0003118175D01*
X0000511544Y0003147598D01*
X0000528396Y0003176274D01*
X0000546553Y0003204141D01*
X0000565979Y0003231140D01*
X0000586631Y0003257212D01*
X0000608465Y0003282304D01*
X0000631435Y0003306360D01*
X0000655491Y0003329329D01*
X0000680582Y0003351163D01*
X0000706654Y0003371815D01*
X0000733653Y0003391241D01*
X0000761520Y0003409399D01*
X0000790196Y0003426250D01*
X0000819620Y0003441760D01*
X0000849728Y0003455894D01*
X0000880457Y0003468622D01*
X0000911742Y0003479918D01*
X0000943513Y0003489757D01*
X0000975707Y0003498118D01*
X0001008251Y0003504983D01*
X0001041078Y0003510338D01*
X0001074118Y0003514171D01*
X0001107299Y0003516474D01*
X0001140551Y0003517242D01*
X0001173803Y0003516474D01*
G04 next file*
G04 #@! TF.GenerationSoftware,KiCad,Pcbnew,(5.1.4)-1*
G04 #@! TF.CreationDate,2019-09-21T21:19:18-07:00*
G04 #@! TF.ProjectId,rudd_keychain_v2,72756464-5f6b-4657-9963-6861696e5f76,A*
G04 #@! TF.SameCoordinates,Original*
G04 #@! TF.FileFunction,Copper,L2,Bot*
G04 #@! TF.FilePolarity,Positive*
G04 Gerber Fmt 4.6, Leading zero omitted, Abs format (unit mm)*
G04 Created by KiCad (PCBNEW (5.1.4)-1) date 2019-09-21 21:19:18*
G04 APERTURE LIST*
G04 APERTURE END LIST*
D22*
X-0002755905Y0007047244D02*
X0002794094Y0003687244D03*
D23*
G36*
X0002827346Y0003516474D02*
G01*
X0002860527Y0003514171D01*
X0002893567Y0003510338D01*
X0002926393Y0003504983D01*
X0002958938Y0003498118D01*
X0002991132Y0003489757D01*
X0003022903Y0003479918D01*
X0003054187Y0003468622D01*
X0003084917Y0003455894D01*
X0003115025Y0003441760D01*
X0003144449Y0003426250D01*
X0003173125Y0003409399D01*
X0003200991Y0003391241D01*
X0003227990Y0003371815D01*
X0003254063Y0003351163D01*
X0003279154Y0003329329D01*
X0003303210Y0003306360D01*
X0003326179Y0003282304D01*
X0003348014Y0003257212D01*
X0003368665Y0003231140D01*
X0003388091Y0003204141D01*
X0003406249Y0003176274D01*
X0003423101Y0003147598D01*
X0003438610Y0003118175D01*
X0003452744Y0003088066D01*
X0003465473Y0003057337D01*
X0003476769Y0003026053D01*
X0003486607Y0002994281D01*
X0003494968Y0002962087D01*
X0003501833Y0002929543D01*
X0003507188Y0002896716D01*
X0003511021Y0002863676D01*
X0003513324Y0002830496D01*
X0003514093Y0002797244D01*
X0003513324Y0002763992D01*
X0003511021Y0002730811D01*
X0003507188Y0002697771D01*
X0003501833Y0002664944D01*
X0003494968Y0002632400D01*
X0003486607Y0002600206D01*
X0003476769Y0002568435D01*
X0003465473Y0002537150D01*
X0003452744Y0002506421D01*
X0003438610Y0002476313D01*
X0003423101Y0002446889D01*
X0003406249Y0002418213D01*
X0003388091Y0002390346D01*
X0003368665Y0002363347D01*
X0003348014Y0002337275D01*
X0003326179Y0002312184D01*
X0003303210Y0002288128D01*
X0003279154Y0002265158D01*
X0003254063Y0002243324D01*
X0003227990Y0002222672D01*
X0003200991Y0002203246D01*
X0003173125Y0002185089D01*
X0003144449Y0002168237D01*
X0003115025Y0002152727D01*
X0003084917Y0002138593D01*
X0003054187Y0002125865D01*
X0003022903Y0002114569D01*
X0002991132Y0002104731D01*
X0002958938Y0002096369D01*
X0002926393Y0002089504D01*
X0002893567Y0002084149D01*
X0002860527Y0002080316D01*
X0002827346Y0002078013D01*
X0002794094Y0002077245D01*
X0002760842Y0002078013D01*
X0002727661Y0002080316D01*
X0002694621Y0002084149D01*
X0002661795Y0002089504D01*
X0002629250Y0002096369D01*
X0002597056Y0002104731D01*
X0002565285Y0002114569D01*
X0002534001Y0002125865D01*
X0002503271Y0002138593D01*
X0002473163Y0002152727D01*
X0002443739Y0002168237D01*
X0002415063Y0002185089D01*
X0002387197Y0002203246D01*
X0002360198Y0002222672D01*
X0002334125Y0002243324D01*
X0002309034Y0002265158D01*
X0002284978Y0002288128D01*
X0002262009Y0002312184D01*
X0002240174Y0002337275D01*
X0002219523Y0002363347D01*
X0002200097Y0002390346D01*
X0002181939Y0002418213D01*
X0002165087Y0002446889D01*
X0002149578Y0002476313D01*
X0002135444Y0002506421D01*
X0002122715Y0002537150D01*
X0002111419Y0002568435D01*
X0002101581Y0002600206D01*
X0002093220Y0002632400D01*
X0002086355Y0002664944D01*
X0002081000Y0002697771D01*
X0002077167Y0002730811D01*
X0002074864Y0002763992D01*
X0002074095Y0002797244D01*
X0002074864Y0002830496D01*
X0002077167Y0002863676D01*
X0002081000Y0002896716D01*
X0002086355Y0002929543D01*
X0002093220Y0002962087D01*
X0002101581Y0002994281D01*
X0002111419Y0003026053D01*
X0002122715Y0003057337D01*
X0002135444Y0003088066D01*
X0002149578Y0003118175D01*
X0002165087Y0003147598D01*
X0002181939Y0003176274D01*
X0002200097Y0003204141D01*
X0002219523Y0003231140D01*
X0002240174Y0003257212D01*
X0002262009Y0003282304D01*
X0002284978Y0003306360D01*
X0002309034Y0003329329D01*
X0002334125Y0003351163D01*
X0002360198Y0003371815D01*
X0002387197Y0003391241D01*
X0002415063Y0003409399D01*
X0002443739Y0003426250D01*
X0002473163Y0003441760D01*
X0002503271Y0003455894D01*
X0002534001Y0003468622D01*
X0002565285Y0003479918D01*
X0002597056Y0003489757D01*
X0002629250Y0003498118D01*
X0002661795Y0003504983D01*
X0002694621Y0003510338D01*
X0002727661Y0003514171D01*
X0002760842Y0003516474D01*
X0002794094Y0003517242D01*
X0002827346Y0003516474D01*
X0002827346Y0003516474D01*
G37*
X0002827346Y0003516474D02*
X0002860527Y0003514171D01*
X0002893567Y0003510338D01*
X0002926393Y0003504983D01*
X0002958938Y0003498118D01*
X0002991132Y0003489757D01*
X0003022903Y0003479918D01*
X0003054187Y0003468622D01*
X0003084917Y0003455894D01*
X0003115025Y0003441760D01*
X0003144449Y0003426250D01*
X0003173125Y0003409399D01*
X0003200991Y0003391241D01*
X0003227990Y0003371815D01*
X0003254063Y0003351163D01*
X0003279154Y0003329329D01*
X0003303210Y0003306360D01*
X0003326179Y0003282304D01*
X0003348014Y0003257212D01*
X0003368665Y0003231140D01*
X0003388091Y0003204141D01*
X0003406249Y0003176274D01*
X0003423101Y0003147598D01*
X0003438610Y0003118175D01*
X0003452744Y0003088066D01*
X0003465473Y0003057337D01*
X0003476769Y0003026053D01*
X0003486607Y0002994281D01*
X0003494968Y0002962087D01*
X0003501833Y0002929543D01*
X0003507188Y0002896716D01*
X0003511021Y0002863676D01*
X0003513324Y0002830496D01*
X0003514093Y0002797244D01*
X0003513324Y0002763992D01*
X0003511021Y0002730811D01*
X0003507188Y0002697771D01*
X0003501833Y0002664944D01*
X0003494968Y0002632400D01*
X0003486607Y0002600206D01*
X0003476769Y0002568435D01*
X0003465473Y0002537150D01*
X0003452744Y0002506421D01*
X0003438610Y0002476313D01*
X0003423101Y0002446889D01*
X0003406249Y0002418213D01*
X0003388091Y0002390346D01*
X0003368665Y0002363347D01*
X0003348014Y0002337275D01*
X0003326179Y0002312184D01*
X0003303210Y0002288128D01*
X0003279154Y0002265158D01*
X0003254063Y0002243324D01*
X0003227990Y0002222672D01*
X0003200991Y0002203246D01*
X0003173125Y0002185089D01*
X0003144449Y0002168237D01*
X0003115025Y0002152727D01*
X0003084917Y0002138593D01*
X0003054187Y0002125865D01*
X0003022903Y0002114569D01*
X0002991132Y0002104731D01*
X0002958938Y0002096369D01*
X0002926393Y0002089504D01*
X0002893567Y0002084149D01*
X0002860527Y0002080316D01*
X0002827346Y0002078013D01*
X0002794094Y0002077245D01*
X0002760842Y0002078013D01*
X0002727661Y0002080316D01*
X0002694621Y0002084149D01*
X0002661795Y0002089504D01*
X0002629250Y0002096369D01*
X0002597056Y0002104731D01*
X0002565285Y0002114569D01*
X0002534001Y0002125865D01*
X0002503271Y0002138593D01*
X0002473163Y0002152727D01*
X0002443739Y0002168237D01*
X0002415063Y0002185089D01*
X0002387197Y0002203246D01*
X0002360198Y0002222672D01*
X0002334125Y0002243324D01*
X0002309034Y0002265158D01*
X0002284978Y0002288128D01*
X0002262009Y0002312184D01*
X0002240174Y0002337275D01*
X0002219523Y0002363347D01*
X0002200097Y0002390346D01*
X0002181939Y0002418213D01*
X0002165087Y0002446889D01*
X0002149578Y0002476313D01*
X0002135444Y0002506421D01*
X0002122715Y0002537150D01*
X0002111419Y0002568435D01*
X0002101581Y0002600206D01*
X0002093220Y0002632400D01*
X0002086355Y0002664944D01*
X0002081000Y0002697771D01*
X0002077167Y0002730811D01*
X0002074864Y0002763992D01*
X0002074095Y0002797244D01*
X0002074864Y0002830496D01*
X0002077167Y0002863676D01*
X0002081000Y0002896716D01*
X0002086355Y0002929543D01*
X0002093220Y0002962087D01*
X0002101581Y0002994281D01*
X0002111419Y0003026053D01*
X0002122715Y0003057337D01*
X0002135444Y0003088066D01*
X0002149578Y0003118175D01*
X0002165087Y0003147598D01*
X0002181939Y0003176274D01*
X0002200097Y0003204141D01*
X0002219523Y0003231140D01*
X0002240174Y0003257212D01*
X0002262009Y0003282304D01*
X0002284978Y0003306360D01*
X0002309034Y0003329329D01*
X0002334125Y0003351163D01*
X0002360198Y0003371815D01*
X0002387197Y0003391241D01*
X0002415063Y0003409399D01*
X0002443739Y0003426250D01*
X0002473163Y0003441760D01*
X0002503271Y0003455894D01*
X0002534001Y0003468622D01*
X0002565285Y0003479918D01*
X0002597056Y0003489757D01*
X0002629250Y0003498118D01*
X0002661795Y0003504983D01*
X0002694621Y0003510338D01*
X0002727661Y0003514171D01*
X0002760842Y0003516474D01*
X0002794094Y0003517242D01*
X0002827346Y0003516474D01*
G04 next file*
G04 #@! TF.GenerationSoftware,KiCad,Pcbnew,(5.1.4)-1*
G04 #@! TF.CreationDate,2019-09-21T21:19:18-07:00*
G04 #@! TF.ProjectId,rudd_keychain_v2,72756464-5f6b-4657-9963-6861696e5f76,A*
G04 #@! TF.SameCoordinates,Original*
G04 #@! TF.FileFunction,Copper,L2,Bot*
G04 #@! TF.FilePolarity,Positive*
G04 Gerber Fmt 4.6, Leading zero omitted, Abs format (unit mm)*
G04 Created by KiCad (PCBNEW (5.1.4)-1) date 2019-09-21 21:19:18*
G04 APERTURE LIST*
G04 APERTURE END LIST*
D24*
X-0004409448Y0005078740D02*
X0001140551Y0001718740D03*
D25*
G36*
X0001173803Y0001547970D02*
G01*
X0001206983Y0001545667D01*
X0001240024Y0001541834D01*
X0001272850Y0001536479D01*
X0001305394Y0001529614D01*
X0001337588Y0001521253D01*
X0001369360Y0001511414D01*
X0001400644Y0001500119D01*
X0001431373Y0001487390D01*
X0001461482Y0001473256D01*
X0001490905Y0001457746D01*
X0001519581Y0001440895D01*
X0001547448Y0001422737D01*
X0001574447Y0001403311D01*
X0001600519Y0001382659D01*
X0001625611Y0001360825D01*
X0001649667Y0001337856D01*
X0001672636Y0001313800D01*
X0001694470Y0001288708D01*
X0001715122Y0001262636D01*
X0001734548Y0001235637D01*
X0001752706Y0001207770D01*
X0001769557Y0001179094D01*
X0001785067Y0001149671D01*
X0001799201Y0001119562D01*
X0001811930Y0001088833D01*
X0001823225Y0001057549D01*
X0001833064Y0001025777D01*
X0001841425Y0000993583D01*
X0001848290Y0000961039D01*
X0001853645Y0000928212D01*
X0001857478Y0000895172D01*
X0001859781Y0000861992D01*
X0001860549Y0000828740D01*
X0001859781Y0000795488D01*
X0001857478Y0000762307D01*
X0001853645Y0000729267D01*
X0001848290Y0000696440D01*
X0001841425Y0000663896D01*
X0001833064Y0000631702D01*
X0001823225Y0000599931D01*
X0001811930Y0000568647D01*
X0001799201Y0000537917D01*
X0001785067Y0000507809D01*
X0001769557Y0000478385D01*
X0001752706Y0000449709D01*
X0001734548Y0000421842D01*
X0001715122Y0000394843D01*
X0001694470Y0000368771D01*
X0001672636Y0000343680D01*
X0001649667Y0000319624D01*
X0001625611Y0000296654D01*
X0001600519Y0000274820D01*
X0001574447Y0000254168D01*
X0001547448Y0000234742D01*
X0001519581Y0000216585D01*
X0001490905Y0000199733D01*
X0001461482Y0000184223D01*
X0001431373Y0000170089D01*
X0001400644Y0000157361D01*
X0001369360Y0000146065D01*
X0001337588Y0000136227D01*
X0001305394Y0000127865D01*
X0001272850Y0000121000D01*
X0001240024Y0000115646D01*
X0001206983Y0000111812D01*
X0001173803Y0000109509D01*
X0001140551Y0000108741D01*
X0001107299Y0000109509D01*
X0001074118Y0000111812D01*
X0001041078Y0000115646D01*
X0001008251Y0000121000D01*
X0000975707Y0000127865D01*
X0000943513Y0000136227D01*
X0000911742Y0000146065D01*
X0000880457Y0000157361D01*
X0000849728Y0000170089D01*
X0000819620Y0000184223D01*
X0000790196Y0000199733D01*
X0000761520Y0000216585D01*
X0000733653Y0000234742D01*
X0000706654Y0000254168D01*
X0000680582Y0000274820D01*
X0000655491Y0000296654D01*
X0000631435Y0000319624D01*
X0000608465Y0000343680D01*
X0000586631Y0000368771D01*
X0000565979Y0000394843D01*
X0000546553Y0000421842D01*
X0000528396Y0000449709D01*
X0000511544Y0000478385D01*
X0000496034Y0000507809D01*
X0000481900Y0000537917D01*
X0000469172Y0000568647D01*
X0000457876Y0000599931D01*
X0000448038Y0000631702D01*
X0000439676Y0000663896D01*
X0000432811Y0000696440D01*
X0000427457Y0000729267D01*
X0000423623Y0000762307D01*
X0000421320Y0000795488D01*
X0000420552Y0000828740D01*
X0000421320Y0000861992D01*
X0000423623Y0000895172D01*
X0000427457Y0000928212D01*
X0000432811Y0000961039D01*
X0000439676Y0000993583D01*
X0000448038Y0001025777D01*
X0000457876Y0001057549D01*
X0000469172Y0001088833D01*
X0000481900Y0001119562D01*
X0000496034Y0001149671D01*
X0000511544Y0001179094D01*
X0000528396Y0001207770D01*
X0000546553Y0001235637D01*
X0000565979Y0001262636D01*
X0000586631Y0001288708D01*
X0000608465Y0001313800D01*
X0000631435Y0001337856D01*
X0000655491Y0001360825D01*
X0000680582Y0001382659D01*
X0000706654Y0001403311D01*
X0000733653Y0001422737D01*
X0000761520Y0001440895D01*
X0000790196Y0001457746D01*
X0000819620Y0001473256D01*
X0000849728Y0001487390D01*
X0000880457Y0001500119D01*
X0000911742Y0001511414D01*
X0000943513Y0001521253D01*
X0000975707Y0001529614D01*
X0001008251Y0001536479D01*
X0001041078Y0001541834D01*
X0001074118Y0001545667D01*
X0001107299Y0001547970D01*
X0001140551Y0001548738D01*
X0001173803Y0001547970D01*
X0001173803Y0001547970D01*
G37*
X0001173803Y0001547970D02*
X0001206983Y0001545667D01*
X0001240024Y0001541834D01*
X0001272850Y0001536479D01*
X0001305394Y0001529614D01*
X0001337588Y0001521253D01*
X0001369360Y0001511414D01*
X0001400644Y0001500119D01*
X0001431373Y0001487390D01*
X0001461482Y0001473256D01*
X0001490905Y0001457746D01*
X0001519581Y0001440895D01*
X0001547448Y0001422737D01*
X0001574447Y0001403311D01*
X0001600519Y0001382659D01*
X0001625611Y0001360825D01*
X0001649667Y0001337856D01*
X0001672636Y0001313800D01*
X0001694470Y0001288708D01*
X0001715122Y0001262636D01*
X0001734548Y0001235637D01*
X0001752706Y0001207770D01*
X0001769557Y0001179094D01*
X0001785067Y0001149671D01*
X0001799201Y0001119562D01*
X0001811930Y0001088833D01*
X0001823225Y0001057549D01*
X0001833064Y0001025777D01*
X0001841425Y0000993583D01*
X0001848290Y0000961039D01*
X0001853645Y0000928212D01*
X0001857478Y0000895172D01*
X0001859781Y0000861992D01*
X0001860549Y0000828740D01*
X0001859781Y0000795488D01*
X0001857478Y0000762307D01*
X0001853645Y0000729267D01*
X0001848290Y0000696440D01*
X0001841425Y0000663896D01*
X0001833064Y0000631702D01*
X0001823225Y0000599931D01*
X0001811930Y0000568647D01*
X0001799201Y0000537917D01*
X0001785067Y0000507809D01*
X0001769557Y0000478385D01*
X0001752706Y0000449709D01*
X0001734548Y0000421842D01*
X0001715122Y0000394843D01*
X0001694470Y0000368771D01*
X0001672636Y0000343680D01*
X0001649667Y0000319624D01*
X0001625611Y0000296654D01*
X0001600519Y0000274820D01*
X0001574447Y0000254168D01*
X0001547448Y0000234742D01*
X0001519581Y0000216585D01*
X0001490905Y0000199733D01*
X0001461482Y0000184223D01*
X0001431373Y0000170089D01*
X0001400644Y0000157361D01*
X0001369360Y0000146065D01*
X0001337588Y0000136227D01*
X0001305394Y0000127865D01*
X0001272850Y0000121000D01*
X0001240024Y0000115646D01*
X0001206983Y0000111812D01*
X0001173803Y0000109509D01*
X0001140551Y0000108741D01*
X0001107299Y0000109509D01*
X0001074118Y0000111812D01*
X0001041078Y0000115646D01*
X0001008251Y0000121000D01*
X0000975707Y0000127865D01*
X0000943513Y0000136227D01*
X0000911742Y0000146065D01*
X0000880457Y0000157361D01*
X0000849728Y0000170089D01*
X0000819620Y0000184223D01*
X0000790196Y0000199733D01*
X0000761520Y0000216585D01*
X0000733653Y0000234742D01*
X0000706654Y0000254168D01*
X0000680582Y0000274820D01*
X0000655491Y0000296654D01*
X0000631435Y0000319624D01*
X0000608465Y0000343680D01*
X0000586631Y0000368771D01*
X0000565979Y0000394843D01*
X0000546553Y0000421842D01*
X0000528396Y0000449709D01*
X0000511544Y0000478385D01*
X0000496034Y0000507809D01*
X0000481900Y0000537917D01*
X0000469172Y0000568647D01*
X0000457876Y0000599931D01*
X0000448038Y0000631702D01*
X0000439676Y0000663896D01*
X0000432811Y0000696440D01*
X0000427457Y0000729267D01*
X0000423623Y0000762307D01*
X0000421320Y0000795488D01*
X0000420552Y0000828740D01*
X0000421320Y0000861992D01*
X0000423623Y0000895172D01*
X0000427457Y0000928212D01*
X0000432811Y0000961039D01*
X0000439676Y0000993583D01*
X0000448038Y0001025777D01*
X0000457876Y0001057549D01*
X0000469172Y0001088833D01*
X0000481900Y0001119562D01*
X0000496034Y0001149671D01*
X0000511544Y0001179094D01*
X0000528396Y0001207770D01*
X0000546553Y0001235637D01*
X0000565979Y0001262636D01*
X0000586631Y0001288708D01*
X0000608465Y0001313800D01*
X0000631435Y0001337856D01*
X0000655491Y0001360825D01*
X0000680582Y0001382659D01*
X0000706654Y0001403311D01*
X0000733653Y0001422737D01*
X0000761520Y0001440895D01*
X0000790196Y0001457746D01*
X0000819620Y0001473256D01*
X0000849728Y0001487390D01*
X0000880457Y0001500119D01*
X0000911742Y0001511414D01*
X0000943513Y0001521253D01*
X0000975707Y0001529614D01*
X0001008251Y0001536479D01*
X0001041078Y0001541834D01*
X0001074118Y0001545667D01*
X0001107299Y0001547970D01*
X0001140551Y0001548738D01*
X0001173803Y0001547970D01*
G04 next file*
G04 #@! TF.GenerationSoftware,KiCad,Pcbnew,(5.1.4)-1*
G04 #@! TF.CreationDate,2019-09-21T21:19:18-07:00*
G04 #@! TF.ProjectId,rudd_keychain_v2,72756464-5f6b-4657-9963-6861696e5f76,A*
G04 #@! TF.SameCoordinates,Original*
G04 #@! TF.FileFunction,Copper,L2,Bot*
G04 #@! TF.FilePolarity,Positive*
G04 Gerber Fmt 4.6, Leading zero omitted, Abs format (unit mm)*
G04 Created by KiCad (PCBNEW (5.1.4)-1) date 2019-09-21 21:19:18*
G04 APERTURE LIST*
G04 APERTURE END LIST*
D26*
X-0002755905Y0005078740D02*
X0002794094Y0001718740D03*
D27*
G36*
X0002827346Y0001547970D02*
G01*
X0002860527Y0001545667D01*
X0002893567Y0001541834D01*
X0002926393Y0001536479D01*
X0002958938Y0001529614D01*
X0002991132Y0001521253D01*
X0003022903Y0001511414D01*
X0003054187Y0001500119D01*
X0003084917Y0001487390D01*
X0003115025Y0001473256D01*
X0003144449Y0001457746D01*
X0003173125Y0001440895D01*
X0003200991Y0001422737D01*
X0003227990Y0001403311D01*
X0003254063Y0001382659D01*
X0003279154Y0001360825D01*
X0003303210Y0001337856D01*
X0003326179Y0001313800D01*
X0003348014Y0001288708D01*
X0003368665Y0001262636D01*
X0003388091Y0001235637D01*
X0003406249Y0001207770D01*
X0003423101Y0001179094D01*
X0003438610Y0001149671D01*
X0003452744Y0001119562D01*
X0003465473Y0001088833D01*
X0003476769Y0001057549D01*
X0003486607Y0001025777D01*
X0003494968Y0000993583D01*
X0003501833Y0000961039D01*
X0003507188Y0000928212D01*
X0003511021Y0000895172D01*
X0003513324Y0000861992D01*
X0003514093Y0000828740D01*
X0003513324Y0000795488D01*
X0003511021Y0000762307D01*
X0003507188Y0000729267D01*
X0003501833Y0000696440D01*
X0003494968Y0000663896D01*
X0003486607Y0000631702D01*
X0003476769Y0000599931D01*
X0003465473Y0000568647D01*
X0003452744Y0000537917D01*
X0003438610Y0000507809D01*
X0003423101Y0000478385D01*
X0003406249Y0000449709D01*
X0003388091Y0000421842D01*
X0003368665Y0000394843D01*
X0003348014Y0000368771D01*
X0003326179Y0000343680D01*
X0003303210Y0000319624D01*
X0003279154Y0000296654D01*
X0003254063Y0000274820D01*
X0003227990Y0000254168D01*
X0003200991Y0000234742D01*
X0003173125Y0000216585D01*
X0003144449Y0000199733D01*
X0003115025Y0000184223D01*
X0003084917Y0000170089D01*
X0003054187Y0000157361D01*
X0003022903Y0000146065D01*
X0002991132Y0000136227D01*
X0002958938Y0000127865D01*
X0002926393Y0000121000D01*
X0002893567Y0000115646D01*
X0002860527Y0000111812D01*
X0002827346Y0000109509D01*
X0002794094Y0000108741D01*
X0002760842Y0000109509D01*
X0002727661Y0000111812D01*
X0002694621Y0000115646D01*
X0002661795Y0000121000D01*
X0002629250Y0000127865D01*
X0002597056Y0000136227D01*
X0002565285Y0000146065D01*
X0002534001Y0000157361D01*
X0002503271Y0000170089D01*
X0002473163Y0000184223D01*
X0002443739Y0000199733D01*
X0002415063Y0000216585D01*
X0002387197Y0000234742D01*
X0002360198Y0000254168D01*
X0002334125Y0000274820D01*
X0002309034Y0000296654D01*
X0002284978Y0000319624D01*
X0002262009Y0000343680D01*
X0002240174Y0000368771D01*
X0002219523Y0000394843D01*
X0002200097Y0000421842D01*
X0002181939Y0000449709D01*
X0002165087Y0000478385D01*
X0002149578Y0000507809D01*
X0002135444Y0000537917D01*
X0002122715Y0000568647D01*
X0002111419Y0000599931D01*
X0002101581Y0000631702D01*
X0002093220Y0000663896D01*
X0002086355Y0000696440D01*
X0002081000Y0000729267D01*
X0002077167Y0000762307D01*
X0002074864Y0000795488D01*
X0002074095Y0000828740D01*
X0002074864Y0000861992D01*
X0002077167Y0000895172D01*
X0002081000Y0000928212D01*
X0002086355Y0000961039D01*
X0002093220Y0000993583D01*
X0002101581Y0001025777D01*
X0002111419Y0001057549D01*
X0002122715Y0001088833D01*
X0002135444Y0001119562D01*
X0002149578Y0001149671D01*
X0002165087Y0001179094D01*
X0002181939Y0001207770D01*
X0002200097Y0001235637D01*
X0002219523Y0001262636D01*
X0002240174Y0001288708D01*
X0002262009Y0001313800D01*
X0002284978Y0001337856D01*
X0002309034Y0001360825D01*
X0002334125Y0001382659D01*
X0002360198Y0001403311D01*
X0002387197Y0001422737D01*
X0002415063Y0001440895D01*
X0002443739Y0001457746D01*
X0002473163Y0001473256D01*
X0002503271Y0001487390D01*
X0002534001Y0001500119D01*
X0002565285Y0001511414D01*
X0002597056Y0001521253D01*
X0002629250Y0001529614D01*
X0002661795Y0001536479D01*
X0002694621Y0001541834D01*
X0002727661Y0001545667D01*
X0002760842Y0001547970D01*
X0002794094Y0001548738D01*
X0002827346Y0001547970D01*
X0002827346Y0001547970D01*
G37*
X0002827346Y0001547970D02*
X0002860527Y0001545667D01*
X0002893567Y0001541834D01*
X0002926393Y0001536479D01*
X0002958938Y0001529614D01*
X0002991132Y0001521253D01*
X0003022903Y0001511414D01*
X0003054187Y0001500119D01*
X0003084917Y0001487390D01*
X0003115025Y0001473256D01*
X0003144449Y0001457746D01*
X0003173125Y0001440895D01*
X0003200991Y0001422737D01*
X0003227990Y0001403311D01*
X0003254063Y0001382659D01*
X0003279154Y0001360825D01*
X0003303210Y0001337856D01*
X0003326179Y0001313800D01*
X0003348014Y0001288708D01*
X0003368665Y0001262636D01*
X0003388091Y0001235637D01*
X0003406249Y0001207770D01*
X0003423101Y0001179094D01*
X0003438610Y0001149671D01*
X0003452744Y0001119562D01*
X0003465473Y0001088833D01*
X0003476769Y0001057549D01*
X0003486607Y0001025777D01*
X0003494968Y0000993583D01*
X0003501833Y0000961039D01*
X0003507188Y0000928212D01*
X0003511021Y0000895172D01*
X0003513324Y0000861992D01*
X0003514093Y0000828740D01*
X0003513324Y0000795488D01*
X0003511021Y0000762307D01*
X0003507188Y0000729267D01*
X0003501833Y0000696440D01*
X0003494968Y0000663896D01*
X0003486607Y0000631702D01*
X0003476769Y0000599931D01*
X0003465473Y0000568647D01*
X0003452744Y0000537917D01*
X0003438610Y0000507809D01*
X0003423101Y0000478385D01*
X0003406249Y0000449709D01*
X0003388091Y0000421842D01*
X0003368665Y0000394843D01*
X0003348014Y0000368771D01*
X0003326179Y0000343680D01*
X0003303210Y0000319624D01*
X0003279154Y0000296654D01*
X0003254063Y0000274820D01*
X0003227990Y0000254168D01*
X0003200991Y0000234742D01*
X0003173125Y0000216585D01*
X0003144449Y0000199733D01*
X0003115025Y0000184223D01*
X0003084917Y0000170089D01*
X0003054187Y0000157361D01*
X0003022903Y0000146065D01*
X0002991132Y0000136227D01*
X0002958938Y0000127865D01*
X0002926393Y0000121000D01*
X0002893567Y0000115646D01*
X0002860527Y0000111812D01*
X0002827346Y0000109509D01*
X0002794094Y0000108741D01*
X0002760842Y0000109509D01*
X0002727661Y0000111812D01*
X0002694621Y0000115646D01*
X0002661795Y0000121000D01*
X0002629250Y0000127865D01*
X0002597056Y0000136227D01*
X0002565285Y0000146065D01*
X0002534001Y0000157361D01*
X0002503271Y0000170089D01*
X0002473163Y0000184223D01*
X0002443739Y0000199733D01*
X0002415063Y0000216585D01*
X0002387197Y0000234742D01*
X0002360198Y0000254168D01*
X0002334125Y0000274820D01*
X0002309034Y0000296654D01*
X0002284978Y0000319624D01*
X0002262009Y0000343680D01*
X0002240174Y0000368771D01*
X0002219523Y0000394843D01*
X0002200097Y0000421842D01*
X0002181939Y0000449709D01*
X0002165087Y0000478385D01*
X0002149578Y0000507809D01*
X0002135444Y0000537917D01*
X0002122715Y0000568647D01*
X0002111419Y0000599931D01*
X0002101581Y0000631702D01*
X0002093220Y0000663896D01*
X0002086355Y0000696440D01*
X0002081000Y0000729267D01*
X0002077167Y0000762307D01*
X0002074864Y0000795488D01*
X0002074095Y0000828740D01*
X0002074864Y0000861992D01*
X0002077167Y0000895172D01*
X0002081000Y0000928212D01*
X0002086355Y0000961039D01*
X0002093220Y0000993583D01*
X0002101581Y0001025777D01*
X0002111419Y0001057549D01*
X0002122715Y0001088833D01*
X0002135444Y0001119562D01*
X0002149578Y0001149671D01*
X0002165087Y0001179094D01*
X0002181939Y0001207770D01*
X0002200097Y0001235637D01*
X0002219523Y0001262636D01*
X0002240174Y0001288708D01*
X0002262009Y0001313800D01*
X0002284978Y0001337856D01*
X0002309034Y0001360825D01*
X0002334125Y0001382659D01*
X0002360198Y0001403311D01*
X0002387197Y0001422737D01*
X0002415063Y0001440895D01*
X0002443739Y0001457746D01*
X0002473163Y0001473256D01*
X0002503271Y0001487390D01*
X0002534001Y0001500119D01*
X0002565285Y0001511414D01*
X0002597056Y0001521253D01*
X0002629250Y0001529614D01*
X0002661795Y0001536479D01*
X0002694621Y0001541834D01*
X0002727661Y0001545667D01*
X0002760842Y0001547970D01*
X0002794094Y0001548738D01*
X0002827346Y0001547970D01*
G04 next file*
G04 #@! TF.GenerationSoftware,KiCad,Pcbnew,(5.1.4)-1*
G04 #@! TF.CreationDate,2019-09-21T21:17:57-07:00*
G04 #@! TF.ProjectId,rudd-small-frame-A,72756464-2d73-46d6-916c-6c2d6672616d,rev?*
G04 #@! TF.SameCoordinates,Original*
G04 #@! TF.FileFunction,Copper,L2,Bot*
G04 #@! TF.FilePolarity,Positive*
G04 Gerber Fmt 4.6, Leading zero omitted, Abs format (unit mm)*
G04 Created by KiCad (PCBNEW (5.1.4)-1) date 2019-09-21 21:17:57*
G04 APERTURE LIST*
G04 APERTURE END LIST*
D28*
X-0002007874Y0005866141D02*
X0003799212Y0000137795D03*
X0003799212Y0003799212D03*
D29*
G36*
X0003733922Y0000084213D02*
G01*
X0003745630Y0000072505D01*
X0003756332Y0000065354D01*
X0003726771Y0000065354D01*
X0003726771Y0000094915D01*
X0003733922Y0000084213D01*
X0003733922Y0000084213D01*
G37*
X0003733922Y0000084213D02*
X0003745630Y0000072505D01*
X0003756332Y0000065354D01*
X0003726771Y0000065354D01*
X0003726771Y0000094915D01*
X0003733922Y0000084213D01*
G36*
X0003871653Y0000065354D02*
G01*
X0003842092Y0000065354D01*
X0003852794Y0000072505D01*
X0003864502Y0000084213D01*
X0003871653Y0000094915D01*
X0003871653Y0000065354D01*
X0003871653Y0000065354D01*
G37*
X0003871653Y0000065354D02*
X0003842092Y0000065354D01*
X0003852794Y0000072505D01*
X0003864502Y0000084213D01*
X0003871653Y0000094915D01*
X0003871653Y0000065354D01*
G36*
X0003871653Y0000180674D02*
G01*
X0003864502Y0000191377D01*
X0003852794Y0000203085D01*
X0003839027Y0000212283D01*
X0003823730Y0000218620D01*
X0003807491Y0000221850D01*
X0003790933Y0000221850D01*
X0003774694Y0000218620D01*
X0003759397Y0000212283D01*
X0003745630Y0000203085D01*
X0003733922Y0000191377D01*
X0003726771Y0000180674D01*
X0003726771Y0003756332D01*
X0003733922Y0003745630D01*
X0003745630Y0003733922D01*
X0003759397Y0003724723D01*
X0003774694Y0003718387D01*
X0003790933Y0003715157D01*
X0003807491Y0003715157D01*
X0003823730Y0003718387D01*
X0003839027Y0003724723D01*
X0003852794Y0003733922D01*
X0003864502Y0003745630D01*
X0003871653Y0003756332D01*
X0003871653Y0000180674D01*
X0003871653Y0000180674D01*
G37*
X0003871653Y0000180674D02*
X0003864502Y0000191377D01*
X0003852794Y0000203085D01*
X0003839027Y0000212283D01*
X0003823730Y0000218620D01*
X0003807491Y0000221850D01*
X0003790933Y0000221850D01*
X0003774694Y0000218620D01*
X0003759397Y0000212283D01*
X0003745630Y0000203085D01*
X0003733922Y0000191377D01*
X0003726771Y0000180674D01*
X0003726771Y0003756332D01*
X0003733922Y0003745630D01*
X0003745630Y0003733922D01*
X0003759397Y0003724723D01*
X0003774694Y0003718387D01*
X0003790933Y0003715157D01*
X0003807491Y0003715157D01*
X0003823730Y0003718387D01*
X0003839027Y0003724723D01*
X0003852794Y0003733922D01*
X0003864502Y0003745630D01*
X0003871653Y0003756332D01*
X0003871653Y0000180674D01*
G36*
X0003745630Y0003864502D02*
G01*
X0003733922Y0003852794D01*
X0003726771Y0003842092D01*
X0003726771Y0003871653D01*
X0003756332Y0003871653D01*
X0003745630Y0003864502D01*
X0003745630Y0003864502D01*
G37*
X0003745630Y0003864502D02*
X0003733922Y0003852794D01*
X0003726771Y0003842092D01*
X0003726771Y0003871653D01*
X0003756332Y0003871653D01*
X0003745630Y0003864502D01*
G36*
X0003871653Y0003842092D02*
G01*
X0003864502Y0003852794D01*
X0003852794Y0003864502D01*
X0003842092Y0003871653D01*
X0003871653Y0003871653D01*
X0003871653Y0003842092D01*
X0003871653Y0003842092D01*
G37*
X0003871653Y0003842092D02*
X0003864502Y0003852794D01*
X0003852794Y0003864502D01*
X0003842092Y0003871653D01*
X0003871653Y0003871653D01*
X0003871653Y0003842092D01*
G04 next file*
G04 #@! TF.GenerationSoftware,KiCad,Pcbnew,(5.1.4)-1*
G04 #@! TF.CreationDate,2019-09-21T21:16:59-07:00*
G04 #@! TF.ProjectId,rudd-small-frame-B,72756464-2d73-46d6-916c-6c2d6672616d,rev?*
G04 #@! TF.SameCoordinates,Original*
G04 #@! TF.FileFunction,Copper,L2,Bot*
G04 #@! TF.FilePolarity,Positive*
G04 Gerber Fmt 4.6, Leading zero omitted, Abs format (unit mm)*
G04 Created by KiCad (PCBNEW (5.1.4)-1) date 2019-09-21 21:16:59*
G04 APERTURE LIST*
G04 APERTURE END LIST*
D30*
X-0005669291Y0005669291D02*
X0000137795Y0000137795D03*
X0000137795Y0003799212D03*
D31*
G36*
X0000072505Y0000084213D02*
G01*
X0000084213Y0000072505D01*
X0000094915Y0000065354D01*
X0000065354Y0000065354D01*
X0000065354Y0000094915D01*
X0000072505Y0000084213D01*
X0000072505Y0000084213D01*
G37*
X0000072505Y0000084213D02*
X0000084213Y0000072505D01*
X0000094915Y0000065354D01*
X0000065354Y0000065354D01*
X0000065354Y0000094915D01*
X0000072505Y0000084213D01*
G36*
X0000210236Y0000065354D02*
G01*
X0000180674Y0000065354D01*
X0000191377Y0000072505D01*
X0000203085Y0000084213D01*
X0000210236Y0000094915D01*
X0000210236Y0000065354D01*
X0000210236Y0000065354D01*
G37*
X0000210236Y0000065354D02*
X0000180674Y0000065354D01*
X0000191377Y0000072505D01*
X0000203085Y0000084213D01*
X0000210236Y0000094915D01*
X0000210236Y0000065354D01*
G36*
X0000210236Y0000180674D02*
G01*
X0000203085Y0000191377D01*
X0000191377Y0000203085D01*
X0000177610Y0000212283D01*
X0000162313Y0000218620D01*
X0000146073Y0000221850D01*
X0000129516Y0000221850D01*
X0000113277Y0000218620D01*
X0000097980Y0000212283D01*
X0000084213Y0000203085D01*
X0000072505Y0000191377D01*
X0000065354Y0000180674D01*
X0000065354Y0003756332D01*
X0000072505Y0003745630D01*
X0000084213Y0003733922D01*
X0000097980Y0003724723D01*
X0000113277Y0003718387D01*
X0000129516Y0003715157D01*
X0000146073Y0003715157D01*
X0000162313Y0003718387D01*
X0000177610Y0003724723D01*
X0000191377Y0003733922D01*
X0000203085Y0003745630D01*
X0000210236Y0003756332D01*
X0000210236Y0000180674D01*
X0000210236Y0000180674D01*
G37*
X0000210236Y0000180674D02*
X0000203085Y0000191377D01*
X0000191377Y0000203085D01*
X0000177610Y0000212283D01*
X0000162313Y0000218620D01*
X0000146073Y0000221850D01*
X0000129516Y0000221850D01*
X0000113277Y0000218620D01*
X0000097980Y0000212283D01*
X0000084213Y0000203085D01*
X0000072505Y0000191377D01*
X0000065354Y0000180674D01*
X0000065354Y0003756332D01*
X0000072505Y0003745630D01*
X0000084213Y0003733922D01*
X0000097980Y0003724723D01*
X0000113277Y0003718387D01*
X0000129516Y0003715157D01*
X0000146073Y0003715157D01*
X0000162313Y0003718387D01*
X0000177610Y0003724723D01*
X0000191377Y0003733922D01*
X0000203085Y0003745630D01*
X0000210236Y0003756332D01*
X0000210236Y0000180674D01*
G36*
X0000084213Y0003864502D02*
G01*
X0000072505Y0003852794D01*
X0000065354Y0003842092D01*
X0000065354Y0003871653D01*
X0000094915Y0003871653D01*
X0000084213Y0003864502D01*
X0000084213Y0003864502D01*
G37*
X0000084213Y0003864502D02*
X0000072505Y0003852794D01*
X0000065354Y0003842092D01*
X0000065354Y0003871653D01*
X0000094915Y0003871653D01*
X0000084213Y0003864502D01*
G36*
X0000210236Y0003842092D02*
G01*
X0000203085Y0003852794D01*
X0000191377Y0003864502D01*
X0000180674Y0003871653D01*
X0000210236Y0003871653D01*
X0000210236Y0003842092D01*
X0000210236Y0003842092D01*
G37*
X0000210236Y0003842092D02*
X0000203085Y0003852794D01*
X0000191377Y0003864502D01*
X0000180674Y0003871653D01*
X0000210236Y0003871653D01*
X0000210236Y0003842092D01*
M02*