%
M48
METRIC,000.000
T01C0.50
%
T01
X048330Y069921
X048363Y070920
X048344Y071920
X048273Y072917
X048150Y073910
X051995Y074201
X051856Y073211
X051771Y072215
X051737Y071215
X051753Y070215
X009995Y074201
X009856Y073211
X009771Y072215
X009737Y071215
X009753Y070215
X006250Y069607
X006250Y070607
X006250Y071607
X006250Y072607
X006250Y073607
X030258Y051774
X031254Y051862
X027546Y051794
X028545Y051742
X030656Y047654
X029694Y047916
X028697Y047951
X027719Y047759
X072258Y051774
X073254Y051862
X069546Y051794
X070545Y051742
X072656Y047654
X071694Y047916
X070697Y047951
X069719Y047759
X090330Y069921
X090363Y070920
X090344Y071920
X090273Y072917
X090150Y073910
X093750Y074178
X093750Y073178
X093750Y072178
X093750Y071178
X093750Y070178
X009995Y024201
X009856Y023211
X009771Y022215
X009737Y021215
X009753Y020215
X006250Y019607
X006250Y020607
X006250Y021607
X006250Y022607
X006250Y023607
X051995Y024201
X051856Y023211
X051771Y022215
X051737Y021215
X051753Y020215
X048330Y019921
X048363Y020920
X048344Y021920
X048273Y022917
X048150Y023910
X090330Y019921
X090363Y020920
X090344Y021920
X090273Y022917
X090150Y023910
X093750Y024178
X093750Y023178
X093750Y022178
X093750Y021178
X093750Y020178
M30