G04 #@! TF.GenerationSoftware,KiCad,Pcbnew,(5.1.5)-3*
G04 #@! TF.CreationDate,2019-12-21T20:48:58-08:00*
G04 #@! TF.ProjectId,mole-diamond-frame,6d6f6c65-2d64-4696-916d-6f6e642d6672,rev?*
G04 #@! TF.SameCoordinates,Original*
G04 #@! TF.FileFunction,Soldermask,Bot*
G04 #@! TF.FilePolarity,Negative*
%FSLAX46Y46*%
G04 Gerber Fmt 4.6, Leading zero omitted, Abs format (unit mm)*
G04 Created by KiCad (PCBNEW (5.1.5)-3) date 2019-12-21 20:48:58*
%MOMM*%
%LPD*%
G04 APERTURE LIST*
%ADD10C,0.300000*%
%ADD11C,0.100000*%
G04 APERTURE END LIST*
D10*
X14052142Y2750000D02*
X14195000Y2821428D01*
X14409285Y2821428D01*
X14623571Y2750000D01*
X14766428Y2607142D01*
X14837857Y2464285D01*
X14909285Y2178571D01*
X14909285Y1964285D01*
X14837857Y1678571D01*
X14766428Y1535714D01*
X14623571Y1392857D01*
X14409285Y1321428D01*
X14266428Y1321428D01*
X14052142Y1392857D01*
X13980714Y1464285D01*
X13980714Y1964285D01*
X14266428Y1964285D01*
X13337857Y1321428D02*
X13337857Y2821428D01*
X12980714Y2821428D01*
X12766428Y2750000D01*
X12623571Y2607142D01*
X12552142Y2464285D01*
X12480714Y2178571D01*
X12480714Y1964285D01*
X12552142Y1678571D01*
X12623571Y1535714D01*
X12766428Y1392857D01*
X12980714Y1321428D01*
X13337857Y1321428D01*
X11337857Y2107142D02*
X11123571Y2035714D01*
X11052142Y1964285D01*
X10980714Y1821428D01*
X10980714Y1607142D01*
X11052142Y1464285D01*
X11123571Y1392857D01*
X11266428Y1321428D01*
X11837857Y1321428D01*
X11837857Y2821428D01*
X11337857Y2821428D01*
X11195000Y2750000D01*
X11123571Y2678571D01*
X11052142Y2535714D01*
X11052142Y2392857D01*
X11123571Y2250000D01*
X11195000Y2178571D01*
X11337857Y2107142D01*
X11837857Y2107142D01*
X9552142Y2750000D02*
X9695000Y2821428D01*
X9909285Y2821428D01*
X10123571Y2750000D01*
X10266428Y2607142D01*
X10337857Y2464285D01*
X10409285Y2178571D01*
X10409285Y1964285D01*
X10337857Y1678571D01*
X10266428Y1535714D01*
X10123571Y1392857D01*
X9909285Y1321428D01*
X9766428Y1321428D01*
X9552142Y1392857D01*
X9480714Y1464285D01*
X9480714Y1964285D01*
X9766428Y1964285D01*
X55519285Y1392857D02*
X55305000Y1321428D01*
X54947857Y1321428D01*
X54805000Y1392857D01*
X54733571Y1464285D01*
X54662142Y1607142D01*
X54662142Y1750000D01*
X54733571Y1892857D01*
X54805000Y1964285D01*
X54947857Y2035714D01*
X55233571Y2107142D01*
X55376428Y2178571D01*
X55447857Y2250000D01*
X55519285Y2392857D01*
X55519285Y2535714D01*
X55447857Y2678571D01*
X55376428Y2750000D01*
X55233571Y2821428D01*
X54876428Y2821428D01*
X54662142Y2750000D01*
X54019285Y2107142D02*
X53519285Y2107142D01*
X53305000Y1321428D02*
X54019285Y1321428D01*
X54019285Y2821428D01*
X53305000Y2821428D01*
X52662142Y1321428D02*
X52662142Y2821428D01*
X52305000Y2821428D01*
X52090714Y2750000D01*
X51947857Y2607142D01*
X51876428Y2464285D01*
X51805000Y2178571D01*
X51805000Y1964285D01*
X51876428Y1678571D01*
X51947857Y1535714D01*
X52090714Y1392857D01*
X52305000Y1321428D01*
X52662142Y1321428D01*
X50019285Y1321428D02*
X50019285Y2821428D01*
X49162142Y1321428D01*
X49162142Y2821428D01*
X48662142Y2821428D02*
X48162142Y1321428D01*
X47662142Y2821428D01*
X46447857Y1321428D02*
X47162142Y1321428D01*
X47162142Y2821428D01*
X45233571Y1321428D02*
X45947857Y1321428D01*
X45947857Y2821428D01*
X44805000Y1750000D02*
X44090714Y1750000D01*
X44947857Y1321428D02*
X44447857Y2821428D01*
X43947857Y1321428D01*
X42305000Y1321428D02*
X42305000Y2821428D01*
X41447857Y1321428D01*
X41447857Y2821428D01*
X40733571Y1321428D02*
X40733571Y2821428D01*
X40090714Y1392857D02*
X39876428Y1321428D01*
X39519285Y1321428D01*
X39376428Y1392857D01*
X39305000Y1464285D01*
X39233571Y1607142D01*
X39233571Y1750000D01*
X39305000Y1892857D01*
X39376428Y1964285D01*
X39519285Y2035714D01*
X39805000Y2107142D01*
X39947857Y2178571D01*
X40019285Y2250000D01*
X40090714Y2392857D01*
X40090714Y2535714D01*
X40019285Y2678571D01*
X39947857Y2750000D01*
X39805000Y2821428D01*
X39447857Y2821428D01*
X39233571Y2750000D01*
X38590714Y1321428D02*
X38590714Y2821428D01*
X36805000Y1750000D02*
X36090714Y1750000D01*
X36947857Y1321428D02*
X36447857Y2821428D01*
X35947857Y1321428D01*
X34590714Y1321428D02*
X35090714Y2035714D01*
X35447857Y1321428D02*
X35447857Y2821428D01*
X34876428Y2821428D01*
X34733571Y2750000D01*
X34662142Y2678571D01*
X34590714Y2535714D01*
X34590714Y2321428D01*
X34662142Y2178571D01*
X34733571Y2107142D01*
X34876428Y2035714D01*
X35447857Y2035714D01*
X33947857Y1321428D02*
X33947857Y2821428D01*
X33590714Y2821428D01*
X33376428Y2750000D01*
X33233571Y2607142D01*
X33162142Y2464285D01*
X33090714Y2178571D01*
X33090714Y1964285D01*
X33162142Y1678571D01*
X33233571Y1535714D01*
X33376428Y1392857D01*
X33590714Y1321428D01*
X33947857Y1321428D01*
X32662142Y2821428D02*
X32162142Y1321428D01*
X31662142Y2821428D01*
X31233571Y1750000D02*
X30519285Y1750000D01*
X31376428Y1321428D02*
X30876428Y2821428D01*
X30376428Y1321428D01*
X28947857Y2821428D02*
X28447857Y1321428D01*
X27947857Y2821428D01*
X27447857Y1321428D02*
X27447857Y2821428D01*
X25876428Y1321428D02*
X26376428Y2035714D01*
X26733571Y1321428D02*
X26733571Y2821428D01*
X26162142Y2821428D01*
X26019285Y2750000D01*
X25947857Y2678571D01*
X25876428Y2535714D01*
X25876428Y2321428D01*
X25947857Y2178571D01*
X26019285Y2107142D01*
X26162142Y2035714D01*
X26733571Y2035714D01*
X25447857Y2821428D02*
X24590714Y2821428D01*
X25019285Y1321428D02*
X25019285Y2821428D01*
X24305000Y2821428D02*
X23805000Y1321428D01*
X23305000Y2821428D01*
X22876428Y1392857D02*
X22662142Y1321428D01*
X22305000Y1321428D01*
X22162142Y1392857D01*
X22090714Y1464285D01*
X22019285Y1607142D01*
X22019285Y1750000D01*
X22090714Y1892857D01*
X22162142Y1964285D01*
X22305000Y2035714D01*
X22590714Y2107142D01*
X22733571Y2178571D01*
X22805000Y2250000D01*
X22876428Y2392857D01*
X22876428Y2535714D01*
X22805000Y2678571D01*
X22733571Y2750000D01*
X22590714Y2821428D01*
X22233571Y2821428D01*
X22019285Y2750000D01*
D11*
G36*
X62423241Y3395240D02*
G01*
X62687305Y3285861D01*
X62924958Y3127066D01*
X63127066Y2924958D01*
X63285861Y2687305D01*
X63395240Y2423241D01*
X63451000Y2142912D01*
X63451000Y1857088D01*
X63395240Y1576759D01*
X63285861Y1312695D01*
X63127066Y1075042D01*
X62924958Y872934D01*
X62687305Y714139D01*
X62423241Y604760D01*
X62142912Y549000D01*
X61857088Y549000D01*
X61576759Y604760D01*
X61312695Y714139D01*
X61075042Y872934D01*
X60872934Y1075042D01*
X60714139Y1312695D01*
X60604760Y1576759D01*
X60549000Y1857088D01*
X60549000Y2142912D01*
X60604760Y2423241D01*
X60714139Y2687305D01*
X60872934Y2924958D01*
X61075042Y3127066D01*
X61312695Y3285861D01*
X61576759Y3395240D01*
X61857088Y3451000D01*
X62142912Y3451000D01*
X62423241Y3395240D01*
G37*
G36*
X2423241Y3395240D02*
G01*
X2687305Y3285861D01*
X2924958Y3127066D01*
X3127066Y2924958D01*
X3285861Y2687305D01*
X3395240Y2423241D01*
X3451000Y2142912D01*
X3451000Y1857088D01*
X3395240Y1576759D01*
X3285861Y1312695D01*
X3127066Y1075042D01*
X2924958Y872934D01*
X2687305Y714139D01*
X2423241Y604760D01*
X2142912Y549000D01*
X1857088Y549000D01*
X1576759Y604760D01*
X1312695Y714139D01*
X1075042Y872934D01*
X872934Y1075042D01*
X714139Y1312695D01*
X604760Y1576759D01*
X549000Y1857088D01*
X549000Y2142912D01*
X604760Y2423241D01*
X714139Y2687305D01*
X872934Y2924958D01*
X1075042Y3127066D01*
X1312695Y3285861D01*
X1576759Y3395240D01*
X1857088Y3451000D01*
X2142912Y3451000D01*
X2423241Y3395240D01*
G37*
M02*
