G04 #@! TF.GenerationSoftware,KiCad,Pcbnew,(5.1.5)-3*
G04 #@! TF.CreationDate,2019-12-21T20:48:58-08:00*
G04 #@! TF.ProjectId,mole-diamond-frame,6d6f6c65-2d64-4696-916d-6f6e642d6672,rev?*
G04 #@! TF.SameCoordinates,Original*
G04 #@! TF.FileFunction,Legend,Top*
G04 #@! TF.FilePolarity,Positive*
%FSLAX46Y46*%
G04 Gerber Fmt 4.6, Leading zero omitted, Abs format (unit mm)*
G04 Created by KiCad (PCBNEW (5.1.5)-3) date 2019-12-21 20:48:58*
%MOMM*%
%LPD*%
G04 APERTURE LIST*
%ADD10C,0.200000*%
%ADD11C,0.300000*%
G04 APERTURE END LIST*
D10*
X50549047Y2438095D02*
X50549047Y1866666D01*
X50510952Y1752380D01*
X50434761Y1676190D01*
X50320476Y1638095D01*
X50244285Y1638095D01*
X51310952Y1638095D02*
X50930000Y1638095D01*
X50930000Y2438095D01*
X52034761Y1714285D02*
X51996666Y1676190D01*
X51882380Y1638095D01*
X51806190Y1638095D01*
X51691904Y1676190D01*
X51615714Y1752380D01*
X51577619Y1828571D01*
X51539523Y1980952D01*
X51539523Y2095238D01*
X51577619Y2247619D01*
X51615714Y2323809D01*
X51691904Y2400000D01*
X51806190Y2438095D01*
X51882380Y2438095D01*
X51996666Y2400000D01*
X52034761Y2361904D01*
X52606190Y2438095D02*
X52606190Y1866666D01*
X52568095Y1752380D01*
X52491904Y1676190D01*
X52377619Y1638095D01*
X52301428Y1638095D01*
X53368095Y1638095D02*
X52987142Y1638095D01*
X52987142Y2438095D01*
X54091904Y1714285D02*
X54053809Y1676190D01*
X53939523Y1638095D01*
X53863333Y1638095D01*
X53749047Y1676190D01*
X53672857Y1752380D01*
X53634761Y1828571D01*
X53596666Y1980952D01*
X53596666Y2095238D01*
X53634761Y2247619D01*
X53672857Y2323809D01*
X53749047Y2400000D01*
X53863333Y2438095D01*
X53939523Y2438095D01*
X54053809Y2400000D01*
X54091904Y2361904D01*
X54663333Y2438095D02*
X54663333Y1866666D01*
X54625238Y1752380D01*
X54549047Y1676190D01*
X54434761Y1638095D01*
X54358571Y1638095D01*
X55425238Y1638095D02*
X55044285Y1638095D01*
X55044285Y2438095D01*
X56149047Y1714285D02*
X56110952Y1676190D01*
X55996666Y1638095D01*
X55920476Y1638095D01*
X55806190Y1676190D01*
X55730000Y1752380D01*
X55691904Y1828571D01*
X55653809Y1980952D01*
X55653809Y2095238D01*
X55691904Y2247619D01*
X55730000Y2323809D01*
X55806190Y2400000D01*
X55920476Y2438095D01*
X55996666Y2438095D01*
X56110952Y2400000D01*
X56149047Y2361904D01*
X56720476Y2438095D02*
X56720476Y1866666D01*
X56682380Y1752380D01*
X56606190Y1676190D01*
X56491904Y1638095D01*
X56415714Y1638095D01*
X57482380Y1638095D02*
X57101428Y1638095D01*
X57101428Y2438095D01*
X58206190Y1714285D02*
X58168095Y1676190D01*
X58053809Y1638095D01*
X57977619Y1638095D01*
X57863333Y1676190D01*
X57787142Y1752380D01*
X57749047Y1828571D01*
X57710952Y1980952D01*
X57710952Y2095238D01*
X57749047Y2247619D01*
X57787142Y2323809D01*
X57863333Y2400000D01*
X57977619Y2438095D01*
X58053809Y2438095D01*
X58168095Y2400000D01*
X58206190Y2361904D01*
D11*
X37409285Y1321428D02*
X36909285Y2035714D01*
X36552142Y1321428D02*
X36552142Y2821428D01*
X37123571Y2821428D01*
X37266428Y2750000D01*
X37337857Y2678571D01*
X37409285Y2535714D01*
X37409285Y2321428D01*
X37337857Y2178571D01*
X37266428Y2107142D01*
X37123571Y2035714D01*
X36552142Y2035714D01*
X38695000Y1321428D02*
X38695000Y2107142D01*
X38623571Y2250000D01*
X38480714Y2321428D01*
X38195000Y2321428D01*
X38052142Y2250000D01*
X38695000Y1392857D02*
X38552142Y1321428D01*
X38195000Y1321428D01*
X38052142Y1392857D01*
X37980714Y1535714D01*
X37980714Y1678571D01*
X38052142Y1821428D01*
X38195000Y1892857D01*
X38552142Y1892857D01*
X38695000Y1964285D01*
X39266428Y2321428D02*
X39623571Y1321428D01*
X39980714Y2321428D02*
X39623571Y1321428D01*
X39480714Y964285D01*
X39409285Y892857D01*
X39266428Y821428D01*
X41623571Y1392857D02*
X41837857Y1321428D01*
X42195000Y1321428D01*
X42337857Y1392857D01*
X42409285Y1464285D01*
X42480714Y1607142D01*
X42480714Y1750000D01*
X42409285Y1892857D01*
X42337857Y1964285D01*
X42195000Y2035714D01*
X41909285Y2107142D01*
X41766428Y2178571D01*
X41695000Y2250000D01*
X41623571Y2392857D01*
X41623571Y2535714D01*
X41695000Y2678571D01*
X41766428Y2750000D01*
X41909285Y2821428D01*
X42266428Y2821428D01*
X42480714Y2750000D01*
X43766428Y2321428D02*
X43766428Y1321428D01*
X43123571Y2321428D02*
X43123571Y1535714D01*
X43195000Y1392857D01*
X43337857Y1321428D01*
X43552142Y1321428D01*
X43695000Y1392857D01*
X43766428Y1464285D01*
X44480714Y2321428D02*
X44480714Y1321428D01*
X44480714Y2178571D02*
X44552142Y2250000D01*
X44695000Y2321428D01*
X44909285Y2321428D01*
X45052142Y2250000D01*
X45123571Y2107142D01*
X45123571Y1321428D01*
M02*
