G04 #@! TF.GenerationSoftware,KiCad,Pcbnew,(5.1.5)-3*
G04 #@! TF.CreationDate,2019-12-21T18:44:43-08:00*
G04 #@! TF.ProjectId,mole_keychain,6d6f6c65-5f6b-4657-9963-6861696e2e6b,A*
G04 #@! TF.SameCoordinates,Original*
G04 #@! TF.FileFunction,Copper,L1,Top*
G04 #@! TF.FilePolarity,Positive*
%FSLAX46Y46*%
G04 Gerber Fmt 4.6, Leading zero omitted, Abs format (unit mm)*
G04 Created by KiCad (PCBNEW (5.1.5)-3) date 2019-12-21 18:44:43*
%MOMM*%
%LPD*%
G04 APERTURE LIST*
%ADD10C,5.6*%
%ADD11C,0.254*%
G04 APERTURE END LIST*
D10*
X0000014631Y0000013491D02*
X0019064631Y0041669491D03*
D11*
G36*
X0019909233Y0037331944D02*
G01*
X0020752024Y0037273445D01*
X0021591241Y0037176082D01*
X0022425035Y0037040071D01*
X0023251661Y0036865696D01*
X0024069385Y0036653322D01*
X0024876380Y0036403424D01*
X0025670997Y0036116515D01*
X0026451528Y0035793208D01*
X0027216276Y0035434208D01*
X0027963643Y0035040264D01*
X0028692013Y0034612228D01*
X0029399820Y0034151021D01*
X0030085598Y0033657600D01*
X0030747835Y0033133049D01*
X0031385155Y0032578460D01*
X0031996176Y0031995036D01*
X0032579600Y0031384015D01*
X0033134189Y0030746695D01*
X0033658740Y0030084458D01*
X0034152161Y0029398680D01*
X0034613368Y0028690873D01*
X0035041404Y0027962503D01*
X0035435348Y0027215136D01*
X0035794348Y0026450388D01*
X0036117655Y0025669857D01*
X0036404564Y0024875240D01*
X0036654462Y0024068245D01*
X0036866836Y0023250521D01*
X0037041211Y0022423895D01*
X0037177222Y0021590101D01*
X0037274585Y0020750884D01*
X0037333084Y0019908093D01*
X0037352597Y0019063491D01*
X0037333084Y0018218889D01*
X0037274585Y0017376098D01*
X0037177222Y0016536881D01*
X0037041211Y0015703087D01*
X0036866836Y0014876461D01*
X0036654462Y0014058737D01*
X0036404564Y0013251742D01*
X0036117655Y0012457125D01*
X0035794348Y0011676594D01*
X0035435348Y0010911846D01*
X0035041404Y0010164479D01*
X0034613368Y0009436109D01*
X0034152161Y0008728302D01*
X0033658740Y0008042524D01*
X0033134189Y0007380287D01*
X0032579600Y0006742967D01*
X0031996176Y0006131946D01*
X0031385155Y0005548522D01*
X0030747835Y0004993933D01*
X0030085598Y0004469382D01*
X0029399820Y0003975961D01*
X0028692013Y0003514754D01*
X0027963643Y0003086718D01*
X0027216276Y0002692774D01*
X0026451528Y0002333774D01*
X0025670997Y0002010467D01*
X0024876380Y0001723558D01*
X0024069385Y0001473660D01*
X0023251661Y0001261286D01*
X0022425035Y0001086911D01*
X0021591241Y0000950900D01*
X0020752024Y0000853537D01*
X0019909233Y0000795038D01*
X0019064631Y0000775525D01*
X0018220029Y0000795038D01*
X0017377238Y0000853537D01*
X0016538021Y0000950900D01*
X0015704227Y0001086911D01*
X0014877601Y0001261286D01*
X0014059877Y0001473660D01*
X0013252882Y0001723558D01*
X0012458265Y0002010467D01*
X0011677734Y0002333774D01*
X0010912986Y0002692774D01*
X0010165619Y0003086718D01*
X0009437249Y0003514754D01*
X0008729442Y0003975961D01*
X0008043664Y0004469382D01*
X0007381427Y0004993933D01*
X0006744107Y0005548522D01*
X0006133086Y0006131946D01*
X0005549662Y0006742967D01*
X0004995073Y0007380287D01*
X0004470522Y0008042524D01*
X0003977101Y0008728302D01*
X0003515894Y0009436109D01*
X0003087858Y0010164479D01*
X0002693914Y0010911846D01*
X0002334914Y0011676594D01*
X0002011607Y0012457125D01*
X0001724698Y0013251742D01*
X0001474800Y0014058737D01*
X0001262426Y0014876461D01*
X0001088051Y0015703087D01*
X0000952040Y0016536881D01*
X0000854677Y0017376098D01*
X0000796178Y0018218889D01*
X0000776665Y0019063491D01*
X0000796178Y0019908093D01*
X0000854677Y0020750884D01*
X0000952040Y0021590101D01*
X0001088051Y0022423895D01*
X0001262426Y0023250521D01*
X0001474800Y0024068245D01*
X0001724698Y0024875240D01*
X0002011607Y0025669857D01*
X0002334914Y0026450388D01*
X0002693914Y0027215136D01*
X0003087858Y0027962503D01*
X0003515894Y0028690873D01*
X0003977101Y0029398680D01*
X0004470522Y0030084458D01*
X0004995073Y0030746695D01*
X0005549662Y0031384015D01*
X0006133086Y0031995036D01*
X0006744107Y0032578460D01*
X0007381427Y0033133049D01*
X0008043664Y0033657600D01*
X0008729442Y0034151021D01*
X0009437249Y0034612228D01*
X0010165619Y0035040264D01*
X0010912986Y0035434208D01*
X0011677734Y0035793208D01*
X0012458265Y0036116515D01*
X0013252882Y0036403424D01*
X0014059877Y0036653322D01*
X0014877601Y0036865696D01*
X0015704227Y0037040071D01*
X0016538021Y0037176082D01*
X0017377238Y0037273445D01*
X0018220029Y0037331944D01*
X0019064631Y0037351457D01*
X0019909233Y0037331944D01*
G37*
X0019909233Y0037331944D02*
X0020752024Y0037273445D01*
X0021591241Y0037176082D01*
X0022425035Y0037040071D01*
X0023251661Y0036865696D01*
X0024069385Y0036653322D01*
X0024876380Y0036403424D01*
X0025670997Y0036116515D01*
X0026451528Y0035793208D01*
X0027216276Y0035434208D01*
X0027963643Y0035040264D01*
X0028692013Y0034612228D01*
X0029399820Y0034151021D01*
X0030085598Y0033657600D01*
X0030747835Y0033133049D01*
X0031385155Y0032578460D01*
X0031996176Y0031995036D01*
X0032579600Y0031384015D01*
X0033134189Y0030746695D01*
X0033658740Y0030084458D01*
X0034152161Y0029398680D01*
X0034613368Y0028690873D01*
X0035041404Y0027962503D01*
X0035435348Y0027215136D01*
X0035794348Y0026450388D01*
X0036117655Y0025669857D01*
X0036404564Y0024875240D01*
X0036654462Y0024068245D01*
X0036866836Y0023250521D01*
X0037041211Y0022423895D01*
X0037177222Y0021590101D01*
X0037274585Y0020750884D01*
X0037333084Y0019908093D01*
X0037352597Y0019063491D01*
X0037333084Y0018218889D01*
X0037274585Y0017376098D01*
X0037177222Y0016536881D01*
X0037041211Y0015703087D01*
X0036866836Y0014876461D01*
X0036654462Y0014058737D01*
X0036404564Y0013251742D01*
X0036117655Y0012457125D01*
X0035794348Y0011676594D01*
X0035435348Y0010911846D01*
X0035041404Y0010164479D01*
X0034613368Y0009436109D01*
X0034152161Y0008728302D01*
X0033658740Y0008042524D01*
X0033134189Y0007380287D01*
X0032579600Y0006742967D01*
X0031996176Y0006131946D01*
X0031385155Y0005548522D01*
X0030747835Y0004993933D01*
X0030085598Y0004469382D01*
X0029399820Y0003975961D01*
X0028692013Y0003514754D01*
X0027963643Y0003086718D01*
X0027216276Y0002692774D01*
X0026451528Y0002333774D01*
X0025670997Y0002010467D01*
X0024876380Y0001723558D01*
X0024069385Y0001473660D01*
X0023251661Y0001261286D01*
X0022425035Y0001086911D01*
X0021591241Y0000950900D01*
X0020752024Y0000853537D01*
X0019909233Y0000795038D01*
X0019064631Y0000775525D01*
X0018220029Y0000795038D01*
X0017377238Y0000853537D01*
X0016538021Y0000950900D01*
X0015704227Y0001086911D01*
X0014877601Y0001261286D01*
X0014059877Y0001473660D01*
X0013252882Y0001723558D01*
X0012458265Y0002010467D01*
X0011677734Y0002333774D01*
X0010912986Y0002692774D01*
X0010165619Y0003086718D01*
X0009437249Y0003514754D01*
X0008729442Y0003975961D01*
X0008043664Y0004469382D01*
X0007381427Y0004993933D01*
X0006744107Y0005548522D01*
X0006133086Y0006131946D01*
X0005549662Y0006742967D01*
X0004995073Y0007380287D01*
X0004470522Y0008042524D01*
X0003977101Y0008728302D01*
X0003515894Y0009436109D01*
X0003087858Y0010164479D01*
X0002693914Y0010911846D01*
X0002334914Y0011676594D01*
X0002011607Y0012457125D01*
X0001724698Y0013251742D01*
X0001474800Y0014058737D01*
X0001262426Y0014876461D01*
X0001088051Y0015703087D01*
X0000952040Y0016536881D01*
X0000854677Y0017376098D01*
X0000796178Y0018218889D01*
X0000776665Y0019063491D01*
X0000796178Y0019908093D01*
X0000854677Y0020750884D01*
X0000952040Y0021590101D01*
X0001088051Y0022423895D01*
X0001262426Y0023250521D01*
X0001474800Y0024068245D01*
X0001724698Y0024875240D01*
X0002011607Y0025669857D01*
X0002334914Y0026450388D01*
X0002693914Y0027215136D01*
X0003087858Y0027962503D01*
X0003515894Y0028690873D01*
X0003977101Y0029398680D01*
X0004470522Y0030084458D01*
X0004995073Y0030746695D01*
X0005549662Y0031384015D01*
X0006133086Y0031995036D01*
X0006744107Y0032578460D01*
X0007381427Y0033133049D01*
X0008043664Y0033657600D01*
X0008729442Y0034151021D01*
X0009437249Y0034612228D01*
X0010165619Y0035040264D01*
X0010912986Y0035434208D01*
X0011677734Y0035793208D01*
X0012458265Y0036116515D01*
X0013252882Y0036403424D01*
X0014059877Y0036653322D01*
X0014877601Y0036865696D01*
X0015704227Y0037040071D01*
X0016538021Y0037176082D01*
X0017377238Y0037273445D01*
X0018220029Y0037331944D01*
X0019064631Y0037351457D01*
X0019909233Y0037331944D01*
M02*