G04 #@! TF.GenerationSoftware,KiCad,Pcbnew,(5.1.5)-3*
G04 #@! TF.CreationDate,2019-12-21T18:44:43-08:00*
G04 #@! TF.ProjectId,mole_keychain,6d6f6c65-5f6b-4657-9963-6861696e2e6b,A*
G04 #@! TF.SameCoordinates,Original*
G04 #@! TF.FileFunction,Soldermask,Top*
G04 #@! TF.FilePolarity,Negative*
%FSLAX46Y46*%
G04 Gerber Fmt 4.6, Leading zero omitted, Abs format (unit mm)*
G04 Created by KiCad (PCBNEW (5.1.5)-3) date 2019-12-21 18:44:43*
%MOMM*%
%LPD*%
G04 APERTURE LIST*
%ADD10C,0.01*%
%ADD11C,0.1*%
G04 APERTURE END LIST*
D10*
G36*
X0028473423Y0008039362D02*
G01*
X0028541005Y0007841719D01*
X0028588372Y0007527024D01*
X0028615850Y0007134983D01*
X0028623764Y0006705304D01*
X0028612442Y0006277695D01*
X0028582208Y0005891861D01*
X0028533390Y0005587511D01*
X0028466312Y0005404351D01*
X0028451640Y0005386636D01*
X0028267628Y0005255055D01*
X0027962073Y0005089045D01*
X0027574486Y0004906489D01*
X0027144374Y0004725267D01*
X0026711246Y0004563261D01*
X0026429982Y0004471638D01*
X0025076142Y0004135665D01*
X0023596341Y0003905543D01*
X0023594298Y0003905308D01*
X0023305218Y0003882119D01*
X0022871279Y0003860691D01*
X0022315732Y0003841230D01*
X0021661827Y0003823944D01*
X0020932815Y0003809041D01*
X0020151946Y0003796726D01*
X0019342471Y0003787208D01*
X0018527641Y0003780694D01*
X0017730705Y0003777390D01*
X0016974916Y0003777505D01*
X0016283522Y0003781245D01*
X0015679776Y0003788817D01*
X0015186927Y0003800428D01*
X0014828226Y0003816286D01*
X0014704298Y0003826090D01*
X0013476899Y0003984462D01*
X0012391979Y0004195303D01*
X0011455671Y0004457107D01*
X0011027011Y0004627824D01*
X0013267456Y0004627824D01*
X0013689544Y0004577626D01*
X0014116806Y0004532729D01*
X0014408644Y0004519256D01*
X0014596303Y0004538712D01*
X0014711028Y0004592604D01*
X0014747303Y0004628634D01*
X0014760411Y0004666299D01*
X0015094909Y0004666299D01*
X0015095637Y0004492146D01*
X0015102280Y0004455619D01*
X0015195873Y0004435577D01*
X0015419827Y0004409277D01*
X0015735490Y0004380872D01*
X0015943791Y0004365181D01*
X0016324576Y0004341940D01*
X0016569541Y0004338894D01*
X0016711339Y0004359143D01*
X0016782619Y0004405789D01*
X0016804817Y0004446942D01*
X0016909296Y0004531048D01*
X0017107176Y0004580755D01*
X0017341290Y0004594890D01*
X0017554473Y0004572277D01*
X0017689558Y0004511742D01*
X0017709964Y0004465546D01*
X0017786037Y0004324744D01*
X0018010175Y0004257575D01*
X0018067416Y0004253508D01*
X0018130041Y0004267328D01*
X0018148543Y0004335455D01*
X0018118449Y0004486443D01*
X0018035287Y0004748850D01*
X0017952426Y0004987657D01*
X0017898806Y0005137789D01*
X0018302631Y0005137789D01*
X0018302631Y0005137646D01*
X0018308584Y0004805271D01*
X0018333841Y0004597488D01*
X0018389495Y0004469755D01*
X0018486641Y0004377532D01*
X0018493131Y0004372805D01*
X0018680504Y0004303000D01*
X0018959431Y0004268020D01*
X0019267885Y0004267452D01*
X0019543839Y0004300882D01*
X0019725267Y0004367898D01*
X0019740791Y0004381118D01*
X0019812841Y0004523138D01*
X0019845364Y0004671684D01*
X0019807680Y0004841037D01*
X0019689309Y0004919963D01*
X0019553128Y0004893999D01*
X0019464594Y0004759267D01*
X0019396991Y0004642207D01*
X0019243786Y0004592444D01*
X0019081616Y0004585491D01*
X0018814879Y0004618023D01*
X0018693098Y0004718362D01*
X0018692689Y0004719416D01*
X0018648056Y0004941835D01*
X0018645705Y0005210124D01*
X0018681391Y0005451110D01*
X0018742898Y0005584557D01*
X0018937251Y0005677142D01*
X0019175667Y0005670351D01*
X0019376159Y0005572349D01*
X0019422946Y0005516824D01*
X0019568127Y0005374797D01*
X0019715004Y0005354202D01*
X0019812435Y0005451820D01*
X0019826631Y0005542224D01*
X0019819521Y0005578161D01*
X0020059467Y0005578161D01*
X0020069805Y0005220781D01*
X0020085765Y0004875756D01*
X0020105944Y0004596726D01*
X0020126970Y0004425800D01*
X0020135866Y0004395281D01*
X0020243260Y0004341953D01*
X0020339628Y0004331491D01*
X0020447512Y0004361713D01*
X0020495096Y0004481444D01*
X0020503964Y0004670157D01*
X0020515370Y0004882316D01*
X0020543859Y0005000239D01*
X0020555343Y0005008824D01*
X0020643202Y0004959970D01*
X0020821917Y0004832448D01*
X0021032070Y0004670157D01*
X0021279033Y0004476962D01*
X0021433664Y0004374071D01*
X0021535161Y0004345136D01*
X0021622720Y0004373813D01*
X0021671629Y0004403446D01*
X0021698063Y0004478696D01*
X0021609216Y0004614874D01*
X0021396463Y0004827227D01*
X0021194876Y0005020739D01*
X0021055661Y0005169091D01*
X0021011964Y0005233140D01*
X0021064360Y0005319740D01*
X0021195074Y0005482840D01*
X0021364400Y0005677518D01*
X0021532629Y0005858850D01*
X0021660052Y0005981915D01*
X0021696770Y0006007872D01*
X0021741393Y0005946064D01*
X0021787525Y0005744633D01*
X0021830609Y0005433180D01*
X0021866089Y0005041307D01*
X0021879873Y0004818392D01*
X0021899416Y0004575866D01*
X0021945611Y0004457840D01*
X0022050115Y0004419553D01*
X0022164314Y0004416226D01*
X0022578295Y0004434685D01*
X0022910384Y0004485810D01*
X0023131709Y0004562880D01*
X0023213398Y0004659171D01*
X0023213413Y0004660499D01*
X0023185055Y0004738232D01*
X0023075104Y0004773126D01*
X0022846501Y0004773591D01*
X0022740778Y0004767751D01*
X0022472938Y0004755407D01*
X0022335414Y0004771169D01*
X0022289723Y0004829693D01*
X0022296162Y0004937084D01*
X0022336314Y0005060629D01*
X0022442374Y0005125826D01*
X0022661065Y0005157055D01*
X0022726464Y0005161630D01*
X0022975804Y0005189743D01*
X0023096388Y0005244669D01*
X0023128607Y0005345265D01*
X0023128631Y0005349409D01*
X0023107420Y0005443751D01*
X0023016694Y0005488644D01*
X0022815814Y0005497209D01*
X0022684131Y0005492937D01*
X0022423563Y0005489430D01*
X0022290411Y0005516266D01*
X0022243552Y0005587405D01*
X0022239631Y0005643824D01*
X0022263821Y0005745432D01*
X0022363213Y0005802202D01*
X0022578037Y0005831776D01*
X0022684131Y0005838749D01*
X0022947089Y0005863052D01*
X0023081044Y0005908533D01*
X0023126293Y0005992926D01*
X0023128631Y0006034376D01*
X0023120855Y0006090348D01*
X0023337294Y0006090348D01*
X0023352075Y0005879080D01*
X0023379387Y0005592049D01*
X0023414201Y0005275280D01*
X0023451487Y0004974803D01*
X0023486217Y0004736645D01*
X0023511252Y0004613230D01*
X0023604655Y0004551521D01*
X0023711398Y0004558370D01*
X0023854425Y0004670742D01*
X0023907078Y0004869298D01*
X0023942383Y0005046688D01*
X0024037761Y0005128827D01*
X0024247443Y0005161825D01*
X0024251546Y0005162166D01*
X0024463105Y0005166919D01*
X0024565612Y0005109091D01*
X0024617447Y0004951380D01*
X0024622840Y0004924946D01*
X0024686156Y0004739149D01*
X0024796138Y0004683157D01*
X0024854592Y0004687211D01*
X0024985133Y0004777642D01*
X0025013837Y0004978385D01*
X0024936753Y0005261580D01*
X0024936234Y0005262824D01*
X0024903913Y0005434558D01*
X0024901227Y0005663054D01*
X0024884451Y0006018546D01*
X0024776634Y0006234530D01*
X0024650557Y0006303899D01*
X0024504689Y0006313273D01*
X0024258692Y0006303972D01*
X0023965971Y0006281052D01*
X0023679935Y0006249570D01*
X0023453991Y0006214582D01*
X0023341545Y0006181145D01*
X0023340074Y0006179823D01*
X0023337294Y0006090348D01*
X0023120855Y0006090348D01*
X0023116590Y0006121039D01*
X0023056631Y0006166979D01*
X0022912999Y0006179140D01*
X0022649940Y0006164468D01*
X0022514798Y0006153597D01*
X0022021941Y0006111291D01*
X0021666022Y0006072820D01*
X0021415160Y0006028813D01*
X0021237473Y0005969898D01*
X0021101081Y0005886703D01*
X0020974104Y0005769856D01*
X0020884121Y0005674236D01*
X0020669122Y0005473217D01*
X0020526906Y0005422576D01*
X0020447446Y0005524989D01*
X0020420715Y0005783128D01*
X0020420594Y0005797879D01*
X0020396691Y0005967817D01*
X0020301453Y0006015405D01*
X0020231232Y0006009546D01*
X0020142407Y0005987698D01*
X0020088767Y0005930976D01*
X0020063418Y0005805693D01*
X0020059467Y0005578161D01*
X0019819521Y0005578161D01*
X0019786339Y0005745866D01*
X0019648831Y0005870288D01*
X0019389156Y0005929678D01*
X0019126798Y0005940157D01*
X0018747853Y0005928085D01*
X0018506807Y0005871844D01*
X0018372817Y0005741403D01*
X0018315039Y0005506729D01*
X0018302631Y0005137789D01*
X0017898806Y0005137789D01*
X0017801018Y0005411588D01*
X0017687734Y0005700869D01*
X0017596180Y0005881167D01*
X0017509960Y0005978147D01*
X0017412681Y0006017477D01*
X0017289934Y0006024824D01*
X0017166282Y0006012685D01*
X0017070341Y0005955640D01*
X0016978280Y0005822749D01*
X0016866269Y0005583071D01*
X0016768258Y0005347491D01*
X0016491321Y0004670157D01*
X0015483650Y0004670157D01*
X0015538968Y0005389824D01*
X0015564089Y0005737880D01*
X0015569286Y0005950493D01*
X0015547750Y0006061045D01*
X0015492673Y0006102917D01*
X0015397247Y0006109490D01*
X0015392193Y0006109491D01*
X0015298198Y0006100917D01*
X0015235657Y0006054240D01*
X0015194373Y0005938026D01*
X0015164147Y0005720841D01*
X0015134781Y0005371251D01*
X0015129365Y0005299381D01*
X0015106563Y0004948208D01*
X0015094909Y0004666299D01*
X0014760411Y0004666299D01*
X0014813706Y0004819438D01*
X0014808062Y0005094285D01*
X0014796755Y0005318071D01*
X0014824131Y0005461712D01*
X0014839356Y0005479471D01*
X0014910871Y0005609955D01*
X0014897343Y0005807837D01*
X0014808875Y0006000437D01*
X0014759258Y0006055730D01*
X0014572625Y0006149967D01*
X0014254680Y0006203393D01*
X0014020040Y0006217019D01*
X0013437527Y0006236491D01*
X0013378216Y0005770824D01*
X0013338370Y0005431645D01*
X0013304470Y0005098648D01*
X0013293181Y0004966491D01*
X0013267456Y0004627824D01*
X0011027011Y0004627824D01*
X0010674110Y0004768369D01*
X0010492232Y0004859733D01*
X0010240705Y0005009537D01*
X0010059307Y0005171679D01*
X0009939188Y0005374328D01*
X0009871501Y0005645652D01*
X0009847397Y0006013822D01*
X0009858027Y0006507006D01*
X0009874564Y0006826036D01*
X0009900129Y0007224396D01*
X0009926525Y0007559336D01*
X0009950634Y0007795567D01*
X0009969266Y0007897687D01*
X0010056149Y0007890588D01*
X0010253076Y0007818411D01*
X0010520800Y0007695991D01*
X0010576943Y0007668017D01*
X0011309090Y0007363094D01*
X0012201975Y0007106002D01*
X0013253817Y0006897035D01*
X0014462832Y0006736485D01*
X0015827237Y0006624643D01*
X0017328964Y0006562195D01*
X0019016693Y0006545003D01*
X0020605789Y0006577068D01*
X0022087134Y0006657296D01*
X0023451608Y0006784595D01*
X0024690094Y0006957870D01*
X0025793473Y0007176027D01*
X0026752626Y0007437974D01*
X0027558435Y0007742617D01*
X0027693480Y0007805249D01*
X0028050879Y0007969102D01*
X0028285228Y0008055783D01*
X0028420326Y0008072436D01*
X0028473423Y0008039362D01*
G37*
X0028473423Y0008039362D02*
X0028541005Y0007841719D01*
X0028588372Y0007527024D01*
X0028615850Y0007134983D01*
X0028623764Y0006705304D01*
X0028612442Y0006277695D01*
X0028582208Y0005891861D01*
X0028533390Y0005587511D01*
X0028466312Y0005404351D01*
X0028451640Y0005386636D01*
X0028267628Y0005255055D01*
X0027962073Y0005089045D01*
X0027574486Y0004906489D01*
X0027144374Y0004725267D01*
X0026711246Y0004563261D01*
X0026429982Y0004471638D01*
X0025076142Y0004135665D01*
X0023596341Y0003905543D01*
X0023594298Y0003905308D01*
X0023305218Y0003882119D01*
X0022871279Y0003860691D01*
X0022315732Y0003841230D01*
X0021661827Y0003823944D01*
X0020932815Y0003809041D01*
X0020151946Y0003796726D01*
X0019342471Y0003787208D01*
X0018527641Y0003780694D01*
X0017730705Y0003777390D01*
X0016974916Y0003777505D01*
X0016283522Y0003781245D01*
X0015679776Y0003788817D01*
X0015186927Y0003800428D01*
X0014828226Y0003816286D01*
X0014704298Y0003826090D01*
X0013476899Y0003984462D01*
X0012391979Y0004195303D01*
X0011455671Y0004457107D01*
X0011027011Y0004627824D01*
X0013267456Y0004627824D01*
X0013689544Y0004577626D01*
X0014116806Y0004532729D01*
X0014408644Y0004519256D01*
X0014596303Y0004538712D01*
X0014711028Y0004592604D01*
X0014747303Y0004628634D01*
X0014760411Y0004666299D01*
X0015094909Y0004666299D01*
X0015095637Y0004492146D01*
X0015102280Y0004455619D01*
X0015195873Y0004435577D01*
X0015419827Y0004409277D01*
X0015735490Y0004380872D01*
X0015943791Y0004365181D01*
X0016324576Y0004341940D01*
X0016569541Y0004338894D01*
X0016711339Y0004359143D01*
X0016782619Y0004405789D01*
X0016804817Y0004446942D01*
X0016909296Y0004531048D01*
X0017107176Y0004580755D01*
X0017341290Y0004594890D01*
X0017554473Y0004572277D01*
X0017689558Y0004511742D01*
X0017709964Y0004465546D01*
X0017786037Y0004324744D01*
X0018010175Y0004257575D01*
X0018067416Y0004253508D01*
X0018130041Y0004267328D01*
X0018148543Y0004335455D01*
X0018118449Y0004486443D01*
X0018035287Y0004748850D01*
X0017952426Y0004987657D01*
X0017898806Y0005137789D01*
X0018302631Y0005137789D01*
X0018302631Y0005137646D01*
X0018308584Y0004805271D01*
X0018333841Y0004597488D01*
X0018389495Y0004469755D01*
X0018486641Y0004377532D01*
X0018493131Y0004372805D01*
X0018680504Y0004303000D01*
X0018959431Y0004268020D01*
X0019267885Y0004267452D01*
X0019543839Y0004300882D01*
X0019725267Y0004367898D01*
X0019740791Y0004381118D01*
X0019812841Y0004523138D01*
X0019845364Y0004671684D01*
X0019807680Y0004841037D01*
X0019689309Y0004919963D01*
X0019553128Y0004893999D01*
X0019464594Y0004759267D01*
X0019396991Y0004642207D01*
X0019243786Y0004592444D01*
X0019081616Y0004585491D01*
X0018814879Y0004618023D01*
X0018693098Y0004718362D01*
X0018692689Y0004719416D01*
X0018648056Y0004941835D01*
X0018645705Y0005210124D01*
X0018681391Y0005451110D01*
X0018742898Y0005584557D01*
X0018937251Y0005677142D01*
X0019175667Y0005670351D01*
X0019376159Y0005572349D01*
X0019422946Y0005516824D01*
X0019568127Y0005374797D01*
X0019715004Y0005354202D01*
X0019812435Y0005451820D01*
X0019826631Y0005542224D01*
X0019819521Y0005578161D01*
X0020059467Y0005578161D01*
X0020069805Y0005220781D01*
X0020085765Y0004875756D01*
X0020105944Y0004596726D01*
X0020126970Y0004425800D01*
X0020135866Y0004395281D01*
X0020243260Y0004341953D01*
X0020339628Y0004331491D01*
X0020447512Y0004361713D01*
X0020495096Y0004481444D01*
X0020503964Y0004670157D01*
X0020515370Y0004882316D01*
X0020543859Y0005000239D01*
X0020555343Y0005008824D01*
X0020643202Y0004959970D01*
X0020821917Y0004832448D01*
X0021032070Y0004670157D01*
X0021279033Y0004476962D01*
X0021433664Y0004374071D01*
X0021535161Y0004345136D01*
X0021622720Y0004373813D01*
X0021671629Y0004403446D01*
X0021698063Y0004478696D01*
X0021609216Y0004614874D01*
X0021396463Y0004827227D01*
X0021194876Y0005020739D01*
X0021055661Y0005169091D01*
X0021011964Y0005233140D01*
X0021064360Y0005319740D01*
X0021195074Y0005482840D01*
X0021364400Y0005677518D01*
X0021532629Y0005858850D01*
X0021660052Y0005981915D01*
X0021696770Y0006007872D01*
X0021741393Y0005946064D01*
X0021787525Y0005744633D01*
X0021830609Y0005433180D01*
X0021866089Y0005041307D01*
X0021879873Y0004818392D01*
X0021899416Y0004575866D01*
X0021945611Y0004457840D01*
X0022050115Y0004419553D01*
X0022164314Y0004416226D01*
X0022578295Y0004434685D01*
X0022910384Y0004485810D01*
X0023131709Y0004562880D01*
X0023213398Y0004659171D01*
X0023213413Y0004660499D01*
X0023185055Y0004738232D01*
X0023075104Y0004773126D01*
X0022846501Y0004773591D01*
X0022740778Y0004767751D01*
X0022472938Y0004755407D01*
X0022335414Y0004771169D01*
X0022289723Y0004829693D01*
X0022296162Y0004937084D01*
X0022336314Y0005060629D01*
X0022442374Y0005125826D01*
X0022661065Y0005157055D01*
X0022726464Y0005161630D01*
X0022975804Y0005189743D01*
X0023096388Y0005244669D01*
X0023128607Y0005345265D01*
X0023128631Y0005349409D01*
X0023107420Y0005443751D01*
X0023016694Y0005488644D01*
X0022815814Y0005497209D01*
X0022684131Y0005492937D01*
X0022423563Y0005489430D01*
X0022290411Y0005516266D01*
X0022243552Y0005587405D01*
X0022239631Y0005643824D01*
X0022263821Y0005745432D01*
X0022363213Y0005802202D01*
X0022578037Y0005831776D01*
X0022684131Y0005838749D01*
X0022947089Y0005863052D01*
X0023081044Y0005908533D01*
X0023126293Y0005992926D01*
X0023128631Y0006034376D01*
X0023120855Y0006090348D01*
X0023337294Y0006090348D01*
X0023352075Y0005879080D01*
X0023379387Y0005592049D01*
X0023414201Y0005275280D01*
X0023451487Y0004974803D01*
X0023486217Y0004736645D01*
X0023511252Y0004613230D01*
X0023604655Y0004551521D01*
X0023711398Y0004558370D01*
X0023854425Y0004670742D01*
X0023907078Y0004869298D01*
X0023942383Y0005046688D01*
X0024037761Y0005128827D01*
X0024247443Y0005161825D01*
X0024251546Y0005162166D01*
X0024463105Y0005166919D01*
X0024565612Y0005109091D01*
X0024617447Y0004951380D01*
X0024622840Y0004924946D01*
X0024686156Y0004739149D01*
X0024796138Y0004683157D01*
X0024854592Y0004687211D01*
X0024985133Y0004777642D01*
X0025013837Y0004978385D01*
X0024936753Y0005261580D01*
X0024936234Y0005262824D01*
X0024903913Y0005434558D01*
X0024901227Y0005663054D01*
X0024884451Y0006018546D01*
X0024776634Y0006234530D01*
X0024650557Y0006303899D01*
X0024504689Y0006313273D01*
X0024258692Y0006303972D01*
X0023965971Y0006281052D01*
X0023679935Y0006249570D01*
X0023453991Y0006214582D01*
X0023341545Y0006181145D01*
X0023340074Y0006179823D01*
X0023337294Y0006090348D01*
X0023120855Y0006090348D01*
X0023116590Y0006121039D01*
X0023056631Y0006166979D01*
X0022912999Y0006179140D01*
X0022649940Y0006164468D01*
X0022514798Y0006153597D01*
X0022021941Y0006111291D01*
X0021666022Y0006072820D01*
X0021415160Y0006028813D01*
X0021237473Y0005969898D01*
X0021101081Y0005886703D01*
X0020974104Y0005769856D01*
X0020884121Y0005674236D01*
X0020669122Y0005473217D01*
X0020526906Y0005422576D01*
X0020447446Y0005524989D01*
X0020420715Y0005783128D01*
X0020420594Y0005797879D01*
X0020396691Y0005967817D01*
X0020301453Y0006015405D01*
X0020231232Y0006009546D01*
X0020142407Y0005987698D01*
X0020088767Y0005930976D01*
X0020063418Y0005805693D01*
X0020059467Y0005578161D01*
X0019819521Y0005578161D01*
X0019786339Y0005745866D01*
X0019648831Y0005870288D01*
X0019389156Y0005929678D01*
X0019126798Y0005940157D01*
X0018747853Y0005928085D01*
X0018506807Y0005871844D01*
X0018372817Y0005741403D01*
X0018315039Y0005506729D01*
X0018302631Y0005137789D01*
X0017898806Y0005137789D01*
X0017801018Y0005411588D01*
X0017687734Y0005700869D01*
X0017596180Y0005881167D01*
X0017509960Y0005978147D01*
X0017412681Y0006017477D01*
X0017289934Y0006024824D01*
X0017166282Y0006012685D01*
X0017070341Y0005955640D01*
X0016978280Y0005822749D01*
X0016866269Y0005583071D01*
X0016768258Y0005347491D01*
X0016491321Y0004670157D01*
X0015483650Y0004670157D01*
X0015538968Y0005389824D01*
X0015564089Y0005737880D01*
X0015569286Y0005950493D01*
X0015547750Y0006061045D01*
X0015492673Y0006102917D01*
X0015397247Y0006109490D01*
X0015392193Y0006109491D01*
X0015298198Y0006100917D01*
X0015235657Y0006054240D01*
X0015194373Y0005938026D01*
X0015164147Y0005720841D01*
X0015134781Y0005371251D01*
X0015129365Y0005299381D01*
X0015106563Y0004948208D01*
X0015094909Y0004666299D01*
X0014760411Y0004666299D01*
X0014813706Y0004819438D01*
X0014808062Y0005094285D01*
X0014796755Y0005318071D01*
X0014824131Y0005461712D01*
X0014839356Y0005479471D01*
X0014910871Y0005609955D01*
X0014897343Y0005807837D01*
X0014808875Y0006000437D01*
X0014759258Y0006055730D01*
X0014572625Y0006149967D01*
X0014254680Y0006203393D01*
X0014020040Y0006217019D01*
X0013437527Y0006236491D01*
X0013378216Y0005770824D01*
X0013338370Y0005431645D01*
X0013304470Y0005098648D01*
X0013293181Y0004966491D01*
X0013267456Y0004627824D01*
X0011027011Y0004627824D01*
X0010674110Y0004768369D01*
X0010492232Y0004859733D01*
X0010240705Y0005009537D01*
X0010059307Y0005171679D01*
X0009939188Y0005374328D01*
X0009871501Y0005645652D01*
X0009847397Y0006013822D01*
X0009858027Y0006507006D01*
X0009874564Y0006826036D01*
X0009900129Y0007224396D01*
X0009926525Y0007559336D01*
X0009950634Y0007795567D01*
X0009969266Y0007897687D01*
X0010056149Y0007890588D01*
X0010253076Y0007818411D01*
X0010520800Y0007695991D01*
X0010576943Y0007668017D01*
X0011309090Y0007363094D01*
X0012201975Y0007106002D01*
X0013253817Y0006897035D01*
X0014462832Y0006736485D01*
X0015827237Y0006624643D01*
X0017328964Y0006562195D01*
X0019016693Y0006545003D01*
X0020605789Y0006577068D01*
X0022087134Y0006657296D01*
X0023451608Y0006784595D01*
X0024690094Y0006957870D01*
X0025793473Y0007176027D01*
X0026752626Y0007437974D01*
X0027558435Y0007742617D01*
X0027693480Y0007805249D01*
X0028050879Y0007969102D01*
X0028285228Y0008055783D01*
X0028420326Y0008072436D01*
X0028473423Y0008039362D01*
G36*
X0019021409Y0027060258D02*
G01*
X0019216541Y0026933881D01*
X0019488551Y0026747680D01*
X0019768995Y0026549291D01*
X0020594610Y0026013900D01*
X0021462595Y0025554049D01*
X0022319947Y0025196269D01*
X0022747631Y0025058322D01*
X0023351779Y0024933582D01*
X0024057235Y0024864557D01*
X0024805713Y0024851240D01*
X0025538927Y0024893623D01*
X0026198593Y0024991697D01*
X0026472964Y0025058830D01*
X0027401328Y0025391388D01*
X0028329759Y0025848316D01*
X0029169826Y0026380902D01*
X0029826318Y0026851914D01*
X0029960498Y0026534869D01*
X0030101847Y0026168126D01*
X0030207230Y0025805457D01*
X0030282947Y0025408890D01*
X0030335295Y0024940456D01*
X0030370575Y0024362183D01*
X0030385291Y0023974157D01*
X0030389796Y0023023713D01*
X0030338073Y0022079241D01*
X0030225623Y0021115440D01*
X0030047944Y0020107007D01*
X0029800536Y0019028638D01*
X0029478901Y0017855030D01*
X0029078537Y0016560882D01*
X0029052664Y0016481157D01*
X0028722598Y0015519215D01*
X0028398379Y0014695050D01*
X0028063282Y0013978617D01*
X0027700577Y0013339872D01*
X0027293538Y0012748770D01*
X0026825438Y0012175266D01*
X0026395666Y0011708855D01*
X0025540911Y0010896326D01*
X0024645521Y0010202788D01*
X0023669570Y0009601039D01*
X0022573129Y0009063877D01*
X0022408964Y0008992803D01*
X0021653311Y0008650752D01*
X0020952139Y0008295451D01*
X0020337394Y0007944460D01*
X0019841025Y0007615338D01*
X0019685382Y0007495855D01*
X0019466607Y0007335357D01*
X0019287947Y0007233296D01*
X0019219715Y0007213598D01*
X0019091704Y0007267743D01*
X0018899761Y0007400405D01*
X0018810631Y0007473676D01*
X0018403319Y0007782751D01*
X0017884331Y0008097771D01*
X0017238520Y0008426716D01*
X0016450737Y0008777568D01*
X0015930064Y0008991338D01*
X0015135498Y0009326319D01*
X0014459910Y0009653542D01*
X0013856755Y0010000967D01*
X0013279487Y0010396555D01*
X0012681561Y0010868264D01*
X0012381845Y0011122761D01*
X0011685560Y0011793181D01*
X0011053535Y0012549276D01*
X0010481257Y0013401332D01*
X0009964212Y0014359637D01*
X0009497886Y0015434476D01*
X0009077767Y0016636136D01*
X0008699340Y0017974904D01*
X0008358091Y0019461067D01*
X0008080236Y0020926157D01*
X0007970982Y0021568566D01*
X0007889934Y0022087844D01*
X0007832952Y0022527074D01*
X0007795894Y0022929342D01*
X0007774621Y0023337730D01*
X0007764991Y0023795323D01*
X0007762885Y0024228157D01*
X0007764461Y0024579512D01*
X0008795037Y0024579512D01*
X0008844405Y0023112668D01*
X0008955481Y0021514783D01*
X0009183846Y0019979844D01*
X0009537986Y0018470176D01*
X0010026387Y0016948101D01*
X0010509759Y0015719147D01*
X0011019147Y0014619780D01*
X0011561520Y0013662878D01*
X0012154258Y0012822292D01*
X0012814745Y0012071875D01*
X0013152383Y0011743945D01*
X0013573728Y0011372404D01*
X0013994852Y0011044610D01*
X0014445035Y0010743088D01*
X0014953559Y0010450362D01*
X0015549705Y0010148956D01*
X0016262752Y0009821395D01*
X0016677392Y0009640132D01*
X0017207219Y0009407878D01*
X0017708871Y0009181407D01*
X0018152687Y0008974619D01*
X0018509003Y0008801410D01*
X0018748157Y0008675679D01*
X0018794059Y0008648395D01*
X0019018179Y0008510976D01*
X0019177369Y0008419599D01*
X0019226284Y0008397100D01*
X0019308741Y0008434820D01*
X0019513488Y0008539937D01*
X0019814225Y0008698632D01*
X0020184655Y0008897090D01*
X0020411617Y0009019838D01*
X0020871871Y0009267234D01*
X0021337705Y0009513588D01*
X0021762418Y0009734461D01*
X0022099309Y0009905414D01*
X0022175452Y0009942913D01*
X0023026959Y0010412095D01*
X0023873250Y0010979843D01*
X0024687161Y0011621598D01*
X0025441529Y0012312800D01*
X0026109190Y0013028888D01*
X0026662980Y0013745302D01*
X0027014221Y0014317946D01*
X0027170667Y0014645592D01*
X0027362019Y0015099652D01*
X0027574997Y0015644209D01*
X0027796315Y0016243346D01*
X0028012691Y0016861146D01*
X0028210841Y0017461692D01*
X0028370899Y0017986264D01*
X0028700362Y0019212698D01*
X0028948229Y0020349471D01*
X0029123314Y0021450097D01*
X0029234429Y0022568094D01*
X0029283805Y0023529657D01*
X0029297121Y0024019874D01*
X0029303414Y0024445990D01*
X0029302728Y0024781504D01*
X0029295106Y0024999916D01*
X0029281207Y0025074824D01*
X0029187705Y0025032455D01*
X0028995347Y0024921695D01*
X0028760776Y0024775996D01*
X0027858285Y0024296753D01*
X0026877762Y0023955013D01*
X0025842311Y0023752467D01*
X0024775038Y0023690808D01*
X0023699048Y0023771724D01*
X0022637446Y0023996909D01*
X0021844184Y0024269746D01*
X0021195080Y0024574152D01*
X0020504013Y0024968725D01*
X0019837942Y0025413978D01*
X0019595615Y0025595787D01*
X0019335036Y0025789711D01*
X0019119203Y0025934207D01*
X0018987153Y0026003544D01*
X0018973055Y0026006157D01*
X0018866443Y0025952813D01*
X0018677596Y0025812815D01*
X0018446975Y0025616213D01*
X0018442071Y0025611780D01*
X0017557987Y0024918388D01*
X0016590003Y0024353969D01*
X0015560399Y0023925915D01*
X0014491457Y0023641620D01*
X0013405457Y0023508477D01*
X0012324681Y0023533878D01*
X0012215376Y0023545698D01*
X0011561532Y0023640288D01*
X0010951952Y0023772648D01*
X0010336312Y0023957270D01*
X0009664290Y0024208648D01*
X0009125001Y0024435742D01*
X0008795037Y0024579512D01*
X0007764461Y0024579512D01*
X0007765470Y0024804410D01*
X0007775989Y0025242570D01*
X0007796924Y0025573790D01*
X0007830758Y0025829221D01*
X0007879972Y0026040017D01*
X0007916271Y0026153328D01*
X0008014612Y0026406713D01*
X0008103546Y0026588029D01*
X0008146563Y0026643587D01*
X0008244055Y0026617109D01*
X0008435478Y0026505179D01*
X0008684066Y0026330013D01*
X0008753922Y0026276546D01*
X0009744158Y0025593811D01*
X0010744889Y0025077536D01*
X0011753284Y0024728147D01*
X0012766511Y0024546070D01*
X0013781739Y0024531732D01*
X0014796137Y0024685559D01*
X0015806874Y0025007978D01*
X0016159846Y0025161013D01*
X0017014304Y0025607758D01*
X0017760104Y0026113386D01*
X0018354099Y0026619991D01*
X0018598282Y0026842318D01*
X0018796333Y0027011364D01*
X0018915867Y0027099897D01*
X0018933117Y0027106824D01*
X0019021409Y0027060258D01*
G37*
X0019021409Y0027060258D02*
X0019216541Y0026933881D01*
X0019488551Y0026747680D01*
X0019768995Y0026549291D01*
X0020594610Y0026013900D01*
X0021462595Y0025554049D01*
X0022319947Y0025196269D01*
X0022747631Y0025058322D01*
X0023351779Y0024933582D01*
X0024057235Y0024864557D01*
X0024805713Y0024851240D01*
X0025538927Y0024893623D01*
X0026198593Y0024991697D01*
X0026472964Y0025058830D01*
X0027401328Y0025391388D01*
X0028329759Y0025848316D01*
X0029169826Y0026380902D01*
X0029826318Y0026851914D01*
X0029960498Y0026534869D01*
X0030101847Y0026168126D01*
X0030207230Y0025805457D01*
X0030282947Y0025408890D01*
X0030335295Y0024940456D01*
X0030370575Y0024362183D01*
X0030385291Y0023974157D01*
X0030389796Y0023023713D01*
X0030338073Y0022079241D01*
X0030225623Y0021115440D01*
X0030047944Y0020107007D01*
X0029800536Y0019028638D01*
X0029478901Y0017855030D01*
X0029078537Y0016560882D01*
X0029052664Y0016481157D01*
X0028722598Y0015519215D01*
X0028398379Y0014695050D01*
X0028063282Y0013978617D01*
X0027700577Y0013339872D01*
X0027293538Y0012748770D01*
X0026825438Y0012175266D01*
X0026395666Y0011708855D01*
X0025540911Y0010896326D01*
X0024645521Y0010202788D01*
X0023669570Y0009601039D01*
X0022573129Y0009063877D01*
X0022408964Y0008992803D01*
X0021653311Y0008650752D01*
X0020952139Y0008295451D01*
X0020337394Y0007944460D01*
X0019841025Y0007615338D01*
X0019685382Y0007495855D01*
X0019466607Y0007335357D01*
X0019287947Y0007233296D01*
X0019219715Y0007213598D01*
X0019091704Y0007267743D01*
X0018899761Y0007400405D01*
X0018810631Y0007473676D01*
X0018403319Y0007782751D01*
X0017884331Y0008097771D01*
X0017238520Y0008426716D01*
X0016450737Y0008777568D01*
X0015930064Y0008991338D01*
X0015135498Y0009326319D01*
X0014459910Y0009653542D01*
X0013856755Y0010000967D01*
X0013279487Y0010396555D01*
X0012681561Y0010868264D01*
X0012381845Y0011122761D01*
X0011685560Y0011793181D01*
X0011053535Y0012549276D01*
X0010481257Y0013401332D01*
X0009964212Y0014359637D01*
X0009497886Y0015434476D01*
X0009077767Y0016636136D01*
X0008699340Y0017974904D01*
X0008358091Y0019461067D01*
X0008080236Y0020926157D01*
X0007970982Y0021568566D01*
X0007889934Y0022087844D01*
X0007832952Y0022527074D01*
X0007795894Y0022929342D01*
X0007774621Y0023337730D01*
X0007764991Y0023795323D01*
X0007762885Y0024228157D01*
X0007764461Y0024579512D01*
X0008795037Y0024579512D01*
X0008844405Y0023112668D01*
X0008955481Y0021514783D01*
X0009183846Y0019979844D01*
X0009537986Y0018470176D01*
X0010026387Y0016948101D01*
X0010509759Y0015719147D01*
X0011019147Y0014619780D01*
X0011561520Y0013662878D01*
X0012154258Y0012822292D01*
X0012814745Y0012071875D01*
X0013152383Y0011743945D01*
X0013573728Y0011372404D01*
X0013994852Y0011044610D01*
X0014445035Y0010743088D01*
X0014953559Y0010450362D01*
X0015549705Y0010148956D01*
X0016262752Y0009821395D01*
X0016677392Y0009640132D01*
X0017207219Y0009407878D01*
X0017708871Y0009181407D01*
X0018152687Y0008974619D01*
X0018509003Y0008801410D01*
X0018748157Y0008675679D01*
X0018794059Y0008648395D01*
X0019018179Y0008510976D01*
X0019177369Y0008419599D01*
X0019226284Y0008397100D01*
X0019308741Y0008434820D01*
X0019513488Y0008539937D01*
X0019814225Y0008698632D01*
X0020184655Y0008897090D01*
X0020411617Y0009019838D01*
X0020871871Y0009267234D01*
X0021337705Y0009513588D01*
X0021762418Y0009734461D01*
X0022099309Y0009905414D01*
X0022175452Y0009942913D01*
X0023026959Y0010412095D01*
X0023873250Y0010979843D01*
X0024687161Y0011621598D01*
X0025441529Y0012312800D01*
X0026109190Y0013028888D01*
X0026662980Y0013745302D01*
X0027014221Y0014317946D01*
X0027170667Y0014645592D01*
X0027362019Y0015099652D01*
X0027574997Y0015644209D01*
X0027796315Y0016243346D01*
X0028012691Y0016861146D01*
X0028210841Y0017461692D01*
X0028370899Y0017986264D01*
X0028700362Y0019212698D01*
X0028948229Y0020349471D01*
X0029123314Y0021450097D01*
X0029234429Y0022568094D01*
X0029283805Y0023529657D01*
X0029297121Y0024019874D01*
X0029303414Y0024445990D01*
X0029302728Y0024781504D01*
X0029295106Y0024999916D01*
X0029281207Y0025074824D01*
X0029187705Y0025032455D01*
X0028995347Y0024921695D01*
X0028760776Y0024775996D01*
X0027858285Y0024296753D01*
X0026877762Y0023955013D01*
X0025842311Y0023752467D01*
X0024775038Y0023690808D01*
X0023699048Y0023771724D01*
X0022637446Y0023996909D01*
X0021844184Y0024269746D01*
X0021195080Y0024574152D01*
X0020504013Y0024968725D01*
X0019837942Y0025413978D01*
X0019595615Y0025595787D01*
X0019335036Y0025789711D01*
X0019119203Y0025934207D01*
X0018987153Y0026003544D01*
X0018973055Y0026006157D01*
X0018866443Y0025952813D01*
X0018677596Y0025812815D01*
X0018446975Y0025616213D01*
X0018442071Y0025611780D01*
X0017557987Y0024918388D01*
X0016590003Y0024353969D01*
X0015560399Y0023925915D01*
X0014491457Y0023641620D01*
X0013405457Y0023508477D01*
X0012324681Y0023533878D01*
X0012215376Y0023545698D01*
X0011561532Y0023640288D01*
X0010951952Y0023772648D01*
X0010336312Y0023957270D01*
X0009664290Y0024208648D01*
X0009125001Y0024435742D01*
X0008795037Y0024579512D01*
X0007764461Y0024579512D01*
X0007765470Y0024804410D01*
X0007775989Y0025242570D01*
X0007796924Y0025573790D01*
X0007830758Y0025829221D01*
X0007879972Y0026040017D01*
X0007916271Y0026153328D01*
X0008014612Y0026406713D01*
X0008103546Y0026588029D01*
X0008146563Y0026643587D01*
X0008244055Y0026617109D01*
X0008435478Y0026505179D01*
X0008684066Y0026330013D01*
X0008753922Y0026276546D01*
X0009744158Y0025593811D01*
X0010744889Y0025077536D01*
X0011753284Y0024728147D01*
X0012766511Y0024546070D01*
X0013781739Y0024531732D01*
X0014796137Y0024685559D01*
X0015806874Y0025007978D01*
X0016159846Y0025161013D01*
X0017014304Y0025607758D01*
X0017760104Y0026113386D01*
X0018354099Y0026619991D01*
X0018598282Y0026842318D01*
X0018796333Y0027011364D01*
X0018915867Y0027099897D01*
X0018933117Y0027106824D01*
X0019021409Y0027060258D01*
G36*
X0011824015Y0009628837D02*
G01*
X0011899268Y0009426713D01*
X0011972711Y0009119198D01*
X0012037103Y0008738027D01*
X0012085203Y0008314932D01*
X0012093930Y0008204991D01*
X0012118778Y0007829000D01*
X0012111651Y0007599593D01*
X0012048805Y0007494223D01*
X0011906495Y0007490341D01*
X0011660975Y0007565399D01*
X0011485974Y0007627663D01*
X0011083295Y0007786328D01*
X0010694208Y0007965993D01*
X0010368315Y0008142034D01*
X0010158983Y0008286484D01*
X0010067607Y0008431308D01*
X0010108658Y0008599290D01*
X0010289486Y0008799388D01*
X0010617443Y0009040560D01*
X0010942083Y0009240725D01*
X0011260864Y0009425666D01*
X0011525400Y0009575077D01*
X0011701729Y0009670008D01*
X0011754194Y0009693837D01*
X0011824015Y0009628837D01*
G37*
X0011824015Y0009628837D02*
X0011899268Y0009426713D01*
X0011972711Y0009119198D01*
X0012037103Y0008738027D01*
X0012085203Y0008314932D01*
X0012093930Y0008204991D01*
X0012118778Y0007829000D01*
X0012111651Y0007599593D01*
X0012048805Y0007494223D01*
X0011906495Y0007490341D01*
X0011660975Y0007565399D01*
X0011485974Y0007627663D01*
X0011083295Y0007786328D01*
X0010694208Y0007965993D01*
X0010368315Y0008142034D01*
X0010158983Y0008286484D01*
X0010067607Y0008431308D01*
X0010108658Y0008599290D01*
X0010289486Y0008799388D01*
X0010617443Y0009040560D01*
X0010942083Y0009240725D01*
X0011260864Y0009425666D01*
X0011525400Y0009575077D01*
X0011701729Y0009670008D01*
X0011754194Y0009693837D01*
X0011824015Y0009628837D01*
G36*
X0026951337Y0009677831D02*
G01*
X0027419117Y0009387991D01*
X0027761224Y0009169730D01*
X0027997514Y0009008059D01*
X0028147846Y0008887992D01*
X0028232079Y0008794538D01*
X0028270072Y0008712712D01*
X0028277165Y0008677177D01*
X0028217161Y0008509153D01*
X0027998745Y0008318712D01*
X0027630548Y0008111189D01*
X0027121203Y0007891920D01*
X0026837311Y0007786963D01*
X0026178593Y0007553862D01*
X0026121805Y0007780121D01*
X0026104372Y0007988135D01*
X0026115270Y0008310186D01*
X0026148605Y0008694470D01*
X0026198485Y0009089185D01*
X0026259016Y0009442529D01*
X0026324303Y0009702699D01*
X0026347342Y0009762498D01*
X0026449768Y0009986505D01*
X0026951337Y0009677831D01*
G37*
X0026951337Y0009677831D02*
X0027419117Y0009387991D01*
X0027761224Y0009169730D01*
X0027997514Y0009008059D01*
X0028147846Y0008887992D01*
X0028232079Y0008794538D01*
X0028270072Y0008712712D01*
X0028277165Y0008677177D01*
X0028217161Y0008509153D01*
X0027998745Y0008318712D01*
X0027630548Y0008111189D01*
X0027121203Y0007891920D01*
X0026837311Y0007786963D01*
X0026178593Y0007553862D01*
X0026121805Y0007780121D01*
X0026104372Y0007988135D01*
X0026115270Y0008310186D01*
X0026148605Y0008694470D01*
X0026198485Y0009089185D01*
X0026259016Y0009442529D01*
X0026324303Y0009702699D01*
X0026347342Y0009762498D01*
X0026449768Y0009986505D01*
X0026951337Y0009677831D01*
G36*
X0006618210Y0014550786D02*
G01*
X0006642029Y0014240025D01*
X0006723431Y0013964199D01*
X0006878372Y0013707408D01*
X0007122809Y0013453750D01*
X0007472698Y0013187326D01*
X0007943993Y0012892236D01*
X0008552651Y0012552578D01*
X0008705232Y0012471006D01*
X0009150592Y0012230551D01*
X0009580311Y0011991855D01*
X0009954789Y0011777374D01*
X0010234424Y0011609563D01*
X0010310721Y0011560623D01*
X0010611834Y0011336325D01*
X0010918191Y0011067180D01*
X0011200513Y0010784121D01*
X0011429520Y0010518083D01*
X0011575933Y0010299998D01*
X0011613964Y0010183766D01*
X0011539429Y0010029101D01*
X0011311399Y0009839047D01*
X0011146844Y0009734198D01*
X0010806551Y0009526852D01*
X0010442839Y0009300616D01*
X0010250454Y0009178657D01*
X0010021228Y0009033345D01*
X0009859072Y0008933622D01*
X0009804496Y0008903491D01*
X0009755217Y0008967955D01*
X0009656628Y0009125709D01*
X0009641455Y0009151246D01*
X0009486681Y0009359998D01*
X0009258800Y0009572575D01*
X0008937285Y0009803596D01*
X0008501607Y0010067680D01*
X0007931241Y0010379444D01*
X0007875913Y0010408599D01*
X0007204870Y0010765435D01*
X0006670891Y0011062117D01*
X0006258671Y0011312369D01*
X0005952909Y0011529915D01*
X0005738300Y0011728482D01*
X0005599542Y0011921792D01*
X0005521330Y0012123571D01*
X0005488363Y0012347543D01*
X0005484301Y0012553489D01*
X0005502253Y0012841254D01*
X0005558983Y0013102800D01*
X0005671843Y0013395661D01*
X0005846695Y0013754971D01*
X0006031374Y0014098863D01*
X0006215688Y0014414173D01*
X0006368503Y0014648495D01*
X0006409993Y0014703157D01*
X0006617790Y0014957157D01*
X0006618210Y0014550786D01*
G37*
X0006618210Y0014550786D02*
X0006642029Y0014240025D01*
X0006723431Y0013964199D01*
X0006878372Y0013707408D01*
X0007122809Y0013453750D01*
X0007472698Y0013187326D01*
X0007943993Y0012892236D01*
X0008552651Y0012552578D01*
X0008705232Y0012471006D01*
X0009150592Y0012230551D01*
X0009580311Y0011991855D01*
X0009954789Y0011777374D01*
X0010234424Y0011609563D01*
X0010310721Y0011560623D01*
X0010611834Y0011336325D01*
X0010918191Y0011067180D01*
X0011200513Y0010784121D01*
X0011429520Y0010518083D01*
X0011575933Y0010299998D01*
X0011613964Y0010183766D01*
X0011539429Y0010029101D01*
X0011311399Y0009839047D01*
X0011146844Y0009734198D01*
X0010806551Y0009526852D01*
X0010442839Y0009300616D01*
X0010250454Y0009178657D01*
X0010021228Y0009033345D01*
X0009859072Y0008933622D01*
X0009804496Y0008903491D01*
X0009755217Y0008967955D01*
X0009656628Y0009125709D01*
X0009641455Y0009151246D01*
X0009486681Y0009359998D01*
X0009258800Y0009572575D01*
X0008937285Y0009803596D01*
X0008501607Y0010067680D01*
X0007931241Y0010379444D01*
X0007875913Y0010408599D01*
X0007204870Y0010765435D01*
X0006670891Y0011062117D01*
X0006258671Y0011312369D01*
X0005952909Y0011529915D01*
X0005738300Y0011728482D01*
X0005599542Y0011921792D01*
X0005521330Y0012123571D01*
X0005488363Y0012347543D01*
X0005484301Y0012553489D01*
X0005502253Y0012841254D01*
X0005558983Y0013102800D01*
X0005671843Y0013395661D01*
X0005846695Y0013754971D01*
X0006031374Y0014098863D01*
X0006215688Y0014414173D01*
X0006368503Y0014648495D01*
X0006409993Y0014703157D01*
X0006617790Y0014957157D01*
X0006618210Y0014550786D01*
G36*
X0032012865Y0014808538D02*
G01*
X0032154223Y0014593644D01*
X0032337583Y0014275435D01*
X0032536059Y0013905283D01*
X0032722767Y0013534564D01*
X0032870819Y0013214648D01*
X0032942745Y0013031698D01*
X0032987091Y0012712783D01*
X0032897966Y0012394943D01*
X0032665886Y0012055544D01*
X0032430467Y0011809381D01*
X0032226861Y0011635637D01*
X0031949542Y0011426619D01*
X0031634414Y0011206072D01*
X0031317385Y0010997739D01*
X0031034359Y0010825364D01*
X0030821244Y0010712690D01*
X0030724839Y0010681491D01*
X0030587485Y0010634438D01*
X0030349335Y0010508411D01*
X0030045010Y0010326103D01*
X0029709129Y0010110208D01*
X0029376312Y0009883421D01*
X0029081177Y0009668436D01*
X0028858345Y0009487948D01*
X0028767243Y0009398215D01*
X0028577545Y0009186607D01*
X0028460221Y0009092016D01*
X0028384503Y0009097157D01*
X0028336420Y0009156213D01*
X0028242902Y0009235964D01*
X0028041291Y0009372461D01*
X0027771030Y0009539349D01*
X0027703150Y0009579353D01*
X0027285191Y0009837582D01*
X0026948764Y0010073670D01*
X0026715125Y0010271031D01*
X0026605531Y0010413083D01*
X0026599964Y0010440085D01*
X0026654475Y0010537448D01*
X0026798412Y0010718818D01*
X0027002376Y0010947556D01*
X0027034919Y0010982195D01*
X0027517729Y0011418950D01*
X0028148400Y0011869772D01*
X0028907579Y0012322022D01*
X0029724853Y0012738933D01*
X0030122786Y0012934196D01*
X0030501980Y0013131509D01*
X0030813789Y0013304955D01*
X0030979478Y0013407373D01*
X0031349593Y0013747926D01*
X0031639461Y0014188668D01*
X0031806828Y0014664771D01*
X0031809995Y0014681538D01*
X0031867973Y0014998585D01*
X0032012865Y0014808538D01*
G37*
X0032012865Y0014808538D02*
X0032154223Y0014593644D01*
X0032337583Y0014275435D01*
X0032536059Y0013905283D01*
X0032722767Y0013534564D01*
X0032870819Y0013214648D01*
X0032942745Y0013031698D01*
X0032987091Y0012712783D01*
X0032897966Y0012394943D01*
X0032665886Y0012055544D01*
X0032430467Y0011809381D01*
X0032226861Y0011635637D01*
X0031949542Y0011426619D01*
X0031634414Y0011206072D01*
X0031317385Y0010997739D01*
X0031034359Y0010825364D01*
X0030821244Y0010712690D01*
X0030724839Y0010681491D01*
X0030587485Y0010634438D01*
X0030349335Y0010508411D01*
X0030045010Y0010326103D01*
X0029709129Y0010110208D01*
X0029376312Y0009883421D01*
X0029081177Y0009668436D01*
X0028858345Y0009487948D01*
X0028767243Y0009398215D01*
X0028577545Y0009186607D01*
X0028460221Y0009092016D01*
X0028384503Y0009097157D01*
X0028336420Y0009156213D01*
X0028242902Y0009235964D01*
X0028041291Y0009372461D01*
X0027771030Y0009539349D01*
X0027703150Y0009579353D01*
X0027285191Y0009837582D01*
X0026948764Y0010073670D01*
X0026715125Y0010271031D01*
X0026605531Y0010413083D01*
X0026599964Y0010440085D01*
X0026654475Y0010537448D01*
X0026798412Y0010718818D01*
X0027002376Y0010947556D01*
X0027034919Y0010982195D01*
X0027517729Y0011418950D01*
X0028148400Y0011869772D01*
X0028907579Y0012322022D01*
X0029724853Y0012738933D01*
X0030122786Y0012934196D01*
X0030501980Y0013131509D01*
X0030813789Y0013304955D01*
X0030979478Y0013407373D01*
X0031349593Y0013747926D01*
X0031639461Y0014188668D01*
X0031806828Y0014664771D01*
X0031809995Y0014681538D01*
X0031867973Y0014998585D01*
X0032012865Y0014808538D01*
G36*
X0007923381Y0016020147D02*
G01*
X0007944769Y0015798718D01*
X0007961154Y0015463773D01*
X0007971041Y0015043213D01*
X0007973298Y0014703157D01*
X0007970993Y0014140415D01*
X0007958504Y0013733633D01*
X0007927468Y0013469448D01*
X0007869521Y0013334497D01*
X0007776302Y0013315416D01*
X0007639445Y0013398843D01*
X0007450590Y0013571413D01*
X0007336069Y0013684929D01*
X0007133647Y0013914810D01*
X0006991280Y0014128496D01*
X0006944530Y0014256429D01*
X0006964470Y0014767062D01*
X0007091961Y0015183507D01*
X0007097156Y0015193690D01*
X0007221267Y0015389629D01*
X0007398145Y0015618770D01*
X0007591743Y0015840334D01*
X0007766012Y0016013545D01*
X0007884906Y0016097623D01*
X0007898483Y0016100157D01*
X0007923381Y0016020147D01*
G37*
X0007923381Y0016020147D02*
X0007944769Y0015798718D01*
X0007961154Y0015463773D01*
X0007971041Y0015043213D01*
X0007973298Y0014703157D01*
X0007970993Y0014140415D01*
X0007958504Y0013733633D01*
X0007927468Y0013469448D01*
X0007869521Y0013334497D01*
X0007776302Y0013315416D01*
X0007639445Y0013398843D01*
X0007450590Y0013571413D01*
X0007336069Y0013684929D01*
X0007133647Y0013914810D01*
X0006991280Y0014128496D01*
X0006944530Y0014256429D01*
X0006964470Y0014767062D01*
X0007091961Y0015183507D01*
X0007097156Y0015193690D01*
X0007221267Y0015389629D01*
X0007398145Y0015618770D01*
X0007591743Y0015840334D01*
X0007766012Y0016013545D01*
X0007884906Y0016097623D01*
X0007898483Y0016100157D01*
X0007923381Y0016020147D01*
G36*
X0030609507Y0016133760D02*
G01*
X0030901517Y0015887196D01*
X0030907373Y0015881934D01*
X0031266604Y0015479928D01*
X0031459277Y0015073804D01*
X0031485084Y0014670119D01*
X0031343719Y0014275430D01*
X0031034875Y0013896291D01*
X0031001774Y0013865789D01*
X0030799225Y0013694784D01*
X0030642382Y0013583864D01*
X0030586496Y0013560157D01*
X0030525981Y0013634757D01*
X0030472247Y0013819791D01*
X0030462363Y0013877657D01*
X0030430820Y0014130239D01*
X0030395547Y0014472456D01*
X0030367725Y0014787824D01*
X0030335275Y0015172916D01*
X0030299577Y0015566809D01*
X0030274343Y0015824991D01*
X0030261779Y0016099008D01*
X0030303927Y0016240951D01*
X0030415073Y0016252107D01*
X0030609507Y0016133760D01*
G37*
X0030609507Y0016133760D02*
X0030901517Y0015887196D01*
X0030907373Y0015881934D01*
X0031266604Y0015479928D01*
X0031459277Y0015073804D01*
X0031485084Y0014670119D01*
X0031343719Y0014275430D01*
X0031034875Y0013896291D01*
X0031001774Y0013865789D01*
X0030799225Y0013694784D01*
X0030642382Y0013583864D01*
X0030586496Y0013560157D01*
X0030525981Y0013634757D01*
X0030472247Y0013819791D01*
X0030462363Y0013877657D01*
X0030430820Y0014130239D01*
X0030395547Y0014472456D01*
X0030367725Y0014787824D01*
X0030335275Y0015172916D01*
X0030299577Y0015566809D01*
X0030274343Y0015824991D01*
X0030261779Y0016099008D01*
X0030303927Y0016240951D01*
X0030415073Y0016252107D01*
X0030609507Y0016133760D01*
G36*
X0004944689Y0018411855D02*
G01*
X0005147404Y0018328207D01*
X0005428894Y0018193629D01*
X0005611268Y0018099934D01*
X0006044820Y0017890900D01*
X0006541639Y0017679892D01*
X0007005443Y0017507393D01*
X0007074987Y0017484520D01*
X0007540967Y0017313824D01*
X0007847477Y0017148481D01*
X0008003864Y0016980633D01*
X0008019474Y0016802421D01*
X0007984692Y0016719668D01*
X0007884363Y0016587919D01*
X0007698069Y0016381818D01*
X0007463466Y0016142734D01*
X0007428341Y0016108433D01*
X0007204811Y0015882729D01*
X0007038691Y0015698508D01*
X0006959934Y0015589419D01*
X0006957298Y0015579266D01*
X0006925361Y0015520857D01*
X0006817451Y0015525663D01*
X0006615416Y0015600046D01*
X0006301105Y0015750365D01*
X0005954526Y0015930682D01*
X0005542853Y0016160038D01*
X0005112563Y0016417404D01*
X0004733360Y0016660490D01*
X0004599859Y0016752596D01*
X0004323924Y0016964374D01*
X0004017242Y0017223530D01*
X0003707123Y0017503868D01*
X0003420874Y0017779195D01*
X0003185805Y0018023316D01*
X0003029224Y0018210038D01*
X0002977964Y0018308301D01*
X0003046192Y0018337700D01*
X0003248422Y0018270201D01*
X0003580974Y0018107480D01*
X0004040169Y0017851216D01*
X0004247964Y0017729146D01*
X0004553704Y0017550275D01*
X0004798988Y0017412001D01*
X0004951915Y0017332011D01*
X0004986678Y0017319649D01*
X0004982364Y0017405261D01*
X0004952258Y0017610680D01*
X0004908364Y0017861224D01*
X0004864278Y0018140081D01*
X0004846151Y0018346487D01*
X0004855621Y0018429370D01*
X0004944689Y0018411855D01*
G37*
X0004944689Y0018411855D02*
X0005147404Y0018328207D01*
X0005428894Y0018193629D01*
X0005611268Y0018099934D01*
X0006044820Y0017890900D01*
X0006541639Y0017679892D01*
X0007005443Y0017507393D01*
X0007074987Y0017484520D01*
X0007540967Y0017313824D01*
X0007847477Y0017148481D01*
X0008003864Y0016980633D01*
X0008019474Y0016802421D01*
X0007984692Y0016719668D01*
X0007884363Y0016587919D01*
X0007698069Y0016381818D01*
X0007463466Y0016142734D01*
X0007428341Y0016108433D01*
X0007204811Y0015882729D01*
X0007038691Y0015698508D01*
X0006959934Y0015589419D01*
X0006957298Y0015579266D01*
X0006925361Y0015520857D01*
X0006817451Y0015525663D01*
X0006615416Y0015600046D01*
X0006301105Y0015750365D01*
X0005954526Y0015930682D01*
X0005542853Y0016160038D01*
X0005112563Y0016417404D01*
X0004733360Y0016660490D01*
X0004599859Y0016752596D01*
X0004323924Y0016964374D01*
X0004017242Y0017223530D01*
X0003707123Y0017503868D01*
X0003420874Y0017779195D01*
X0003185805Y0018023316D01*
X0003029224Y0018210038D01*
X0002977964Y0018308301D01*
X0003046192Y0018337700D01*
X0003248422Y0018270201D01*
X0003580974Y0018107480D01*
X0004040169Y0017851216D01*
X0004247964Y0017729146D01*
X0004553704Y0017550275D01*
X0004798988Y0017412001D01*
X0004951915Y0017332011D01*
X0004986678Y0017319649D01*
X0004982364Y0017405261D01*
X0004952258Y0017610680D01*
X0004908364Y0017861224D01*
X0004864278Y0018140081D01*
X0004846151Y0018346487D01*
X0004855621Y0018429370D01*
X0004944689Y0018411855D01*
G36*
X0033327222Y0018742678D02*
G01*
X0033354182Y0018637828D01*
X0033370771Y0018423259D01*
X0033373298Y0018287380D01*
X0033390332Y0018041679D01*
X0033434818Y0017897856D01*
X0033463876Y0017878157D01*
X0033580609Y0017923043D01*
X0033780357Y0018037897D01*
X0033919905Y0018129594D01*
X0034174593Y0018285361D01*
X0034469693Y0018437287D01*
X0034763641Y0018567698D01*
X0035014874Y0018658919D01*
X0035181828Y0018693276D01*
X0035221328Y0018683016D01*
X0035196395Y0018595953D01*
X0035058492Y0018424756D01*
X0034828949Y0018188429D01*
X0034529097Y0017905977D01*
X0034180264Y0017596402D01*
X0033803781Y0017278710D01*
X0033420978Y0016971903D01*
X0033053185Y0016694986D01*
X0032767477Y0016496763D01*
X0032400117Y0016257133D01*
X0032076880Y0016050489D01*
X0031827200Y0015895341D01*
X0031680509Y0015810198D01*
X0031661468Y0015801256D01*
X0031522032Y0015823467D01*
X0031389391Y0015924459D01*
X0031240022Y0016059311D01*
X0031002510Y0016243043D01*
X0030759733Y0016414279D01*
X0030465654Y0016617464D01*
X0030286695Y0016761848D01*
X0030194575Y0016878687D01*
X0030161016Y0016999241D01*
X0030157261Y0017080232D01*
X0030221009Y0017283169D01*
X0030422496Y0017470720D01*
X0030772367Y0017650060D01*
X0031256631Y0017820820D01*
X0031697357Y0017979028D01*
X0032179589Y0018186915D01*
X0032603751Y0018401326D01*
X0032628722Y0018415479D01*
X0032923304Y0018576437D01*
X0033159883Y0018691502D01*
X0033302843Y0018743993D01*
X0033327222Y0018742678D01*
G37*
X0033327222Y0018742678D02*
X0033354182Y0018637828D01*
X0033370771Y0018423259D01*
X0033373298Y0018287380D01*
X0033390332Y0018041679D01*
X0033434818Y0017897856D01*
X0033463876Y0017878157D01*
X0033580609Y0017923043D01*
X0033780357Y0018037897D01*
X0033919905Y0018129594D01*
X0034174593Y0018285361D01*
X0034469693Y0018437287D01*
X0034763641Y0018567698D01*
X0035014874Y0018658919D01*
X0035181828Y0018693276D01*
X0035221328Y0018683016D01*
X0035196395Y0018595953D01*
X0035058492Y0018424756D01*
X0034828949Y0018188429D01*
X0034529097Y0017905977D01*
X0034180264Y0017596402D01*
X0033803781Y0017278710D01*
X0033420978Y0016971903D01*
X0033053185Y0016694986D01*
X0032767477Y0016496763D01*
X0032400117Y0016257133D01*
X0032076880Y0016050489D01*
X0031827200Y0015895341D01*
X0031680509Y0015810198D01*
X0031661468Y0015801256D01*
X0031522032Y0015823467D01*
X0031389391Y0015924459D01*
X0031240022Y0016059311D01*
X0031002510Y0016243043D01*
X0030759733Y0016414279D01*
X0030465654Y0016617464D01*
X0030286695Y0016761848D01*
X0030194575Y0016878687D01*
X0030161016Y0016999241D01*
X0030157261Y0017080232D01*
X0030221009Y0017283169D01*
X0030422496Y0017470720D01*
X0030772367Y0017650060D01*
X0031256631Y0017820820D01*
X0031697357Y0017979028D01*
X0032179589Y0018186915D01*
X0032603751Y0018401326D01*
X0032628722Y0018415479D01*
X0032923304Y0018576437D01*
X0033159883Y0018691502D01*
X0033302843Y0018743993D01*
X0033327222Y0018742678D01*
G36*
X0010946605Y0032637232D02*
G01*
X0011494587Y0032525554D01*
X0012450844Y0032202703D01*
X0013307210Y0031744536D01*
X0014061081Y0031154331D01*
X0014709854Y0030435369D01*
X0015250925Y0029590931D01*
X0015681689Y0028624296D01*
X0015999542Y0027538745D01*
X0016162675Y0026645617D01*
X0016220239Y0026208276D01*
X0016248493Y0025907301D01*
X0016248204Y0025712415D01*
X0016220137Y0025593342D01*
X0016190498Y0025545953D01*
X0016074165Y0025453686D01*
X0015987656Y0025506960D01*
X0015921846Y0025715469D01*
X0015897300Y0025857530D01*
X0015771010Y0026331878D01*
X0015547716Y0026830631D01*
X0015264689Y0027275022D01*
X0015174633Y0027384905D01*
X0014856718Y0027657170D01*
X0014525554Y0027761388D01*
X0014175557Y0027698672D01*
X0014011288Y0027616793D01*
X0013810786Y0027505883D01*
X0013699001Y0027480555D01*
X0013621290Y0027536267D01*
X0013586592Y0027581475D01*
X0013489914Y0027785893D01*
X0013512985Y0028007383D01*
X0013643654Y0028268719D01*
X0013852949Y0028497192D01*
X0014107028Y0028610270D01*
X0014357661Y0028589935D01*
X0014419594Y0028558543D01*
X0014579230Y0028475928D01*
X0014646276Y0028506955D01*
X0014639840Y0028672181D01*
X0014621795Y0028776065D01*
X0014478931Y0029238971D01*
X0014245494Y0029561403D01*
X0013912698Y0029751163D01*
X0013471757Y0029816049D01*
X0013450144Y0029816157D01*
X0013143115Y0029780380D01*
X0012876021Y0029650300D01*
X0012755184Y0029560743D01*
X0012552325Y0029410965D01*
X0012421023Y0029359617D01*
X0012307110Y0029391692D01*
X0012256964Y0029422733D01*
X0012053692Y0029650469D01*
X0011989994Y0029961624D01*
X0012068125Y0030340536D01*
X0012110000Y0030443829D01*
X0012221428Y0030676872D01*
X0012319049Y0030790545D01*
X0012452906Y0030822310D01*
X0012605822Y0030815027D01*
X0012841049Y0030823906D01*
X0012926344Y0030892197D01*
X0012865764Y0031008875D01*
X0012663365Y0031162916D01*
X0012430430Y0031291608D01*
X0011913368Y0031497698D01*
X0011442383Y0031583925D01*
X0011037249Y0031552003D01*
X0010717738Y0031403643D01*
X0010503623Y0031140558D01*
X0010495852Y0031124013D01*
X0010362834Y0030944992D01*
X0010217439Y0030924781D01*
X0010083949Y0031056871D01*
X0010005298Y0031255491D01*
X0009924372Y0031466051D01*
X0009831808Y0031584598D01*
X0009803071Y0031594157D01*
X0009654125Y0031540785D01*
X0009437450Y0031406623D01*
X0009205064Y0031230603D01*
X0009008988Y0031051659D01*
X0008909032Y0030925047D01*
X0008816059Y0030638367D01*
X0008865936Y0030365516D01*
X0009066484Y0030080338D01*
X0009201384Y0029947046D01*
X0009413004Y0029738337D01*
X0009505272Y0029602406D01*
X0009495229Y0029511675D01*
X0009480784Y0029494844D01*
X0009289356Y0029399128D01*
X0009068004Y0029467958D01*
X0008933736Y0029574584D01*
X0008775212Y0029692059D01*
X0008657941Y0029683718D01*
X0008621381Y0029657682D01*
X0008570994Y0029583260D01*
X0008581360Y0029465262D01*
X0008661934Y0029268351D01*
X0008795328Y0029007558D01*
X0009025815Y0028622174D01*
X0009251336Y0028370605D01*
X0009509458Y0028222760D01*
X0009837749Y0028148549D01*
X0009873082Y0028144334D01*
X0010131930Y0028132951D01*
X0010307154Y0028188500D01*
X0010464527Y0028320357D01*
X0010604996Y0028499030D01*
X0010669359Y0028710170D01*
X0010682631Y0028965642D01*
X0010698534Y0029213990D01*
X0010739809Y0029366564D01*
X0010771146Y0029392824D01*
X0010934077Y0029319340D01*
X0011105460Y0029131839D01*
X0011249475Y0028879744D01*
X0011328588Y0028623715D01*
X0011445077Y0028260171D01*
X0011654427Y0028037646D01*
X0011954553Y0027956946D01*
X0012343374Y0028018877D01*
X0012618043Y0028124684D01*
X0012840421Y0028222729D01*
X0012989307Y0028283016D01*
X0013020210Y0028292157D01*
X0013040567Y0028216746D01*
X0013052226Y0028027462D01*
X0013053298Y0027938241D01*
X0013036268Y0027716824D01*
X0012964016Y0027542322D01*
X0012804801Y0027354334D01*
X0012686216Y0027239741D01*
X0012319134Y0026895157D01*
X0012509164Y0026471824D01*
X0012636629Y0026121131D01*
X0012735133Y0025733524D01*
X0012758932Y0025591328D01*
X0012818671Y0025134165D01*
X0012562554Y0025316536D01*
X0012368485Y0025481798D01*
X0012130219Y0025721532D01*
X0011952317Y0025921866D01*
X0011756072Y0026139485D01*
X0011591560Y0026292169D01*
X0011500247Y0026344891D01*
X0011335936Y0026387180D01*
X0011081745Y0026495916D01*
X0010789016Y0026644114D01*
X0010509094Y0026804789D01*
X0010293320Y0026950954D01*
X0010216964Y0027019379D01*
X0009876751Y0027294470D01*
X0009428833Y0027505647D01*
X0008921707Y0027643262D01*
X0008403869Y0027697670D01*
X0007923814Y0027659225D01*
X0007577736Y0027544326D01*
X0007257334Y0027306526D01*
X0007049586Y0026999189D01*
X0006963098Y0026659219D01*
X0007006475Y0026323519D01*
X0007188322Y0026028993D01*
X0007217689Y0026000187D01*
X0007365570Y0025849507D01*
X0007435414Y0025715229D01*
X0007445329Y0025533311D01*
X0007419355Y0025286924D01*
X0007360630Y0024816903D01*
X0007083993Y0024868801D01*
X0006875937Y0024881123D01*
X0006756050Y0024837310D01*
X0006753675Y0024833840D01*
X0006769944Y0024724859D01*
X0006863248Y0024519802D01*
X0007013834Y0024261536D01*
X0007026357Y0024242035D01*
X0007156372Y0024031152D01*
X0007254601Y0023836748D01*
X0007331941Y0023622090D01*
X0007399288Y0023350441D01*
X0007467540Y0022985070D01*
X0007547592Y0022489240D01*
X0007549032Y0022480024D01*
X0007745344Y0021222959D01*
X0007536530Y0020848938D01*
X0007346206Y0020583963D01*
X0007117652Y0020366864D01*
X0007036674Y0020313674D01*
X0006904052Y0020249054D01*
X0006762479Y0020207694D01*
X0006583765Y0020189745D01*
X0006339723Y0020195358D01*
X0006002166Y0020224682D01*
X0005542905Y0020277868D01*
X0005179298Y0020323579D01*
X0004787768Y0020354513D01*
X0004498884Y0020327374D01*
X0004343458Y0020278976D01*
X0004147880Y0020203512D01*
X0004033356Y0020165312D01*
X0004025958Y0020164157D01*
X0004006284Y0020239576D01*
X0003995007Y0020428904D01*
X0003993964Y0020518534D01*
X0004044322Y0020853642D01*
X0004178592Y0021069437D01*
X0004363219Y0021265964D01*
X0004145924Y0021498228D01*
X0003941053Y0021756517D01*
X0003781512Y0022029888D01*
X0003691420Y0022269938D01*
X0003688848Y0022415466D01*
X0003807456Y0022531112D01*
X0004004897Y0022528411D01*
X0004248258Y0022416241D01*
X0004504624Y0022203479D01*
X0004515074Y0022192592D01*
X0004840631Y0021850361D01*
X0004841787Y0022213759D01*
X0004859065Y0022538327D01*
X0004903032Y0022793468D01*
X0004965186Y0022939015D01*
X0004999345Y0022958157D01*
X0005068921Y0022893007D01*
X0005205240Y0022720066D01*
X0005382116Y0022473098D01*
X0005431664Y0022400709D01*
X0005671112Y0022065372D01*
X0005861321Y0021852675D01*
X0006034535Y0021736823D01*
X0006223000Y0021692016D01*
X0006322298Y0021688157D01*
X0006644255Y0021752611D01*
X0006862295Y0021932828D01*
X0006974087Y0022209098D01*
X0006977302Y0022561709D01*
X0006869608Y0022970947D01*
X0006648676Y0023417101D01*
X0006545531Y0023576346D01*
X0006369220Y0023849371D01*
X0006293474Y0024021708D01*
X0006310419Y0024122728D01*
X0006385798Y0024172084D01*
X0006387989Y0024202292D01*
X0006254783Y0024220434D01*
X0006225106Y0024221473D01*
X0005990647Y0024182973D01*
X0005707749Y0024077979D01*
X0005590106Y0024017511D01*
X0005234536Y0023851093D01*
X0004974679Y0023816776D01*
X0004800548Y0023914366D01*
X0004747463Y0024001338D01*
X0004709471Y0024135970D01*
X0004751340Y0024263179D01*
X0004894691Y0024433552D01*
X0004960945Y0024500871D01*
X0005194418Y0024798151D01*
X0005263964Y0025038524D01*
X0005307127Y0025264509D01*
X0005386681Y0025408758D01*
X0005474704Y0025572597D01*
X0005419907Y0025681248D01*
X0005245204Y0025714252D01*
X0005077143Y0025685155D01*
X0004814557Y0025652341D01*
X0004608265Y0025697217D01*
X0004505836Y0025807071D01*
X0004501964Y0025838857D01*
X0004569927Y0025925573D01*
X0004737218Y0026038056D01*
X0004774671Y0026058164D01*
X0005046608Y0026239281D01*
X0005377817Y0026519954D01*
X0005729254Y0026861870D01*
X0006061873Y0027226717D01*
X0006336631Y0027576183D01*
X0006368578Y0027622171D01*
X0006647188Y0027987298D01*
X0006927767Y0028238879D01*
X0007270673Y0028422313D01*
X0007582559Y0028535270D01*
X0008015631Y0028674836D01*
X0007973298Y0029012663D01*
X0007955210Y0029250668D01*
X0007943097Y0029597490D01*
X0007938742Y0029992668D01*
X0007939615Y0030154824D01*
X0007963596Y0030681968D01*
X0008034008Y0031091320D01*
X0008167990Y0031431869D01*
X0008382681Y0031752605D01*
X0008577389Y0031977745D01*
X0009034080Y0032354407D01*
X0009580234Y0032589697D01*
X0010217270Y0032683884D01*
X0010946605Y0032637232D01*
G37*
X0010946605Y0032637232D02*
X0011494587Y0032525554D01*
X0012450844Y0032202703D01*
X0013307210Y0031744536D01*
X0014061081Y0031154331D01*
X0014709854Y0030435369D01*
X0015250925Y0029590931D01*
X0015681689Y0028624296D01*
X0015999542Y0027538745D01*
X0016162675Y0026645617D01*
X0016220239Y0026208276D01*
X0016248493Y0025907301D01*
X0016248204Y0025712415D01*
X0016220137Y0025593342D01*
X0016190498Y0025545953D01*
X0016074165Y0025453686D01*
X0015987656Y0025506960D01*
X0015921846Y0025715469D01*
X0015897300Y0025857530D01*
X0015771010Y0026331878D01*
X0015547716Y0026830631D01*
X0015264689Y0027275022D01*
X0015174633Y0027384905D01*
X0014856718Y0027657170D01*
X0014525554Y0027761388D01*
X0014175557Y0027698672D01*
X0014011288Y0027616793D01*
X0013810786Y0027505883D01*
X0013699001Y0027480555D01*
X0013621290Y0027536267D01*
X0013586592Y0027581475D01*
X0013489914Y0027785893D01*
X0013512985Y0028007383D01*
X0013643654Y0028268719D01*
X0013852949Y0028497192D01*
X0014107028Y0028610270D01*
X0014357661Y0028589935D01*
X0014419594Y0028558543D01*
X0014579230Y0028475928D01*
X0014646276Y0028506955D01*
X0014639840Y0028672181D01*
X0014621795Y0028776065D01*
X0014478931Y0029238971D01*
X0014245494Y0029561403D01*
X0013912698Y0029751163D01*
X0013471757Y0029816049D01*
X0013450144Y0029816157D01*
X0013143115Y0029780380D01*
X0012876021Y0029650300D01*
X0012755184Y0029560743D01*
X0012552325Y0029410965D01*
X0012421023Y0029359617D01*
X0012307110Y0029391692D01*
X0012256964Y0029422733D01*
X0012053692Y0029650469D01*
X0011989994Y0029961624D01*
X0012068125Y0030340536D01*
X0012110000Y0030443829D01*
X0012221428Y0030676872D01*
X0012319049Y0030790545D01*
X0012452906Y0030822310D01*
X0012605822Y0030815027D01*
X0012841049Y0030823906D01*
X0012926344Y0030892197D01*
X0012865764Y0031008875D01*
X0012663365Y0031162916D01*
X0012430430Y0031291608D01*
X0011913368Y0031497698D01*
X0011442383Y0031583925D01*
X0011037249Y0031552003D01*
X0010717738Y0031403643D01*
X0010503623Y0031140558D01*
X0010495852Y0031124013D01*
X0010362834Y0030944992D01*
X0010217439Y0030924781D01*
X0010083949Y0031056871D01*
X0010005298Y0031255491D01*
X0009924372Y0031466051D01*
X0009831808Y0031584598D01*
X0009803071Y0031594157D01*
X0009654125Y0031540785D01*
X0009437450Y0031406623D01*
X0009205064Y0031230603D01*
X0009008988Y0031051659D01*
X0008909032Y0030925047D01*
X0008816059Y0030638367D01*
X0008865936Y0030365516D01*
X0009066484Y0030080338D01*
X0009201384Y0029947046D01*
X0009413004Y0029738337D01*
X0009505272Y0029602406D01*
X0009495229Y0029511675D01*
X0009480784Y0029494844D01*
X0009289356Y0029399128D01*
X0009068004Y0029467958D01*
X0008933736Y0029574584D01*
X0008775212Y0029692059D01*
X0008657941Y0029683718D01*
X0008621381Y0029657682D01*
X0008570994Y0029583260D01*
X0008581360Y0029465262D01*
X0008661934Y0029268351D01*
X0008795328Y0029007558D01*
X0009025815Y0028622174D01*
X0009251336Y0028370605D01*
X0009509458Y0028222760D01*
X0009837749Y0028148549D01*
X0009873082Y0028144334D01*
X0010131930Y0028132951D01*
X0010307154Y0028188500D01*
X0010464527Y0028320357D01*
X0010604996Y0028499030D01*
X0010669359Y0028710170D01*
X0010682631Y0028965642D01*
X0010698534Y0029213990D01*
X0010739809Y0029366564D01*
X0010771146Y0029392824D01*
X0010934077Y0029319340D01*
X0011105460Y0029131839D01*
X0011249475Y0028879744D01*
X0011328588Y0028623715D01*
X0011445077Y0028260171D01*
X0011654427Y0028037646D01*
X0011954553Y0027956946D01*
X0012343374Y0028018877D01*
X0012618043Y0028124684D01*
X0012840421Y0028222729D01*
X0012989307Y0028283016D01*
X0013020210Y0028292157D01*
X0013040567Y0028216746D01*
X0013052226Y0028027462D01*
X0013053298Y0027938241D01*
X0013036268Y0027716824D01*
X0012964016Y0027542322D01*
X0012804801Y0027354334D01*
X0012686216Y0027239741D01*
X0012319134Y0026895157D01*
X0012509164Y0026471824D01*
X0012636629Y0026121131D01*
X0012735133Y0025733524D01*
X0012758932Y0025591328D01*
X0012818671Y0025134165D01*
X0012562554Y0025316536D01*
X0012368485Y0025481798D01*
X0012130219Y0025721532D01*
X0011952317Y0025921866D01*
X0011756072Y0026139485D01*
X0011591560Y0026292169D01*
X0011500247Y0026344891D01*
X0011335936Y0026387180D01*
X0011081745Y0026495916D01*
X0010789016Y0026644114D01*
X0010509094Y0026804789D01*
X0010293320Y0026950954D01*
X0010216964Y0027019379D01*
X0009876751Y0027294470D01*
X0009428833Y0027505647D01*
X0008921707Y0027643262D01*
X0008403869Y0027697670D01*
X0007923814Y0027659225D01*
X0007577736Y0027544326D01*
X0007257334Y0027306526D01*
X0007049586Y0026999189D01*
X0006963098Y0026659219D01*
X0007006475Y0026323519D01*
X0007188322Y0026028993D01*
X0007217689Y0026000187D01*
X0007365570Y0025849507D01*
X0007435414Y0025715229D01*
X0007445329Y0025533311D01*
X0007419355Y0025286924D01*
X0007360630Y0024816903D01*
X0007083993Y0024868801D01*
X0006875937Y0024881123D01*
X0006756050Y0024837310D01*
X0006753675Y0024833840D01*
X0006769944Y0024724859D01*
X0006863248Y0024519802D01*
X0007013834Y0024261536D01*
X0007026357Y0024242035D01*
X0007156372Y0024031152D01*
X0007254601Y0023836748D01*
X0007331941Y0023622090D01*
X0007399288Y0023350441D01*
X0007467540Y0022985070D01*
X0007547592Y0022489240D01*
X0007549032Y0022480024D01*
X0007745344Y0021222959D01*
X0007536530Y0020848938D01*
X0007346206Y0020583963D01*
X0007117652Y0020366864D01*
X0007036674Y0020313674D01*
X0006904052Y0020249054D01*
X0006762479Y0020207694D01*
X0006583765Y0020189745D01*
X0006339723Y0020195358D01*
X0006002166Y0020224682D01*
X0005542905Y0020277868D01*
X0005179298Y0020323579D01*
X0004787768Y0020354513D01*
X0004498884Y0020327374D01*
X0004343458Y0020278976D01*
X0004147880Y0020203512D01*
X0004033356Y0020165312D01*
X0004025958Y0020164157D01*
X0004006284Y0020239576D01*
X0003995007Y0020428904D01*
X0003993964Y0020518534D01*
X0004044322Y0020853642D01*
X0004178592Y0021069437D01*
X0004363219Y0021265964D01*
X0004145924Y0021498228D01*
X0003941053Y0021756517D01*
X0003781512Y0022029888D01*
X0003691420Y0022269938D01*
X0003688848Y0022415466D01*
X0003807456Y0022531112D01*
X0004004897Y0022528411D01*
X0004248258Y0022416241D01*
X0004504624Y0022203479D01*
X0004515074Y0022192592D01*
X0004840631Y0021850361D01*
X0004841787Y0022213759D01*
X0004859065Y0022538327D01*
X0004903032Y0022793468D01*
X0004965186Y0022939015D01*
X0004999345Y0022958157D01*
X0005068921Y0022893007D01*
X0005205240Y0022720066D01*
X0005382116Y0022473098D01*
X0005431664Y0022400709D01*
X0005671112Y0022065372D01*
X0005861321Y0021852675D01*
X0006034535Y0021736823D01*
X0006223000Y0021692016D01*
X0006322298Y0021688157D01*
X0006644255Y0021752611D01*
X0006862295Y0021932828D01*
X0006974087Y0022209098D01*
X0006977302Y0022561709D01*
X0006869608Y0022970947D01*
X0006648676Y0023417101D01*
X0006545531Y0023576346D01*
X0006369220Y0023849371D01*
X0006293474Y0024021708D01*
X0006310419Y0024122728D01*
X0006385798Y0024172084D01*
X0006387989Y0024202292D01*
X0006254783Y0024220434D01*
X0006225106Y0024221473D01*
X0005990647Y0024182973D01*
X0005707749Y0024077979D01*
X0005590106Y0024017511D01*
X0005234536Y0023851093D01*
X0004974679Y0023816776D01*
X0004800548Y0023914366D01*
X0004747463Y0024001338D01*
X0004709471Y0024135970D01*
X0004751340Y0024263179D01*
X0004894691Y0024433552D01*
X0004960945Y0024500871D01*
X0005194418Y0024798151D01*
X0005263964Y0025038524D01*
X0005307127Y0025264509D01*
X0005386681Y0025408758D01*
X0005474704Y0025572597D01*
X0005419907Y0025681248D01*
X0005245204Y0025714252D01*
X0005077143Y0025685155D01*
X0004814557Y0025652341D01*
X0004608265Y0025697217D01*
X0004505836Y0025807071D01*
X0004501964Y0025838857D01*
X0004569927Y0025925573D01*
X0004737218Y0026038056D01*
X0004774671Y0026058164D01*
X0005046608Y0026239281D01*
X0005377817Y0026519954D01*
X0005729254Y0026861870D01*
X0006061873Y0027226717D01*
X0006336631Y0027576183D01*
X0006368578Y0027622171D01*
X0006647188Y0027987298D01*
X0006927767Y0028238879D01*
X0007270673Y0028422313D01*
X0007582559Y0028535270D01*
X0008015631Y0028674836D01*
X0007973298Y0029012663D01*
X0007955210Y0029250668D01*
X0007943097Y0029597490D01*
X0007938742Y0029992668D01*
X0007939615Y0030154824D01*
X0007963596Y0030681968D01*
X0008034008Y0031091320D01*
X0008167990Y0031431869D01*
X0008382681Y0031752605D01*
X0008577389Y0031977745D01*
X0009034080Y0032354407D01*
X0009580234Y0032589697D01*
X0010217270Y0032683884D01*
X0010946605Y0032637232D01*
G36*
X0028213429Y0032829223D02*
G01*
X0028762515Y0032685928D01*
X0029260161Y0032397918D01*
X0029433108Y0032256610D01*
X0029711466Y0031994466D01*
X0029913595Y0031749016D01*
X0030051200Y0031485723D01*
X0030135988Y0031170048D01*
X0030179663Y0030767453D01*
X0030193932Y0030243399D01*
X0030194100Y0030011233D01*
X0030189902Y0028809308D01*
X0030509382Y0028755332D01*
X0030951995Y0028598649D01*
X0031391356Y0028284687D01*
X0031811865Y0027825047D01*
X0031876432Y0027738654D01*
X0032189593Y0027350797D01*
X0032551384Y0026969606D01*
X0032922174Y0026632240D01*
X0033262333Y0026375860D01*
X0033436798Y0026275615D01*
X0033618291Y0026171124D01*
X0033709445Y0026083853D01*
X0033711964Y0026073047D01*
X0033638321Y0025975591D01*
X0033459427Y0025911009D01*
X0033238333Y0025893519D01*
X0033063177Y0025926733D01*
X0032878683Y0025968031D01*
X0032771337Y0025945804D01*
X0032748894Y0025817629D01*
X0032796900Y0025592947D01*
X0032897045Y0025319460D01*
X0033031017Y0025044865D01*
X0033180506Y0024816862D01*
X0033224138Y0024766276D01*
X0033405389Y0024507166D01*
X0033424288Y0024290744D01*
X0033280683Y0024119149D01*
X0033270225Y0024112407D01*
X0033146729Y0024076980D01*
X0032967301Y0024114334D01*
X0032691062Y0024233704D01*
X0032654516Y0024251499D01*
X0032321852Y0024393759D01*
X0032052138Y0024469505D01*
X0031871416Y0024475192D01*
X0031805725Y0024407274D01*
X0031814562Y0024365888D01*
X0031796646Y0024235092D01*
X0031703472Y0024020387D01*
X0031602965Y0023845612D01*
X0031357464Y0023401178D01*
X0031198384Y0022989446D01*
X0031135784Y0022642879D01*
X0031163966Y0022428862D01*
X0031302986Y0022210557D01*
X0031509970Y0022031124D01*
X0031720665Y0021943972D01*
X0031749507Y0021942157D01*
X0032014792Y0022009831D01*
X0032297568Y0022184739D01*
X0032535625Y0022424711D01*
X0032597133Y0022516724D01*
X0032823382Y0022870383D01*
X0033012214Y0023093617D01*
X0033153672Y0023176039D01*
X0033209594Y0023155728D01*
X0033267687Y0023027745D01*
X0033321680Y0022795952D01*
X0033342862Y0022652289D01*
X0033392593Y0022232387D01*
X0033670812Y0022510605D01*
X0033909970Y0022688459D01*
X0034167791Y0022787787D01*
X0034391480Y0022793921D01*
X0034494981Y0022739585D01*
X0034502736Y0022625247D01*
X0034433128Y0022422292D01*
X0034309205Y0022178455D01*
X0034154014Y0021941472D01*
X0034048653Y0021815157D01*
X0033808054Y0021561157D01*
X0034014009Y0021323603D01*
X0034186569Y0021022145D01*
X0034192083Y0020702259D01*
X0034150513Y0020572621D01*
X0034091832Y0020479187D01*
X0033999431Y0020504542D01*
X0033923631Y0020558733D01*
X0033849975Y0020604565D01*
X0033754460Y0020635428D01*
X0033613992Y0020651050D01*
X0033405478Y0020651156D01*
X0033105825Y0020635473D01*
X0032691941Y0020603728D01*
X0032140732Y0020555646D01*
X0031910885Y0020534888D01*
X0031590190Y0020512898D01*
X0031373631Y0020526343D01*
X0031197657Y0020587096D01*
X0031002291Y0020704666D01*
X0030790362Y0020877317D01*
X0030646619Y0021054187D01*
X0030619619Y0021116818D01*
X0030607674Y0021284536D01*
X0030616466Y0021569296D01*
X0030643861Y0021920356D01*
X0030659685Y0022069157D01*
X0030701389Y0022499354D01*
X0030732509Y0022948239D01*
X0030747401Y0023331147D01*
X0030747936Y0023393009D01*
X0030756996Y0023704197D01*
X0030798052Y0023934292D01*
X0030893307Y0024152601D01*
X0031064965Y0024428434D01*
X0031093260Y0024470947D01*
X0031253414Y0024734121D01*
X0031356242Y0024949669D01*
X0031381997Y0025075332D01*
X0031378959Y0025082383D01*
X0031252073Y0025138360D01*
X0031004951Y0025127337D01*
X0030998834Y0025126371D01*
X0030677638Y0025075010D01*
X0030592392Y0025474700D01*
X0030548624Y0025710921D01*
X0030560685Y0025864073D01*
X0030651762Y0026000448D01*
X0030839555Y0026181268D01*
X0031046550Y0026396503D01*
X0031146039Y0026582376D01*
X0031171962Y0026802625D01*
X0031171964Y0026805588D01*
X0031099601Y0027215688D01*
X0030893789Y0027540601D01*
X0030571441Y0027773017D01*
X0030149473Y0027905624D01*
X0029644800Y0027931110D01*
X0029074335Y0027842163D01*
X0028891110Y0027791530D01*
X0028394659Y0027598722D01*
X0028015981Y0027363619D01*
X0027972101Y0027326120D01*
X0027579822Y0027031425D01*
X0027139968Y0026791038D01*
X0026755034Y0026653291D01*
X0026587906Y0026566800D01*
X0026356408Y0026388901D01*
X0026107246Y0026155997D01*
X0026077701Y0026125371D01*
X0025838641Y0025884890D01*
X0025624693Y0025687779D01*
X0025477649Y0025572276D01*
X0025465318Y0025565082D01*
X0025376308Y0025528154D01*
X0025335381Y0025563693D01*
X0025333970Y0025704133D01*
X0025360961Y0025960254D01*
X0025424959Y0026300397D01*
X0025524933Y0026630216D01*
X0025585440Y0026771051D01*
X0025703942Y0027016807D01*
X0025736066Y0027166371D01*
X0025673943Y0027273586D01*
X0025509702Y0027392293D01*
X0025493054Y0027403157D01*
X0025268462Y0027599516D01*
X0025100701Y0027838768D01*
X0025004662Y0028081274D01*
X0024995236Y0028287390D01*
X0025087315Y0028417475D01*
X0025108414Y0028427081D01*
X0025256585Y0028425109D01*
X0025479094Y0028364327D01*
X0025542087Y0028339757D01*
X0025916974Y0028231593D01*
X0026262776Y0028218863D01*
X0026527444Y0028302816D01*
X0026546221Y0028315678D01*
X0026654651Y0028461653D01*
X0026751834Y0028700332D01*
X0026778990Y0028802512D01*
X0026866649Y0029051879D01*
X0027002228Y0029293999D01*
X0027155656Y0029488807D01*
X0027296861Y0029596239D01*
X0027374920Y0029596484D01*
X0027417107Y0029492666D01*
X0027442884Y0029279376D01*
X0027446631Y0029148586D01*
X0027501037Y0028775540D01*
X0027668213Y0028527800D01*
X0027954093Y0028399296D01*
X0028201024Y0028376824D01*
X0028601906Y0028435467D01*
X0028923939Y0028622519D01*
X0029191421Y0028954662D01*
X0029282205Y0029119202D01*
X0029415426Y0029368067D01*
X0029526209Y0029549586D01*
X0029579763Y0029614667D01*
X0029645358Y0029719811D01*
X0029562214Y0029825774D01*
X0029507802Y0029851826D01*
X0029337188Y0029834508D01*
X0029169973Y0029719912D01*
X0029006814Y0029597240D01*
X0028860253Y0029592096D01*
X0028759802Y0029631037D01*
X0028608003Y0029732568D01*
X0028544374Y0029835960D01*
X0028590744Y0029897215D01*
X0028625936Y0029900824D01*
X0028728772Y0029954596D01*
X0028902183Y0030091411D01*
X0029006936Y0030185988D01*
X0029241785Y0030467283D01*
X0029320804Y0030735939D01*
X0029242615Y0031012745D01*
X0029005845Y0031318486D01*
X0028926811Y0031397004D01*
X0028624537Y0031649485D01*
X0028398077Y0031753101D01*
X0028243741Y0031708494D01*
X0028160839Y0031530658D01*
X0028111479Y0031320015D01*
X0028077216Y0031191991D01*
X0027979410Y0031097685D01*
X0027826182Y0031100673D01*
X0027692322Y0031189993D01*
X0027658998Y0031253282D01*
X0027493692Y0031509675D01*
X0027204992Y0031685802D01*
X0026827656Y0031761914D01*
X0026761014Y0031763491D01*
X0026353758Y0031713521D01*
X0025892950Y0031580132D01*
X0025455293Y0031388108D01*
X0025279809Y0031284913D01*
X0025139857Y0031175169D01*
X0025132460Y0031088992D01*
X0025188008Y0031022494D01*
X0025328088Y0030945212D01*
X0025483854Y0030993226D01*
X0025642982Y0031067393D01*
X0025746110Y0031054214D01*
X0025849129Y0030930525D01*
X0025923559Y0030810991D01*
X0026052999Y0030495215D01*
X0026090728Y0030160888D01*
X0026036809Y0029864880D01*
X0025922287Y0029688846D01*
X0025841087Y0029616083D01*
X0025770550Y0029581596D01*
X0025675588Y0029594401D01*
X0025521111Y0029663517D01*
X0025272031Y0029797961D01*
X0025075964Y0029906350D01*
X0024739190Y0030043470D01*
X0024420872Y0030048998D01*
X0024106164Y0029950229D01*
X0023812323Y0029764287D01*
X0023611791Y0029477154D01*
X0023484779Y0029059799D01*
X0023479149Y0029030439D01*
X0023438747Y0028796209D01*
X0023441919Y0028698227D01*
X0023500170Y0028706475D01*
X0023582348Y0028761109D01*
X0023830146Y0028872306D01*
X0024066157Y0028832398D01*
X0024320477Y0028637337D01*
X0024522569Y0028338631D01*
X0024559920Y0028019268D01*
X0024476059Y0027770633D01*
X0024384154Y0027598907D01*
X0024200893Y0027769923D01*
X0023884833Y0027968581D01*
X0023548987Y0028006361D01*
X0023209730Y0027887812D01*
X0022883437Y0027617482D01*
X0022675264Y0027346137D01*
X0022533528Y0027110975D01*
X0022412672Y0026861024D01*
X0022297105Y0026556294D01*
X0022171238Y0026156790D01*
X0022059408Y0025766283D01*
X0021970944Y0025685562D01*
X0021922086Y0025690383D01*
X0021866427Y0025793286D01*
X0021841581Y0026031213D01*
X0021846454Y0026372887D01*
X0021879951Y0026787033D01*
X0021940978Y0027242374D01*
X0021985278Y0027495873D01*
X0022260710Y0028549074D01*
X0022663790Y0029508449D01*
X0023185300Y0030365199D01*
X0023816022Y0031110524D01*
X0024546736Y0031735626D01*
X0025368225Y0032231705D01*
X0026271270Y0032589962D01*
X0027246653Y0032801597D01*
X0027581515Y0032837654D01*
X0028213429Y0032829223D01*
G37*
X0028213429Y0032829223D02*
X0028762515Y0032685928D01*
X0029260161Y0032397918D01*
X0029433108Y0032256610D01*
X0029711466Y0031994466D01*
X0029913595Y0031749016D01*
X0030051200Y0031485723D01*
X0030135988Y0031170048D01*
X0030179663Y0030767453D01*
X0030193932Y0030243399D01*
X0030194100Y0030011233D01*
X0030189902Y0028809308D01*
X0030509382Y0028755332D01*
X0030951995Y0028598649D01*
X0031391356Y0028284687D01*
X0031811865Y0027825047D01*
X0031876432Y0027738654D01*
X0032189593Y0027350797D01*
X0032551384Y0026969606D01*
X0032922174Y0026632240D01*
X0033262333Y0026375860D01*
X0033436798Y0026275615D01*
X0033618291Y0026171124D01*
X0033709445Y0026083853D01*
X0033711964Y0026073047D01*
X0033638321Y0025975591D01*
X0033459427Y0025911009D01*
X0033238333Y0025893519D01*
X0033063177Y0025926733D01*
X0032878683Y0025968031D01*
X0032771337Y0025945804D01*
X0032748894Y0025817629D01*
X0032796900Y0025592947D01*
X0032897045Y0025319460D01*
X0033031017Y0025044865D01*
X0033180506Y0024816862D01*
X0033224138Y0024766276D01*
X0033405389Y0024507166D01*
X0033424288Y0024290744D01*
X0033280683Y0024119149D01*
X0033270225Y0024112407D01*
X0033146729Y0024076980D01*
X0032967301Y0024114334D01*
X0032691062Y0024233704D01*
X0032654516Y0024251499D01*
X0032321852Y0024393759D01*
X0032052138Y0024469505D01*
X0031871416Y0024475192D01*
X0031805725Y0024407274D01*
X0031814562Y0024365888D01*
X0031796646Y0024235092D01*
X0031703472Y0024020387D01*
X0031602965Y0023845612D01*
X0031357464Y0023401178D01*
X0031198384Y0022989446D01*
X0031135784Y0022642879D01*
X0031163966Y0022428862D01*
X0031302986Y0022210557D01*
X0031509970Y0022031124D01*
X0031720665Y0021943972D01*
X0031749507Y0021942157D01*
X0032014792Y0022009831D01*
X0032297568Y0022184739D01*
X0032535625Y0022424711D01*
X0032597133Y0022516724D01*
X0032823382Y0022870383D01*
X0033012214Y0023093617D01*
X0033153672Y0023176039D01*
X0033209594Y0023155728D01*
X0033267687Y0023027745D01*
X0033321680Y0022795952D01*
X0033342862Y0022652289D01*
X0033392593Y0022232387D01*
X0033670812Y0022510605D01*
X0033909970Y0022688459D01*
X0034167791Y0022787787D01*
X0034391480Y0022793921D01*
X0034494981Y0022739585D01*
X0034502736Y0022625247D01*
X0034433128Y0022422292D01*
X0034309205Y0022178455D01*
X0034154014Y0021941472D01*
X0034048653Y0021815157D01*
X0033808054Y0021561157D01*
X0034014009Y0021323603D01*
X0034186569Y0021022145D01*
X0034192083Y0020702259D01*
X0034150513Y0020572621D01*
X0034091832Y0020479187D01*
X0033999431Y0020504542D01*
X0033923631Y0020558733D01*
X0033849975Y0020604565D01*
X0033754460Y0020635428D01*
X0033613992Y0020651050D01*
X0033405478Y0020651156D01*
X0033105825Y0020635473D01*
X0032691941Y0020603728D01*
X0032140732Y0020555646D01*
X0031910885Y0020534888D01*
X0031590190Y0020512898D01*
X0031373631Y0020526343D01*
X0031197657Y0020587096D01*
X0031002291Y0020704666D01*
X0030790362Y0020877317D01*
X0030646619Y0021054187D01*
X0030619619Y0021116818D01*
X0030607674Y0021284536D01*
X0030616466Y0021569296D01*
X0030643861Y0021920356D01*
X0030659685Y0022069157D01*
X0030701389Y0022499354D01*
X0030732509Y0022948239D01*
X0030747401Y0023331147D01*
X0030747936Y0023393009D01*
X0030756996Y0023704197D01*
X0030798052Y0023934292D01*
X0030893307Y0024152601D01*
X0031064965Y0024428434D01*
X0031093260Y0024470947D01*
X0031253414Y0024734121D01*
X0031356242Y0024949669D01*
X0031381997Y0025075332D01*
X0031378959Y0025082383D01*
X0031252073Y0025138360D01*
X0031004951Y0025127337D01*
X0030998834Y0025126371D01*
X0030677638Y0025075010D01*
X0030592392Y0025474700D01*
X0030548624Y0025710921D01*
X0030560685Y0025864073D01*
X0030651762Y0026000448D01*
X0030839555Y0026181268D01*
X0031046550Y0026396503D01*
X0031146039Y0026582376D01*
X0031171962Y0026802625D01*
X0031171964Y0026805588D01*
X0031099601Y0027215688D01*
X0030893789Y0027540601D01*
X0030571441Y0027773017D01*
X0030149473Y0027905624D01*
X0029644800Y0027931110D01*
X0029074335Y0027842163D01*
X0028891110Y0027791530D01*
X0028394659Y0027598722D01*
X0028015981Y0027363619D01*
X0027972101Y0027326120D01*
X0027579822Y0027031425D01*
X0027139968Y0026791038D01*
X0026755034Y0026653291D01*
X0026587906Y0026566800D01*
X0026356408Y0026388901D01*
X0026107246Y0026155997D01*
X0026077701Y0026125371D01*
X0025838641Y0025884890D01*
X0025624693Y0025687779D01*
X0025477649Y0025572276D01*
X0025465318Y0025565082D01*
X0025376308Y0025528154D01*
X0025335381Y0025563693D01*
X0025333970Y0025704133D01*
X0025360961Y0025960254D01*
X0025424959Y0026300397D01*
X0025524933Y0026630216D01*
X0025585440Y0026771051D01*
X0025703942Y0027016807D01*
X0025736066Y0027166371D01*
X0025673943Y0027273586D01*
X0025509702Y0027392293D01*
X0025493054Y0027403157D01*
X0025268462Y0027599516D01*
X0025100701Y0027838768D01*
X0025004662Y0028081274D01*
X0024995236Y0028287390D01*
X0025087315Y0028417475D01*
X0025108414Y0028427081D01*
X0025256585Y0028425109D01*
X0025479094Y0028364327D01*
X0025542087Y0028339757D01*
X0025916974Y0028231593D01*
X0026262776Y0028218863D01*
X0026527444Y0028302816D01*
X0026546221Y0028315678D01*
X0026654651Y0028461653D01*
X0026751834Y0028700332D01*
X0026778990Y0028802512D01*
X0026866649Y0029051879D01*
X0027002228Y0029293999D01*
X0027155656Y0029488807D01*
X0027296861Y0029596239D01*
X0027374920Y0029596484D01*
X0027417107Y0029492666D01*
X0027442884Y0029279376D01*
X0027446631Y0029148586D01*
X0027501037Y0028775540D01*
X0027668213Y0028527800D01*
X0027954093Y0028399296D01*
X0028201024Y0028376824D01*
X0028601906Y0028435467D01*
X0028923939Y0028622519D01*
X0029191421Y0028954662D01*
X0029282205Y0029119202D01*
X0029415426Y0029368067D01*
X0029526209Y0029549586D01*
X0029579763Y0029614667D01*
X0029645358Y0029719811D01*
X0029562214Y0029825774D01*
X0029507802Y0029851826D01*
X0029337188Y0029834508D01*
X0029169973Y0029719912D01*
X0029006814Y0029597240D01*
X0028860253Y0029592096D01*
X0028759802Y0029631037D01*
X0028608003Y0029732568D01*
X0028544374Y0029835960D01*
X0028590744Y0029897215D01*
X0028625936Y0029900824D01*
X0028728772Y0029954596D01*
X0028902183Y0030091411D01*
X0029006936Y0030185988D01*
X0029241785Y0030467283D01*
X0029320804Y0030735939D01*
X0029242615Y0031012745D01*
X0029005845Y0031318486D01*
X0028926811Y0031397004D01*
X0028624537Y0031649485D01*
X0028398077Y0031753101D01*
X0028243741Y0031708494D01*
X0028160839Y0031530658D01*
X0028111479Y0031320015D01*
X0028077216Y0031191991D01*
X0027979410Y0031097685D01*
X0027826182Y0031100673D01*
X0027692322Y0031189993D01*
X0027658998Y0031253282D01*
X0027493692Y0031509675D01*
X0027204992Y0031685802D01*
X0026827656Y0031761914D01*
X0026761014Y0031763491D01*
X0026353758Y0031713521D01*
X0025892950Y0031580132D01*
X0025455293Y0031388108D01*
X0025279809Y0031284913D01*
X0025139857Y0031175169D01*
X0025132460Y0031088992D01*
X0025188008Y0031022494D01*
X0025328088Y0030945212D01*
X0025483854Y0030993226D01*
X0025642982Y0031067393D01*
X0025746110Y0031054214D01*
X0025849129Y0030930525D01*
X0025923559Y0030810991D01*
X0026052999Y0030495215D01*
X0026090728Y0030160888D01*
X0026036809Y0029864880D01*
X0025922287Y0029688846D01*
X0025841087Y0029616083D01*
X0025770550Y0029581596D01*
X0025675588Y0029594401D01*
X0025521111Y0029663517D01*
X0025272031Y0029797961D01*
X0025075964Y0029906350D01*
X0024739190Y0030043470D01*
X0024420872Y0030048998D01*
X0024106164Y0029950229D01*
X0023812323Y0029764287D01*
X0023611791Y0029477154D01*
X0023484779Y0029059799D01*
X0023479149Y0029030439D01*
X0023438747Y0028796209D01*
X0023441919Y0028698227D01*
X0023500170Y0028706475D01*
X0023582348Y0028761109D01*
X0023830146Y0028872306D01*
X0024066157Y0028832398D01*
X0024320477Y0028637337D01*
X0024522569Y0028338631D01*
X0024559920Y0028019268D01*
X0024476059Y0027770633D01*
X0024384154Y0027598907D01*
X0024200893Y0027769923D01*
X0023884833Y0027968581D01*
X0023548987Y0028006361D01*
X0023209730Y0027887812D01*
X0022883437Y0027617482D01*
X0022675264Y0027346137D01*
X0022533528Y0027110975D01*
X0022412672Y0026861024D01*
X0022297105Y0026556294D01*
X0022171238Y0026156790D01*
X0022059408Y0025766283D01*
X0021970944Y0025685562D01*
X0021922086Y0025690383D01*
X0021866427Y0025793286D01*
X0021841581Y0026031213D01*
X0021846454Y0026372887D01*
X0021879951Y0026787033D01*
X0021940978Y0027242374D01*
X0021985278Y0027495873D01*
X0022260710Y0028549074D01*
X0022663790Y0029508449D01*
X0023185300Y0030365199D01*
X0023816022Y0031110524D01*
X0024546736Y0031735626D01*
X0025368225Y0032231705D01*
X0026271270Y0032589962D01*
X0027246653Y0032801597D01*
X0027581515Y0032837654D01*
X0028213429Y0032829223D01*
G36*
X0019067865Y0034253478D02*
G01*
X0019156489Y0034169767D01*
X0019397721Y0033876613D01*
X0019631749Y0033486448D01*
X0019833271Y0033054219D01*
X0019976981Y0032634876D01*
X0020037574Y0032283367D01*
X0020038088Y0032255401D01*
X0020048147Y0032019289D01*
X0020073529Y0031872417D01*
X0020091458Y0031848420D01*
X0020197100Y0031878121D01*
X0020392519Y0031952111D01*
X0020448572Y0031975158D01*
X0020920315Y0032100410D01*
X0021344881Y0032069400D01*
X0021707919Y0031886864D01*
X0021995074Y0031557538D01*
X0022057746Y0031444044D01*
X0022229518Y0031063114D01*
X0022311928Y0030753170D01*
X0022313474Y0030447006D01*
X0022242656Y0030077416D01*
X0022234641Y0030045172D01*
X0022136702Y0029674834D01*
X0022055781Y0029454403D01*
X0021971814Y0029368566D01*
X0021864737Y0029402007D01*
X0021714485Y0029539411D01*
X0021654480Y0029602336D01*
X0021468778Y0029787858D01*
X0021320615Y0029877566D01*
X0021138572Y0029897313D01*
X0020894489Y0029877436D01*
X0020582618Y0029826237D01*
X0020301379Y0029748844D01*
X0020195080Y0029704558D01*
X0019930998Y0029482623D01*
X0019713460Y0029133849D01*
X0019563290Y0028698768D01*
X0019510007Y0028371284D01*
X0019464446Y0027868824D01*
X0019007881Y0027868824D01*
X0018703627Y0027888555D01*
X0018539637Y0027944999D01*
X0018518237Y0027974657D01*
X0018483919Y0028122225D01*
X0018440215Y0028355734D01*
X0018429537Y0028419157D01*
X0018281436Y0028971313D01*
X0018043423Y0029390214D01*
X0017721046Y0029669835D01*
X0017319853Y0029804147D01*
X0017143976Y0029815841D01*
X0016706654Y0029769842D01*
X0016406289Y0029629483D01*
X0016255001Y0029434665D01*
X0016150920Y0029277255D01*
X0016046267Y0029274715D01*
X0015933503Y0029431607D01*
X0015825281Y0029694747D01*
X0015712349Y0030209490D01*
X0015726440Y0030722469D01*
X0015858344Y0031196533D01*
X0016098847Y0031594532D01*
X0016354017Y0031826991D01*
X0016626482Y0031971029D01*
X0016890676Y0032003902D01*
X0017196794Y0031924770D01*
X0017450351Y0031808669D01*
X0017862441Y0031599847D01*
X0017771548Y0031840649D01*
X0017734664Y0031992754D01*
X0017744319Y0032172223D01*
X0017807571Y0032423197D01*
X0017916608Y0032747971D01*
X0018159067Y0033358421D01*
X0018407948Y0033844641D01*
X0018653027Y0034187543D01*
X0018728179Y0034263162D01*
X0018842548Y0034352776D01*
X0018936771Y0034353692D01*
X0019067865Y0034253478D01*
G37*
X0019067865Y0034253478D02*
X0019156489Y0034169767D01*
X0019397721Y0033876613D01*
X0019631749Y0033486448D01*
X0019833271Y0033054219D01*
X0019976981Y0032634876D01*
X0020037574Y0032283367D01*
X0020038088Y0032255401D01*
X0020048147Y0032019289D01*
X0020073529Y0031872417D01*
X0020091458Y0031848420D01*
X0020197100Y0031878121D01*
X0020392519Y0031952111D01*
X0020448572Y0031975158D01*
X0020920315Y0032100410D01*
X0021344881Y0032069400D01*
X0021707919Y0031886864D01*
X0021995074Y0031557538D01*
X0022057746Y0031444044D01*
X0022229518Y0031063114D01*
X0022311928Y0030753170D01*
X0022313474Y0030447006D01*
X0022242656Y0030077416D01*
X0022234641Y0030045172D01*
X0022136702Y0029674834D01*
X0022055781Y0029454403D01*
X0021971814Y0029368566D01*
X0021864737Y0029402007D01*
X0021714485Y0029539411D01*
X0021654480Y0029602336D01*
X0021468778Y0029787858D01*
X0021320615Y0029877566D01*
X0021138572Y0029897313D01*
X0020894489Y0029877436D01*
X0020582618Y0029826237D01*
X0020301379Y0029748844D01*
X0020195080Y0029704558D01*
X0019930998Y0029482623D01*
X0019713460Y0029133849D01*
X0019563290Y0028698768D01*
X0019510007Y0028371284D01*
X0019464446Y0027868824D01*
X0019007881Y0027868824D01*
X0018703627Y0027888555D01*
X0018539637Y0027944999D01*
X0018518237Y0027974657D01*
X0018483919Y0028122225D01*
X0018440215Y0028355734D01*
X0018429537Y0028419157D01*
X0018281436Y0028971313D01*
X0018043423Y0029390214D01*
X0017721046Y0029669835D01*
X0017319853Y0029804147D01*
X0017143976Y0029815841D01*
X0016706654Y0029769842D01*
X0016406289Y0029629483D01*
X0016255001Y0029434665D01*
X0016150920Y0029277255D01*
X0016046267Y0029274715D01*
X0015933503Y0029431607D01*
X0015825281Y0029694747D01*
X0015712349Y0030209490D01*
X0015726440Y0030722469D01*
X0015858344Y0031196533D01*
X0016098847Y0031594532D01*
X0016354017Y0031826991D01*
X0016626482Y0031971029D01*
X0016890676Y0032003902D01*
X0017196794Y0031924770D01*
X0017450351Y0031808669D01*
X0017862441Y0031599847D01*
X0017771548Y0031840649D01*
X0017734664Y0031992754D01*
X0017744319Y0032172223D01*
X0017807571Y0032423197D01*
X0017916608Y0032747971D01*
X0018159067Y0033358421D01*
X0018407948Y0033844641D01*
X0018653027Y0034187543D01*
X0018728179Y0034263162D01*
X0018842548Y0034352776D01*
X0018936771Y0034353692D01*
X0019067865Y0034253478D01*
G36*
X0015931964Y0029011824D02*
G01*
X0015889631Y0028969491D01*
X0015847298Y0029011824D01*
X0015889631Y0029054157D01*
X0015931964Y0029011824D01*
G37*
X0015931964Y0029011824D02*
X0015889631Y0028969491D01*
X0015847298Y0029011824D01*
X0015889631Y0029054157D01*
X0015931964Y0029011824D01*
G36*
X0022197298Y0029181157D02*
G01*
X0022154964Y0029138824D01*
X0022112631Y0029181157D01*
X0022154964Y0029223491D01*
X0022197298Y0029181157D01*
G37*
X0022197298Y0029181157D02*
X0022154964Y0029138824D01*
X0022112631Y0029181157D01*
X0022154964Y0029223491D01*
X0022197298Y0029181157D01*
G36*
X0017345411Y0005466944D02*
G01*
X0017442374Y0005301174D01*
X0017525865Y0005078593D01*
X0017503661Y0004964947D01*
X0017360915Y0004926270D01*
X0017277572Y0004924157D01*
X0017100265Y0004940268D01*
X0017055782Y0005005632D01*
X0017075512Y0005072324D01*
X0017153236Y0005285614D01*
X0017179111Y0005368657D01*
X0017252013Y0005501698D01*
X0017345411Y0005466944D01*
G37*
X0017345411Y0005466944D02*
X0017442374Y0005301174D01*
X0017525865Y0005078593D01*
X0017503661Y0004964947D01*
X0017360915Y0004926270D01*
X0017277572Y0004924157D01*
X0017100265Y0004940268D01*
X0017055782Y0005005632D01*
X0017075512Y0005072324D01*
X0017153236Y0005285614D01*
X0017179111Y0005368657D01*
X0017252013Y0005501698D01*
X0017345411Y0005466944D01*
G36*
X0014253589Y0005221834D02*
G01*
X0014419229Y0005119425D01*
X0014473374Y0004986436D01*
X0014452590Y0004927866D01*
X0014337730Y0004869675D01*
X0014135666Y0004841934D01*
X0013926423Y0004848483D01*
X0013790025Y0004893160D01*
X0013787075Y0004895935D01*
X0013738586Y0005020439D01*
X0013730631Y0005107602D01*
X0013771881Y0005217623D01*
X0013922565Y0005259937D01*
X0014016597Y0005262824D01*
X0014253589Y0005221834D01*
G37*
X0014253589Y0005221834D02*
X0014419229Y0005119425D01*
X0014473374Y0004986436D01*
X0014452590Y0004927866D01*
X0014337730Y0004869675D01*
X0014135666Y0004841934D01*
X0013926423Y0004848483D01*
X0013790025Y0004893160D01*
X0013787075Y0004895935D01*
X0013738586Y0005020439D01*
X0013730631Y0005107602D01*
X0013771881Y0005217623D01*
X0013922565Y0005259937D01*
X0014016597Y0005262824D01*
X0014253589Y0005221834D01*
G36*
X0014317732Y0005898022D02*
G01*
X0014459616Y0005791041D01*
X0014465292Y0005652369D01*
X0014340849Y0005549433D01*
X0014099079Y0005533606D01*
X0013887890Y0005573436D01*
X0013779104Y0005657472D01*
X0013788098Y0005781250D01*
X0013890523Y0005892466D01*
X0014058006Y0005938861D01*
X0014317732Y0005898022D01*
G37*
X0014317732Y0005898022D02*
X0014459616Y0005791041D01*
X0014465292Y0005652369D01*
X0014340849Y0005549433D01*
X0014099079Y0005533606D01*
X0013887890Y0005573436D01*
X0013779104Y0005657472D01*
X0013788098Y0005781250D01*
X0013890523Y0005892466D01*
X0014058006Y0005938861D01*
X0014317732Y0005898022D01*
G36*
X0024465908Y0005974113D02*
G01*
X0024525175Y0005856927D01*
X0024541598Y0005670411D01*
X0024434011Y0005548733D01*
X0024182022Y0005471640D01*
X0024127784Y0005462226D01*
X0023926028Y0005442645D01*
X0023830736Y0005494782D01*
X0023783592Y0005651351D01*
X0023782735Y0005655800D01*
X0023754678Y0005830894D01*
X0023784162Y0005922169D01*
X0023909349Y0005967538D01*
X0024128772Y0005999568D01*
X0024351882Y0006016408D01*
X0024465908Y0005974113D01*
G37*
X0024465908Y0005974113D02*
X0024525175Y0005856927D01*
X0024541598Y0005670411D01*
X0024434011Y0005548733D01*
X0024182022Y0005471640D01*
X0024127784Y0005462226D01*
X0023926028Y0005442645D01*
X0023830736Y0005494782D01*
X0023783592Y0005651351D01*
X0023782735Y0005655800D01*
X0023754678Y0005830894D01*
X0023784162Y0005922169D01*
X0023909349Y0005967538D01*
X0024128772Y0005999568D01*
X0024351882Y0006016408D01*
X0024465908Y0005974113D01*
G36*
X0021249823Y0022492216D02*
G01*
X0021265964Y0022489725D01*
X0021905902Y0022329187D01*
X0022429279Y0022077546D01*
X0022823871Y0021743394D01*
X0023077454Y0021335320D01*
X0023129677Y0021180157D01*
X0023177637Y0020962251D01*
X0023183968Y0020764547D01*
X0023143630Y0020528727D01*
X0023051586Y0020196467D01*
X0023041894Y0020164157D01*
X0022921656Y0019756090D01*
X0022857469Y0019481395D01*
X0022856834Y0019311221D01*
X0022927253Y0019216716D01*
X0023076228Y0019169028D01*
X0023308293Y0019139627D01*
X0023884508Y0018998973D01*
X0024394318Y0018718948D01*
X0024769564Y0018360218D01*
X0024979771Y0017973922D01*
X0025072344Y0017481737D01*
X0025047083Y0016880010D01*
X0024903790Y0016165086D01*
X0024642264Y0015333312D01*
X0024597624Y0015211157D01*
X0024458857Y0014872695D01*
X0024307201Y0014603181D01*
X0024113666Y0014373270D01*
X0023849260Y0014153619D01*
X0023484995Y0013914882D01*
X0023086298Y0013681356D01*
X0022674580Y0013439452D01*
X0022250178Y0013178245D01*
X0021874414Y0012935995D01*
X0021690459Y0012810474D01*
X0021141287Y0012422384D01*
X0020039459Y0012366135D01*
X0018966587Y0012313665D01*
X0018042745Y0012273347D01*
X0017271090Y0012245257D01*
X0016654777Y0012229469D01*
X0016196962Y0012226057D01*
X0015900800Y0012235096D01*
X0015769448Y0012256660D01*
X0015762631Y0012265091D01*
X0015834509Y0012404341D01*
X0016024723Y0012578084D01*
X0016295139Y0012756069D01*
X0016533815Y0012876883D01*
X0017118001Y0013085276D01*
X0017790961Y0013228984D01*
X0018569679Y0013309653D01*
X0019471140Y0013328927D01*
X0020512331Y0013288453D01*
X0020673298Y0013277901D01*
X0021646964Y0013211175D01*
X0022364438Y0013663509D01*
X0023081913Y0014115844D01*
X0023353692Y0014978896D01*
X0023510779Y0015527725D01*
X0023647942Y0016102187D01*
X0023758529Y0016664522D01*
X0023835885Y0017176970D01*
X0023873353Y0017601771D01*
X0023866267Y0017887366D01*
X0023737196Y0018321496D01*
X0023485174Y0018640931D01*
X0023115829Y0018841160D01*
X0022634789Y0018917674D01*
X0022579448Y0018918348D01*
X0022386491Y0018910960D01*
X0022202955Y0018881245D01*
X0022005452Y0018817877D01*
X0021770596Y0018709528D01*
X0021475000Y0018544872D01*
X0021095277Y0018312583D01*
X0020608042Y0018001334D01*
X0020376964Y0017851642D01*
X0019276298Y0017136997D01*
X0019207985Y0016175408D01*
X0019155814Y0015607295D01*
X0019081291Y0015174661D01*
X0018969491Y0014843817D01*
X0018805490Y0014581071D01*
X0018574366Y0014352734D01*
X0018316076Y0014161955D01*
X0017980839Y0013946066D01*
X0017762442Y0013835188D01*
X0017648925Y0013824396D01*
X0017625413Y0013877657D01*
X0017639701Y0013984802D01*
X0017677721Y0014215952D01*
X0017732377Y0014528610D01*
X0017756190Y0014660824D01*
X0017798570Y0014967516D01*
X0017841464Y0015410164D01*
X0017882464Y0015955415D01*
X0017919165Y0016569917D01*
X0017949159Y0017220316D01*
X0017957784Y0017454824D01*
X0017988521Y0018264987D01*
X0018026598Y0018928928D01*
X0018030533Y0018967198D01*
X0019068560Y0018967198D01*
X0019075908Y0018472303D01*
X0019104077Y0018071709D01*
X0019151941Y0017787013D01*
X0019218373Y0017639808D01*
X0019252788Y0017624157D01*
X0019345322Y0017669929D01*
X0019553625Y0017797218D01*
X0019854358Y0017990990D01*
X0020224183Y0018236206D01*
X0020637350Y0018516183D01*
X0021057311Y0018809773D01*
X0021432295Y0019083496D01*
X0021737981Y0019318671D01*
X0021950049Y0019496615D01*
X0022042673Y0019595683D01*
X0022094703Y0019775318D01*
X0022130089Y0020059858D01*
X0022140851Y0020360524D01*
X0022105096Y0020806152D01*
X0021991023Y0021130819D01*
X0021777855Y0021372823D01*
X0021498564Y0021544465D01*
X0021178250Y0021686754D01*
X0020912706Y0021749042D01*
X0020657868Y0021725342D01*
X0020369675Y0021609667D01*
X0020004062Y0021396030D01*
X0019895427Y0021326631D01*
X0019176018Y0020862534D01*
X0019120832Y0020153512D01*
X0019083159Y0019534799D01*
X0019068560Y0018967198D01*
X0018030533Y0018967198D01*
X0018082215Y0019469737D01*
X0018165569Y0019910502D01*
X0018286862Y0020274310D01*
X0018456290Y0020584250D01*
X0018684055Y0020863411D01*
X0018980356Y0021134880D01*
X0019355390Y0021421745D01*
X0019819359Y0021747096D01*
X0019868964Y0021781210D01*
X0020291854Y0022069111D01*
X0020602999Y0022271680D01*
X0020828383Y0022402096D01*
X0020993992Y0022473539D01*
X0021125810Y0022499186D01*
X0021249823Y0022492216D01*
G37*
X0021249823Y0022492216D02*
X0021265964Y0022489725D01*
X0021905902Y0022329187D01*
X0022429279Y0022077546D01*
X0022823871Y0021743394D01*
X0023077454Y0021335320D01*
X0023129677Y0021180157D01*
X0023177637Y0020962251D01*
X0023183968Y0020764547D01*
X0023143630Y0020528727D01*
X0023051586Y0020196467D01*
X0023041894Y0020164157D01*
X0022921656Y0019756090D01*
X0022857469Y0019481395D01*
X0022856834Y0019311221D01*
X0022927253Y0019216716D01*
X0023076228Y0019169028D01*
X0023308293Y0019139627D01*
X0023884508Y0018998973D01*
X0024394318Y0018718948D01*
X0024769564Y0018360218D01*
X0024979771Y0017973922D01*
X0025072344Y0017481737D01*
X0025047083Y0016880010D01*
X0024903790Y0016165086D01*
X0024642264Y0015333312D01*
X0024597624Y0015211157D01*
X0024458857Y0014872695D01*
X0024307201Y0014603181D01*
X0024113666Y0014373270D01*
X0023849260Y0014153619D01*
X0023484995Y0013914882D01*
X0023086298Y0013681356D01*
X0022674580Y0013439452D01*
X0022250178Y0013178245D01*
X0021874414Y0012935995D01*
X0021690459Y0012810474D01*
X0021141287Y0012422384D01*
X0020039459Y0012366135D01*
X0018966587Y0012313665D01*
X0018042745Y0012273347D01*
X0017271090Y0012245257D01*
X0016654777Y0012229469D01*
X0016196962Y0012226057D01*
X0015900800Y0012235096D01*
X0015769448Y0012256660D01*
X0015762631Y0012265091D01*
X0015834509Y0012404341D01*
X0016024723Y0012578084D01*
X0016295139Y0012756069D01*
X0016533815Y0012876883D01*
X0017118001Y0013085276D01*
X0017790961Y0013228984D01*
X0018569679Y0013309653D01*
X0019471140Y0013328927D01*
X0020512331Y0013288453D01*
X0020673298Y0013277901D01*
X0021646964Y0013211175D01*
X0022364438Y0013663509D01*
X0023081913Y0014115844D01*
X0023353692Y0014978896D01*
X0023510779Y0015527725D01*
X0023647942Y0016102187D01*
X0023758529Y0016664522D01*
X0023835885Y0017176970D01*
X0023873353Y0017601771D01*
X0023866267Y0017887366D01*
X0023737196Y0018321496D01*
X0023485174Y0018640931D01*
X0023115829Y0018841160D01*
X0022634789Y0018917674D01*
X0022579448Y0018918348D01*
X0022386491Y0018910960D01*
X0022202955Y0018881245D01*
X0022005452Y0018817877D01*
X0021770596Y0018709528D01*
X0021475000Y0018544872D01*
X0021095277Y0018312583D01*
X0020608042Y0018001334D01*
X0020376964Y0017851642D01*
X0019276298Y0017136997D01*
X0019207985Y0016175408D01*
X0019155814Y0015607295D01*
X0019081291Y0015174661D01*
X0018969491Y0014843817D01*
X0018805490Y0014581071D01*
X0018574366Y0014352734D01*
X0018316076Y0014161955D01*
X0017980839Y0013946066D01*
X0017762442Y0013835188D01*
X0017648925Y0013824396D01*
X0017625413Y0013877657D01*
X0017639701Y0013984802D01*
X0017677721Y0014215952D01*
X0017732377Y0014528610D01*
X0017756190Y0014660824D01*
X0017798570Y0014967516D01*
X0017841464Y0015410164D01*
X0017882464Y0015955415D01*
X0017919165Y0016569917D01*
X0017949159Y0017220316D01*
X0017957784Y0017454824D01*
X0017988521Y0018264987D01*
X0018026598Y0018928928D01*
X0018030533Y0018967198D01*
X0019068560Y0018967198D01*
X0019075908Y0018472303D01*
X0019104077Y0018071709D01*
X0019151941Y0017787013D01*
X0019218373Y0017639808D01*
X0019252788Y0017624157D01*
X0019345322Y0017669929D01*
X0019553625Y0017797218D01*
X0019854358Y0017990990D01*
X0020224183Y0018236206D01*
X0020637350Y0018516183D01*
X0021057311Y0018809773D01*
X0021432295Y0019083496D01*
X0021737981Y0019318671D01*
X0021950049Y0019496615D01*
X0022042673Y0019595683D01*
X0022094703Y0019775318D01*
X0022130089Y0020059858D01*
X0022140851Y0020360524D01*
X0022105096Y0020806152D01*
X0021991023Y0021130819D01*
X0021777855Y0021372823D01*
X0021498564Y0021544465D01*
X0021178250Y0021686754D01*
X0020912706Y0021749042D01*
X0020657868Y0021725342D01*
X0020369675Y0021609667D01*
X0020004062Y0021396030D01*
X0019895427Y0021326631D01*
X0019176018Y0020862534D01*
X0019120832Y0020153512D01*
X0019083159Y0019534799D01*
X0019068560Y0018967198D01*
X0018030533Y0018967198D01*
X0018082215Y0019469737D01*
X0018165569Y0019910502D01*
X0018286862Y0020274310D01*
X0018456290Y0020584250D01*
X0018684055Y0020863411D01*
X0018980356Y0021134880D01*
X0019355390Y0021421745D01*
X0019819359Y0021747096D01*
X0019868964Y0021781210D01*
X0020291854Y0022069111D01*
X0020602999Y0022271680D01*
X0020828383Y0022402096D01*
X0020993992Y0022473539D01*
X0021125810Y0022499186D01*
X0021249823Y0022492216D01*
G36*
X0017093297Y0020600379D02*
G01*
X0017137298Y0020524585D01*
X0017138743Y0020333162D01*
X0017133452Y0020248824D01*
X0017125363Y0020059525D01*
X0017116472Y0019728939D01*
X0017107314Y0019285105D01*
X0017098422Y0018756064D01*
X0017090331Y0018169856D01*
X0017085100Y0017708824D01*
X0017074955Y0016960446D01*
X0017059464Y0016357954D01*
X0017035503Y0015877915D01*
X0016999946Y0015496897D01*
X0016949669Y0015191467D01*
X0016881545Y0014938191D01*
X0016792449Y0014713638D01*
X0016679256Y0014494374D01*
X0016649397Y0014442076D01*
X0016495699Y0014220779D01*
X0016288024Y0013977021D01*
X0016063189Y0013747688D01*
X0015858010Y0013569668D01*
X0015709304Y0013479846D01*
X0015684645Y0013475491D01*
X0015544706Y0013447567D01*
X0015462418Y0013419953D01*
X0015373039Y0013405179D01*
X0015346449Y0013480892D01*
X0015370760Y0013683545D01*
X0015372675Y0013695120D01*
X0015398650Y0013911334D01*
X0015427680Y0014248868D01*
X0015456057Y0014659844D01*
X0015478162Y0015056824D01*
X0015528662Y0016087823D01*
X0015302286Y0016314199D01*
X0015116297Y0016465617D01*
X0014933525Y0016504749D01*
X0014782830Y0016485593D01*
X0014521263Y0016457958D01*
X0014396130Y0016512929D01*
X0014387559Y0016667983D01*
X0014424749Y0016800529D01*
X0014643327Y0017202953D01*
X0014983139Y0017519365D01*
X0015103954Y0017590745D01*
X0015274744Y0017704179D01*
X0015401109Y0017860529D01*
X0015497236Y0018092493D01*
X0015577313Y0018432767D01*
X0015643894Y0018835197D01*
X0015742907Y0019372322D01*
X0015866012Y0019770231D01*
X0016028684Y0020058823D01*
X0016246397Y0020267998D01*
X0016446902Y0020386701D01*
X0016703731Y0020503081D01*
X0016922688Y0020583917D01*
X0016990298Y0020600995D01*
X0017093297Y0020600379D01*
G37*
X0017093297Y0020600379D02*
X0017137298Y0020524585D01*
X0017138743Y0020333162D01*
X0017133452Y0020248824D01*
X0017125363Y0020059525D01*
X0017116472Y0019728939D01*
X0017107314Y0019285105D01*
X0017098422Y0018756064D01*
X0017090331Y0018169856D01*
X0017085100Y0017708824D01*
X0017074955Y0016960446D01*
X0017059464Y0016357954D01*
X0017035503Y0015877915D01*
X0016999946Y0015496897D01*
X0016949669Y0015191467D01*
X0016881545Y0014938191D01*
X0016792449Y0014713638D01*
X0016679256Y0014494374D01*
X0016649397Y0014442076D01*
X0016495699Y0014220779D01*
X0016288024Y0013977021D01*
X0016063189Y0013747688D01*
X0015858010Y0013569668D01*
X0015709304Y0013479846D01*
X0015684645Y0013475491D01*
X0015544706Y0013447567D01*
X0015462418Y0013419953D01*
X0015373039Y0013405179D01*
X0015346449Y0013480892D01*
X0015370760Y0013683545D01*
X0015372675Y0013695120D01*
X0015398650Y0013911334D01*
X0015427680Y0014248868D01*
X0015456057Y0014659844D01*
X0015478162Y0015056824D01*
X0015528662Y0016087823D01*
X0015302286Y0016314199D01*
X0015116297Y0016465617D01*
X0014933525Y0016504749D01*
X0014782830Y0016485593D01*
X0014521263Y0016457958D01*
X0014396130Y0016512929D01*
X0014387559Y0016667983D01*
X0014424749Y0016800529D01*
X0014643327Y0017202953D01*
X0014983139Y0017519365D01*
X0015103954Y0017590745D01*
X0015274744Y0017704179D01*
X0015401109Y0017860529D01*
X0015497236Y0018092493D01*
X0015577313Y0018432767D01*
X0015643894Y0018835197D01*
X0015742907Y0019372322D01*
X0015866012Y0019770231D01*
X0016028684Y0020058823D01*
X0016246397Y0020267998D01*
X0016446902Y0020386701D01*
X0016703731Y0020503081D01*
X0016922688Y0020583917D01*
X0016990298Y0020600995D01*
X0017093297Y0020600379D01*
G36*
X0016666996Y0022948694D02*
G01*
X0017020813Y0022928727D01*
X0017444316Y0022899277D01*
X0017906028Y0022863107D01*
X0018374467Y0022822978D01*
X0018818157Y0022781654D01*
X0019205617Y0022741897D01*
X0019505369Y0022706469D01*
X0019685933Y0022678131D01*
X0019723656Y0022666022D01*
X0019697992Y0022585233D01*
X0019566838Y0022440983D01*
X0019365482Y0022263913D01*
X0019129209Y0022084666D01*
X0018893308Y0021933884D01*
X0018858461Y0021914718D01*
X0018715360Y0021844630D01*
X0018570288Y0021795856D01*
X0018391443Y0021765385D01*
X0018147025Y0021750209D01*
X0017805234Y0021747316D01*
X0017334268Y0021753698D01*
X0017186722Y0021756505D01*
X0016418243Y0021757350D01*
X0015722397Y0021730079D01*
X0015121541Y0021676853D01*
X0014638033Y0021599834D01*
X0014294231Y0021501186D01*
X0014226500Y0021470218D01*
X0014036598Y0021403766D01*
X0013802483Y0021361496D01*
X0013580693Y0021347960D01*
X0013427769Y0021367714D01*
X0013391964Y0021402997D01*
X0013456974Y0021579702D01*
X0013630010Y0021813235D01*
X0013878080Y0022066679D01*
X0014168195Y0022303118D01*
X0014242236Y0022354450D01*
X0014834626Y0022660904D01*
X0015521702Y0022865309D01*
X0016253624Y0022953852D01*
X0016414344Y0022956416D01*
X0016666996Y0022948694D01*
G37*
X0016666996Y0022948694D02*
X0017020813Y0022928727D01*
X0017444316Y0022899277D01*
X0017906028Y0022863107D01*
X0018374467Y0022822978D01*
X0018818157Y0022781654D01*
X0019205617Y0022741897D01*
X0019505369Y0022706469D01*
X0019685933Y0022678131D01*
X0019723656Y0022666022D01*
X0019697992Y0022585233D01*
X0019566838Y0022440983D01*
X0019365482Y0022263913D01*
X0019129209Y0022084666D01*
X0018893308Y0021933884D01*
X0018858461Y0021914718D01*
X0018715360Y0021844630D01*
X0018570288Y0021795856D01*
X0018391443Y0021765385D01*
X0018147025Y0021750209D01*
X0017805234Y0021747316D01*
X0017334268Y0021753698D01*
X0017186722Y0021756505D01*
X0016418243Y0021757350D01*
X0015722397Y0021730079D01*
X0015121541Y0021676853D01*
X0014638033Y0021599834D01*
X0014294231Y0021501186D01*
X0014226500Y0021470218D01*
X0014036598Y0021403766D01*
X0013802483Y0021361496D01*
X0013580693Y0021347960D01*
X0013427769Y0021367714D01*
X0013391964Y0021402997D01*
X0013456974Y0021579702D01*
X0013630010Y0021813235D01*
X0013878080Y0022066679D01*
X0014168195Y0022303118D01*
X0014242236Y0022354450D01*
X0014834626Y0022660904D01*
X0015521702Y0022865309D01*
X0016253624Y0022953852D01*
X0016414344Y0022956416D01*
X0016666996Y0022948694D01*
D11*
G36*
X0019746501Y0044592632D02*
G01*
X0019939699Y0044554203D01*
X0020485664Y0044328057D01*
X0020977020Y0043999743D01*
X0021394883Y0043581880D01*
X0021723197Y0043090524D01*
X0021949343Y0042544559D01*
X0022064631Y0041964965D01*
X0022064631Y0041374017D01*
X0021949343Y0040794423D01*
X0021723197Y0040248458D01*
X0021394883Y0039757102D01*
X0020977020Y0039339239D01*
X0020485664Y0039010925D01*
X0019939699Y0038784779D01*
X0019746501Y0038746350D01*
X0019360107Y0038669491D01*
X0018769155Y0038669491D01*
X0018382761Y0038746350D01*
X0018189563Y0038784779D01*
X0017643598Y0039010925D01*
X0017152242Y0039339239D01*
X0016734379Y0039757102D01*
X0016406065Y0040248458D01*
X0016179919Y0040794423D01*
X0016064631Y0041374017D01*
X0016064631Y0041964965D01*
X0016179919Y0042544559D01*
X0016406065Y0043090524D01*
X0016734379Y0043581880D01*
X0017152242Y0043999743D01*
X0017643598Y0044328057D01*
X0018189563Y0044554203D01*
X0018382761Y0044592632D01*
X0018769155Y0044669491D01*
X0019360107Y0044669491D01*
X0019746501Y0044592632D01*
G37*
M02*