G04 #@! TF.GenerationSoftware,KiCad,Pcbnew,(5.1.9)-1*
G04 #@! TF.CreationDate,2021-03-26T23:35:01-07:00*
G04 #@! TF.ProjectId,mole-diamond-keychain-alt,6d6f6c65-2d64-4696-916d-6f6e642d6b65,A*
G04 #@! TF.SameCoordinates,Original*
G04 #@! TF.FileFunction,Copper,L2,Bot*
G04 #@! TF.FilePolarity,Positive*
%FSLAX46Y46*%
G04 Gerber Fmt 4.6, Leading zero omitted, Abs format (unit mm)*
G04 Created by KiCad (PCBNEW (5.1.9)-1) date 2021-03-26 23:35:01*
%MOMM*%
%LPD*%
G01*
G04 APERTURE LIST*
G04 #@! TA.AperFunction,EtchedComponent*
%ADD10C,0.010000*%
G04 #@! TD*
G04 #@! TA.AperFunction,ComponentPad*
%ADD11C,5.600000*%
G04 #@! TD*
G04 APERTURE END LIST*
D10*
G36*
X-12684940Y31916550D02*
G01*
X-13099088Y31743329D01*
X-13433704Y31421773D01*
X-13490510Y31340996D01*
X-13588069Y31182512D01*
X-13652530Y31032177D01*
X-13690701Y30850093D01*
X-13709389Y30596365D01*
X-13715403Y30231096D01*
X-13715788Y30020729D01*
X-13711387Y29572051D01*
X-13693861Y29247023D01*
X-13656725Y29000090D01*
X-13593493Y28785698D01*
X-13512097Y28589953D01*
X-13385912Y28334026D01*
X-13286498Y28206857D01*
X-13184503Y28177442D01*
X-13131097Y28187519D01*
X-12944989Y28225853D01*
X-12669789Y28269132D01*
X-12511772Y28289977D01*
X-12160584Y28291159D01*
X-11884410Y28215190D01*
X-11702679Y28082789D01*
X-11634816Y27914675D01*
X-11700250Y27731567D01*
X-11856752Y27591381D01*
X-12013647Y27515887D01*
X-12215705Y27483627D01*
X-12512847Y27489207D01*
X-12683665Y27502013D01*
X-13295281Y27553713D01*
X-13564534Y27154296D01*
X-13911271Y26527732D01*
X-14150017Y25824262D01*
X-14261359Y25262292D01*
X-14310878Y24558442D01*
X-14245290Y23918541D01*
X-14075930Y23356204D01*
X-13814131Y22885045D01*
X-13471228Y22518680D01*
X-13058556Y22270724D01*
X-12587448Y22154791D01*
X-12069241Y22184498D01*
X-11768455Y22267778D01*
X-11509768Y22402758D01*
X-11232856Y22611263D01*
X-11108316Y22730709D01*
X-10786844Y23073838D01*
X-10811982Y26946359D01*
X-10818314Y27862394D01*
X-10824811Y28624765D01*
X-10832166Y29249139D01*
X-10841071Y29751185D01*
X-10852217Y30146572D01*
X-10866296Y30450966D01*
X-10884000Y30680036D01*
X-10906021Y30849451D01*
X-10933051Y30974878D01*
X-10965781Y31071985D01*
X-10997203Y31141158D01*
X-11283944Y31543871D01*
X-11672376Y31813026D01*
X-12150354Y31940424D01*
X-12186214Y31943768D01*
X-12684940Y31916550D01*
G37*
X-12684940Y31916550D02*
X-13099088Y31743329D01*
X-13433704Y31421773D01*
X-13490510Y31340996D01*
X-13588069Y31182512D01*
X-13652530Y31032177D01*
X-13690701Y30850093D01*
X-13709389Y30596365D01*
X-13715403Y30231096D01*
X-13715788Y30020729D01*
X-13711387Y29572051D01*
X-13693861Y29247023D01*
X-13656725Y29000090D01*
X-13593493Y28785698D01*
X-13512097Y28589953D01*
X-13385912Y28334026D01*
X-13286498Y28206857D01*
X-13184503Y28177442D01*
X-13131097Y28187519D01*
X-12944989Y28225853D01*
X-12669789Y28269132D01*
X-12511772Y28289977D01*
X-12160584Y28291159D01*
X-11884410Y28215190D01*
X-11702679Y28082789D01*
X-11634816Y27914675D01*
X-11700250Y27731567D01*
X-11856752Y27591381D01*
X-12013647Y27515887D01*
X-12215705Y27483627D01*
X-12512847Y27489207D01*
X-12683665Y27502013D01*
X-13295281Y27553713D01*
X-13564534Y27154296D01*
X-13911271Y26527732D01*
X-14150017Y25824262D01*
X-14261359Y25262292D01*
X-14310878Y24558442D01*
X-14245290Y23918541D01*
X-14075930Y23356204D01*
X-13814131Y22885045D01*
X-13471228Y22518680D01*
X-13058556Y22270724D01*
X-12587448Y22154791D01*
X-12069241Y22184498D01*
X-11768455Y22267778D01*
X-11509768Y22402758D01*
X-11232856Y22611263D01*
X-11108316Y22730709D01*
X-10786844Y23073838D01*
X-10811982Y26946359D01*
X-10818314Y27862394D01*
X-10824811Y28624765D01*
X-10832166Y29249139D01*
X-10841071Y29751185D01*
X-10852217Y30146572D01*
X-10866296Y30450966D01*
X-10884000Y30680036D01*
X-10906021Y30849451D01*
X-10933051Y30974878D01*
X-10965781Y31071985D01*
X-10997203Y31141158D01*
X-11283944Y31543871D01*
X-11672376Y31813026D01*
X-12150354Y31940424D01*
X-12186214Y31943768D01*
X-12684940Y31916550D01*
G36*
X14172783Y30718128D02*
G01*
X13756225Y30461515D01*
X13399171Y30065320D01*
X13116671Y29539258D01*
X13084507Y29457338D01*
X12966320Y29088702D01*
X12835103Y28585232D01*
X12697797Y27980248D01*
X12561344Y27307066D01*
X12432683Y26599006D01*
X12318756Y25889386D01*
X12269752Y25546349D01*
X12210129Y25145173D01*
X12152713Y24823311D01*
X12103083Y24607708D01*
X12066814Y24525313D01*
X12059503Y24530349D01*
X12023761Y24633834D01*
X11946915Y24881370D01*
X11834525Y25254230D01*
X11692150Y25733687D01*
X11525347Y26301016D01*
X11339678Y26937490D01*
X11140699Y27624382D01*
X11128962Y27665045D01*
X10255467Y30691879D01*
X8337606Y30691879D01*
X8457227Y30416712D01*
X8518123Y30284847D01*
X8644661Y30017279D01*
X8828814Y29630773D01*
X9062554Y29142093D01*
X9337854Y28568005D01*
X9646686Y27925274D01*
X9981023Y27230663D01*
X10251175Y26670212D01*
X11925502Y23198879D01*
X11933425Y21251545D01*
X11938643Y20557243D01*
X11950526Y20009113D01*
X11972874Y19584015D01*
X12009488Y19258813D01*
X12064168Y19010369D01*
X12140715Y18815545D01*
X12242931Y18651202D01*
X12374615Y18494204D01*
X12388906Y18478712D01*
X12658965Y18288997D01*
X12951680Y18257125D01*
X13235575Y18386209D01*
X13245416Y18394045D01*
X13423232Y18641616D01*
X13520737Y19016136D01*
X13540262Y19496756D01*
X13484140Y20062630D01*
X13354704Y20692909D01*
X13154286Y21366747D01*
X12885218Y22063295D01*
X12817837Y22215756D01*
X12692934Y22524483D01*
X12604777Y22804558D01*
X12573212Y22987372D01*
X12590194Y23188111D01*
X12637394Y23524132D01*
X12709192Y23965218D01*
X12799970Y24481155D01*
X12904109Y25041726D01*
X13015990Y25616715D01*
X13129993Y26175905D01*
X13240501Y26689083D01*
X13341893Y27126030D01*
X13345826Y27142090D01*
X13551972Y27893551D01*
X13765795Y28486923D01*
X13994774Y28933453D01*
X14246385Y29244384D01*
X14528108Y29430963D01*
X14847422Y29504433D01*
X14918271Y29506545D01*
X15326060Y29431618D01*
X15654468Y29208321D01*
X15901536Y28838882D01*
X16065306Y28325529D01*
X16093890Y28169449D01*
X16149028Y27935576D01*
X16231762Y27830972D01*
X16321465Y27813212D01*
X16406354Y27824683D01*
X16453060Y27882213D01*
X16468077Y28020478D01*
X16457899Y28274155D01*
X16444356Y28469379D01*
X16340838Y29201565D01*
X16148081Y29805376D01*
X15869460Y30274919D01*
X15508352Y30604299D01*
X15124203Y30773752D01*
X14633793Y30825445D01*
X14172783Y30718128D01*
G37*
X14172783Y30718128D02*
X13756225Y30461515D01*
X13399171Y30065320D01*
X13116671Y29539258D01*
X13084507Y29457338D01*
X12966320Y29088702D01*
X12835103Y28585232D01*
X12697797Y27980248D01*
X12561344Y27307066D01*
X12432683Y26599006D01*
X12318756Y25889386D01*
X12269752Y25546349D01*
X12210129Y25145173D01*
X12152713Y24823311D01*
X12103083Y24607708D01*
X12066814Y24525313D01*
X12059503Y24530349D01*
X12023761Y24633834D01*
X11946915Y24881370D01*
X11834525Y25254230D01*
X11692150Y25733687D01*
X11525347Y26301016D01*
X11339678Y26937490D01*
X11140699Y27624382D01*
X11128962Y27665045D01*
X10255467Y30691879D01*
X8337606Y30691879D01*
X8457227Y30416712D01*
X8518123Y30284847D01*
X8644661Y30017279D01*
X8828814Y29630773D01*
X9062554Y29142093D01*
X9337854Y28568005D01*
X9646686Y27925274D01*
X9981023Y27230663D01*
X10251175Y26670212D01*
X11925502Y23198879D01*
X11933425Y21251545D01*
X11938643Y20557243D01*
X11950526Y20009113D01*
X11972874Y19584015D01*
X12009488Y19258813D01*
X12064168Y19010369D01*
X12140715Y18815545D01*
X12242931Y18651202D01*
X12374615Y18494204D01*
X12388906Y18478712D01*
X12658965Y18288997D01*
X12951680Y18257125D01*
X13235575Y18386209D01*
X13245416Y18394045D01*
X13423232Y18641616D01*
X13520737Y19016136D01*
X13540262Y19496756D01*
X13484140Y20062630D01*
X13354704Y20692909D01*
X13154286Y21366747D01*
X12885218Y22063295D01*
X12817837Y22215756D01*
X12692934Y22524483D01*
X12604777Y22804558D01*
X12573212Y22987372D01*
X12590194Y23188111D01*
X12637394Y23524132D01*
X12709192Y23965218D01*
X12799970Y24481155D01*
X12904109Y25041726D01*
X13015990Y25616715D01*
X13129993Y26175905D01*
X13240501Y26689083D01*
X13341893Y27126030D01*
X13345826Y27142090D01*
X13551972Y27893551D01*
X13765795Y28486923D01*
X13994774Y28933453D01*
X14246385Y29244384D01*
X14528108Y29430963D01*
X14847422Y29504433D01*
X14918271Y29506545D01*
X15326060Y29431618D01*
X15654468Y29208321D01*
X15901536Y28838882D01*
X16065306Y28325529D01*
X16093890Y28169449D01*
X16149028Y27935576D01*
X16231762Y27830972D01*
X16321465Y27813212D01*
X16406354Y27824683D01*
X16453060Y27882213D01*
X16468077Y28020478D01*
X16457899Y28274155D01*
X16444356Y28469379D01*
X16340838Y29201565D01*
X16148081Y29805376D01*
X15869460Y30274919D01*
X15508352Y30604299D01*
X15124203Y30773752D01*
X14633793Y30825445D01*
X14172783Y30718128D01*
G36*
X-24172233Y25399880D02*
G01*
X-18139511Y19367601D01*
X-12106790Y13335322D01*
X-6846678Y18595531D01*
X-9212858Y18595531D01*
X-9247957Y18538901D01*
X-9363743Y18510647D01*
X-9592593Y18500927D01*
X-9852795Y18499879D01*
X-10522695Y18499879D01*
X-10620576Y19029045D01*
X-10658637Y19304179D01*
X-10697098Y19702855D01*
X-10732309Y20179333D01*
X-10760620Y20687869D01*
X-10769332Y20893600D01*
X-10820208Y22228988D01*
X-10997998Y22097297D01*
X-11456503Y21823825D01*
X-11951282Y21671222D01*
X-12535059Y21623597D01*
X-12569507Y21623699D01*
X-13225762Y21673990D01*
X-13776771Y21826328D01*
X-14263342Y22097078D01*
X-14703660Y22479474D01*
X-15099228Y22927180D01*
X-15379980Y23369578D01*
X-15584070Y23873984D01*
X-15675319Y24193835D01*
X-15780109Y24914111D01*
X-15728779Y25612822D01*
X-15529491Y26268328D01*
X-15190411Y26858992D01*
X-14719703Y27363176D01*
X-14386571Y27609389D01*
X-13950787Y27888156D01*
X-14391564Y28343233D01*
X-14761802Y28801955D01*
X-14991661Y29286555D01*
X-15098840Y29842103D01*
X-15111961Y30177795D01*
X-15036073Y30801291D01*
X-14816735Y31343510D01*
X-14463484Y31795755D01*
X-13985856Y32149333D01*
X-13393390Y32395548D01*
X-12695622Y32525707D01*
X-12522719Y32538236D01*
X-11770639Y32510977D01*
X-11116704Y32347513D01*
X-10565805Y32051827D01*
X-10122832Y31627902D01*
X-9792676Y31079720D01*
X-9580225Y30411264D01*
X-9527709Y30098981D01*
X-9512167Y29895019D01*
X-9497465Y29539695D01*
X-9483889Y29050981D01*
X-9471725Y28446848D01*
X-9461260Y27745268D01*
X-9452780Y26964210D01*
X-9446572Y26121647D01*
X-9442920Y25235550D01*
X-9442096Y24722879D01*
X-9440304Y23614867D01*
X-9436214Y22661500D01*
X-9429298Y21848101D01*
X-9419032Y21159992D01*
X-9404889Y20582493D01*
X-9386345Y20100927D01*
X-9362873Y19700616D01*
X-9333947Y19366881D01*
X-9299043Y19085044D01*
X-9257634Y18840426D01*
X-9226065Y18690379D01*
X-9212858Y18595531D01*
X-6846678Y18595531D01*
X12065324Y37507878D01*
X6032602Y43540157D01*
X-119Y49572436D01*
X-24172233Y25399880D01*
G37*
X-24172233Y25399880D02*
X-18139511Y19367601D01*
X-12106790Y13335322D01*
X-6846678Y18595531D01*
X-9212858Y18595531D01*
X-9247957Y18538901D01*
X-9363743Y18510647D01*
X-9592593Y18500927D01*
X-9852795Y18499879D01*
X-10522695Y18499879D01*
X-10620576Y19029045D01*
X-10658637Y19304179D01*
X-10697098Y19702855D01*
X-10732309Y20179333D01*
X-10760620Y20687869D01*
X-10769332Y20893600D01*
X-10820208Y22228988D01*
X-10997998Y22097297D01*
X-11456503Y21823825D01*
X-11951282Y21671222D01*
X-12535059Y21623597D01*
X-12569507Y21623699D01*
X-13225762Y21673990D01*
X-13776771Y21826328D01*
X-14263342Y22097078D01*
X-14703660Y22479474D01*
X-15099228Y22927180D01*
X-15379980Y23369578D01*
X-15584070Y23873984D01*
X-15675319Y24193835D01*
X-15780109Y24914111D01*
X-15728779Y25612822D01*
X-15529491Y26268328D01*
X-15190411Y26858992D01*
X-14719703Y27363176D01*
X-14386571Y27609389D01*
X-13950787Y27888156D01*
X-14391564Y28343233D01*
X-14761802Y28801955D01*
X-14991661Y29286555D01*
X-15098840Y29842103D01*
X-15111961Y30177795D01*
X-15036073Y30801291D01*
X-14816735Y31343510D01*
X-14463484Y31795755D01*
X-13985856Y32149333D01*
X-13393390Y32395548D01*
X-12695622Y32525707D01*
X-12522719Y32538236D01*
X-11770639Y32510977D01*
X-11116704Y32347513D01*
X-10565805Y32051827D01*
X-10122832Y31627902D01*
X-9792676Y31079720D01*
X-9580225Y30411264D01*
X-9527709Y30098981D01*
X-9512167Y29895019D01*
X-9497465Y29539695D01*
X-9483889Y29050981D01*
X-9471725Y28446848D01*
X-9461260Y27745268D01*
X-9452780Y26964210D01*
X-9446572Y26121647D01*
X-9442920Y25235550D01*
X-9442096Y24722879D01*
X-9440304Y23614867D01*
X-9436214Y22661500D01*
X-9429298Y21848101D01*
X-9419032Y21159992D01*
X-9404889Y20582493D01*
X-9386345Y20100927D01*
X-9362873Y19700616D01*
X-9333947Y19366881D01*
X-9299043Y19085044D01*
X-9257634Y18840426D01*
X-9226065Y18690379D01*
X-9212858Y18595531D01*
X-6846678Y18595531D01*
X12065324Y37507878D01*
X6032602Y43540157D01*
X-119Y49572436D01*
X-24172233Y25399880D01*
D11*
X-5Y53340005D03*
M02*
