G04 #@! TF.GenerationSoftware,KiCad,Pcbnew,(5.1.9)-1*
G04 #@! TF.CreationDate,2021-03-26T23:35:01-07:00*
G04 #@! TF.ProjectId,mole-diamond-keychain-alt,6d6f6c65-2d64-4696-916d-6f6e642d6b65,A*
G04 #@! TF.SameCoordinates,Original*
G04 #@! TF.FileFunction,Soldermask,Top*
G04 #@! TF.FilePolarity,Negative*
%FSLAX46Y46*%
G04 Gerber Fmt 4.6, Leading zero omitted, Abs format (unit mm)*
G04 Created by KiCad (PCBNEW (5.1.9)-1) date 2021-03-26 23:35:01*
%MOMM*%
%LPD*%
G01*
G04 APERTURE LIST*
%ADD10C,0.010000*%
%ADD11C,5.702000*%
G04 APERTURE END LIST*
D10*
G36*
X-14573621Y30819293D02*
G01*
X-14423742Y30780703D01*
X-14246932Y30740060D01*
X-13970166Y30615233D01*
X-13672240Y30379463D01*
X-13400936Y30076475D01*
X-13234356Y29813479D01*
X-13097140Y29477009D01*
X-12949541Y28992813D01*
X-12796394Y28381813D01*
X-12642532Y27664933D01*
X-12492791Y26863094D01*
X-12352003Y25997218D01*
X-12350823Y25989408D01*
X-12266630Y25440659D01*
X-12201266Y25042013D01*
X-12150327Y24775845D01*
X-12109408Y24624527D01*
X-12074104Y24570431D01*
X-12040011Y24595931D01*
X-12015760Y24648498D01*
X-11970463Y24785039D01*
X-11884613Y25064018D01*
X-11764242Y25465075D01*
X-11615382Y25967849D01*
X-11444067Y26551978D01*
X-11256329Y27197103D01*
X-11084357Y27792045D01*
X-10248754Y30691879D01*
X-8345425Y30691879D01*
X-8712395Y29908712D01*
X-8833526Y29652322D01*
X-9017339Y29266077D01*
X-9252979Y28772655D01*
X-9529591Y28194734D01*
X-9836321Y27554991D01*
X-10162314Y26876106D01*
X-10496716Y26180754D01*
X-10505640Y26162212D01*
X-11931915Y23198879D01*
X-11937533Y21293879D01*
X-11942374Y20596180D01*
X-11954745Y20044281D01*
X-11978304Y19614695D01*
X-12016710Y19283933D01*
X-12073622Y19028505D01*
X-12152699Y18824924D01*
X-12257598Y18649702D01*
X-12372326Y18502508D01*
X-12634150Y18294354D01*
X-12917341Y18249428D01*
X-13198930Y18368943D01*
X-13296727Y18453697D01*
X-13471737Y18731241D01*
X-13512069Y18982864D01*
X-13498750Y19705888D01*
X-13415290Y20375170D01*
X-13250364Y21044376D01*
X-12992647Y21767177D01*
X-12854628Y22098212D01*
X-12525944Y22860212D01*
X-12634739Y23537545D01*
X-12746591Y24201605D01*
X-12874175Y24905155D01*
X-13010222Y25612209D01*
X-13147462Y26286781D01*
X-13278627Y26892883D01*
X-13396446Y27394529D01*
X-13471393Y27679550D01*
X-13666575Y28298857D01*
X-13864191Y28767274D01*
X-14077545Y29102895D01*
X-14319939Y29323815D01*
X-14604675Y29448128D01*
X-14797577Y29483448D01*
X-15224535Y29459864D01*
X-15574813Y29287569D01*
X-15843833Y28971067D01*
X-16027018Y28514861D01*
X-16088428Y28213392D01*
X-16141479Y27960505D01*
X-16214870Y27839751D01*
X-16308159Y27813212D01*
X-16410257Y27842798D01*
X-16457317Y27959725D01*
X-16467879Y28178662D01*
X-16426525Y28750865D01*
X-16311293Y29306079D01*
X-16135426Y29807148D01*
X-15912166Y30216918D01*
X-15654758Y30498234D01*
X-15636256Y30511833D01*
X-15411468Y30632520D01*
X-15123415Y30737777D01*
X-14836938Y30808842D01*
X-14616878Y30826955D01*
X-14573621Y30819293D01*
G37*
X-14573621Y30819293D02*
X-14423742Y30780703D01*
X-14246932Y30740060D01*
X-13970166Y30615233D01*
X-13672240Y30379463D01*
X-13400936Y30076475D01*
X-13234356Y29813479D01*
X-13097140Y29477009D01*
X-12949541Y28992813D01*
X-12796394Y28381813D01*
X-12642532Y27664933D01*
X-12492791Y26863094D01*
X-12352003Y25997218D01*
X-12350823Y25989408D01*
X-12266630Y25440659D01*
X-12201266Y25042013D01*
X-12150327Y24775845D01*
X-12109408Y24624527D01*
X-12074104Y24570431D01*
X-12040011Y24595931D01*
X-12015760Y24648498D01*
X-11970463Y24785039D01*
X-11884613Y25064018D01*
X-11764242Y25465075D01*
X-11615382Y25967849D01*
X-11444067Y26551978D01*
X-11256329Y27197103D01*
X-11084357Y27792045D01*
X-10248754Y30691879D01*
X-8345425Y30691879D01*
X-8712395Y29908712D01*
X-8833526Y29652322D01*
X-9017339Y29266077D01*
X-9252979Y28772655D01*
X-9529591Y28194734D01*
X-9836321Y27554991D01*
X-10162314Y26876106D01*
X-10496716Y26180754D01*
X-10505640Y26162212D01*
X-11931915Y23198879D01*
X-11937533Y21293879D01*
X-11942374Y20596180D01*
X-11954745Y20044281D01*
X-11978304Y19614695D01*
X-12016710Y19283933D01*
X-12073622Y19028505D01*
X-12152699Y18824924D01*
X-12257598Y18649702D01*
X-12372326Y18502508D01*
X-12634150Y18294354D01*
X-12917341Y18249428D01*
X-13198930Y18368943D01*
X-13296727Y18453697D01*
X-13471737Y18731241D01*
X-13512069Y18982864D01*
X-13498750Y19705888D01*
X-13415290Y20375170D01*
X-13250364Y21044376D01*
X-12992647Y21767177D01*
X-12854628Y22098212D01*
X-12525944Y22860212D01*
X-12634739Y23537545D01*
X-12746591Y24201605D01*
X-12874175Y24905155D01*
X-13010222Y25612209D01*
X-13147462Y26286781D01*
X-13278627Y26892883D01*
X-13396446Y27394529D01*
X-13471393Y27679550D01*
X-13666575Y28298857D01*
X-13864191Y28767274D01*
X-14077545Y29102895D01*
X-14319939Y29323815D01*
X-14604675Y29448128D01*
X-14797577Y29483448D01*
X-15224535Y29459864D01*
X-15574813Y29287569D01*
X-15843833Y28971067D01*
X-16027018Y28514861D01*
X-16088428Y28213392D01*
X-16141479Y27960505D01*
X-16214870Y27839751D01*
X-16308159Y27813212D01*
X-16410257Y27842798D01*
X-16457317Y27959725D01*
X-16467879Y28178662D01*
X-16426525Y28750865D01*
X-16311293Y29306079D01*
X-16135426Y29807148D01*
X-15912166Y30216918D01*
X-15654758Y30498234D01*
X-15636256Y30511833D01*
X-15411468Y30632520D01*
X-15123415Y30737777D01*
X-14836938Y30808842D01*
X-14616878Y30826955D01*
X-14573621Y30819293D01*
G36*
X18118529Y31453657D02*
G01*
X24172269Y25399916D01*
X18139474Y19367564D01*
X12106679Y13335211D01*
X6053381Y19388952D01*
X84Y25442693D01*
X12064788Y37507397D01*
X18118529Y31453657D01*
G37*
X18118529Y31453657D02*
X24172269Y25399916D01*
X18139474Y19367564D01*
X12106679Y13335211D01*
X6053381Y19388952D01*
X84Y25442693D01*
X12064788Y37507397D01*
X18118529Y31453657D01*
G36*
X-14573621Y30819293D02*
G01*
X-14423742Y30780703D01*
X-14246932Y30740060D01*
X-13970166Y30615233D01*
X-13672240Y30379463D01*
X-13400936Y30076475D01*
X-13234356Y29813479D01*
X-13097140Y29477009D01*
X-12949541Y28992813D01*
X-12796394Y28381813D01*
X-12642532Y27664933D01*
X-12492791Y26863094D01*
X-12352003Y25997218D01*
X-12350823Y25989408D01*
X-12266630Y25440659D01*
X-12201266Y25042013D01*
X-12150327Y24775845D01*
X-12109408Y24624527D01*
X-12074104Y24570431D01*
X-12040011Y24595931D01*
X-12015760Y24648498D01*
X-11970463Y24785039D01*
X-11884613Y25064018D01*
X-11764242Y25465075D01*
X-11615382Y25967849D01*
X-11444067Y26551978D01*
X-11256329Y27197103D01*
X-11084357Y27792045D01*
X-10248754Y30691879D01*
X-8345425Y30691879D01*
X-8712395Y29908712D01*
X-8833526Y29652322D01*
X-9017339Y29266077D01*
X-9252979Y28772655D01*
X-9529591Y28194734D01*
X-9836321Y27554991D01*
X-10162314Y26876106D01*
X-10496716Y26180754D01*
X-10505640Y26162212D01*
X-11931915Y23198879D01*
X-11937533Y21293879D01*
X-11942374Y20596180D01*
X-11954745Y20044281D01*
X-11978304Y19614695D01*
X-12016710Y19283933D01*
X-12073622Y19028505D01*
X-12152699Y18824924D01*
X-12257598Y18649702D01*
X-12372326Y18502508D01*
X-12634150Y18294354D01*
X-12917341Y18249428D01*
X-13198930Y18368943D01*
X-13296727Y18453697D01*
X-13471737Y18731241D01*
X-13512069Y18982864D01*
X-13498750Y19705888D01*
X-13415290Y20375170D01*
X-13250364Y21044376D01*
X-12992647Y21767177D01*
X-12854628Y22098212D01*
X-12525944Y22860212D01*
X-12634739Y23537545D01*
X-12746591Y24201605D01*
X-12874175Y24905155D01*
X-13010222Y25612209D01*
X-13147462Y26286781D01*
X-13278627Y26892883D01*
X-13396446Y27394529D01*
X-13471393Y27679550D01*
X-13666575Y28298857D01*
X-13864191Y28767274D01*
X-14077545Y29102895D01*
X-14319939Y29323815D01*
X-14604675Y29448128D01*
X-14797577Y29483448D01*
X-15224535Y29459864D01*
X-15574813Y29287569D01*
X-15843833Y28971067D01*
X-16027018Y28514861D01*
X-16088428Y28213392D01*
X-16141479Y27960505D01*
X-16214870Y27839751D01*
X-16308159Y27813212D01*
X-16410257Y27842798D01*
X-16457317Y27959725D01*
X-16467879Y28178662D01*
X-16426525Y28750865D01*
X-16311293Y29306079D01*
X-16135426Y29807148D01*
X-15912166Y30216918D01*
X-15654758Y30498234D01*
X-15636256Y30511833D01*
X-15411468Y30632520D01*
X-15123415Y30737777D01*
X-14836938Y30808842D01*
X-14616878Y30826955D01*
X-14573621Y30819293D01*
G37*
X-14573621Y30819293D02*
X-14423742Y30780703D01*
X-14246932Y30740060D01*
X-13970166Y30615233D01*
X-13672240Y30379463D01*
X-13400936Y30076475D01*
X-13234356Y29813479D01*
X-13097140Y29477009D01*
X-12949541Y28992813D01*
X-12796394Y28381813D01*
X-12642532Y27664933D01*
X-12492791Y26863094D01*
X-12352003Y25997218D01*
X-12350823Y25989408D01*
X-12266630Y25440659D01*
X-12201266Y25042013D01*
X-12150327Y24775845D01*
X-12109408Y24624527D01*
X-12074104Y24570431D01*
X-12040011Y24595931D01*
X-12015760Y24648498D01*
X-11970463Y24785039D01*
X-11884613Y25064018D01*
X-11764242Y25465075D01*
X-11615382Y25967849D01*
X-11444067Y26551978D01*
X-11256329Y27197103D01*
X-11084357Y27792045D01*
X-10248754Y30691879D01*
X-8345425Y30691879D01*
X-8712395Y29908712D01*
X-8833526Y29652322D01*
X-9017339Y29266077D01*
X-9252979Y28772655D01*
X-9529591Y28194734D01*
X-9836321Y27554991D01*
X-10162314Y26876106D01*
X-10496716Y26180754D01*
X-10505640Y26162212D01*
X-11931915Y23198879D01*
X-11937533Y21293879D01*
X-11942374Y20596180D01*
X-11954745Y20044281D01*
X-11978304Y19614695D01*
X-12016710Y19283933D01*
X-12073622Y19028505D01*
X-12152699Y18824924D01*
X-12257598Y18649702D01*
X-12372326Y18502508D01*
X-12634150Y18294354D01*
X-12917341Y18249428D01*
X-13198930Y18368943D01*
X-13296727Y18453697D01*
X-13471737Y18731241D01*
X-13512069Y18982864D01*
X-13498750Y19705888D01*
X-13415290Y20375170D01*
X-13250364Y21044376D01*
X-12992647Y21767177D01*
X-12854628Y22098212D01*
X-12525944Y22860212D01*
X-12634739Y23537545D01*
X-12746591Y24201605D01*
X-12874175Y24905155D01*
X-13010222Y25612209D01*
X-13147462Y26286781D01*
X-13278627Y26892883D01*
X-13396446Y27394529D01*
X-13471393Y27679550D01*
X-13666575Y28298857D01*
X-13864191Y28767274D01*
X-14077545Y29102895D01*
X-14319939Y29323815D01*
X-14604675Y29448128D01*
X-14797577Y29483448D01*
X-15224535Y29459864D01*
X-15574813Y29287569D01*
X-15843833Y28971067D01*
X-16027018Y28514861D01*
X-16088428Y28213392D01*
X-16141479Y27960505D01*
X-16214870Y27839751D01*
X-16308159Y27813212D01*
X-16410257Y27842798D01*
X-16457317Y27959725D01*
X-16467879Y28178662D01*
X-16426525Y28750865D01*
X-16311293Y29306079D01*
X-16135426Y29807148D01*
X-15912166Y30216918D01*
X-15654758Y30498234D01*
X-15636256Y30511833D01*
X-15411468Y30632520D01*
X-15123415Y30737777D01*
X-14836938Y30808842D01*
X-14616878Y30826955D01*
X-14573621Y30819293D01*
G36*
X18118529Y31453657D02*
G01*
X24172269Y25399916D01*
X18139474Y19367564D01*
X12106679Y13335211D01*
X6053381Y19388952D01*
X84Y25442693D01*
X12064788Y37507397D01*
X18118529Y31453657D01*
G37*
X18118529Y31453657D02*
X24172269Y25399916D01*
X18139474Y19367564D01*
X12106679Y13335211D01*
X6053381Y19388952D01*
X84Y25442693D01*
X12064788Y37507397D01*
X18118529Y31453657D01*
D11*
X-5Y53340005D03*
M02*
