G04 #@! TF.GenerationSoftware,KiCad,Pcbnew,(5.1.9)-1*
G04 #@! TF.CreationDate,2021-03-26T23:35:01-07:00*
G04 #@! TF.ProjectId,mole-diamond-keychain-alt,6d6f6c65-2d64-4696-916d-6f6e642d6b65,A*
G04 #@! TF.SameCoordinates,Original*
G04 #@! TF.FileFunction,Legend,Bot*
G04 #@! TF.FilePolarity,Positive*
%FSLAX46Y46*%
G04 Gerber Fmt 4.6, Leading zero omitted, Abs format (unit mm)*
G04 Created by KiCad (PCBNEW (5.1.9)-1) date 2021-03-26 23:35:01*
%MOMM*%
%LPD*%
G01*
G04 APERTURE LIST*
%ADD10C,0.010000*%
%ADD11C,5.702000*%
G04 APERTURE END LIST*
D10*
G36*
X-6053455Y19388879D02*
G01*
X-12106825Y13335064D01*
X-6053159Y7281397D01*
X508Y1227731D01*
X6053879Y7281545D01*
X12107250Y13335360D01*
X9371281Y16071329D01*
X4360545Y16071329D01*
X4347615Y15837723D01*
X4296512Y15730045D01*
X4200826Y15705879D01*
X4094209Y15743782D01*
X4025243Y15882294D01*
X3981095Y16106058D01*
X3845955Y16635518D01*
X3622517Y17027695D01*
X3315361Y17278088D01*
X2929063Y17382190D01*
X2690243Y17376115D01*
X2374342Y17300237D01*
X2108618Y17138410D01*
X1879769Y16872540D01*
X1674493Y16484532D01*
X1479488Y15956292D01*
X1364060Y15572216D01*
X1260948Y15172056D01*
X1139062Y14640564D01*
X1005673Y14013726D01*
X868047Y13327530D01*
X733456Y12617961D01*
X609167Y11921006D01*
X527405Y11430212D01*
X418611Y10752879D01*
X747295Y9990879D01*
X1047182Y9229745D01*
X1249540Y8544652D01*
X1365694Y7881931D01*
X1406972Y7187914D01*
X1404736Y6875530D01*
X1332942Y6542619D01*
X1158838Y6301966D01*
X918068Y6168594D01*
X646277Y6157526D01*
X379109Y6283784D01*
X264992Y6395175D01*
X134733Y6564822D01*
X33469Y6742455D01*
X-42456Y6951562D01*
X-96703Y7215632D01*
X-132929Y7558152D01*
X-154794Y8002612D01*
X-165955Y8572500D01*
X-169800Y9186545D01*
X-175418Y11091545D01*
X-1601693Y14054879D01*
X-1936170Y14750359D01*
X-2262528Y15429977D01*
X-2569912Y16071057D01*
X-2847468Y16650919D01*
X-3084340Y17146886D01*
X-3269674Y17536281D01*
X-3392616Y17796425D01*
X-3394938Y17801379D01*
X-3761908Y18584545D01*
X-1858579Y18584545D01*
X-1022976Y15684712D01*
X-825858Y15003088D01*
X-639916Y14364748D01*
X-471181Y13790053D01*
X-325687Y13299363D01*
X-209467Y12913039D01*
X-128552Y12651443D01*
X-91574Y12541165D01*
X-55839Y12472362D01*
X-21832Y12471394D01*
X14851Y12555887D01*
X58616Y12743470D01*
X113867Y13051768D01*
X185008Y13498410D01*
X243490Y13882075D01*
X384178Y14748419D01*
X533862Y15550910D01*
X687708Y16268626D01*
X840882Y16880645D01*
X988551Y17366043D01*
X1125879Y17703899D01*
X1127023Y17706146D01*
X1342196Y18031478D01*
X1622447Y18324783D01*
X1919995Y18542337D01*
X2139598Y18632727D01*
X2345157Y18680342D01*
X2466287Y18711960D01*
X2653891Y18713327D01*
X2927301Y18656131D01*
X3221679Y18559133D01*
X3472182Y18441095D01*
X3528923Y18404500D01*
X3788180Y18133318D01*
X4014195Y17731143D01*
X4193722Y17235130D01*
X4313519Y16682433D01*
X4360343Y16110209D01*
X4360545Y16071329D01*
X9371281Y16071329D01*
X-84Y25442694D01*
X-6053455Y19388879D01*
G37*
X-6053455Y19388879D02*
X-12106825Y13335064D01*
X-6053159Y7281397D01*
X508Y1227731D01*
X6053879Y7281545D01*
X12107250Y13335360D01*
X9371281Y16071329D01*
X4360545Y16071329D01*
X4347615Y15837723D01*
X4296512Y15730045D01*
X4200826Y15705879D01*
X4094209Y15743782D01*
X4025243Y15882294D01*
X3981095Y16106058D01*
X3845955Y16635518D01*
X3622517Y17027695D01*
X3315361Y17278088D01*
X2929063Y17382190D01*
X2690243Y17376115D01*
X2374342Y17300237D01*
X2108618Y17138410D01*
X1879769Y16872540D01*
X1674493Y16484532D01*
X1479488Y15956292D01*
X1364060Y15572216D01*
X1260948Y15172056D01*
X1139062Y14640564D01*
X1005673Y14013726D01*
X868047Y13327530D01*
X733456Y12617961D01*
X609167Y11921006D01*
X527405Y11430212D01*
X418611Y10752879D01*
X747295Y9990879D01*
X1047182Y9229745D01*
X1249540Y8544652D01*
X1365694Y7881931D01*
X1406972Y7187914D01*
X1404736Y6875530D01*
X1332942Y6542619D01*
X1158838Y6301966D01*
X918068Y6168594D01*
X646277Y6157526D01*
X379109Y6283784D01*
X264992Y6395175D01*
X134733Y6564822D01*
X33469Y6742455D01*
X-42456Y6951562D01*
X-96703Y7215632D01*
X-132929Y7558152D01*
X-154794Y8002612D01*
X-165955Y8572500D01*
X-169800Y9186545D01*
X-175418Y11091545D01*
X-1601693Y14054879D01*
X-1936170Y14750359D01*
X-2262528Y15429977D01*
X-2569912Y16071057D01*
X-2847468Y16650919D01*
X-3084340Y17146886D01*
X-3269674Y17536281D01*
X-3392616Y17796425D01*
X-3394938Y17801379D01*
X-3761908Y18584545D01*
X-1858579Y18584545D01*
X-1022976Y15684712D01*
X-825858Y15003088D01*
X-639916Y14364748D01*
X-471181Y13790053D01*
X-325687Y13299363D01*
X-209467Y12913039D01*
X-128552Y12651443D01*
X-91574Y12541165D01*
X-55839Y12472362D01*
X-21832Y12471394D01*
X14851Y12555887D01*
X58616Y12743470D01*
X113867Y13051768D01*
X185008Y13498410D01*
X243490Y13882075D01*
X384178Y14748419D01*
X533862Y15550910D01*
X687708Y16268626D01*
X840882Y16880645D01*
X988551Y17366043D01*
X1125879Y17703899D01*
X1127023Y17706146D01*
X1342196Y18031478D01*
X1622447Y18324783D01*
X1919995Y18542337D01*
X2139598Y18632727D01*
X2345157Y18680342D01*
X2466287Y18711960D01*
X2653891Y18713327D01*
X2927301Y18656131D01*
X3221679Y18559133D01*
X3472182Y18441095D01*
X3528923Y18404500D01*
X3788180Y18133318D01*
X4014195Y17731143D01*
X4193722Y17235130D01*
X4313519Y16682433D01*
X4360343Y16110209D01*
X4360545Y16071329D01*
X9371281Y16071329D01*
X-84Y25442694D01*
X-6053455Y19388879D01*
G36*
X-566735Y43503568D02*
G01*
X-787912Y43478425D01*
X-1393267Y43361937D01*
X-1934981Y43187311D01*
X-2379100Y42968369D01*
X-2691670Y42718931D01*
X-2712660Y42694899D01*
X-2875559Y42401606D01*
X-2925361Y42078853D01*
X-2873907Y41765861D01*
X-2733036Y41501852D01*
X-2514590Y41326046D01*
X-2284070Y41275212D01*
X-2109192Y41291665D01*
X-1935653Y41352989D01*
X-1736405Y41477131D01*
X-1484400Y41682041D01*
X-1152588Y41985664D01*
X-1011505Y42119616D01*
X-584470Y42499079D01*
X-218062Y42751886D01*
X121269Y42892107D01*
X467074Y42933814D01*
X835722Y42894337D01*
X1299507Y42749554D01*
X1633296Y42523977D01*
X1828955Y42235923D01*
X1878352Y41903706D01*
X1773356Y41545642D01*
X1567298Y41246671D01*
X1419843Y41108279D01*
X1160493Y40894947D01*
X816656Y40628001D01*
X415745Y40328769D01*
X26307Y40047725D01*
X-686711Y39536583D01*
X-1274319Y39101550D01*
X-1753113Y38726498D01*
X-2139692Y38395301D01*
X-2450653Y38091832D01*
X-2702594Y37799964D01*
X-2912113Y37503571D01*
X-3095807Y37186525D01*
X-3260062Y36854626D01*
X-3523794Y36097337D01*
X-3630151Y35312964D01*
X-3583363Y34525002D01*
X-3387658Y33756946D01*
X-3047267Y33032288D01*
X-2566417Y32374525D01*
X-2426764Y32225334D01*
X-1796684Y31685547D01*
X-1128964Y31307989D01*
X-428720Y31094214D01*
X298933Y31045778D01*
X1048880Y31164236D01*
X1056493Y31166274D01*
X1712188Y31424580D01*
X2277755Y31811210D01*
X2745580Y32306618D01*
X3108048Y32891257D01*
X3357543Y33545583D01*
X3486451Y34250048D01*
X3486801Y34615167D01*
X1871398Y34615167D01*
X1790703Y33878746D01*
X1602796Y33188017D01*
X1513300Y32968748D01*
X1298506Y32589808D01*
X1020472Y32239607D01*
X716305Y31956265D01*
X423115Y31777905D01*
X322716Y31745675D01*
X119776Y31698798D01*
X212Y31668242D01*
X-182934Y31664963D01*
X-445901Y31713705D01*
X-713473Y31798392D01*
X-810484Y31841490D01*
X-994323Y31968395D01*
X-1218783Y32169256D01*
X-1334596Y32289713D01*
X-1627228Y32725514D01*
X-1842116Y33278671D01*
X-1975112Y33914041D01*
X-2022073Y34596477D01*
X-1978854Y35290835D01*
X-1841309Y35961970D01*
X-1787918Y36133281D01*
X-1542482Y36757905D01*
X-1241955Y37303962D01*
X-841315Y37853032D01*
X-833461Y37862762D01*
X-546351Y38217978D01*
X-168081Y38104136D01*
X309446Y37915376D01*
X747347Y37660109D01*
X1090821Y37372313D01*
X1180136Y37268163D01*
X1499249Y36723779D01*
X1722766Y36075165D01*
X1847784Y35359800D01*
X1871398Y34615167D01*
X3486801Y34615167D01*
X3487156Y34985107D01*
X3352043Y35731214D01*
X3100378Y36412426D01*
X2711924Y37045286D01*
X2180519Y37599116D01*
X1517409Y38064869D01*
X733839Y38433499D01*
X475376Y38524313D01*
X-65460Y38700725D01*
X969442Y39670469D01*
X1333154Y40020440D01*
X1666455Y40358054D01*
X1942979Y40655330D01*
X2136356Y40884288D01*
X2202472Y40978879D01*
X2416609Y41472637D01*
X2474082Y41934991D01*
X2386122Y42356554D01*
X2163962Y42727937D01*
X1818832Y43039753D01*
X1361966Y43282612D01*
X804595Y43447126D01*
X157951Y43523908D01*
X-566735Y43503568D01*
G37*
X-566735Y43503568D02*
X-787912Y43478425D01*
X-1393267Y43361937D01*
X-1934981Y43187311D01*
X-2379100Y42968369D01*
X-2691670Y42718931D01*
X-2712660Y42694899D01*
X-2875559Y42401606D01*
X-2925361Y42078853D01*
X-2873907Y41765861D01*
X-2733036Y41501852D01*
X-2514590Y41326046D01*
X-2284070Y41275212D01*
X-2109192Y41291665D01*
X-1935653Y41352989D01*
X-1736405Y41477131D01*
X-1484400Y41682041D01*
X-1152588Y41985664D01*
X-1011505Y42119616D01*
X-584470Y42499079D01*
X-218062Y42751886D01*
X121269Y42892107D01*
X467074Y42933814D01*
X835722Y42894337D01*
X1299507Y42749554D01*
X1633296Y42523977D01*
X1828955Y42235923D01*
X1878352Y41903706D01*
X1773356Y41545642D01*
X1567298Y41246671D01*
X1419843Y41108279D01*
X1160493Y40894947D01*
X816656Y40628001D01*
X415745Y40328769D01*
X26307Y40047725D01*
X-686711Y39536583D01*
X-1274319Y39101550D01*
X-1753113Y38726498D01*
X-2139692Y38395301D01*
X-2450653Y38091832D01*
X-2702594Y37799964D01*
X-2912113Y37503571D01*
X-3095807Y37186525D01*
X-3260062Y36854626D01*
X-3523794Y36097337D01*
X-3630151Y35312964D01*
X-3583363Y34525002D01*
X-3387658Y33756946D01*
X-3047267Y33032288D01*
X-2566417Y32374525D01*
X-2426764Y32225334D01*
X-1796684Y31685547D01*
X-1128964Y31307989D01*
X-428720Y31094214D01*
X298933Y31045778D01*
X1048880Y31164236D01*
X1056493Y31166274D01*
X1712188Y31424580D01*
X2277755Y31811210D01*
X2745580Y32306618D01*
X3108048Y32891257D01*
X3357543Y33545583D01*
X3486451Y34250048D01*
X3486801Y34615167D01*
X1871398Y34615167D01*
X1790703Y33878746D01*
X1602796Y33188017D01*
X1513300Y32968748D01*
X1298506Y32589808D01*
X1020472Y32239607D01*
X716305Y31956265D01*
X423115Y31777905D01*
X322716Y31745675D01*
X119776Y31698798D01*
X212Y31668242D01*
X-182934Y31664963D01*
X-445901Y31713705D01*
X-713473Y31798392D01*
X-810484Y31841490D01*
X-994323Y31968395D01*
X-1218783Y32169256D01*
X-1334596Y32289713D01*
X-1627228Y32725514D01*
X-1842116Y33278671D01*
X-1975112Y33914041D01*
X-2022073Y34596477D01*
X-1978854Y35290835D01*
X-1841309Y35961970D01*
X-1787918Y36133281D01*
X-1542482Y36757905D01*
X-1241955Y37303962D01*
X-841315Y37853032D01*
X-833461Y37862762D01*
X-546351Y38217978D01*
X-168081Y38104136D01*
X309446Y37915376D01*
X747347Y37660109D01*
X1090821Y37372313D01*
X1180136Y37268163D01*
X1499249Y36723779D01*
X1722766Y36075165D01*
X1847784Y35359800D01*
X1871398Y34615167D01*
X3486801Y34615167D01*
X3487156Y34985107D01*
X3352043Y35731214D01*
X3100378Y36412426D01*
X2711924Y37045286D01*
X2180519Y37599116D01*
X1517409Y38064869D01*
X733839Y38433499D01*
X475376Y38524313D01*
X-65460Y38700725D01*
X969442Y39670469D01*
X1333154Y40020440D01*
X1666455Y40358054D01*
X1942979Y40655330D01*
X2136356Y40884288D01*
X2202472Y40978879D01*
X2416609Y41472637D01*
X2474082Y41934991D01*
X2386122Y42356554D01*
X2163962Y42727937D01*
X1818832Y43039753D01*
X1361966Y43282612D01*
X804595Y43447126D01*
X157951Y43523908D01*
X-566735Y43503568D01*
%LPC*%
G36*
X-18118529Y31453657D02*
G01*
X-24172269Y25399916D01*
X-18139474Y19367564D01*
X-12106679Y13335211D01*
X-6053381Y19388952D01*
X-84Y25442693D01*
X-12064788Y37507397D01*
X-18118529Y31453657D01*
G37*
X-18118529Y31453657D02*
X-24172269Y25399916D01*
X-18139474Y19367564D01*
X-12106679Y13335211D01*
X-6053381Y19388952D01*
X-84Y25442693D01*
X-12064788Y37507397D01*
X-18118529Y31453657D01*
G36*
X14573621Y30819293D02*
G01*
X14423742Y30780703D01*
X14246932Y30740060D01*
X13970166Y30615233D01*
X13672240Y30379463D01*
X13400936Y30076475D01*
X13234356Y29813479D01*
X13097140Y29477009D01*
X12949541Y28992813D01*
X12796394Y28381813D01*
X12642532Y27664933D01*
X12492791Y26863094D01*
X12352003Y25997218D01*
X12350823Y25989408D01*
X12266630Y25440659D01*
X12201266Y25042013D01*
X12150327Y24775845D01*
X12109408Y24624527D01*
X12074104Y24570431D01*
X12040011Y24595931D01*
X12015760Y24648498D01*
X11970463Y24785039D01*
X11884613Y25064018D01*
X11764242Y25465075D01*
X11615382Y25967849D01*
X11444067Y26551978D01*
X11256329Y27197103D01*
X11084357Y27792045D01*
X10248754Y30691879D01*
X8345425Y30691879D01*
X8712395Y29908712D01*
X8833526Y29652322D01*
X9017339Y29266077D01*
X9252979Y28772655D01*
X9529591Y28194734D01*
X9836321Y27554991D01*
X10162314Y26876106D01*
X10496716Y26180754D01*
X10505640Y26162212D01*
X11931915Y23198879D01*
X11937533Y21293879D01*
X11942374Y20596180D01*
X11954745Y20044281D01*
X11978304Y19614695D01*
X12016710Y19283933D01*
X12073622Y19028505D01*
X12152699Y18824924D01*
X12257598Y18649702D01*
X12372326Y18502508D01*
X12634150Y18294354D01*
X12917341Y18249428D01*
X13198930Y18368943D01*
X13296727Y18453697D01*
X13471737Y18731241D01*
X13512069Y18982864D01*
X13498750Y19705888D01*
X13415290Y20375170D01*
X13250364Y21044376D01*
X12992647Y21767177D01*
X12854628Y22098212D01*
X12525944Y22860212D01*
X12634739Y23537545D01*
X12746591Y24201605D01*
X12874175Y24905155D01*
X13010222Y25612209D01*
X13147462Y26286781D01*
X13278627Y26892883D01*
X13396446Y27394529D01*
X13471393Y27679550D01*
X13666575Y28298857D01*
X13864191Y28767274D01*
X14077545Y29102895D01*
X14319939Y29323815D01*
X14604675Y29448128D01*
X14797577Y29483448D01*
X15224535Y29459864D01*
X15574813Y29287569D01*
X15843833Y28971067D01*
X16027018Y28514861D01*
X16088428Y28213392D01*
X16141479Y27960505D01*
X16214870Y27839751D01*
X16308159Y27813212D01*
X16410257Y27842798D01*
X16457317Y27959725D01*
X16467879Y28178662D01*
X16426525Y28750865D01*
X16311293Y29306079D01*
X16135426Y29807148D01*
X15912166Y30216918D01*
X15654758Y30498234D01*
X15636256Y30511833D01*
X15411468Y30632520D01*
X15123415Y30737777D01*
X14836938Y30808842D01*
X14616878Y30826955D01*
X14573621Y30819293D01*
G37*
X14573621Y30819293D02*
X14423742Y30780703D01*
X14246932Y30740060D01*
X13970166Y30615233D01*
X13672240Y30379463D01*
X13400936Y30076475D01*
X13234356Y29813479D01*
X13097140Y29477009D01*
X12949541Y28992813D01*
X12796394Y28381813D01*
X12642532Y27664933D01*
X12492791Y26863094D01*
X12352003Y25997218D01*
X12350823Y25989408D01*
X12266630Y25440659D01*
X12201266Y25042013D01*
X12150327Y24775845D01*
X12109408Y24624527D01*
X12074104Y24570431D01*
X12040011Y24595931D01*
X12015760Y24648498D01*
X11970463Y24785039D01*
X11884613Y25064018D01*
X11764242Y25465075D01*
X11615382Y25967849D01*
X11444067Y26551978D01*
X11256329Y27197103D01*
X11084357Y27792045D01*
X10248754Y30691879D01*
X8345425Y30691879D01*
X8712395Y29908712D01*
X8833526Y29652322D01*
X9017339Y29266077D01*
X9252979Y28772655D01*
X9529591Y28194734D01*
X9836321Y27554991D01*
X10162314Y26876106D01*
X10496716Y26180754D01*
X10505640Y26162212D01*
X11931915Y23198879D01*
X11937533Y21293879D01*
X11942374Y20596180D01*
X11954745Y20044281D01*
X11978304Y19614695D01*
X12016710Y19283933D01*
X12073622Y19028505D01*
X12152699Y18824924D01*
X12257598Y18649702D01*
X12372326Y18502508D01*
X12634150Y18294354D01*
X12917341Y18249428D01*
X13198930Y18368943D01*
X13296727Y18453697D01*
X13471737Y18731241D01*
X13512069Y18982864D01*
X13498750Y19705888D01*
X13415290Y20375170D01*
X13250364Y21044376D01*
X12992647Y21767177D01*
X12854628Y22098212D01*
X12525944Y22860212D01*
X12634739Y23537545D01*
X12746591Y24201605D01*
X12874175Y24905155D01*
X13010222Y25612209D01*
X13147462Y26286781D01*
X13278627Y26892883D01*
X13396446Y27394529D01*
X13471393Y27679550D01*
X13666575Y28298857D01*
X13864191Y28767274D01*
X14077545Y29102895D01*
X14319939Y29323815D01*
X14604675Y29448128D01*
X14797577Y29483448D01*
X15224535Y29459864D01*
X15574813Y29287569D01*
X15843833Y28971067D01*
X16027018Y28514861D01*
X16088428Y28213392D01*
X16141479Y27960505D01*
X16214870Y27839751D01*
X16308159Y27813212D01*
X16410257Y27842798D01*
X16457317Y27959725D01*
X16467879Y28178662D01*
X16426525Y28750865D01*
X16311293Y29306079D01*
X16135426Y29807148D01*
X15912166Y30216918D01*
X15654758Y30498234D01*
X15636256Y30511833D01*
X15411468Y30632520D01*
X15123415Y30737777D01*
X14836938Y30808842D01*
X14616878Y30826955D01*
X14573621Y30819293D01*
D11*
X-5Y53340005D03*
M02*
