G04 #@! TF.GenerationSoftware,KiCad,Pcbnew,(5.1.9)-1*
G04 #@! TF.CreationDate,2021-03-26T23:35:01-07:00*
G04 #@! TF.ProjectId,mole-diamond-keychain-alt,6d6f6c65-2d64-4696-916d-6f6e642d6b65,A*
G04 #@! TF.SameCoordinates,Original*
G04 #@! TF.FileFunction,Legend,Top*
G04 #@! TF.FilePolarity,Positive*
%FSLAX46Y46*%
G04 Gerber Fmt 4.6, Leading zero omitted, Abs format (unit mm)*
G04 Created by KiCad (PCBNEW (5.1.9)-1) date 2021-03-26 23:35:01*
%MOMM*%
%LPD*%
G01*
G04 APERTURE LIST*
%ADD10C,0.010000*%
%ADD11C,5.702000*%
G04 APERTURE END LIST*
D10*
G36*
X566735Y43503568D02*
G01*
X787912Y43478425D01*
X1393267Y43361937D01*
X1934981Y43187311D01*
X2379100Y42968369D01*
X2691670Y42718931D01*
X2712660Y42694899D01*
X2875559Y42401606D01*
X2925361Y42078853D01*
X2873907Y41765861D01*
X2733036Y41501852D01*
X2514590Y41326046D01*
X2284070Y41275212D01*
X2109192Y41291665D01*
X1935653Y41352989D01*
X1736405Y41477131D01*
X1484400Y41682041D01*
X1152588Y41985664D01*
X1011505Y42119616D01*
X584470Y42499079D01*
X218062Y42751886D01*
X-121269Y42892107D01*
X-467074Y42933814D01*
X-835722Y42894337D01*
X-1299507Y42749554D01*
X-1633296Y42523977D01*
X-1828955Y42235923D01*
X-1878352Y41903706D01*
X-1773356Y41545642D01*
X-1567298Y41246671D01*
X-1419843Y41108279D01*
X-1160493Y40894947D01*
X-816656Y40628001D01*
X-415745Y40328769D01*
X-26307Y40047725D01*
X686711Y39536583D01*
X1274319Y39101550D01*
X1753113Y38726498D01*
X2139692Y38395301D01*
X2450653Y38091832D01*
X2702594Y37799964D01*
X2912113Y37503571D01*
X3095807Y37186525D01*
X3260062Y36854626D01*
X3523794Y36097337D01*
X3630151Y35312964D01*
X3583363Y34525002D01*
X3387658Y33756946D01*
X3047267Y33032288D01*
X2566417Y32374525D01*
X2426764Y32225334D01*
X1796684Y31685547D01*
X1128964Y31307989D01*
X428720Y31094214D01*
X-298933Y31045778D01*
X-1048880Y31164236D01*
X-1056493Y31166274D01*
X-1712188Y31424580D01*
X-2277755Y31811210D01*
X-2745580Y32306618D01*
X-3108048Y32891257D01*
X-3357543Y33545583D01*
X-3486451Y34250048D01*
X-3486801Y34615167D01*
X-1871398Y34615167D01*
X-1790703Y33878746D01*
X-1602796Y33188017D01*
X-1513300Y32968748D01*
X-1298506Y32589808D01*
X-1020472Y32239607D01*
X-716305Y31956265D01*
X-423115Y31777905D01*
X-322716Y31745675D01*
X-119776Y31698798D01*
X-212Y31668242D01*
X182934Y31664963D01*
X445901Y31713705D01*
X713473Y31798392D01*
X810484Y31841490D01*
X994323Y31968395D01*
X1218783Y32169256D01*
X1334596Y32289713D01*
X1627228Y32725514D01*
X1842116Y33278671D01*
X1975112Y33914041D01*
X2022073Y34596477D01*
X1978854Y35290835D01*
X1841309Y35961970D01*
X1787918Y36133281D01*
X1542482Y36757905D01*
X1241955Y37303962D01*
X841315Y37853032D01*
X833461Y37862762D01*
X546351Y38217978D01*
X168081Y38104136D01*
X-309446Y37915376D01*
X-747347Y37660109D01*
X-1090821Y37372313D01*
X-1180136Y37268163D01*
X-1499249Y36723779D01*
X-1722766Y36075165D01*
X-1847784Y35359800D01*
X-1871398Y34615167D01*
X-3486801Y34615167D01*
X-3487156Y34985107D01*
X-3352043Y35731214D01*
X-3100378Y36412426D01*
X-2711924Y37045286D01*
X-2180519Y37599116D01*
X-1517409Y38064869D01*
X-733839Y38433499D01*
X-475376Y38524313D01*
X65460Y38700725D01*
X-969442Y39670469D01*
X-1333154Y40020440D01*
X-1666455Y40358054D01*
X-1942979Y40655330D01*
X-2136356Y40884288D01*
X-2202472Y40978879D01*
X-2416609Y41472637D01*
X-2474082Y41934991D01*
X-2386122Y42356554D01*
X-2163962Y42727937D01*
X-1818832Y43039753D01*
X-1361966Y43282612D01*
X-804595Y43447126D01*
X-157951Y43523908D01*
X566735Y43503568D01*
G37*
X566735Y43503568D02*
X787912Y43478425D01*
X1393267Y43361937D01*
X1934981Y43187311D01*
X2379100Y42968369D01*
X2691670Y42718931D01*
X2712660Y42694899D01*
X2875559Y42401606D01*
X2925361Y42078853D01*
X2873907Y41765861D01*
X2733036Y41501852D01*
X2514590Y41326046D01*
X2284070Y41275212D01*
X2109192Y41291665D01*
X1935653Y41352989D01*
X1736405Y41477131D01*
X1484400Y41682041D01*
X1152588Y41985664D01*
X1011505Y42119616D01*
X584470Y42499079D01*
X218062Y42751886D01*
X-121269Y42892107D01*
X-467074Y42933814D01*
X-835722Y42894337D01*
X-1299507Y42749554D01*
X-1633296Y42523977D01*
X-1828955Y42235923D01*
X-1878352Y41903706D01*
X-1773356Y41545642D01*
X-1567298Y41246671D01*
X-1419843Y41108279D01*
X-1160493Y40894947D01*
X-816656Y40628001D01*
X-415745Y40328769D01*
X-26307Y40047725D01*
X686711Y39536583D01*
X1274319Y39101550D01*
X1753113Y38726498D01*
X2139692Y38395301D01*
X2450653Y38091832D01*
X2702594Y37799964D01*
X2912113Y37503571D01*
X3095807Y37186525D01*
X3260062Y36854626D01*
X3523794Y36097337D01*
X3630151Y35312964D01*
X3583363Y34525002D01*
X3387658Y33756946D01*
X3047267Y33032288D01*
X2566417Y32374525D01*
X2426764Y32225334D01*
X1796684Y31685547D01*
X1128964Y31307989D01*
X428720Y31094214D01*
X-298933Y31045778D01*
X-1048880Y31164236D01*
X-1056493Y31166274D01*
X-1712188Y31424580D01*
X-2277755Y31811210D01*
X-2745580Y32306618D01*
X-3108048Y32891257D01*
X-3357543Y33545583D01*
X-3486451Y34250048D01*
X-3486801Y34615167D01*
X-1871398Y34615167D01*
X-1790703Y33878746D01*
X-1602796Y33188017D01*
X-1513300Y32968748D01*
X-1298506Y32589808D01*
X-1020472Y32239607D01*
X-716305Y31956265D01*
X-423115Y31777905D01*
X-322716Y31745675D01*
X-119776Y31698798D01*
X-212Y31668242D01*
X182934Y31664963D01*
X445901Y31713705D01*
X713473Y31798392D01*
X810484Y31841490D01*
X994323Y31968395D01*
X1218783Y32169256D01*
X1334596Y32289713D01*
X1627228Y32725514D01*
X1842116Y33278671D01*
X1975112Y33914041D01*
X2022073Y34596477D01*
X1978854Y35290835D01*
X1841309Y35961970D01*
X1787918Y36133281D01*
X1542482Y36757905D01*
X1241955Y37303962D01*
X841315Y37853032D01*
X833461Y37862762D01*
X546351Y38217978D01*
X168081Y38104136D01*
X-309446Y37915376D01*
X-747347Y37660109D01*
X-1090821Y37372313D01*
X-1180136Y37268163D01*
X-1499249Y36723779D01*
X-1722766Y36075165D01*
X-1847784Y35359800D01*
X-1871398Y34615167D01*
X-3486801Y34615167D01*
X-3487156Y34985107D01*
X-3352043Y35731214D01*
X-3100378Y36412426D01*
X-2711924Y37045286D01*
X-2180519Y37599116D01*
X-1517409Y38064869D01*
X-733839Y38433499D01*
X-475376Y38524313D01*
X65460Y38700725D01*
X-969442Y39670469D01*
X-1333154Y40020440D01*
X-1666455Y40358054D01*
X-1942979Y40655330D01*
X-2136356Y40884288D01*
X-2202472Y40978879D01*
X-2416609Y41472637D01*
X-2474082Y41934991D01*
X-2386122Y42356554D01*
X-2163962Y42727937D01*
X-1818832Y43039753D01*
X-1361966Y43282612D01*
X-804595Y43447126D01*
X-157951Y43523908D01*
X566735Y43503568D01*
G36*
X6053455Y19388879D02*
G01*
X12106825Y13335064D01*
X6053159Y7281397D01*
X-508Y1227731D01*
X-6053879Y7281545D01*
X-12107250Y13335360D01*
X-9371281Y16071329D01*
X-4360545Y16071329D01*
X-4347615Y15837723D01*
X-4296512Y15730045D01*
X-4200826Y15705879D01*
X-4094209Y15743782D01*
X-4025243Y15882294D01*
X-3981095Y16106058D01*
X-3845955Y16635518D01*
X-3622517Y17027695D01*
X-3315361Y17278088D01*
X-2929063Y17382190D01*
X-2690243Y17376115D01*
X-2374342Y17300237D01*
X-2108618Y17138410D01*
X-1879769Y16872540D01*
X-1674493Y16484532D01*
X-1479488Y15956292D01*
X-1364060Y15572216D01*
X-1260948Y15172056D01*
X-1139062Y14640564D01*
X-1005673Y14013726D01*
X-868047Y13327530D01*
X-733456Y12617961D01*
X-609167Y11921006D01*
X-527405Y11430212D01*
X-418611Y10752879D01*
X-747295Y9990879D01*
X-1047182Y9229745D01*
X-1249540Y8544652D01*
X-1365694Y7881931D01*
X-1406972Y7187914D01*
X-1404736Y6875530D01*
X-1332942Y6542619D01*
X-1158838Y6301966D01*
X-918068Y6168594D01*
X-646277Y6157526D01*
X-379109Y6283784D01*
X-264992Y6395175D01*
X-134733Y6564822D01*
X-33469Y6742455D01*
X42456Y6951562D01*
X96703Y7215632D01*
X132929Y7558152D01*
X154794Y8002612D01*
X165955Y8572500D01*
X169800Y9186545D01*
X175418Y11091545D01*
X1601693Y14054879D01*
X1936170Y14750359D01*
X2262528Y15429977D01*
X2569912Y16071057D01*
X2847468Y16650919D01*
X3084340Y17146886D01*
X3269674Y17536281D01*
X3392616Y17796425D01*
X3394938Y17801379D01*
X3761908Y18584545D01*
X1858579Y18584545D01*
X1022976Y15684712D01*
X825858Y15003088D01*
X639916Y14364748D01*
X471181Y13790053D01*
X325687Y13299363D01*
X209467Y12913039D01*
X128552Y12651443D01*
X91574Y12541165D01*
X55839Y12472362D01*
X21832Y12471394D01*
X-14851Y12555887D01*
X-58616Y12743470D01*
X-113867Y13051768D01*
X-185008Y13498410D01*
X-243490Y13882075D01*
X-384178Y14748419D01*
X-533862Y15550910D01*
X-687708Y16268626D01*
X-840882Y16880645D01*
X-988551Y17366043D01*
X-1125879Y17703899D01*
X-1127023Y17706146D01*
X-1342196Y18031478D01*
X-1622447Y18324783D01*
X-1919995Y18542337D01*
X-2139598Y18632727D01*
X-2345157Y18680342D01*
X-2466287Y18711960D01*
X-2653891Y18713327D01*
X-2927301Y18656131D01*
X-3221679Y18559133D01*
X-3472182Y18441095D01*
X-3528923Y18404500D01*
X-3788180Y18133318D01*
X-4014195Y17731143D01*
X-4193722Y17235130D01*
X-4313519Y16682433D01*
X-4360343Y16110209D01*
X-4360545Y16071329D01*
X-9371281Y16071329D01*
X84Y25442694D01*
X6053455Y19388879D01*
G37*
X6053455Y19388879D02*
X12106825Y13335064D01*
X6053159Y7281397D01*
X-508Y1227731D01*
X-6053879Y7281545D01*
X-12107250Y13335360D01*
X-9371281Y16071329D01*
X-4360545Y16071329D01*
X-4347615Y15837723D01*
X-4296512Y15730045D01*
X-4200826Y15705879D01*
X-4094209Y15743782D01*
X-4025243Y15882294D01*
X-3981095Y16106058D01*
X-3845955Y16635518D01*
X-3622517Y17027695D01*
X-3315361Y17278088D01*
X-2929063Y17382190D01*
X-2690243Y17376115D01*
X-2374342Y17300237D01*
X-2108618Y17138410D01*
X-1879769Y16872540D01*
X-1674493Y16484532D01*
X-1479488Y15956292D01*
X-1364060Y15572216D01*
X-1260948Y15172056D01*
X-1139062Y14640564D01*
X-1005673Y14013726D01*
X-868047Y13327530D01*
X-733456Y12617961D01*
X-609167Y11921006D01*
X-527405Y11430212D01*
X-418611Y10752879D01*
X-747295Y9990879D01*
X-1047182Y9229745D01*
X-1249540Y8544652D01*
X-1365694Y7881931D01*
X-1406972Y7187914D01*
X-1404736Y6875530D01*
X-1332942Y6542619D01*
X-1158838Y6301966D01*
X-918068Y6168594D01*
X-646277Y6157526D01*
X-379109Y6283784D01*
X-264992Y6395175D01*
X-134733Y6564822D01*
X-33469Y6742455D01*
X42456Y6951562D01*
X96703Y7215632D01*
X132929Y7558152D01*
X154794Y8002612D01*
X165955Y8572500D01*
X169800Y9186545D01*
X175418Y11091545D01*
X1601693Y14054879D01*
X1936170Y14750359D01*
X2262528Y15429977D01*
X2569912Y16071057D01*
X2847468Y16650919D01*
X3084340Y17146886D01*
X3269674Y17536281D01*
X3392616Y17796425D01*
X3394938Y17801379D01*
X3761908Y18584545D01*
X1858579Y18584545D01*
X1022976Y15684712D01*
X825858Y15003088D01*
X639916Y14364748D01*
X471181Y13790053D01*
X325687Y13299363D01*
X209467Y12913039D01*
X128552Y12651443D01*
X91574Y12541165D01*
X55839Y12472362D01*
X21832Y12471394D01*
X-14851Y12555887D01*
X-58616Y12743470D01*
X-113867Y13051768D01*
X-185008Y13498410D01*
X-243490Y13882075D01*
X-384178Y14748419D01*
X-533862Y15550910D01*
X-687708Y16268626D01*
X-840882Y16880645D01*
X-988551Y17366043D01*
X-1125879Y17703899D01*
X-1127023Y17706146D01*
X-1342196Y18031478D01*
X-1622447Y18324783D01*
X-1919995Y18542337D01*
X-2139598Y18632727D01*
X-2345157Y18680342D01*
X-2466287Y18711960D01*
X-2653891Y18713327D01*
X-2927301Y18656131D01*
X-3221679Y18559133D01*
X-3472182Y18441095D01*
X-3528923Y18404500D01*
X-3788180Y18133318D01*
X-4014195Y17731143D01*
X-4193722Y17235130D01*
X-4313519Y16682433D01*
X-4360343Y16110209D01*
X-4360545Y16071329D01*
X-9371281Y16071329D01*
X84Y25442694D01*
X6053455Y19388879D01*
%LPC*%
G36*
X-14573621Y30819293D02*
G01*
X-14423742Y30780703D01*
X-14246932Y30740060D01*
X-13970166Y30615233D01*
X-13672240Y30379463D01*
X-13400936Y30076475D01*
X-13234356Y29813479D01*
X-13097140Y29477009D01*
X-12949541Y28992813D01*
X-12796394Y28381813D01*
X-12642532Y27664933D01*
X-12492791Y26863094D01*
X-12352003Y25997218D01*
X-12350823Y25989408D01*
X-12266630Y25440659D01*
X-12201266Y25042013D01*
X-12150327Y24775845D01*
X-12109408Y24624527D01*
X-12074104Y24570431D01*
X-12040011Y24595931D01*
X-12015760Y24648498D01*
X-11970463Y24785039D01*
X-11884613Y25064018D01*
X-11764242Y25465075D01*
X-11615382Y25967849D01*
X-11444067Y26551978D01*
X-11256329Y27197103D01*
X-11084357Y27792045D01*
X-10248754Y30691879D01*
X-8345425Y30691879D01*
X-8712395Y29908712D01*
X-8833526Y29652322D01*
X-9017339Y29266077D01*
X-9252979Y28772655D01*
X-9529591Y28194734D01*
X-9836321Y27554991D01*
X-10162314Y26876106D01*
X-10496716Y26180754D01*
X-10505640Y26162212D01*
X-11931915Y23198879D01*
X-11937533Y21293879D01*
X-11942374Y20596180D01*
X-11954745Y20044281D01*
X-11978304Y19614695D01*
X-12016710Y19283933D01*
X-12073622Y19028505D01*
X-12152699Y18824924D01*
X-12257598Y18649702D01*
X-12372326Y18502508D01*
X-12634150Y18294354D01*
X-12917341Y18249428D01*
X-13198930Y18368943D01*
X-13296727Y18453697D01*
X-13471737Y18731241D01*
X-13512069Y18982864D01*
X-13498750Y19705888D01*
X-13415290Y20375170D01*
X-13250364Y21044376D01*
X-12992647Y21767177D01*
X-12854628Y22098212D01*
X-12525944Y22860212D01*
X-12634739Y23537545D01*
X-12746591Y24201605D01*
X-12874175Y24905155D01*
X-13010222Y25612209D01*
X-13147462Y26286781D01*
X-13278627Y26892883D01*
X-13396446Y27394529D01*
X-13471393Y27679550D01*
X-13666575Y28298857D01*
X-13864191Y28767274D01*
X-14077545Y29102895D01*
X-14319939Y29323815D01*
X-14604675Y29448128D01*
X-14797577Y29483448D01*
X-15224535Y29459864D01*
X-15574813Y29287569D01*
X-15843833Y28971067D01*
X-16027018Y28514861D01*
X-16088428Y28213392D01*
X-16141479Y27960505D01*
X-16214870Y27839751D01*
X-16308159Y27813212D01*
X-16410257Y27842798D01*
X-16457317Y27959725D01*
X-16467879Y28178662D01*
X-16426525Y28750865D01*
X-16311293Y29306079D01*
X-16135426Y29807148D01*
X-15912166Y30216918D01*
X-15654758Y30498234D01*
X-15636256Y30511833D01*
X-15411468Y30632520D01*
X-15123415Y30737777D01*
X-14836938Y30808842D01*
X-14616878Y30826955D01*
X-14573621Y30819293D01*
G37*
X-14573621Y30819293D02*
X-14423742Y30780703D01*
X-14246932Y30740060D01*
X-13970166Y30615233D01*
X-13672240Y30379463D01*
X-13400936Y30076475D01*
X-13234356Y29813479D01*
X-13097140Y29477009D01*
X-12949541Y28992813D01*
X-12796394Y28381813D01*
X-12642532Y27664933D01*
X-12492791Y26863094D01*
X-12352003Y25997218D01*
X-12350823Y25989408D01*
X-12266630Y25440659D01*
X-12201266Y25042013D01*
X-12150327Y24775845D01*
X-12109408Y24624527D01*
X-12074104Y24570431D01*
X-12040011Y24595931D01*
X-12015760Y24648498D01*
X-11970463Y24785039D01*
X-11884613Y25064018D01*
X-11764242Y25465075D01*
X-11615382Y25967849D01*
X-11444067Y26551978D01*
X-11256329Y27197103D01*
X-11084357Y27792045D01*
X-10248754Y30691879D01*
X-8345425Y30691879D01*
X-8712395Y29908712D01*
X-8833526Y29652322D01*
X-9017339Y29266077D01*
X-9252979Y28772655D01*
X-9529591Y28194734D01*
X-9836321Y27554991D01*
X-10162314Y26876106D01*
X-10496716Y26180754D01*
X-10505640Y26162212D01*
X-11931915Y23198879D01*
X-11937533Y21293879D01*
X-11942374Y20596180D01*
X-11954745Y20044281D01*
X-11978304Y19614695D01*
X-12016710Y19283933D01*
X-12073622Y19028505D01*
X-12152699Y18824924D01*
X-12257598Y18649702D01*
X-12372326Y18502508D01*
X-12634150Y18294354D01*
X-12917341Y18249428D01*
X-13198930Y18368943D01*
X-13296727Y18453697D01*
X-13471737Y18731241D01*
X-13512069Y18982864D01*
X-13498750Y19705888D01*
X-13415290Y20375170D01*
X-13250364Y21044376D01*
X-12992647Y21767177D01*
X-12854628Y22098212D01*
X-12525944Y22860212D01*
X-12634739Y23537545D01*
X-12746591Y24201605D01*
X-12874175Y24905155D01*
X-13010222Y25612209D01*
X-13147462Y26286781D01*
X-13278627Y26892883D01*
X-13396446Y27394529D01*
X-13471393Y27679550D01*
X-13666575Y28298857D01*
X-13864191Y28767274D01*
X-14077545Y29102895D01*
X-14319939Y29323815D01*
X-14604675Y29448128D01*
X-14797577Y29483448D01*
X-15224535Y29459864D01*
X-15574813Y29287569D01*
X-15843833Y28971067D01*
X-16027018Y28514861D01*
X-16088428Y28213392D01*
X-16141479Y27960505D01*
X-16214870Y27839751D01*
X-16308159Y27813212D01*
X-16410257Y27842798D01*
X-16457317Y27959725D01*
X-16467879Y28178662D01*
X-16426525Y28750865D01*
X-16311293Y29306079D01*
X-16135426Y29807148D01*
X-15912166Y30216918D01*
X-15654758Y30498234D01*
X-15636256Y30511833D01*
X-15411468Y30632520D01*
X-15123415Y30737777D01*
X-14836938Y30808842D01*
X-14616878Y30826955D01*
X-14573621Y30819293D01*
G36*
X18118529Y31453657D02*
G01*
X24172269Y25399916D01*
X18139474Y19367564D01*
X12106679Y13335211D01*
X6053381Y19388952D01*
X84Y25442693D01*
X12064788Y37507397D01*
X18118529Y31453657D01*
G37*
X18118529Y31453657D02*
X24172269Y25399916D01*
X18139474Y19367564D01*
X12106679Y13335211D01*
X6053381Y19388952D01*
X84Y25442693D01*
X12064788Y37507397D01*
X18118529Y31453657D01*
D11*
X-5Y53340005D03*
M02*
