G04 #@! TF.GenerationSoftware,KiCad,Pcbnew,(5.1.5)-3*
G04 #@! TF.CreationDate,2019-12-21T12:13:31-08:00*
G04 #@! TF.ProjectId,mole-diamond-keychain,6d6f6c65-2d64-4696-916d-6f6e642d6b65,A*
G04 #@! TF.SameCoordinates,Original*
G04 #@! TF.FileFunction,Soldermask,Top*
G04 #@! TF.FilePolarity,Negative*
%FSLAX46Y46*%
G04 Gerber Fmt 4.6, Leading zero omitted, Abs format (unit mm)*
G04 Created by KiCad (PCBNEW (5.1.5)-3) date 2019-12-21 12:13:31*
%MOMM*%
%LPD*%
G04 APERTURE LIST*
%ADD10C,0.010000*%
%ADD11C,0.100000*%
G04 APERTURE END LIST*
D10*
G36*
X12727485Y31874005D02*
G01*
X13141633Y31700784D01*
X13476249Y31379228D01*
X13533055Y31298451D01*
X13630614Y31139967D01*
X13695075Y30989632D01*
X13733246Y30807548D01*
X13751934Y30553820D01*
X13757948Y30188551D01*
X13758333Y29978184D01*
X13753932Y29529506D01*
X13736406Y29204478D01*
X13699270Y28957545D01*
X13636038Y28743153D01*
X13554642Y28547408D01*
X13428457Y28291481D01*
X13329043Y28164312D01*
X13227048Y28134897D01*
X13173642Y28144974D01*
X12987534Y28183308D01*
X12712334Y28226587D01*
X12554317Y28247432D01*
X12203183Y28248609D01*
X11927015Y28172646D01*
X11745248Y28040261D01*
X11677321Y27872176D01*
X11742670Y27689111D01*
X11899106Y27548961D01*
X12062122Y27471748D01*
X12274063Y27440176D01*
X12586228Y27448382D01*
X12701472Y27457251D01*
X13288731Y27506485D01*
X13542208Y27198973D01*
X13840218Y26734271D01*
X14080812Y26156487D01*
X14251887Y25515698D01*
X14341336Y24861981D01*
X14337053Y24245413D01*
X14308173Y24030381D01*
X14227657Y23676186D01*
X14120386Y23328966D01*
X14043569Y23138888D01*
X13739955Y22681752D01*
X13338986Y22351901D01*
X12865675Y22159569D01*
X12345036Y22114994D01*
X11811000Y22225233D01*
X11552313Y22360213D01*
X11275401Y22568718D01*
X11150861Y22688164D01*
X10829389Y23031293D01*
X10854527Y26903814D01*
X10860859Y27819849D01*
X10867356Y28582220D01*
X10874711Y29206594D01*
X10883616Y29708640D01*
X10894762Y30104027D01*
X10908841Y30408421D01*
X10926545Y30637491D01*
X10948566Y30806906D01*
X10975596Y30932333D01*
X11008326Y31029440D01*
X11039748Y31098613D01*
X11326489Y31501326D01*
X11714921Y31770481D01*
X12192899Y31897879D01*
X12228759Y31901223D01*
X12727485Y31874005D01*
G37*
X12727485Y31874005D02*
X13141633Y31700784D01*
X13476249Y31379228D01*
X13533055Y31298451D01*
X13630614Y31139967D01*
X13695075Y30989632D01*
X13733246Y30807548D01*
X13751934Y30553820D01*
X13757948Y30188551D01*
X13758333Y29978184D01*
X13753932Y29529506D01*
X13736406Y29204478D01*
X13699270Y28957545D01*
X13636038Y28743153D01*
X13554642Y28547408D01*
X13428457Y28291481D01*
X13329043Y28164312D01*
X13227048Y28134897D01*
X13173642Y28144974D01*
X12987534Y28183308D01*
X12712334Y28226587D01*
X12554317Y28247432D01*
X12203183Y28248609D01*
X11927015Y28172646D01*
X11745248Y28040261D01*
X11677321Y27872176D01*
X11742670Y27689111D01*
X11899106Y27548961D01*
X12062122Y27471748D01*
X12274063Y27440176D01*
X12586228Y27448382D01*
X12701472Y27457251D01*
X13288731Y27506485D01*
X13542208Y27198973D01*
X13840218Y26734271D01*
X14080812Y26156487D01*
X14251887Y25515698D01*
X14341336Y24861981D01*
X14337053Y24245413D01*
X14308173Y24030381D01*
X14227657Y23676186D01*
X14120386Y23328966D01*
X14043569Y23138888D01*
X13739955Y22681752D01*
X13338986Y22351901D01*
X12865675Y22159569D01*
X12345036Y22114994D01*
X11811000Y22225233D01*
X11552313Y22360213D01*
X11275401Y22568718D01*
X11150861Y22688164D01*
X10829389Y23031293D01*
X10854527Y26903814D01*
X10860859Y27819849D01*
X10867356Y28582220D01*
X10874711Y29206594D01*
X10883616Y29708640D01*
X10894762Y30104027D01*
X10908841Y30408421D01*
X10926545Y30637491D01*
X10948566Y30806906D01*
X10975596Y30932333D01*
X11008326Y31029440D01*
X11039748Y31098613D01*
X11326489Y31501326D01*
X11714921Y31770481D01*
X12192899Y31897879D01*
X12228759Y31901223D01*
X12727485Y31874005D01*
G36*
X18161074Y31411112D02*
G01*
X24214814Y25357371D01*
X18182019Y19325019D01*
X12149224Y13292666D01*
X6889289Y18552986D01*
X9255403Y18552986D01*
X9290502Y18496356D01*
X9406288Y18468102D01*
X9635138Y18458382D01*
X9895340Y18457334D01*
X10565240Y18457334D01*
X10663121Y18986500D01*
X10701182Y19261634D01*
X10739643Y19660310D01*
X10774854Y20136788D01*
X10803165Y20645324D01*
X10811877Y20851055D01*
X10862753Y22186443D01*
X11040543Y22054752D01*
X11565879Y21766356D01*
X12171136Y21604722D01*
X12819804Y21573660D01*
X13475375Y21676975D01*
X13768145Y21770277D01*
X14278323Y22038239D01*
X14761299Y22433852D01*
X15173318Y22916241D01*
X15402974Y23297355D01*
X15683181Y24019603D01*
X15810190Y24740000D01*
X15788345Y25439821D01*
X15621988Y26100341D01*
X15315466Y26702835D01*
X14873122Y27228579D01*
X14406364Y27592972D01*
X14000740Y27853260D01*
X14437813Y28304513D01*
X14807426Y28763869D01*
X15036300Y29250983D01*
X15141698Y29810012D01*
X15153473Y30135250D01*
X15076150Y30759298D01*
X14855892Y31303351D01*
X14503642Y31758094D01*
X14030341Y32114214D01*
X13446930Y32362397D01*
X12764352Y32493329D01*
X12361333Y32512000D01*
X11661849Y32448746D01*
X11052255Y32253442D01*
X10506847Y31917779D01*
X10495445Y31908809D01*
X10106389Y31520067D01*
X9825011Y31044001D01*
X9638987Y30455845D01*
X9569094Y30047194D01*
X9553773Y29845032D01*
X9539278Y29491465D01*
X9525892Y29004423D01*
X9513897Y28401833D01*
X9503574Y27701624D01*
X9495206Y26921723D01*
X9489074Y26080059D01*
X9485462Y25194561D01*
X9484641Y24680334D01*
X9482849Y23572322D01*
X9478759Y22618955D01*
X9471843Y21805556D01*
X9461577Y21117447D01*
X9447434Y20539948D01*
X9428890Y20058382D01*
X9405418Y19658071D01*
X9376492Y19324336D01*
X9341588Y19042499D01*
X9300179Y18797881D01*
X9268610Y18647834D01*
X9255403Y18552986D01*
X6889289Y18552986D01*
X6095926Y19346407D01*
X42629Y25400148D01*
X12107333Y37464852D01*
X18161074Y31411112D01*
G37*
X18161074Y31411112D02*
X24214814Y25357371D01*
X18182019Y19325019D01*
X12149224Y13292666D01*
X6889289Y18552986D01*
X9255403Y18552986D01*
X9290502Y18496356D01*
X9406288Y18468102D01*
X9635138Y18458382D01*
X9895340Y18457334D01*
X10565240Y18457334D01*
X10663121Y18986500D01*
X10701182Y19261634D01*
X10739643Y19660310D01*
X10774854Y20136788D01*
X10803165Y20645324D01*
X10811877Y20851055D01*
X10862753Y22186443D01*
X11040543Y22054752D01*
X11565879Y21766356D01*
X12171136Y21604722D01*
X12819804Y21573660D01*
X13475375Y21676975D01*
X13768145Y21770277D01*
X14278323Y22038239D01*
X14761299Y22433852D01*
X15173318Y22916241D01*
X15402974Y23297355D01*
X15683181Y24019603D01*
X15810190Y24740000D01*
X15788345Y25439821D01*
X15621988Y26100341D01*
X15315466Y26702835D01*
X14873122Y27228579D01*
X14406364Y27592972D01*
X14000740Y27853260D01*
X14437813Y28304513D01*
X14807426Y28763869D01*
X15036300Y29250983D01*
X15141698Y29810012D01*
X15153473Y30135250D01*
X15076150Y30759298D01*
X14855892Y31303351D01*
X14503642Y31758094D01*
X14030341Y32114214D01*
X13446930Y32362397D01*
X12764352Y32493329D01*
X12361333Y32512000D01*
X11661849Y32448746D01*
X11052255Y32253442D01*
X10506847Y31917779D01*
X10495445Y31908809D01*
X10106389Y31520067D01*
X9825011Y31044001D01*
X9638987Y30455845D01*
X9569094Y30047194D01*
X9553773Y29845032D01*
X9539278Y29491465D01*
X9525892Y29004423D01*
X9513897Y28401833D01*
X9503574Y27701624D01*
X9495206Y26921723D01*
X9489074Y26080059D01*
X9485462Y25194561D01*
X9484641Y24680334D01*
X9482849Y23572322D01*
X9478759Y22618955D01*
X9471843Y21805556D01*
X9461577Y21117447D01*
X9447434Y20539948D01*
X9428890Y20058382D01*
X9405418Y19658071D01*
X9376492Y19324336D01*
X9341588Y19042499D01*
X9300179Y18797881D01*
X9268610Y18647834D01*
X9255403Y18552986D01*
X6889289Y18552986D01*
X6095926Y19346407D01*
X42629Y25400148D01*
X12107333Y37464852D01*
X18161074Y31411112D01*
G36*
X42185Y25400000D02*
G01*
X-12065296Y13292519D01*
X-18097649Y19325314D01*
X-24130001Y25358110D01*
X-21351791Y28136117D01*
X-16425334Y28136117D01*
X-16412403Y27902511D01*
X-16361301Y27794834D01*
X-16265614Y27770667D01*
X-16158998Y27808571D01*
X-16090031Y27947082D01*
X-16045883Y28170847D01*
X-15910743Y28700306D01*
X-15687306Y29092484D01*
X-15380149Y29342876D01*
X-14993851Y29446979D01*
X-14755032Y29440903D01*
X-14439130Y29365025D01*
X-14173406Y29203199D01*
X-13944557Y28937328D01*
X-13739281Y28549320D01*
X-13544276Y28021080D01*
X-13428848Y27637005D01*
X-13325736Y27236845D01*
X-13203851Y26705352D01*
X-13070461Y26078515D01*
X-12932836Y25392318D01*
X-12798244Y24682749D01*
X-12673956Y23985794D01*
X-12592194Y23495000D01*
X-12483399Y22817667D01*
X-12812083Y22055667D01*
X-13111970Y21294534D01*
X-13314328Y20609441D01*
X-13430483Y19946720D01*
X-13471760Y19252702D01*
X-13469524Y18940319D01*
X-13397730Y18607407D01*
X-13223626Y18366754D01*
X-12982857Y18233382D01*
X-12711066Y18222314D01*
X-12443898Y18348573D01*
X-12329781Y18459963D01*
X-12199521Y18629610D01*
X-12098258Y18807243D01*
X-12022332Y19016350D01*
X-11968085Y19280420D01*
X-11931859Y19622941D01*
X-11909995Y20067401D01*
X-11898833Y20637289D01*
X-11894988Y21251334D01*
X-11889370Y23156334D01*
X-10463095Y26119667D01*
X-10128618Y26815147D01*
X-9802260Y27494766D01*
X-9494876Y28135845D01*
X-9217321Y28715707D01*
X-8980448Y29211675D01*
X-8795114Y29601069D01*
X-8672172Y29861213D01*
X-8669850Y29866167D01*
X-8302880Y30649334D01*
X-10206209Y30649334D01*
X-11041812Y27749500D01*
X-11238930Y27067876D01*
X-11424873Y26429536D01*
X-11593607Y25854841D01*
X-11739101Y25364151D01*
X-11855322Y24977828D01*
X-11936236Y24716231D01*
X-11973215Y24605953D01*
X-12008950Y24537151D01*
X-12042956Y24536182D01*
X-12079640Y24620676D01*
X-12123404Y24808258D01*
X-12178655Y25116556D01*
X-12249796Y25563198D01*
X-12308278Y25946863D01*
X-12448966Y26813207D01*
X-12598650Y27615699D01*
X-12752496Y28333415D01*
X-12905671Y28945433D01*
X-13053339Y29430831D01*
X-13190668Y29768687D01*
X-13191811Y29770934D01*
X-13406984Y30096266D01*
X-13687235Y30389571D01*
X-13984783Y30607126D01*
X-14204387Y30697515D01*
X-14409945Y30745131D01*
X-14531076Y30776748D01*
X-14718679Y30778115D01*
X-14992090Y30720919D01*
X-15286467Y30623922D01*
X-15536971Y30505883D01*
X-15593711Y30469288D01*
X-15852969Y30198107D01*
X-16078983Y29795932D01*
X-16258510Y29299918D01*
X-16378308Y28747222D01*
X-16425131Y28174997D01*
X-16425334Y28136117D01*
X-21351791Y28136117D01*
X-18076261Y31411407D01*
X-12022519Y37464704D01*
X42185Y25400000D01*
G37*
X42185Y25400000D02*
X-12065296Y13292519D01*
X-18097649Y19325314D01*
X-24130001Y25358110D01*
X-21351791Y28136117D01*
X-16425334Y28136117D01*
X-16412403Y27902511D01*
X-16361301Y27794834D01*
X-16265614Y27770667D01*
X-16158998Y27808571D01*
X-16090031Y27947082D01*
X-16045883Y28170847D01*
X-15910743Y28700306D01*
X-15687306Y29092484D01*
X-15380149Y29342876D01*
X-14993851Y29446979D01*
X-14755032Y29440903D01*
X-14439130Y29365025D01*
X-14173406Y29203199D01*
X-13944557Y28937328D01*
X-13739281Y28549320D01*
X-13544276Y28021080D01*
X-13428848Y27637005D01*
X-13325736Y27236845D01*
X-13203851Y26705352D01*
X-13070461Y26078515D01*
X-12932836Y25392318D01*
X-12798244Y24682749D01*
X-12673956Y23985794D01*
X-12592194Y23495000D01*
X-12483399Y22817667D01*
X-12812083Y22055667D01*
X-13111970Y21294534D01*
X-13314328Y20609441D01*
X-13430483Y19946720D01*
X-13471760Y19252702D01*
X-13469524Y18940319D01*
X-13397730Y18607407D01*
X-13223626Y18366754D01*
X-12982857Y18233382D01*
X-12711066Y18222314D01*
X-12443898Y18348573D01*
X-12329781Y18459963D01*
X-12199521Y18629610D01*
X-12098258Y18807243D01*
X-12022332Y19016350D01*
X-11968085Y19280420D01*
X-11931859Y19622941D01*
X-11909995Y20067401D01*
X-11898833Y20637289D01*
X-11894988Y21251334D01*
X-11889370Y23156334D01*
X-10463095Y26119667D01*
X-10128618Y26815147D01*
X-9802260Y27494766D01*
X-9494876Y28135845D01*
X-9217321Y28715707D01*
X-8980448Y29211675D01*
X-8795114Y29601069D01*
X-8672172Y29861213D01*
X-8669850Y29866167D01*
X-8302880Y30649334D01*
X-10206209Y30649334D01*
X-11041812Y27749500D01*
X-11238930Y27067876D01*
X-11424873Y26429536D01*
X-11593607Y25854841D01*
X-11739101Y25364151D01*
X-11855322Y24977828D01*
X-11936236Y24716231D01*
X-11973215Y24605953D01*
X-12008950Y24537151D01*
X-12042956Y24536182D01*
X-12079640Y24620676D01*
X-12123404Y24808258D01*
X-12178655Y25116556D01*
X-12249796Y25563198D01*
X-12308278Y25946863D01*
X-12448966Y26813207D01*
X-12598650Y27615699D01*
X-12752496Y28333415D01*
X-12905671Y28945433D01*
X-13053339Y29430831D01*
X-13190668Y29768687D01*
X-13191811Y29770934D01*
X-13406984Y30096266D01*
X-13687235Y30389571D01*
X-13984783Y30607126D01*
X-14204387Y30697515D01*
X-14409945Y30745131D01*
X-14531076Y30776748D01*
X-14718679Y30778115D01*
X-14992090Y30720919D01*
X-15286467Y30623922D01*
X-15536971Y30505883D01*
X-15593711Y30469288D01*
X-15852969Y30198107D01*
X-16078983Y29795932D01*
X-16258510Y29299918D01*
X-16378308Y28747222D01*
X-16425131Y28174997D01*
X-16425334Y28136117D01*
X-21351791Y28136117D01*
X-18076261Y31411407D01*
X-12022519Y37464704D01*
X42185Y25400000D01*
D11*
G36*
X831606Y56081438D02*
G01*
X1350455Y55866524D01*
X1817407Y55554516D01*
X2214516Y55157407D01*
X2526524Y54690455D01*
X2741438Y54171606D01*
X2851000Y53620799D01*
X2851000Y53059201D01*
X2741438Y52508394D01*
X2526524Y51989545D01*
X2214516Y51522593D01*
X1817407Y51125484D01*
X1350455Y50813476D01*
X831606Y50598562D01*
X556202Y50543781D01*
X280800Y50489000D01*
X-280800Y50489000D01*
X-556202Y50543781D01*
X-831606Y50598562D01*
X-1350455Y50813476D01*
X-1817407Y51125484D01*
X-2214516Y51522593D01*
X-2526524Y51989545D01*
X-2741438Y52508394D01*
X-2851000Y53059201D01*
X-2851000Y53620799D01*
X-2741438Y54171606D01*
X-2526524Y54690455D01*
X-2214516Y55157407D01*
X-1817407Y55554516D01*
X-1350455Y55866524D01*
X-831606Y56081438D01*
X-280800Y56191000D01*
X280800Y56191000D01*
X831606Y56081438D01*
G37*
M02*
