G04 #@! TF.GenerationSoftware,KiCad,Pcbnew,(5.1.9)-1*
G04 #@! TF.CreationDate,2021-03-26T23:54:28-07:00*
G04 #@! TF.ProjectId,mole-diamond-keychain-alt_rotated,6d6f6c65-2d64-4696-916d-6f6e642d6b65,A*
G04 #@! TF.SameCoordinates,PX6d9f5PYfff9260b*
G04 #@! TF.FileFunction,Soldermask,Top*
G04 #@! TF.FilePolarity,Negative*
%FSLAX46Y46*%
G04 Gerber Fmt 4.6, Leading zero omitted, Abs format (unit mm)*
G04 Created by KiCad (PCBNEW (5.1.9)-1) date 2021-03-26 23:54:28*
%MOMM*%
%LPD*%
G01*
G04 APERTURE LIST*
%ADD10C,0.010000*%
%ADD11C,5.702000*%
G04 APERTURE END LIST*
D10*
G36*
X11038412Y31648624D02*
G01*
X11117105Y31515357D01*
X11213389Y31361594D01*
X11320827Y31077625D01*
X11364777Y30700245D01*
X11342373Y30294159D01*
X11274197Y29990403D01*
X11133303Y29655457D01*
X10895293Y29208710D01*
X10571542Y28668376D01*
X10173428Y28052669D01*
X9712325Y27379800D01*
X9199611Y26667981D01*
X9194923Y26661624D01*
X8866432Y26214067D01*
X8630766Y25885962D01*
X8478576Y25661734D01*
X8400512Y25525802D01*
X8387224Y25462586D01*
X8429363Y25456510D01*
X8483681Y25476533D01*
X8612260Y25541052D01*
X8870233Y25677615D01*
X9238939Y25876090D01*
X9699714Y26126345D01*
X10233893Y26418248D01*
X10822816Y26741670D01*
X11365106Y27040755D01*
X14006459Y28500386D01*
X15352316Y27154529D01*
X14539046Y26860234D01*
X14272099Y26764591D01*
X13869007Y26621450D01*
X13353482Y26439171D01*
X12749236Y26226113D01*
X12079978Y25990637D01*
X11369422Y25741105D01*
X10641276Y25485875D01*
X10621855Y25479074D01*
X7517933Y24392210D01*
X6166922Y23049144D01*
X5670152Y22559219D01*
X5271153Y22177715D01*
X4950731Y21890611D01*
X4689689Y21683884D01*
X4468832Y21543512D01*
X4268962Y21455474D01*
X4070887Y21405748D01*
X3885680Y21382792D01*
X3553355Y21420742D01*
X3321342Y21589221D01*
X3206738Y21872844D01*
X3197515Y22001927D01*
X3270018Y22321931D01*
X3419423Y22528375D01*
X3940096Y23030212D01*
X4472365Y23444450D01*
X5062185Y23801030D01*
X5755516Y24129894D01*
X6087188Y24266377D01*
X6858418Y24572778D01*
X7260435Y25128654D01*
X7650905Y25677307D01*
X8058174Y26265007D01*
X8461937Y26861170D01*
X8841888Y27435208D01*
X9177719Y27956534D01*
X9449126Y28394562D01*
X9597671Y28649098D01*
X9897573Y29225029D01*
X10089058Y29695985D01*
X10175514Y30084169D01*
X10160329Y30411781D01*
X10046893Y30701023D01*
X9935466Y30862400D01*
X9616884Y31147629D01*
X9247370Y31273482D01*
X8833343Y31239907D01*
X8381225Y31046852D01*
X8124631Y30877104D01*
X7908300Y30735799D01*
X7771019Y30702308D01*
X7686288Y30749508D01*
X7635014Y30842622D01*
X7684417Y30958579D01*
X7831761Y31120859D01*
X8265611Y31496226D01*
X8739688Y31807340D01*
X9218354Y32037293D01*
X9665974Y32169175D01*
X10046909Y32186081D01*
X10069608Y32182614D01*
X10313896Y32109003D01*
X10592008Y31979747D01*
X10844828Y31827428D01*
X11013242Y31684630D01*
X11038412Y31648624D01*
G37*
X11038412Y31648624D02*
X11117105Y31515357D01*
X11213389Y31361594D01*
X11320827Y31077625D01*
X11364777Y30700245D01*
X11342373Y30294159D01*
X11274197Y29990403D01*
X11133303Y29655457D01*
X10895293Y29208710D01*
X10571542Y28668376D01*
X10173428Y28052669D01*
X9712325Y27379800D01*
X9199611Y26667981D01*
X9194923Y26661624D01*
X8866432Y26214067D01*
X8630766Y25885962D01*
X8478576Y25661734D01*
X8400512Y25525802D01*
X8387224Y25462586D01*
X8429363Y25456510D01*
X8483681Y25476533D01*
X8612260Y25541052D01*
X8870233Y25677615D01*
X9238939Y25876090D01*
X9699714Y26126345D01*
X10233893Y26418248D01*
X10822816Y26741670D01*
X11365106Y27040755D01*
X14006459Y28500386D01*
X15352316Y27154529D01*
X14539046Y26860234D01*
X14272099Y26764591D01*
X13869007Y26621450D01*
X13353482Y26439171D01*
X12749236Y26226113D01*
X12079978Y25990637D01*
X11369422Y25741105D01*
X10641276Y25485875D01*
X10621855Y25479074D01*
X7517933Y24392210D01*
X6166922Y23049144D01*
X5670152Y22559219D01*
X5271153Y22177715D01*
X4950731Y21890611D01*
X4689689Y21683884D01*
X4468832Y21543512D01*
X4268962Y21455474D01*
X4070887Y21405748D01*
X3885680Y21382792D01*
X3553355Y21420742D01*
X3321342Y21589221D01*
X3206738Y21872844D01*
X3197515Y22001927D01*
X3270018Y22321931D01*
X3419423Y22528375D01*
X3940096Y23030212D01*
X4472365Y23444450D01*
X5062185Y23801030D01*
X5755516Y24129894D01*
X6087188Y24266377D01*
X6858418Y24572778D01*
X7260435Y25128654D01*
X7650905Y25677307D01*
X8058174Y26265007D01*
X8461937Y26861170D01*
X8841888Y27435208D01*
X9177719Y27956534D01*
X9449126Y28394562D01*
X9597671Y28649098D01*
X9897573Y29225029D01*
X10089058Y29695985D01*
X10175514Y30084169D01*
X10160329Y30411781D01*
X10046893Y30701023D01*
X9935466Y30862400D01*
X9616884Y31147629D01*
X9247370Y31273482D01*
X8833343Y31239907D01*
X8381225Y31046852D01*
X8124631Y30877104D01*
X7908300Y30735799D01*
X7771019Y30702308D01*
X7686288Y30749508D01*
X7635014Y30842622D01*
X7684417Y30958579D01*
X7831761Y31120859D01*
X8265611Y31496226D01*
X8739688Y31807340D01*
X9218354Y32037293D01*
X9665974Y32169175D01*
X10046909Y32186081D01*
X10069608Y32182614D01*
X10313896Y32109003D01*
X10592008Y31979747D01*
X10844828Y31827428D01*
X11013242Y31684630D01*
X11038412Y31648624D01*
G36*
X34603816Y8980346D02*
G01*
X34603815Y419065D01*
X26072468Y419378D01*
X17541120Y419690D01*
X17541433Y8980660D01*
X17541747Y17541628D01*
X34603815Y17541628D01*
X34603816Y8980346D01*
G37*
X34603816Y8980346D02*
X34603815Y419065D01*
X26072468Y419378D01*
X17541120Y419690D01*
X17541433Y8980660D01*
X17541747Y17541628D01*
X34603815Y17541628D01*
X34603816Y8980346D01*
G36*
X11038412Y31648624D02*
G01*
X11117105Y31515357D01*
X11213389Y31361594D01*
X11320827Y31077625D01*
X11364777Y30700245D01*
X11342373Y30294159D01*
X11274197Y29990403D01*
X11133303Y29655457D01*
X10895293Y29208710D01*
X10571542Y28668376D01*
X10173428Y28052669D01*
X9712325Y27379800D01*
X9199611Y26667981D01*
X9194923Y26661624D01*
X8866432Y26214067D01*
X8630766Y25885962D01*
X8478576Y25661734D01*
X8400512Y25525802D01*
X8387224Y25462586D01*
X8429363Y25456510D01*
X8483681Y25476533D01*
X8612260Y25541052D01*
X8870233Y25677615D01*
X9238939Y25876090D01*
X9699714Y26126345D01*
X10233893Y26418248D01*
X10822816Y26741670D01*
X11365106Y27040755D01*
X14006459Y28500386D01*
X15352316Y27154529D01*
X14539046Y26860234D01*
X14272099Y26764591D01*
X13869007Y26621450D01*
X13353482Y26439171D01*
X12749236Y26226113D01*
X12079978Y25990637D01*
X11369422Y25741105D01*
X10641276Y25485875D01*
X10621855Y25479074D01*
X7517933Y24392210D01*
X6166922Y23049144D01*
X5670152Y22559219D01*
X5271153Y22177715D01*
X4950731Y21890611D01*
X4689689Y21683884D01*
X4468832Y21543512D01*
X4268962Y21455474D01*
X4070887Y21405748D01*
X3885680Y21382792D01*
X3553355Y21420742D01*
X3321342Y21589221D01*
X3206738Y21872844D01*
X3197515Y22001927D01*
X3270018Y22321931D01*
X3419423Y22528375D01*
X3940096Y23030212D01*
X4472365Y23444450D01*
X5062185Y23801030D01*
X5755516Y24129894D01*
X6087188Y24266377D01*
X6858418Y24572778D01*
X7260435Y25128654D01*
X7650905Y25677307D01*
X8058174Y26265007D01*
X8461937Y26861170D01*
X8841888Y27435208D01*
X9177719Y27956534D01*
X9449126Y28394562D01*
X9597671Y28649098D01*
X9897573Y29225029D01*
X10089058Y29695985D01*
X10175514Y30084169D01*
X10160329Y30411781D01*
X10046893Y30701023D01*
X9935466Y30862400D01*
X9616884Y31147629D01*
X9247370Y31273482D01*
X8833343Y31239907D01*
X8381225Y31046852D01*
X8124631Y30877104D01*
X7908300Y30735799D01*
X7771019Y30702308D01*
X7686288Y30749508D01*
X7635014Y30842622D01*
X7684417Y30958579D01*
X7831761Y31120859D01*
X8265611Y31496226D01*
X8739688Y31807340D01*
X9218354Y32037293D01*
X9665974Y32169175D01*
X10046909Y32186081D01*
X10069608Y32182614D01*
X10313896Y32109003D01*
X10592008Y31979747D01*
X10844828Y31827428D01*
X11013242Y31684630D01*
X11038412Y31648624D01*
G37*
X11038412Y31648624D02*
X11117105Y31515357D01*
X11213389Y31361594D01*
X11320827Y31077625D01*
X11364777Y30700245D01*
X11342373Y30294159D01*
X11274197Y29990403D01*
X11133303Y29655457D01*
X10895293Y29208710D01*
X10571542Y28668376D01*
X10173428Y28052669D01*
X9712325Y27379800D01*
X9199611Y26667981D01*
X9194923Y26661624D01*
X8866432Y26214067D01*
X8630766Y25885962D01*
X8478576Y25661734D01*
X8400512Y25525802D01*
X8387224Y25462586D01*
X8429363Y25456510D01*
X8483681Y25476533D01*
X8612260Y25541052D01*
X8870233Y25677615D01*
X9238939Y25876090D01*
X9699714Y26126345D01*
X10233893Y26418248D01*
X10822816Y26741670D01*
X11365106Y27040755D01*
X14006459Y28500386D01*
X15352316Y27154529D01*
X14539046Y26860234D01*
X14272099Y26764591D01*
X13869007Y26621450D01*
X13353482Y26439171D01*
X12749236Y26226113D01*
X12079978Y25990637D01*
X11369422Y25741105D01*
X10641276Y25485875D01*
X10621855Y25479074D01*
X7517933Y24392210D01*
X6166922Y23049144D01*
X5670152Y22559219D01*
X5271153Y22177715D01*
X4950731Y21890611D01*
X4689689Y21683884D01*
X4468832Y21543512D01*
X4268962Y21455474D01*
X4070887Y21405748D01*
X3885680Y21382792D01*
X3553355Y21420742D01*
X3321342Y21589221D01*
X3206738Y21872844D01*
X3197515Y22001927D01*
X3270018Y22321931D01*
X3419423Y22528375D01*
X3940096Y23030212D01*
X4472365Y23444450D01*
X5062185Y23801030D01*
X5755516Y24129894D01*
X6087188Y24266377D01*
X6858418Y24572778D01*
X7260435Y25128654D01*
X7650905Y25677307D01*
X8058174Y26265007D01*
X8461937Y26861170D01*
X8841888Y27435208D01*
X9177719Y27956534D01*
X9449126Y28394562D01*
X9597671Y28649098D01*
X9897573Y29225029D01*
X10089058Y29695985D01*
X10175514Y30084169D01*
X10160329Y30411781D01*
X10046893Y30701023D01*
X9935466Y30862400D01*
X9616884Y31147629D01*
X9247370Y31273482D01*
X8833343Y31239907D01*
X8381225Y31046852D01*
X8124631Y30877104D01*
X7908300Y30735799D01*
X7771019Y30702308D01*
X7686288Y30749508D01*
X7635014Y30842622D01*
X7684417Y30958579D01*
X7831761Y31120859D01*
X8265611Y31496226D01*
X8739688Y31807340D01*
X9218354Y32037293D01*
X9665974Y32169175D01*
X10046909Y32186081D01*
X10069608Y32182614D01*
X10313896Y32109003D01*
X10592008Y31979747D01*
X10844828Y31827428D01*
X11013242Y31684630D01*
X11038412Y31648624D01*
G36*
X34603816Y8980346D02*
G01*
X34603815Y419065D01*
X26072468Y419378D01*
X17541120Y419690D01*
X17541433Y8980660D01*
X17541747Y17541628D01*
X34603815Y17541628D01*
X34603816Y8980346D01*
G37*
X34603816Y8980346D02*
X34603815Y419065D01*
X26072468Y419378D01*
X17541120Y419690D01*
X17541433Y8980660D01*
X17541747Y17541628D01*
X34603815Y17541628D01*
X34603816Y8980346D01*
D11*
X37268063Y37268070D03*
M02*
