G04 #@! TF.GenerationSoftware,KiCad,Pcbnew,(5.1.5)-3*
G04 #@! TF.CreationDate,2019-12-21T12:13:31-08:00*
G04 #@! TF.ProjectId,mole-diamond-keychain,6d6f6c65-2d64-4696-916d-6f6e642d6b65,A*
G04 #@! TF.SameCoordinates,Original*
G04 #@! TF.FileFunction,Legend,Bot*
G04 #@! TF.FilePolarity,Positive*
%FSLAX46Y46*%
G04 Gerber Fmt 4.6, Leading zero omitted, Abs format (unit mm)*
G04 Created by KiCad (PCBNEW (5.1.5)-3) date 2019-12-21 12:13:31*
%MOMM*%
%LPD*%
G04 APERTURE LIST*
%ADD10C,0.010000*%
G04 APERTURE END LIST*
D10*
G36*
X-876006Y37820217D02*
G01*
X-1395841Y37079959D01*
X-1757890Y36330135D01*
X-1972609Y35541974D01*
X-2050450Y34686704D01*
X-2051104Y34586334D01*
X-1998861Y33800674D01*
X-1847830Y33119990D01*
X-1603573Y32554072D01*
X-1271647Y32112711D01*
X-857613Y31805695D01*
X-381000Y31645195D01*
X-172795Y31620963D01*
X-42333Y31625697D01*
X97638Y31661153D01*
X280171Y31703130D01*
X474396Y31789508D01*
X720096Y31955490D01*
X882538Y32091750D01*
X1253709Y32541777D01*
X1534993Y33104540D01*
X1724812Y33748296D01*
X1821589Y34441299D01*
X1823747Y35151804D01*
X1729710Y35848066D01*
X1537900Y36498341D01*
X1246739Y37070882D01*
X1137591Y37225618D01*
X841098Y37516796D01*
X430617Y37787574D01*
X-39055Y38003976D01*
X-210626Y38061591D01*
X-588896Y38175433D01*
X-876006Y37820217D01*
G37*
X-876006Y37820217D02*
X-1395841Y37079959D01*
X-1757890Y36330135D01*
X-1972609Y35541974D01*
X-2050450Y34686704D01*
X-2051104Y34586334D01*
X-1998861Y33800674D01*
X-1847830Y33119990D01*
X-1603573Y32554072D01*
X-1271647Y32112711D01*
X-857613Y31805695D01*
X-381000Y31645195D01*
X-172795Y31620963D01*
X-42333Y31625697D01*
X97638Y31661153D01*
X280171Y31703130D01*
X474396Y31789508D01*
X720096Y31955490D01*
X882538Y32091750D01*
X1253709Y32541777D01*
X1534993Y33104540D01*
X1724812Y33748296D01*
X1821589Y34441299D01*
X1823747Y35151804D01*
X1729710Y35848066D01*
X1537900Y36498341D01*
X1246739Y37070882D01*
X1137591Y37225618D01*
X841098Y37516796D01*
X430617Y37787574D01*
X-39055Y38003976D01*
X-210626Y38061591D01*
X-588896Y38175433D01*
X-876006Y37820217D01*
G36*
X-6075055Y43497280D02*
G01*
X-12107334Y37464558D01*
X-6074612Y31432278D01*
X-41890Y25399999D01*
X5990389Y31432721D01*
X9112987Y34555548D01*
X3449315Y34555548D01*
X3381795Y33853765D01*
X3216986Y33188760D01*
X3096432Y32882531D01*
X2725983Y32266014D01*
X2241463Y31760702D01*
X1664574Y31376614D01*
X1017020Y31123768D01*
X320505Y31012184D01*
X-403267Y31051880D01*
X-723044Y31119403D01*
X-1303198Y31322054D01*
X-1826016Y31623727D01*
X-2337945Y32052705D01*
X-2469309Y32182789D01*
X-2984139Y32820449D01*
X-3359554Y33530796D01*
X-3591325Y34290334D01*
X-3675222Y35075570D01*
X-3607016Y35863010D01*
X-3382478Y36629160D01*
X-3302607Y36812081D01*
X-3128056Y37163319D01*
X-2943312Y37478717D01*
X-2731775Y37774404D01*
X-2476849Y38066506D01*
X-2161934Y38371149D01*
X-1770435Y38704460D01*
X-1285752Y39082566D01*
X-691288Y39521594D01*
X-16238Y40005180D01*
X412710Y40315249D01*
X809408Y40612347D01*
X1146447Y40875146D01*
X1396414Y41082321D01*
X1524753Y41204126D01*
X1761930Y41569713D01*
X1838070Y41924418D01*
X1761303Y42249923D01*
X1539763Y42527915D01*
X1181582Y42740078D01*
X793177Y42851792D01*
X409667Y42891315D01*
X64795Y42845814D01*
X-274990Y42701216D01*
X-643240Y42443450D01*
X-1054050Y42077071D01*
X-1420451Y41734361D01*
X-1697508Y41496694D01*
X-1912271Y41346122D01*
X-2091787Y41264697D01*
X-2263106Y41234472D01*
X-2326615Y41232667D01*
X-2600208Y41306041D01*
X-2806004Y41500015D01*
X-2932165Y41775367D01*
X-2966850Y42092876D01*
X-2898217Y42413321D01*
X-2755205Y42652354D01*
X-2425154Y42930468D01*
X-1967124Y43156696D01*
X-1415787Y43326246D01*
X-805817Y43434327D01*
X-171887Y43476147D01*
X451330Y43446915D01*
X1029160Y43341838D01*
X1380324Y43223845D01*
X1859654Y42948169D01*
X2196732Y42591146D01*
X2385588Y42170293D01*
X2420252Y41703127D01*
X2294755Y41207165D01*
X2159927Y40936334D01*
X2030616Y40763142D01*
X1801979Y40504464D01*
X1500387Y40188281D01*
X1152206Y39842574D01*
X926897Y39627924D01*
X-108005Y38658180D01*
X432831Y38481768D01*
X1270861Y38134697D01*
X1979658Y37684333D01*
X2555340Y37134928D01*
X2994026Y36490732D01*
X3291834Y35755998D01*
X3409737Y35220915D01*
X3449315Y34555548D01*
X9112987Y34555548D01*
X12022669Y37465443D01*
X5989947Y43497723D01*
X-42775Y49530001D01*
X-6075055Y43497280D01*
G37*
X-6075055Y43497280D02*
X-12107334Y37464558D01*
X-6074612Y31432278D01*
X-41890Y25399999D01*
X5990389Y31432721D01*
X9112987Y34555548D01*
X3449315Y34555548D01*
X3381795Y33853765D01*
X3216986Y33188760D01*
X3096432Y32882531D01*
X2725983Y32266014D01*
X2241463Y31760702D01*
X1664574Y31376614D01*
X1017020Y31123768D01*
X320505Y31012184D01*
X-403267Y31051880D01*
X-723044Y31119403D01*
X-1303198Y31322054D01*
X-1826016Y31623727D01*
X-2337945Y32052705D01*
X-2469309Y32182789D01*
X-2984139Y32820449D01*
X-3359554Y33530796D01*
X-3591325Y34290334D01*
X-3675222Y35075570D01*
X-3607016Y35863010D01*
X-3382478Y36629160D01*
X-3302607Y36812081D01*
X-3128056Y37163319D01*
X-2943312Y37478717D01*
X-2731775Y37774404D01*
X-2476849Y38066506D01*
X-2161934Y38371149D01*
X-1770435Y38704460D01*
X-1285752Y39082566D01*
X-691288Y39521594D01*
X-16238Y40005180D01*
X412710Y40315249D01*
X809408Y40612347D01*
X1146447Y40875146D01*
X1396414Y41082321D01*
X1524753Y41204126D01*
X1761930Y41569713D01*
X1838070Y41924418D01*
X1761303Y42249923D01*
X1539763Y42527915D01*
X1181582Y42740078D01*
X793177Y42851792D01*
X409667Y42891315D01*
X64795Y42845814D01*
X-274990Y42701216D01*
X-643240Y42443450D01*
X-1054050Y42077071D01*
X-1420451Y41734361D01*
X-1697508Y41496694D01*
X-1912271Y41346122D01*
X-2091787Y41264697D01*
X-2263106Y41234472D01*
X-2326615Y41232667D01*
X-2600208Y41306041D01*
X-2806004Y41500015D01*
X-2932165Y41775367D01*
X-2966850Y42092876D01*
X-2898217Y42413321D01*
X-2755205Y42652354D01*
X-2425154Y42930468D01*
X-1967124Y43156696D01*
X-1415787Y43326246D01*
X-805817Y43434327D01*
X-171887Y43476147D01*
X451330Y43446915D01*
X1029160Y43341838D01*
X1380324Y43223845D01*
X1859654Y42948169D01*
X2196732Y42591146D01*
X2385588Y42170293D01*
X2420252Y41703127D01*
X2294755Y41207165D01*
X2159927Y40936334D01*
X2030616Y40763142D01*
X1801979Y40504464D01*
X1500387Y40188281D01*
X1152206Y39842574D01*
X926897Y39627924D01*
X-108005Y38658180D01*
X432831Y38481768D01*
X1270861Y38134697D01*
X1979658Y37684333D01*
X2555340Y37134928D01*
X2994026Y36490732D01*
X3291834Y35755998D01*
X3409737Y35220915D01*
X3449315Y34555548D01*
X9112987Y34555548D01*
X12022669Y37465443D01*
X5989947Y43497723D01*
X-42775Y49530001D01*
X-6075055Y43497280D01*
G36*
X2087821Y18608938D02*
G01*
X1665422Y18386163D01*
X1315886Y18039105D01*
X1278858Y17987241D01*
X1059645Y17578160D01*
X847068Y17000853D01*
X641380Y16256307D01*
X442834Y15345508D01*
X251683Y14269443D01*
X142128Y13555066D01*
X-47733Y12251131D01*
X-969923Y15396566D01*
X-1892113Y18542000D01*
X-2854035Y18542000D01*
X-3267845Y18540128D01*
X-3538385Y18531596D01*
X-3691704Y18512036D01*
X-3753850Y18477077D01*
X-3750873Y18422349D01*
X-3737223Y18393834D01*
X-3685659Y18289236D01*
X-3568736Y18047542D01*
X-3394004Y17684492D01*
X-3169013Y17215823D01*
X-2901311Y16657274D01*
X-2598447Y16024585D01*
X-2267972Y15333493D01*
X-1940162Y14647334D01*
X-221834Y11049000D01*
X-214654Y9144000D01*
X-210496Y8502572D01*
X-202290Y8005289D01*
X-188278Y7626979D01*
X-166699Y7342471D01*
X-135796Y7126591D01*
X-93808Y6954168D01*
X-53391Y6836676D01*
X150391Y6440206D01*
X400431Y6203587D01*
X704014Y6121887D01*
X953651Y6154585D01*
X1143717Y6287474D01*
X1277002Y6556487D01*
X1351765Y6937611D01*
X1366263Y7406833D01*
X1318757Y7940138D01*
X1207504Y8513512D01*
X1142362Y8757011D01*
X1007109Y9188602D01*
X846964Y9648272D01*
X692810Y10048131D01*
X667506Y10108317D01*
X584977Y10301795D01*
X521939Y10467676D01*
X479670Y10627782D01*
X459451Y10803935D01*
X462561Y11017959D01*
X490278Y11291675D01*
X543883Y11646906D01*
X624654Y12105474D01*
X733872Y12689202D01*
X856671Y13335000D01*
X1049688Y14285549D01*
X1242668Y15110563D01*
X1432817Y15800333D01*
X1617341Y16345150D01*
X1793445Y16735305D01*
X1871417Y16860955D01*
X2169171Y17156555D01*
X2521892Y17318654D01*
X2893911Y17348790D01*
X3249558Y17248500D01*
X3553164Y17019322D01*
X3716439Y16781435D01*
X3832680Y16489366D01*
X3922647Y16153069D01*
X3938550Y16063513D01*
X3989550Y15814080D01*
X4059761Y15694000D01*
X4170215Y15663334D01*
X4253671Y15674155D01*
X4301058Y15729076D01*
X4318463Y15861786D01*
X4311974Y16105973D01*
X4296438Y16361834D01*
X4195214Y17097655D01*
X3996584Y17698592D01*
X3701478Y18163015D01*
X3310826Y18489293D01*
X3004244Y18627137D01*
X2546342Y18693805D01*
X2087821Y18608938D01*
G37*
X2087821Y18608938D02*
X1665422Y18386163D01*
X1315886Y18039105D01*
X1278858Y17987241D01*
X1059645Y17578160D01*
X847068Y17000853D01*
X641380Y16256307D01*
X442834Y15345508D01*
X251683Y14269443D01*
X142128Y13555066D01*
X-47733Y12251131D01*
X-969923Y15396566D01*
X-1892113Y18542000D01*
X-2854035Y18542000D01*
X-3267845Y18540128D01*
X-3538385Y18531596D01*
X-3691704Y18512036D01*
X-3753850Y18477077D01*
X-3750873Y18422349D01*
X-3737223Y18393834D01*
X-3685659Y18289236D01*
X-3568736Y18047542D01*
X-3394004Y17684492D01*
X-3169013Y17215823D01*
X-2901311Y16657274D01*
X-2598447Y16024585D01*
X-2267972Y15333493D01*
X-1940162Y14647334D01*
X-221834Y11049000D01*
X-214654Y9144000D01*
X-210496Y8502572D01*
X-202290Y8005289D01*
X-188278Y7626979D01*
X-166699Y7342471D01*
X-135796Y7126591D01*
X-93808Y6954168D01*
X-53391Y6836676D01*
X150391Y6440206D01*
X400431Y6203587D01*
X704014Y6121887D01*
X953651Y6154585D01*
X1143717Y6287474D01*
X1277002Y6556487D01*
X1351765Y6937611D01*
X1366263Y7406833D01*
X1318757Y7940138D01*
X1207504Y8513512D01*
X1142362Y8757011D01*
X1007109Y9188602D01*
X846964Y9648272D01*
X692810Y10048131D01*
X667506Y10108317D01*
X584977Y10301795D01*
X521939Y10467676D01*
X479670Y10627782D01*
X459451Y10803935D01*
X462561Y11017959D01*
X490278Y11291675D01*
X543883Y11646906D01*
X624654Y12105474D01*
X733872Y12689202D01*
X856671Y13335000D01*
X1049688Y14285549D01*
X1242668Y15110563D01*
X1432817Y15800333D01*
X1617341Y16345150D01*
X1793445Y16735305D01*
X1871417Y16860955D01*
X2169171Y17156555D01*
X2521892Y17318654D01*
X2893911Y17348790D01*
X3249558Y17248500D01*
X3553164Y17019322D01*
X3716439Y16781435D01*
X3832680Y16489366D01*
X3922647Y16153069D01*
X3938550Y16063513D01*
X3989550Y15814080D01*
X4059761Y15694000D01*
X4170215Y15663334D01*
X4253671Y15674155D01*
X4301058Y15729076D01*
X4318463Y15861786D01*
X4311974Y16105973D01*
X4296438Y16361834D01*
X4195214Y17097655D01*
X3996584Y17698592D01*
X3701478Y18163015D01*
X3310826Y18489293D01*
X3004244Y18627137D01*
X2546342Y18693805D01*
X2087821Y18608938D01*
M02*
