%MOIN*%
%OFA0B0*%
%FSLAX44Y44*%
%IPPOS*%
%LPD*%
%ADD10C,0.00984251968503937*%
%ADD11C,0.011811023622047244*%
%ADD12C,0.013779527559055118*%
%ADD13C,0.015748031496062992*%
%ADD14C,0.017716535433070866*%
D10*
X-00001303Y00018791D02*
X-00000367Y00019727D01*
X-00000384Y00019732D01*
X-00000402Y00019738D01*
X-00000606Y00019823D01*
X-00000624Y00019831D01*
X-00000641Y00019841D01*
X-00000824Y00019964D01*
X-00000840Y00019975D01*
X-00000854Y00019988D01*
X-00001011Y00020145D01*
X-00001024Y00020159D01*
X-00001035Y00020175D01*
X-00001158Y00020358D01*
X-00001168Y00020375D01*
X-00001176Y00020392D01*
X-00001261Y00020597D01*
X-00001267Y00020615D01*
X-00001272Y00020634D01*
X-00001303Y00020788D01*
X-00001303Y00018791D01*
X00001303Y00018825D02*
X00001303Y00020788D01*
X00001272Y00020634D01*
X00001267Y00020615D01*
X00001261Y00020597D01*
X00001176Y00020392D01*
X00001168Y00020375D01*
X00001158Y00020358D01*
X00001035Y00020175D01*
X00001024Y00020159D01*
X00001011Y00020145D01*
X00000854Y00019988D01*
X00000840Y00019975D01*
X00000824Y00019964D01*
X00000641Y00019841D01*
X00000624Y00019831D01*
X00000606Y00019823D01*
X00000402Y00019738D01*
X00000393Y00019735D01*
X00001303Y00018825D01*
X00005643Y00011482D02*
X00005693Y00011589D01*
X00005725Y00011760D01*
X00005729Y00011855D01*
X00005705Y00012049D01*
X00005642Y00012205D01*
X00005628Y00012223D01*
X00005636Y00012181D01*
X00005638Y00012171D01*
X00005640Y00012159D01*
X00005642Y00012143D01*
X00005649Y00012043D01*
X00005650Y00012032D01*
X00005652Y00011888D01*
X00005652Y00011885D01*
X00005652Y00011802D01*
X00005652Y00011800D01*
X00005651Y00011623D01*
X00005650Y00011615D01*
X00005643Y00011487D01*
X00005643Y00011482D01*
X00003963Y00007502D02*
X00003965Y00007513D01*
X00003978Y00007606D01*
X00003992Y00007756D01*
X00004006Y00007940D01*
X00004017Y00008137D01*
X00004020Y00008216D01*
X00004040Y00008742D01*
X00004042Y00008765D01*
X00004044Y00008777D01*
X00004052Y00008807D01*
X00004063Y00008836D01*
X00004069Y00008847D01*
X00004085Y00008873D01*
X00004102Y00008893D01*
X00004088Y00008909D01*
X00004089Y00008980D01*
X00004080Y00008995D01*
X00004076Y00009014D01*
X00004027Y00009068D01*
X00004037Y00010593D01*
X00004037Y00010593D01*
X00004039Y00010954D01*
X00004039Y00010954D01*
X00004042Y00011254D01*
X00004042Y00011255D01*
X00004045Y00011500D01*
X00004045Y00011502D01*
X00004048Y00011699D01*
X00004048Y00011701D01*
X00004053Y00011857D01*
X00004053Y00011861D01*
X00004058Y00011980D01*
X00004059Y00011986D01*
X00004064Y00012060D01*
X00004024Y00011931D01*
X00004002Y00011803D01*
X00003997Y00011738D01*
X00003991Y00011603D01*
X00003986Y00011414D01*
X00003981Y00011178D01*
X00003977Y00010903D01*
X00003974Y00010597D01*
X00003972Y00010266D01*
X00003970Y00009918D01*
X00003970Y00009716D01*
X00003970Y00009716D01*
X00003969Y00009280D01*
X00003969Y00009279D01*
X00003968Y00008904D01*
X00003968Y00008903D01*
X00003965Y00008583D01*
X00003965Y00008581D01*
X00003961Y00008311D01*
X00003961Y00008309D01*
X00003955Y00008081D01*
X00003955Y00008079D01*
X00003948Y00007889D01*
X00003948Y00007885D01*
X00003938Y00007727D01*
X00003938Y00007722D01*
X00003927Y00007591D01*
X00003926Y00007583D01*
X00003916Y00007502D01*
X00003963Y00007502D01*
X-00005466Y00011704D02*
X-00005543Y00011784D01*
X-00005622Y00011842D01*
X-00005664Y00011860D01*
X-00005729Y00011875D01*
X-00005735Y00011876D01*
X-00005751Y00011880D01*
X-00005772Y00011880D01*
X-00005839Y00011866D01*
X-00005933Y00011836D01*
X-00005964Y00011821D01*
X-00005946Y00011825D01*
X-00005933Y00011827D01*
X-00005916Y00011829D01*
X-00005898Y00011829D01*
X-00005804Y00011827D01*
X-00005778Y00011824D01*
X-00005766Y00011822D01*
X-00005750Y00011819D01*
X-00005626Y00011789D01*
X-00005604Y00011783D01*
X-00005583Y00011773D01*
X-00005572Y00011768D01*
X-00005559Y00011761D01*
X-00005466Y00011704D01*
X-00004074Y00010921D02*
X-00003953Y00011174D01*
X-00003843Y00011402D01*
X-00003750Y00011597D01*
X-00003678Y00011750D01*
X-00003640Y00011830D01*
X-00003840Y00011830D01*
X-00004120Y00010858D01*
X-00004120Y00010858D01*
X-00004144Y00010775D01*
X-00004074Y00010921D01*
X00005817Y00009220D02*
X00005851Y00009276D01*
X00005946Y00009521D01*
X00005987Y00009755D01*
X00005980Y00009983D01*
X00005927Y00010194D01*
X00005832Y00010380D01*
X00005698Y00010539D01*
X00005762Y00010385D01*
X00005771Y00010360D01*
X00005838Y00010108D01*
X00005842Y00010088D01*
X00005844Y00010076D01*
X00005845Y00010072D01*
X00005880Y00009814D01*
X00005882Y00009786D01*
X00005880Y00009544D01*
X00005878Y00009519D01*
X00005867Y00009434D01*
X00005853Y00009421D01*
X00005862Y00009404D01*
X00005830Y00009265D01*
X00005826Y00009251D01*
X00005817Y00009220D01*
X-00009690Y00009969D02*
X-00009696Y00009983D01*
X-00009679Y00010026D01*
X-00009680Y00010041D01*
X-00009721Y00009999D01*
X-00009690Y00009969D01*
X00000000Y00000278D02*
X00004765Y00005043D01*
X00004720Y00005062D01*
X00004667Y00005062D01*
X00004667Y00005066D01*
X00004612Y00005070D01*
X00002543Y00007140D01*
X00002543Y00007140D01*
X00002541Y00007141D01*
X00002541Y00007141D01*
X00002237Y00007445D01*
X00002236Y00007453D01*
X00002228Y00007454D01*
X00000106Y00009576D01*
X00000105Y00009576D01*
X00000090Y00009573D01*
X00000078Y00009571D01*
X00000062Y00009569D01*
X00000031Y00009567D01*
X00000001Y00009567D01*
X-00000029Y00009569D01*
X-00000045Y00009571D01*
X-00000057Y00009573D01*
X-00000072Y00009576D01*
X-00000073Y00009576D01*
X-00004587Y00005062D01*
X-00004663Y00005062D01*
X-00004666Y00005050D01*
X-00004707Y00005054D01*
X-00004750Y00005036D01*
X-00004763Y00005042D01*
X00000000Y00000278D01*
X-00005047Y00007414D02*
X-00005035Y00007420D01*
X-00005033Y00007422D01*
X-00004999Y00007466D01*
X-00004978Y00007502D01*
X-00004960Y00007552D01*
X-00004945Y00007626D01*
X-00004933Y00007740D01*
X-00004925Y00007907D01*
X-00004920Y00008127D01*
X-00004919Y00008355D01*
X-00004938Y00008307D01*
X-00005012Y00008056D01*
X-00005052Y00007828D01*
X-00005067Y00007574D01*
X-00005066Y00007481D01*
X-00005054Y00007424D01*
X-00005047Y00007414D01*
X-00000285Y00001977D02*
X-00000314Y00001979D01*
X-00000328Y00001980D01*
X-00000426Y00001993D01*
X-00000429Y00001993D01*
X-00000434Y00001994D01*
X-00000436Y00001994D01*
X-00000449Y00001996D01*
X-00000464Y00001999D01*
X-00000494Y00002006D01*
X-00000523Y00002016D01*
X-00000552Y00002028D01*
X-00000566Y00002034D01*
X-00000577Y00002040D01*
X-00000589Y00002046D01*
X-00000612Y00002061D01*
X-00000624Y00002068D01*
X-00000699Y00002120D01*
X-00000705Y00002125D01*
X-00000719Y00002136D01*
X-00000732Y00002147D01*
X-00000745Y00002159D01*
X-00000751Y00002165D01*
X-00000760Y00002173D01*
X-00000770Y00002185D01*
X-00000791Y00002208D01*
X-00000809Y00002233D01*
X-00000825Y00002259D01*
X-00000832Y00002273D01*
X-00000838Y00002284D01*
X-00000838Y00002285D01*
X-00000839Y00002287D01*
X-00000840Y00002288D01*
X-00000892Y00002394D01*
X-00000898Y00002406D01*
X-00000908Y00002430D01*
X-00000916Y00002455D01*
X-00000923Y00002480D01*
X-00000926Y00002493D01*
X-00000955Y00002643D01*
X-00000956Y00002646D01*
X-00000957Y00002653D01*
X-00000958Y00002657D01*
X-00000960Y00002669D01*
X-00000961Y00002681D01*
X-00000964Y00002706D01*
X-00000965Y00002719D01*
X-00000970Y00002903D01*
X-00000970Y00002915D01*
X-00000970Y00002939D01*
X-00000969Y00002950D01*
X-00000950Y00003160D01*
X-00000949Y00003167D01*
X-00000948Y00003181D01*
X-00000947Y00003187D01*
X-00000945Y00003199D01*
X-00000944Y00003203D01*
X-00000943Y00003209D01*
X-00000943Y00003213D01*
X-00000899Y00003438D01*
X-00000897Y00003445D01*
X-00000894Y00003459D01*
X-00000893Y00003465D01*
X-00000867Y00003561D01*
X-00000866Y00003565D01*
X-00000864Y00003573D01*
X-00000862Y00003577D01*
X-00000809Y00003747D01*
X-00000808Y00003750D01*
X-00000806Y00003756D01*
X-00000805Y00003759D01*
X-00000742Y00003940D01*
X-00000741Y00003943D01*
X-00000739Y00003949D01*
X-00000738Y00003952D01*
X-00000677Y00004109D01*
X-00000676Y00004112D01*
X-00000674Y00004117D01*
X-00000673Y00004120D01*
X-00000663Y00004144D01*
X-00000662Y00004145D01*
X-00000662Y00004146D01*
X-00000662Y00004146D01*
X-00000632Y00004215D01*
X-00000618Y00004253D01*
X-00000615Y00004265D01*
X-00000614Y00004273D01*
X-00000614Y00004315D01*
X-00000623Y00004396D01*
X-00000640Y00004513D01*
X-00000670Y00004683D01*
X-00000713Y00004910D01*
X-00000761Y00005162D01*
X-00000835Y00005528D01*
X-00000908Y00005839D01*
X-00000978Y00006092D01*
X-00001040Y00006278D01*
X-00001083Y00006372D01*
X-00001088Y00006377D01*
X-00001097Y00006355D01*
X-00001122Y00006261D01*
X-00001125Y00006243D01*
X-00001126Y00006240D01*
X-00001126Y00006235D01*
X-00001127Y00006233D01*
X-00001147Y00006135D01*
X-00001150Y00006122D01*
X-00001157Y00006096D01*
X-00001166Y00006071D01*
X-00001176Y00006047D01*
X-00001182Y00006035D01*
X-00001188Y00006024D01*
X-00001190Y00006019D01*
X-00001196Y00006009D01*
X-00001198Y00006004D01*
X-00001226Y00005956D01*
X-00001233Y00005946D01*
X-00001247Y00005925D01*
X-00001262Y00005905D01*
X-00001279Y00005886D01*
X-00001288Y00005877D01*
X-00001296Y00005868D01*
X-00001308Y00005858D01*
X-00001331Y00005837D01*
X-00001356Y00005819D01*
X-00001383Y00005803D01*
X-00001396Y00005795D01*
X-00001407Y00005790D01*
X-00001416Y00005786D01*
X-00001434Y00005778D01*
X-00001452Y00005771D01*
X-00001471Y00005764D01*
X-00001480Y00005761D01*
X-00001524Y00005749D01*
X-00001535Y00005747D01*
X-00001556Y00005742D01*
X-00001567Y00005740D01*
X-00001580Y00005738D01*
X-00001594Y00005736D01*
X-00001622Y00005734D01*
X-00001650Y00005733D01*
X-00001678Y00005735D01*
X-00001692Y00005736D01*
X-00001725Y00005741D01*
X-00001727Y00005741D01*
X-00001733Y00005742D01*
X-00001736Y00005742D01*
X-00001748Y00005744D01*
X-00001763Y00005747D01*
X-00001793Y00005754D01*
X-00001823Y00005764D01*
X-00001851Y00005776D01*
X-00001865Y00005782D01*
X-00001876Y00005788D01*
X-00001890Y00005795D01*
X-00001916Y00005812D01*
X-00001941Y00005830D01*
X-00001964Y00005850D01*
X-00001976Y00005860D01*
X-00001984Y00005869D01*
X-00001989Y00005874D01*
X-00001999Y00005885D01*
X-00002004Y00005890D01*
X-00002023Y00005912D01*
X-00002030Y00005921D01*
X-00002045Y00005940D01*
X-00002058Y00005959D01*
X-00002070Y00005980D01*
X-00002075Y00005990D01*
X-00002081Y00006001D01*
X-00002087Y00006015D01*
X-00002099Y00006044D01*
X-00002109Y00006073D01*
X-00002116Y00006103D01*
X-00002119Y00006118D01*
X-00002121Y00006131D01*
X-00002121Y00006133D01*
X-00002122Y00006138D01*
X-00002123Y00006141D01*
X-00002129Y00006193D01*
X-00002131Y00006209D01*
X-00002132Y00006239D01*
X-00002133Y00006255D01*
X-00002130Y00006351D01*
X-00002130Y00006354D01*
X-00002130Y00006361D01*
X-00002129Y00006364D01*
X-00002123Y00006465D01*
X-00002123Y00006473D01*
X-00002121Y00006487D01*
X-00002120Y00006495D01*
X-00002081Y00006785D01*
X-00002080Y00006786D01*
X-00002080Y00006790D01*
X-00002079Y00006793D01*
X-00002077Y00006805D01*
X-00002074Y00006820D01*
X-00002067Y00006851D01*
X-00002062Y00006867D01*
X-00001984Y00007103D01*
X-00001979Y00007117D01*
X-00001967Y00007145D01*
X-00001961Y00007159D01*
X-00001955Y00007170D01*
X-00001951Y00007178D01*
X-00001942Y00007194D01*
X-00001937Y00007202D01*
X-00001821Y00007385D01*
X-00001815Y00007394D01*
X-00001802Y00007411D01*
X-00001789Y00007428D01*
X-00001774Y00007444D01*
X-00001767Y00007452D01*
X-00001758Y00007461D01*
X-00001752Y00007467D01*
X-00001739Y00007478D01*
X-00001732Y00007484D01*
X-00001579Y00007613D01*
X-00001570Y00007620D01*
X-00001552Y00007633D01*
X-00001534Y00007645D01*
X-00001514Y00007656D01*
X-00001505Y00007661D01*
X-00001494Y00007667D01*
X-00001490Y00007669D01*
X-00001481Y00007673D01*
X-00001477Y00007675D01*
X-00001356Y00007730D01*
X-00001344Y00007734D01*
X-00001319Y00007744D01*
X-00001294Y00007751D01*
X-00001269Y00007757D01*
X-00001256Y00007759D01*
X-00001244Y00007761D01*
X-00001243Y00007761D01*
X-00001240Y00007762D01*
X-00001239Y00007762D01*
X-00001059Y00007788D01*
X-00001044Y00007790D01*
X-00001014Y00007792D01*
X-00000985Y00007792D01*
X-00000955Y00007789D01*
X-00000940Y00007787D01*
X-00000928Y00007786D01*
X-00000926Y00007785D01*
X-00000921Y00007784D01*
X-00000918Y00007784D01*
X-00000738Y00007750D01*
X-00000724Y00007747D01*
X-00000696Y00007740D01*
X-00000669Y00007731D01*
X-00000643Y00007720D01*
X-00000630Y00007714D01*
X-00000620Y00007708D01*
X-00000618Y00007708D01*
X-00000616Y00007707D01*
X-00000615Y00007706D01*
X-00000448Y00007618D01*
X-00000436Y00007611D01*
X-00000411Y00007595D01*
X-00000388Y00007578D01*
X-00000365Y00007559D01*
X-00000355Y00007549D01*
X-00000217Y00007413D01*
X-00000216Y00007412D01*
X-00000207Y00007403D01*
X-00000196Y00007391D01*
X-00000175Y00007366D01*
X-00000165Y00007353D01*
X-00000151Y00007333D01*
X-00000144Y00007322D01*
X-00000130Y00007301D01*
X-00000124Y00007290D01*
X-00000038Y00007129D01*
X-00000037Y00007127D01*
X-00000035Y00007124D01*
X-00000034Y00007122D01*
X-00000029Y00007111D01*
X-00000024Y00007101D01*
X-00000014Y00007079D01*
X-00000010Y00007068D01*
X00000073Y00006841D01*
X00000076Y00006833D01*
X00000081Y00006818D01*
X00000083Y00006810D01*
X00000115Y00006693D01*
X00000329Y00007422D01*
X00000332Y00007431D01*
X00000338Y00007448D01*
X00000345Y00007466D01*
X00000352Y00007482D01*
X00000356Y00007490D01*
X00000362Y00007501D01*
X00000369Y00007515D01*
X00000386Y00007541D01*
X00000404Y00007566D01*
X00000424Y00007590D01*
X00000434Y00007601D01*
X00000443Y00007610D01*
X00000454Y00007620D01*
X00000478Y00007640D01*
X00000503Y00007658D01*
X00000529Y00007675D01*
X00000543Y00007682D01*
X00000553Y00007688D01*
X00000568Y00007694D01*
X00000596Y00007706D01*
X00000625Y00007716D01*
X00000655Y00007723D01*
X00000671Y00007726D01*
X00000683Y00007728D01*
X00000698Y00007730D01*
X00000729Y00007732D01*
X00000744Y00007733D01*
X00001124Y00007733D01*
X00001125Y00007733D01*
X00001125Y00007733D01*
X00001288Y00007732D01*
X00001290Y00007732D01*
X00001296Y00007732D01*
X00001298Y00007732D01*
X00001405Y00007728D01*
X00001414Y00007728D01*
X00001433Y00007726D01*
X00001442Y00007725D01*
X00001503Y00007718D01*
X00001506Y00007717D01*
X00001512Y00007716D01*
X00001515Y00007716D01*
X00001527Y00007714D01*
X00001542Y00007711D01*
X00001572Y00007704D01*
X00001601Y00007694D01*
X00001630Y00007682D01*
X00001644Y00007676D01*
X00001655Y00007670D01*
X00001658Y00007668D01*
X00001665Y00007665D01*
X00001669Y00007663D01*
X00001694Y00007649D01*
X00001705Y00007642D01*
X00001727Y00007627D01*
X00001749Y00007611D01*
X00001769Y00007593D01*
X00001779Y00007584D01*
X00001788Y00007576D01*
X00001798Y00007564D01*
X00001818Y00007541D01*
X00001836Y00007516D01*
X00001853Y00007489D01*
X00001860Y00007476D01*
X00001866Y00007465D01*
X00001872Y00007451D01*
X00001884Y00007422D01*
X00001893Y00007393D01*
X00001901Y00007363D01*
X00001904Y00007348D01*
X00001906Y00007336D01*
X00001907Y00007325D01*
X00001909Y00007305D01*
X00001910Y00007284D01*
X00001910Y00007263D01*
X00001910Y00007253D01*
X00001909Y00007231D01*
X00001908Y00007221D01*
X00001906Y00007201D01*
X00001904Y00007191D01*
X00001902Y00007178D01*
X00001900Y00007165D01*
X00001893Y00007137D01*
X00001885Y00007110D01*
X00001874Y00007083D01*
X00001869Y00007070D01*
X00001863Y00007059D01*
X00001863Y00007058D01*
X00001862Y00007056D01*
X00001861Y00007055D01*
X00001842Y00007015D01*
X00001796Y00006921D01*
X00001728Y00006779D01*
X00001640Y00006595D01*
X00001640Y00006595D01*
X00001534Y00006375D01*
X00001534Y00006375D01*
X00001415Y00006126D01*
X00001415Y00006126D01*
X00001285Y00005854D01*
X00001285Y00005854D01*
X00001156Y00005584D01*
X00001156Y00005584D01*
X00000520Y00004251D01*
X00000517Y00003598D01*
X00000517Y00003597D01*
X00000517Y00003597D01*
X00000515Y00003344D01*
X00000515Y00003343D01*
X00000515Y00003341D01*
X00000515Y00003340D01*
X00000512Y00003145D01*
X00000512Y00003143D01*
X00000512Y00003139D01*
X00000512Y00003137D01*
X00000506Y00002988D01*
X00000506Y00002984D01*
X00000506Y00002976D01*
X00000506Y00002972D01*
X00000497Y00002860D01*
X00000496Y00002854D01*
X00000495Y00002841D01*
X00000494Y00002834D01*
X00000482Y00002749D01*
X00000482Y00002748D01*
X00000481Y00002745D01*
X00000481Y00002744D01*
X00000479Y00002732D01*
X00000478Y00002724D01*
X00000475Y00002708D01*
X00000473Y00002700D01*
X00000456Y00002632D01*
X00000454Y00002623D01*
X00000449Y00002606D01*
X00000446Y00002597D01*
X00000430Y00002551D01*
X00000425Y00002538D01*
X00000415Y00002513D01*
X00000409Y00002500D01*
X00000403Y00002489D01*
X00000403Y00002489D01*
X00000403Y00002489D01*
X00000403Y00002488D01*
X00000322Y00002332D01*
X00000315Y00002319D01*
X00000299Y00002293D01*
X00000281Y00002268D01*
X00000261Y00002245D01*
X00000251Y00002233D01*
X00000242Y00002225D01*
X00000240Y00002223D01*
X00000236Y00002219D01*
X00000234Y00002217D01*
X00000136Y00002124D01*
X00000125Y00002115D01*
X00000103Y00002097D01*
X00000080Y00002081D01*
X00000056Y00002066D01*
X00000044Y00002059D01*
X00000033Y00002054D01*
X00000024Y00002049D01*
X00000005Y00002041D01*
X-00000013Y00002034D01*
X-00000033Y00002027D01*
X-00000043Y00002024D01*
X-00000162Y00001992D01*
X-00000172Y00001990D01*
X-00000193Y00001985D01*
X-00000203Y00001983D01*
X-00000215Y00001981D01*
X-00000229Y00001980D01*
X-00000257Y00001977D01*
X-00000285Y00001977D01*
D11*
X-00001066Y00019362D02*
X-00000779Y00019649D01*
X-00000956Y00019768D01*
X-00000965Y00019774D01*
X-00000981Y00019786D01*
X-00000999Y00019800D01*
X-00001013Y00019813D01*
X-00001021Y00019821D01*
X-00001066Y00019867D01*
X-00001066Y00019362D01*
X00001066Y00019395D02*
X00001066Y00019867D01*
X00001021Y00019821D01*
X00001013Y00019813D01*
X00000999Y00019800D01*
X00000981Y00019786D01*
X00000965Y00019774D01*
X00000956Y00019768D01*
X00000799Y00019663D01*
X00001066Y00019395D01*
X00001289Y00007968D02*
X00001290Y00007968D01*
X00001293Y00007968D01*
X00001295Y00007968D01*
X00001300Y00007968D01*
X00001302Y00007968D01*
X00001304Y00007968D01*
X00001306Y00007968D01*
X00001383Y00007965D01*
X00000018Y00009331D01*
X00000015Y00009331D01*
X-00001330Y00007985D01*
X-00001321Y00007987D01*
X-00001313Y00007989D01*
X-00001301Y00007991D01*
X-00001293Y00007993D01*
X-00001281Y00007995D01*
X-00001281Y00007995D01*
X-00001280Y00007995D01*
X-00001278Y00007995D01*
X-00001276Y00007995D01*
X-00001275Y00007996D01*
X-00001273Y00007996D01*
X-00001273Y00007996D01*
X-00001093Y00008022D01*
X-00001084Y00008023D01*
X-00001069Y00008025D01*
X-00001060Y00008025D01*
X-00001031Y00008028D01*
X-00001013Y00008028D01*
X-00000983Y00008028D01*
X-00000965Y00008027D01*
X-00000936Y00008025D01*
X-00000927Y00008024D01*
X-00000912Y00008022D01*
X-00000903Y00008021D01*
X-00000891Y00008019D01*
X-00000890Y00008019D01*
X-00000887Y00008018D01*
X-00000886Y00008018D01*
X-00000881Y00008017D01*
X-00000879Y00008017D01*
X-00000877Y00008016D01*
X-00000875Y00008016D01*
X-00000695Y00007983D01*
X-00000686Y00007981D01*
X-00000672Y00007978D01*
X-00000664Y00007976D01*
X-00000637Y00007969D01*
X-00000620Y00007964D01*
X-00000594Y00007955D01*
X-00000578Y00007949D01*
X-00000552Y00007938D01*
X-00000544Y00007934D01*
X-00000531Y00007928D01*
X-00000523Y00007924D01*
X-00000512Y00007919D01*
X-00000512Y00007919D01*
X-00000511Y00007918D01*
X-00000510Y00007918D01*
X-00000507Y00007916D01*
X-00000507Y00007916D01*
X-00000505Y00007915D01*
X-00000504Y00007915D01*
X-00000338Y00007827D01*
X-00000330Y00007823D01*
X-00000318Y00007816D01*
X-00000310Y00007811D01*
X-00000286Y00007796D01*
X-00000271Y00007786D01*
X-00000248Y00007769D01*
X-00000234Y00007758D01*
X-00000212Y00007739D01*
X-00000205Y00007733D01*
X-00000194Y00007723D01*
X-00000188Y00007717D01*
X-00000051Y00007580D01*
X-00000049Y00007579D01*
X-00000049Y00007579D01*
X-00000040Y00007570D01*
X-00000033Y00007563D01*
X-00000022Y00007551D01*
X-00000016Y00007544D01*
X00000004Y00007519D01*
X00000010Y00007511D01*
X00000020Y00007498D01*
X00000026Y00007491D01*
X00000041Y00007470D01*
X00000045Y00007464D01*
X00000052Y00007453D01*
X00000056Y00007447D01*
X00000069Y00007426D01*
X00000073Y00007419D01*
X00000079Y00007409D01*
X00000103Y00007489D01*
X00000104Y00007494D01*
X00000107Y00007503D01*
X00000109Y00007508D01*
X00000115Y00007525D01*
X00000118Y00007536D01*
X00000125Y00007553D01*
X00000129Y00007563D01*
X00000137Y00007580D01*
X00000139Y00007585D01*
X00000143Y00007593D01*
X00000146Y00007598D01*
X00000151Y00007609D01*
X00000156Y00007617D01*
X00000163Y00007630D01*
X00000168Y00007638D01*
X00000184Y00007665D01*
X00000194Y00007680D01*
X00000213Y00007705D01*
X00000224Y00007720D01*
X00000244Y00007743D01*
X00000250Y00007750D01*
X00000261Y00007761D01*
X00000267Y00007768D01*
X00000276Y00007777D01*
X00000282Y00007783D01*
X00000294Y00007794D01*
X00000301Y00007800D01*
X00000324Y00007820D01*
X00000339Y00007831D01*
X00000364Y00007850D01*
X00000379Y00007860D01*
X00000406Y00007876D01*
X00000414Y00007881D01*
X00000427Y00007888D01*
X00000435Y00007893D01*
X00000446Y00007898D01*
X00000455Y00007902D01*
X00000469Y00007909D01*
X00000477Y00007912D01*
X00000506Y00007924D01*
X00000523Y00007931D01*
X00000552Y00007940D01*
X00000570Y00007945D01*
X00000600Y00007952D01*
X00000609Y00007954D01*
X00000624Y00007957D01*
X00000634Y00007959D01*
X00000646Y00007961D01*
X00000655Y00007962D01*
X00000670Y00007964D01*
X00000680Y00007965D01*
X00000710Y00007967D01*
X00000720Y00007968D01*
X00000735Y00007969D01*
X00000744Y00007969D01*
X00001124Y00007969D01*
X00001125Y00007969D01*
X00001126Y00007969D01*
X00001126Y00007969D01*
X00001289Y00007968D01*
X00000000Y00000612D02*
X00004368Y00004980D01*
X00002376Y00006973D01*
X00002376Y00006973D01*
X00002374Y00006974D01*
X00002374Y00006974D01*
X00002144Y00007205D01*
X00002143Y00007202D01*
X00002143Y00007196D01*
X00002141Y00007176D01*
X00002140Y00007170D01*
X00002139Y00007160D01*
X00002138Y00007154D01*
X00002136Y00007141D01*
X00002134Y00007133D01*
X00002132Y00007119D01*
X00002130Y00007111D01*
X00002123Y00007083D01*
X00002119Y00007067D01*
X00002110Y00007039D01*
X00002105Y00007023D01*
X00002094Y00006997D01*
X00002091Y00006989D01*
X00002085Y00006976D01*
X00002082Y00006968D01*
X00002076Y00006957D01*
X00002076Y00006956D01*
X00002075Y00006955D01*
X00002075Y00006955D01*
X00002074Y00006953D01*
X00002074Y00006953D01*
X00002074Y00006952D01*
X00002073Y00006951D01*
X00002054Y00006911D01*
X00002009Y00006818D01*
X00001941Y00006677D01*
X00001853Y00006493D01*
X00001853Y00006493D01*
X00001747Y00006273D01*
X00001747Y00006273D01*
X00001628Y00006025D01*
X00001628Y00006024D01*
X00001498Y00005752D01*
X00001498Y00005752D01*
X00001369Y00005483D01*
X00001369Y00005483D01*
X00000756Y00004198D01*
X00000753Y00003597D01*
X00000753Y00003597D01*
X00000753Y00003596D01*
X00000753Y00003596D01*
X00000753Y00003595D01*
X00000753Y00003595D01*
X00000752Y00003343D01*
X00000752Y00003342D01*
X00000752Y00003341D01*
X00000752Y00003341D01*
X00000752Y00003339D01*
X00000752Y00003338D01*
X00000752Y00003337D01*
X00000752Y00003337D01*
X00000748Y00003141D01*
X00000748Y00003140D01*
X00000748Y00003138D01*
X00000748Y00003137D01*
X00000748Y00003133D01*
X00000748Y00003131D01*
X00000748Y00003129D01*
X00000748Y00003128D01*
X00000742Y00002979D01*
X00000742Y00002976D01*
X00000742Y00002973D01*
X00000742Y00002971D01*
X00000742Y00002963D01*
X00000742Y00002961D01*
X00000741Y00002957D01*
X00000741Y00002955D01*
X00000733Y00002843D01*
X00000732Y00002839D01*
X00000732Y00002832D01*
X00000731Y00002828D01*
X00000730Y00002815D01*
X00000729Y00002811D01*
X00000729Y00002805D01*
X00000728Y00002801D01*
X00000716Y00002716D01*
X00000716Y00002715D01*
X00000716Y00002714D01*
X00000715Y00002713D01*
X00000715Y00002710D01*
X00000715Y00002709D01*
X00000715Y00002708D01*
X00000715Y00002707D01*
X00000713Y00002695D01*
X00000712Y00002690D01*
X00000710Y00002682D01*
X00000709Y00002677D01*
X00000706Y00002661D01*
X00000705Y00002657D01*
X00000704Y00002649D01*
X00000702Y00002644D01*
X00000686Y00002576D01*
X00000685Y00002571D01*
X00000682Y00002562D01*
X00000681Y00002557D01*
X00000676Y00002539D01*
X00000674Y00002534D01*
X00000671Y00002525D01*
X00000670Y00002520D01*
X00000654Y00002474D01*
X00000651Y00002466D01*
X00000646Y00002453D01*
X00000643Y00002446D01*
X00000632Y00002420D01*
X00000629Y00002413D01*
X00000623Y00002400D01*
X00000619Y00002393D01*
X00000614Y00002382D01*
X00000614Y00002382D01*
X00000613Y00002381D01*
X00000613Y00002380D01*
X00000612Y00002379D01*
X00000532Y00002224D01*
X00000528Y00002216D01*
X00000521Y00002203D01*
X00000516Y00002195D01*
X00000500Y00002169D01*
X00000490Y00002153D01*
X00000472Y00002129D01*
X00000460Y00002114D01*
X00000440Y00002091D01*
X00000434Y00002084D01*
X00000424Y00002073D01*
X00000418Y00002066D01*
X00000408Y00002057D01*
X00000406Y00002055D01*
X00000405Y00002054D01*
X00000401Y00002050D01*
X00000400Y00002049D01*
X00000398Y00002047D01*
X00000396Y00002046D01*
X00000298Y00001952D01*
X00000292Y00001947D01*
X00000281Y00001937D01*
X00000275Y00001932D01*
X00000253Y00001914D01*
X00000240Y00001904D01*
X00000217Y00001888D01*
X00000202Y00001878D01*
X00000178Y00001864D01*
X00000171Y00001860D01*
X00000159Y00001853D01*
X00000151Y00001849D01*
X00000140Y00001843D01*
X00000135Y00001841D01*
X00000125Y00001836D01*
X00000120Y00001834D01*
X00000101Y00001825D01*
X00000090Y00001820D01*
X00000071Y00001813D01*
X00000059Y00001809D01*
X00000039Y00001803D01*
X00000033Y00001801D01*
X00000024Y00001798D01*
X00000018Y00001796D01*
X-00000101Y00001764D01*
X-00000107Y00001762D01*
X-00000117Y00001760D01*
X-00000123Y00001759D01*
X-00000143Y00001754D01*
X-00000150Y00001753D01*
X-00000160Y00001751D01*
X-00000166Y00001750D01*
X-00000178Y00001748D01*
X-00000186Y00001747D01*
X-00000200Y00001745D01*
X-00000209Y00001744D01*
X-00000237Y00001742D01*
X-00000254Y00001741D01*
X-00000282Y00001741D01*
X-00000299Y00001741D01*
X-00000328Y00001743D01*
X-00000336Y00001743D01*
X-00000350Y00001745D01*
X-00000358Y00001746D01*
X-00000457Y00001759D01*
X-00000458Y00001759D01*
X-00000461Y00001759D01*
X-00000462Y00001759D01*
X-00000468Y00001760D01*
X-00000469Y00001760D01*
X-00000472Y00001761D01*
X-00000473Y00001761D01*
X-00000486Y00001763D01*
X-00000495Y00001765D01*
X-00000510Y00001768D01*
X-00000519Y00001770D01*
X-00000549Y00001777D01*
X-00000567Y00001782D01*
X-00000596Y00001791D01*
X-00000613Y00001798D01*
X-00000642Y00001809D01*
X-00000650Y00001813D01*
X-00000664Y00001820D01*
X-00000673Y00001824D01*
X-00000684Y00001829D01*
X-00000691Y00001833D01*
X-00000703Y00001840D01*
X-00000710Y00001844D01*
X-00000734Y00001858D01*
X-00000741Y00001862D01*
X-00000752Y00001870D01*
X-00000759Y00001874D01*
X-00000834Y00001927D01*
X-00000838Y00001930D01*
X-00000845Y00001935D01*
X-00000849Y00001938D01*
X-00000863Y00001948D01*
X-00000871Y00001955D01*
X-00000884Y00001966D01*
X-00000892Y00001973D01*
X-00000905Y00001985D01*
X-00000909Y00001988D01*
X-00000915Y00001994D01*
X-00000918Y00001998D01*
X-00000927Y00002006D01*
X-00000933Y00002013D01*
X-00000944Y00002024D01*
X-00000950Y00002031D01*
X-00000970Y00002055D01*
X-00000982Y00002069D01*
X-00001000Y00002094D01*
X-00001010Y00002110D01*
X-00001026Y00002136D01*
X-00001031Y00002144D01*
X-00001038Y00002157D01*
X-00001043Y00002166D01*
X-00001048Y00002176D01*
X-00001049Y00002177D01*
X-00001049Y00002178D01*
X-00001049Y00002179D01*
X-00001051Y00002181D01*
X-00001051Y00002182D01*
X-00001051Y00002183D01*
X-00001052Y00002183D01*
X-00001104Y00002289D01*
X-00001108Y00002296D01*
X-00001113Y00002308D01*
X-00001116Y00002315D01*
X-00001126Y00002339D01*
X-00001132Y00002354D01*
X-00001140Y00002379D01*
X-00001145Y00002394D01*
X-00001151Y00002419D01*
X-00001153Y00002427D01*
X-00001156Y00002440D01*
X-00001158Y00002447D01*
X-00001187Y00002597D01*
X-00001188Y00002600D01*
X-00001188Y00002603D01*
X-00001189Y00002605D01*
X-00001190Y00002612D01*
X-00001190Y00002614D01*
X-00001191Y00002618D01*
X-00001191Y00002620D01*
X-00001193Y00002632D01*
X-00001194Y00002639D01*
X-00001196Y00002652D01*
X-00001197Y00002659D01*
X-00001199Y00002684D01*
X-00001200Y00002692D01*
X-00001200Y00002704D01*
X-00001201Y00002711D01*
X-00001206Y00002896D01*
X-00001206Y00002903D01*
X-00001207Y00002915D01*
X-00001206Y00002922D01*
X-00001206Y00002946D01*
X-00001205Y00002953D01*
X-00001205Y00002964D01*
X-00001204Y00002971D01*
X-00001186Y00003181D01*
X-00001185Y00003185D01*
X-00001184Y00003192D01*
X-00001184Y00003196D01*
X-00001182Y00003210D01*
X-00001182Y00003214D01*
X-00001181Y00003220D01*
X-00001180Y00003224D01*
X-00001178Y00003237D01*
X-00001178Y00003238D01*
X-00001177Y00003242D01*
X-00001177Y00003244D01*
X-00001176Y00003250D01*
X-00001176Y00003252D01*
X-00001175Y00003256D01*
X-00001175Y00003258D01*
X-00001131Y00003483D01*
X-00001130Y00003488D01*
X-00001128Y00003494D01*
X-00001128Y00003498D01*
X-00001125Y00003512D01*
X-00001124Y00003515D01*
X-00001122Y00003522D01*
X-00001121Y00003526D01*
X-00001095Y00003622D01*
X-00001095Y00003625D01*
X-00001093Y00003629D01*
X-00001093Y00003631D01*
X-00001090Y00003639D01*
X-00001090Y00003641D01*
X-00001089Y00003645D01*
X-00001088Y00003648D01*
X-00001035Y00003818D01*
X-00001034Y00003819D01*
X-00001033Y00003822D01*
X-00001032Y00003824D01*
X-00001031Y00003830D01*
X-00001030Y00003832D01*
X-00001029Y00003835D01*
X-00001028Y00003836D01*
X-00000965Y00004017D01*
X-00000965Y00004019D01*
X-00000963Y00004022D01*
X-00000963Y00004024D01*
X-00000961Y00004030D01*
X-00000960Y00004032D01*
X-00000959Y00004035D01*
X-00000958Y00004037D01*
X-00000897Y00004194D01*
X-00000897Y00004196D01*
X-00000896Y00004198D01*
X-00000895Y00004200D01*
X-00000893Y00004206D01*
X-00000892Y00004207D01*
X-00000891Y00004210D01*
X-00000890Y00004212D01*
X-00000880Y00004235D01*
X-00000880Y00004236D01*
X-00000880Y00004237D01*
X-00000880Y00004237D01*
X-00000879Y00004238D01*
X-00000879Y00004239D01*
X-00000879Y00004239D01*
X-00000852Y00004303D01*
X-00000851Y00004305D01*
X-00000857Y00004366D01*
X-00000873Y00004475D01*
X-00000903Y00004640D01*
X-00000945Y00004865D01*
X-00000992Y00005116D01*
X-00001066Y00005477D01*
X-00001120Y00005710D01*
X-00001120Y00005710D01*
X-00001129Y00005701D01*
X-00001136Y00005695D01*
X-00001147Y00005684D01*
X-00001154Y00005678D01*
X-00001178Y00005658D01*
X-00001192Y00005646D01*
X-00001217Y00005628D01*
X-00001233Y00005618D01*
X-00001259Y00005602D01*
X-00001267Y00005597D01*
X-00001281Y00005589D01*
X-00001289Y00005585D01*
X-00001300Y00005579D01*
X-00001305Y00005577D01*
X-00001314Y00005573D01*
X-00001320Y00005570D01*
X-00001337Y00005562D01*
X-00001348Y00005557D01*
X-00001367Y00005550D01*
X-00001378Y00005546D01*
X-00001396Y00005540D01*
X-00001402Y00005538D01*
X-00001411Y00005536D01*
X-00001417Y00005534D01*
X-00001461Y00005522D01*
X-00001467Y00005520D01*
X-00001478Y00005517D01*
X-00001484Y00005516D01*
X-00001506Y00005511D01*
X-00001513Y00005510D01*
X-00001524Y00005508D01*
X-00001530Y00005507D01*
X-00001543Y00005505D01*
X-00001551Y00005503D01*
X-00001565Y00005502D01*
X-00001573Y00005501D01*
X-00001601Y00005498D01*
X-00001618Y00005498D01*
X-00001647Y00005497D01*
X-00001663Y00005498D01*
X-00001692Y00005499D01*
X-00001700Y00005500D01*
X-00001714Y00005501D01*
X-00001722Y00005502D01*
X-00001755Y00005506D01*
X-00001757Y00005507D01*
X-00001759Y00005507D01*
X-00001761Y00005507D01*
X-00001766Y00005508D01*
X-00001768Y00005508D01*
X-00001771Y00005509D01*
X-00001772Y00005509D01*
X-00001785Y00005511D01*
X-00001794Y00005512D01*
X-00001809Y00005515D01*
X-00001818Y00005517D01*
X-00001848Y00005525D01*
X-00001866Y00005530D01*
X-00001896Y00005539D01*
X-00001913Y00005546D01*
X-00001942Y00005558D01*
X-00001950Y00005561D01*
X-00001964Y00005568D01*
X-00001973Y00005572D01*
X-00001984Y00005578D01*
X-00001992Y00005582D01*
X-00002005Y00005589D01*
X-00002013Y00005594D01*
X-00002040Y00005610D01*
X-00002055Y00005620D01*
X-00002080Y00005639D01*
X-00002094Y00005650D01*
X-00002118Y00005670D01*
X-00002125Y00005676D01*
X-00002136Y00005687D01*
X-00002143Y00005693D01*
X-00002151Y00005702D01*
X-00002154Y00005705D01*
X-00002159Y00005710D01*
X-00002162Y00005713D01*
X-00002172Y00005724D01*
X-00002175Y00005727D01*
X-00002180Y00005732D01*
X-00002183Y00005736D01*
X-00002202Y00005757D01*
X-00002206Y00005763D01*
X-00002214Y00005772D01*
X-00002218Y00005778D01*
X-00002232Y00005796D01*
X-00002241Y00005808D01*
X-00002254Y00005827D01*
X-00002261Y00005839D01*
X-00002273Y00005860D01*
X-00002277Y00005866D01*
X-00002282Y00005876D01*
X-00002286Y00005883D01*
X-00002291Y00005894D01*
X-00002295Y00005902D01*
X-00002302Y00005916D01*
X-00002306Y00005925D01*
X-00002318Y00005953D01*
X-00002324Y00005971D01*
X-00002334Y00006000D01*
X-00002339Y00006018D01*
X-00002346Y00006048D01*
X-00002348Y00006057D01*
X-00002351Y00006072D01*
X-00002352Y00006081D01*
X-00002354Y00006094D01*
X-00002355Y00006095D01*
X-00002355Y00006097D01*
X-00002355Y00006099D01*
X-00002356Y00006104D01*
X-00002356Y00006106D01*
X-00002357Y00006109D01*
X-00002357Y00006110D01*
X-00002364Y00006162D01*
X-00002365Y00006172D01*
X-00002366Y00006187D01*
X-00002367Y00006196D01*
X-00002368Y00006227D01*
X-00002369Y00006236D01*
X-00002369Y00006252D01*
X-00002369Y00006261D01*
X-00002366Y00006357D01*
X-00002366Y00006359D01*
X-00002366Y00006362D01*
X-00002366Y00006364D01*
X-00002366Y00006371D01*
X-00002366Y00006373D01*
X-00002365Y00006377D01*
X-00002365Y00006379D01*
X-00002359Y00006479D01*
X-00002359Y00006484D01*
X-00002358Y00006491D01*
X-00002358Y00006496D01*
X-00002356Y00006511D01*
X-00002356Y00006515D01*
X-00002355Y00006523D01*
X-00002354Y00006527D01*
X-00002315Y00006817D01*
X-00002314Y00006818D01*
X-00002314Y00006819D01*
X-00002314Y00006821D01*
X-00002313Y00006825D01*
X-00002313Y00006826D01*
X-00002313Y00006828D01*
X-00002313Y00006830D01*
X-00002311Y00006842D01*
X-00002309Y00006851D01*
X-00002306Y00006867D01*
X-00002304Y00006876D01*
X-00002296Y00006907D01*
X-00002294Y00006916D01*
X-00002290Y00006932D01*
X-00002287Y00006941D01*
X-00002243Y00007071D01*
X-00004351Y00004964D01*
X00000000Y00000612D01*
D12*
X00000017Y00007901D02*
X00000034Y00007922D01*
X00000038Y00007926D01*
X00000044Y00007933D01*
X00000048Y00007937D01*
X00000058Y00007948D01*
X00000062Y00007952D01*
X00000068Y00007959D01*
X00000072Y00007963D01*
X00000081Y00007971D01*
X00000085Y00007975D01*
X00000091Y00007982D01*
X00000095Y00007985D01*
X00000107Y00007996D01*
X00000111Y00007999D01*
X00000118Y00008006D01*
X00000122Y00008009D01*
X00000145Y00008029D01*
X00000154Y00008036D01*
X00000168Y00008048D01*
X00000177Y00008054D01*
X00000202Y00008072D01*
X00000211Y00008079D01*
X00000226Y00008089D01*
X00000235Y00008095D01*
X00000262Y00008111D01*
X00000266Y00008114D01*
X00000274Y00008118D01*
X00000279Y00008121D01*
X00000292Y00008129D01*
X00000297Y00008131D01*
X00000305Y00008136D01*
X00000310Y00008138D01*
X00000321Y00008144D01*
X00000326Y00008146D01*
X00000334Y00008150D01*
X00000339Y00008152D01*
X00000353Y00008159D01*
X00000358Y00008161D01*
X00000367Y00008165D01*
X00000372Y00008167D01*
X00000400Y00008179D01*
X00000410Y00008183D01*
X00000428Y00008189D01*
X00000438Y00008193D01*
X00000467Y00008202D01*
X00000477Y00008205D01*
X00000495Y00008210D01*
X00000506Y00008213D01*
X00000536Y00008220D01*
X00000541Y00008222D01*
X00000550Y00008224D01*
X00000556Y00008225D01*
X00000571Y00008228D01*
X00000576Y00008229D01*
X00000585Y00008230D01*
X00000590Y00008231D01*
X00000603Y00008233D01*
X00000608Y00008234D01*
X00000617Y00008235D01*
X00000622Y00008236D01*
X00000638Y00008238D01*
X00000643Y00008238D01*
X00000652Y00008239D01*
X00000658Y00008240D01*
X00000689Y00008242D01*
X00000694Y00008243D01*
X00000704Y00008243D01*
X00000709Y00008243D01*
X00000715Y00008244D01*
X00000016Y00008942D01*
X-00000667Y00008258D01*
X-00000645Y00008254D01*
X-00000640Y00008253D01*
X-00000631Y00008251D01*
X-00000626Y00008250D01*
X-00000613Y00008247D01*
X-00000608Y00008246D01*
X-00000599Y00008244D01*
X-00000595Y00008243D01*
X-00000567Y00008235D01*
X-00000558Y00008233D01*
X-00000541Y00008228D01*
X-00000532Y00008225D01*
X-00000505Y00008216D01*
X-00000496Y00008212D01*
X-00000480Y00008206D01*
X-00000471Y00008203D01*
X-00000444Y00008192D01*
X-00000440Y00008190D01*
X-00000432Y00008186D01*
X-00000428Y00008184D01*
X-00000415Y00008178D01*
X-00000410Y00008176D01*
X-00000403Y00008172D01*
X-00000398Y00008170D01*
X-00000387Y00008164D01*
X-00000387Y00008164D01*
X-00000386Y00008164D01*
X-00000385Y00008163D01*
X-00000384Y00008163D01*
X-00000383Y00008162D01*
X-00000383Y00008162D01*
X-00000381Y00008161D01*
X-00000380Y00008161D01*
X-00000380Y00008161D01*
X-00000379Y00008160D01*
X-00000378Y00008159D01*
X-00000377Y00008159D01*
X-00000376Y00008159D01*
X-00000376Y00008159D01*
X-00000210Y00008071D01*
X-00000205Y00008069D01*
X-00000197Y00008064D01*
X-00000193Y00008062D01*
X-00000180Y00008054D01*
X-00000176Y00008052D01*
X-00000168Y00008047D01*
X-00000164Y00008045D01*
X-00000139Y00008029D01*
X-00000131Y00008024D01*
X-00000116Y00008014D01*
X-00000108Y00008008D01*
X-00000085Y00007991D01*
X-00000076Y00007984D01*
X-00000063Y00007974D01*
X-00000055Y00007967D01*
X-00000033Y00007948D01*
X-00000029Y00007945D01*
X-00000022Y00007939D01*
X-00000018Y00007936D01*
X-00000008Y00007926D01*
X-00000004Y00007922D01*
X00000001Y00007916D01*
X00000005Y00007913D01*
X00000017Y00007901D01*
X00000000Y00001002D02*
X00003978Y00004980D01*
X00002258Y00006700D01*
X00002257Y00006698D01*
X00002189Y00006557D01*
X00002101Y00006374D01*
X00002101Y00006374D01*
X00001996Y00006154D01*
X00001996Y00006154D01*
X00001877Y00005906D01*
X00001877Y00005906D01*
X00001747Y00005633D01*
X00001747Y00005633D01*
X00001618Y00005364D01*
X00001031Y00004135D01*
X00001029Y00003596D01*
X00001029Y00003595D01*
X00001029Y00003595D01*
X00001029Y00003594D01*
X00001029Y00003593D01*
X00001029Y00003593D01*
X00001027Y00003341D01*
X00001027Y00003340D01*
X00001027Y00003339D01*
X00001027Y00003338D01*
X00001027Y00003337D01*
X00001027Y00003335D01*
X00001027Y00003335D01*
X00001027Y00003335D01*
X00001027Y00003335D01*
X00001027Y00003334D01*
X00001027Y00003333D01*
X00001027Y00003332D01*
X00001027Y00003332D01*
X00001024Y00003136D01*
X00001024Y00003135D01*
X00001024Y00003134D01*
X00001024Y00003132D01*
X00001024Y00003132D01*
X00001024Y00003130D01*
X00001024Y00003129D01*
X00001024Y00003125D01*
X00001024Y00003125D01*
X00001024Y00003123D01*
X00001024Y00003123D01*
X00001023Y00003120D01*
X00001023Y00003120D01*
X00001023Y00003119D01*
X00001023Y00003118D01*
X00001018Y00002969D01*
X00001018Y00002967D01*
X00001018Y00002965D01*
X00001018Y00002963D01*
X00001017Y00002960D01*
X00001017Y00002959D01*
X00001017Y00002957D01*
X00001017Y00002955D01*
X00001017Y00002947D01*
X00001017Y00002946D01*
X00001017Y00002944D01*
X00001017Y00002943D01*
X00001016Y00002939D01*
X00001016Y00002938D01*
X00001016Y00002935D01*
X00001016Y00002934D01*
X00001007Y00002822D01*
X00001007Y00002819D01*
X00001007Y00002815D01*
X00001007Y00002813D01*
X00001006Y00002807D01*
X00001006Y00002805D01*
X00001006Y00002801D01*
X00001005Y00002798D01*
X00001004Y00002785D01*
X00001004Y00002783D01*
X00001003Y00002779D01*
X00001003Y00002777D01*
X00001002Y00002770D01*
X00001002Y00002768D01*
X00001001Y00002764D01*
X00001001Y00002762D01*
X00000989Y00002677D01*
X00000989Y00002677D01*
X00000989Y00002676D01*
X00000988Y00002675D01*
X00000988Y00002674D01*
X00000988Y00002673D01*
X00000988Y00002672D01*
X00000988Y00002672D01*
X00000988Y00002669D01*
X00000987Y00002668D01*
X00000987Y00002667D01*
X00000987Y00002667D01*
X00000987Y00002665D01*
X00000987Y00002665D01*
X00000987Y00002664D01*
X00000987Y00002664D01*
X00000985Y00002652D01*
X00000984Y00002649D01*
X00000984Y00002644D01*
X00000983Y00002641D01*
X00000982Y00002633D01*
X00000981Y00002631D01*
X00000980Y00002626D01*
X00000980Y00002623D01*
X00000977Y00002607D01*
X00000976Y00002604D01*
X00000975Y00002600D01*
X00000974Y00002597D01*
X00000973Y00002589D01*
X00000972Y00002586D01*
X00000971Y00002582D01*
X00000970Y00002579D01*
X00000954Y00002511D01*
X00000953Y00002508D01*
X00000951Y00002502D01*
X00000951Y00002499D01*
X00000948Y00002491D01*
X00000948Y00002488D01*
X00000946Y00002482D01*
X00000945Y00002479D01*
X00000940Y00002462D01*
X00000939Y00002459D01*
X00000938Y00002454D01*
X00000937Y00002450D01*
X00000934Y00002442D01*
X00000933Y00002439D01*
X00000931Y00002434D01*
X00000930Y00002431D01*
X00000914Y00002384D01*
X00000913Y00002380D01*
X00000910Y00002372D01*
X00000908Y00002368D01*
X00000903Y00002355D01*
X00000901Y00002350D01*
X00000898Y00002343D01*
X00000896Y00002338D01*
X00000886Y00002313D01*
X00000884Y00002308D01*
X00000880Y00002301D01*
X00000878Y00002296D01*
X00000873Y00002284D01*
X00000870Y00002279D01*
X00000867Y00002272D01*
X00000865Y00002268D01*
X00000859Y00002257D01*
X00000859Y00002257D01*
X00000859Y00002256D01*
X00000858Y00002255D01*
X00000857Y00002254D01*
X00000857Y00002253D01*
X00000857Y00002252D01*
X00000778Y00002098D01*
X00000775Y00002093D01*
X00000771Y00002085D01*
X00000768Y00002081D01*
X00000761Y00002067D01*
X00000758Y00002063D01*
X00000753Y00002055D01*
X00000751Y00002050D01*
X00000734Y00002024D01*
X00000729Y00002015D01*
X00000718Y00002000D01*
X00000712Y00001991D01*
X00000694Y00001966D01*
X00000688Y00001958D01*
X00000676Y00001943D01*
X00000670Y00001935D01*
X00000650Y00001912D01*
X00000646Y00001908D01*
X00000640Y00001901D01*
X00000637Y00001897D01*
X00000626Y00001886D01*
X00000622Y00001882D01*
X00000616Y00001875D01*
X00000612Y00001872D01*
X00000603Y00001862D01*
X00000602Y00001861D01*
X00000600Y00001859D01*
X00000599Y00001858D01*
X00000598Y00001857D01*
X00000597Y00001856D01*
X00000593Y00001852D01*
X00000593Y00001852D01*
X00000591Y00001851D01*
X00000590Y00001850D01*
X00000588Y00001848D01*
X00000588Y00001847D01*
X00000586Y00001846D01*
X00000586Y00001845D01*
X00000487Y00001752D01*
X00000484Y00001749D01*
X00000477Y00001743D01*
X00000474Y00001740D01*
X00000463Y00001731D01*
X00000460Y00001727D01*
X00000453Y00001722D01*
X00000449Y00001719D01*
X00000428Y00001701D01*
X00000420Y00001695D01*
X00000406Y00001685D01*
X00000398Y00001679D01*
X00000376Y00001663D01*
X00000367Y00001657D01*
X00000353Y00001648D01*
X00000345Y00001643D01*
X00000321Y00001628D01*
X00000317Y00001626D01*
X00000309Y00001621D01*
X00000305Y00001619D01*
X00000293Y00001612D01*
X00000288Y00001610D01*
X00000281Y00001606D01*
X00000277Y00001603D01*
X00000266Y00001598D01*
X00000262Y00001596D01*
X00000257Y00001593D01*
X00000253Y00001592D01*
X00000244Y00001587D01*
X00000241Y00001586D01*
X00000235Y00001583D01*
X00000232Y00001582D01*
X00000213Y00001573D01*
X00000207Y00001571D01*
X00000195Y00001566D01*
X00000189Y00001563D01*
X00000169Y00001556D01*
X00000163Y00001553D01*
X00000151Y00001549D01*
X00000144Y00001547D01*
X00000125Y00001541D01*
X00000121Y00001539D01*
X00000115Y00001538D01*
X00000112Y00001537D01*
X00000102Y00001534D01*
X00000099Y00001533D01*
X00000093Y00001531D01*
X00000089Y00001530D01*
X-00000029Y00001498D01*
X-00000033Y00001497D01*
X-00000039Y00001495D01*
X-00000042Y00001495D01*
X-00000052Y00001492D01*
X-00000056Y00001491D01*
X-00000062Y00001490D01*
X-00000066Y00001489D01*
X-00000086Y00001485D01*
X-00000089Y00001484D01*
X-00000096Y00001483D01*
X-00000099Y00001482D01*
X-00000109Y00001480D01*
X-00000113Y00001480D01*
X-00000119Y00001479D01*
X-00000123Y00001478D01*
X-00000135Y00001476D01*
X-00000140Y00001475D01*
X-00000148Y00001474D01*
X-00000153Y00001473D01*
X-00000167Y00001472D01*
X-00000172Y00001471D01*
X-00000180Y00001470D01*
X-00000185Y00001470D01*
X-00000214Y00001467D01*
X-00000223Y00001467D01*
X-00000240Y00001466D01*
X-00000250Y00001466D01*
X-00000279Y00001465D01*
X-00000288Y00001465D01*
X-00000305Y00001466D01*
X-00000315Y00001466D01*
X-00000344Y00001468D01*
X-00000349Y00001468D01*
X-00000357Y00001469D01*
X-00000362Y00001469D01*
X-00000376Y00001470D01*
X-00000381Y00001471D01*
X-00000389Y00001472D01*
X-00000394Y00001472D01*
X-00000482Y00001484D01*
X00000000Y00001002D01*
X-00001437Y00002439D02*
X-00001458Y00002544D01*
X-00001458Y00002546D01*
X-00001458Y00002548D01*
X-00001459Y00002549D01*
X-00001459Y00002553D01*
X-00001460Y00002554D01*
X-00001460Y00002556D01*
X-00001460Y00002557D01*
X-00001461Y00002564D01*
X-00001462Y00002565D01*
X-00001462Y00002567D01*
X-00001462Y00002568D01*
X-00001463Y00002572D01*
X-00001463Y00002573D01*
X-00001463Y00002575D01*
X-00001463Y00002577D01*
X-00001465Y00002589D01*
X-00001466Y00002593D01*
X-00001467Y00002600D01*
X-00001468Y00002605D01*
X-00001469Y00002617D01*
X-00001470Y00002622D01*
X-00001471Y00002629D01*
X-00001471Y00002633D01*
X-00001473Y00002658D01*
X-00001474Y00002662D01*
X-00001474Y00002670D01*
X-00001475Y00002674D01*
X-00001475Y00002687D01*
X-00001476Y00002691D01*
X-00001476Y00002699D01*
X-00001476Y00002703D01*
X-00001482Y00002888D01*
X-00001482Y00002892D01*
X-00001482Y00002899D01*
X-00001482Y00002903D01*
X-00001482Y00002915D01*
X-00001482Y00002919D01*
X-00001482Y00002926D01*
X-00001482Y00002930D01*
X-00001481Y00002954D01*
X-00001481Y00002958D01*
X-00001481Y00002965D01*
X-00001481Y00002969D01*
X-00001480Y00002981D01*
X-00001480Y00002985D01*
X-00001479Y00002992D01*
X-00001479Y00002996D01*
X-00001460Y00003206D01*
X-00001460Y00003208D01*
X-00001459Y00003212D01*
X-00001459Y00003215D01*
X-00001458Y00003221D01*
X-00001458Y00003224D01*
X-00001458Y00003228D01*
X-00001457Y00003230D01*
X-00001456Y00003244D01*
X-00001455Y00003246D01*
X-00001455Y00003250D01*
X-00001455Y00003252D01*
X-00001454Y00003259D01*
X-00001453Y00003261D01*
X-00001453Y00003265D01*
X-00001452Y00003268D01*
X-00001450Y00003280D01*
X-00001450Y00003281D01*
X-00001450Y00003283D01*
X-00001450Y00003284D01*
X-00001449Y00003287D01*
X-00001449Y00003288D01*
X-00001449Y00003290D01*
X-00001448Y00003291D01*
X-00001447Y00003298D01*
X-00001447Y00003300D01*
X-00001447Y00003301D01*
X-00001447Y00003302D01*
X-00001446Y00003306D01*
X-00001446Y00003307D01*
X-00001445Y00003309D01*
X-00001445Y00003310D01*
X-00001401Y00003536D01*
X-00001401Y00003538D01*
X-00001400Y00003543D01*
X-00001399Y00003545D01*
X-00001398Y00003551D01*
X-00001398Y00003554D01*
X-00001397Y00003558D01*
X-00001396Y00003560D01*
X-00001393Y00003573D01*
X-00001393Y00003576D01*
X-00001392Y00003580D01*
X-00001391Y00003582D01*
X-00001389Y00003589D01*
X-00001389Y00003591D01*
X-00001388Y00003595D01*
X-00001387Y00003597D01*
X-00001361Y00003693D01*
X-00001361Y00003695D01*
X-00001360Y00003697D01*
X-00001360Y00003699D01*
X-00001359Y00003703D01*
X-00001358Y00003704D01*
X-00001358Y00003707D01*
X-00001357Y00003708D01*
X-00001355Y00003716D01*
X-00001355Y00003717D01*
X-00001354Y00003720D01*
X-00001354Y00003721D01*
X-00001352Y00003725D01*
X-00001352Y00003726D01*
X-00001351Y00003729D01*
X-00001351Y00003730D01*
X-00001298Y00003900D01*
X-00001297Y00003901D01*
X-00001297Y00003903D01*
X-00001296Y00003904D01*
X-00001295Y00003907D01*
X-00001295Y00003908D01*
X-00001294Y00003910D01*
X-00001294Y00003911D01*
X-00001292Y00003916D01*
X-00001292Y00003917D01*
X-00001291Y00003919D01*
X-00001291Y00003920D01*
X-00001290Y00003923D01*
X-00001290Y00003924D01*
X-00001289Y00003926D01*
X-00001289Y00003927D01*
X-00001225Y00004108D01*
X-00001225Y00004109D01*
X-00001224Y00004111D01*
X-00001224Y00004112D01*
X-00001223Y00004115D01*
X-00001223Y00004116D01*
X-00001222Y00004118D01*
X-00001221Y00004119D01*
X-00001219Y00004125D01*
X-00001219Y00004126D01*
X-00001218Y00004128D01*
X-00001218Y00004129D01*
X-00001217Y00004132D01*
X-00001216Y00004134D01*
X-00001216Y00004135D01*
X-00001215Y00004136D01*
X-00001155Y00004293D01*
X-00001154Y00004294D01*
X-00001154Y00004296D01*
X-00001153Y00004296D01*
X-00001152Y00004299D01*
X-00001152Y00004300D01*
X-00001151Y00004302D01*
X-00001151Y00004303D01*
X-00001149Y00004308D01*
X-00001148Y00004309D01*
X-00001148Y00004311D01*
X-00001147Y00004312D01*
X-00001146Y00004315D01*
X-00001146Y00004316D01*
X-00001145Y00004317D01*
X-00001145Y00004318D01*
X-00001135Y00004342D01*
X-00001134Y00004342D01*
X-00001134Y00004343D01*
X-00001134Y00004344D01*
X-00001134Y00004344D01*
X-00001133Y00004345D01*
X-00001133Y00004346D01*
X-00001133Y00004346D01*
X-00001133Y00004346D01*
X-00001145Y00004430D01*
X-00001174Y00004591D01*
X-00001215Y00004814D01*
X-00001263Y00005063D01*
X-00001307Y00005280D01*
X-00001310Y00005279D01*
X-00001313Y00005278D01*
X-00001318Y00005276D01*
X-00001322Y00005275D01*
X-00001331Y00005272D01*
X-00001334Y00005271D01*
X-00001340Y00005269D01*
X-00001343Y00005268D01*
X-00001387Y00005256D01*
X-00001391Y00005255D01*
X-00001397Y00005254D01*
X-00001401Y00005253D01*
X-00001412Y00005250D01*
X-00001416Y00005249D01*
X-00001422Y00005247D01*
X-00001426Y00005247D01*
X-00001448Y00005242D01*
X-00001452Y00005241D01*
X-00001458Y00005240D01*
X-00001462Y00005239D01*
X-00001473Y00005237D01*
X-00001477Y00005236D01*
X-00001483Y00005235D01*
X-00001487Y00005234D01*
X-00001499Y00005232D01*
X-00001504Y00005232D01*
X-00001513Y00005231D01*
X-00001518Y00005230D01*
X-00001532Y00005228D01*
X-00001536Y00005228D01*
X-00001545Y00005227D01*
X-00001550Y00005226D01*
X-00001578Y00005224D01*
X-00001588Y00005223D01*
X-00001605Y00005222D01*
X-00001615Y00005222D01*
X-00001643Y00005222D01*
X-00001653Y00005222D01*
X-00001669Y00005222D01*
X-00001679Y00005222D01*
X-00001707Y00005224D01*
X-00001712Y00005224D01*
X-00001721Y00005225D01*
X-00001726Y00005225D01*
X-00001740Y00005227D01*
X-00001745Y00005227D01*
X-00001753Y00005228D01*
X-00001758Y00005229D01*
X-00001791Y00005233D01*
X-00001791Y00005233D01*
X-00001792Y00005233D01*
X-00001794Y00005233D01*
X-00001796Y00005234D01*
X-00001797Y00005234D01*
X-00001799Y00005234D01*
X-00001800Y00005234D01*
X-00001805Y00005235D01*
X-00001807Y00005235D01*
X-00001809Y00005236D01*
X-00001809Y00005236D01*
X-00001812Y00005236D01*
X-00001813Y00005236D01*
X-00001815Y00005236D01*
X-00001815Y00005237D01*
X-00001828Y00005239D01*
X-00001833Y00005239D01*
X-00001842Y00005241D01*
X-00001847Y00005242D01*
X-00001863Y00005245D01*
X-00001868Y00005246D01*
X-00001877Y00005248D01*
X-00001882Y00005249D01*
X-00001913Y00005257D01*
X-00001923Y00005259D01*
X-00001941Y00005264D01*
X-00001951Y00005268D01*
X-00001981Y00005277D01*
X-00001991Y00005281D01*
X-00002009Y00005287D01*
X-00002019Y00005291D01*
X-00002047Y00005303D01*
X-00002052Y00005305D01*
X-00002061Y00005309D01*
X-00002066Y00005311D01*
X-00002080Y00005318D01*
X-00002085Y00005320D01*
X-00002093Y00005324D01*
X-00002098Y00005327D01*
X-00002109Y00005332D01*
X-00002114Y00005335D01*
X-00002122Y00005339D01*
X-00002127Y00005342D01*
X-00002140Y00005349D01*
X-00002145Y00005352D01*
X-00002153Y00005356D01*
X-00002157Y00005359D01*
X-00002184Y00005375D01*
X-00002193Y00005381D01*
X-00002208Y00005391D01*
X-00002217Y00005398D01*
X-00002242Y00005416D01*
X-00002250Y00005422D01*
X-00002265Y00005434D01*
X-00002273Y00005440D01*
X-00002297Y00005460D01*
X-00002301Y00005464D01*
X-00002308Y00005470D01*
X-00002312Y00005474D01*
X-00002323Y00005484D01*
X-00002327Y00005488D01*
X-00002333Y00005494D01*
X-00002337Y00005498D01*
X-00002346Y00005507D01*
X-00002348Y00005509D01*
X-00002351Y00005512D01*
X-00002353Y00005513D01*
X-00002358Y00005519D01*
X-00002359Y00005520D01*
X-00002362Y00005523D01*
X-00002364Y00005525D01*
X-00002374Y00005536D01*
X-00002376Y00005538D01*
X-00002379Y00005541D01*
X-00002380Y00005543D01*
X-00002385Y00005549D01*
X-00002387Y00005550D01*
X-00002390Y00005554D01*
X-00002392Y00005556D01*
X-00002410Y00005577D01*
X-00002413Y00005581D01*
X-00002418Y00005586D01*
X-00002420Y00005589D01*
X-00002428Y00005598D01*
X-00002430Y00005602D01*
X-00002435Y00005607D01*
X-00002437Y00005610D01*
X-00002451Y00005629D01*
X-00002456Y00005636D01*
X-00002465Y00005647D01*
X-00002469Y00005654D01*
X-00002482Y00005674D01*
X-00002487Y00005681D01*
X-00002494Y00005693D01*
X-00002499Y00005700D01*
X-00002511Y00005720D01*
X-00002513Y00005723D01*
X-00002516Y00005730D01*
X-00002518Y00005733D01*
X-00002524Y00005744D01*
X-00002526Y00005747D01*
X-00002529Y00005754D01*
X-00002531Y00005757D01*
X-00002537Y00005768D01*
X-00002539Y00005773D01*
X-00002543Y00005782D01*
X-00002546Y00005786D01*
X-00002552Y00005801D01*
X-00002554Y00005806D01*
X-00002558Y00005814D01*
X-00002560Y00005819D01*
X-00002572Y00005848D01*
X-00002576Y00005858D01*
X-00002582Y00005875D01*
X-00002586Y00005885D01*
X-00002596Y00005915D01*
X-00002599Y00005925D01*
X-00002604Y00005943D01*
X-00002607Y00005954D01*
X-00002614Y00005984D01*
X-00002615Y00005989D01*
X-00002617Y00005998D01*
X-00002618Y00006003D01*
X-00002621Y00006019D01*
X-00002622Y00006024D01*
X-00002624Y00006033D01*
X-00002625Y00006038D01*
X-00002627Y00006051D01*
X-00002627Y00006051D01*
X-00002627Y00006053D01*
X-00002627Y00006053D01*
X-00002627Y00006056D01*
X-00002628Y00006057D01*
X-00002628Y00006059D01*
X-00002628Y00006060D01*
X-00002629Y00006065D01*
X-00002629Y00006066D01*
X-00002629Y00006068D01*
X-00002629Y00006069D01*
X-00002630Y00006071D01*
X-00002630Y00006072D01*
X-00002630Y00006074D01*
X-00002630Y00006074D01*
X-00002637Y00006127D01*
X-00002638Y00006132D01*
X-00002639Y00006141D01*
X-00002639Y00006147D01*
X-00002640Y00006162D01*
X-00002641Y00006167D01*
X-00002642Y00006177D01*
X-00002642Y00006182D01*
X-00002644Y00006213D01*
X-00002644Y00006218D01*
X-00002644Y00006227D01*
X-00002644Y00006233D01*
X-00002644Y00006248D01*
X-00002644Y00006254D01*
X-00002644Y00006263D01*
X-00002644Y00006268D01*
X-00002644Y00006281D01*
X-00003962Y00004964D01*
X-00001437Y00002439D01*
D13*
X-00000001Y00008314D02*
X00000017Y00008327D01*
X00000022Y00008331D01*
X00000031Y00008337D01*
X00000036Y00008340D01*
X00000051Y00008351D01*
X00000056Y00008354D01*
X00000065Y00008360D01*
X00000071Y00008363D01*
X00000097Y00008379D01*
X00000100Y00008381D01*
X00000104Y00008384D01*
X00000107Y00008385D01*
X00000115Y00008390D01*
X00000118Y00008392D01*
X00000120Y00008393D01*
X00000016Y00008497D01*
X-00000107Y00008373D01*
X-00000063Y00008350D01*
X-00000060Y00008348D01*
X-00000056Y00008346D01*
X-00000053Y00008344D01*
X-00000045Y00008340D01*
X-00000043Y00008339D01*
X-00000038Y00008336D01*
X-00000036Y00008335D01*
X-00000023Y00008327D01*
X-00000020Y00008326D01*
X-00000016Y00008323D01*
X-00000014Y00008322D01*
X-00000006Y00008317D01*
X-00000004Y00008316D01*
X-00000001Y00008314D01*
X00001319Y00002766D02*
X00003533Y00004980D01*
X00002350Y00006163D01*
X00002280Y00006018D01*
X00002280Y00006017D01*
X00002161Y00005770D01*
X00002161Y00005770D01*
X00002031Y00005498D01*
X00002031Y00005497D01*
X00001902Y00005228D01*
X00001902Y00005228D01*
X00001346Y00004063D01*
X00001344Y00003595D01*
X00001344Y00003595D01*
X00001344Y00003594D01*
X00001344Y00003594D01*
X00001344Y00003593D01*
X00001344Y00003592D01*
X00001344Y00003591D01*
X00001344Y00003591D01*
X00001342Y00003339D01*
X00001342Y00003338D01*
X00001342Y00003337D01*
X00001342Y00003336D01*
X00001342Y00003335D01*
X00001342Y00003335D01*
X00001342Y00003335D01*
X00001342Y00003333D01*
X00001342Y00003331D01*
X00001342Y00003331D01*
X00001342Y00003331D01*
X00001342Y00003330D01*
X00001342Y00003330D01*
X00001342Y00003330D01*
X00001342Y00003329D01*
X00001342Y00003329D01*
X00001342Y00003328D01*
X00001342Y00003328D01*
X00001342Y00003326D01*
X00001339Y00003131D01*
X00001339Y00003130D01*
X00001339Y00003129D01*
X00001339Y00003128D01*
X00001339Y00003128D01*
X00001339Y00003128D01*
X00001339Y00003126D01*
X00001339Y00003126D01*
X00001339Y00003124D01*
X00001339Y00003123D01*
X00001339Y00003122D01*
X00001339Y00003121D01*
X00001339Y00003121D01*
X00001338Y00003117D01*
X00001338Y00003116D01*
X00001338Y00003116D01*
X00001338Y00003115D01*
X00001338Y00003114D01*
X00001338Y00003113D01*
X00001338Y00003113D01*
X00001338Y00003110D01*
X00001338Y00003109D01*
X00001338Y00003109D01*
X00001338Y00003109D01*
X00001338Y00003108D01*
X00001338Y00003107D01*
X00001338Y00003106D01*
X00001333Y00002957D01*
X00001333Y00002956D01*
X00001333Y00002955D01*
X00001332Y00002954D01*
X00001332Y00002951D01*
X00001332Y00002950D01*
X00001332Y00002949D01*
X00001332Y00002948D01*
X00001332Y00002945D01*
X00001332Y00002944D01*
X00001332Y00002943D01*
X00001332Y00002943D01*
X00001332Y00002941D01*
X00001332Y00002940D01*
X00001332Y00002938D01*
X00001332Y00002937D01*
X00001331Y00002930D01*
X00001331Y00002929D01*
X00001331Y00002927D01*
X00001331Y00002927D01*
X00001331Y00002924D01*
X00001331Y00002924D01*
X00001331Y00002923D01*
X00001331Y00002922D01*
X00001331Y00002918D01*
X00001330Y00002917D01*
X00001330Y00002916D01*
X00001330Y00002915D01*
X00001330Y00002913D01*
X00001330Y00002912D01*
X00001330Y00002910D01*
X00001330Y00002910D01*
X00001321Y00002798D01*
X00001321Y00002797D01*
X00001321Y00002795D01*
X00001321Y00002793D01*
X00001321Y00002789D01*
X00001321Y00002788D01*
X00001320Y00002786D01*
X00001320Y00002784D01*
X00001320Y00002778D01*
X00001320Y00002776D01*
X00001319Y00002774D01*
X00001319Y00002773D01*
X00001319Y00002769D01*
X00001319Y00002768D01*
X00001319Y00002766D01*
X-00001775Y00003222D02*
X-00001774Y00003234D01*
X-00001774Y00003235D01*
X-00001773Y00003238D01*
X-00001773Y00003239D01*
X-00001773Y00003243D01*
X-00001773Y00003245D01*
X-00001772Y00003247D01*
X-00001772Y00003248D01*
X-00001772Y00003255D01*
X-00001771Y00003256D01*
X-00001771Y00003259D01*
X-00001771Y00003260D01*
X-00001771Y00003264D01*
X-00001770Y00003265D01*
X-00001770Y00003268D01*
X-00001770Y00003269D01*
X-00001768Y00003282D01*
X-00001768Y00003284D01*
X-00001768Y00003286D01*
X-00001768Y00003288D01*
X-00001767Y00003292D01*
X-00001767Y00003293D01*
X-00001767Y00003295D01*
X-00001766Y00003297D01*
X-00001765Y00003303D01*
X-00001765Y00003304D01*
X-00001765Y00003307D01*
X-00001765Y00003308D01*
X-00001764Y00003312D01*
X-00001764Y00003313D01*
X-00001764Y00003316D01*
X-00001763Y00003317D01*
X-00001761Y00003329D01*
X-00001761Y00003330D01*
X-00001761Y00003331D01*
X-00001761Y00003332D01*
X-00001761Y00003334D01*
X-00001761Y00003334D01*
X-00001760Y00003335D01*
X-00001760Y00003336D01*
X-00001760Y00003339D01*
X-00001760Y00003340D01*
X-00001760Y00003341D01*
X-00001759Y00003341D01*
X-00001759Y00003343D01*
X-00001759Y00003344D01*
X-00001759Y00003346D01*
X-00001759Y00003346D01*
X-00001758Y00003353D01*
X-00001757Y00003353D01*
X-00001757Y00003355D01*
X-00001757Y00003356D01*
X-00001757Y00003358D01*
X-00001756Y00003358D01*
X-00001756Y00003359D01*
X-00001756Y00003359D01*
X-00001756Y00003363D01*
X-00001756Y00003363D01*
X-00001755Y00003364D01*
X-00001755Y00003365D01*
X-00001755Y00003367D01*
X-00001755Y00003368D01*
X-00001754Y00003369D01*
X-00001754Y00003370D01*
X-00001710Y00003596D01*
X-00001710Y00003598D01*
X-00001709Y00003601D01*
X-00001709Y00003605D01*
X-00001708Y00003607D01*
X-00001708Y00003609D01*
X-00001708Y00003610D01*
X-00001706Y00003617D01*
X-00001706Y00003618D01*
X-00001705Y00003620D01*
X-00001705Y00003622D01*
X-00001704Y00003626D01*
X-00001704Y00003627D01*
X-00001703Y00003630D01*
X-00001703Y00003631D01*
X-00001700Y00003644D01*
X-00001700Y00003645D01*
X-00001699Y00003648D01*
X-00001699Y00003649D01*
X-00001698Y00003653D01*
X-00001698Y00003655D01*
X-00001697Y00003657D01*
X-00001697Y00003658D01*
X-00001695Y00003665D01*
X-00001695Y00003666D01*
X-00001694Y00003668D01*
X-00001694Y00003670D01*
X-00001693Y00003674D01*
X-00001692Y00003675D01*
X-00001692Y00003678D01*
X-00001691Y00003679D01*
X-00001666Y00003775D01*
X-00001666Y00003775D01*
X-00001665Y00003776D01*
X-00001665Y00003778D01*
X-00001664Y00003780D01*
X-00001664Y00003781D01*
X-00001663Y00003783D01*
X-00001663Y00003784D01*
X-00001662Y00003788D01*
X-00001662Y00003789D01*
X-00001661Y00003790D01*
X-00001661Y00003791D01*
X-00001661Y00003793D01*
X-00001661Y00003793D01*
X-00001660Y00003795D01*
X-00001660Y00003796D01*
X-00001658Y00003804D01*
X-00001657Y00003805D01*
X-00001657Y00003806D01*
X-00001657Y00003807D01*
X-00001656Y00003809D01*
X-00001656Y00003809D01*
X-00001656Y00003811D01*
X-00001655Y00003812D01*
X-00001654Y00003816D01*
X-00001654Y00003817D01*
X-00001653Y00003818D01*
X-00001653Y00003819D01*
X-00001652Y00003821D01*
X-00001652Y00003822D01*
X-00001652Y00003823D01*
X-00001651Y00003824D01*
X-00001598Y00003994D01*
X-00001598Y00003996D01*
X-00001597Y00003997D01*
X-00001597Y00003998D01*
X-00001597Y00003998D01*
X-00001596Y00003999D01*
X-00001596Y00004000D01*
X-00001595Y00004003D01*
X-00001595Y00004004D01*
X-00001594Y00004006D01*
X-00001594Y00004006D01*
X-00001594Y00004008D01*
X-00001593Y00004008D01*
X-00001593Y00004009D01*
X-00001593Y00004009D01*
X-00001591Y00004015D01*
X-00001591Y00004016D01*
X-00001591Y00004017D01*
X-00001590Y00004017D01*
X-00001590Y00004019D01*
X-00001590Y00004020D01*
X-00001589Y00004021D01*
X-00001589Y00004021D01*
X-00001588Y00004024D01*
X-00001588Y00004025D01*
X-00001588Y00004025D01*
X-00001588Y00004026D01*
X-00001587Y00004028D01*
X-00001587Y00004029D01*
X-00001586Y00004030D01*
X-00001586Y00004031D01*
X-00001523Y00004212D01*
X-00001523Y00004212D01*
X-00001522Y00004213D01*
X-00001522Y00004214D01*
X-00001521Y00004216D01*
X-00001521Y00004217D01*
X-00001521Y00004218D01*
X-00001521Y00004218D01*
X-00001519Y00004221D01*
X-00001519Y00004222D01*
X-00001519Y00004223D01*
X-00001519Y00004224D01*
X-00001518Y00004226D01*
X-00001518Y00004226D01*
X-00001518Y00004227D01*
X-00001517Y00004228D01*
X-00001515Y00004234D01*
X-00001515Y00004235D01*
X-00001514Y00004235D01*
X-00001514Y00004236D01*
X-00001513Y00004238D01*
X-00001513Y00004238D01*
X-00001513Y00004240D01*
X-00001512Y00004241D01*
X-00001511Y00004243D01*
X-00001511Y00004244D01*
X-00001511Y00004245D01*
X-00001510Y00004246D01*
X-00001510Y00004248D01*
X-00001509Y00004248D01*
X-00001509Y00004249D01*
X-00001509Y00004249D01*
X-00001457Y00004384D01*
X-00001484Y00004535D01*
X-00001525Y00004755D01*
X-00001554Y00004910D01*
X-00001557Y00004910D01*
X-00001566Y00004909D01*
X-00001572Y00004909D01*
X-00001589Y00004908D01*
X-00001595Y00004908D01*
X-00001604Y00004907D01*
X-00001610Y00004907D01*
X-00001638Y00004907D01*
X-00001644Y00004907D01*
X-00001654Y00004907D01*
X-00001659Y00004907D01*
X-00001676Y00004907D01*
X-00001682Y00004907D01*
X-00001692Y00004908D01*
X-00001697Y00004908D01*
X-00001725Y00004910D01*
X-00001728Y00004910D01*
X-00001733Y00004910D01*
X-00001736Y00004910D01*
X-00001745Y00004911D01*
X-00001747Y00004911D01*
X-00001752Y00004912D01*
X-00001755Y00004912D01*
X-00001769Y00004913D01*
X-00001772Y00004913D01*
X-00001777Y00004914D01*
X-00001780Y00004914D01*
X-00001788Y00004915D01*
X-00001791Y00004916D01*
X-00001796Y00004916D01*
X-00001798Y00004916D01*
X-00001831Y00004921D01*
X-00001832Y00004921D01*
X-00001833Y00004921D01*
X-00001834Y00004921D01*
X-00001835Y00004921D01*
X-00001836Y00004921D01*
X-00001839Y00004922D01*
X-00001840Y00004922D01*
X-00001841Y00004922D01*
X-00001841Y00004922D01*
X-00001842Y00004922D01*
X-00001843Y00004922D01*
X-00001844Y00004923D01*
X-00001845Y00004923D01*
X-00001850Y00004923D01*
X-00001850Y00004923D01*
X-00001852Y00004924D01*
X-00001853Y00004924D01*
X-00001855Y00004924D01*
X-00001855Y00004924D01*
X-00001856Y00004924D01*
X-00001856Y00004924D01*
X-00001859Y00004925D01*
X-00001859Y00004925D01*
X-00001860Y00004925D01*
X-00001861Y00004925D01*
X-00001863Y00004925D01*
X-00001864Y00004925D01*
X-00001865Y00004926D01*
X-00001877Y00004927D01*
X-00001880Y00004928D01*
X-00001885Y00004929D01*
X-00001888Y00004929D01*
X-00001897Y00004931D01*
X-00001900Y00004932D01*
X-00001906Y00004933D01*
X-00001909Y00004933D01*
X-00001924Y00004936D01*
X-00001927Y00004937D01*
X-00001932Y00004938D01*
X-00001935Y00004939D01*
X-00001945Y00004941D01*
X-00001948Y00004941D01*
X-00001953Y00004942D01*
X-00001956Y00004943D01*
X-00001986Y00004950D01*
X-00001992Y00004952D01*
X-00002003Y00004955D01*
X-00002009Y00004956D01*
X-00002026Y00004961D01*
X-00002032Y00004963D01*
X-00002043Y00004966D01*
X-00002049Y00004968D01*
X-00002078Y00004978D01*
X-00002084Y00004980D01*
X-00002095Y00004983D01*
X-00002100Y00004985D01*
X-00002118Y00004992D01*
X-00002124Y00004994D01*
X-00002134Y00004998D01*
X-00002139Y00005000D01*
X-00002168Y00005012D01*
X-00002171Y00005013D01*
X-00002176Y00005016D01*
X-00002179Y00005017D01*
X-00002187Y00005021D01*
X-00002190Y00005022D01*
X-00002195Y00005024D01*
X-00002198Y00005025D01*
X-00002212Y00005032D01*
X-00002215Y00005033D01*
X-00002220Y00005035D01*
X-00002223Y00005037D01*
X-00002231Y00005041D01*
X-00002234Y00005042D01*
X-00002239Y00005045D01*
X-00002241Y00005046D01*
X-00002252Y00005052D01*
X-00002255Y00005053D01*
X-00002260Y00005056D01*
X-00002263Y00005057D01*
X-00002271Y00005061D01*
X-00002273Y00005063D01*
X-00002278Y00005065D01*
X-00002281Y00005067D01*
X-00002294Y00005074D01*
X-00002297Y00005076D01*
X-00002302Y00005079D01*
X-00002304Y00005080D01*
X-00002312Y00005085D01*
X-00002315Y00005086D01*
X-00002320Y00005089D01*
X-00002322Y00005091D01*
X-00002348Y00005107D01*
X-00002354Y00005110D01*
X-00002363Y00005116D01*
X-00002368Y00005119D01*
X-00002383Y00005130D01*
X-00002388Y00005133D01*
X-00002397Y00005139D01*
X-00002402Y00005143D01*
X-00002427Y00005161D01*
X-00002432Y00005165D01*
X-00002440Y00005171D01*
X-00002445Y00005175D01*
X-00002460Y00005186D01*
X-00002465Y00005190D01*
X-00002473Y00005197D01*
X-00002478Y00005201D01*
X-00002501Y00005221D01*
X-00002503Y00005223D01*
X-00002508Y00005226D01*
X-00002510Y00005229D01*
X-00002517Y00005235D01*
X-00002519Y00005237D01*
X-00002523Y00005240D01*
X-00002525Y00005242D01*
X-00002537Y00005253D01*
X-00002539Y00005255D01*
X-00002543Y00005259D01*
X-00002545Y00005261D01*
X-00002552Y00005267D01*
X-00002554Y00005269D01*
X-00002558Y00005273D01*
X-00002560Y00005275D01*
X-00002569Y00005284D01*
X-00002570Y00005285D01*
X-00002572Y00005287D01*
X-00002573Y00005288D01*
X-00002576Y00005291D01*
X-00002576Y00005292D01*
X-00002578Y00005294D01*
X-00002579Y00005295D01*
X-00002584Y00005300D01*
X-00002585Y00005301D01*
X-00002587Y00005302D01*
X-00002588Y00005304D01*
X-00002591Y00005307D01*
X-00002592Y00005308D01*
X-00002594Y00005310D01*
X-00002595Y00005311D01*
X-00002605Y00005322D01*
X-00002606Y00005323D01*
X-00002608Y00005325D01*
X-00002609Y00005326D01*
X-00002612Y00005329D01*
X-00002613Y00005330D01*
X-00002614Y00005332D01*
X-00002615Y00005333D01*
X-00002620Y00005338D01*
X-00002621Y00005339D01*
X-00002622Y00005341D01*
X-00002623Y00005342D01*
X-00002626Y00005346D01*
X-00002627Y00005347D01*
X-00002629Y00005349D01*
X-00002630Y00005350D01*
X-00002649Y00005372D01*
X-00002650Y00005374D01*
X-00002653Y00005377D01*
X-00002655Y00005379D01*
X-00002659Y00005384D01*
X-00002661Y00005386D01*
X-00002663Y00005389D01*
X-00002665Y00005391D01*
X-00002672Y00005400D01*
X-00002674Y00005402D01*
X-00002676Y00005405D01*
X-00002678Y00005407D01*
X-00002682Y00005412D01*
X-00002683Y00005414D01*
X-00002686Y00005417D01*
X-00002687Y00005419D01*
X-00002702Y00005438D01*
X-00002705Y00005442D01*
X-00002710Y00005448D01*
X-00002712Y00005452D01*
X-00002721Y00005464D01*
X-00002723Y00005468D01*
X-00002728Y00005474D01*
X-00002731Y00005478D01*
X-00002744Y00005498D01*
X-00002746Y00005502D01*
X-00002751Y00005509D01*
X-00002754Y00005513D01*
X-00002761Y00005525D01*
X-00002764Y00005529D01*
X-00002768Y00005536D01*
X-00002770Y00005540D01*
X-00002782Y00005560D01*
X-00002783Y00005562D01*
X-00002785Y00005566D01*
X-00002786Y00005568D01*
X-00002790Y00005574D01*
X-00002791Y00005576D01*
X-00002793Y00005580D01*
X-00002794Y00005582D01*
X-00002800Y00005592D01*
X-00002801Y00005594D01*
X-00002803Y00005598D01*
X-00002804Y00005600D01*
X-00002808Y00005606D01*
X-00002809Y00005608D01*
X-00002811Y00005612D01*
X-00002812Y00005614D01*
X-00002817Y00005625D01*
X-00002819Y00005628D01*
X-00002821Y00005633D01*
X-00002823Y00005635D01*
X-00002827Y00005644D01*
X-00002828Y00005647D01*
X-00002830Y00005650D01*
X-00003516Y00004964D01*
X-00001775Y00003222D01*
D14*
X00001698Y00003647D02*
X00003032Y00004980D01*
X00002453Y00005559D01*
X00002351Y00005345D01*
X00002350Y00005345D01*
X00002222Y00005075D01*
X00002222Y00005075D01*
X00001700Y00003982D01*
X00001698Y00003647D01*
X-00001882Y00004570D02*
X-00001883Y00004570D01*
X-00001884Y00004570D01*
X-00001886Y00004571D01*
X-00001888Y00004571D01*
X-00001889Y00004571D01*
X-00001889Y00004571D01*
X-00001890Y00004571D01*
X-00001890Y00004571D01*
X-00001891Y00004571D01*
X-00001893Y00004572D01*
X-00001894Y00004572D01*
X-00001894Y00004572D01*
X-00001895Y00004572D01*
X-00001900Y00004573D01*
X-00001901Y00004573D01*
X-00001901Y00004573D01*
X-00001903Y00004573D01*
X-00001903Y00004573D01*
X-00001905Y00004573D01*
X-00001905Y00004573D01*
X-00001907Y00004574D01*
X-00001908Y00004574D01*
X-00001908Y00004574D01*
X-00001909Y00004574D01*
X-00001911Y00004574D01*
X-00001911Y00004574D01*
X-00001912Y00004574D01*
X-00001913Y00004574D01*
X-00001914Y00004575D01*
X-00001915Y00004575D01*
X-00001915Y00004575D01*
X-00001917Y00004575D01*
X-00001918Y00004575D01*
X-00001919Y00004575D01*
X-00001920Y00004576D01*
X-00001932Y00004577D01*
X-00001934Y00004578D01*
X-00001937Y00004578D01*
X-00001939Y00004579D01*
X-00001944Y00004579D01*
X-00001945Y00004580D01*
X-00001948Y00004580D01*
X-00001950Y00004581D01*
X-00001959Y00004582D01*
X-00001961Y00004583D01*
X-00001964Y00004583D01*
X-00001966Y00004583D01*
X-00001971Y00004584D01*
X-00001973Y00004585D01*
X-00001976Y00004585D01*
X-00001978Y00004586D01*
X-00001993Y00004589D01*
X-00001995Y00004589D01*
X-00001998Y00004590D01*
X-00001999Y00004590D01*
X-00002005Y00004591D01*
X-00002007Y00004591D01*
X-00002010Y00004592D01*
X-00002011Y00004592D01*
X-00002020Y00004594D01*
X-00002022Y00004595D01*
X-00002025Y00004595D01*
X-00002027Y00004596D01*
X-00002032Y00004597D01*
X-00002034Y00004597D01*
X-00002037Y00004598D01*
X-00002039Y00004599D01*
X-00002069Y00004606D01*
X-00002072Y00004607D01*
X-00002078Y00004608D01*
X-00002081Y00004609D01*
X-00002092Y00004612D01*
X-00002095Y00004613D01*
X-00002101Y00004614D01*
X-00002105Y00004615D01*
X-00002123Y00004620D01*
X-00002126Y00004621D01*
X-00002132Y00004623D01*
X-00002135Y00004624D01*
X-00002146Y00004627D01*
X-00002149Y00004628D01*
X-00002155Y00004630D01*
X-00002158Y00004631D01*
X-00002188Y00004641D01*
X-00002191Y00004642D01*
X-00002197Y00004644D01*
X-00002201Y00004645D01*
X-00002211Y00004649D01*
X-00002214Y00004650D01*
X-00002220Y00004652D01*
X-00002223Y00004653D01*
X-00002241Y00004659D01*
X-00002244Y00004661D01*
X-00002250Y00004663D01*
X-00002253Y00004664D01*
X-00002263Y00004668D01*
X-00002266Y00004669D01*
X-00002272Y00004672D01*
X-00002275Y00004673D01*
X-00002304Y00004685D01*
X-00002306Y00004686D01*
X-00002309Y00004687D01*
X-00002310Y00004688D01*
X-00002315Y00004690D01*
X-00002317Y00004690D01*
X-00002319Y00004692D01*
X-00002321Y00004692D01*
X-00002330Y00004696D01*
X-00002331Y00004697D01*
X-00002334Y00004698D01*
X-00002335Y00004699D01*
X-00002340Y00004701D01*
X-00002342Y00004702D01*
X-00002345Y00004703D01*
X-00002347Y00004704D01*
X-00002361Y00004710D01*
X-00002362Y00004711D01*
X-00002365Y00004712D01*
X-00002367Y00004713D01*
X-00002371Y00004715D01*
X-00002373Y00004716D01*
X-00002376Y00004717D01*
X-00002377Y00004718D01*
X-00002386Y00004722D01*
X-00002387Y00004723D01*
X-00002390Y00004724D01*
X-00002392Y00004725D01*
X-00002396Y00004727D01*
X-00002398Y00004728D01*
X-00002401Y00004730D01*
X-00002402Y00004730D01*
X-00002413Y00004736D01*
X-00002415Y00004737D01*
X-00002418Y00004738D01*
X-00002419Y00004739D01*
X-00002424Y00004742D01*
X-00002426Y00004743D01*
X-00002429Y00004744D01*
X-00002430Y00004745D01*
X-00002438Y00004749D01*
X-00002440Y00004750D01*
X-00002442Y00004751D01*
X-00002444Y00004752D01*
X-00002448Y00004755D01*
X-00002450Y00004755D01*
X-00002453Y00004757D01*
X-00002454Y00004758D01*
X-00002468Y00004765D01*
X-00002469Y00004766D01*
X-00002472Y00004768D01*
X-00002473Y00004768D01*
X-00002478Y00004771D01*
X-00002479Y00004772D01*
X-00002482Y00004774D01*
X-00002484Y00004775D01*
X-00002492Y00004779D01*
X-00002493Y00004780D01*
X-00002496Y00004782D01*
X-00002497Y00004783D01*
X-00002502Y00004785D01*
X-00002503Y00004786D01*
X-00002506Y00004788D01*
X-00002507Y00004789D01*
X-00002534Y00004805D01*
X-00002537Y00004807D01*
X-00002542Y00004810D01*
X-00002545Y00004812D01*
X-00002554Y00004818D01*
X-00002557Y00004820D01*
X-00002562Y00004823D01*
X-00002565Y00004825D01*
X-00002580Y00004835D01*
X-00002583Y00004837D01*
X-00002588Y00004840D01*
X-00002591Y00004842D01*
X-00002600Y00004848D01*
X-00002602Y00004850D01*
X-00002607Y00004854D01*
X-00002610Y00004856D01*
X-00002635Y00004874D01*
X-00002638Y00004876D01*
X-00002643Y00004880D01*
X-00002646Y00004882D01*
X-00002654Y00004889D01*
X-00002657Y00004891D01*
X-00002662Y00004894D01*
X-00002665Y00004896D01*
X-00002679Y00004908D01*
X-00002682Y00004910D01*
X-00002687Y00004914D01*
X-00002689Y00004916D01*
X-00002698Y00004923D01*
X-00002700Y00004925D01*
X-00002705Y00004929D01*
X-00002708Y00004931D01*
X-00002731Y00004951D01*
X-00002732Y00004952D01*
X-00002735Y00004954D01*
X-00002736Y00004956D01*
X-00002740Y00004959D01*
X-00002742Y00004960D01*
X-00002744Y00004962D01*
X-00002745Y00004964D01*
X-00002752Y00004970D01*
X-00002753Y00004971D01*
X-00002756Y00004973D01*
X-00002757Y00004974D01*
X-00002761Y00004978D01*
X-00002762Y00004979D01*
X-00002766Y00004982D01*
X-00002777Y00004993D01*
X-00002778Y00004994D01*
X-00002781Y00004996D01*
X-00002782Y00004997D01*
X-00002786Y00005001D01*
X-00002787Y00005002D01*
X-00002789Y00005004D01*
X-00002791Y00005005D01*
X-00002797Y00005012D01*
X-00002799Y00005013D01*
X-00002801Y00005015D01*
X-00002802Y00005016D01*
X-00002806Y00005020D01*
X-00002807Y00005021D01*
X-00002809Y00005023D01*
X-00002810Y00005025D01*
X-00002819Y00005033D01*
X-00002820Y00005034D01*
X-00002821Y00005035D01*
X-00002822Y00005036D01*
X-00002824Y00005038D01*
X-00002824Y00005038D01*
X-00002825Y00005039D01*
X-00002825Y00005040D01*
X-00002828Y00005043D01*
X-00002828Y00005043D01*
X-00002829Y00005044D01*
X-00002830Y00005045D01*
X-00002832Y00005046D01*
X-00002833Y00005047D01*
X-00002834Y00005048D01*
X-00002834Y00005049D01*
X-00002839Y00005054D01*
X-00002839Y00005054D01*
X-00002840Y00005055D01*
X-00002841Y00005056D01*
X-00002843Y00005057D01*
X-00002843Y00005058D01*
X-00002845Y00005059D01*
X-00002845Y00005060D01*
X-00002848Y00005063D01*
X-00002848Y00005063D01*
X-00002849Y00005064D01*
X-00002850Y00005065D01*
X-00002852Y00005067D01*
X-00002853Y00005068D01*
X-00002854Y00005070D01*
X-00002864Y00005080D01*
X-00002865Y00005081D01*
X-00002866Y00005082D01*
X-00002866Y00005083D01*
X-00002868Y00005085D01*
X-00002869Y00005085D01*
X-00002870Y00005087D01*
X-00002870Y00005087D01*
X-00002873Y00005090D01*
X-00002874Y00005091D01*
X-00002875Y00005093D01*
X-00002876Y00005093D01*
X-00002877Y00005095D01*
X-00002877Y00005095D01*
X-00002878Y00005096D01*
X-00002879Y00005096D01*
X-00002880Y00005098D01*
X-00003015Y00004964D01*
X-00001988Y00003936D01*
X-00001936Y00004100D01*
X-00001936Y00004101D01*
X-00001936Y00004102D01*
X-00001935Y00004104D01*
X-00001935Y00004104D01*
X-00001935Y00004105D01*
X-00001935Y00004105D01*
X-00001934Y00004107D01*
X-00001934Y00004108D01*
X-00001933Y00004109D01*
X-00001932Y00004112D01*
X-00001932Y00004112D01*
X-00001932Y00004114D01*
X-00001931Y00004115D01*
X-00001931Y00004116D01*
X-00001931Y00004117D01*
X-00001931Y00004117D01*
X-00001930Y00004119D01*
X-00001930Y00004119D01*
X-00001930Y00004119D01*
X-00001930Y00004120D01*
X-00001930Y00004121D01*
X-00001928Y00004126D01*
X-00001927Y00004127D01*
X-00001927Y00004128D01*
X-00001927Y00004130D01*
X-00001926Y00004130D01*
X-00001926Y00004132D01*
X-00001926Y00004132D01*
X-00001925Y00004133D01*
X-00001925Y00004134D01*
X-00001925Y00004135D01*
X-00001924Y00004138D01*
X-00001924Y00004139D01*
X-00001923Y00004139D01*
X-00001923Y00004141D01*
X-00001922Y00004143D01*
X-00001922Y00004143D01*
X-00001922Y00004144D01*
X-00001921Y00004145D01*
X-00001921Y00004146D01*
X-00001921Y00004147D01*
X-00001921Y00004147D01*
X-00001857Y00004328D01*
X-00001857Y00004329D01*
X-00001857Y00004330D01*
X-00001857Y00004330D01*
X-00001856Y00004331D01*
X-00001856Y00004332D01*
X-00001855Y00004334D01*
X-00001855Y00004336D01*
X-00001855Y00004337D01*
X-00001854Y00004337D01*
X-00001854Y00004338D01*
X-00001854Y00004338D01*
X-00001853Y00004341D01*
X-00001853Y00004342D01*
X-00001852Y00004343D01*
X-00001852Y00004344D01*
X-00001852Y00004345D01*
X-00001851Y00004347D01*
X-00001851Y00004347D01*
X-00001851Y00004348D01*
X-00001850Y00004348D01*
X-00001850Y00004349D01*
X-00001850Y00004350D01*
X-00001848Y00004356D01*
X-00001847Y00004357D01*
X-00001847Y00004357D01*
X-00001847Y00004357D01*
X-00001847Y00004358D01*
X-00001846Y00004359D01*
X-00001846Y00004361D01*
X-00001846Y00004361D01*
X-00001845Y00004362D01*
X-00001845Y00004362D01*
X-00001845Y00004364D01*
X-00001844Y00004364D01*
X-00001844Y00004366D01*
X-00001843Y00004368D01*
X-00001843Y00004368D01*
X-00001842Y00004370D01*
X-00001842Y00004371D01*
X-00001842Y00004371D01*
X-00001842Y00004372D01*
X-00001841Y00004372D01*
X-00001841Y00004374D01*
X-00001840Y00004376D01*
X-00001840Y00004376D01*
X-00001840Y00004377D01*
X-00001823Y00004420D01*
X-00001832Y00004472D01*
X-00001850Y00004566D01*
X-00001876Y00004569D01*
X-00001877Y00004569D01*
X-00001878Y00004569D01*
X-00001879Y00004570D01*
X-00001881Y00004570D01*
X-00001881Y00004570D01*
X-00001882Y00004570D01*
M02*