G04 #@! TF.GenerationSoftware,KiCad,Pcbnew,(5.1.9)-1*
G04 #@! TF.CreationDate,2021-03-26T23:54:28-07:00*
G04 #@! TF.ProjectId,mole-diamond-keychain-alt_rotated,6d6f6c65-2d64-4696-916d-6f6e642d6b65,A*
G04 #@! TF.SameCoordinates,PX6d9f5PYfff9260b*
G04 #@! TF.FileFunction,Copper,L1,Top*
G04 #@! TF.FilePolarity,Positive*
%FSLAX46Y46*%
G04 Gerber Fmt 4.6, Leading zero omitted, Abs format (unit mm)*
G04 Created by KiCad (PCBNEW (5.1.9)-1) date 2021-03-26 23:54:28*
%MOMM*%
%LPD*%
G01*
G04 APERTURE LIST*
G04 #@! TA.AperFunction,EtchedComponent*
%ADD10C,0.010000*%
G04 #@! TD*
G04 #@! TA.AperFunction,ComponentPad*
%ADD11C,5.600000*%
G04 #@! TD*
G04 APERTURE END LIST*
D10*
G36*
X34603764Y419065D02*
G01*
X26072520Y419378D01*
X17541277Y419690D01*
X17541345Y7858681D01*
X19214487Y6185539D01*
X19199262Y6120677D01*
X19261157Y6018825D01*
X19416105Y5850130D01*
X19599355Y5665399D01*
X20073046Y5191708D01*
X20516435Y5496672D01*
X20737897Y5664308D01*
X21047000Y5919019D01*
X21408818Y6231042D01*
X21788427Y6570612D01*
X21940061Y6709926D01*
X22920297Y7618213D01*
X22952894Y7399377D01*
X23083732Y6881791D01*
X23325687Y6424023D01*
X23704804Y5977554D01*
X23729235Y5953268D01*
X24228838Y5524786D01*
X24726179Y5242883D01*
X25261686Y5090275D01*
X25843433Y5049318D01*
X26439718Y5086185D01*
X26951062Y5200486D01*
X27452044Y5412841D01*
X27742736Y5574487D01*
X28326146Y6009702D01*
X28783913Y6540061D01*
X29106508Y7144492D01*
X29284405Y7801920D01*
X29308076Y8491273D01*
X29246615Y8900931D01*
X29135587Y9406195D01*
X29769052Y9416307D01*
X30355215Y9478874D01*
X30860414Y9659004D01*
X31329032Y9976048D01*
X31575680Y10204140D01*
X31962898Y10698680D01*
X32191209Y11237182D01*
X32261208Y11806753D01*
X32173492Y12394505D01*
X31928655Y12987542D01*
X31527295Y13572975D01*
X31413894Y13704095D01*
X30862818Y14216621D01*
X30284829Y14563436D01*
X29686203Y14743899D01*
X29073214Y14757368D01*
X28452135Y14603200D01*
X27829240Y14280756D01*
X27571288Y14097073D01*
X27416075Y13963840D01*
X27154427Y13722984D01*
X26799255Y13387010D01*
X26363467Y12968425D01*
X25859975Y12479733D01*
X25301687Y11933438D01*
X24701516Y11342046D01*
X24072368Y10718063D01*
X23709272Y10356132D01*
X22924522Y9573917D01*
X22247498Y8902676D01*
X21667448Y8332407D01*
X21173622Y7853099D01*
X20755268Y7454747D01*
X20401637Y7127341D01*
X20101977Y6860875D01*
X19845537Y6645343D01*
X19621567Y6470735D01*
X19419316Y6327044D01*
X19290894Y6243268D01*
X19214487Y6185539D01*
X17541345Y7858681D01*
X17541589Y34604534D01*
X26072833Y34604221D01*
X34604077Y34603909D01*
X34603764Y419065D01*
G37*
X34603764Y419065D02*
X26072520Y419378D01*
X17541277Y419690D01*
X17541345Y7858681D01*
X19214487Y6185539D01*
X19199262Y6120677D01*
X19261157Y6018825D01*
X19416105Y5850130D01*
X19599355Y5665399D01*
X20073046Y5191708D01*
X20516435Y5496672D01*
X20737897Y5664308D01*
X21047000Y5919019D01*
X21408818Y6231042D01*
X21788427Y6570612D01*
X21940061Y6709926D01*
X22920297Y7618213D01*
X22952894Y7399377D01*
X23083732Y6881791D01*
X23325687Y6424023D01*
X23704804Y5977554D01*
X23729235Y5953268D01*
X24228838Y5524786D01*
X24726179Y5242883D01*
X25261686Y5090275D01*
X25843433Y5049318D01*
X26439718Y5086185D01*
X26951062Y5200486D01*
X27452044Y5412841D01*
X27742736Y5574487D01*
X28326146Y6009702D01*
X28783913Y6540061D01*
X29106508Y7144492D01*
X29284405Y7801920D01*
X29308076Y8491273D01*
X29246615Y8900931D01*
X29135587Y9406195D01*
X29769052Y9416307D01*
X30355215Y9478874D01*
X30860414Y9659004D01*
X31329032Y9976048D01*
X31575680Y10204140D01*
X31962898Y10698680D01*
X32191209Y11237182D01*
X32261208Y11806753D01*
X32173492Y12394505D01*
X31928655Y12987542D01*
X31527295Y13572975D01*
X31413894Y13704095D01*
X30862818Y14216621D01*
X30284829Y14563436D01*
X29686203Y14743899D01*
X29073214Y14757368D01*
X28452135Y14603200D01*
X27829240Y14280756D01*
X27571288Y14097073D01*
X27416075Y13963840D01*
X27154427Y13722984D01*
X26799255Y13387010D01*
X26363467Y12968425D01*
X25859975Y12479733D01*
X25301687Y11933438D01*
X24701516Y11342046D01*
X24072368Y10718063D01*
X23709272Y10356132D01*
X22924522Y9573917D01*
X22247498Y8902676D01*
X21667448Y8332407D01*
X21173622Y7853099D01*
X20755268Y7454747D01*
X20401637Y7127341D01*
X20101977Y6860875D01*
X19845537Y6645343D01*
X19621567Y6470735D01*
X19419316Y6327044D01*
X19290894Y6243268D01*
X19214487Y6185539D01*
X17541345Y7858681D01*
X17541589Y34604534D01*
X26072833Y34604221D01*
X34604077Y34603909D01*
X34603764Y419065D01*
G36*
X11250312Y31293655D02*
G01*
X11363411Y30817651D01*
X11335734Y30285023D01*
X11163509Y29713284D01*
X11128327Y29632614D01*
X10951232Y29288378D01*
X10688010Y28839587D01*
X10357311Y28314709D01*
X9977787Y27742210D01*
X9568090Y27150559D01*
X9146871Y26568223D01*
X8938959Y26291008D01*
X8697444Y25965174D01*
X8510453Y25696984D01*
X8393092Y25509436D01*
X8360476Y25425528D01*
X8369207Y25423920D01*
X8467655Y25471821D01*
X8697028Y25592517D01*
X9040151Y25776697D01*
X9479853Y26015050D01*
X9998963Y26298265D01*
X10580305Y26617032D01*
X11206711Y26962039D01*
X11243763Y26982492D01*
X14001712Y28505133D01*
X15357845Y27149001D01*
X15078688Y27039013D01*
X14942385Y26988830D01*
X14663710Y26889107D01*
X14260193Y26746022D01*
X13749365Y26565752D01*
X13148757Y26354477D01*
X12475900Y26118375D01*
X11748324Y25863623D01*
X11160999Y25658350D01*
X7522468Y24387675D01*
X6139893Y23016304D01*
X5645257Y22529048D01*
X5249268Y22149865D01*
X4932876Y21865077D01*
X4677034Y21661015D01*
X4462693Y21524003D01*
X4270804Y21440368D01*
X4082319Y21396438D01*
X3878190Y21378538D01*
X3857130Y21377689D01*
X3532021Y21434501D01*
X3302503Y21618945D01*
X3193035Y21910965D01*
X3191617Y21923464D01*
X3240941Y22224259D01*
X3436821Y22558031D01*
X3762864Y22911686D01*
X4202682Y23272136D01*
X4739881Y23626285D01*
X5358074Y23961044D01*
X6040867Y24263318D01*
X6196319Y24323478D01*
X6502942Y24453461D01*
X6763321Y24589168D01*
X6914910Y24696117D01*
X7044846Y24850069D01*
X7249073Y25121047D01*
X7510199Y25483711D01*
X7810832Y25912723D01*
X8133578Y26382744D01*
X8461045Y26868435D01*
X8775840Y27344454D01*
X9060570Y27785467D01*
X9297844Y28166130D01*
X9306419Y28180267D01*
X9692015Y28857397D01*
X9960396Y29428170D01*
X10114228Y29905827D01*
X10156174Y30303605D01*
X10088897Y30634744D01*
X9915059Y30912484D01*
X9866454Y30964076D01*
X9525122Y31199445D01*
X9135008Y31273769D01*
X8699072Y31187240D01*
X8220274Y30940047D01*
X8089696Y30849894D01*
X7885335Y30723509D01*
X7752867Y30708045D01*
X7676879Y30758916D01*
X7624965Y30827053D01*
X7632618Y30900759D01*
X7719768Y31009146D01*
X7906342Y31181326D01*
X8053962Y31309794D01*
X8644894Y31754329D01*
X9208153Y32044988D01*
X9737185Y32179990D01*
X10225433Y32157555D01*
X10616889Y32005742D01*
X11000214Y31695522D01*
X11250312Y31293655D01*
G37*
X11250312Y31293655D02*
X11363411Y30817651D01*
X11335734Y30285023D01*
X11163509Y29713284D01*
X11128327Y29632614D01*
X10951232Y29288378D01*
X10688010Y28839587D01*
X10357311Y28314709D01*
X9977787Y27742210D01*
X9568090Y27150559D01*
X9146871Y26568223D01*
X8938959Y26291008D01*
X8697444Y25965174D01*
X8510453Y25696984D01*
X8393092Y25509436D01*
X8360476Y25425528D01*
X8369207Y25423920D01*
X8467655Y25471821D01*
X8697028Y25592517D01*
X9040151Y25776697D01*
X9479853Y26015050D01*
X9998963Y26298265D01*
X10580305Y26617032D01*
X11206711Y26962039D01*
X11243763Y26982492D01*
X14001712Y28505133D01*
X15357845Y27149001D01*
X15078688Y27039013D01*
X14942385Y26988830D01*
X14663710Y26889107D01*
X14260193Y26746022D01*
X13749365Y26565752D01*
X13148757Y26354477D01*
X12475900Y26118375D01*
X11748324Y25863623D01*
X11160999Y25658350D01*
X7522468Y24387675D01*
X6139893Y23016304D01*
X5645257Y22529048D01*
X5249268Y22149865D01*
X4932876Y21865077D01*
X4677034Y21661015D01*
X4462693Y21524003D01*
X4270804Y21440368D01*
X4082319Y21396438D01*
X3878190Y21378538D01*
X3857130Y21377689D01*
X3532021Y21434501D01*
X3302503Y21618945D01*
X3193035Y21910965D01*
X3191617Y21923464D01*
X3240941Y22224259D01*
X3436821Y22558031D01*
X3762864Y22911686D01*
X4202682Y23272136D01*
X4739881Y23626285D01*
X5358074Y23961044D01*
X6040867Y24263318D01*
X6196319Y24323478D01*
X6502942Y24453461D01*
X6763321Y24589168D01*
X6914910Y24696117D01*
X7044846Y24850069D01*
X7249073Y25121047D01*
X7510199Y25483711D01*
X7810832Y25912723D01*
X8133578Y26382744D01*
X8461045Y26868435D01*
X8775840Y27344454D01*
X9060570Y27785467D01*
X9297844Y28166130D01*
X9306419Y28180267D01*
X9692015Y28857397D01*
X9960396Y29428170D01*
X10114228Y29905827D01*
X10156174Y30303605D01*
X10088897Y30634744D01*
X9915059Y30912484D01*
X9866454Y30964076D01*
X9525122Y31199445D01*
X9135008Y31273769D01*
X8699072Y31187240D01*
X8220274Y30940047D01*
X8089696Y30849894D01*
X7885335Y30723509D01*
X7752867Y30708045D01*
X7676879Y30758916D01*
X7624965Y30827053D01*
X7632618Y30900759D01*
X7719768Y31009146D01*
X7906342Y31181326D01*
X8053962Y31309794D01*
X8644894Y31754329D01*
X9208153Y32044988D01*
X9737185Y32179990D01*
X10225433Y32157555D01*
X10616889Y32005742D01*
X11000214Y31695522D01*
X11250312Y31293655D01*
G36*
X31089003Y13149789D02*
G01*
X31259364Y12734456D01*
X31268599Y12270473D01*
X31251649Y12173187D01*
X31208568Y11992137D01*
X31147846Y11840253D01*
X31046084Y11684509D01*
X30879886Y11491882D01*
X30625854Y11229346D01*
X30477375Y11080321D01*
X30156999Y10766170D01*
X29914777Y10548733D01*
X29713910Y10400384D01*
X29517600Y10293498D01*
X29321632Y10212641D01*
X29051438Y10120900D01*
X28891219Y10101274D01*
X28798299Y10152596D01*
X28767660Y10197485D01*
X28663168Y10356190D01*
X28499175Y10581388D01*
X28402180Y10707863D01*
X28154689Y10957026D01*
X27905686Y11098592D01*
X27683561Y11133474D01*
X27516700Y11062586D01*
X27433492Y10886840D01*
X27445029Y10677050D01*
X27502588Y10512726D01*
X27622654Y10347038D01*
X27836710Y10140873D01*
X27966552Y10029141D01*
X28435587Y9633221D01*
X28343548Y9160400D01*
X28145680Y8472172D01*
X27817071Y7805925D01*
X27498428Y7329821D01*
X27035747Y6797109D01*
X26536890Y6391008D01*
X26019503Y6113132D01*
X25501223Y5965092D01*
X24999695Y5948502D01*
X24532560Y6064974D01*
X24117460Y6316120D01*
X23772038Y6703554D01*
X23618238Y6975130D01*
X23530764Y7253494D01*
X23482393Y7596736D01*
X23478791Y7769260D01*
X23494105Y8239204D01*
X26250166Y10959714D01*
X26902378Y11602972D01*
X27446049Y12137455D01*
X27892749Y12573754D01*
X28254046Y12922457D01*
X28541508Y13194156D01*
X28766703Y13399440D01*
X28941198Y13548898D01*
X29076564Y13653122D01*
X29184368Y13722699D01*
X29276176Y13768220D01*
X29347308Y13794914D01*
X29834825Y13876919D01*
X30299809Y13792577D01*
X30727875Y13544680D01*
X30755596Y13521687D01*
X31089003Y13149789D01*
G37*
X31089003Y13149789D02*
X31259364Y12734456D01*
X31268599Y12270473D01*
X31251649Y12173187D01*
X31208568Y11992137D01*
X31147846Y11840253D01*
X31046084Y11684509D01*
X30879886Y11491882D01*
X30625854Y11229346D01*
X30477375Y11080321D01*
X30156999Y10766170D01*
X29914777Y10548733D01*
X29713910Y10400384D01*
X29517600Y10293498D01*
X29321632Y10212641D01*
X29051438Y10120900D01*
X28891219Y10101274D01*
X28798299Y10152596D01*
X28767660Y10197485D01*
X28663168Y10356190D01*
X28499175Y10581388D01*
X28402180Y10707863D01*
X28154689Y10957026D01*
X27905686Y11098592D01*
X27683561Y11133474D01*
X27516700Y11062586D01*
X27433492Y10886840D01*
X27445029Y10677050D01*
X27502588Y10512726D01*
X27622654Y10347038D01*
X27836710Y10140873D01*
X27966552Y10029141D01*
X28435587Y9633221D01*
X28343548Y9160400D01*
X28145680Y8472172D01*
X27817071Y7805925D01*
X27498428Y7329821D01*
X27035747Y6797109D01*
X26536890Y6391008D01*
X26019503Y6113132D01*
X25501223Y5965092D01*
X24999695Y5948502D01*
X24532560Y6064974D01*
X24117460Y6316120D01*
X23772038Y6703554D01*
X23618238Y6975130D01*
X23530764Y7253494D01*
X23482393Y7596736D01*
X23478791Y7769260D01*
X23494105Y8239204D01*
X26250166Y10959714D01*
X26902378Y11602972D01*
X27446049Y12137455D01*
X27892749Y12573754D01*
X28254046Y12922457D01*
X28541508Y13194156D01*
X28766703Y13399440D01*
X28941198Y13548898D01*
X29076564Y13653122D01*
X29184368Y13722699D01*
X29276176Y13768220D01*
X29347308Y13794914D01*
X29834825Y13876919D01*
X30299809Y13792577D01*
X30727875Y13544680D01*
X30755596Y13521687D01*
X31089003Y13149789D01*
D11*
X37268063Y37268070D03*
M02*
