G04 #@! TF.GenerationSoftware,KiCad,Pcbnew,(5.1.9)-1*
G04 #@! TF.CreationDate,2021-03-26T23:54:28-07:00*
G04 #@! TF.ProjectId,mole-diamond-keychain-alt_rotated,6d6f6c65-2d64-4696-916d-6f6e642d6b65,A*
G04 #@! TF.SameCoordinates,PX6d9f5PYfff9260b*
G04 #@! TF.FileFunction,Copper,L2,Bot*
G04 #@! TF.FilePolarity,Positive*
%FSLAX46Y46*%
G04 Gerber Fmt 4.6, Leading zero omitted, Abs format (unit mm)*
G04 Created by KiCad (PCBNEW (5.1.9)-1) date 2021-03-26 23:54:28*
%MOMM*%
%LPD*%
G01*
G04 APERTURE LIST*
G04 #@! TA.AperFunction,EtchedComponent*
%ADD10C,0.010000*%
G04 #@! TD*
G04 #@! TA.AperFunction,ComponentPad*
%ADD11C,5.600000*%
G04 #@! TD*
G04 APERTURE END LIST*
D10*
G36*
X13149789Y31089003D02*
G01*
X12734456Y31259364D01*
X12270473Y31268599D01*
X12173187Y31251649D01*
X11992137Y31208568D01*
X11840253Y31147846D01*
X11684509Y31046084D01*
X11491882Y30879886D01*
X11229346Y30625854D01*
X11080321Y30477375D01*
X10766170Y30156999D01*
X10548733Y29914777D01*
X10400384Y29713910D01*
X10293498Y29517600D01*
X10212641Y29321632D01*
X10120900Y29051438D01*
X10101274Y28891219D01*
X10152596Y28798299D01*
X10197485Y28767660D01*
X10356190Y28663168D01*
X10581388Y28499175D01*
X10707863Y28402180D01*
X10957026Y28154689D01*
X11098592Y27905686D01*
X11133474Y27683561D01*
X11062586Y27516700D01*
X10886840Y27433492D01*
X10677050Y27445029D01*
X10512726Y27502588D01*
X10347038Y27622654D01*
X10140873Y27836710D01*
X10029141Y27966552D01*
X9633221Y28435587D01*
X9160400Y28343548D01*
X8472172Y28145680D01*
X7805925Y27817071D01*
X7329821Y27498428D01*
X6797109Y27035747D01*
X6391008Y26536890D01*
X6113132Y26019503D01*
X5965092Y25501223D01*
X5948502Y24999695D01*
X6064974Y24532560D01*
X6316120Y24117460D01*
X6703554Y23772038D01*
X6975130Y23618238D01*
X7253494Y23530764D01*
X7596736Y23482393D01*
X7769260Y23478791D01*
X8239204Y23494105D01*
X10959714Y26250166D01*
X11602972Y26902378D01*
X12137455Y27446049D01*
X12573754Y27892749D01*
X12922457Y28254046D01*
X13194156Y28541508D01*
X13399440Y28766703D01*
X13548898Y28941198D01*
X13653122Y29076564D01*
X13722699Y29184368D01*
X13768220Y29276176D01*
X13794914Y29347308D01*
X13876919Y29834825D01*
X13792577Y30299809D01*
X13544680Y30727875D01*
X13521687Y30755596D01*
X13149789Y31089003D01*
G37*
X13149789Y31089003D02*
X12734456Y31259364D01*
X12270473Y31268599D01*
X12173187Y31251649D01*
X11992137Y31208568D01*
X11840253Y31147846D01*
X11684509Y31046084D01*
X11491882Y30879886D01*
X11229346Y30625854D01*
X11080321Y30477375D01*
X10766170Y30156999D01*
X10548733Y29914777D01*
X10400384Y29713910D01*
X10293498Y29517600D01*
X10212641Y29321632D01*
X10120900Y29051438D01*
X10101274Y28891219D01*
X10152596Y28798299D01*
X10197485Y28767660D01*
X10356190Y28663168D01*
X10581388Y28499175D01*
X10707863Y28402180D01*
X10957026Y28154689D01*
X11098592Y27905686D01*
X11133474Y27683561D01*
X11062586Y27516700D01*
X10886840Y27433492D01*
X10677050Y27445029D01*
X10512726Y27502588D01*
X10347038Y27622654D01*
X10140873Y27836710D01*
X10029141Y27966552D01*
X9633221Y28435587D01*
X9160400Y28343548D01*
X8472172Y28145680D01*
X7805925Y27817071D01*
X7329821Y27498428D01*
X6797109Y27035747D01*
X6391008Y26536890D01*
X6113132Y26019503D01*
X5965092Y25501223D01*
X5948502Y24999695D01*
X6064974Y24532560D01*
X6316120Y24117460D01*
X6703554Y23772038D01*
X6975130Y23618238D01*
X7253494Y23530764D01*
X7596736Y23482393D01*
X7769260Y23478791D01*
X8239204Y23494105D01*
X10959714Y26250166D01*
X11602972Y26902378D01*
X12137455Y27446049D01*
X12573754Y27892749D01*
X12922457Y28254046D01*
X13194156Y28541508D01*
X13399440Y28766703D01*
X13548898Y28941198D01*
X13653122Y29076564D01*
X13722699Y29184368D01*
X13768220Y29276176D01*
X13794914Y29347308D01*
X13876919Y29834825D01*
X13792577Y30299809D01*
X13544680Y30727875D01*
X13521687Y30755596D01*
X13149789Y31089003D01*
G36*
X31293655Y11250312D02*
G01*
X30817651Y11363411D01*
X30285023Y11335734D01*
X29713284Y11163509D01*
X29632614Y11128327D01*
X29288378Y10951232D01*
X28839587Y10688010D01*
X28314709Y10357311D01*
X27742210Y9977787D01*
X27150559Y9568090D01*
X26568223Y9146871D01*
X26291008Y8938959D01*
X25965174Y8697444D01*
X25696984Y8510453D01*
X25509436Y8393092D01*
X25425528Y8360476D01*
X25423920Y8369207D01*
X25471821Y8467655D01*
X25592517Y8697028D01*
X25776697Y9040151D01*
X26015050Y9479853D01*
X26298265Y9998963D01*
X26617032Y10580305D01*
X26962039Y11206711D01*
X26982492Y11243763D01*
X28505133Y14001712D01*
X27149001Y15357845D01*
X27039013Y15078688D01*
X26988830Y14942385D01*
X26889107Y14663710D01*
X26746022Y14260193D01*
X26565752Y13749365D01*
X26354477Y13148757D01*
X26118375Y12475900D01*
X25863623Y11748324D01*
X25658350Y11160999D01*
X24387675Y7522468D01*
X23016304Y6139893D01*
X22529048Y5645257D01*
X22149865Y5249268D01*
X21865077Y4932876D01*
X21661015Y4677034D01*
X21524003Y4462693D01*
X21440368Y4270804D01*
X21396438Y4082319D01*
X21378538Y3878190D01*
X21377689Y3857130D01*
X21434501Y3532021D01*
X21618945Y3302503D01*
X21910965Y3193035D01*
X21923464Y3191617D01*
X22224259Y3240941D01*
X22558031Y3436821D01*
X22911686Y3762864D01*
X23272136Y4202682D01*
X23626285Y4739881D01*
X23961044Y5358074D01*
X24263318Y6040867D01*
X24323478Y6196319D01*
X24453461Y6502942D01*
X24589168Y6763321D01*
X24696117Y6914910D01*
X24850069Y7044846D01*
X25121047Y7249073D01*
X25483711Y7510199D01*
X25912723Y7810832D01*
X26382744Y8133578D01*
X26868435Y8461045D01*
X27344454Y8775840D01*
X27785467Y9060570D01*
X28166130Y9297844D01*
X28180267Y9306419D01*
X28857397Y9692015D01*
X29428170Y9960396D01*
X29905827Y10114228D01*
X30303605Y10156174D01*
X30634744Y10088897D01*
X30912484Y9915059D01*
X30964076Y9866454D01*
X31199445Y9525122D01*
X31273769Y9135008D01*
X31187240Y8699072D01*
X30940047Y8220274D01*
X30849894Y8089696D01*
X30723509Y7885335D01*
X30708045Y7752867D01*
X30758916Y7676879D01*
X30827053Y7624965D01*
X30900759Y7632618D01*
X31009146Y7719768D01*
X31181326Y7906342D01*
X31309794Y8053962D01*
X31754329Y8644894D01*
X32044988Y9208153D01*
X32179990Y9737185D01*
X32157555Y10225433D01*
X32005742Y10616889D01*
X31695522Y11000214D01*
X31293655Y11250312D01*
G37*
X31293655Y11250312D02*
X30817651Y11363411D01*
X30285023Y11335734D01*
X29713284Y11163509D01*
X29632614Y11128327D01*
X29288378Y10951232D01*
X28839587Y10688010D01*
X28314709Y10357311D01*
X27742210Y9977787D01*
X27150559Y9568090D01*
X26568223Y9146871D01*
X26291008Y8938959D01*
X25965174Y8697444D01*
X25696984Y8510453D01*
X25509436Y8393092D01*
X25425528Y8360476D01*
X25423920Y8369207D01*
X25471821Y8467655D01*
X25592517Y8697028D01*
X25776697Y9040151D01*
X26015050Y9479853D01*
X26298265Y9998963D01*
X26617032Y10580305D01*
X26962039Y11206711D01*
X26982492Y11243763D01*
X28505133Y14001712D01*
X27149001Y15357845D01*
X27039013Y15078688D01*
X26988830Y14942385D01*
X26889107Y14663710D01*
X26746022Y14260193D01*
X26565752Y13749365D01*
X26354477Y13148757D01*
X26118375Y12475900D01*
X25863623Y11748324D01*
X25658350Y11160999D01*
X24387675Y7522468D01*
X23016304Y6139893D01*
X22529048Y5645257D01*
X22149865Y5249268D01*
X21865077Y4932876D01*
X21661015Y4677034D01*
X21524003Y4462693D01*
X21440368Y4270804D01*
X21396438Y4082319D01*
X21378538Y3878190D01*
X21377689Y3857130D01*
X21434501Y3532021D01*
X21618945Y3302503D01*
X21910965Y3193035D01*
X21923464Y3191617D01*
X22224259Y3240941D01*
X22558031Y3436821D01*
X22911686Y3762864D01*
X23272136Y4202682D01*
X23626285Y4739881D01*
X23961044Y5358074D01*
X24263318Y6040867D01*
X24323478Y6196319D01*
X24453461Y6502942D01*
X24589168Y6763321D01*
X24696117Y6914910D01*
X24850069Y7044846D01*
X25121047Y7249073D01*
X25483711Y7510199D01*
X25912723Y7810832D01*
X26382744Y8133578D01*
X26868435Y8461045D01*
X27344454Y8775840D01*
X27785467Y9060570D01*
X28166130Y9297844D01*
X28180267Y9306419D01*
X28857397Y9692015D01*
X29428170Y9960396D01*
X29905827Y10114228D01*
X30303605Y10156174D01*
X30634744Y10088897D01*
X30912484Y9915059D01*
X30964076Y9866454D01*
X31199445Y9525122D01*
X31273769Y9135008D01*
X31187240Y8699072D01*
X30940047Y8220274D01*
X30849894Y8089696D01*
X30723509Y7885335D01*
X30708045Y7752867D01*
X30758916Y7676879D01*
X30827053Y7624965D01*
X30900759Y7632618D01*
X31009146Y7719768D01*
X31181326Y7906342D01*
X31309794Y8053962D01*
X31754329Y8644894D01*
X32044988Y9208153D01*
X32179990Y9737185D01*
X32157555Y10225433D01*
X32005742Y10616889D01*
X31695522Y11000214D01*
X31293655Y11250312D01*
G36*
X419065Y34603764D02*
G01*
X419378Y26072520D01*
X419690Y17541277D01*
X7858681Y17541345D01*
X6185539Y19214487D01*
X6120677Y19199262D01*
X6018825Y19261157D01*
X5850130Y19416105D01*
X5665399Y19599355D01*
X5191708Y20073046D01*
X5496672Y20516435D01*
X5664308Y20737897D01*
X5919019Y21047000D01*
X6231042Y21408818D01*
X6570612Y21788427D01*
X6709926Y21940061D01*
X7618213Y22920297D01*
X7399377Y22952894D01*
X6881791Y23083732D01*
X6424023Y23325687D01*
X5977554Y23704804D01*
X5953268Y23729235D01*
X5524786Y24228838D01*
X5242883Y24726179D01*
X5090275Y25261686D01*
X5049318Y25843433D01*
X5086185Y26439718D01*
X5200486Y26951062D01*
X5412841Y27452044D01*
X5574487Y27742736D01*
X6009702Y28326146D01*
X6540061Y28783913D01*
X7144492Y29106508D01*
X7801920Y29284405D01*
X8491273Y29308076D01*
X8900931Y29246615D01*
X9406195Y29135587D01*
X9416307Y29769052D01*
X9478874Y30355215D01*
X9659004Y30860414D01*
X9976048Y31329032D01*
X10204140Y31575680D01*
X10698680Y31962898D01*
X11237182Y32191209D01*
X11806753Y32261208D01*
X12394505Y32173492D01*
X12987542Y31928655D01*
X13572975Y31527295D01*
X13704095Y31413894D01*
X14216621Y30862818D01*
X14563436Y30284829D01*
X14743899Y29686203D01*
X14757368Y29073214D01*
X14603200Y28452135D01*
X14280756Y27829240D01*
X14097073Y27571288D01*
X13963840Y27416075D01*
X13722984Y27154427D01*
X13387010Y26799255D01*
X12968425Y26363467D01*
X12479733Y25859975D01*
X11933438Y25301687D01*
X11342046Y24701516D01*
X10718063Y24072368D01*
X10356132Y23709272D01*
X9573917Y22924522D01*
X8902676Y22247498D01*
X8332407Y21667448D01*
X7853099Y21173622D01*
X7454747Y20755268D01*
X7127341Y20401637D01*
X6860875Y20101977D01*
X6645343Y19845537D01*
X6470735Y19621567D01*
X6327044Y19419316D01*
X6243268Y19290894D01*
X6185539Y19214487D01*
X7858681Y17541345D01*
X34604534Y17541589D01*
X34604221Y26072833D01*
X34603909Y34604077D01*
X419065Y34603764D01*
G37*
X419065Y34603764D02*
X419378Y26072520D01*
X419690Y17541277D01*
X7858681Y17541345D01*
X6185539Y19214487D01*
X6120677Y19199262D01*
X6018825Y19261157D01*
X5850130Y19416105D01*
X5665399Y19599355D01*
X5191708Y20073046D01*
X5496672Y20516435D01*
X5664308Y20737897D01*
X5919019Y21047000D01*
X6231042Y21408818D01*
X6570612Y21788427D01*
X6709926Y21940061D01*
X7618213Y22920297D01*
X7399377Y22952894D01*
X6881791Y23083732D01*
X6424023Y23325687D01*
X5977554Y23704804D01*
X5953268Y23729235D01*
X5524786Y24228838D01*
X5242883Y24726179D01*
X5090275Y25261686D01*
X5049318Y25843433D01*
X5086185Y26439718D01*
X5200486Y26951062D01*
X5412841Y27452044D01*
X5574487Y27742736D01*
X6009702Y28326146D01*
X6540061Y28783913D01*
X7144492Y29106508D01*
X7801920Y29284405D01*
X8491273Y29308076D01*
X8900931Y29246615D01*
X9406195Y29135587D01*
X9416307Y29769052D01*
X9478874Y30355215D01*
X9659004Y30860414D01*
X9976048Y31329032D01*
X10204140Y31575680D01*
X10698680Y31962898D01*
X11237182Y32191209D01*
X11806753Y32261208D01*
X12394505Y32173492D01*
X12987542Y31928655D01*
X13572975Y31527295D01*
X13704095Y31413894D01*
X14216621Y30862818D01*
X14563436Y30284829D01*
X14743899Y29686203D01*
X14757368Y29073214D01*
X14603200Y28452135D01*
X14280756Y27829240D01*
X14097073Y27571288D01*
X13963840Y27416075D01*
X13722984Y27154427D01*
X13387010Y26799255D01*
X12968425Y26363467D01*
X12479733Y25859975D01*
X11933438Y25301687D01*
X11342046Y24701516D01*
X10718063Y24072368D01*
X10356132Y23709272D01*
X9573917Y22924522D01*
X8902676Y22247498D01*
X8332407Y21667448D01*
X7853099Y21173622D01*
X7454747Y20755268D01*
X7127341Y20401637D01*
X6860875Y20101977D01*
X6645343Y19845537D01*
X6470735Y19621567D01*
X6327044Y19419316D01*
X6243268Y19290894D01*
X6185539Y19214487D01*
X7858681Y17541345D01*
X34604534Y17541589D01*
X34604221Y26072833D01*
X34603909Y34604077D01*
X419065Y34603764D01*
D11*
X37268063Y37268070D03*
M02*
