G04 #@! TF.GenerationSoftware,KiCad,Pcbnew,(5.1.5)-3*
G04 #@! TF.CreationDate,2019-12-21T19:25:36-08:00*
G04 #@! TF.ProjectId,mole-small-frame-A,6d6f6c65-2d73-46d6-916c-6c2d6672616d,rev?*
G04 #@! TF.SameCoordinates,Original*
G04 #@! TF.FileFunction,Copper,L2,Bot*
G04 #@! TF.FilePolarity,Positive*
%FSLAX46Y46*%
G04 Gerber Fmt 4.6, Leading zero omitted, Abs format (unit mm)*
G04 Created by KiCad (PCBNEW (5.1.5)-3) date 2019-12-21 19:25:36*
%MOMM*%
%LPD*%
G04 APERTURE LIST*
%ADD10C,3.000000*%
%ADD11C,0.254000*%
G04 APERTURE END LIST*
D10*
X2500000Y2500000D03*
X2500000Y95500000D03*
D11*
G36*
X841637Y1139017D02*
G01*
X1139017Y841637D01*
X1410856Y660000D01*
X660000Y660000D01*
X660000Y1410856D01*
X841637Y1139017D01*
G37*
X841637Y1139017D02*
X1139017Y841637D01*
X1410856Y660000D01*
X660000Y660000D01*
X660000Y1410856D01*
X841637Y1139017D01*
G36*
X4340001Y660000D02*
G01*
X3589144Y660000D01*
X3860983Y841637D01*
X4158363Y1139017D01*
X4340001Y1410858D01*
X4340001Y660000D01*
G37*
X4340001Y660000D02*
X3589144Y660000D01*
X3860983Y841637D01*
X4158363Y1139017D01*
X4340001Y1410858D01*
X4340001Y660000D01*
G36*
X4340001Y3589142D02*
G01*
X4158363Y3860983D01*
X3860983Y4158363D01*
X3511302Y4392012D01*
X3122756Y4552953D01*
X2710279Y4635000D01*
X2289721Y4635000D01*
X1877244Y4552953D01*
X1488698Y4392012D01*
X1139017Y4158363D01*
X841637Y3860983D01*
X660000Y3589144D01*
X660000Y94410856D01*
X841637Y94139017D01*
X1139017Y93841637D01*
X1488698Y93607988D01*
X1877244Y93447047D01*
X2289721Y93365000D01*
X2710279Y93365000D01*
X3122756Y93447047D01*
X3511302Y93607988D01*
X3860983Y93841637D01*
X4158363Y94139017D01*
X4340000Y94410856D01*
X4340001Y3589142D01*
G37*
X4340001Y3589142D02*
X4158363Y3860983D01*
X3860983Y4158363D01*
X3511302Y4392012D01*
X3122756Y4552953D01*
X2710279Y4635000D01*
X2289721Y4635000D01*
X1877244Y4552953D01*
X1488698Y4392012D01*
X1139017Y4158363D01*
X841637Y3860983D01*
X660000Y3589144D01*
X660000Y94410856D01*
X841637Y94139017D01*
X1139017Y93841637D01*
X1488698Y93607988D01*
X1877244Y93447047D01*
X2289721Y93365000D01*
X2710279Y93365000D01*
X3122756Y93447047D01*
X3511302Y93607988D01*
X3860983Y93841637D01*
X4158363Y94139017D01*
X4340000Y94410856D01*
X4340001Y3589142D01*
G36*
X1139017Y97158363D02*
G01*
X841637Y96860983D01*
X660000Y96589144D01*
X660000Y97340000D01*
X1410856Y97340000D01*
X1139017Y97158363D01*
G37*
X1139017Y97158363D02*
X841637Y96860983D01*
X660000Y96589144D01*
X660000Y97340000D01*
X1410856Y97340000D01*
X1139017Y97158363D01*
G36*
X4340000Y96589144D02*
G01*
X4158363Y96860983D01*
X3860983Y97158363D01*
X3589144Y97340000D01*
X4340000Y97340000D01*
X4340000Y96589144D01*
G37*
X4340000Y96589144D02*
X4158363Y96860983D01*
X3860983Y97158363D01*
X3589144Y97340000D01*
X4340000Y97340000D01*
X4340000Y96589144D01*
M02*
