G04 #@! TF.GenerationSoftware,KiCad,Pcbnew,(5.1.5)-3*
G04 #@! TF.CreationDate,2019-12-21T19:25:36-08:00*
G04 #@! TF.ProjectId,mole-small-frame-A,6d6f6c65-2d73-46d6-916c-6c2d6672616d,rev?*
G04 #@! TF.SameCoordinates,Original*
G04 #@! TF.FileFunction,Legend,Bot*
G04 #@! TF.FilePolarity,Positive*
%FSLAX46Y46*%
G04 Gerber Fmt 4.6, Leading zero omitted, Abs format (unit mm)*
G04 Created by KiCad (PCBNEW (5.1.5)-3) date 2019-12-21 19:25:36*
%MOMM*%
%LPD*%
G04 APERTURE LIST*
%ADD10C,0.120000*%
%ADD11C,0.150000*%
G04 APERTURE END LIST*
D10*
X4826000Y87000000D02*
X4826000Y56999900D01*
X3825240Y82000000D02*
X4826000Y82000000D01*
X3825240Y72000000D02*
X4826000Y72000000D01*
X3825240Y62000000D02*
X4826000Y62000000D01*
X2827020Y87000000D02*
X4826000Y87000000D01*
X2827020Y77000000D02*
X4826000Y77000000D01*
X2827020Y67000000D02*
X4826000Y67000000D01*
D11*
X4826000Y16999980D02*
X2827020Y16999980D01*
X4826000Y7000000D02*
X4826000Y16999980D01*
X4826000Y7000000D02*
X2827020Y7000000D01*
X4826000Y12001260D02*
X2827020Y12001260D01*
X4826000Y8000760D02*
X3825240Y8000760D01*
X4826000Y8998980D02*
X3825240Y8998980D01*
X4826000Y9999740D02*
X3825240Y9999740D01*
X4826000Y11000500D02*
X3825240Y11000500D01*
X4826000Y12999480D02*
X3825240Y12999480D01*
X4826000Y14000240D02*
X3825240Y14000240D01*
X4826000Y15001000D02*
X3825240Y15001000D01*
X4826000Y15999220D02*
X3825240Y15999220D01*
X4826000Y22001240D02*
X3825240Y22001240D01*
X4826000Y26999960D02*
X2827020Y26999960D01*
X4826000Y32001220D02*
X3825240Y32001220D01*
X4826000Y36999940D02*
X2827020Y36999940D01*
X4826000Y42001200D02*
X3825240Y42001200D01*
X4826000Y46999920D02*
X2827020Y46999920D01*
X4826000Y52001180D02*
X3825240Y52001180D01*
X4826000Y56999900D02*
X2827020Y56999900D01*
X4826000Y16999980D02*
X4826000Y56999900D01*
X2578360Y18523789D02*
X2578360Y19095218D01*
X2578360Y18809503D02*
X1578360Y18809503D01*
X1721218Y18904741D01*
X1816456Y18999980D01*
X1864075Y19095218D01*
X1578360Y17904741D02*
X1578360Y17809503D01*
X1625980Y17714265D01*
X1673599Y17666646D01*
X1768837Y17619027D01*
X1959313Y17571408D01*
X2197408Y17571408D01*
X2387884Y17619027D01*
X2483122Y17666646D01*
X2530741Y17714265D01*
X2578360Y17809503D01*
X2578360Y17904741D01*
X2530741Y17999980D01*
X2483122Y18047599D01*
X2387884Y18095218D01*
X2197408Y18142837D01*
X1959313Y18142837D01*
X1768837Y18095218D01*
X1673599Y18047599D01*
X1625980Y17999980D01*
X1578360Y17904741D01*
X2578360Y17142837D02*
X1911694Y17142837D01*
X2006932Y17142837D02*
X1959313Y17095218D01*
X1911694Y16999980D01*
X1911694Y16857122D01*
X1959313Y16761884D01*
X2054551Y16714265D01*
X2578360Y16714265D01*
X2054551Y16714265D02*
X1959313Y16666646D01*
X1911694Y16571408D01*
X1911694Y16428551D01*
X1959313Y16333313D01*
X2054551Y16285694D01*
X2578360Y16285694D01*
X2578360Y15809503D02*
X1911694Y15809503D01*
X2006932Y15809503D02*
X1959313Y15761884D01*
X1911694Y15666646D01*
X1911694Y15523789D01*
X1959313Y15428551D01*
X2054551Y15380932D01*
X2578360Y15380932D01*
X2054551Y15380932D02*
X1959313Y15333313D01*
X1911694Y15238075D01*
X1911694Y15095218D01*
X1959313Y14999980D01*
X2054551Y14952360D01*
X2578360Y14952360D01*
X1479300Y7047619D02*
X1479300Y6952380D01*
X1526920Y6857142D01*
X1574539Y6809523D01*
X1669777Y6761904D01*
X1860253Y6714285D01*
X2098348Y6714285D01*
X2288824Y6761904D01*
X2384062Y6809523D01*
X2431681Y6857142D01*
X2479300Y6952380D01*
X2479300Y7047619D01*
X2431681Y7142857D01*
X2384062Y7190476D01*
X2288824Y7238095D01*
X2098348Y7285714D01*
X1860253Y7285714D01*
X1669777Y7238095D01*
X1574539Y7190476D01*
X1526920Y7142857D01*
X1479300Y7047619D01*
X1377700Y11760624D02*
X1377700Y12236815D01*
X1853891Y12284434D01*
X1806272Y12236815D01*
X1758653Y12141577D01*
X1758653Y11903481D01*
X1806272Y11808243D01*
X1853891Y11760624D01*
X1949129Y11713005D01*
X2187224Y11713005D01*
X2282462Y11760624D01*
X2330081Y11808243D01*
X2377700Y11903481D01*
X2377700Y12141577D01*
X2330081Y12236815D01*
X2282462Y12284434D01*
X1472939Y27860924D02*
X1425320Y27813305D01*
X1377700Y27718067D01*
X1377700Y27479972D01*
X1425320Y27384734D01*
X1472939Y27337115D01*
X1568177Y27289496D01*
X1663415Y27289496D01*
X1806272Y27337115D01*
X2377700Y27908543D01*
X2377700Y27289496D01*
X1377700Y26670448D02*
X1377700Y26575210D01*
X1425320Y26479972D01*
X1472939Y26432353D01*
X1568177Y26384734D01*
X1758653Y26337115D01*
X1996748Y26337115D01*
X2187224Y26384734D01*
X2282462Y26432353D01*
X2330081Y26479972D01*
X2377700Y26575210D01*
X2377700Y26670448D01*
X2330081Y26765686D01*
X2282462Y26813305D01*
X2187224Y26860924D01*
X1996748Y26908543D01*
X1758653Y26908543D01*
X1568177Y26860924D01*
X1472939Y26813305D01*
X1425320Y26765686D01*
X1377700Y26670448D01*
X1278640Y37809463D02*
X1278640Y37190416D01*
X1659593Y37523749D01*
X1659593Y37380892D01*
X1707212Y37285654D01*
X1754831Y37238035D01*
X1850069Y37190416D01*
X2088164Y37190416D01*
X2183402Y37238035D01*
X2231021Y37285654D01*
X2278640Y37380892D01*
X2278640Y37666606D01*
X2231021Y37761844D01*
X2183402Y37809463D01*
X1278640Y36571368D02*
X1278640Y36476130D01*
X1326260Y36380892D01*
X1373879Y36333273D01*
X1469117Y36285654D01*
X1659593Y36238035D01*
X1897688Y36238035D01*
X2088164Y36285654D01*
X2183402Y36333273D01*
X2231021Y36380892D01*
X2278640Y36476130D01*
X2278640Y36571368D01*
X2231021Y36666606D01*
X2183402Y36714225D01*
X2088164Y36761844D01*
X1897688Y36809463D01*
X1659593Y36809463D01*
X1469117Y36761844D01*
X1373879Y36714225D01*
X1326260Y36666606D01*
X1278640Y36571368D01*
X1510374Y47285634D02*
X2177040Y47285634D01*
X1129421Y47523729D02*
X1843707Y47761824D01*
X1843707Y47142777D01*
X1177040Y46571348D02*
X1177040Y46476110D01*
X1224660Y46380872D01*
X1272279Y46333253D01*
X1367517Y46285634D01*
X1557993Y46238015D01*
X1796088Y46238015D01*
X1986564Y46285634D01*
X2081802Y46333253D01*
X2129421Y46380872D01*
X2177040Y46476110D01*
X2177040Y46571348D01*
X2129421Y46666586D01*
X2081802Y46714205D01*
X1986564Y46761824D01*
X1796088Y46809443D01*
X1557993Y46809443D01*
X1367517Y46761824D01*
X1272279Y46714205D01*
X1224660Y46666586D01*
X1177040Y46571348D01*
X1177040Y58571328D02*
X1177040Y59047519D01*
X1653231Y59095138D01*
X1605612Y59047519D01*
X1557993Y58952280D01*
X1557993Y58714185D01*
X1605612Y58618947D01*
X1653231Y58571328D01*
X1748469Y58523709D01*
X1986564Y58523709D01*
X2081802Y58571328D01*
X2129421Y58618947D01*
X2177040Y58714185D01*
X2177040Y58952280D01*
X2129421Y59047519D01*
X2081802Y59095138D01*
X1177040Y57904661D02*
X1177040Y57809423D01*
X1224660Y57714185D01*
X1272279Y57666566D01*
X1367517Y57618947D01*
X1557993Y57571328D01*
X1796088Y57571328D01*
X1986564Y57618947D01*
X2081802Y57666566D01*
X2129421Y57714185D01*
X2177040Y57809423D01*
X2177040Y57904661D01*
X2129421Y57999900D01*
X2081802Y58047519D01*
X1986564Y58095138D01*
X1796088Y58142757D01*
X1557993Y58142757D01*
X1367517Y58095138D01*
X1272279Y58047519D01*
X1224660Y57999900D01*
X1177040Y57904661D01*
X2177040Y57142757D02*
X1510374Y57142757D01*
X1605612Y57142757D02*
X1557993Y57095138D01*
X1510374Y56999900D01*
X1510374Y56857042D01*
X1557993Y56761804D01*
X1653231Y56714185D01*
X2177040Y56714185D01*
X1653231Y56714185D02*
X1557993Y56666566D01*
X1510374Y56571328D01*
X1510374Y56428471D01*
X1557993Y56333233D01*
X1653231Y56285614D01*
X2177040Y56285614D01*
X2177040Y55809423D02*
X1510374Y55809423D01*
X1605612Y55809423D02*
X1557993Y55761804D01*
X1510374Y55666566D01*
X1510374Y55523709D01*
X1557993Y55428471D01*
X1653231Y55380852D01*
X2177040Y55380852D01*
X1653231Y55380852D02*
X1557993Y55333233D01*
X1510374Y55237995D01*
X1510374Y55095138D01*
X1557993Y54999900D01*
X1653231Y54952280D01*
X2177040Y54952280D01*
M02*
