G04 #@! TF.GenerationSoftware,KiCad,Pcbnew,(5.1.5)-3*
G04 #@! TF.CreationDate,2019-12-21T19:25:36-08:00*
G04 #@! TF.ProjectId,mole-small-frame-A,6d6f6c65-2d73-46d6-916c-6c2d6672616d,rev?*
G04 #@! TF.SameCoordinates,Original*
G04 #@! TF.FileFunction,Soldermask,Bot*
G04 #@! TF.FilePolarity,Negative*
%FSLAX46Y46*%
G04 Gerber Fmt 4.6, Leading zero omitted, Abs format (unit mm)*
G04 Created by KiCad (PCBNEW (5.1.5)-3) date 2019-12-21 19:25:36*
%MOMM*%
%LPD*%
G04 APERTURE LIST*
%ADD10C,0.100000*%
G04 APERTURE END LIST*
D10*
G36*
X2802585Y4021198D02*
G01*
X2952410Y3991396D01*
X3234674Y3874479D01*
X3488705Y3704741D01*
X3704741Y3488705D01*
X3874479Y3234674D01*
X3991396Y2952410D01*
X4051000Y2652760D01*
X4051000Y2347240D01*
X3991396Y2047590D01*
X3874479Y1765326D01*
X3704741Y1511295D01*
X3488705Y1295259D01*
X3234674Y1125521D01*
X2952410Y1008604D01*
X2802585Y978802D01*
X2652761Y949000D01*
X2347239Y949000D01*
X2197415Y978802D01*
X2047590Y1008604D01*
X1765326Y1125521D01*
X1511295Y1295259D01*
X1295259Y1511295D01*
X1125521Y1765326D01*
X1008604Y2047590D01*
X949000Y2347240D01*
X949000Y2652760D01*
X1008604Y2952410D01*
X1125521Y3234674D01*
X1295259Y3488705D01*
X1511295Y3704741D01*
X1765326Y3874479D01*
X2047590Y3991396D01*
X2197415Y4021198D01*
X2347239Y4051000D01*
X2652761Y4051000D01*
X2802585Y4021198D01*
G37*
G36*
X2802585Y97021198D02*
G01*
X2952410Y96991396D01*
X3234674Y96874479D01*
X3488705Y96704741D01*
X3704741Y96488705D01*
X3874479Y96234674D01*
X3991396Y95952410D01*
X4051000Y95652760D01*
X4051000Y95347240D01*
X3991396Y95047590D01*
X3874479Y94765326D01*
X3704741Y94511295D01*
X3488705Y94295259D01*
X3234674Y94125521D01*
X2952410Y94008604D01*
X2802585Y93978802D01*
X2652761Y93949000D01*
X2347239Y93949000D01*
X2197415Y93978802D01*
X2047590Y94008604D01*
X1765326Y94125521D01*
X1511295Y94295259D01*
X1295259Y94511295D01*
X1125521Y94765326D01*
X1008604Y95047590D01*
X949000Y95347240D01*
X949000Y95652760D01*
X1008604Y95952410D01*
X1125521Y96234674D01*
X1295259Y96488705D01*
X1511295Y96704741D01*
X1765326Y96874479D01*
X2047590Y96991396D01*
X2197415Y97021198D01*
X2347239Y97051000D01*
X2652761Y97051000D01*
X2802585Y97021198D01*
G37*
M02*
