G04 #@! TF.GenerationSoftware,KiCad,Pcbnew,(5.1.4)-1*
G04 #@! TF.CreationDate,2019-09-21T21:16:59-07:00*
G04 #@! TF.ProjectId,rudd-small-frame-B,72756464-2d73-46d6-916c-6c2d6672616d,rev?*
G04 #@! TF.SameCoordinates,Original*
G04 #@! TF.FileFunction,Soldermask,Top*
G04 #@! TF.FilePolarity,Negative*
%FSLAX46Y46*%
G04 Gerber Fmt 4.6, Leading zero omitted, Abs format (unit mm)*
G04 Created by KiCad (PCBNEW (5.1.4)-1) date 2019-09-21 21:16:59*
%MOMM*%
%LPD*%
G04 APERTURE LIST*
%ADD10C,0.500000*%
%ADD11C,0.100000*%
G04 APERTURE END LIST*
D10*
X148909047Y-51762142D02*
X146409047Y-52962142D01*
X148909047Y-54162142D01*
X146409047Y-55362142D02*
X148909047Y-55362142D01*
X146409047Y-59133571D02*
X147599523Y-57933571D01*
X146409047Y-57076428D02*
X148909047Y-57076428D01*
X148909047Y-58447857D01*
X148790000Y-58790714D01*
X148670952Y-58962142D01*
X148432857Y-59133571D01*
X148075714Y-59133571D01*
X147837619Y-58962142D01*
X147718571Y-58790714D01*
X147599523Y-58447857D01*
X147599523Y-57076428D01*
X148909047Y-60162142D02*
X148909047Y-62219285D01*
X146409047Y-61190714D02*
X148909047Y-61190714D01*
X148909047Y-63419285D02*
X146885238Y-63419285D01*
X146647142Y-63590714D01*
X146528095Y-63762142D01*
X146409047Y-64105000D01*
X146409047Y-64790714D01*
X146528095Y-65133571D01*
X146647142Y-65305000D01*
X146885238Y-65476428D01*
X148909047Y-65476428D01*
X148909047Y-66676428D02*
X148909047Y-68733571D01*
X146409047Y-67705000D02*
X148909047Y-67705000D01*
X146409047Y-69933571D02*
X148909047Y-69933571D01*
X146528095Y-71476428D02*
X146409047Y-71990714D01*
X146409047Y-72847857D01*
X146528095Y-73190714D01*
X146647142Y-73362142D01*
X146885238Y-73533571D01*
X147123333Y-73533571D01*
X147361428Y-73362142D01*
X147480476Y-73190714D01*
X147599523Y-72847857D01*
X147718571Y-72162142D01*
X147837619Y-71819285D01*
X147956666Y-71647857D01*
X148194761Y-71476428D01*
X148432857Y-71476428D01*
X148670952Y-71647857D01*
X148790000Y-71819285D01*
X148909047Y-72162142D01*
X148909047Y-73019285D01*
X148790000Y-73533571D01*
X146409047Y-77819285D02*
X148909047Y-77819285D01*
X147123333Y-79019285D01*
X148909047Y-80219285D01*
X146409047Y-80219285D01*
X147123333Y-81762142D02*
X147123333Y-83476428D01*
X146409047Y-81419285D02*
X148909047Y-82619285D01*
X146409047Y-83819285D01*
X146409047Y-85019285D02*
X148909047Y-85019285D01*
X147123333Y-86219285D01*
X148909047Y-87419285D01*
X146409047Y-87419285D01*
X146409047Y-89133571D02*
X148909047Y-89133571D01*
X147123333Y-90333571D01*
X148909047Y-91533571D01*
X146409047Y-91533571D01*
X146409047Y-93247857D02*
X148909047Y-93247857D01*
X146409047Y-96676428D02*
X146409047Y-94962142D01*
X148909047Y-94962142D01*
X147123333Y-97705000D02*
X147123333Y-99419285D01*
X146409047Y-97362142D02*
X148909047Y-98562142D01*
X146409047Y-99762142D01*
X146528095Y-100790714D02*
X146409047Y-101305000D01*
X146409047Y-102162142D01*
X146528095Y-102505000D01*
X146647142Y-102676428D01*
X146885238Y-102847857D01*
X147123333Y-102847857D01*
X147361428Y-102676428D01*
X147480476Y-102505000D01*
X147599523Y-102162142D01*
X147718571Y-101476428D01*
X147837619Y-101133571D01*
X147956666Y-100962142D01*
X148194761Y-100790714D01*
X148432857Y-100790714D01*
X148670952Y-100962142D01*
X148790000Y-101133571D01*
X148909047Y-101476428D01*
X148909047Y-102333571D01*
X148790000Y-102847857D01*
X147718571Y-107133571D02*
X147718571Y-108333571D01*
X146409047Y-108847857D02*
X146409047Y-107133571D01*
X148909047Y-107133571D01*
X148909047Y-108847857D01*
X148909047Y-110047857D02*
X146409047Y-112447857D01*
X148909047Y-112447857D02*
X146409047Y-110047857D01*
X146528095Y-113647857D02*
X146409047Y-114162142D01*
X146409047Y-115019285D01*
X146528095Y-115362142D01*
X146647142Y-115533571D01*
X146885238Y-115705000D01*
X147123333Y-115705000D01*
X147361428Y-115533571D01*
X147480476Y-115362142D01*
X147599523Y-115019285D01*
X147718571Y-114333571D01*
X147837619Y-113990714D01*
X147956666Y-113819285D01*
X148194761Y-113647857D01*
X148432857Y-113647857D01*
X148670952Y-113819285D01*
X148790000Y-113990714D01*
X148909047Y-114333571D01*
X148909047Y-115190714D01*
X148790000Y-115705000D01*
X148909047Y-117247857D02*
X146885238Y-117247857D01*
X146647142Y-117419285D01*
X146528095Y-117590714D01*
X146409047Y-117933571D01*
X146409047Y-118619285D01*
X146528095Y-118962142D01*
X146647142Y-119133571D01*
X146885238Y-119305000D01*
X148909047Y-119305000D01*
X148790000Y-122905000D02*
X148909047Y-122562142D01*
X148909047Y-122047857D01*
X148790000Y-121533571D01*
X148551904Y-121190714D01*
X148313809Y-121019285D01*
X147837619Y-120847857D01*
X147480476Y-120847857D01*
X147004285Y-121019285D01*
X146766190Y-121190714D01*
X146528095Y-121533571D01*
X146409047Y-122047857D01*
X146409047Y-122390714D01*
X146528095Y-122905000D01*
X146647142Y-123076428D01*
X147480476Y-123076428D01*
X147480476Y-122390714D01*
X146409047Y-124619285D02*
X148909047Y-124619285D01*
X146409047Y-126333571D02*
X148909047Y-126333571D01*
X147123333Y-127533571D01*
X148909047Y-128733571D01*
X146409047Y-128733571D01*
X148909047Y-130447857D02*
X146885238Y-130447857D01*
X146647142Y-130619285D01*
X146528095Y-130790714D01*
X146409047Y-131133571D01*
X146409047Y-131819285D01*
X146528095Y-132162142D01*
X146647142Y-132333571D01*
X146885238Y-132505000D01*
X148909047Y-132505000D01*
X146528095Y-134047857D02*
X146409047Y-134562142D01*
X146409047Y-135419285D01*
X146528095Y-135762142D01*
X146647142Y-135933571D01*
X146885238Y-136105000D01*
X147123333Y-136105000D01*
X147361428Y-135933571D01*
X147480476Y-135762142D01*
X147599523Y-135419285D01*
X147718571Y-134733571D01*
X147837619Y-134390714D01*
X147956666Y-134219285D01*
X148194761Y-134047857D01*
X148432857Y-134047857D01*
X148670952Y-134219285D01*
X148790000Y-134390714D01*
X148909047Y-134733571D01*
X148909047Y-135590714D01*
X148790000Y-136105000D01*
D11*
G36*
X147802585Y-138978802D02*
G01*
X147952410Y-139008604D01*
X148234674Y-139125521D01*
X148488705Y-139295259D01*
X148704741Y-139511295D01*
X148874479Y-139765326D01*
X148991396Y-140047590D01*
X149051000Y-140347240D01*
X149051000Y-140652760D01*
X148991396Y-140952410D01*
X148874479Y-141234674D01*
X148704741Y-141488705D01*
X148488705Y-141704741D01*
X148234674Y-141874479D01*
X147952410Y-141991396D01*
X147802585Y-142021198D01*
X147652761Y-142051000D01*
X147347239Y-142051000D01*
X147197415Y-142021198D01*
X147047590Y-141991396D01*
X146765326Y-141874479D01*
X146511295Y-141704741D01*
X146295259Y-141488705D01*
X146125521Y-141234674D01*
X146008604Y-140952410D01*
X145949000Y-140652760D01*
X145949000Y-140347240D01*
X146008604Y-140047590D01*
X146125521Y-139765326D01*
X146295259Y-139511295D01*
X146511295Y-139295259D01*
X146765326Y-139125521D01*
X147047590Y-139008604D01*
X147197415Y-138978802D01*
X147347239Y-138949000D01*
X147652761Y-138949000D01*
X147802585Y-138978802D01*
X147802585Y-138978802D01*
G37*
G36*
X147802585Y-45978802D02*
G01*
X147952410Y-46008604D01*
X148234674Y-46125521D01*
X148488705Y-46295259D01*
X148704741Y-46511295D01*
X148874479Y-46765326D01*
X148991396Y-47047590D01*
X149051000Y-47347240D01*
X149051000Y-47652760D01*
X148991396Y-47952410D01*
X148874479Y-48234674D01*
X148704741Y-48488705D01*
X148488705Y-48704741D01*
X148234674Y-48874479D01*
X147952410Y-48991396D01*
X147802585Y-49021198D01*
X147652761Y-49051000D01*
X147347239Y-49051000D01*
X147197415Y-49021198D01*
X147047590Y-48991396D01*
X146765326Y-48874479D01*
X146511295Y-48704741D01*
X146295259Y-48488705D01*
X146125521Y-48234674D01*
X146008604Y-47952410D01*
X145949000Y-47652760D01*
X145949000Y-47347240D01*
X146008604Y-47047590D01*
X146125521Y-46765326D01*
X146295259Y-46511295D01*
X146511295Y-46295259D01*
X146765326Y-46125521D01*
X147047590Y-46008604D01*
X147197415Y-45978802D01*
X147347239Y-45949000D01*
X147652761Y-45949000D01*
X147802585Y-45978802D01*
X147802585Y-45978802D01*
G37*
M02*
