G04 #@! TF.GenerationSoftware,KiCad,Pcbnew,(5.1.4)-1*
G04 #@! TF.CreationDate,2019-09-21T21:16:59-07:00*
G04 #@! TF.ProjectId,rudd-small-frame-B,72756464-2d73-46d6-916c-6c2d6672616d,rev?*
G04 #@! TF.SameCoordinates,Original*
G04 #@! TF.FileFunction,Legend,Bot*
G04 #@! TF.FilePolarity,Positive*
%FSLAX46Y46*%
G04 Gerber Fmt 4.6, Leading zero omitted, Abs format (unit mm)*
G04 Created by KiCad (PCBNEW (5.1.4)-1) date 2019-09-21 21:16:59*
%MOMM*%
%LPD*%
G04 APERTURE LIST*
%ADD10C,0.500000*%
G04 APERTURE END LIST*
D10*
X148869047Y-136447857D02*
X146369047Y-135247857D01*
X148869047Y-134047857D01*
X146369047Y-132847857D02*
X148869047Y-132847857D01*
X146369047Y-129076428D02*
X147559523Y-130276428D01*
X146369047Y-131133571D02*
X148869047Y-131133571D01*
X148869047Y-129762142D01*
X148750000Y-129419285D01*
X148630952Y-129247857D01*
X148392857Y-129076428D01*
X148035714Y-129076428D01*
X147797619Y-129247857D01*
X147678571Y-129419285D01*
X147559523Y-129762142D01*
X147559523Y-131133571D01*
X148869047Y-128047857D02*
X148869047Y-125990714D01*
X146369047Y-127019285D02*
X148869047Y-127019285D01*
X148869047Y-124790714D02*
X146845238Y-124790714D01*
X146607142Y-124619285D01*
X146488095Y-124447857D01*
X146369047Y-124105000D01*
X146369047Y-123419285D01*
X146488095Y-123076428D01*
X146607142Y-122905000D01*
X146845238Y-122733571D01*
X148869047Y-122733571D01*
X148869047Y-121533571D02*
X148869047Y-119476428D01*
X146369047Y-120505000D02*
X148869047Y-120505000D01*
X146369047Y-118276428D02*
X148869047Y-118276428D01*
X146488095Y-116733571D02*
X146369047Y-116219285D01*
X146369047Y-115362142D01*
X146488095Y-115019285D01*
X146607142Y-114847857D01*
X146845238Y-114676428D01*
X147083333Y-114676428D01*
X147321428Y-114847857D01*
X147440476Y-115019285D01*
X147559523Y-115362142D01*
X147678571Y-116047857D01*
X147797619Y-116390714D01*
X147916666Y-116562142D01*
X148154761Y-116733571D01*
X148392857Y-116733571D01*
X148630952Y-116562142D01*
X148750000Y-116390714D01*
X148869047Y-116047857D01*
X148869047Y-115190714D01*
X148750000Y-114676428D01*
X146369047Y-110390714D02*
X148869047Y-110390714D01*
X147083333Y-109190714D01*
X148869047Y-107990714D01*
X146369047Y-107990714D01*
X147083333Y-106447857D02*
X147083333Y-104733571D01*
X146369047Y-106790714D02*
X148869047Y-105590714D01*
X146369047Y-104390714D01*
X146369047Y-103190714D02*
X148869047Y-103190714D01*
X147083333Y-101990714D01*
X148869047Y-100790714D01*
X146369047Y-100790714D01*
X146369047Y-99076428D02*
X148869047Y-99076428D01*
X147083333Y-97876428D01*
X148869047Y-96676428D01*
X146369047Y-96676428D01*
X146369047Y-94962142D02*
X148869047Y-94962142D01*
X146369047Y-91533571D02*
X146369047Y-93247857D01*
X148869047Y-93247857D01*
X147083333Y-90505000D02*
X147083333Y-88790714D01*
X146369047Y-90847857D02*
X148869047Y-89647857D01*
X146369047Y-88447857D01*
X146488095Y-87419285D02*
X146369047Y-86905000D01*
X146369047Y-86047857D01*
X146488095Y-85705000D01*
X146607142Y-85533571D01*
X146845238Y-85362142D01*
X147083333Y-85362142D01*
X147321428Y-85533571D01*
X147440476Y-85705000D01*
X147559523Y-86047857D01*
X147678571Y-86733571D01*
X147797619Y-87076428D01*
X147916666Y-87247857D01*
X148154761Y-87419285D01*
X148392857Y-87419285D01*
X148630952Y-87247857D01*
X148750000Y-87076428D01*
X148869047Y-86733571D01*
X148869047Y-85876428D01*
X148750000Y-85362142D01*
X147678571Y-81076428D02*
X147678571Y-79876428D01*
X146369047Y-79362142D02*
X146369047Y-81076428D01*
X148869047Y-81076428D01*
X148869047Y-79362142D01*
X148869047Y-78162142D02*
X146369047Y-75762142D01*
X148869047Y-75762142D02*
X146369047Y-78162142D01*
X146488095Y-74562142D02*
X146369047Y-74047857D01*
X146369047Y-73190714D01*
X146488095Y-72847857D01*
X146607142Y-72676428D01*
X146845238Y-72504999D01*
X147083333Y-72504999D01*
X147321428Y-72676428D01*
X147440476Y-72847857D01*
X147559523Y-73190714D01*
X147678571Y-73876428D01*
X147797619Y-74219285D01*
X147916666Y-74390714D01*
X148154761Y-74562142D01*
X148392857Y-74562142D01*
X148630952Y-74390714D01*
X148750000Y-74219285D01*
X148869047Y-73876428D01*
X148869047Y-73019285D01*
X148750000Y-72504999D01*
X148869047Y-70962142D02*
X146845238Y-70962142D01*
X146607142Y-70790714D01*
X146488095Y-70619285D01*
X146369047Y-70276428D01*
X146369047Y-69590714D01*
X146488095Y-69247857D01*
X146607142Y-69076428D01*
X146845238Y-68904999D01*
X148869047Y-68904999D01*
X148750000Y-65304999D02*
X148869047Y-65647857D01*
X148869047Y-66162142D01*
X148750000Y-66676428D01*
X148511904Y-67019285D01*
X148273809Y-67190714D01*
X147797619Y-67362142D01*
X147440476Y-67362142D01*
X146964285Y-67190714D01*
X146726190Y-67019285D01*
X146488095Y-66676428D01*
X146369047Y-66162142D01*
X146369047Y-65819285D01*
X146488095Y-65304999D01*
X146607142Y-65133571D01*
X147440476Y-65133571D01*
X147440476Y-65819285D01*
X146369047Y-63590714D02*
X148869047Y-63590714D01*
X146369047Y-61876428D02*
X148869047Y-61876428D01*
X147083333Y-60676428D01*
X148869047Y-59476428D01*
X146369047Y-59476428D01*
X148869047Y-57762142D02*
X146845238Y-57762142D01*
X146607142Y-57590714D01*
X146488095Y-57419285D01*
X146369047Y-57076428D01*
X146369047Y-56390714D01*
X146488095Y-56047857D01*
X146607142Y-55876428D01*
X146845238Y-55704999D01*
X148869047Y-55704999D01*
X146488095Y-54162142D02*
X146369047Y-53647857D01*
X146369047Y-52790714D01*
X146488095Y-52447857D01*
X146607142Y-52276428D01*
X146845238Y-52104999D01*
X147083333Y-52104999D01*
X147321428Y-52276428D01*
X147440476Y-52447857D01*
X147559523Y-52790714D01*
X147678571Y-53476428D01*
X147797619Y-53819285D01*
X147916666Y-53990714D01*
X148154761Y-54162142D01*
X148392857Y-54162142D01*
X148630952Y-53990714D01*
X148750000Y-53819285D01*
X148869047Y-53476428D01*
X148869047Y-52619285D01*
X148750000Y-52104999D01*
M02*
