%MOIN*%
%OFA0B0*%
%FSLAX46Y46*%
%IPPOS*%
%LPD*%
%ADD10C,0.22047244094488189*%
%ADD11C,0.01*%
%ADD22C,0.11811023622047245*%
%ADD23C,0.01*%
%ADD24C,0.22047244094488189*%
%ADD25C,0.01*%
%ADD26C,0.22047244094488189*%
%ADD27C,0.01*%
%ADD28C,0.22047244094488189*%
%ADD29C,0.01*%
%ADD30C,0.11811023622047245*%
%ADD31C,0.01*%
D10*
X0000314960Y0000118110D02*
X0001064960Y0001758110D03*
D11*
G36*
X0001098212Y0001587340D02*
G01*
X0001131393Y0001585037D01*
X0001164433Y0001581204D01*
X0001197260Y0001575849D01*
X0001229804Y0001568984D01*
X0001261998Y0001560623D01*
X0001293769Y0001550784D01*
X0001325053Y0001539489D01*
X0001355783Y0001526760D01*
X0001385891Y0001512626D01*
X0001415315Y0001497117D01*
X0001443991Y0001480265D01*
X0001471857Y0001462107D01*
X0001498856Y0001442681D01*
X0001524929Y0001422029D01*
X0001550020Y0001400195D01*
X0001574076Y0001377226D01*
X0001597046Y0001353170D01*
X0001618880Y0001328078D01*
X0001639531Y0001302006D01*
X0001658957Y0001275007D01*
X0001677115Y0001247141D01*
X0001693967Y0001218465D01*
X0001709477Y0001189041D01*
X0001723610Y0001158932D01*
X0001736339Y0001128203D01*
X0001747635Y0001096919D01*
X0001757473Y0001065147D01*
X0001765834Y0001032953D01*
X0001772700Y0001000409D01*
X0001778054Y0000967583D01*
X0001781887Y0000934543D01*
X0001784191Y0000901362D01*
X0001784959Y0000868110D01*
X0001784191Y0000834858D01*
X0001781887Y0000801677D01*
X0001778054Y0000768637D01*
X0001772700Y0000735810D01*
X0001765834Y0000703266D01*
X0001757473Y0000671072D01*
X0001747635Y0000639301D01*
X0001736339Y0000608017D01*
X0001723610Y0000577287D01*
X0001709477Y0000547179D01*
X0001693967Y0000517755D01*
X0001677115Y0000489079D01*
X0001658957Y0000461213D01*
X0001639531Y0000434213D01*
X0001618880Y0000408141D01*
X0001597046Y0000383050D01*
X0001574076Y0000358994D01*
X0001550020Y0000336024D01*
X0001524929Y0000314190D01*
X0001498856Y0000293539D01*
X0001471857Y0000274112D01*
X0001443991Y0000255955D01*
X0001415315Y0000239103D01*
X0001385891Y0000223593D01*
X0001355783Y0000209459D01*
X0001325053Y0000196731D01*
X0001293769Y0000185435D01*
X0001261998Y0000175597D01*
X0001229804Y0000167236D01*
X0001197260Y0000160370D01*
X0001164433Y0000155016D01*
X0001131393Y0000151182D01*
X0001098212Y0000148879D01*
X0001064960Y0000148111D01*
X0001031708Y0000148879D01*
X0000998527Y0000151182D01*
X0000965487Y0000155016D01*
X0000932661Y0000160370D01*
X0000900116Y0000167236D01*
X0000867923Y0000175597D01*
X0000836151Y0000185435D01*
X0000804867Y0000196731D01*
X0000774137Y0000209459D01*
X0000744029Y0000223593D01*
X0000714605Y0000239103D01*
X0000685929Y0000255955D01*
X0000658063Y0000274112D01*
X0000631064Y0000293539D01*
X0000604991Y0000314190D01*
X0000579900Y0000336024D01*
X0000555844Y0000358994D01*
X0000532875Y0000383050D01*
X0000511041Y0000408141D01*
X0000490389Y0000434213D01*
X0000470963Y0000461213D01*
X0000452805Y0000489079D01*
X0000435953Y0000517755D01*
X0000420444Y0000547179D01*
X0000406310Y0000577287D01*
X0000393581Y0000608017D01*
X0000382286Y0000639301D01*
X0000372447Y0000671072D01*
X0000364086Y0000703266D01*
X0000357221Y0000735810D01*
X0000351866Y0000768637D01*
X0000348033Y0000801677D01*
X0000345730Y0000834858D01*
X0000344961Y0000868110D01*
X0000345730Y0000901362D01*
X0000348033Y0000934543D01*
X0000351866Y0000967583D01*
X0000357221Y0001000409D01*
X0000364086Y0001032953D01*
X0000372447Y0001065147D01*
X0000382286Y0001096919D01*
X0000393581Y0001128203D01*
X0000406310Y0001158932D01*
X0000420444Y0001189041D01*
X0000435953Y0001218465D01*
X0000452805Y0001247141D01*
X0000470963Y0001275007D01*
X0000490389Y0001302006D01*
X0000511041Y0001328078D01*
X0000532875Y0001353170D01*
X0000555844Y0001377226D01*
X0000579900Y0001400195D01*
X0000604991Y0001422029D01*
X0000631064Y0001442681D01*
X0000658063Y0001462107D01*
X0000685929Y0001480265D01*
X0000714605Y0001497117D01*
X0000744029Y0001512626D01*
X0000774137Y0001526760D01*
X0000804867Y0001539489D01*
X0000836151Y0001550784D01*
X0000867923Y0001560623D01*
X0000900116Y0001568984D01*
X0000932661Y0001575849D01*
X0000965487Y0001581204D01*
X0000998527Y0001585037D01*
X0001031708Y0001587340D01*
X0001064960Y0001588108D01*
X0001098212Y0001587340D01*
G37*
X0001098212Y0001587340D02*
X0001131393Y0001585037D01*
X0001164433Y0001581204D01*
X0001197260Y0001575849D01*
X0001229804Y0001568984D01*
X0001261998Y0001560623D01*
X0001293769Y0001550784D01*
X0001325053Y0001539489D01*
X0001355783Y0001526760D01*
X0001385891Y0001512626D01*
X0001415315Y0001497117D01*
X0001443991Y0001480265D01*
X0001471857Y0001462107D01*
X0001498856Y0001442681D01*
X0001524929Y0001422029D01*
X0001550020Y0001400195D01*
X0001574076Y0001377226D01*
X0001597046Y0001353170D01*
X0001618880Y0001328078D01*
X0001639531Y0001302006D01*
X0001658957Y0001275007D01*
X0001677115Y0001247141D01*
X0001693967Y0001218465D01*
X0001709477Y0001189041D01*
X0001723610Y0001158932D01*
X0001736339Y0001128203D01*
X0001747635Y0001096919D01*
X0001757473Y0001065147D01*
X0001765834Y0001032953D01*
X0001772700Y0001000409D01*
X0001778054Y0000967583D01*
X0001781887Y0000934543D01*
X0001784191Y0000901362D01*
X0001784959Y0000868110D01*
X0001784191Y0000834858D01*
X0001781887Y0000801677D01*
X0001778054Y0000768637D01*
X0001772700Y0000735810D01*
X0001765834Y0000703266D01*
X0001757473Y0000671072D01*
X0001747635Y0000639301D01*
X0001736339Y0000608017D01*
X0001723610Y0000577287D01*
X0001709477Y0000547179D01*
X0001693967Y0000517755D01*
X0001677115Y0000489079D01*
X0001658957Y0000461213D01*
X0001639531Y0000434213D01*
X0001618880Y0000408141D01*
X0001597046Y0000383050D01*
X0001574076Y0000358994D01*
X0001550020Y0000336024D01*
X0001524929Y0000314190D01*
X0001498856Y0000293539D01*
X0001471857Y0000274112D01*
X0001443991Y0000255955D01*
X0001415315Y0000239103D01*
X0001385891Y0000223593D01*
X0001355783Y0000209459D01*
X0001325053Y0000196731D01*
X0001293769Y0000185435D01*
X0001261998Y0000175597D01*
X0001229804Y0000167236D01*
X0001197260Y0000160370D01*
X0001164433Y0000155016D01*
X0001131393Y0000151182D01*
X0001098212Y0000148879D01*
X0001064960Y0000148111D01*
X0001031708Y0000148879D01*
X0000998527Y0000151182D01*
X0000965487Y0000155016D01*
X0000932661Y0000160370D01*
X0000900116Y0000167236D01*
X0000867923Y0000175597D01*
X0000836151Y0000185435D01*
X0000804867Y0000196731D01*
X0000774137Y0000209459D01*
X0000744029Y0000223593D01*
X0000714605Y0000239103D01*
X0000685929Y0000255955D01*
X0000658063Y0000274112D01*
X0000631064Y0000293539D01*
X0000604991Y0000314190D01*
X0000579900Y0000336024D01*
X0000555844Y0000358994D01*
X0000532875Y0000383050D01*
X0000511041Y0000408141D01*
X0000490389Y0000434213D01*
X0000470963Y0000461213D01*
X0000452805Y0000489079D01*
X0000435953Y0000517755D01*
X0000420444Y0000547179D01*
X0000406310Y0000577287D01*
X0000393581Y0000608017D01*
X0000382286Y0000639301D01*
X0000372447Y0000671072D01*
X0000364086Y0000703266D01*
X0000357221Y0000735810D01*
X0000351866Y0000768637D01*
X0000348033Y0000801677D01*
X0000345730Y0000834858D01*
X0000344961Y0000868110D01*
X0000345730Y0000901362D01*
X0000348033Y0000934543D01*
X0000351866Y0000967583D01*
X0000357221Y0001000409D01*
X0000364086Y0001032953D01*
X0000372447Y0001065147D01*
X0000382286Y0001096919D01*
X0000393581Y0001128203D01*
X0000406310Y0001158932D01*
X0000420444Y0001189041D01*
X0000435953Y0001218465D01*
X0000452805Y0001247141D01*
X0000470963Y0001275007D01*
X0000490389Y0001302006D01*
X0000511041Y0001328078D01*
X0000532875Y0001353170D01*
X0000555844Y0001377226D01*
X0000579900Y0001400195D01*
X0000604991Y0001422029D01*
X0000631064Y0001442681D01*
X0000658063Y0001462107D01*
X0000685929Y0001480265D01*
X0000714605Y0001497117D01*
X0000744029Y0001512626D01*
X0000774137Y0001526760D01*
X0000804867Y0001539489D01*
X0000836151Y0001550784D01*
X0000867923Y0001560623D01*
X0000900116Y0001568984D01*
X0000932661Y0001575849D01*
X0000965487Y0001581204D01*
X0000998527Y0001585037D01*
X0001031708Y0001587340D01*
X0001064960Y0001588108D01*
X0001098212Y0001587340D01*
G04 next file*
G04 #@! TF.GenerationSoftware,KiCad,Pcbnew,(5.1.5)-3*
G04 #@! TF.CreationDate,2019-12-21T19:25:36-08:00*
G04 #@! TF.ProjectId,mole-small-frame-A,6d6f6c65-2d73-46d6-916c-6c2d6672616d,rev?*
G04 #@! TF.SameCoordinates,Original*
G04 #@! TF.FileFunction,Copper,L1,Top*
G04 #@! TF.FilePolarity,Positive*
G04 Gerber Fmt 4.6, Leading zero omitted, Abs format (unit mm)*
G04 Created by KiCad (PCBNEW (5.1.5)-3) date 2019-12-21 19:25:36*
G04 APERTURE LIST*
G04 APERTURE END LIST*
D22*
X0000039370Y0000039370D02*
X0000137795Y0000137795D03*
X0000137795Y0003799212D03*
D23*
G36*
X0000072505Y0000084213D02*
G01*
X0000084213Y0000072505D01*
X0000094915Y0000065354D01*
X0000065354Y0000065354D01*
X0000065354Y0000094915D01*
X0000072505Y0000084213D01*
G37*
X0000072505Y0000084213D02*
X0000084213Y0000072505D01*
X0000094915Y0000065354D01*
X0000065354Y0000065354D01*
X0000065354Y0000094915D01*
X0000072505Y0000084213D01*
G36*
X0000210236Y0000065354D02*
G01*
X0000180674Y0000065354D01*
X0000191377Y0000072505D01*
X0000203085Y0000084213D01*
X0000210236Y0000094915D01*
X0000210236Y0000065354D01*
G37*
X0000210236Y0000065354D02*
X0000180674Y0000065354D01*
X0000191377Y0000072505D01*
X0000203085Y0000084213D01*
X0000210236Y0000094915D01*
X0000210236Y0000065354D01*
G36*
X0000210236Y0000180674D02*
G01*
X0000203085Y0000191377D01*
X0000191377Y0000203085D01*
X0000177610Y0000212283D01*
X0000162313Y0000218620D01*
X0000146073Y0000221850D01*
X0000129516Y0000221850D01*
X0000113277Y0000218620D01*
X0000097980Y0000212283D01*
X0000084213Y0000203085D01*
X0000072505Y0000191377D01*
X0000065354Y0000180674D01*
X0000065354Y0003756332D01*
X0000072505Y0003745630D01*
X0000084213Y0003733922D01*
X0000097980Y0003724723D01*
X0000113277Y0003718387D01*
X0000129516Y0003715157D01*
X0000146073Y0003715157D01*
X0000162313Y0003718387D01*
X0000177610Y0003724723D01*
X0000191377Y0003733922D01*
X0000203085Y0003745630D01*
X0000210236Y0003756332D01*
X0000210236Y0000180674D01*
G37*
X0000210236Y0000180674D02*
X0000203085Y0000191377D01*
X0000191377Y0000203085D01*
X0000177610Y0000212283D01*
X0000162313Y0000218620D01*
X0000146073Y0000221850D01*
X0000129516Y0000221850D01*
X0000113277Y0000218620D01*
X0000097980Y0000212283D01*
X0000084213Y0000203085D01*
X0000072505Y0000191377D01*
X0000065354Y0000180674D01*
X0000065354Y0003756332D01*
X0000072505Y0003745630D01*
X0000084213Y0003733922D01*
X0000097980Y0003724723D01*
X0000113277Y0003718387D01*
X0000129516Y0003715157D01*
X0000146073Y0003715157D01*
X0000162313Y0003718387D01*
X0000177610Y0003724723D01*
X0000191377Y0003733922D01*
X0000203085Y0003745630D01*
X0000210236Y0003756332D01*
X0000210236Y0000180674D01*
G36*
X0000084213Y0003864502D02*
G01*
X0000072505Y0003852794D01*
X0000065354Y0003842092D01*
X0000065354Y0003871653D01*
X0000094915Y0003871653D01*
X0000084213Y0003864502D01*
G37*
X0000084213Y0003864502D02*
X0000072505Y0003852794D01*
X0000065354Y0003842092D01*
X0000065354Y0003871653D01*
X0000094915Y0003871653D01*
X0000084213Y0003864502D01*
G36*
X0000210236Y0003842092D02*
G01*
X0000203085Y0003852794D01*
X0000191377Y0003864502D01*
X0000180674Y0003871653D01*
X0000210236Y0003871653D01*
X0000210236Y0003842092D01*
G37*
X0000210236Y0003842092D02*
X0000203085Y0003852794D01*
X0000191377Y0003864502D01*
X0000180674Y0003871653D01*
X0000210236Y0003871653D01*
X0000210236Y0003842092D01*
G04 next file*
G04 #@! TF.GenerationSoftware,KiCad,Pcbnew,(5.1.5)-3*
G04 #@! TF.CreationDate,2019-12-21T18:44:43-08:00*
G04 #@! TF.ProjectId,mole_keychain,6d6f6c65-5f6b-4657-9963-6861696e2e6b,A*
G04 #@! TF.SameCoordinates,Original*
G04 #@! TF.FileFunction,Copper,L1,Top*
G04 #@! TF.FilePolarity,Positive*
G04 Gerber Fmt 4.6, Leading zero omitted, Abs format (unit mm)*
G04 Created by KiCad (PCBNEW (5.1.5)-3) date 2019-12-21 18:44:43*
G04 APERTURE LIST*
G04 APERTURE END LIST*
D24*
X0000314960Y0002007874D02*
X0001064960Y0003647874D03*
D25*
G36*
X0001098212Y0003477104D02*
G01*
X0001131393Y0003474801D01*
X0001164433Y0003470968D01*
X0001197260Y0003465613D01*
X0001229804Y0003458748D01*
X0001261998Y0003450387D01*
X0001293769Y0003440548D01*
X0001325053Y0003429252D01*
X0001355783Y0003416524D01*
X0001385891Y0003402390D01*
X0001415315Y0003386880D01*
X0001443991Y0003370029D01*
X0001471857Y0003351871D01*
X0001498856Y0003332445D01*
X0001524929Y0003311793D01*
X0001550020Y0003289959D01*
X0001574076Y0003266989D01*
X0001597046Y0003242934D01*
X0001618880Y0003217842D01*
X0001639531Y0003191770D01*
X0001658957Y0003164771D01*
X0001677115Y0003136904D01*
X0001693967Y0003108228D01*
X0001709477Y0003078804D01*
X0001723610Y0003048696D01*
X0001736339Y0003017967D01*
X0001747635Y0002986683D01*
X0001757473Y0002954911D01*
X0001765834Y0002922717D01*
X0001772700Y0002890173D01*
X0001778054Y0002857346D01*
X0001781887Y0002824306D01*
X0001784191Y0002791126D01*
X0001784959Y0002757874D01*
X0001784191Y0002724621D01*
X0001781887Y0002691441D01*
X0001778054Y0002658401D01*
X0001772700Y0002625574D01*
X0001765834Y0002593030D01*
X0001757473Y0002560836D01*
X0001747635Y0002529065D01*
X0001736339Y0002497780D01*
X0001723610Y0002467051D01*
X0001709477Y0002436943D01*
X0001693967Y0002407519D01*
X0001677115Y0002378843D01*
X0001658957Y0002350976D01*
X0001639531Y0002323977D01*
X0001618880Y0002297905D01*
X0001597046Y0002272814D01*
X0001574076Y0002248758D01*
X0001550020Y0002225788D01*
X0001524929Y0002203954D01*
X0001498856Y0002183302D01*
X0001471857Y0002163876D01*
X0001443991Y0002145719D01*
X0001415315Y0002128867D01*
X0001385891Y0002113357D01*
X0001355783Y0002099223D01*
X0001325053Y0002086495D01*
X0001293769Y0002075199D01*
X0001261998Y0002065360D01*
X0001229804Y0002056999D01*
X0001197260Y0002050134D01*
X0001164433Y0002044779D01*
X0001131393Y0002040946D01*
X0001098212Y0002038643D01*
X0001064960Y0002037875D01*
X0001031708Y0002038643D01*
X0000998527Y0002040946D01*
X0000965487Y0002044779D01*
X0000932661Y0002050134D01*
X0000900116Y0002056999D01*
X0000867923Y0002065360D01*
X0000836151Y0002075199D01*
X0000804867Y0002086495D01*
X0000774137Y0002099223D01*
X0000744029Y0002113357D01*
X0000714605Y0002128867D01*
X0000685929Y0002145719D01*
X0000658063Y0002163876D01*
X0000631064Y0002183302D01*
X0000604991Y0002203954D01*
X0000579900Y0002225788D01*
X0000555844Y0002248758D01*
X0000532875Y0002272814D01*
X0000511041Y0002297905D01*
X0000490389Y0002323977D01*
X0000470963Y0002350976D01*
X0000452805Y0002378843D01*
X0000435953Y0002407519D01*
X0000420444Y0002436943D01*
X0000406310Y0002467051D01*
X0000393581Y0002497780D01*
X0000382286Y0002529065D01*
X0000372447Y0002560836D01*
X0000364086Y0002593030D01*
X0000357221Y0002625574D01*
X0000351866Y0002658401D01*
X0000348033Y0002691441D01*
X0000345730Y0002724621D01*
X0000344961Y0002757874D01*
X0000345730Y0002791126D01*
X0000348033Y0002824306D01*
X0000351866Y0002857346D01*
X0000357221Y0002890173D01*
X0000364086Y0002922717D01*
X0000372447Y0002954911D01*
X0000382286Y0002986683D01*
X0000393581Y0003017967D01*
X0000406310Y0003048696D01*
X0000420444Y0003078804D01*
X0000435953Y0003108228D01*
X0000452805Y0003136904D01*
X0000470963Y0003164771D01*
X0000490389Y0003191770D01*
X0000511041Y0003217842D01*
X0000532875Y0003242934D01*
X0000555844Y0003266989D01*
X0000579900Y0003289959D01*
X0000604991Y0003311793D01*
X0000631064Y0003332445D01*
X0000658063Y0003351871D01*
X0000685929Y0003370029D01*
X0000714605Y0003386880D01*
X0000744029Y0003402390D01*
X0000774137Y0003416524D01*
X0000804867Y0003429252D01*
X0000836151Y0003440548D01*
X0000867923Y0003450387D01*
X0000900116Y0003458748D01*
X0000932661Y0003465613D01*
X0000965487Y0003470968D01*
X0000998527Y0003474801D01*
X0001031708Y0003477104D01*
X0001064960Y0003477872D01*
X0001098212Y0003477104D01*
G37*
X0001098212Y0003477104D02*
X0001131393Y0003474801D01*
X0001164433Y0003470968D01*
X0001197260Y0003465613D01*
X0001229804Y0003458748D01*
X0001261998Y0003450387D01*
X0001293769Y0003440548D01*
X0001325053Y0003429252D01*
X0001355783Y0003416524D01*
X0001385891Y0003402390D01*
X0001415315Y0003386880D01*
X0001443991Y0003370029D01*
X0001471857Y0003351871D01*
X0001498856Y0003332445D01*
X0001524929Y0003311793D01*
X0001550020Y0003289959D01*
X0001574076Y0003266989D01*
X0001597046Y0003242934D01*
X0001618880Y0003217842D01*
X0001639531Y0003191770D01*
X0001658957Y0003164771D01*
X0001677115Y0003136904D01*
X0001693967Y0003108228D01*
X0001709477Y0003078804D01*
X0001723610Y0003048696D01*
X0001736339Y0003017967D01*
X0001747635Y0002986683D01*
X0001757473Y0002954911D01*
X0001765834Y0002922717D01*
X0001772700Y0002890173D01*
X0001778054Y0002857346D01*
X0001781887Y0002824306D01*
X0001784191Y0002791126D01*
X0001784959Y0002757874D01*
X0001784191Y0002724621D01*
X0001781887Y0002691441D01*
X0001778054Y0002658401D01*
X0001772700Y0002625574D01*
X0001765834Y0002593030D01*
X0001757473Y0002560836D01*
X0001747635Y0002529065D01*
X0001736339Y0002497780D01*
X0001723610Y0002467051D01*
X0001709477Y0002436943D01*
X0001693967Y0002407519D01*
X0001677115Y0002378843D01*
X0001658957Y0002350976D01*
X0001639531Y0002323977D01*
X0001618880Y0002297905D01*
X0001597046Y0002272814D01*
X0001574076Y0002248758D01*
X0001550020Y0002225788D01*
X0001524929Y0002203954D01*
X0001498856Y0002183302D01*
X0001471857Y0002163876D01*
X0001443991Y0002145719D01*
X0001415315Y0002128867D01*
X0001385891Y0002113357D01*
X0001355783Y0002099223D01*
X0001325053Y0002086495D01*
X0001293769Y0002075199D01*
X0001261998Y0002065360D01*
X0001229804Y0002056999D01*
X0001197260Y0002050134D01*
X0001164433Y0002044779D01*
X0001131393Y0002040946D01*
X0001098212Y0002038643D01*
X0001064960Y0002037875D01*
X0001031708Y0002038643D01*
X0000998527Y0002040946D01*
X0000965487Y0002044779D01*
X0000932661Y0002050134D01*
X0000900116Y0002056999D01*
X0000867923Y0002065360D01*
X0000836151Y0002075199D01*
X0000804867Y0002086495D01*
X0000774137Y0002099223D01*
X0000744029Y0002113357D01*
X0000714605Y0002128867D01*
X0000685929Y0002145719D01*
X0000658063Y0002163876D01*
X0000631064Y0002183302D01*
X0000604991Y0002203954D01*
X0000579900Y0002225788D01*
X0000555844Y0002248758D01*
X0000532875Y0002272814D01*
X0000511041Y0002297905D01*
X0000490389Y0002323977D01*
X0000470963Y0002350976D01*
X0000452805Y0002378843D01*
X0000435953Y0002407519D01*
X0000420444Y0002436943D01*
X0000406310Y0002467051D01*
X0000393581Y0002497780D01*
X0000382286Y0002529065D01*
X0000372447Y0002560836D01*
X0000364086Y0002593030D01*
X0000357221Y0002625574D01*
X0000351866Y0002658401D01*
X0000348033Y0002691441D01*
X0000345730Y0002724621D01*
X0000344961Y0002757874D01*
X0000345730Y0002791126D01*
X0000348033Y0002824306D01*
X0000351866Y0002857346D01*
X0000357221Y0002890173D01*
X0000364086Y0002922717D01*
X0000372447Y0002954911D01*
X0000382286Y0002986683D01*
X0000393581Y0003017967D01*
X0000406310Y0003048696D01*
X0000420444Y0003078804D01*
X0000435953Y0003108228D01*
X0000452805Y0003136904D01*
X0000470963Y0003164771D01*
X0000490389Y0003191770D01*
X0000511041Y0003217842D01*
X0000532875Y0003242934D01*
X0000555844Y0003266989D01*
X0000579900Y0003289959D01*
X0000604991Y0003311793D01*
X0000631064Y0003332445D01*
X0000658063Y0003351871D01*
X0000685929Y0003370029D01*
X0000714605Y0003386880D01*
X0000744029Y0003402390D01*
X0000774137Y0003416524D01*
X0000804867Y0003429252D01*
X0000836151Y0003440548D01*
X0000867923Y0003450387D01*
X0000900116Y0003458748D01*
X0000932661Y0003465613D01*
X0000965487Y0003470968D01*
X0000998527Y0003474801D01*
X0001031708Y0003477104D01*
X0001064960Y0003477872D01*
X0001098212Y0003477104D01*
G04 next file*
G04 #@! TF.GenerationSoftware,KiCad,Pcbnew,(5.1.5)-3*
G04 #@! TF.CreationDate,2019-12-21T18:44:43-08:00*
G04 #@! TF.ProjectId,mole_keychain,6d6f6c65-5f6b-4657-9963-6861696e2e6b,A*
G04 #@! TF.SameCoordinates,Original*
G04 #@! TF.FileFunction,Copper,L1,Top*
G04 #@! TF.FilePolarity,Positive*
G04 Gerber Fmt 4.6, Leading zero omitted, Abs format (unit mm)*
G04 Created by KiCad (PCBNEW (5.1.5)-3) date 2019-12-21 18:44:43*
G04 APERTURE LIST*
G04 APERTURE END LIST*
D26*
X0001889763Y0002007874D02*
X0002639763Y0003647874D03*
D27*
G36*
X0002673015Y0003477104D02*
G01*
X0002706196Y0003474801D01*
X0002739236Y0003470968D01*
X0002772063Y0003465613D01*
X0002804607Y0003458748D01*
X0002836801Y0003450387D01*
X0002868572Y0003440548D01*
X0002899856Y0003429252D01*
X0002930586Y0003416524D01*
X0002960694Y0003402390D01*
X0002990118Y0003386880D01*
X0003018794Y0003370029D01*
X0003046660Y0003351871D01*
X0003073660Y0003332445D01*
X0003099732Y0003311793D01*
X0003124823Y0003289959D01*
X0003148879Y0003266989D01*
X0003171849Y0003242934D01*
X0003193683Y0003217842D01*
X0003214335Y0003191770D01*
X0003233761Y0003164771D01*
X0003251918Y0003136904D01*
X0003268770Y0003108228D01*
X0003284280Y0003078804D01*
X0003298414Y0003048696D01*
X0003311142Y0003017967D01*
X0003322438Y0002986683D01*
X0003332276Y0002954911D01*
X0003340637Y0002922717D01*
X0003347503Y0002890173D01*
X0003352857Y0002857346D01*
X0003356691Y0002824306D01*
X0003358994Y0002791126D01*
X0003359762Y0002757874D01*
X0003358994Y0002724621D01*
X0003356691Y0002691441D01*
X0003352857Y0002658401D01*
X0003347503Y0002625574D01*
X0003340637Y0002593030D01*
X0003332276Y0002560836D01*
X0003322438Y0002529065D01*
X0003311142Y0002497780D01*
X0003298414Y0002467051D01*
X0003284280Y0002436943D01*
X0003268770Y0002407519D01*
X0003251918Y0002378843D01*
X0003233761Y0002350976D01*
X0003214335Y0002323977D01*
X0003193683Y0002297905D01*
X0003171849Y0002272814D01*
X0003148879Y0002248758D01*
X0003124823Y0002225788D01*
X0003099732Y0002203954D01*
X0003073660Y0002183302D01*
X0003046660Y0002163876D01*
X0003018794Y0002145719D01*
X0002990118Y0002128867D01*
X0002960694Y0002113357D01*
X0002930586Y0002099223D01*
X0002899856Y0002086495D01*
X0002868572Y0002075199D01*
X0002836801Y0002065360D01*
X0002804607Y0002056999D01*
X0002772063Y0002050134D01*
X0002739236Y0002044779D01*
X0002706196Y0002040946D01*
X0002673015Y0002038643D01*
X0002639763Y0002037875D01*
X0002606511Y0002038643D01*
X0002573330Y0002040946D01*
X0002540290Y0002044779D01*
X0002507464Y0002050134D01*
X0002474920Y0002056999D01*
X0002442726Y0002065360D01*
X0002410954Y0002075199D01*
X0002379670Y0002086495D01*
X0002348941Y0002099223D01*
X0002318832Y0002113357D01*
X0002289408Y0002128867D01*
X0002260732Y0002145719D01*
X0002232866Y0002163876D01*
X0002205867Y0002183302D01*
X0002179795Y0002203954D01*
X0002154703Y0002225788D01*
X0002130647Y0002248758D01*
X0002107678Y0002272814D01*
X0002085844Y0002297905D01*
X0002065192Y0002323977D01*
X0002045766Y0002350976D01*
X0002027608Y0002378843D01*
X0002010756Y0002407519D01*
X0001995247Y0002436943D01*
X0001981113Y0002467051D01*
X0001968384Y0002497780D01*
X0001957089Y0002529065D01*
X0001947250Y0002560836D01*
X0001938889Y0002593030D01*
X0001932024Y0002625574D01*
X0001926669Y0002658401D01*
X0001922836Y0002691441D01*
X0001920533Y0002724621D01*
X0001919765Y0002757874D01*
X0001920533Y0002791126D01*
X0001922836Y0002824306D01*
X0001926669Y0002857346D01*
X0001932024Y0002890173D01*
X0001938889Y0002922717D01*
X0001947250Y0002954911D01*
X0001957089Y0002986683D01*
X0001968384Y0003017967D01*
X0001981113Y0003048696D01*
X0001995247Y0003078804D01*
X0002010756Y0003108228D01*
X0002027608Y0003136904D01*
X0002045766Y0003164771D01*
X0002065192Y0003191770D01*
X0002085844Y0003217842D01*
X0002107678Y0003242934D01*
X0002130647Y0003266989D01*
X0002154703Y0003289959D01*
X0002179795Y0003311793D01*
X0002205867Y0003332445D01*
X0002232866Y0003351871D01*
X0002260732Y0003370029D01*
X0002289408Y0003386880D01*
X0002318832Y0003402390D01*
X0002348941Y0003416524D01*
X0002379670Y0003429252D01*
X0002410954Y0003440548D01*
X0002442726Y0003450387D01*
X0002474920Y0003458748D01*
X0002507464Y0003465613D01*
X0002540290Y0003470968D01*
X0002573330Y0003474801D01*
X0002606511Y0003477104D01*
X0002639763Y0003477872D01*
X0002673015Y0003477104D01*
G37*
X0002673015Y0003477104D02*
X0002706196Y0003474801D01*
X0002739236Y0003470968D01*
X0002772063Y0003465613D01*
X0002804607Y0003458748D01*
X0002836801Y0003450387D01*
X0002868572Y0003440548D01*
X0002899856Y0003429252D01*
X0002930586Y0003416524D01*
X0002960694Y0003402390D01*
X0002990118Y0003386880D01*
X0003018794Y0003370029D01*
X0003046660Y0003351871D01*
X0003073660Y0003332445D01*
X0003099732Y0003311793D01*
X0003124823Y0003289959D01*
X0003148879Y0003266989D01*
X0003171849Y0003242934D01*
X0003193683Y0003217842D01*
X0003214335Y0003191770D01*
X0003233761Y0003164771D01*
X0003251918Y0003136904D01*
X0003268770Y0003108228D01*
X0003284280Y0003078804D01*
X0003298414Y0003048696D01*
X0003311142Y0003017967D01*
X0003322438Y0002986683D01*
X0003332276Y0002954911D01*
X0003340637Y0002922717D01*
X0003347503Y0002890173D01*
X0003352857Y0002857346D01*
X0003356691Y0002824306D01*
X0003358994Y0002791126D01*
X0003359762Y0002757874D01*
X0003358994Y0002724621D01*
X0003356691Y0002691441D01*
X0003352857Y0002658401D01*
X0003347503Y0002625574D01*
X0003340637Y0002593030D01*
X0003332276Y0002560836D01*
X0003322438Y0002529065D01*
X0003311142Y0002497780D01*
X0003298414Y0002467051D01*
X0003284280Y0002436943D01*
X0003268770Y0002407519D01*
X0003251918Y0002378843D01*
X0003233761Y0002350976D01*
X0003214335Y0002323977D01*
X0003193683Y0002297905D01*
X0003171849Y0002272814D01*
X0003148879Y0002248758D01*
X0003124823Y0002225788D01*
X0003099732Y0002203954D01*
X0003073660Y0002183302D01*
X0003046660Y0002163876D01*
X0003018794Y0002145719D01*
X0002990118Y0002128867D01*
X0002960694Y0002113357D01*
X0002930586Y0002099223D01*
X0002899856Y0002086495D01*
X0002868572Y0002075199D01*
X0002836801Y0002065360D01*
X0002804607Y0002056999D01*
X0002772063Y0002050134D01*
X0002739236Y0002044779D01*
X0002706196Y0002040946D01*
X0002673015Y0002038643D01*
X0002639763Y0002037875D01*
X0002606511Y0002038643D01*
X0002573330Y0002040946D01*
X0002540290Y0002044779D01*
X0002507464Y0002050134D01*
X0002474920Y0002056999D01*
X0002442726Y0002065360D01*
X0002410954Y0002075199D01*
X0002379670Y0002086495D01*
X0002348941Y0002099223D01*
X0002318832Y0002113357D01*
X0002289408Y0002128867D01*
X0002260732Y0002145719D01*
X0002232866Y0002163876D01*
X0002205867Y0002183302D01*
X0002179795Y0002203954D01*
X0002154703Y0002225788D01*
X0002130647Y0002248758D01*
X0002107678Y0002272814D01*
X0002085844Y0002297905D01*
X0002065192Y0002323977D01*
X0002045766Y0002350976D01*
X0002027608Y0002378843D01*
X0002010756Y0002407519D01*
X0001995247Y0002436943D01*
X0001981113Y0002467051D01*
X0001968384Y0002497780D01*
X0001957089Y0002529065D01*
X0001947250Y0002560836D01*
X0001938889Y0002593030D01*
X0001932024Y0002625574D01*
X0001926669Y0002658401D01*
X0001922836Y0002691441D01*
X0001920533Y0002724621D01*
X0001919765Y0002757874D01*
X0001920533Y0002791126D01*
X0001922836Y0002824306D01*
X0001926669Y0002857346D01*
X0001932024Y0002890173D01*
X0001938889Y0002922717D01*
X0001947250Y0002954911D01*
X0001957089Y0002986683D01*
X0001968384Y0003017967D01*
X0001981113Y0003048696D01*
X0001995247Y0003078804D01*
X0002010756Y0003108228D01*
X0002027608Y0003136904D01*
X0002045766Y0003164771D01*
X0002065192Y0003191770D01*
X0002085844Y0003217842D01*
X0002107678Y0003242934D01*
X0002130647Y0003266989D01*
X0002154703Y0003289959D01*
X0002179795Y0003311793D01*
X0002205867Y0003332445D01*
X0002232866Y0003351871D01*
X0002260732Y0003370029D01*
X0002289408Y0003386880D01*
X0002318832Y0003402390D01*
X0002348941Y0003416524D01*
X0002379670Y0003429252D01*
X0002410954Y0003440548D01*
X0002442726Y0003450387D01*
X0002474920Y0003458748D01*
X0002507464Y0003465613D01*
X0002540290Y0003470968D01*
X0002573330Y0003474801D01*
X0002606511Y0003477104D01*
X0002639763Y0003477872D01*
X0002673015Y0003477104D01*
G04 next file*
G04 #@! TF.GenerationSoftware,KiCad,Pcbnew,(5.1.5)-3*
G04 #@! TF.CreationDate,2019-12-21T18:44:43-08:00*
G04 #@! TF.ProjectId,mole_keychain,6d6f6c65-5f6b-4657-9963-6861696e2e6b,A*
G04 #@! TF.SameCoordinates,Original*
G04 #@! TF.FileFunction,Copper,L1,Top*
G04 #@! TF.FilePolarity,Positive*
G04 Gerber Fmt 4.6, Leading zero omitted, Abs format (unit mm)*
G04 Created by KiCad (PCBNEW (5.1.5)-3) date 2019-12-21 18:44:43*
G04 APERTURE LIST*
G04 APERTURE END LIST*
D28*
X0001889763Y0000118110D02*
X0002639763Y0001758110D03*
D29*
G36*
X0002673015Y0001587340D02*
G01*
X0002706196Y0001585037D01*
X0002739236Y0001581204D01*
X0002772063Y0001575849D01*
X0002804607Y0001568984D01*
X0002836801Y0001560623D01*
X0002868572Y0001550784D01*
X0002899856Y0001539489D01*
X0002930586Y0001526760D01*
X0002960694Y0001512626D01*
X0002990118Y0001497117D01*
X0003018794Y0001480265D01*
X0003046660Y0001462107D01*
X0003073660Y0001442681D01*
X0003099732Y0001422029D01*
X0003124823Y0001400195D01*
X0003148879Y0001377226D01*
X0003171849Y0001353170D01*
X0003193683Y0001328078D01*
X0003214335Y0001302006D01*
X0003233761Y0001275007D01*
X0003251918Y0001247141D01*
X0003268770Y0001218465D01*
X0003284280Y0001189041D01*
X0003298414Y0001158932D01*
X0003311142Y0001128203D01*
X0003322438Y0001096919D01*
X0003332276Y0001065147D01*
X0003340637Y0001032953D01*
X0003347503Y0001000409D01*
X0003352857Y0000967583D01*
X0003356691Y0000934543D01*
X0003358994Y0000901362D01*
X0003359762Y0000868110D01*
X0003358994Y0000834858D01*
X0003356691Y0000801677D01*
X0003352857Y0000768637D01*
X0003347503Y0000735810D01*
X0003340637Y0000703266D01*
X0003332276Y0000671072D01*
X0003322438Y0000639301D01*
X0003311142Y0000608017D01*
X0003298414Y0000577287D01*
X0003284280Y0000547179D01*
X0003268770Y0000517755D01*
X0003251918Y0000489079D01*
X0003233761Y0000461213D01*
X0003214335Y0000434213D01*
X0003193683Y0000408141D01*
X0003171849Y0000383050D01*
X0003148879Y0000358994D01*
X0003124823Y0000336024D01*
X0003099732Y0000314190D01*
X0003073660Y0000293539D01*
X0003046660Y0000274112D01*
X0003018794Y0000255955D01*
X0002990118Y0000239103D01*
X0002960694Y0000223593D01*
X0002930586Y0000209459D01*
X0002899856Y0000196731D01*
X0002868572Y0000185435D01*
X0002836801Y0000175597D01*
X0002804607Y0000167236D01*
X0002772063Y0000160370D01*
X0002739236Y0000155016D01*
X0002706196Y0000151182D01*
X0002673015Y0000148879D01*
X0002639763Y0000148111D01*
X0002606511Y0000148879D01*
X0002573330Y0000151182D01*
X0002540290Y0000155016D01*
X0002507464Y0000160370D01*
X0002474920Y0000167236D01*
X0002442726Y0000175597D01*
X0002410954Y0000185435D01*
X0002379670Y0000196731D01*
X0002348941Y0000209459D01*
X0002318832Y0000223593D01*
X0002289408Y0000239103D01*
X0002260732Y0000255955D01*
X0002232866Y0000274112D01*
X0002205867Y0000293539D01*
X0002179795Y0000314190D01*
X0002154703Y0000336024D01*
X0002130647Y0000358994D01*
X0002107678Y0000383050D01*
X0002085844Y0000408141D01*
X0002065192Y0000434213D01*
X0002045766Y0000461213D01*
X0002027608Y0000489079D01*
X0002010756Y0000517755D01*
X0001995247Y0000547179D01*
X0001981113Y0000577287D01*
X0001968384Y0000608017D01*
X0001957089Y0000639301D01*
X0001947250Y0000671072D01*
X0001938889Y0000703266D01*
X0001932024Y0000735810D01*
X0001926669Y0000768637D01*
X0001922836Y0000801677D01*
X0001920533Y0000834858D01*
X0001919765Y0000868110D01*
X0001920533Y0000901362D01*
X0001922836Y0000934543D01*
X0001926669Y0000967583D01*
X0001932024Y0001000409D01*
X0001938889Y0001032953D01*
X0001947250Y0001065147D01*
X0001957089Y0001096919D01*
X0001968384Y0001128203D01*
X0001981113Y0001158932D01*
X0001995247Y0001189041D01*
X0002010756Y0001218465D01*
X0002027608Y0001247141D01*
X0002045766Y0001275007D01*
X0002065192Y0001302006D01*
X0002085844Y0001328078D01*
X0002107678Y0001353170D01*
X0002130647Y0001377226D01*
X0002154703Y0001400195D01*
X0002179795Y0001422029D01*
X0002205867Y0001442681D01*
X0002232866Y0001462107D01*
X0002260732Y0001480265D01*
X0002289408Y0001497117D01*
X0002318832Y0001512626D01*
X0002348941Y0001526760D01*
X0002379670Y0001539489D01*
X0002410954Y0001550784D01*
X0002442726Y0001560623D01*
X0002474920Y0001568984D01*
X0002507464Y0001575849D01*
X0002540290Y0001581204D01*
X0002573330Y0001585037D01*
X0002606511Y0001587340D01*
X0002639763Y0001588108D01*
X0002673015Y0001587340D01*
G37*
X0002673015Y0001587340D02*
X0002706196Y0001585037D01*
X0002739236Y0001581204D01*
X0002772063Y0001575849D01*
X0002804607Y0001568984D01*
X0002836801Y0001560623D01*
X0002868572Y0001550784D01*
X0002899856Y0001539489D01*
X0002930586Y0001526760D01*
X0002960694Y0001512626D01*
X0002990118Y0001497117D01*
X0003018794Y0001480265D01*
X0003046660Y0001462107D01*
X0003073660Y0001442681D01*
X0003099732Y0001422029D01*
X0003124823Y0001400195D01*
X0003148879Y0001377226D01*
X0003171849Y0001353170D01*
X0003193683Y0001328078D01*
X0003214335Y0001302006D01*
X0003233761Y0001275007D01*
X0003251918Y0001247141D01*
X0003268770Y0001218465D01*
X0003284280Y0001189041D01*
X0003298414Y0001158932D01*
X0003311142Y0001128203D01*
X0003322438Y0001096919D01*
X0003332276Y0001065147D01*
X0003340637Y0001032953D01*
X0003347503Y0001000409D01*
X0003352857Y0000967583D01*
X0003356691Y0000934543D01*
X0003358994Y0000901362D01*
X0003359762Y0000868110D01*
X0003358994Y0000834858D01*
X0003356691Y0000801677D01*
X0003352857Y0000768637D01*
X0003347503Y0000735810D01*
X0003340637Y0000703266D01*
X0003332276Y0000671072D01*
X0003322438Y0000639301D01*
X0003311142Y0000608017D01*
X0003298414Y0000577287D01*
X0003284280Y0000547179D01*
X0003268770Y0000517755D01*
X0003251918Y0000489079D01*
X0003233761Y0000461213D01*
X0003214335Y0000434213D01*
X0003193683Y0000408141D01*
X0003171849Y0000383050D01*
X0003148879Y0000358994D01*
X0003124823Y0000336024D01*
X0003099732Y0000314190D01*
X0003073660Y0000293539D01*
X0003046660Y0000274112D01*
X0003018794Y0000255955D01*
X0002990118Y0000239103D01*
X0002960694Y0000223593D01*
X0002930586Y0000209459D01*
X0002899856Y0000196731D01*
X0002868572Y0000185435D01*
X0002836801Y0000175597D01*
X0002804607Y0000167236D01*
X0002772063Y0000160370D01*
X0002739236Y0000155016D01*
X0002706196Y0000151182D01*
X0002673015Y0000148879D01*
X0002639763Y0000148111D01*
X0002606511Y0000148879D01*
X0002573330Y0000151182D01*
X0002540290Y0000155016D01*
X0002507464Y0000160370D01*
X0002474920Y0000167236D01*
X0002442726Y0000175597D01*
X0002410954Y0000185435D01*
X0002379670Y0000196731D01*
X0002348941Y0000209459D01*
X0002318832Y0000223593D01*
X0002289408Y0000239103D01*
X0002260732Y0000255955D01*
X0002232866Y0000274112D01*
X0002205867Y0000293539D01*
X0002179795Y0000314190D01*
X0002154703Y0000336024D01*
X0002130647Y0000358994D01*
X0002107678Y0000383050D01*
X0002085844Y0000408141D01*
X0002065192Y0000434213D01*
X0002045766Y0000461213D01*
X0002027608Y0000489079D01*
X0002010756Y0000517755D01*
X0001995247Y0000547179D01*
X0001981113Y0000577287D01*
X0001968384Y0000608017D01*
X0001957089Y0000639301D01*
X0001947250Y0000671072D01*
X0001938889Y0000703266D01*
X0001932024Y0000735810D01*
X0001926669Y0000768637D01*
X0001922836Y0000801677D01*
X0001920533Y0000834858D01*
X0001919765Y0000868110D01*
X0001920533Y0000901362D01*
X0001922836Y0000934543D01*
X0001926669Y0000967583D01*
X0001932024Y0001000409D01*
X0001938889Y0001032953D01*
X0001947250Y0001065147D01*
X0001957089Y0001096919D01*
X0001968384Y0001128203D01*
X0001981113Y0001158932D01*
X0001995247Y0001189041D01*
X0002010756Y0001218465D01*
X0002027608Y0001247141D01*
X0002045766Y0001275007D01*
X0002065192Y0001302006D01*
X0002085844Y0001328078D01*
X0002107678Y0001353170D01*
X0002130647Y0001377226D01*
X0002154703Y0001400195D01*
X0002179795Y0001422029D01*
X0002205867Y0001442681D01*
X0002232866Y0001462107D01*
X0002260732Y0001480265D01*
X0002289408Y0001497117D01*
X0002318832Y0001512626D01*
X0002348941Y0001526760D01*
X0002379670Y0001539489D01*
X0002410954Y0001550784D01*
X0002442726Y0001560623D01*
X0002474920Y0001568984D01*
X0002507464Y0001575849D01*
X0002540290Y0001581204D01*
X0002573330Y0001585037D01*
X0002606511Y0001587340D01*
X0002639763Y0001588108D01*
X0002673015Y0001587340D01*
G04 next file*
G04 #@! TF.GenerationSoftware,KiCad,Pcbnew,(5.1.5)-3*
G04 #@! TF.CreationDate,2019-12-21T19:27:07-08:00*
G04 #@! TF.ProjectId,mole-small-frame-B,6d6f6c65-2d73-46d6-916c-6c2d6672616d,rev?*
G04 #@! TF.SameCoordinates,Original*
G04 #@! TF.FileFunction,Copper,L1,Top*
G04 #@! TF.FilePolarity,Positive*
G04 Gerber Fmt 4.6, Leading zero omitted, Abs format (unit mm)*
G04 Created by KiCad (PCBNEW (5.1.5)-3) date 2019-12-21 19:27:07*
G04 APERTURE LIST*
G04 APERTURE END LIST*
D30*
X0003464566Y0000039370D02*
X0003562992Y0000137795D03*
X0003562992Y0003799212D03*
D31*
G36*
X0003497702Y0000084213D02*
G01*
X0003509410Y0000072505D01*
X0003520112Y0000065354D01*
X0003490551Y0000065354D01*
X0003490551Y0000094915D01*
X0003497702Y0000084213D01*
G37*
X0003497702Y0000084213D02*
X0003509410Y0000072505D01*
X0003520112Y0000065354D01*
X0003490551Y0000065354D01*
X0003490551Y0000094915D01*
X0003497702Y0000084213D01*
G36*
X0003635433Y0000065354D02*
G01*
X0003605871Y0000065354D01*
X0003616574Y0000072505D01*
X0003628282Y0000084213D01*
X0003635433Y0000094915D01*
X0003635433Y0000065354D01*
G37*
X0003635433Y0000065354D02*
X0003605871Y0000065354D01*
X0003616574Y0000072505D01*
X0003628282Y0000084213D01*
X0003635433Y0000094915D01*
X0003635433Y0000065354D01*
G36*
X0003635433Y0000180674D02*
G01*
X0003628282Y0000191377D01*
X0003616574Y0000203085D01*
X0003602807Y0000212283D01*
X0003587510Y0000218620D01*
X0003571270Y0000221850D01*
X0003554713Y0000221850D01*
X0003538474Y0000218620D01*
X0003523177Y0000212283D01*
X0003509410Y0000203085D01*
X0003497702Y0000191377D01*
X0003490551Y0000180674D01*
X0003490551Y0003756332D01*
X0003497702Y0003745630D01*
X0003509410Y0003733922D01*
X0003523177Y0003724723D01*
X0003538474Y0003718387D01*
X0003554713Y0003715157D01*
X0003571270Y0003715157D01*
X0003587510Y0003718387D01*
X0003602807Y0003724723D01*
X0003616574Y0003733922D01*
X0003628282Y0003745630D01*
X0003635433Y0003756332D01*
X0003635433Y0000180674D01*
G37*
X0003635433Y0000180674D02*
X0003628282Y0000191377D01*
X0003616574Y0000203085D01*
X0003602807Y0000212283D01*
X0003587510Y0000218620D01*
X0003571270Y0000221850D01*
X0003554713Y0000221850D01*
X0003538474Y0000218620D01*
X0003523177Y0000212283D01*
X0003509410Y0000203085D01*
X0003497702Y0000191377D01*
X0003490551Y0000180674D01*
X0003490551Y0003756332D01*
X0003497702Y0003745630D01*
X0003509410Y0003733922D01*
X0003523177Y0003724723D01*
X0003538474Y0003718387D01*
X0003554713Y0003715157D01*
X0003571270Y0003715157D01*
X0003587510Y0003718387D01*
X0003602807Y0003724723D01*
X0003616574Y0003733922D01*
X0003628282Y0003745630D01*
X0003635433Y0003756332D01*
X0003635433Y0000180674D01*
G36*
X0003509410Y0003864502D02*
G01*
X0003497702Y0003852794D01*
X0003490551Y0003842092D01*
X0003490551Y0003871653D01*
X0003520112Y0003871653D01*
X0003509410Y0003864502D01*
G37*
X0003509410Y0003864502D02*
X0003497702Y0003852794D01*
X0003490551Y0003842092D01*
X0003490551Y0003871653D01*
X0003520112Y0003871653D01*
X0003509410Y0003864502D01*
G36*
X0003635433Y0003842092D02*
G01*
X0003628282Y0003852794D01*
X0003616574Y0003864502D01*
X0003605871Y0003871653D01*
X0003635433Y0003871653D01*
X0003635433Y0003842092D01*
G37*
X0003635433Y0003842092D02*
X0003628282Y0003852794D01*
X0003616574Y0003864502D01*
X0003605871Y0003871653D01*
X0003635433Y0003871653D01*
X0003635433Y0003842092D01*
M02*