%MOIN*%
%OFA0B0*%
%FSLAX44Y44*%
%IPPOS*%
%LPD*%
%ADD10C,0*%
D10*
X00034645Y00009774D02*
X00034645Y00009774D01*
X00034642Y00009727D01*
X00034634Y00009680D01*
X00034619Y00009634D01*
X00034599Y00009590D01*
X00034575Y00009549D01*
X00034545Y00009512D01*
X00034511Y00009478D01*
X00034473Y00009449D01*
X00034432Y00009424D01*
X00034388Y00009405D01*
X00034342Y00009391D01*
X00034295Y00009383D01*
X00034247Y00009381D01*
X00034199Y00009384D01*
X00034152Y00009393D01*
X00034107Y00009408D01*
X00034064Y00009429D01*
X00034023Y00009454D01*
X00033986Y00009484D01*
X00033952Y00009518D01*
X00033915Y00009562D01*
X00033908Y00009571D01*
X00033901Y00009580D01*
X00033894Y00009589D01*
X00033888Y00009598D01*
X00033882Y00009607D01*
X00033876Y00009616D01*
X00033870Y00009626D01*
X00033865Y00009636D01*
X00033860Y00009646D01*
X00033855Y00009656D01*
X00033851Y00009666D01*
X00033847Y00009676D01*
X00033843Y00009687D01*
X00033839Y00009697D01*
X00033836Y00009708D01*
X00033833Y00009718D01*
X00033830Y00009729D01*
X00033828Y00009740D01*
X00033826Y00009751D01*
X00033824Y00009762D01*
X00033813Y00009839D01*
X00033786Y00010002D01*
X00033755Y00010164D01*
X00033720Y00010325D01*
X00033683Y00010486D01*
X00033641Y00010646D01*
X00033596Y00010805D01*
X00033548Y00010962D01*
X00033496Y00011119D01*
X00033440Y00011274D01*
X00033382Y00011429D01*
X00033320Y00011581D01*
X00033254Y00011733D01*
X00033185Y00011883D01*
X00033113Y00012031D01*
X00033038Y00012178D01*
X00032960Y00012323D01*
X00032878Y00012467D01*
X00032793Y00012608D01*
X00032705Y00012748D01*
X00032614Y00012886D01*
X00032520Y00013021D01*
X00032424Y00013155D01*
X00032324Y00013286D01*
X00032221Y00013415D01*
X00032116Y00013542D01*
X00032007Y00013667D01*
X00031896Y00013789D01*
X00031783Y00013909D01*
X00031666Y00014026D01*
X00031548Y00014140D01*
X00031426Y00014252D01*
X00031303Y00014361D01*
X00031177Y00014468D01*
X00031048Y00014572D01*
X00030918Y00014672D01*
X00030785Y00014770D01*
X00030650Y00014865D01*
X00030513Y00014957D01*
X00030374Y00015046D01*
X00030233Y00015132D01*
X00030090Y00015215D01*
X00029946Y00015294D01*
X00029800Y00015371D01*
X00029652Y00015444D01*
X00029502Y00015514D01*
X00029351Y00015581D01*
X00029351Y00015581D01*
X00029195Y00015650D01*
X00029045Y00015732D01*
X00028902Y00015826D01*
X00028767Y00015930D01*
X00028640Y00016045D01*
X00028524Y00016170D01*
X00028417Y00016303D01*
X00028321Y00016445D01*
X00028237Y00016593D01*
X00028164Y00016748D01*
X00028105Y00016908D01*
X00028058Y00017073D01*
X00028024Y00017240D01*
X00028004Y00017410D01*
X00027997Y00017581D01*
X00027988Y00017748D01*
X00027962Y00017913D01*
X00027919Y00018075D01*
X00027859Y00018231D01*
X00027783Y00018381D01*
X00027692Y00018521D01*
X00027586Y00018651D01*
X00027468Y00018770D01*
X00027338Y00018875D01*
X00027274Y00018916D01*
X00027257Y00018928D01*
X00027241Y00018940D01*
X00027225Y00018954D01*
X00027210Y00018968D01*
X00027196Y00018983D01*
X00027183Y00018998D01*
X00027170Y00019015D01*
X00027159Y00019032D01*
X00027148Y00019049D01*
X00027138Y00019067D01*
X00027129Y00019086D01*
X00027121Y00019105D01*
X00027114Y00019124D01*
X00027109Y00019144D01*
X00027104Y00019164D01*
X00027100Y00019184D01*
X00027097Y00019205D01*
X00027096Y00019225D01*
X00027095Y00019246D01*
X00027096Y00019267D01*
X00027122Y00019779D01*
X00027125Y00019806D01*
X00027129Y00019833D01*
X00027135Y00019860D01*
X00027143Y00019886D01*
X00027152Y00019911D01*
X00027164Y00019936D01*
X00027177Y00019960D01*
X00027192Y00019983D01*
X00027208Y00020005D01*
X00027226Y00020025D01*
X00027245Y00020045D01*
X00027266Y00020063D01*
X00027287Y00020079D01*
X00027310Y00020094D01*
X00027334Y00020108D01*
X00027359Y00020120D01*
X00027384Y00020130D01*
X00027410Y00020138D01*
X00027437Y00020144D01*
X00027464Y00020149D01*
X00027464Y00020149D01*
X00027466Y00020149D01*
X00027629Y00020174D01*
X00027792Y00020203D01*
X00027953Y00020236D01*
X00028114Y00020272D01*
X00028275Y00020311D01*
X00028434Y00020354D01*
X00028592Y00020401D01*
X00028749Y00020451D01*
X00028906Y00020504D01*
X00029060Y00020561D01*
X00029214Y00020621D01*
X00029366Y00020685D01*
X00029517Y00020752D01*
X00029666Y00020822D01*
X00029814Y00020895D01*
X00029960Y00020972D01*
X00030105Y00021052D01*
X00030247Y00021135D01*
X00030388Y00021221D01*
X00030527Y00021311D01*
X00030664Y00021403D01*
X00030798Y00021498D01*
X00030931Y00021596D01*
X00031061Y00021698D01*
X00031189Y00021801D01*
X00031315Y00021908D01*
X00031439Y00022018D01*
X00031560Y00022130D01*
X00031678Y00022245D01*
X00031794Y00022362D01*
X00031908Y00022482D01*
X00032018Y00022604D01*
X00032126Y00022729D01*
X00032231Y00022856D01*
X00032334Y00022986D01*
X00032433Y00023117D01*
X00032530Y00023251D01*
X00032624Y00023387D01*
X00032714Y00023525D01*
X00032802Y00023665D01*
X00032886Y00023806D01*
X00032968Y00023950D01*
X00033046Y00024095D01*
X00033121Y00024242D01*
X00033192Y00024391D01*
X00033261Y00024541D01*
X00033326Y00024693D01*
X00033388Y00024846D01*
X00033446Y00025000D01*
X00033501Y00025155D01*
X00033553Y00025312D01*
X00033601Y00025470D01*
X00033645Y00025629D01*
X00033686Y00025789D01*
X00033724Y00025949D01*
X00033758Y00026111D01*
X00033789Y00026273D01*
X00033815Y00026436D01*
X00033819Y00026460D01*
X00033821Y00026472D01*
X00033823Y00026485D01*
X00033826Y00026498D01*
X00033830Y00026511D01*
X00033833Y00026523D01*
X00033838Y00026536D01*
X00033842Y00026548D01*
X00033847Y00026560D01*
X00033853Y00026572D01*
X00033858Y00026584D01*
X00033864Y00026595D01*
X00033871Y00026607D01*
X00033878Y00026618D01*
X00033885Y00026629D01*
X00033893Y00026639D01*
X00033901Y00026650D01*
X00033909Y00026660D01*
X00033918Y00026669D01*
X00033927Y00026679D01*
X00033936Y00026688D01*
X00033979Y00026729D01*
X00034014Y00026759D01*
X00034052Y00026785D01*
X00034093Y00026805D01*
X00034136Y00026821D01*
X00034181Y00026832D01*
X00034226Y00026838D01*
X00034272Y00026838D01*
X00034318Y00026833D01*
X00034363Y00026823D01*
X00034406Y00026807D01*
X00034447Y00026787D01*
X00034486Y00026762D01*
X00034521Y00026732D01*
X00034552Y00026699D01*
X00034580Y00026662D01*
X00034603Y00026622D01*
X00034621Y00026580D01*
X00034634Y00026536D01*
X00034642Y00026491D01*
X00034645Y00026445D01*
X00034645Y00009774D01*
X00018071Y00026460D02*
X00018071Y00026460D01*
X00018075Y00026485D01*
X00018081Y00026510D01*
X00018089Y00026534D01*
X00018098Y00026558D01*
X00018109Y00026581D01*
X00018122Y00026604D01*
X00018135Y00026626D01*
X00018150Y00026646D01*
X00018167Y00026666D01*
X00018185Y00026685D01*
X00018203Y00026702D01*
X00018223Y00026718D01*
X00018244Y00026733D01*
X00018266Y00026746D01*
X00018289Y00026758D01*
X00018313Y00026769D01*
X00018337Y00026778D01*
X00018361Y00026785D01*
X00018386Y00026791D01*
X00018412Y00026795D01*
X00018535Y00026810D01*
X00018565Y00026813D01*
X00018596Y00026813D01*
X00018626Y00026811D01*
X00018656Y00026806D01*
X00018686Y00026799D01*
X00018715Y00026790D01*
X00018744Y00026779D01*
X00018771Y00026765D01*
X00018797Y00026750D01*
X00018822Y00026732D01*
X00018846Y00026713D01*
X00018868Y00026691D01*
X00018888Y00026669D01*
X00018907Y00026644D01*
X00018923Y00026618D01*
X00018938Y00026591D01*
X00018950Y00026563D01*
X00018960Y00026535D01*
X00018968Y00026505D01*
X00018973Y00026475D01*
X00018979Y00026436D01*
X00019006Y00026273D01*
X00019036Y00026111D01*
X00019070Y00025949D01*
X00019108Y00025789D01*
X00019149Y00025629D01*
X00019194Y00025470D01*
X00019242Y00025312D01*
X00019293Y00025156D01*
X00019348Y00025000D01*
X00019406Y00024846D01*
X00019468Y00024693D01*
X00019533Y00024541D01*
X00019602Y00024391D01*
X00019673Y00024242D01*
X00019748Y00024095D01*
X00019827Y00023950D01*
X00019908Y00023806D01*
X00019992Y00023665D01*
X00020080Y00023525D01*
X00020171Y00023387D01*
X00020264Y00023251D01*
X00020361Y00023117D01*
X00020460Y00022986D01*
X00020563Y00022856D01*
X00020668Y00022729D01*
X00020776Y00022604D01*
X00020887Y00022482D01*
X00021000Y00022362D01*
X00021116Y00022245D01*
X00021235Y00022130D01*
X00021356Y00022018D01*
X00021479Y00021908D01*
X00021605Y00021801D01*
X00021733Y00021698D01*
X00021863Y00021596D01*
X00021996Y00021498D01*
X00022131Y00021403D01*
X00022268Y00021311D01*
X00022406Y00021221D01*
X00022547Y00021135D01*
X00022690Y00021052D01*
X00022834Y00020972D01*
X00022980Y00020895D01*
X00023128Y00020822D01*
X00023277Y00020752D01*
X00023428Y00020685D01*
X00023580Y00020621D01*
X00023734Y00020561D01*
X00023889Y00020504D01*
X00024045Y00020451D01*
X00024202Y00020401D01*
X00024360Y00020354D01*
X00024520Y00020311D01*
X00024680Y00020272D01*
X00024841Y00020236D01*
X00025003Y00020203D01*
X00025165Y00020174D01*
X00025294Y00020154D01*
X00025320Y00020149D01*
X00025345Y00020143D01*
X00025370Y00020135D01*
X00025394Y00020125D01*
X00025417Y00020113D01*
X00025440Y00020100D01*
X00025462Y00020086D01*
X00025483Y00020070D01*
X00025502Y00020053D01*
X00025521Y00020034D01*
X00025538Y00020015D01*
X00025554Y00019994D01*
X00025569Y00019972D01*
X00025582Y00019949D01*
X00025593Y00019926D01*
X00025603Y00019901D01*
X00025611Y00019877D01*
X00025618Y00019851D01*
X00025623Y00019826D01*
X00025626Y00019800D01*
X00025673Y00019264D01*
X00025674Y00019243D01*
X00025674Y00019222D01*
X00025673Y00019200D01*
X00025671Y00019179D01*
X00025667Y00019158D01*
X00025663Y00019137D01*
X00025657Y00019117D01*
X00025651Y00019097D01*
X00025643Y00019077D01*
X00025634Y00019057D01*
X00025624Y00019038D01*
X00025614Y00019020D01*
X00025602Y00019002D01*
X00025589Y00018985D01*
X00025575Y00018969D01*
X00025561Y00018954D01*
X00025545Y00018939D01*
X00025529Y00018925D01*
X00025512Y00018912D01*
X00025495Y00018900D01*
X00025457Y00018875D01*
X00025327Y00018770D01*
X00025208Y00018651D01*
X00025103Y00018521D01*
X00025011Y00018381D01*
X00024935Y00018231D01*
X00024875Y00018075D01*
X00024832Y00017913D01*
X00024806Y00017748D01*
X00024797Y00017581D01*
X00024790Y00017410D01*
X00024770Y00017240D01*
X00024736Y00017073D01*
X00024690Y00016908D01*
X00024630Y00016748D01*
X00024558Y00016593D01*
X00024473Y00016445D01*
X00024377Y00016303D01*
X00024271Y00016170D01*
X00024154Y00016045D01*
X00024027Y00015930D01*
X00023892Y00015826D01*
X00023749Y00015732D01*
X00023599Y00015650D01*
X00023443Y00015581D01*
X00023292Y00015514D01*
X00023143Y00015444D01*
X00022995Y00015371D01*
X00022848Y00015295D01*
X00022704Y00015215D01*
X00022561Y00015132D01*
X00022420Y00015046D01*
X00022281Y00014957D01*
X00022144Y00014865D01*
X00022009Y00014770D01*
X00021877Y00014672D01*
X00021746Y00014572D01*
X00021618Y00014468D01*
X00021492Y00014361D01*
X00021368Y00014252D01*
X00021247Y00014140D01*
X00021128Y00014026D01*
X00021012Y00013909D01*
X00020898Y00013789D01*
X00020787Y00013667D01*
X00020679Y00013542D01*
X00020573Y00013415D01*
X00020471Y00013286D01*
X00020371Y00013155D01*
X00020274Y00013021D01*
X00020180Y00012886D01*
X00020089Y00012748D01*
X00020001Y00012608D01*
X00019916Y00012467D01*
X00019835Y00012323D01*
X00019756Y00012178D01*
X00019681Y00012031D01*
X00019609Y00011883D01*
X00019540Y00011733D01*
X00019475Y00011581D01*
X00019413Y00011429D01*
X00019354Y00011274D01*
X00019298Y00011119D01*
X00019247Y00010962D01*
X00019198Y00010805D01*
X00019153Y00010646D01*
X00019112Y00010486D01*
X00019074Y00010326D01*
X00019039Y00010164D01*
X00019009Y00010002D01*
X00018981Y00009839D01*
X00018968Y00009747D01*
X00018962Y00009717D01*
X00018954Y00009687D01*
X00018944Y00009658D01*
X00018932Y00009630D01*
X00018917Y00009603D01*
X00018901Y00009577D01*
X00018882Y00009553D01*
X00018861Y00009530D01*
X00018839Y00009509D01*
X00018815Y00009489D01*
X00018790Y00009472D01*
X00018764Y00009456D01*
X00018736Y00009443D01*
X00018707Y00009431D01*
X00018678Y00009422D01*
X00018648Y00009416D01*
X00018618Y00009412D01*
X00018587Y00009410D01*
X00018556Y00009410D01*
X00018526Y00009413D01*
X00018413Y00009428D01*
X00018388Y00009433D01*
X00018363Y00009438D01*
X00018339Y00009446D01*
X00018315Y00009455D01*
X00018292Y00009465D01*
X00018270Y00009477D01*
X00018248Y00009491D01*
X00018227Y00009505D01*
X00018207Y00009521D01*
X00018189Y00009539D01*
X00018171Y00009557D01*
X00018155Y00009577D01*
X00018140Y00009597D01*
X00018126Y00009619D01*
X00018114Y00009641D01*
X00018104Y00009664D01*
X00018094Y00009688D01*
X00018087Y00009712D01*
X00018081Y00009737D01*
X00018076Y00009762D01*
X00018065Y00009839D01*
X00018038Y00010002D01*
X00018007Y00010164D01*
X00017972Y00010325D01*
X00017934Y00010486D01*
X00017893Y00010646D01*
X00017848Y00010805D01*
X00017800Y00010962D01*
X00017748Y00011119D01*
X00017692Y00011274D01*
X00017634Y00011429D01*
X00017572Y00011581D01*
X00017506Y00011733D01*
X00017437Y00011883D01*
X00017365Y00012031D01*
X00017290Y00012178D01*
X00017212Y00012323D01*
X00017130Y00012467D01*
X00017045Y00012608D01*
X00016957Y00012748D01*
X00016866Y00012886D01*
X00016772Y00013021D01*
X00016675Y00013155D01*
X00016576Y00013286D01*
X00016473Y00013415D01*
X00016368Y00013542D01*
X00016259Y00013667D01*
X00016148Y00013789D01*
X00016035Y00013909D01*
X00015918Y00014026D01*
X00015800Y00014140D01*
X00015678Y00014252D01*
X00015555Y00014361D01*
X00015429Y00014468D01*
X00015300Y00014572D01*
X00015170Y00014672D01*
X00015037Y00014770D01*
X00014902Y00014865D01*
X00014765Y00014957D01*
X00014626Y00015046D01*
X00014485Y00015132D01*
X00014342Y00015215D01*
X00014198Y00015294D01*
X00014052Y00015371D01*
X00013904Y00015444D01*
X00013754Y00015514D01*
X00013603Y00015581D01*
X00013603Y00015581D01*
X00013447Y00015650D01*
X00013297Y00015732D01*
X00013154Y00015826D01*
X00013019Y00015930D01*
X00012892Y00016045D01*
X00012775Y00016170D01*
X00012669Y00016303D01*
X00012573Y00016445D01*
X00012489Y00016593D01*
X00012416Y00016748D01*
X00012357Y00016908D01*
X00012310Y00017073D01*
X00012276Y00017240D01*
X00012256Y00017410D01*
X00012249Y00017581D01*
X00012240Y00017748D01*
X00012214Y00017913D01*
X00012171Y00018075D01*
X00012111Y00018231D01*
X00012035Y00018381D01*
X00011944Y00018521D01*
X00011838Y00018651D01*
X00011720Y00018770D01*
X00011590Y00018875D01*
X00011526Y00018916D01*
X00011509Y00018928D01*
X00011493Y00018940D01*
X00011477Y00018954D01*
X00011462Y00018968D01*
X00011448Y00018983D01*
X00011435Y00018998D01*
X00011422Y00019015D01*
X00011411Y00019032D01*
X00011400Y00019049D01*
X00011390Y00019067D01*
X00011381Y00019086D01*
X00011373Y00019105D01*
X00011366Y00019124D01*
X00011361Y00019144D01*
X00011356Y00019164D01*
X00011352Y00019184D01*
X00011349Y00019205D01*
X00011348Y00019225D01*
X00011347Y00019246D01*
X00011348Y00019267D01*
X00011374Y00019779D01*
X00011376Y00019806D01*
X00011381Y00019833D01*
X00011387Y00019860D01*
X00011395Y00019886D01*
X00011404Y00019911D01*
X00011416Y00019936D01*
X00011429Y00019960D01*
X00011444Y00019983D01*
X00011460Y00020005D01*
X00011478Y00020025D01*
X00011497Y00020045D01*
X00011518Y00020063D01*
X00011539Y00020079D01*
X00011562Y00020094D01*
X00011586Y00020108D01*
X00011611Y00020120D01*
X00011636Y00020130D01*
X00011662Y00020138D01*
X00011689Y00020144D01*
X00011716Y00020149D01*
X00011718Y00020149D01*
X00011881Y00020174D01*
X00012044Y00020203D01*
X00012205Y00020236D01*
X00012366Y00020272D01*
X00012527Y00020311D01*
X00012686Y00020354D01*
X00012844Y00020401D01*
X00013001Y00020451D01*
X00013158Y00020504D01*
X00013312Y00020561D01*
X00013466Y00020621D01*
X00013618Y00020685D01*
X00013769Y00020752D01*
X00013918Y00020822D01*
X00014066Y00020895D01*
X00014212Y00020972D01*
X00014357Y00021052D01*
X00014499Y00021135D01*
X00014640Y00021221D01*
X00014779Y00021311D01*
X00014915Y00021403D01*
X00015050Y00021498D01*
X00015183Y00021596D01*
X00015313Y00021698D01*
X00015441Y00021801D01*
X00015567Y00021908D01*
X00015691Y00022018D01*
X00015812Y00022130D01*
X00015930Y00022245D01*
X00016046Y00022362D01*
X00016159Y00022482D01*
X00016270Y00022604D01*
X00016378Y00022729D01*
X00016483Y00022856D01*
X00016586Y00022986D01*
X00016685Y00023117D01*
X00016782Y00023251D01*
X00016876Y00023387D01*
X00016966Y00023525D01*
X00017054Y00023665D01*
X00017138Y00023806D01*
X00017220Y00023950D01*
X00017298Y00024095D01*
X00017373Y00024242D01*
X00017444Y00024391D01*
X00017513Y00024541D01*
X00017578Y00024693D01*
X00017640Y00024846D01*
X00017698Y00025000D01*
X00017753Y00025155D01*
X00017805Y00025312D01*
X00017853Y00025470D01*
X00017897Y00025629D01*
X00017938Y00025789D01*
X00017976Y00025949D01*
X00018010Y00026111D01*
X00018041Y00026273D01*
X00018067Y00026436D01*
X00018071Y00026460D01*
X00018968Y00028644D02*
X00018968Y00028644D01*
X00018962Y00028614D01*
X00018954Y00028585D01*
X00018944Y00028556D01*
X00018932Y00028528D01*
X00018917Y00028501D01*
X00018901Y00028475D01*
X00018882Y00028450D01*
X00018861Y00028427D01*
X00018839Y00028406D01*
X00018815Y00028387D01*
X00018790Y00028369D01*
X00018764Y00028354D01*
X00018736Y00028340D01*
X00018707Y00028329D01*
X00018678Y00028320D01*
X00018648Y00028314D01*
X00018618Y00028309D01*
X00018587Y00028307D01*
X00018556Y00028308D01*
X00018526Y00028311D01*
X00018413Y00028326D01*
X00018388Y00028330D01*
X00018363Y00028336D01*
X00018339Y00028343D01*
X00018315Y00028352D01*
X00018292Y00028363D01*
X00018270Y00028375D01*
X00018248Y00028388D01*
X00018227Y00028403D01*
X00018207Y00028419D01*
X00018189Y00028436D01*
X00018171Y00028455D01*
X00018155Y00028474D01*
X00018140Y00028495D01*
X00018126Y00028516D01*
X00018114Y00028539D01*
X00018104Y00028562D01*
X00018094Y00028586D01*
X00018087Y00028610D01*
X00018081Y00028635D01*
X00018076Y00028660D01*
X00018065Y00028737D01*
X00018038Y00028900D01*
X00018007Y00029062D01*
X00017972Y00029223D01*
X00017934Y00029384D01*
X00017893Y00029543D01*
X00017848Y00029702D01*
X00017800Y00029860D01*
X00017748Y00030017D01*
X00017692Y00030172D01*
X00017634Y00030326D01*
X00017572Y00030479D01*
X00017506Y00030631D01*
X00017437Y00030781D01*
X00017365Y00030929D01*
X00017290Y00031076D01*
X00017212Y00031221D01*
X00017130Y00031364D01*
X00017045Y00031506D01*
X00016957Y00031646D01*
X00016866Y00031783D01*
X00016772Y00031919D01*
X00016675Y00032053D01*
X00016576Y00032184D01*
X00016473Y00032313D01*
X00016368Y00032440D01*
X00016259Y00032564D01*
X00016148Y00032687D01*
X00016035Y00032806D01*
X00015918Y00032923D01*
X00015800Y00033038D01*
X00015678Y00033150D01*
X00015555Y00033259D01*
X00015429Y00033366D01*
X00015300Y00033469D01*
X00015170Y00033570D01*
X00015037Y00033668D01*
X00014902Y00033763D01*
X00014765Y00033855D01*
X00014626Y00033944D01*
X00014485Y00034030D01*
X00014342Y00034113D01*
X00014198Y00034192D01*
X00014052Y00034269D01*
X00013904Y00034342D01*
X00013754Y00034412D01*
X00013603Y00034478D01*
X00013603Y00034478D01*
X00013447Y00034548D01*
X00013297Y00034630D01*
X00013154Y00034723D01*
X00013019Y00034828D01*
X00012892Y00034943D01*
X00012775Y00035067D01*
X00012669Y00035201D01*
X00012573Y00035342D01*
X00012489Y00035491D01*
X00012416Y00035646D01*
X00012357Y00035806D01*
X00012310Y00035970D01*
X00012276Y00036138D01*
X00012256Y00036307D01*
X00012249Y00036478D01*
X00012240Y00036645D01*
X00012214Y00036811D01*
X00012171Y00036973D01*
X00012111Y00037129D01*
X00012035Y00037278D01*
X00011944Y00037419D01*
X00011838Y00037549D01*
X00011720Y00037667D01*
X00011590Y00037773D01*
X00011449Y00037864D01*
X00011300Y00037940D01*
X00011144Y00038000D01*
X00010982Y00038043D01*
X00010816Y00038069D01*
X00010649Y00038078D01*
X00010482Y00038069D01*
X00010316Y00038043D01*
X00010155Y00038000D01*
X00009998Y00037940D01*
X00009849Y00037864D01*
X00009709Y00037773D01*
X00009578Y00037667D01*
X00009460Y00037549D01*
X00009355Y00037419D01*
X00009263Y00037278D01*
X00009187Y00037129D01*
X00009127Y00036973D01*
X00009084Y00036811D01*
X00009058Y00036645D01*
X00009049Y00036478D01*
X00009042Y00036307D01*
X00009022Y00036138D01*
X00008988Y00035970D01*
X00008941Y00035806D01*
X00008882Y00035646D01*
X00008810Y00035491D01*
X00008725Y00035342D01*
X00008629Y00035201D01*
X00008523Y00035067D01*
X00008406Y00034943D01*
X00008279Y00034828D01*
X00008144Y00034723D01*
X00008001Y00034630D01*
X00007851Y00034548D01*
X00007695Y00034478D01*
X00007544Y00034412D01*
X00007395Y00034342D01*
X00007247Y00034269D01*
X00007100Y00034192D01*
X00006956Y00034113D01*
X00006813Y00034030D01*
X00006672Y00033944D01*
X00006533Y00033855D01*
X00006396Y00033763D01*
X00006261Y00033668D01*
X00006129Y00033570D01*
X00005998Y00033469D01*
X00005870Y00033366D01*
X00005744Y00033259D01*
X00005620Y00033150D01*
X00005499Y00033038D01*
X00005380Y00032923D01*
X00005264Y00032806D01*
X00005150Y00032687D01*
X00005039Y00032565D01*
X00004931Y00032440D01*
X00004825Y00032313D01*
X00004723Y00032184D01*
X00004623Y00032053D01*
X00004526Y00031919D01*
X00004432Y00031783D01*
X00004341Y00031646D01*
X00004253Y00031506D01*
X00004168Y00031364D01*
X00004087Y00031221D01*
X00004008Y00031076D01*
X00003933Y00030929D01*
X00003861Y00030781D01*
X00003792Y00030631D01*
X00003727Y00030479D01*
X00003664Y00030326D01*
X00003606Y00030172D01*
X00003550Y00030017D01*
X00003499Y00029860D01*
X00003450Y00029702D01*
X00003405Y00029543D01*
X00003364Y00029384D01*
X00003326Y00029223D01*
X00003291Y00029062D01*
X00003261Y00028900D01*
X00003233Y00028737D01*
X00003220Y00028644D01*
X00003216Y00028624D01*
X00003212Y00028604D01*
X00003206Y00028584D01*
X00003199Y00028564D01*
X00003192Y00028545D01*
X00003183Y00028526D01*
X00003173Y00028507D01*
X00003162Y00028489D01*
X00003151Y00028472D01*
X00003138Y00028455D01*
X00003125Y00028440D01*
X00003110Y00028424D01*
X00003095Y00028410D01*
X00003080Y00028396D01*
X00003063Y00028383D01*
X00003046Y00028372D01*
X00003028Y00028361D01*
X00003010Y00028351D01*
X00002991Y00028342D01*
X00002972Y00028334D01*
X00002897Y00028305D01*
X00002861Y00028293D01*
X00002824Y00028284D01*
X00002786Y00028280D01*
X00002748Y00028278D01*
X00002710Y00028281D01*
X00002672Y00028287D01*
X00002635Y00028297D01*
X00002599Y00028311D01*
X00002565Y00028327D01*
X00002533Y00028347D01*
X00002502Y00028371D01*
X00002474Y00028396D01*
X00002449Y00028425D01*
X00002426Y00028456D01*
X00002407Y00028489D01*
X00002391Y00028523D01*
X00002378Y00028559D01*
X00002369Y00028596D01*
X00002364Y00028634D01*
X00002362Y00028672D01*
X00002362Y00038976D01*
X00000393Y00038976D01*
X00000393Y00000393D01*
X00002362Y00000393D01*
X00002362Y00007547D01*
X00002363Y00007584D01*
X00002369Y00007621D01*
X00002377Y00007657D01*
X00002389Y00007692D01*
X00002404Y00007726D01*
X00002423Y00007758D01*
X00002444Y00007788D01*
X00002468Y00007817D01*
X00002495Y00007842D01*
X00002523Y00007866D01*
X00002554Y00007886D01*
X00002587Y00007903D01*
X00002621Y00007918D01*
X00002657Y00007928D01*
X00002693Y00007936D01*
X00002730Y00007940D01*
X00002767Y00007941D01*
X00002804Y00007938D01*
X00002840Y00007932D01*
X00002876Y00007922D01*
X00002956Y00007896D01*
X00002977Y00007889D01*
X00002997Y00007881D01*
X00003017Y00007871D01*
X00003036Y00007860D01*
X00003055Y00007849D01*
X00003073Y00007836D01*
X00003090Y00007822D01*
X00003106Y00007807D01*
X00003122Y00007792D01*
X00003136Y00007776D01*
X00003150Y00007758D01*
X00003163Y00007740D01*
X00003175Y00007722D01*
X00003185Y00007702D01*
X00003195Y00007683D01*
X00003203Y00007662D01*
X00003210Y00007642D01*
X00003217Y00007620D01*
X00003221Y00007599D01*
X00003225Y00007577D01*
X00003231Y00007538D01*
X00003258Y00007375D01*
X00003288Y00007213D01*
X00003322Y00007052D01*
X00003360Y00006891D01*
X00003401Y00006731D01*
X00003445Y00006572D01*
X00003494Y00006415D01*
X00003545Y00006258D01*
X00003600Y00006102D01*
X00003658Y00005948D01*
X00003720Y00005795D01*
X00003785Y00005643D01*
X00003854Y00005493D01*
X00003925Y00005345D01*
X00004000Y00005198D01*
X00004079Y00005052D01*
X00004160Y00004909D01*
X00004244Y00004767D01*
X00004332Y00004627D01*
X00004423Y00004489D01*
X00004516Y00004353D01*
X00004613Y00004220D01*
X00004712Y00004088D01*
X00004815Y00003959D01*
X00004920Y00003831D01*
X00005028Y00003707D01*
X00005139Y00003584D01*
X00005252Y00003464D01*
X00005368Y00003347D01*
X00005487Y00003232D01*
X00005608Y00003120D01*
X00005731Y00003011D01*
X00005857Y00002904D01*
X00005985Y00002800D01*
X00006115Y00002699D01*
X00006248Y00002601D01*
X00006383Y00002505D01*
X00006520Y00002413D01*
X00006658Y00002324D01*
X00006799Y00002238D01*
X00006942Y00002154D01*
X00007086Y00002075D01*
X00007232Y00001998D01*
X00007380Y00001924D01*
X00007529Y00001854D01*
X00007680Y00001787D01*
X00007832Y00001724D01*
X00007986Y00001663D01*
X00008141Y00001606D01*
X00008297Y00001553D01*
X00008454Y00001503D01*
X00008612Y00001456D01*
X00008772Y00001413D01*
X00008932Y00001374D01*
X00009093Y00001338D01*
X00009255Y00001306D01*
X00009417Y00001277D01*
X00009580Y00001251D01*
X00009744Y00001230D01*
X00009908Y00001212D01*
X00010072Y00001197D01*
X00010237Y00001186D01*
X00010402Y00001179D01*
X00010567Y00001175D01*
X00010732Y00001175D01*
X00010897Y00001179D01*
X00011061Y00001186D01*
X00011226Y00001197D01*
X00011390Y00001212D01*
X00011554Y00001230D01*
X00011718Y00001251D01*
X00011881Y00001277D01*
X00012044Y00001306D01*
X00012205Y00001338D01*
X00012366Y00001374D01*
X00012527Y00001413D01*
X00012686Y00001456D01*
X00012844Y00001503D01*
X00013001Y00001553D01*
X00013158Y00001606D01*
X00013312Y00001663D01*
X00013466Y00001724D01*
X00013618Y00001787D01*
X00013769Y00001854D01*
X00013918Y00001924D01*
X00014066Y00001998D01*
X00014212Y00002075D01*
X00014357Y00002154D01*
X00014499Y00002238D01*
X00014640Y00002324D01*
X00014779Y00002413D01*
X00014915Y00002505D01*
X00015050Y00002601D01*
X00015183Y00002699D01*
X00015313Y00002800D01*
X00015441Y00002904D01*
X00015567Y00003011D01*
X00015691Y00003120D01*
X00015812Y00003232D01*
X00015930Y00003347D01*
X00016046Y00003464D01*
X00016159Y00003584D01*
X00016270Y00003707D01*
X00016378Y00003831D01*
X00016483Y00003959D01*
X00016586Y00004088D01*
X00016685Y00004220D01*
X00016782Y00004353D01*
X00016876Y00004489D01*
X00016966Y00004627D01*
X00017054Y00004767D01*
X00017138Y00004909D01*
X00017220Y00005052D01*
X00017298Y00005198D01*
X00017373Y00005345D01*
X00017444Y00005493D01*
X00017513Y00005643D01*
X00017578Y00005795D01*
X00017640Y00005948D01*
X00017698Y00006102D01*
X00017753Y00006258D01*
X00017805Y00006415D01*
X00017853Y00006572D01*
X00017897Y00006731D01*
X00017938Y00006891D01*
X00017976Y00007052D01*
X00018010Y00007213D01*
X00018041Y00007375D01*
X00018067Y00007538D01*
X00018071Y00007562D01*
X00018075Y00007587D01*
X00018081Y00007612D01*
X00018089Y00007637D01*
X00018098Y00007661D01*
X00018109Y00007684D01*
X00018122Y00007706D01*
X00018135Y00007728D01*
X00018150Y00007749D01*
X00018167Y00007768D01*
X00018185Y00007787D01*
X00018203Y00007804D01*
X00018223Y00007821D01*
X00018244Y00007835D01*
X00018266Y00007849D01*
X00018289Y00007861D01*
X00018313Y00007871D01*
X00018337Y00007880D01*
X00018361Y00007887D01*
X00018386Y00007893D01*
X00018412Y00007897D01*
X00018535Y00007912D01*
X00018565Y00007915D01*
X00018596Y00007915D01*
X00018626Y00007913D01*
X00018656Y00007909D01*
X00018686Y00007902D01*
X00018715Y00007893D01*
X00018744Y00007881D01*
X00018771Y00007868D01*
X00018797Y00007852D01*
X00018822Y00007835D01*
X00018846Y00007815D01*
X00018868Y00007794D01*
X00018888Y00007771D01*
X00018907Y00007746D01*
X00018923Y00007721D01*
X00018938Y00007694D01*
X00018950Y00007666D01*
X00018960Y00007637D01*
X00018968Y00007607D01*
X00018973Y00007577D01*
X00018979Y00007538D01*
X00019006Y00007375D01*
X00019036Y00007213D01*
X00019070Y00007052D01*
X00019108Y00006891D01*
X00019149Y00006731D01*
X00019194Y00006572D01*
X00019242Y00006415D01*
X00019293Y00006258D01*
X00019348Y00006102D01*
X00019406Y00005948D01*
X00019468Y00005795D01*
X00019533Y00005643D01*
X00019602Y00005493D01*
X00019673Y00005345D01*
X00019748Y00005198D01*
X00019827Y00005052D01*
X00019908Y00004909D01*
X00019992Y00004767D01*
X00020080Y00004627D01*
X00020171Y00004489D01*
X00020264Y00004353D01*
X00020361Y00004220D01*
X00020460Y00004088D01*
X00020563Y00003959D01*
X00020668Y00003831D01*
X00020776Y00003707D01*
X00020887Y00003584D01*
X00021000Y00003464D01*
X00021116Y00003347D01*
X00021235Y00003232D01*
X00021356Y00003120D01*
X00021479Y00003011D01*
X00021605Y00002904D01*
X00021733Y00002800D01*
X00021863Y00002699D01*
X00021996Y00002601D01*
X00022131Y00002505D01*
X00022268Y00002413D01*
X00022406Y00002324D01*
X00022547Y00002238D01*
X00022690Y00002154D01*
X00022834Y00002075D01*
X00022980Y00001998D01*
X00023128Y00001924D01*
X00023277Y00001854D01*
X00023428Y00001787D01*
X00023580Y00001724D01*
X00023734Y00001663D01*
X00023889Y00001606D01*
X00024045Y00001553D01*
X00024202Y00001503D01*
X00024360Y00001456D01*
X00024520Y00001413D01*
X00024680Y00001374D01*
X00024841Y00001338D01*
X00025003Y00001306D01*
X00025165Y00001277D01*
X00025328Y00001251D01*
X00025492Y00001230D01*
X00025656Y00001212D01*
X00025820Y00001197D01*
X00025985Y00001186D01*
X00026150Y00001179D01*
X00026315Y00001175D01*
X00026480Y00001175D01*
X00026645Y00001179D01*
X00026809Y00001186D01*
X00026974Y00001197D01*
X00027138Y00001212D01*
X00027302Y00001230D01*
X00027466Y00001251D01*
X00027629Y00001277D01*
X00027792Y00001306D01*
X00027953Y00001338D01*
X00028114Y00001374D01*
X00028275Y00001413D01*
X00028434Y00001456D01*
X00028592Y00001503D01*
X00028749Y00001553D01*
X00028906Y00001606D01*
X00029060Y00001663D01*
X00029214Y00001724D01*
X00029366Y00001787D01*
X00029517Y00001854D01*
X00029666Y00001924D01*
X00029814Y00001998D01*
X00029960Y00002075D01*
X00030105Y00002154D01*
X00030247Y00002238D01*
X00030388Y00002324D01*
X00030527Y00002413D01*
X00030664Y00002505D01*
X00030798Y00002601D01*
X00030931Y00002699D01*
X00031061Y00002800D01*
X00031189Y00002904D01*
X00031315Y00003011D01*
X00031439Y00003120D01*
X00031560Y00003232D01*
X00031678Y00003347D01*
X00031794Y00003464D01*
X00031908Y00003584D01*
X00032018Y00003707D01*
X00032126Y00003831D01*
X00032231Y00003959D01*
X00032334Y00004088D01*
X00032433Y00004220D01*
X00032530Y00004353D01*
X00032624Y00004489D01*
X00032714Y00004627D01*
X00032802Y00004767D01*
X00032886Y00004909D01*
X00032968Y00005052D01*
X00033046Y00005198D01*
X00033121Y00005345D01*
X00033192Y00005493D01*
X00033261Y00005643D01*
X00033326Y00005795D01*
X00033388Y00005948D01*
X00033446Y00006102D01*
X00033501Y00006258D01*
X00033553Y00006415D01*
X00033601Y00006572D01*
X00033645Y00006731D01*
X00033686Y00006891D01*
X00033724Y00007052D01*
X00033758Y00007213D01*
X00033789Y00007375D01*
X00033815Y00007538D01*
X00033819Y00007562D01*
X00033821Y00007575D01*
X00033823Y00007588D01*
X00033826Y00007600D01*
X00033830Y00007613D01*
X00033833Y00007626D01*
X00033838Y00007638D01*
X00033842Y00007650D01*
X00033847Y00007662D01*
X00033853Y00007674D01*
X00033858Y00007686D01*
X00033864Y00007698D01*
X00033871Y00007709D01*
X00033878Y00007720D01*
X00033885Y00007731D01*
X00033893Y00007742D01*
X00033901Y00007752D01*
X00033909Y00007762D01*
X00033918Y00007772D01*
X00033927Y00007781D01*
X00033936Y00007790D01*
X00033979Y00007832D01*
X00034014Y00007861D01*
X00034052Y00007887D01*
X00034093Y00007908D01*
X00034136Y00007924D01*
X00034181Y00007935D01*
X00034226Y00007940D01*
X00034272Y00007941D01*
X00034318Y00007935D01*
X00034363Y00007925D01*
X00034406Y00007909D01*
X00034447Y00007889D01*
X00034486Y00007864D01*
X00034521Y00007834D01*
X00034552Y00007801D01*
X00034580Y00007764D01*
X00034603Y00007725D01*
X00034621Y00007682D01*
X00034634Y00007638D01*
X00034642Y00007593D01*
X00034645Y00007547D01*
X00034645Y00000393D01*
X00036614Y00000393D01*
X00036614Y00038976D01*
X00034645Y00038976D01*
X00034645Y00028672D01*
X00034642Y00028624D01*
X00034634Y00028577D01*
X00034619Y00028532D01*
X00034599Y00028488D01*
X00034575Y00028447D01*
X00034545Y00028410D01*
X00034511Y00028376D01*
X00034473Y00028347D01*
X00034432Y00028322D01*
X00034388Y00028303D01*
X00034342Y00028289D01*
X00034295Y00028281D01*
X00034247Y00028278D01*
X00034199Y00028282D01*
X00034152Y00028291D01*
X00034107Y00028306D01*
X00034064Y00028326D01*
X00034023Y00028352D01*
X00033986Y00028382D01*
X00033952Y00028416D01*
X00033915Y00028460D01*
X00033908Y00028469D01*
X00033901Y00028477D01*
X00033894Y00028486D01*
X00033888Y00028495D01*
X00033882Y00028505D01*
X00033876Y00028514D01*
X00033870Y00028524D01*
X00033865Y00028533D01*
X00033860Y00028543D01*
X00033855Y00028553D01*
X00033851Y00028564D01*
X00033847Y00028574D01*
X00033843Y00028584D01*
X00033839Y00028595D01*
X00033836Y00028605D01*
X00033833Y00028616D01*
X00033830Y00028627D01*
X00033828Y00028638D01*
X00033826Y00028649D01*
X00033824Y00028660D01*
X00033813Y00028737D01*
X00033786Y00028900D01*
X00033755Y00029062D01*
X00033720Y00029223D01*
X00033683Y00029384D01*
X00033641Y00029543D01*
X00033596Y00029702D01*
X00033548Y00029860D01*
X00033496Y00030017D01*
X00033440Y00030172D01*
X00033382Y00030326D01*
X00033320Y00030479D01*
X00033254Y00030631D01*
X00033185Y00030781D01*
X00033113Y00030929D01*
X00033038Y00031076D01*
X00032960Y00031221D01*
X00032878Y00031364D01*
X00032793Y00031506D01*
X00032705Y00031646D01*
X00032614Y00031783D01*
X00032520Y00031919D01*
X00032424Y00032053D01*
X00032324Y00032184D01*
X00032221Y00032313D01*
X00032116Y00032440D01*
X00032007Y00032564D01*
X00031896Y00032687D01*
X00031783Y00032806D01*
X00031666Y00032923D01*
X00031548Y00033038D01*
X00031426Y00033150D01*
X00031303Y00033259D01*
X00031177Y00033366D01*
X00031048Y00033469D01*
X00030918Y00033570D01*
X00030785Y00033668D01*
X00030650Y00033763D01*
X00030513Y00033855D01*
X00030374Y00033944D01*
X00030233Y00034030D01*
X00030090Y00034113D01*
X00029946Y00034192D01*
X00029800Y00034269D01*
X00029652Y00034342D01*
X00029502Y00034412D01*
X00029351Y00034478D01*
X00029351Y00034478D01*
X00029195Y00034548D01*
X00029045Y00034630D01*
X00028902Y00034723D01*
X00028767Y00034828D01*
X00028640Y00034943D01*
X00028524Y00035067D01*
X00028417Y00035201D01*
X00028321Y00035342D01*
X00028237Y00035491D01*
X00028164Y00035646D01*
X00028105Y00035806D01*
X00028058Y00035970D01*
X00028024Y00036138D01*
X00028004Y00036307D01*
X00027997Y00036478D01*
X00027988Y00036645D01*
X00027962Y00036811D01*
X00027919Y00036973D01*
X00027859Y00037129D01*
X00027783Y00037278D01*
X00027692Y00037419D01*
X00027586Y00037549D01*
X00027468Y00037667D01*
X00027338Y00037773D01*
X00027197Y00037864D01*
X00027048Y00037940D01*
X00026892Y00038000D01*
X00026730Y00038043D01*
X00026564Y00038069D01*
X00026397Y00038078D01*
X00026230Y00038069D01*
X00026064Y00038043D01*
X00025903Y00038000D01*
X00025746Y00037940D01*
X00025597Y00037864D01*
X00025457Y00037773D01*
X00025327Y00037667D01*
X00025208Y00037549D01*
X00025103Y00037419D01*
X00025011Y00037278D01*
X00024935Y00037129D01*
X00024875Y00036973D01*
X00024832Y00036811D01*
X00024806Y00036645D01*
X00024797Y00036478D01*
X00024790Y00036307D01*
X00024770Y00036138D01*
X00024736Y00035970D01*
X00024690Y00035806D01*
X00024630Y00035646D01*
X00024558Y00035491D01*
X00024473Y00035342D01*
X00024377Y00035201D01*
X00024271Y00035067D01*
X00024154Y00034943D01*
X00024027Y00034828D01*
X00023892Y00034723D01*
X00023749Y00034630D01*
X00023599Y00034548D01*
X00023443Y00034478D01*
X00023292Y00034412D01*
X00023143Y00034342D01*
X00022995Y00034269D01*
X00022848Y00034192D01*
X00022704Y00034113D01*
X00022561Y00034030D01*
X00022420Y00033944D01*
X00022281Y00033855D01*
X00022144Y00033763D01*
X00022009Y00033668D01*
X00021877Y00033570D01*
X00021746Y00033469D01*
X00021618Y00033366D01*
X00021492Y00033259D01*
X00021368Y00033150D01*
X00021247Y00033038D01*
X00021128Y00032923D01*
X00021012Y00032806D01*
X00020898Y00032687D01*
X00020787Y00032565D01*
X00020679Y00032440D01*
X00020573Y00032313D01*
X00020471Y00032184D01*
X00020371Y00032053D01*
X00020274Y00031919D01*
X00020180Y00031783D01*
X00020089Y00031646D01*
X00020001Y00031506D01*
X00019916Y00031364D01*
X00019835Y00031221D01*
X00019756Y00031076D01*
X00019681Y00030929D01*
X00019609Y00030781D01*
X00019540Y00030631D01*
X00019475Y00030479D01*
X00019413Y00030326D01*
X00019354Y00030172D01*
X00019298Y00030017D01*
X00019247Y00029860D01*
X00019198Y00029702D01*
X00019153Y00029543D01*
X00019112Y00029384D01*
X00019074Y00029223D01*
X00019039Y00029062D01*
X00019009Y00028900D01*
X00018981Y00028737D01*
X00018968Y00028644D01*
X00002362Y00026445D02*
X00002362Y00026445D01*
X00002363Y00026482D01*
X00002369Y00026519D01*
X00002377Y00026555D01*
X00002389Y00026590D01*
X00002404Y00026623D01*
X00002423Y00026656D01*
X00002444Y00026686D01*
X00002468Y00026714D01*
X00002495Y00026740D01*
X00002523Y00026763D01*
X00002554Y00026784D01*
X00002587Y00026801D01*
X00002621Y00026815D01*
X00002657Y00026826D01*
X00002693Y00026834D01*
X00002730Y00026838D01*
X00002767Y00026839D01*
X00002804Y00026836D01*
X00002840Y00026829D01*
X00002876Y00026820D01*
X00002956Y00026794D01*
X00002977Y00026787D01*
X00002997Y00026778D01*
X00003017Y00026769D01*
X00003036Y00026758D01*
X00003055Y00026746D01*
X00003073Y00026734D01*
X00003090Y00026720D01*
X00003106Y00026705D01*
X00003122Y00026690D01*
X00003136Y00026673D01*
X00003150Y00026656D01*
X00003163Y00026638D01*
X00003175Y00026619D01*
X00003185Y00026600D01*
X00003195Y00026580D01*
X00003203Y00026560D01*
X00003210Y00026539D01*
X00003217Y00026518D01*
X00003221Y00026497D01*
X00003225Y00026475D01*
X00003231Y00026436D01*
X00003258Y00026273D01*
X00003288Y00026111D01*
X00003322Y00025949D01*
X00003360Y00025789D01*
X00003401Y00025629D01*
X00003445Y00025470D01*
X00003494Y00025312D01*
X00003545Y00025156D01*
X00003600Y00025000D01*
X00003658Y00024846D01*
X00003720Y00024693D01*
X00003785Y00024541D01*
X00003854Y00024391D01*
X00003925Y00024242D01*
X00004000Y00024095D01*
X00004079Y00023950D01*
X00004160Y00023806D01*
X00004244Y00023665D01*
X00004332Y00023525D01*
X00004423Y00023387D01*
X00004516Y00023251D01*
X00004613Y00023117D01*
X00004712Y00022986D01*
X00004815Y00022856D01*
X00004920Y00022729D01*
X00005028Y00022604D01*
X00005139Y00022482D01*
X00005252Y00022362D01*
X00005368Y00022245D01*
X00005487Y00022130D01*
X00005608Y00022018D01*
X00005731Y00021908D01*
X00005857Y00021801D01*
X00005985Y00021698D01*
X00006115Y00021596D01*
X00006248Y00021498D01*
X00006383Y00021403D01*
X00006520Y00021311D01*
X00006658Y00021221D01*
X00006799Y00021135D01*
X00006942Y00021052D01*
X00007086Y00020972D01*
X00007232Y00020895D01*
X00007380Y00020822D01*
X00007529Y00020752D01*
X00007680Y00020685D01*
X00007832Y00020621D01*
X00007986Y00020561D01*
X00008141Y00020504D01*
X00008297Y00020451D01*
X00008454Y00020401D01*
X00008612Y00020354D01*
X00008772Y00020311D01*
X00008932Y00020272D01*
X00009093Y00020236D01*
X00009255Y00020203D01*
X00009417Y00020174D01*
X00009546Y00020154D01*
X00009571Y00020149D01*
X00009597Y00020143D01*
X00009622Y00020135D01*
X00009646Y00020125D01*
X00009669Y00020113D01*
X00009692Y00020100D01*
X00009714Y00020086D01*
X00009735Y00020070D01*
X00009754Y00020053D01*
X00009773Y00020034D01*
X00009790Y00020015D01*
X00009806Y00019994D01*
X00009820Y00019972D01*
X00009833Y00019949D01*
X00009845Y00019926D01*
X00009855Y00019901D01*
X00009863Y00019877D01*
X00009870Y00019851D01*
X00009874Y00019826D01*
X00009878Y00019800D01*
X00009925Y00019264D01*
X00009926Y00019243D01*
X00009926Y00019222D01*
X00009925Y00019200D01*
X00009923Y00019179D01*
X00009919Y00019158D01*
X00009915Y00019137D01*
X00009909Y00019117D01*
X00009903Y00019097D01*
X00009895Y00019077D01*
X00009886Y00019057D01*
X00009876Y00019038D01*
X00009865Y00019020D01*
X00009854Y00019002D01*
X00009841Y00018985D01*
X00009827Y00018969D01*
X00009813Y00018954D01*
X00009797Y00018939D01*
X00009781Y00018925D01*
X00009764Y00018912D01*
X00009747Y00018900D01*
X00009709Y00018875D01*
X00009578Y00018770D01*
X00009460Y00018651D01*
X00009355Y00018521D01*
X00009263Y00018381D01*
X00009187Y00018231D01*
X00009127Y00018075D01*
X00009084Y00017913D01*
X00009058Y00017748D01*
X00009049Y00017581D01*
X00009042Y00017410D01*
X00009022Y00017240D01*
X00008988Y00017073D01*
X00008941Y00016908D01*
X00008882Y00016748D01*
X00008810Y00016593D01*
X00008725Y00016445D01*
X00008629Y00016303D01*
X00008523Y00016170D01*
X00008406Y00016045D01*
X00008279Y00015930D01*
X00008144Y00015826D01*
X00008001Y00015732D01*
X00007851Y00015650D01*
X00007695Y00015581D01*
X00007544Y00015514D01*
X00007395Y00015444D01*
X00007247Y00015371D01*
X00007100Y00015295D01*
X00006956Y00015215D01*
X00006813Y00015132D01*
X00006672Y00015046D01*
X00006533Y00014957D01*
X00006396Y00014865D01*
X00006261Y00014770D01*
X00006129Y00014672D01*
X00005998Y00014572D01*
X00005870Y00014468D01*
X00005744Y00014361D01*
X00005620Y00014252D01*
X00005499Y00014140D01*
X00005380Y00014026D01*
X00005264Y00013909D01*
X00005150Y00013789D01*
X00005039Y00013667D01*
X00004931Y00013542D01*
X00004825Y00013415D01*
X00004723Y00013286D01*
X00004623Y00013155D01*
X00004526Y00013021D01*
X00004432Y00012886D01*
X00004341Y00012748D01*
X00004253Y00012608D01*
X00004168Y00012467D01*
X00004087Y00012323D01*
X00004008Y00012178D01*
X00003933Y00012031D01*
X00003861Y00011883D01*
X00003792Y00011733D01*
X00003727Y00011581D01*
X00003664Y00011429D01*
X00003606Y00011274D01*
X00003550Y00011119D01*
X00003499Y00010962D01*
X00003450Y00010805D01*
X00003405Y00010646D01*
X00003364Y00010486D01*
X00003326Y00010326D01*
X00003291Y00010164D01*
X00003261Y00010002D01*
X00003233Y00009839D01*
X00003220Y00009747D01*
X00003216Y00009726D01*
X00003212Y00009706D01*
X00003206Y00009686D01*
X00003199Y00009666D01*
X00003192Y00009647D01*
X00003183Y00009628D01*
X00003173Y00009610D01*
X00003162Y00009592D01*
X00003151Y00009574D01*
X00003138Y00009558D01*
X00003125Y00009542D01*
X00003110Y00009527D01*
X00003095Y00009512D01*
X00003080Y00009499D01*
X00003063Y00009486D01*
X00003046Y00009474D01*
X00003028Y00009463D01*
X00003010Y00009453D01*
X00002991Y00009444D01*
X00002972Y00009436D01*
X00002897Y00009407D01*
X00002861Y00009395D01*
X00002824Y00009387D01*
X00002786Y00009382D01*
X00002748Y00009381D01*
X00002710Y00009383D01*
X00002672Y00009390D01*
X00002635Y00009400D01*
X00002599Y00009413D01*
X00002565Y00009430D01*
X00002533Y00009450D01*
X00002502Y00009473D01*
X00002474Y00009499D01*
X00002449Y00009527D01*
X00002426Y00009558D01*
X00002407Y00009591D01*
X00002391Y00009626D01*
X00002378Y00009662D01*
X00002369Y00009699D01*
X00002364Y00009736D01*
X00002362Y00009774D01*
X00002362Y00026445D01*
M02*