%
M48
METRIC,000.000
T01C0.50
%
T01
X006250Y067607
X006250Y068607
X006250Y069607
X006250Y070607
X006250Y071607
X006250Y072607
X007856Y072211
X007771Y071215
X007737Y070215
X007753Y069215
X007823Y068218
X007943Y067225
X046247Y067925
X046330Y068921
X046363Y069920
X046344Y070920
X046273Y071917
X047856Y072211
X047771Y071215
X047737Y070215
X047753Y069215
X047823Y068218
X047943Y067225
X007856Y024211
X007771Y023215
X007737Y022215
X007753Y021215
X007823Y020218
X007943Y019225
X006250Y019607
X006250Y020607
X006250Y021607
X006250Y022607
X006250Y023607
X006250Y024607
X028656Y048654
X027694Y048916
X026697Y048951
X025719Y048759
X024813Y048340
X028258Y050774
X029254Y050862
X024552Y050898
X025546Y050794
X026545Y050742
X046247Y019925
X046330Y020921
X046363Y021920
X046344Y022920
X046273Y023917
X047856Y024211
X047771Y023215
X047737Y022215
X047753Y021215
X047823Y020218
X047943Y019225
X068258Y050774
X069254Y050862
X064552Y050898
X065546Y050794
X066545Y050742
X068656Y048654
X067694Y048916
X066697Y048951
X065719Y048759
X064813Y048340
X086247Y019925
X086330Y020921
X086363Y021920
X086344Y022920
X086273Y023917
X087750Y024178
X087750Y023178
X087750Y022178
X087750Y021178
X087750Y020178
X087750Y019178
X086247Y067925
X086330Y068921
X086363Y069920
X086344Y070920
X086273Y071917
X087750Y072178
X087750Y071178
X087750Y070178
X087750Y069178
X087750Y068178
X087750Y067178
M30