G04 #@! TF.GenerationSoftware,KiCad,Pcbnew,(5.0.1)-3*
G04 #@! TF.CreationDate,2019-02-13T00:36:36-08:00*
G04 #@! TF.ProjectId,ruddock_crest,727564646F636B5F63726573742E6B69,A*
G04 #@! TF.SameCoordinates,Original*
G04 #@! TF.FileFunction,Legend,Top*
G04 #@! TF.FilePolarity,Positive*
%FSLAX46Y46*%
G04 Gerber Fmt 4.6, Leading zero omitted, Abs format (unit mm)*
G04 Created by KiCad (PCBNEW (5.0.1)-3) date 2/13/2019 12:36:36 AM*
%MOMM*%
%LPD*%
G01*
G04 APERTURE LIST*
%ADD10C,0.150000*%
%ADD11C,0.500000*%
G04 APERTURE END LIST*
D10*
G36*
X148082000Y-90424000D02*
X141986000Y-88900000D01*
X144272000Y-87376000D01*
X144526000Y-84328000D01*
X143256000Y-82296000D01*
X146558000Y-84328000D01*
X148082000Y-87630000D01*
X148082000Y-90424000D01*
G37*
X148082000Y-90424000D02*
X141986000Y-88900000D01*
X144272000Y-87376000D01*
X144526000Y-84328000D01*
X143256000Y-82296000D01*
X146558000Y-84328000D01*
X148082000Y-87630000D01*
X148082000Y-90424000D01*
G36*
X133858000Y-90424000D02*
X139954000Y-88900000D01*
X137668000Y-87376000D01*
X137414000Y-84328000D01*
X138938000Y-82042000D01*
X135128000Y-84582000D01*
X133858000Y-87630000D01*
X133858000Y-90424000D01*
G37*
X133858000Y-90424000D02*
X139954000Y-88900000D01*
X137668000Y-87376000D01*
X137414000Y-84328000D01*
X138938000Y-82042000D01*
X135128000Y-84582000D01*
X133858000Y-87630000D01*
X133858000Y-90424000D01*
D11*
X133848968Y-90387290D02*
G75*
G02X148081999Y-90437999I7121032J1242290D01*
G01*
X133852076Y-90390736D02*
G75*
G02X148081999Y-90423999I7117924J1250736D01*
G01*
X144526000Y-85471000D02*
G75*
G03X144526000Y-85471000I-3556000J0D01*
G01*
X159820000Y-107950000D02*
G75*
G03X159820000Y-107950000I-18850000J0D01*
G01*
M02*
