G04 #@! TF.GenerationSoftware,KiCad,Pcbnew,(5.0.1)-3*
G04 #@! TF.CreationDate,2019-02-13T15:59:19-08:00*
G04 #@! TF.ProjectId,ruddock_crest,727564646F636B5F63726573742E6B69,A*
G04 #@! TF.SameCoordinates,Original*
G04 #@! TF.FileFunction,Soldermask,Bot*
G04 #@! TF.FilePolarity,Negative*
%FSLAX46Y46*%
G04 Gerber Fmt 4.6, Leading zero omitted, Abs format (unit mm)*
G04 Created by KiCad (PCBNEW (5.0.1)-3) date 2/13/2019 3:59:19 PM*
%MOMM*%
%LPD*%
G01*
G04 APERTURE LIST*
%ADD10C,0.100000*%
G04 APERTURE END LIST*
D10*
G36*
X141651870Y-82420859D02*
X141845068Y-82459288D01*
X142391033Y-82685434D01*
X142879077Y-83011535D01*
X142882392Y-83013750D01*
X143300250Y-83431608D01*
X143300252Y-83431611D01*
X143628566Y-83922967D01*
X143854712Y-84468932D01*
X143970000Y-85048526D01*
X143970000Y-85639474D01*
X143854712Y-86219068D01*
X143628566Y-86765033D01*
X143302465Y-87253077D01*
X143300250Y-87256392D01*
X142882392Y-87674250D01*
X142882389Y-87674252D01*
X142391033Y-88002566D01*
X141845068Y-88228712D01*
X141651870Y-88267141D01*
X141265476Y-88344000D01*
X140674524Y-88344000D01*
X140288130Y-88267141D01*
X140094932Y-88228712D01*
X139548967Y-88002566D01*
X139057611Y-87674252D01*
X139057608Y-87674250D01*
X138639750Y-87256392D01*
X138637535Y-87253077D01*
X138311434Y-86765033D01*
X138085288Y-86219068D01*
X137970000Y-85639474D01*
X137970000Y-85048526D01*
X138085288Y-84468932D01*
X138311434Y-83922967D01*
X138639748Y-83431611D01*
X138639750Y-83431608D01*
X139057608Y-83013750D01*
X139060923Y-83011535D01*
X139548967Y-82685434D01*
X140094932Y-82459288D01*
X140288130Y-82420859D01*
X140674524Y-82344000D01*
X141265476Y-82344000D01*
X141651870Y-82420859D01*
X141651870Y-82420859D01*
G37*
M02*
