G04 #@! TF.GenerationSoftware,KiCad,Pcbnew,(5.1.5)-3*
G04 #@! TF.CreationDate,2019-12-21T18:44:43-08:00*
G04 #@! TF.ProjectId,mole_keychain,6d6f6c65-5f6b-4657-9963-6861696e2e6b,A*
G04 #@! TF.SameCoordinates,Original*
G04 #@! TF.FileFunction,Soldermask,Bot*
G04 #@! TF.FilePolarity,Negative*
%FSLAX46Y46*%
G04 Gerber Fmt 4.6, Leading zero omitted, Abs format (unit mm)*
G04 Created by KiCad (PCBNEW (5.1.5)-3) date 2019-12-21 18:44:43*
%MOMM*%
%LPD*%
G04 APERTURE LIST*
%ADD10C,0.010000*%
%ADD11C,0.100000*%
G04 APERTURE END LIST*
D10*
G36*
X21447635Y22935203D02*
G01*
X21093818Y22915236D01*
X20670315Y22885786D01*
X20208603Y22849616D01*
X19740164Y22809487D01*
X19296474Y22768163D01*
X18909014Y22728406D01*
X18609262Y22692978D01*
X18428698Y22664640D01*
X18390975Y22652531D01*
X18416639Y22571742D01*
X18547793Y22427492D01*
X18749149Y22250422D01*
X18985422Y22071175D01*
X19221323Y21920393D01*
X19256170Y21901227D01*
X19399271Y21831139D01*
X19544343Y21782365D01*
X19723188Y21751894D01*
X19967606Y21736718D01*
X20309397Y21733825D01*
X20780363Y21740207D01*
X20927909Y21743014D01*
X21696388Y21743859D01*
X22392234Y21716588D01*
X22993090Y21663362D01*
X23476598Y21586343D01*
X23820400Y21487695D01*
X23888131Y21456727D01*
X24078033Y21390275D01*
X24312148Y21348005D01*
X24533938Y21334469D01*
X24686862Y21354223D01*
X24722667Y21389506D01*
X24657657Y21566211D01*
X24484621Y21799744D01*
X24236551Y22053188D01*
X23946436Y22289627D01*
X23872395Y22340959D01*
X23280005Y22647413D01*
X22592929Y22851818D01*
X21861007Y22940361D01*
X21700287Y22942925D01*
X21447635Y22935203D01*
G37*
X21447635Y22935203D02*
X21093818Y22915236D01*
X20670315Y22885786D01*
X20208603Y22849616D01*
X19740164Y22809487D01*
X19296474Y22768163D01*
X18909014Y22728406D01*
X18609262Y22692978D01*
X18428698Y22664640D01*
X18390975Y22652531D01*
X18416639Y22571742D01*
X18547793Y22427492D01*
X18749149Y22250422D01*
X18985422Y22071175D01*
X19221323Y21920393D01*
X19256170Y21901227D01*
X19399271Y21831139D01*
X19544343Y21782365D01*
X19723188Y21751894D01*
X19967606Y21736718D01*
X20309397Y21733825D01*
X20780363Y21740207D01*
X20927909Y21743014D01*
X21696388Y21743859D01*
X22392234Y21716588D01*
X22993090Y21663362D01*
X23476598Y21586343D01*
X23820400Y21487695D01*
X23888131Y21456727D01*
X24078033Y21390275D01*
X24312148Y21348005D01*
X24533938Y21334469D01*
X24686862Y21354223D01*
X24722667Y21389506D01*
X24657657Y21566211D01*
X24484621Y21799744D01*
X24236551Y22053188D01*
X23946436Y22289627D01*
X23872395Y22340959D01*
X23280005Y22647413D01*
X22592929Y22851818D01*
X21861007Y22940361D01*
X21700287Y22942925D01*
X21447635Y22935203D01*
G36*
X21021334Y20586888D02*
G01*
X20977333Y20511094D01*
X20975888Y20319671D01*
X20981179Y20235333D01*
X20989268Y20046034D01*
X20998159Y19715448D01*
X21007317Y19271614D01*
X21016209Y18742573D01*
X21024300Y18156365D01*
X21029531Y17695333D01*
X21039676Y16946955D01*
X21055167Y16344463D01*
X21079128Y15864424D01*
X21114685Y15483406D01*
X21164962Y15177976D01*
X21233086Y14924700D01*
X21322182Y14700147D01*
X21435375Y14480883D01*
X21465234Y14428585D01*
X21618932Y14207288D01*
X21826607Y13963530D01*
X22051442Y13734197D01*
X22256621Y13556177D01*
X22405327Y13466355D01*
X22429986Y13462000D01*
X22569925Y13434076D01*
X22652213Y13406462D01*
X22741592Y13391688D01*
X22768182Y13467401D01*
X22743871Y13670054D01*
X22741956Y13681629D01*
X22715981Y13897843D01*
X22686951Y14235377D01*
X22658574Y14646353D01*
X22636469Y15043333D01*
X22585969Y16074332D01*
X22812345Y16300708D01*
X22998334Y16452126D01*
X23181106Y16491258D01*
X23331801Y16472102D01*
X23593368Y16444467D01*
X23718501Y16499438D01*
X23727072Y16654492D01*
X23689882Y16787038D01*
X23471304Y17189462D01*
X23131492Y17505874D01*
X23010677Y17577254D01*
X22839887Y17690688D01*
X22713522Y17847038D01*
X22617395Y18079002D01*
X22537318Y18419276D01*
X22470737Y18821706D01*
X22371724Y19358831D01*
X22248619Y19756740D01*
X22085947Y20045332D01*
X21868234Y20254507D01*
X21667729Y20373210D01*
X21410900Y20489590D01*
X21191943Y20570426D01*
X21124333Y20587504D01*
X21021334Y20586888D01*
G37*
X21021334Y20586888D02*
X20977333Y20511094D01*
X20975888Y20319671D01*
X20981179Y20235333D01*
X20989268Y20046034D01*
X20998159Y19715448D01*
X21007317Y19271614D01*
X21016209Y18742573D01*
X21024300Y18156365D01*
X21029531Y17695333D01*
X21039676Y16946955D01*
X21055167Y16344463D01*
X21079128Y15864424D01*
X21114685Y15483406D01*
X21164962Y15177976D01*
X21233086Y14924700D01*
X21322182Y14700147D01*
X21435375Y14480883D01*
X21465234Y14428585D01*
X21618932Y14207288D01*
X21826607Y13963530D01*
X22051442Y13734197D01*
X22256621Y13556177D01*
X22405327Y13466355D01*
X22429986Y13462000D01*
X22569925Y13434076D01*
X22652213Y13406462D01*
X22741592Y13391688D01*
X22768182Y13467401D01*
X22743871Y13670054D01*
X22741956Y13681629D01*
X22715981Y13897843D01*
X22686951Y14235377D01*
X22658574Y14646353D01*
X22636469Y15043333D01*
X22585969Y16074332D01*
X22812345Y16300708D01*
X22998334Y16452126D01*
X23181106Y16491258D01*
X23331801Y16472102D01*
X23593368Y16444467D01*
X23718501Y16499438D01*
X23727072Y16654492D01*
X23689882Y16787038D01*
X23471304Y17189462D01*
X23131492Y17505874D01*
X23010677Y17577254D01*
X22839887Y17690688D01*
X22713522Y17847038D01*
X22617395Y18079002D01*
X22537318Y18419276D01*
X22470737Y18821706D01*
X22371724Y19358831D01*
X22248619Y19756740D01*
X22085947Y20045332D01*
X21868234Y20254507D01*
X21667729Y20373210D01*
X21410900Y20489590D01*
X21191943Y20570426D01*
X21124333Y20587504D01*
X21021334Y20586888D01*
G36*
X16864808Y22478725D02*
G01*
X16848667Y22476234D01*
X16208729Y22315696D01*
X15685352Y22064055D01*
X15290760Y21729903D01*
X15037177Y21321829D01*
X14984954Y21166666D01*
X14936994Y20948760D01*
X14930663Y20751056D01*
X14971001Y20515236D01*
X15063045Y20182976D01*
X15072737Y20150666D01*
X15192975Y19742599D01*
X15257162Y19467904D01*
X15257797Y19297730D01*
X15187378Y19203225D01*
X15038403Y19155537D01*
X14806338Y19126136D01*
X14230123Y18985482D01*
X13720313Y18705457D01*
X13345067Y18346727D01*
X13134860Y17960431D01*
X13042287Y17468246D01*
X13067548Y16866519D01*
X13210841Y16151595D01*
X13472367Y15319821D01*
X13517007Y15197666D01*
X13655774Y14859204D01*
X13807430Y14589690D01*
X14000965Y14359779D01*
X14265371Y14140128D01*
X14629636Y13901391D01*
X15028333Y13667865D01*
X15440051Y13425961D01*
X15864453Y13164754D01*
X16240217Y12922504D01*
X16424172Y12796983D01*
X16973344Y12408893D01*
X18075172Y12352644D01*
X19148044Y12300174D01*
X20071886Y12259856D01*
X20843541Y12231766D01*
X21459854Y12215978D01*
X21917669Y12212566D01*
X22213831Y12221605D01*
X22345183Y12243169D01*
X22352000Y12251600D01*
X22280122Y12390850D01*
X22089908Y12564593D01*
X21819492Y12742578D01*
X21580816Y12863392D01*
X20996630Y13071785D01*
X20323670Y13215493D01*
X19544952Y13296162D01*
X18643491Y13315436D01*
X17602300Y13274962D01*
X17441333Y13264410D01*
X16467667Y13197684D01*
X15750193Y13650018D01*
X15032718Y14102353D01*
X14760939Y14965405D01*
X14603852Y15514234D01*
X14466689Y16088696D01*
X14356102Y16651031D01*
X14278746Y17163479D01*
X14241278Y17588280D01*
X14248364Y17873875D01*
X14377435Y18308005D01*
X14629457Y18627440D01*
X14998802Y18827669D01*
X15479842Y18904183D01*
X15535183Y18904857D01*
X15728140Y18897469D01*
X15911676Y18867754D01*
X16109179Y18804386D01*
X16344035Y18696037D01*
X16639631Y18531381D01*
X17019354Y18299092D01*
X17506589Y17987843D01*
X17737667Y17838151D01*
X18838333Y17123506D01*
X18906646Y16161917D01*
X18958817Y15593804D01*
X19033340Y15161170D01*
X19145140Y14830326D01*
X19309141Y14567580D01*
X19540265Y14339243D01*
X19798555Y14148464D01*
X20133792Y13932575D01*
X20352189Y13821697D01*
X20465706Y13810905D01*
X20489218Y13864166D01*
X20474930Y13971311D01*
X20436910Y14202461D01*
X20382254Y14515119D01*
X20358441Y14647333D01*
X20316061Y14954025D01*
X20273167Y15396673D01*
X20232167Y15941924D01*
X20195466Y16556426D01*
X20165472Y17206825D01*
X20156847Y17441333D01*
X20126110Y18251496D01*
X20088033Y18915437D01*
X20084098Y18953707D01*
X19046071Y18953707D01*
X19038723Y18458812D01*
X19010554Y18058218D01*
X18962690Y17773522D01*
X18896258Y17626317D01*
X18861843Y17610666D01*
X18769309Y17656438D01*
X18561006Y17783727D01*
X18260273Y17977499D01*
X17890448Y18222715D01*
X17477281Y18502692D01*
X17057320Y18796282D01*
X16682336Y19070005D01*
X16376650Y19305180D01*
X16164582Y19483124D01*
X16071958Y19582192D01*
X16019928Y19761827D01*
X15984542Y20046367D01*
X15973780Y20347033D01*
X16009535Y20792661D01*
X16123608Y21117328D01*
X16336776Y21359332D01*
X16616067Y21530974D01*
X16936381Y21673263D01*
X17201925Y21735551D01*
X17456763Y21711851D01*
X17744956Y21596176D01*
X18110569Y21382539D01*
X18219204Y21313140D01*
X18938613Y20849043D01*
X18993799Y20140021D01*
X19031472Y19521308D01*
X19046071Y18953707D01*
X20084098Y18953707D01*
X20032416Y19456246D01*
X19949062Y19897011D01*
X19827769Y20260819D01*
X19658341Y20570759D01*
X19430576Y20849920D01*
X19134275Y21121389D01*
X18759241Y21408254D01*
X18295272Y21733605D01*
X18245667Y21767719D01*
X17822777Y22055620D01*
X17511632Y22258189D01*
X17286248Y22388605D01*
X17120639Y22460048D01*
X16988821Y22485695D01*
X16864808Y22478725D01*
G37*
X16864808Y22478725D02*
X16848667Y22476234D01*
X16208729Y22315696D01*
X15685352Y22064055D01*
X15290760Y21729903D01*
X15037177Y21321829D01*
X14984954Y21166666D01*
X14936994Y20948760D01*
X14930663Y20751056D01*
X14971001Y20515236D01*
X15063045Y20182976D01*
X15072737Y20150666D01*
X15192975Y19742599D01*
X15257162Y19467904D01*
X15257797Y19297730D01*
X15187378Y19203225D01*
X15038403Y19155537D01*
X14806338Y19126136D01*
X14230123Y18985482D01*
X13720313Y18705457D01*
X13345067Y18346727D01*
X13134860Y17960431D01*
X13042287Y17468246D01*
X13067548Y16866519D01*
X13210841Y16151595D01*
X13472367Y15319821D01*
X13517007Y15197666D01*
X13655774Y14859204D01*
X13807430Y14589690D01*
X14000965Y14359779D01*
X14265371Y14140128D01*
X14629636Y13901391D01*
X15028333Y13667865D01*
X15440051Y13425961D01*
X15864453Y13164754D01*
X16240217Y12922504D01*
X16424172Y12796983D01*
X16973344Y12408893D01*
X18075172Y12352644D01*
X19148044Y12300174D01*
X20071886Y12259856D01*
X20843541Y12231766D01*
X21459854Y12215978D01*
X21917669Y12212566D01*
X22213831Y12221605D01*
X22345183Y12243169D01*
X22352000Y12251600D01*
X22280122Y12390850D01*
X22089908Y12564593D01*
X21819492Y12742578D01*
X21580816Y12863392D01*
X20996630Y13071785D01*
X20323670Y13215493D01*
X19544952Y13296162D01*
X18643491Y13315436D01*
X17602300Y13274962D01*
X17441333Y13264410D01*
X16467667Y13197684D01*
X15750193Y13650018D01*
X15032718Y14102353D01*
X14760939Y14965405D01*
X14603852Y15514234D01*
X14466689Y16088696D01*
X14356102Y16651031D01*
X14278746Y17163479D01*
X14241278Y17588280D01*
X14248364Y17873875D01*
X14377435Y18308005D01*
X14629457Y18627440D01*
X14998802Y18827669D01*
X15479842Y18904183D01*
X15535183Y18904857D01*
X15728140Y18897469D01*
X15911676Y18867754D01*
X16109179Y18804386D01*
X16344035Y18696037D01*
X16639631Y18531381D01*
X17019354Y18299092D01*
X17506589Y17987843D01*
X17737667Y17838151D01*
X18838333Y17123506D01*
X18906646Y16161917D01*
X18958817Y15593804D01*
X19033340Y15161170D01*
X19145140Y14830326D01*
X19309141Y14567580D01*
X19540265Y14339243D01*
X19798555Y14148464D01*
X20133792Y13932575D01*
X20352189Y13821697D01*
X20465706Y13810905D01*
X20489218Y13864166D01*
X20474930Y13971311D01*
X20436910Y14202461D01*
X20382254Y14515119D01*
X20358441Y14647333D01*
X20316061Y14954025D01*
X20273167Y15396673D01*
X20232167Y15941924D01*
X20195466Y16556426D01*
X20165472Y17206825D01*
X20156847Y17441333D01*
X20126110Y18251496D01*
X20088033Y18915437D01*
X20084098Y18953707D01*
X19046071Y18953707D01*
X19038723Y18458812D01*
X19010554Y18058218D01*
X18962690Y17773522D01*
X18896258Y17626317D01*
X18861843Y17610666D01*
X18769309Y17656438D01*
X18561006Y17783727D01*
X18260273Y17977499D01*
X17890448Y18222715D01*
X17477281Y18502692D01*
X17057320Y18796282D01*
X16682336Y19070005D01*
X16376650Y19305180D01*
X16164582Y19483124D01*
X16071958Y19582192D01*
X16019928Y19761827D01*
X15984542Y20046367D01*
X15973780Y20347033D01*
X16009535Y20792661D01*
X16123608Y21117328D01*
X16336776Y21359332D01*
X16616067Y21530974D01*
X16936381Y21673263D01*
X17201925Y21735551D01*
X17456763Y21711851D01*
X17744956Y21596176D01*
X18110569Y21382539D01*
X18219204Y21313140D01*
X18938613Y20849043D01*
X18993799Y20140021D01*
X19031472Y19521308D01*
X19046071Y18953707D01*
X20084098Y18953707D01*
X20032416Y19456246D01*
X19949062Y19897011D01*
X19827769Y20260819D01*
X19658341Y20570759D01*
X19430576Y20849920D01*
X19134275Y21121389D01*
X18759241Y21408254D01*
X18295272Y21733605D01*
X18245667Y21767719D01*
X17822777Y22055620D01*
X17511632Y22258189D01*
X17286248Y22388605D01*
X17120639Y22460048D01*
X16988821Y22485695D01*
X16864808Y22478725D01*
G36*
X13648723Y5960622D02*
G01*
X13589456Y5843436D01*
X13573033Y5656920D01*
X13680620Y5535242D01*
X13932609Y5458149D01*
X13986847Y5448735D01*
X14188603Y5429154D01*
X14283895Y5481291D01*
X14331039Y5637860D01*
X14331896Y5642309D01*
X14359953Y5817403D01*
X14330469Y5908678D01*
X14205282Y5954047D01*
X13985859Y5986077D01*
X13762749Y6002917D01*
X13648723Y5960622D01*
G37*
X13648723Y5960622D02*
X13589456Y5843436D01*
X13573033Y5656920D01*
X13680620Y5535242D01*
X13932609Y5458149D01*
X13986847Y5448735D01*
X14188603Y5429154D01*
X14283895Y5481291D01*
X14331039Y5637860D01*
X14331896Y5642309D01*
X14359953Y5817403D01*
X14330469Y5908678D01*
X14205282Y5954047D01*
X13985859Y5986077D01*
X13762749Y6002917D01*
X13648723Y5960622D01*
G36*
X23796899Y5884531D02*
G01*
X23655015Y5777550D01*
X23649339Y5638878D01*
X23773782Y5535942D01*
X24015552Y5520115D01*
X24226741Y5559945D01*
X24335527Y5643981D01*
X24326533Y5767759D01*
X24224108Y5878975D01*
X24056625Y5925370D01*
X23796899Y5884531D01*
G37*
X23796899Y5884531D02*
X23655015Y5777550D01*
X23649339Y5638878D01*
X23773782Y5535942D01*
X24015552Y5520115D01*
X24226741Y5559945D01*
X24335527Y5643981D01*
X24326533Y5767759D01*
X24224108Y5878975D01*
X24056625Y5925370D01*
X23796899Y5884531D01*
G36*
X23861042Y5208343D02*
G01*
X23695402Y5105934D01*
X23641257Y4972945D01*
X23662041Y4914375D01*
X23776901Y4856184D01*
X23978965Y4828443D01*
X24188208Y4834992D01*
X24324606Y4879669D01*
X24327556Y4882444D01*
X24376045Y5006948D01*
X24384000Y5094111D01*
X24342750Y5204132D01*
X24192066Y5246446D01*
X24098034Y5249333D01*
X23861042Y5208343D01*
G37*
X23861042Y5208343D02*
X23695402Y5105934D01*
X23641257Y4972945D01*
X23662041Y4914375D01*
X23776901Y4856184D01*
X23978965Y4828443D01*
X24188208Y4834992D01*
X24324606Y4879669D01*
X24327556Y4882444D01*
X24376045Y5006948D01*
X24384000Y5094111D01*
X24342750Y5204132D01*
X24192066Y5246446D01*
X24098034Y5249333D01*
X23861042Y5208343D01*
G36*
X20769220Y5453453D02*
G01*
X20672257Y5287683D01*
X20588766Y5065102D01*
X20610970Y4951456D01*
X20753716Y4912779D01*
X20837059Y4910666D01*
X21014366Y4926777D01*
X21058849Y4992141D01*
X21039119Y5058833D01*
X20961395Y5272123D01*
X20935520Y5355166D01*
X20862618Y5488207D01*
X20769220Y5453453D01*
G37*
X20769220Y5453453D02*
X20672257Y5287683D01*
X20588766Y5065102D01*
X20610970Y4951456D01*
X20753716Y4912779D01*
X20837059Y4910666D01*
X21014366Y4926777D01*
X21058849Y4992141D01*
X21039119Y5058833D01*
X20961395Y5272123D01*
X20935520Y5355166D01*
X20862618Y5488207D01*
X20769220Y5453453D01*
G36*
X15917333Y29167666D02*
G01*
X15959667Y29125333D01*
X16002000Y29167666D01*
X15959667Y29210000D01*
X15917333Y29167666D01*
G37*
X15917333Y29167666D02*
X15959667Y29125333D01*
X16002000Y29167666D01*
X15959667Y29210000D01*
X15917333Y29167666D01*
G36*
X22182667Y28998333D02*
G01*
X22225000Y28956000D01*
X22267333Y28998333D01*
X22225000Y29040666D01*
X22182667Y28998333D01*
G37*
X22182667Y28998333D02*
X22225000Y28956000D01*
X22267333Y28998333D01*
X22225000Y29040666D01*
X22182667Y28998333D01*
G36*
X19046766Y34239987D02*
G01*
X18958142Y34156276D01*
X18716910Y33863122D01*
X18482882Y33472957D01*
X18281360Y33040728D01*
X18137650Y32621385D01*
X18077057Y32269876D01*
X18076543Y32241910D01*
X18066484Y32005798D01*
X18041102Y31858926D01*
X18023173Y31834929D01*
X17917531Y31864630D01*
X17722112Y31938620D01*
X17666059Y31961667D01*
X17194316Y32086919D01*
X16769750Y32055909D01*
X16406712Y31873373D01*
X16119557Y31544047D01*
X16056885Y31430553D01*
X15885113Y31049623D01*
X15802703Y30739679D01*
X15801157Y30433515D01*
X15871975Y30063925D01*
X15879990Y30031681D01*
X15977929Y29661343D01*
X16058850Y29440912D01*
X16142817Y29355075D01*
X16249894Y29388516D01*
X16400146Y29525920D01*
X16460151Y29588845D01*
X16645853Y29774367D01*
X16794016Y29864075D01*
X16976059Y29883822D01*
X17220142Y29863945D01*
X17532013Y29812746D01*
X17813252Y29735353D01*
X17919551Y29691067D01*
X18183633Y29469132D01*
X18401171Y29120358D01*
X18551341Y28685277D01*
X18604624Y28357793D01*
X18650185Y27855333D01*
X19106750Y27855333D01*
X19411004Y27875064D01*
X19574994Y27931508D01*
X19596394Y27961166D01*
X19630712Y28108734D01*
X19674416Y28342243D01*
X19685094Y28405666D01*
X19833195Y28957822D01*
X20071208Y29376723D01*
X20393585Y29656344D01*
X20794778Y29790656D01*
X20970655Y29802350D01*
X21407977Y29756351D01*
X21708342Y29615992D01*
X21859630Y29421174D01*
X21963711Y29263764D01*
X22068364Y29261224D01*
X22181128Y29418116D01*
X22289350Y29681256D01*
X22402282Y30195999D01*
X22388191Y30708978D01*
X22256287Y31183042D01*
X22015784Y31581041D01*
X21760614Y31813500D01*
X21488149Y31957538D01*
X21223955Y31990411D01*
X20917837Y31911279D01*
X20664280Y31795178D01*
X20252190Y31586356D01*
X20343083Y31827158D01*
X20379967Y31979263D01*
X20370312Y32158732D01*
X20307060Y32409706D01*
X20198023Y32734480D01*
X19955564Y33344930D01*
X19706683Y33831150D01*
X19461604Y34174052D01*
X19386452Y34249671D01*
X19272083Y34339285D01*
X19177860Y34340201D01*
X19046766Y34239987D01*
G37*
X19046766Y34239987D02*
X18958142Y34156276D01*
X18716910Y33863122D01*
X18482882Y33472957D01*
X18281360Y33040728D01*
X18137650Y32621385D01*
X18077057Y32269876D01*
X18076543Y32241910D01*
X18066484Y32005798D01*
X18041102Y31858926D01*
X18023173Y31834929D01*
X17917531Y31864630D01*
X17722112Y31938620D01*
X17666059Y31961667D01*
X17194316Y32086919D01*
X16769750Y32055909D01*
X16406712Y31873373D01*
X16119557Y31544047D01*
X16056885Y31430553D01*
X15885113Y31049623D01*
X15802703Y30739679D01*
X15801157Y30433515D01*
X15871975Y30063925D01*
X15879990Y30031681D01*
X15977929Y29661343D01*
X16058850Y29440912D01*
X16142817Y29355075D01*
X16249894Y29388516D01*
X16400146Y29525920D01*
X16460151Y29588845D01*
X16645853Y29774367D01*
X16794016Y29864075D01*
X16976059Y29883822D01*
X17220142Y29863945D01*
X17532013Y29812746D01*
X17813252Y29735353D01*
X17919551Y29691067D01*
X18183633Y29469132D01*
X18401171Y29120358D01*
X18551341Y28685277D01*
X18604624Y28357793D01*
X18650185Y27855333D01*
X19106750Y27855333D01*
X19411004Y27875064D01*
X19574994Y27931508D01*
X19596394Y27961166D01*
X19630712Y28108734D01*
X19674416Y28342243D01*
X19685094Y28405666D01*
X19833195Y28957822D01*
X20071208Y29376723D01*
X20393585Y29656344D01*
X20794778Y29790656D01*
X20970655Y29802350D01*
X21407977Y29756351D01*
X21708342Y29615992D01*
X21859630Y29421174D01*
X21963711Y29263764D01*
X22068364Y29261224D01*
X22181128Y29418116D01*
X22289350Y29681256D01*
X22402282Y30195999D01*
X22388191Y30708978D01*
X22256287Y31183042D01*
X22015784Y31581041D01*
X21760614Y31813500D01*
X21488149Y31957538D01*
X21223955Y31990411D01*
X20917837Y31911279D01*
X20664280Y31795178D01*
X20252190Y31586356D01*
X20343083Y31827158D01*
X20379967Y31979263D01*
X20370312Y32158732D01*
X20307060Y32409706D01*
X20198023Y32734480D01*
X19955564Y33344930D01*
X19706683Y33831150D01*
X19461604Y34174052D01*
X19386452Y34249671D01*
X19272083Y34339285D01*
X19177860Y34340201D01*
X19046766Y34239987D01*
G36*
X9901202Y32815732D02*
G01*
X9352116Y32672437D01*
X8854470Y32384427D01*
X8681523Y32243119D01*
X8403165Y31980975D01*
X8201036Y31735525D01*
X8063431Y31472232D01*
X7978643Y31156557D01*
X7934968Y30753962D01*
X7920699Y30229908D01*
X7920531Y29997742D01*
X7924729Y28795817D01*
X7605249Y28741841D01*
X7162636Y28585158D01*
X6723275Y28271196D01*
X6302766Y27811556D01*
X6238199Y27725163D01*
X5925038Y27337306D01*
X5563247Y26956115D01*
X5192457Y26618749D01*
X4852298Y26362369D01*
X4677833Y26262124D01*
X4496340Y26157633D01*
X4405186Y26070362D01*
X4402667Y26059556D01*
X4476310Y25962100D01*
X4655204Y25897518D01*
X4876298Y25880028D01*
X5051454Y25913242D01*
X5235948Y25954540D01*
X5343294Y25932313D01*
X5365737Y25804138D01*
X5317731Y25579456D01*
X5217586Y25305969D01*
X5083614Y25031374D01*
X4934125Y24803371D01*
X4890493Y24752785D01*
X4709242Y24493675D01*
X4690343Y24277253D01*
X4833948Y24105658D01*
X4844406Y24098916D01*
X4967902Y24063489D01*
X5147330Y24100843D01*
X5423569Y24220213D01*
X5460115Y24238008D01*
X5792779Y24380268D01*
X6062493Y24456014D01*
X6243215Y24461701D01*
X6308906Y24393783D01*
X6300069Y24352397D01*
X6317985Y24221601D01*
X6411159Y24006896D01*
X6511666Y23832121D01*
X6757167Y23387687D01*
X6916247Y22975955D01*
X6978847Y22629388D01*
X6950665Y22415371D01*
X6811645Y22197066D01*
X6604661Y22017633D01*
X6393966Y21930481D01*
X6365124Y21928666D01*
X6099839Y21996340D01*
X5817063Y22171248D01*
X5579006Y22411220D01*
X5517498Y22503233D01*
X5291249Y22856892D01*
X5102417Y23080126D01*
X4960959Y23162548D01*
X4905037Y23142237D01*
X4846944Y23014254D01*
X4792951Y22782461D01*
X4771769Y22638798D01*
X4722038Y22218896D01*
X4443819Y22497114D01*
X4204661Y22674968D01*
X3946840Y22774296D01*
X3723151Y22780430D01*
X3619650Y22726094D01*
X3611895Y22611756D01*
X3681503Y22408801D01*
X3805426Y22164964D01*
X3960617Y21927981D01*
X4065978Y21801666D01*
X4306577Y21547666D01*
X4100622Y21310112D01*
X3928062Y21008654D01*
X3922548Y20688768D01*
X3964118Y20559130D01*
X4022799Y20465696D01*
X4115200Y20491051D01*
X4191000Y20545242D01*
X4264656Y20591074D01*
X4360171Y20621937D01*
X4500639Y20637559D01*
X4709153Y20637665D01*
X5008806Y20621982D01*
X5422690Y20590237D01*
X5973899Y20542155D01*
X6203746Y20521397D01*
X6524441Y20499407D01*
X6741000Y20512852D01*
X6916974Y20573605D01*
X7112340Y20691175D01*
X7324269Y20863826D01*
X7468012Y21040696D01*
X7495012Y21103327D01*
X7506957Y21271045D01*
X7498165Y21555805D01*
X7470770Y21906865D01*
X7454946Y22055666D01*
X7413242Y22485863D01*
X7382122Y22934748D01*
X7367230Y23317656D01*
X7366695Y23379518D01*
X7357635Y23690706D01*
X7316579Y23920801D01*
X7221324Y24139110D01*
X7049666Y24414943D01*
X7021371Y24457456D01*
X6861217Y24720630D01*
X6758389Y24936178D01*
X6732634Y25061841D01*
X6735672Y25068892D01*
X6862558Y25124869D01*
X7109680Y25113846D01*
X7115797Y25112880D01*
X7436993Y25061519D01*
X7522239Y25461209D01*
X7566007Y25697430D01*
X7553946Y25850582D01*
X7462869Y25986957D01*
X7275076Y26167777D01*
X7068081Y26383012D01*
X6968592Y26568885D01*
X6942669Y26789134D01*
X6942667Y26792097D01*
X7015030Y27202197D01*
X7220842Y27527110D01*
X7543190Y27759526D01*
X7965158Y27892133D01*
X8469831Y27917619D01*
X9040296Y27828672D01*
X9223521Y27778039D01*
X9719972Y27585231D01*
X10098650Y27350128D01*
X10142530Y27312629D01*
X10534809Y27017934D01*
X10974663Y26777547D01*
X11359597Y26639800D01*
X11526725Y26553309D01*
X11758223Y26375410D01*
X12007385Y26142506D01*
X12036930Y26111880D01*
X12275990Y25871399D01*
X12489938Y25674288D01*
X12636982Y25558785D01*
X12649313Y25551591D01*
X12738323Y25514663D01*
X12779250Y25550202D01*
X12780661Y25690642D01*
X12753670Y25946763D01*
X12689672Y26286906D01*
X12589698Y26616725D01*
X12529191Y26757560D01*
X12410689Y27003316D01*
X12378565Y27152880D01*
X12440688Y27260095D01*
X12604929Y27378802D01*
X12621577Y27389666D01*
X12846169Y27586025D01*
X13013930Y27825277D01*
X13109969Y28067783D01*
X13119395Y28273899D01*
X13027316Y28403984D01*
X13006217Y28413590D01*
X12858046Y28411618D01*
X12635537Y28350836D01*
X12572544Y28326266D01*
X12197657Y28218102D01*
X11851855Y28205372D01*
X11587187Y28289325D01*
X11568410Y28302187D01*
X11459980Y28448162D01*
X11362797Y28686841D01*
X11335641Y28789021D01*
X11247982Y29038388D01*
X11112403Y29280508D01*
X10958975Y29475316D01*
X10817770Y29582748D01*
X10739711Y29582993D01*
X10697524Y29479175D01*
X10671747Y29265885D01*
X10668000Y29135095D01*
X10613594Y28762049D01*
X10446418Y28514309D01*
X10160538Y28385805D01*
X9913607Y28363333D01*
X9512725Y28421976D01*
X9190692Y28609028D01*
X8923210Y28941171D01*
X8832426Y29105711D01*
X8699205Y29354576D01*
X8588422Y29536095D01*
X8534868Y29601176D01*
X8469273Y29706320D01*
X8552417Y29812283D01*
X8606829Y29838335D01*
X8777443Y29821017D01*
X8944658Y29706421D01*
X9107817Y29583749D01*
X9254378Y29578605D01*
X9354829Y29617546D01*
X9506628Y29719077D01*
X9570257Y29822469D01*
X9523887Y29883724D01*
X9488695Y29887333D01*
X9385859Y29941105D01*
X9212448Y30077920D01*
X9107695Y30172497D01*
X8872846Y30453792D01*
X8793827Y30722448D01*
X8872016Y30999254D01*
X9108786Y31304995D01*
X9187820Y31383513D01*
X9490094Y31635994D01*
X9716554Y31739610D01*
X9870890Y31695003D01*
X9953792Y31517167D01*
X10003152Y31306524D01*
X10037415Y31178500D01*
X10135221Y31084194D01*
X10288449Y31087182D01*
X10422309Y31176502D01*
X10455633Y31239791D01*
X10620939Y31496184D01*
X10909639Y31672311D01*
X11286975Y31748423D01*
X11353617Y31750000D01*
X11760873Y31700030D01*
X12221681Y31566641D01*
X12659338Y31374617D01*
X12834822Y31271422D01*
X12974774Y31161678D01*
X12982171Y31075501D01*
X12926623Y31009003D01*
X12786543Y30931721D01*
X12630777Y30979735D01*
X12471649Y31053902D01*
X12368521Y31040723D01*
X12265502Y30917034D01*
X12191072Y30797500D01*
X12061632Y30481724D01*
X12023903Y30147397D01*
X12077822Y29851389D01*
X12192344Y29675355D01*
X12273544Y29602592D01*
X12344081Y29568105D01*
X12439043Y29580910D01*
X12593520Y29650026D01*
X12842600Y29784470D01*
X13038667Y29892859D01*
X13375441Y30029979D01*
X13693759Y30035507D01*
X14008467Y29936738D01*
X14302308Y29750796D01*
X14502840Y29463663D01*
X14629852Y29046308D01*
X14635482Y29016948D01*
X14675884Y28782718D01*
X14672712Y28684736D01*
X14614461Y28692984D01*
X14532283Y28747618D01*
X14284485Y28858815D01*
X14048474Y28818907D01*
X13794154Y28623846D01*
X13592062Y28325140D01*
X13554711Y28005777D01*
X13638572Y27757142D01*
X13730477Y27585416D01*
X13913738Y27756432D01*
X14229798Y27955090D01*
X14565644Y27992870D01*
X14904901Y27874321D01*
X15231194Y27603991D01*
X15439367Y27332646D01*
X15581103Y27097484D01*
X15701959Y26847533D01*
X15817526Y26542803D01*
X15943393Y26143299D01*
X16055223Y25752792D01*
X16143687Y25672071D01*
X16192545Y25676892D01*
X16248204Y25779795D01*
X16273050Y26017722D01*
X16268177Y26359396D01*
X16234680Y26773542D01*
X16173653Y27228883D01*
X16129353Y27482382D01*
X15853921Y28535583D01*
X15450841Y29494958D01*
X14929331Y30351708D01*
X14298609Y31097033D01*
X13567895Y31722135D01*
X12746406Y32218214D01*
X11843361Y32576471D01*
X10867978Y32788106D01*
X10533116Y32824163D01*
X9901202Y32815732D01*
G37*
X9901202Y32815732D02*
X9352116Y32672437D01*
X8854470Y32384427D01*
X8681523Y32243119D01*
X8403165Y31980975D01*
X8201036Y31735525D01*
X8063431Y31472232D01*
X7978643Y31156557D01*
X7934968Y30753962D01*
X7920699Y30229908D01*
X7920531Y29997742D01*
X7924729Y28795817D01*
X7605249Y28741841D01*
X7162636Y28585158D01*
X6723275Y28271196D01*
X6302766Y27811556D01*
X6238199Y27725163D01*
X5925038Y27337306D01*
X5563247Y26956115D01*
X5192457Y26618749D01*
X4852298Y26362369D01*
X4677833Y26262124D01*
X4496340Y26157633D01*
X4405186Y26070362D01*
X4402667Y26059556D01*
X4476310Y25962100D01*
X4655204Y25897518D01*
X4876298Y25880028D01*
X5051454Y25913242D01*
X5235948Y25954540D01*
X5343294Y25932313D01*
X5365737Y25804138D01*
X5317731Y25579456D01*
X5217586Y25305969D01*
X5083614Y25031374D01*
X4934125Y24803371D01*
X4890493Y24752785D01*
X4709242Y24493675D01*
X4690343Y24277253D01*
X4833948Y24105658D01*
X4844406Y24098916D01*
X4967902Y24063489D01*
X5147330Y24100843D01*
X5423569Y24220213D01*
X5460115Y24238008D01*
X5792779Y24380268D01*
X6062493Y24456014D01*
X6243215Y24461701D01*
X6308906Y24393783D01*
X6300069Y24352397D01*
X6317985Y24221601D01*
X6411159Y24006896D01*
X6511666Y23832121D01*
X6757167Y23387687D01*
X6916247Y22975955D01*
X6978847Y22629388D01*
X6950665Y22415371D01*
X6811645Y22197066D01*
X6604661Y22017633D01*
X6393966Y21930481D01*
X6365124Y21928666D01*
X6099839Y21996340D01*
X5817063Y22171248D01*
X5579006Y22411220D01*
X5517498Y22503233D01*
X5291249Y22856892D01*
X5102417Y23080126D01*
X4960959Y23162548D01*
X4905037Y23142237D01*
X4846944Y23014254D01*
X4792951Y22782461D01*
X4771769Y22638798D01*
X4722038Y22218896D01*
X4443819Y22497114D01*
X4204661Y22674968D01*
X3946840Y22774296D01*
X3723151Y22780430D01*
X3619650Y22726094D01*
X3611895Y22611756D01*
X3681503Y22408801D01*
X3805426Y22164964D01*
X3960617Y21927981D01*
X4065978Y21801666D01*
X4306577Y21547666D01*
X4100622Y21310112D01*
X3928062Y21008654D01*
X3922548Y20688768D01*
X3964118Y20559130D01*
X4022799Y20465696D01*
X4115200Y20491051D01*
X4191000Y20545242D01*
X4264656Y20591074D01*
X4360171Y20621937D01*
X4500639Y20637559D01*
X4709153Y20637665D01*
X5008806Y20621982D01*
X5422690Y20590237D01*
X5973899Y20542155D01*
X6203746Y20521397D01*
X6524441Y20499407D01*
X6741000Y20512852D01*
X6916974Y20573605D01*
X7112340Y20691175D01*
X7324269Y20863826D01*
X7468012Y21040696D01*
X7495012Y21103327D01*
X7506957Y21271045D01*
X7498165Y21555805D01*
X7470770Y21906865D01*
X7454946Y22055666D01*
X7413242Y22485863D01*
X7382122Y22934748D01*
X7367230Y23317656D01*
X7366695Y23379518D01*
X7357635Y23690706D01*
X7316579Y23920801D01*
X7221324Y24139110D01*
X7049666Y24414943D01*
X7021371Y24457456D01*
X6861217Y24720630D01*
X6758389Y24936178D01*
X6732634Y25061841D01*
X6735672Y25068892D01*
X6862558Y25124869D01*
X7109680Y25113846D01*
X7115797Y25112880D01*
X7436993Y25061519D01*
X7522239Y25461209D01*
X7566007Y25697430D01*
X7553946Y25850582D01*
X7462869Y25986957D01*
X7275076Y26167777D01*
X7068081Y26383012D01*
X6968592Y26568885D01*
X6942669Y26789134D01*
X6942667Y26792097D01*
X7015030Y27202197D01*
X7220842Y27527110D01*
X7543190Y27759526D01*
X7965158Y27892133D01*
X8469831Y27917619D01*
X9040296Y27828672D01*
X9223521Y27778039D01*
X9719972Y27585231D01*
X10098650Y27350128D01*
X10142530Y27312629D01*
X10534809Y27017934D01*
X10974663Y26777547D01*
X11359597Y26639800D01*
X11526725Y26553309D01*
X11758223Y26375410D01*
X12007385Y26142506D01*
X12036930Y26111880D01*
X12275990Y25871399D01*
X12489938Y25674288D01*
X12636982Y25558785D01*
X12649313Y25551591D01*
X12738323Y25514663D01*
X12779250Y25550202D01*
X12780661Y25690642D01*
X12753670Y25946763D01*
X12689672Y26286906D01*
X12589698Y26616725D01*
X12529191Y26757560D01*
X12410689Y27003316D01*
X12378565Y27152880D01*
X12440688Y27260095D01*
X12604929Y27378802D01*
X12621577Y27389666D01*
X12846169Y27586025D01*
X13013930Y27825277D01*
X13109969Y28067783D01*
X13119395Y28273899D01*
X13027316Y28403984D01*
X13006217Y28413590D01*
X12858046Y28411618D01*
X12635537Y28350836D01*
X12572544Y28326266D01*
X12197657Y28218102D01*
X11851855Y28205372D01*
X11587187Y28289325D01*
X11568410Y28302187D01*
X11459980Y28448162D01*
X11362797Y28686841D01*
X11335641Y28789021D01*
X11247982Y29038388D01*
X11112403Y29280508D01*
X10958975Y29475316D01*
X10817770Y29582748D01*
X10739711Y29582993D01*
X10697524Y29479175D01*
X10671747Y29265885D01*
X10668000Y29135095D01*
X10613594Y28762049D01*
X10446418Y28514309D01*
X10160538Y28385805D01*
X9913607Y28363333D01*
X9512725Y28421976D01*
X9190692Y28609028D01*
X8923210Y28941171D01*
X8832426Y29105711D01*
X8699205Y29354576D01*
X8588422Y29536095D01*
X8534868Y29601176D01*
X8469273Y29706320D01*
X8552417Y29812283D01*
X8606829Y29838335D01*
X8777443Y29821017D01*
X8944658Y29706421D01*
X9107817Y29583749D01*
X9254378Y29578605D01*
X9354829Y29617546D01*
X9506628Y29719077D01*
X9570257Y29822469D01*
X9523887Y29883724D01*
X9488695Y29887333D01*
X9385859Y29941105D01*
X9212448Y30077920D01*
X9107695Y30172497D01*
X8872846Y30453792D01*
X8793827Y30722448D01*
X8872016Y30999254D01*
X9108786Y31304995D01*
X9187820Y31383513D01*
X9490094Y31635994D01*
X9716554Y31739610D01*
X9870890Y31695003D01*
X9953792Y31517167D01*
X10003152Y31306524D01*
X10037415Y31178500D01*
X10135221Y31084194D01*
X10288449Y31087182D01*
X10422309Y31176502D01*
X10455633Y31239791D01*
X10620939Y31496184D01*
X10909639Y31672311D01*
X11286975Y31748423D01*
X11353617Y31750000D01*
X11760873Y31700030D01*
X12221681Y31566641D01*
X12659338Y31374617D01*
X12834822Y31271422D01*
X12974774Y31161678D01*
X12982171Y31075501D01*
X12926623Y31009003D01*
X12786543Y30931721D01*
X12630777Y30979735D01*
X12471649Y31053902D01*
X12368521Y31040723D01*
X12265502Y30917034D01*
X12191072Y30797500D01*
X12061632Y30481724D01*
X12023903Y30147397D01*
X12077822Y29851389D01*
X12192344Y29675355D01*
X12273544Y29602592D01*
X12344081Y29568105D01*
X12439043Y29580910D01*
X12593520Y29650026D01*
X12842600Y29784470D01*
X13038667Y29892859D01*
X13375441Y30029979D01*
X13693759Y30035507D01*
X14008467Y29936738D01*
X14302308Y29750796D01*
X14502840Y29463663D01*
X14629852Y29046308D01*
X14635482Y29016948D01*
X14675884Y28782718D01*
X14672712Y28684736D01*
X14614461Y28692984D01*
X14532283Y28747618D01*
X14284485Y28858815D01*
X14048474Y28818907D01*
X13794154Y28623846D01*
X13592062Y28325140D01*
X13554711Y28005777D01*
X13638572Y27757142D01*
X13730477Y27585416D01*
X13913738Y27756432D01*
X14229798Y27955090D01*
X14565644Y27992870D01*
X14904901Y27874321D01*
X15231194Y27603991D01*
X15439367Y27332646D01*
X15581103Y27097484D01*
X15701959Y26847533D01*
X15817526Y26542803D01*
X15943393Y26143299D01*
X16055223Y25752792D01*
X16143687Y25672071D01*
X16192545Y25676892D01*
X16248204Y25779795D01*
X16273050Y26017722D01*
X16268177Y26359396D01*
X16234680Y26773542D01*
X16173653Y27228883D01*
X16129353Y27482382D01*
X15853921Y28535583D01*
X15450841Y29494958D01*
X14929331Y30351708D01*
X14298609Y31097033D01*
X13567895Y31722135D01*
X12746406Y32218214D01*
X11843361Y32576471D01*
X10867978Y32788106D01*
X10533116Y32824163D01*
X9901202Y32815732D01*
G36*
X27168026Y32623741D02*
G01*
X26620044Y32512063D01*
X25663787Y32189212D01*
X24807421Y31731045D01*
X24053550Y31140840D01*
X23404777Y30421878D01*
X22863706Y29577440D01*
X22432942Y28610805D01*
X22115089Y27525254D01*
X21951956Y26632126D01*
X21894392Y26194785D01*
X21866138Y25893810D01*
X21866427Y25698924D01*
X21894494Y25579851D01*
X21924133Y25532462D01*
X22040466Y25440195D01*
X22126975Y25493469D01*
X22192785Y25701978D01*
X22217331Y25844039D01*
X22343621Y26318387D01*
X22566915Y26817140D01*
X22849942Y27261531D01*
X22939998Y27371414D01*
X23257913Y27643679D01*
X23589077Y27747897D01*
X23939074Y27685181D01*
X24103343Y27603302D01*
X24303845Y27492392D01*
X24415630Y27467064D01*
X24493341Y27522776D01*
X24528039Y27567984D01*
X24624717Y27772402D01*
X24601646Y27993892D01*
X24470977Y28255228D01*
X24261682Y28483701D01*
X24007603Y28596779D01*
X23756970Y28576444D01*
X23695037Y28545052D01*
X23535401Y28462437D01*
X23468355Y28493464D01*
X23474791Y28658690D01*
X23492836Y28762574D01*
X23635700Y29225480D01*
X23869137Y29547912D01*
X24201933Y29737672D01*
X24642874Y29802558D01*
X24664487Y29802666D01*
X24971516Y29766889D01*
X25238610Y29636809D01*
X25359447Y29547252D01*
X25562306Y29397474D01*
X25693608Y29346126D01*
X25807521Y29378201D01*
X25857667Y29409242D01*
X26060939Y29636978D01*
X26124637Y29948133D01*
X26046506Y30327045D01*
X26004631Y30430338D01*
X25893203Y30663381D01*
X25795582Y30777054D01*
X25661725Y30808819D01*
X25508809Y30801536D01*
X25273582Y30810415D01*
X25188287Y30878706D01*
X25248867Y30995384D01*
X25451266Y31149425D01*
X25684201Y31278117D01*
X26201263Y31484207D01*
X26672248Y31570434D01*
X27077382Y31538512D01*
X27396893Y31390152D01*
X27611008Y31127067D01*
X27618779Y31110522D01*
X27751797Y30931501D01*
X27897192Y30911290D01*
X28030682Y31043380D01*
X28109333Y31242000D01*
X28190259Y31452560D01*
X28282823Y31571107D01*
X28311560Y31580666D01*
X28460506Y31527294D01*
X28677181Y31393132D01*
X28909567Y31217112D01*
X29105643Y31038168D01*
X29205599Y30911556D01*
X29298572Y30624876D01*
X29248695Y30352025D01*
X29048147Y30066847D01*
X28913247Y29933555D01*
X28701627Y29724846D01*
X28609359Y29588915D01*
X28619402Y29498184D01*
X28633847Y29481353D01*
X28825275Y29385637D01*
X29046627Y29454467D01*
X29180895Y29561093D01*
X29339419Y29678568D01*
X29456690Y29670227D01*
X29493250Y29644191D01*
X29543637Y29569769D01*
X29533271Y29451771D01*
X29452697Y29254860D01*
X29319303Y28994067D01*
X29088816Y28608683D01*
X28863295Y28357114D01*
X28605173Y28209269D01*
X28276882Y28135058D01*
X28241549Y28130843D01*
X27982701Y28119460D01*
X27807477Y28175009D01*
X27650104Y28306866D01*
X27509635Y28485539D01*
X27445272Y28696679D01*
X27432000Y28952151D01*
X27416097Y29200499D01*
X27374822Y29353073D01*
X27343485Y29379333D01*
X27180554Y29305849D01*
X27009171Y29118348D01*
X26865156Y28866253D01*
X26786043Y28610224D01*
X26669554Y28246680D01*
X26460204Y28024155D01*
X26160078Y27943455D01*
X25771257Y28005386D01*
X25496588Y28111193D01*
X25274210Y28209238D01*
X25125324Y28269525D01*
X25094421Y28278666D01*
X25074064Y28203255D01*
X25062405Y28013971D01*
X25061333Y27924750D01*
X25078363Y27703333D01*
X25150615Y27528831D01*
X25309830Y27340843D01*
X25428415Y27226250D01*
X25795497Y26881666D01*
X25605467Y26458333D01*
X25478002Y26107640D01*
X25379498Y25720033D01*
X25355699Y25577837D01*
X25295960Y25120674D01*
X25552077Y25303045D01*
X25746146Y25468307D01*
X25984412Y25708041D01*
X26162314Y25908375D01*
X26358559Y26125994D01*
X26523071Y26278678D01*
X26614384Y26331400D01*
X26778695Y26373689D01*
X27032886Y26482425D01*
X27325615Y26630623D01*
X27605537Y26791298D01*
X27821311Y26937463D01*
X27897667Y27005888D01*
X28237880Y27280979D01*
X28685798Y27492156D01*
X29192924Y27629771D01*
X29710762Y27684179D01*
X30190817Y27645734D01*
X30536895Y27530835D01*
X30857297Y27293035D01*
X31065045Y26985698D01*
X31151533Y26645728D01*
X31108156Y26310028D01*
X30926309Y26015502D01*
X30896942Y25986696D01*
X30749061Y25836016D01*
X30679217Y25701738D01*
X30669302Y25519820D01*
X30695276Y25273433D01*
X30754001Y24803412D01*
X31030638Y24855310D01*
X31238694Y24867632D01*
X31358581Y24823819D01*
X31360956Y24820349D01*
X31344687Y24711368D01*
X31251383Y24506311D01*
X31100797Y24248045D01*
X31088274Y24228544D01*
X30958259Y24017661D01*
X30860030Y23823257D01*
X30782690Y23608599D01*
X30715343Y23336950D01*
X30647091Y22971579D01*
X30567039Y22475749D01*
X30565599Y22466533D01*
X30369287Y21209468D01*
X30578101Y20835447D01*
X30768425Y20570472D01*
X30996979Y20353373D01*
X31077957Y20300183D01*
X31210579Y20235563D01*
X31352152Y20194203D01*
X31530866Y20176254D01*
X31774908Y20181867D01*
X32112465Y20211191D01*
X32571726Y20264377D01*
X32935333Y20310088D01*
X33326863Y20341022D01*
X33615747Y20313883D01*
X33771173Y20265485D01*
X33966751Y20190021D01*
X34081275Y20151821D01*
X34088673Y20150666D01*
X34108347Y20226085D01*
X34119624Y20415413D01*
X34120667Y20505043D01*
X34070309Y20840151D01*
X33936039Y21055946D01*
X33751412Y21252473D01*
X33968707Y21484737D01*
X34173578Y21743026D01*
X34333119Y22016397D01*
X34423211Y22256447D01*
X34425783Y22401975D01*
X34307175Y22517621D01*
X34109734Y22514920D01*
X33866373Y22402750D01*
X33610007Y22189988D01*
X33599557Y22179101D01*
X33274000Y21836870D01*
X33272844Y22200268D01*
X33255566Y22524836D01*
X33211599Y22779977D01*
X33149445Y22925524D01*
X33115286Y22944666D01*
X33045710Y22879516D01*
X32909391Y22706575D01*
X32732515Y22459607D01*
X32682967Y22387218D01*
X32443519Y22051881D01*
X32253310Y21839184D01*
X32080096Y21723332D01*
X31891631Y21678525D01*
X31792333Y21674666D01*
X31470376Y21739120D01*
X31252336Y21919337D01*
X31140544Y22195607D01*
X31137329Y22548218D01*
X31245023Y22957456D01*
X31465955Y23403610D01*
X31569100Y23562855D01*
X31745411Y23835880D01*
X31821157Y24008217D01*
X31804212Y24109237D01*
X31728833Y24158593D01*
X31726642Y24188801D01*
X31859848Y24206943D01*
X31889525Y24207982D01*
X32123984Y24169482D01*
X32406882Y24064488D01*
X32524525Y24004020D01*
X32880095Y23837602D01*
X33139952Y23803285D01*
X33314083Y23900875D01*
X33367168Y23987847D01*
X33405160Y24122479D01*
X33363291Y24249688D01*
X33219940Y24420061D01*
X33153686Y24487380D01*
X32920213Y24784660D01*
X32850667Y25025033D01*
X32807504Y25251018D01*
X32727950Y25395267D01*
X32639927Y25559106D01*
X32694724Y25667757D01*
X32869427Y25700761D01*
X33037488Y25671664D01*
X33300074Y25638850D01*
X33506366Y25683726D01*
X33608795Y25793580D01*
X33612667Y25825366D01*
X33544704Y25912082D01*
X33377413Y26024565D01*
X33339960Y26044673D01*
X33068023Y26225790D01*
X32736814Y26506463D01*
X32385377Y26848379D01*
X32052758Y27213226D01*
X31778000Y27562692D01*
X31746053Y27608680D01*
X31467443Y27973807D01*
X31186864Y28225388D01*
X30843958Y28408822D01*
X30532072Y28521779D01*
X30099000Y28661345D01*
X30141333Y28999172D01*
X30159421Y29237177D01*
X30171534Y29583999D01*
X30175889Y29979177D01*
X30175016Y30141333D01*
X30151035Y30668477D01*
X30080623Y31077829D01*
X29946641Y31418378D01*
X29731950Y31739114D01*
X29537242Y31964254D01*
X29080551Y32340916D01*
X28534397Y32576206D01*
X27897361Y32670393D01*
X27168026Y32623741D01*
G37*
X27168026Y32623741D02*
X26620044Y32512063D01*
X25663787Y32189212D01*
X24807421Y31731045D01*
X24053550Y31140840D01*
X23404777Y30421878D01*
X22863706Y29577440D01*
X22432942Y28610805D01*
X22115089Y27525254D01*
X21951956Y26632126D01*
X21894392Y26194785D01*
X21866138Y25893810D01*
X21866427Y25698924D01*
X21894494Y25579851D01*
X21924133Y25532462D01*
X22040466Y25440195D01*
X22126975Y25493469D01*
X22192785Y25701978D01*
X22217331Y25844039D01*
X22343621Y26318387D01*
X22566915Y26817140D01*
X22849942Y27261531D01*
X22939998Y27371414D01*
X23257913Y27643679D01*
X23589077Y27747897D01*
X23939074Y27685181D01*
X24103343Y27603302D01*
X24303845Y27492392D01*
X24415630Y27467064D01*
X24493341Y27522776D01*
X24528039Y27567984D01*
X24624717Y27772402D01*
X24601646Y27993892D01*
X24470977Y28255228D01*
X24261682Y28483701D01*
X24007603Y28596779D01*
X23756970Y28576444D01*
X23695037Y28545052D01*
X23535401Y28462437D01*
X23468355Y28493464D01*
X23474791Y28658690D01*
X23492836Y28762574D01*
X23635700Y29225480D01*
X23869137Y29547912D01*
X24201933Y29737672D01*
X24642874Y29802558D01*
X24664487Y29802666D01*
X24971516Y29766889D01*
X25238610Y29636809D01*
X25359447Y29547252D01*
X25562306Y29397474D01*
X25693608Y29346126D01*
X25807521Y29378201D01*
X25857667Y29409242D01*
X26060939Y29636978D01*
X26124637Y29948133D01*
X26046506Y30327045D01*
X26004631Y30430338D01*
X25893203Y30663381D01*
X25795582Y30777054D01*
X25661725Y30808819D01*
X25508809Y30801536D01*
X25273582Y30810415D01*
X25188287Y30878706D01*
X25248867Y30995384D01*
X25451266Y31149425D01*
X25684201Y31278117D01*
X26201263Y31484207D01*
X26672248Y31570434D01*
X27077382Y31538512D01*
X27396893Y31390152D01*
X27611008Y31127067D01*
X27618779Y31110522D01*
X27751797Y30931501D01*
X27897192Y30911290D01*
X28030682Y31043380D01*
X28109333Y31242000D01*
X28190259Y31452560D01*
X28282823Y31571107D01*
X28311560Y31580666D01*
X28460506Y31527294D01*
X28677181Y31393132D01*
X28909567Y31217112D01*
X29105643Y31038168D01*
X29205599Y30911556D01*
X29298572Y30624876D01*
X29248695Y30352025D01*
X29048147Y30066847D01*
X28913247Y29933555D01*
X28701627Y29724846D01*
X28609359Y29588915D01*
X28619402Y29498184D01*
X28633847Y29481353D01*
X28825275Y29385637D01*
X29046627Y29454467D01*
X29180895Y29561093D01*
X29339419Y29678568D01*
X29456690Y29670227D01*
X29493250Y29644191D01*
X29543637Y29569769D01*
X29533271Y29451771D01*
X29452697Y29254860D01*
X29319303Y28994067D01*
X29088816Y28608683D01*
X28863295Y28357114D01*
X28605173Y28209269D01*
X28276882Y28135058D01*
X28241549Y28130843D01*
X27982701Y28119460D01*
X27807477Y28175009D01*
X27650104Y28306866D01*
X27509635Y28485539D01*
X27445272Y28696679D01*
X27432000Y28952151D01*
X27416097Y29200499D01*
X27374822Y29353073D01*
X27343485Y29379333D01*
X27180554Y29305849D01*
X27009171Y29118348D01*
X26865156Y28866253D01*
X26786043Y28610224D01*
X26669554Y28246680D01*
X26460204Y28024155D01*
X26160078Y27943455D01*
X25771257Y28005386D01*
X25496588Y28111193D01*
X25274210Y28209238D01*
X25125324Y28269525D01*
X25094421Y28278666D01*
X25074064Y28203255D01*
X25062405Y28013971D01*
X25061333Y27924750D01*
X25078363Y27703333D01*
X25150615Y27528831D01*
X25309830Y27340843D01*
X25428415Y27226250D01*
X25795497Y26881666D01*
X25605467Y26458333D01*
X25478002Y26107640D01*
X25379498Y25720033D01*
X25355699Y25577837D01*
X25295960Y25120674D01*
X25552077Y25303045D01*
X25746146Y25468307D01*
X25984412Y25708041D01*
X26162314Y25908375D01*
X26358559Y26125994D01*
X26523071Y26278678D01*
X26614384Y26331400D01*
X26778695Y26373689D01*
X27032886Y26482425D01*
X27325615Y26630623D01*
X27605537Y26791298D01*
X27821311Y26937463D01*
X27897667Y27005888D01*
X28237880Y27280979D01*
X28685798Y27492156D01*
X29192924Y27629771D01*
X29710762Y27684179D01*
X30190817Y27645734D01*
X30536895Y27530835D01*
X30857297Y27293035D01*
X31065045Y26985698D01*
X31151533Y26645728D01*
X31108156Y26310028D01*
X30926309Y26015502D01*
X30896942Y25986696D01*
X30749061Y25836016D01*
X30679217Y25701738D01*
X30669302Y25519820D01*
X30695276Y25273433D01*
X30754001Y24803412D01*
X31030638Y24855310D01*
X31238694Y24867632D01*
X31358581Y24823819D01*
X31360956Y24820349D01*
X31344687Y24711368D01*
X31251383Y24506311D01*
X31100797Y24248045D01*
X31088274Y24228544D01*
X30958259Y24017661D01*
X30860030Y23823257D01*
X30782690Y23608599D01*
X30715343Y23336950D01*
X30647091Y22971579D01*
X30567039Y22475749D01*
X30565599Y22466533D01*
X30369287Y21209468D01*
X30578101Y20835447D01*
X30768425Y20570472D01*
X30996979Y20353373D01*
X31077957Y20300183D01*
X31210579Y20235563D01*
X31352152Y20194203D01*
X31530866Y20176254D01*
X31774908Y20181867D01*
X32112465Y20211191D01*
X32571726Y20264377D01*
X32935333Y20310088D01*
X33326863Y20341022D01*
X33615747Y20313883D01*
X33771173Y20265485D01*
X33966751Y20190021D01*
X34081275Y20151821D01*
X34088673Y20150666D01*
X34108347Y20226085D01*
X34119624Y20415413D01*
X34120667Y20505043D01*
X34070309Y20840151D01*
X33936039Y21055946D01*
X33751412Y21252473D01*
X33968707Y21484737D01*
X34173578Y21743026D01*
X34333119Y22016397D01*
X34423211Y22256447D01*
X34425783Y22401975D01*
X34307175Y22517621D01*
X34109734Y22514920D01*
X33866373Y22402750D01*
X33610007Y22189988D01*
X33599557Y22179101D01*
X33274000Y21836870D01*
X33272844Y22200268D01*
X33255566Y22524836D01*
X33211599Y22779977D01*
X33149445Y22925524D01*
X33115286Y22944666D01*
X33045710Y22879516D01*
X32909391Y22706575D01*
X32732515Y22459607D01*
X32682967Y22387218D01*
X32443519Y22051881D01*
X32253310Y21839184D01*
X32080096Y21723332D01*
X31891631Y21678525D01*
X31792333Y21674666D01*
X31470376Y21739120D01*
X31252336Y21919337D01*
X31140544Y22195607D01*
X31137329Y22548218D01*
X31245023Y22957456D01*
X31465955Y23403610D01*
X31569100Y23562855D01*
X31745411Y23835880D01*
X31821157Y24008217D01*
X31804212Y24109237D01*
X31728833Y24158593D01*
X31726642Y24188801D01*
X31859848Y24206943D01*
X31889525Y24207982D01*
X32123984Y24169482D01*
X32406882Y24064488D01*
X32524525Y24004020D01*
X32880095Y23837602D01*
X33139952Y23803285D01*
X33314083Y23900875D01*
X33367168Y23987847D01*
X33405160Y24122479D01*
X33363291Y24249688D01*
X33219940Y24420061D01*
X33153686Y24487380D01*
X32920213Y24784660D01*
X32850667Y25025033D01*
X32807504Y25251018D01*
X32727950Y25395267D01*
X32639927Y25559106D01*
X32694724Y25667757D01*
X32869427Y25700761D01*
X33037488Y25671664D01*
X33300074Y25638850D01*
X33506366Y25683726D01*
X33608795Y25793580D01*
X33612667Y25825366D01*
X33544704Y25912082D01*
X33377413Y26024565D01*
X33339960Y26044673D01*
X33068023Y26225790D01*
X32736814Y26506463D01*
X32385377Y26848379D01*
X32052758Y27213226D01*
X31778000Y27562692D01*
X31746053Y27608680D01*
X31467443Y27973807D01*
X31186864Y28225388D01*
X30843958Y28408822D01*
X30532072Y28521779D01*
X30099000Y28661345D01*
X30141333Y28999172D01*
X30159421Y29237177D01*
X30171534Y29583999D01*
X30175889Y29979177D01*
X30175016Y30141333D01*
X30151035Y30668477D01*
X30080623Y31077829D01*
X29946641Y31418378D01*
X29731950Y31739114D01*
X29537242Y31964254D01*
X29080551Y32340916D01*
X28534397Y32576206D01*
X27897361Y32670393D01*
X27168026Y32623741D01*
G36*
X4787409Y18729187D02*
G01*
X4760449Y18624337D01*
X4743860Y18409768D01*
X4741333Y18273889D01*
X4724299Y18028188D01*
X4679813Y17884365D01*
X4650755Y17864666D01*
X4534022Y17909552D01*
X4334274Y18024406D01*
X4194726Y18116103D01*
X3940038Y18271870D01*
X3644938Y18423796D01*
X3350990Y18554207D01*
X3099757Y18645428D01*
X2932803Y18679785D01*
X2893303Y18669525D01*
X2918236Y18582462D01*
X3056139Y18411265D01*
X3285682Y18174938D01*
X3585534Y17892486D01*
X3934367Y17582911D01*
X4310850Y17265219D01*
X4693653Y16958412D01*
X5061446Y16681495D01*
X5347154Y16483272D01*
X5714514Y16243642D01*
X6037751Y16036998D01*
X6287431Y15881850D01*
X6434122Y15796707D01*
X6453163Y15787765D01*
X6592599Y15809976D01*
X6725240Y15910968D01*
X6874609Y16045820D01*
X7112121Y16229552D01*
X7354898Y16400788D01*
X7648977Y16603973D01*
X7827936Y16748357D01*
X7920056Y16865196D01*
X7953615Y16985750D01*
X7957370Y17066741D01*
X7893622Y17269678D01*
X7692135Y17457229D01*
X7342264Y17636569D01*
X6858000Y17807329D01*
X6417274Y17965537D01*
X5935042Y18173424D01*
X5510880Y18387835D01*
X5485909Y18401988D01*
X5191327Y18562946D01*
X4954748Y18678011D01*
X4811788Y18730502D01*
X4787409Y18729187D01*
G37*
X4787409Y18729187D02*
X4760449Y18624337D01*
X4743860Y18409768D01*
X4741333Y18273889D01*
X4724299Y18028188D01*
X4679813Y17884365D01*
X4650755Y17864666D01*
X4534022Y17909552D01*
X4334274Y18024406D01*
X4194726Y18116103D01*
X3940038Y18271870D01*
X3644938Y18423796D01*
X3350990Y18554207D01*
X3099757Y18645428D01*
X2932803Y18679785D01*
X2893303Y18669525D01*
X2918236Y18582462D01*
X3056139Y18411265D01*
X3285682Y18174938D01*
X3585534Y17892486D01*
X3934367Y17582911D01*
X4310850Y17265219D01*
X4693653Y16958412D01*
X5061446Y16681495D01*
X5347154Y16483272D01*
X5714514Y16243642D01*
X6037751Y16036998D01*
X6287431Y15881850D01*
X6434122Y15796707D01*
X6453163Y15787765D01*
X6592599Y15809976D01*
X6725240Y15910968D01*
X6874609Y16045820D01*
X7112121Y16229552D01*
X7354898Y16400788D01*
X7648977Y16603973D01*
X7827936Y16748357D01*
X7920056Y16865196D01*
X7953615Y16985750D01*
X7957370Y17066741D01*
X7893622Y17269678D01*
X7692135Y17457229D01*
X7342264Y17636569D01*
X6858000Y17807329D01*
X6417274Y17965537D01*
X5935042Y18173424D01*
X5510880Y18387835D01*
X5485909Y18401988D01*
X5191327Y18562946D01*
X4954748Y18678011D01*
X4811788Y18730502D01*
X4787409Y18729187D01*
G36*
X33169942Y18398364D02*
G01*
X32967227Y18314716D01*
X32685737Y18180138D01*
X32503363Y18086443D01*
X32069811Y17877409D01*
X31572992Y17666401D01*
X31109188Y17493902D01*
X31039644Y17471029D01*
X30573664Y17300333D01*
X30267154Y17134990D01*
X30110767Y16967142D01*
X30095157Y16788930D01*
X30129939Y16706177D01*
X30230268Y16574428D01*
X30416562Y16368327D01*
X30651165Y16129243D01*
X30686290Y16094942D01*
X30909820Y15869238D01*
X31075940Y15685017D01*
X31154697Y15575928D01*
X31157333Y15565775D01*
X31189270Y15507366D01*
X31297180Y15512172D01*
X31499215Y15586555D01*
X31813526Y15736874D01*
X32160105Y15917191D01*
X32571778Y16146547D01*
X33002068Y16403913D01*
X33381271Y16646999D01*
X33514772Y16739105D01*
X33790707Y16950883D01*
X34097389Y17210039D01*
X34407508Y17490377D01*
X34693757Y17765704D01*
X34928826Y18009825D01*
X35085407Y18196547D01*
X35136667Y18294810D01*
X35068439Y18324209D01*
X34866209Y18256710D01*
X34533657Y18093989D01*
X34074462Y17837725D01*
X33866667Y17715655D01*
X33560927Y17536784D01*
X33315643Y17398510D01*
X33162716Y17318520D01*
X33127953Y17306158D01*
X33132267Y17391770D01*
X33162373Y17597189D01*
X33206267Y17847733D01*
X33250353Y18126590D01*
X33268480Y18332996D01*
X33259010Y18415879D01*
X33169942Y18398364D01*
G37*
X33169942Y18398364D02*
X32967227Y18314716D01*
X32685737Y18180138D01*
X32503363Y18086443D01*
X32069811Y17877409D01*
X31572992Y17666401D01*
X31109188Y17493902D01*
X31039644Y17471029D01*
X30573664Y17300333D01*
X30267154Y17134990D01*
X30110767Y16967142D01*
X30095157Y16788930D01*
X30129939Y16706177D01*
X30230268Y16574428D01*
X30416562Y16368327D01*
X30651165Y16129243D01*
X30686290Y16094942D01*
X30909820Y15869238D01*
X31075940Y15685017D01*
X31154697Y15575928D01*
X31157333Y15565775D01*
X31189270Y15507366D01*
X31297180Y15512172D01*
X31499215Y15586555D01*
X31813526Y15736874D01*
X32160105Y15917191D01*
X32571778Y16146547D01*
X33002068Y16403913D01*
X33381271Y16646999D01*
X33514772Y16739105D01*
X33790707Y16950883D01*
X34097389Y17210039D01*
X34407508Y17490377D01*
X34693757Y17765704D01*
X34928826Y18009825D01*
X35085407Y18196547D01*
X35136667Y18294810D01*
X35068439Y18324209D01*
X34866209Y18256710D01*
X34533657Y18093989D01*
X34074462Y17837725D01*
X33866667Y17715655D01*
X33560927Y17536784D01*
X33315643Y17398510D01*
X33162716Y17318520D01*
X33127953Y17306158D01*
X33132267Y17391770D01*
X33162373Y17597189D01*
X33206267Y17847733D01*
X33250353Y18126590D01*
X33268480Y18332996D01*
X33259010Y18415879D01*
X33169942Y18398364D01*
G36*
X7505124Y16120269D02*
G01*
X7213114Y15873705D01*
X7207258Y15868443D01*
X6848027Y15466437D01*
X6655354Y15060313D01*
X6629547Y14656628D01*
X6770912Y14261939D01*
X7079756Y13882800D01*
X7112857Y13852298D01*
X7315406Y13681293D01*
X7472249Y13570373D01*
X7528135Y13546666D01*
X7588650Y13621266D01*
X7642384Y13806300D01*
X7652268Y13864166D01*
X7683811Y14116748D01*
X7719084Y14458965D01*
X7746906Y14774333D01*
X7779356Y15159425D01*
X7815054Y15553318D01*
X7840288Y15811500D01*
X7852852Y16085517D01*
X7810704Y16227460D01*
X7699558Y16238616D01*
X7505124Y16120269D01*
G37*
X7505124Y16120269D02*
X7213114Y15873705D01*
X7207258Y15868443D01*
X6848027Y15466437D01*
X6655354Y15060313D01*
X6629547Y14656628D01*
X6770912Y14261939D01*
X7079756Y13882800D01*
X7112857Y13852298D01*
X7315406Y13681293D01*
X7472249Y13570373D01*
X7528135Y13546666D01*
X7588650Y13621266D01*
X7642384Y13806300D01*
X7652268Y13864166D01*
X7683811Y14116748D01*
X7719084Y14458965D01*
X7746906Y14774333D01*
X7779356Y15159425D01*
X7815054Y15553318D01*
X7840288Y15811500D01*
X7852852Y16085517D01*
X7810704Y16227460D01*
X7699558Y16238616D01*
X7505124Y16120269D01*
G36*
X30191250Y16006656D02*
G01*
X30169862Y15785227D01*
X30153477Y15450282D01*
X30143590Y15029722D01*
X30141333Y14689666D01*
X30143638Y14126924D01*
X30156127Y13720142D01*
X30187163Y13455957D01*
X30245110Y13321006D01*
X30338329Y13301925D01*
X30475186Y13385352D01*
X30664041Y13557922D01*
X30778562Y13671438D01*
X30980984Y13901319D01*
X31123351Y14115005D01*
X31170101Y14242938D01*
X31150161Y14753571D01*
X31022670Y15170016D01*
X31017475Y15180199D01*
X30893364Y15376138D01*
X30716486Y15605279D01*
X30522888Y15826843D01*
X30348619Y16000054D01*
X30229725Y16084132D01*
X30216148Y16086666D01*
X30191250Y16006656D01*
G37*
X30191250Y16006656D02*
X30169862Y15785227D01*
X30153477Y15450282D01*
X30143590Y15029722D01*
X30141333Y14689666D01*
X30143638Y14126924D01*
X30156127Y13720142D01*
X30187163Y13455957D01*
X30245110Y13321006D01*
X30338329Y13301925D01*
X30475186Y13385352D01*
X30664041Y13557922D01*
X30778562Y13671438D01*
X30980984Y13901319D01*
X31123351Y14115005D01*
X31170101Y14242938D01*
X31150161Y14753571D01*
X31022670Y15170016D01*
X31017475Y15180199D01*
X30893364Y15376138D01*
X30716486Y15605279D01*
X30522888Y15826843D01*
X30348619Y16000054D01*
X30229725Y16084132D01*
X30216148Y16086666D01*
X30191250Y16006656D01*
G36*
X6101766Y14795047D02*
G01*
X5960408Y14580153D01*
X5777048Y14261944D01*
X5578572Y13891792D01*
X5391864Y13521073D01*
X5243812Y13201157D01*
X5171886Y13018207D01*
X5127540Y12699292D01*
X5216665Y12381452D01*
X5448745Y12042053D01*
X5684164Y11795890D01*
X5887770Y11622146D01*
X6165089Y11413128D01*
X6480217Y11192581D01*
X6797246Y10984248D01*
X7080272Y10811873D01*
X7293387Y10699199D01*
X7389792Y10668000D01*
X7527146Y10620947D01*
X7765296Y10494920D01*
X8069621Y10312612D01*
X8405502Y10096717D01*
X8738319Y9869930D01*
X9033454Y9654945D01*
X9256286Y9474457D01*
X9347388Y9384724D01*
X9537086Y9173116D01*
X9654410Y9078525D01*
X9730128Y9083666D01*
X9778211Y9142722D01*
X9871729Y9222473D01*
X10073340Y9358970D01*
X10343601Y9525858D01*
X10411481Y9565862D01*
X10829440Y9824091D01*
X11165867Y10060179D01*
X11399506Y10257540D01*
X11509100Y10399592D01*
X11514667Y10426594D01*
X11460156Y10523957D01*
X11316219Y10705327D01*
X11112255Y10934065D01*
X11079712Y10968704D01*
X10596902Y11405459D01*
X9966231Y11856281D01*
X9207052Y12308531D01*
X8389778Y12725442D01*
X7991845Y12920705D01*
X7612651Y13118018D01*
X7300842Y13291464D01*
X7135153Y13393882D01*
X6765038Y13734435D01*
X6475170Y14175177D01*
X6307803Y14651280D01*
X6304636Y14668047D01*
X6246658Y14985094D01*
X6101766Y14795047D01*
G37*
X6101766Y14795047D02*
X5960408Y14580153D01*
X5777048Y14261944D01*
X5578572Y13891792D01*
X5391864Y13521073D01*
X5243812Y13201157D01*
X5171886Y13018207D01*
X5127540Y12699292D01*
X5216665Y12381452D01*
X5448745Y12042053D01*
X5684164Y11795890D01*
X5887770Y11622146D01*
X6165089Y11413128D01*
X6480217Y11192581D01*
X6797246Y10984248D01*
X7080272Y10811873D01*
X7293387Y10699199D01*
X7389792Y10668000D01*
X7527146Y10620947D01*
X7765296Y10494920D01*
X8069621Y10312612D01*
X8405502Y10096717D01*
X8738319Y9869930D01*
X9033454Y9654945D01*
X9256286Y9474457D01*
X9347388Y9384724D01*
X9537086Y9173116D01*
X9654410Y9078525D01*
X9730128Y9083666D01*
X9778211Y9142722D01*
X9871729Y9222473D01*
X10073340Y9358970D01*
X10343601Y9525858D01*
X10411481Y9565862D01*
X10829440Y9824091D01*
X11165867Y10060179D01*
X11399506Y10257540D01*
X11509100Y10399592D01*
X11514667Y10426594D01*
X11460156Y10523957D01*
X11316219Y10705327D01*
X11112255Y10934065D01*
X11079712Y10968704D01*
X10596902Y11405459D01*
X9966231Y11856281D01*
X9207052Y12308531D01*
X8389778Y12725442D01*
X7991845Y12920705D01*
X7612651Y13118018D01*
X7300842Y13291464D01*
X7135153Y13393882D01*
X6765038Y13734435D01*
X6475170Y14175177D01*
X6307803Y14651280D01*
X6304636Y14668047D01*
X6246658Y14985094D01*
X6101766Y14795047D01*
G36*
X31496421Y14537295D02*
G01*
X31472602Y14226534D01*
X31391200Y13950708D01*
X31236259Y13693917D01*
X30991822Y13440259D01*
X30641933Y13173835D01*
X30170638Y12878745D01*
X29561980Y12539087D01*
X29409399Y12457515D01*
X28964039Y12217060D01*
X28534320Y11978364D01*
X28159842Y11763883D01*
X27880207Y11596072D01*
X27803910Y11547132D01*
X27502797Y11322834D01*
X27196440Y11053689D01*
X26914118Y10770630D01*
X26685111Y10504592D01*
X26538698Y10286507D01*
X26500667Y10170275D01*
X26575202Y10015610D01*
X26803232Y9825556D01*
X26967787Y9720707D01*
X27308080Y9513361D01*
X27671792Y9287125D01*
X27864177Y9165166D01*
X28093403Y9019854D01*
X28255559Y8920131D01*
X28310135Y8890000D01*
X28359414Y8954464D01*
X28458003Y9112218D01*
X28473176Y9137755D01*
X28627950Y9346507D01*
X28855831Y9559084D01*
X29177346Y9790105D01*
X29613024Y10054189D01*
X30183390Y10365953D01*
X30238718Y10395108D01*
X30909761Y10751944D01*
X31443740Y11048626D01*
X31855960Y11298878D01*
X32161722Y11516424D01*
X32376331Y11714991D01*
X32515089Y11908301D01*
X32593301Y12110080D01*
X32626268Y12334052D01*
X32630330Y12539998D01*
X32612378Y12827763D01*
X32555648Y13089309D01*
X32442788Y13382170D01*
X32267936Y13741480D01*
X32083257Y14085372D01*
X31898943Y14400682D01*
X31746128Y14635004D01*
X31704638Y14689666D01*
X31496841Y14943666D01*
X31496421Y14537295D01*
G37*
X31496421Y14537295D02*
X31472602Y14226534D01*
X31391200Y13950708D01*
X31236259Y13693917D01*
X30991822Y13440259D01*
X30641933Y13173835D01*
X30170638Y12878745D01*
X29561980Y12539087D01*
X29409399Y12457515D01*
X28964039Y12217060D01*
X28534320Y11978364D01*
X28159842Y11763883D01*
X27880207Y11596072D01*
X27803910Y11547132D01*
X27502797Y11322834D01*
X27196440Y11053689D01*
X26914118Y10770630D01*
X26685111Y10504592D01*
X26538698Y10286507D01*
X26500667Y10170275D01*
X26575202Y10015610D01*
X26803232Y9825556D01*
X26967787Y9720707D01*
X27308080Y9513361D01*
X27671792Y9287125D01*
X27864177Y9165166D01*
X28093403Y9019854D01*
X28255559Y8920131D01*
X28310135Y8890000D01*
X28359414Y8954464D01*
X28458003Y9112218D01*
X28473176Y9137755D01*
X28627950Y9346507D01*
X28855831Y9559084D01*
X29177346Y9790105D01*
X29613024Y10054189D01*
X30183390Y10365953D01*
X30238718Y10395108D01*
X30909761Y10751944D01*
X31443740Y11048626D01*
X31855960Y11298878D01*
X32161722Y11516424D01*
X32376331Y11714991D01*
X32515089Y11908301D01*
X32593301Y12110080D01*
X32626268Y12334052D01*
X32630330Y12539998D01*
X32612378Y12827763D01*
X32555648Y13089309D01*
X32442788Y13382170D01*
X32267936Y13741480D01*
X32083257Y14085372D01*
X31898943Y14400682D01*
X31746128Y14635004D01*
X31704638Y14689666D01*
X31496841Y14943666D01*
X31496421Y14537295D01*
G36*
X11163294Y9664340D02*
G01*
X10695514Y9374500D01*
X10353407Y9156239D01*
X10117117Y8994568D01*
X9966785Y8874501D01*
X9882552Y8781047D01*
X9844559Y8699221D01*
X9837466Y8663686D01*
X9897470Y8495662D01*
X10115886Y8305221D01*
X10484083Y8097698D01*
X10993428Y7878429D01*
X11277320Y7773472D01*
X11936038Y7540371D01*
X11992826Y7766630D01*
X12010259Y7974644D01*
X11999361Y8296695D01*
X11966026Y8680979D01*
X11916146Y9075694D01*
X11855615Y9429038D01*
X11790328Y9689208D01*
X11767289Y9749007D01*
X11664863Y9973014D01*
X11163294Y9664340D01*
G37*
X11163294Y9664340D02*
X10695514Y9374500D01*
X10353407Y9156239D01*
X10117117Y8994568D01*
X9966785Y8874501D01*
X9882552Y8781047D01*
X9844559Y8699221D01*
X9837466Y8663686D01*
X9897470Y8495662D01*
X10115886Y8305221D01*
X10484083Y8097698D01*
X10993428Y7878429D01*
X11277320Y7773472D01*
X11936038Y7540371D01*
X11992826Y7766630D01*
X12010259Y7974644D01*
X11999361Y8296695D01*
X11966026Y8680979D01*
X11916146Y9075694D01*
X11855615Y9429038D01*
X11790328Y9689208D01*
X11767289Y9749007D01*
X11664863Y9973014D01*
X11163294Y9664340D01*
G36*
X26290616Y9615346D02*
G01*
X26215363Y9413222D01*
X26141920Y9105707D01*
X26077528Y8724536D01*
X26029428Y8301441D01*
X26020701Y8191500D01*
X25995853Y7815509D01*
X26002980Y7586102D01*
X26065826Y7480732D01*
X26208136Y7476850D01*
X26453656Y7551908D01*
X26628657Y7614172D01*
X27031336Y7772837D01*
X27420423Y7952502D01*
X27746316Y8128543D01*
X27955648Y8272993D01*
X28047024Y8417817D01*
X28005973Y8585799D01*
X27825145Y8785897D01*
X27497188Y9027069D01*
X27172548Y9227234D01*
X26853767Y9412175D01*
X26589231Y9561586D01*
X26412902Y9656517D01*
X26360437Y9680346D01*
X26290616Y9615346D01*
G37*
X26290616Y9615346D02*
X26215363Y9413222D01*
X26141920Y9105707D01*
X26077528Y8724536D01*
X26029428Y8301441D01*
X26020701Y8191500D01*
X25995853Y7815509D01*
X26002980Y7586102D01*
X26065826Y7480732D01*
X26208136Y7476850D01*
X26453656Y7551908D01*
X26628657Y7614172D01*
X27031336Y7772837D01*
X27420423Y7952502D01*
X27746316Y8128543D01*
X27955648Y8272993D01*
X28047024Y8417817D01*
X28005973Y8585799D01*
X27825145Y8785897D01*
X27497188Y9027069D01*
X27172548Y9227234D01*
X26853767Y9412175D01*
X26589231Y9561586D01*
X26412902Y9656517D01*
X26360437Y9680346D01*
X26290616Y9615346D01*
G36*
X19093222Y27046767D02*
G01*
X18898090Y26920390D01*
X18626080Y26734189D01*
X18345636Y26535800D01*
X17520021Y26000409D01*
X16652036Y25540558D01*
X15794684Y25182778D01*
X15367000Y25044831D01*
X14762852Y24920091D01*
X14057396Y24851066D01*
X13308918Y24837749D01*
X12575704Y24880132D01*
X11916038Y24978206D01*
X11641667Y25045339D01*
X10713303Y25377897D01*
X9784872Y25834825D01*
X8944805Y26367411D01*
X8288313Y26838423D01*
X8154133Y26521378D01*
X8012784Y26154635D01*
X7907401Y25791966D01*
X7831684Y25395399D01*
X7779336Y24926965D01*
X7744056Y24348692D01*
X7729340Y23960666D01*
X7724835Y23010222D01*
X7776558Y22065750D01*
X7889008Y21101949D01*
X8066687Y20093516D01*
X8314095Y19015147D01*
X8635730Y17841539D01*
X9036094Y16547391D01*
X9061967Y16467666D01*
X9392033Y15505724D01*
X9716252Y14681559D01*
X10051349Y13965126D01*
X10414054Y13326381D01*
X10821093Y12735279D01*
X11289193Y12161775D01*
X11718965Y11695364D01*
X12573720Y10882835D01*
X13469110Y10189297D01*
X14445061Y9587548D01*
X15541502Y9050386D01*
X15705667Y8979312D01*
X16461320Y8637261D01*
X17162492Y8281960D01*
X17777237Y7930969D01*
X18273606Y7601847D01*
X18429249Y7482364D01*
X18648024Y7321866D01*
X18826684Y7219805D01*
X18894916Y7200107D01*
X19022927Y7254252D01*
X19214870Y7386914D01*
X19304000Y7460185D01*
X19711312Y7769260D01*
X20230300Y8084280D01*
X20876111Y8413225D01*
X21663894Y8764077D01*
X22184567Y8977847D01*
X22979133Y9312828D01*
X23654721Y9640051D01*
X24257876Y9987476D01*
X24835144Y10383064D01*
X25433070Y10854773D01*
X25732786Y11109270D01*
X26429071Y11779690D01*
X27061096Y12535785D01*
X27633374Y13387841D01*
X28150419Y14346146D01*
X28616745Y15420985D01*
X29036864Y16622645D01*
X29415291Y17961413D01*
X29756540Y19447576D01*
X30034395Y20912666D01*
X30143649Y21555075D01*
X30224697Y22074353D01*
X30281679Y22513583D01*
X30318737Y22915851D01*
X30340010Y23324239D01*
X30349640Y23781832D01*
X30351746Y24214666D01*
X30350170Y24566021D01*
X29319594Y24566021D01*
X29270226Y23099177D01*
X29159150Y21501292D01*
X28930785Y19966353D01*
X28576645Y18456685D01*
X28088244Y16934610D01*
X27604872Y15705656D01*
X27095484Y14606289D01*
X26553111Y13649387D01*
X25960373Y12808801D01*
X25299886Y12058384D01*
X24962248Y11730454D01*
X24540903Y11358913D01*
X24119779Y11031119D01*
X23669596Y10729597D01*
X23161072Y10436871D01*
X22564926Y10135465D01*
X21851879Y9807904D01*
X21437239Y9626641D01*
X20907412Y9394387D01*
X20405760Y9167916D01*
X19961944Y8961128D01*
X19605628Y8787919D01*
X19366474Y8662188D01*
X19320572Y8634904D01*
X19096452Y8497485D01*
X18937262Y8406108D01*
X18888347Y8383609D01*
X18805890Y8421329D01*
X18601143Y8526446D01*
X18300406Y8685141D01*
X17929976Y8883599D01*
X17703014Y9006347D01*
X17242760Y9253743D01*
X16776926Y9500097D01*
X16352213Y9720970D01*
X16015322Y9891923D01*
X15939179Y9929422D01*
X15087672Y10398604D01*
X14241381Y10966352D01*
X13427470Y11608107D01*
X12673102Y12299309D01*
X12005441Y13015397D01*
X11451651Y13731811D01*
X11100410Y14304455D01*
X10943964Y14632101D01*
X10752612Y15086161D01*
X10539634Y15630718D01*
X10318316Y16229855D01*
X10101940Y16847655D01*
X9903790Y17448201D01*
X9743732Y17972773D01*
X9414269Y19199207D01*
X9166402Y20335980D01*
X8991317Y21436606D01*
X8880202Y22554603D01*
X8830826Y23516166D01*
X8817510Y24006383D01*
X8811217Y24432499D01*
X8811903Y24768013D01*
X8819525Y24986425D01*
X8833424Y25061333D01*
X8926926Y25018964D01*
X9119284Y24908204D01*
X9353855Y24762505D01*
X10256346Y24283262D01*
X11236869Y23941522D01*
X12272320Y23738976D01*
X13339593Y23677317D01*
X14415583Y23758233D01*
X15477185Y23983418D01*
X16270447Y24256255D01*
X16919551Y24560661D01*
X17610618Y24955234D01*
X18276689Y25400487D01*
X18519016Y25582296D01*
X18779595Y25776220D01*
X18995428Y25920716D01*
X19127478Y25990053D01*
X19141576Y25992666D01*
X19248188Y25939322D01*
X19437035Y25799324D01*
X19667656Y25602722D01*
X19672560Y25598289D01*
X20556644Y24904897D01*
X21524628Y24340478D01*
X22554232Y23912424D01*
X23623174Y23628129D01*
X24709174Y23494986D01*
X25789950Y23520387D01*
X25899255Y23532207D01*
X26553099Y23626797D01*
X27162679Y23759157D01*
X27778319Y23943779D01*
X28450341Y24195157D01*
X28989630Y24422251D01*
X29319594Y24566021D01*
X30350170Y24566021D01*
X30349161Y24790919D01*
X30338642Y25229079D01*
X30317707Y25560299D01*
X30283873Y25815730D01*
X30234659Y26026526D01*
X30198360Y26139837D01*
X30100019Y26393222D01*
X30011085Y26574538D01*
X29968068Y26630096D01*
X29870576Y26603618D01*
X29679153Y26491688D01*
X29430565Y26316522D01*
X29360709Y26263055D01*
X28370473Y25580320D01*
X27369742Y25064045D01*
X26361347Y24714656D01*
X25348120Y24532579D01*
X24332892Y24518241D01*
X23318494Y24672068D01*
X22307757Y24994487D01*
X21954785Y25147522D01*
X21100327Y25594267D01*
X20354527Y26099895D01*
X19760532Y26606500D01*
X19516349Y26828827D01*
X19318298Y26997873D01*
X19198764Y27086406D01*
X19181514Y27093333D01*
X19093222Y27046767D01*
G37*
X19093222Y27046767D02*
X18898090Y26920390D01*
X18626080Y26734189D01*
X18345636Y26535800D01*
X17520021Y26000409D01*
X16652036Y25540558D01*
X15794684Y25182778D01*
X15367000Y25044831D01*
X14762852Y24920091D01*
X14057396Y24851066D01*
X13308918Y24837749D01*
X12575704Y24880132D01*
X11916038Y24978206D01*
X11641667Y25045339D01*
X10713303Y25377897D01*
X9784872Y25834825D01*
X8944805Y26367411D01*
X8288313Y26838423D01*
X8154133Y26521378D01*
X8012784Y26154635D01*
X7907401Y25791966D01*
X7831684Y25395399D01*
X7779336Y24926965D01*
X7744056Y24348692D01*
X7729340Y23960666D01*
X7724835Y23010222D01*
X7776558Y22065750D01*
X7889008Y21101949D01*
X8066687Y20093516D01*
X8314095Y19015147D01*
X8635730Y17841539D01*
X9036094Y16547391D01*
X9061967Y16467666D01*
X9392033Y15505724D01*
X9716252Y14681559D01*
X10051349Y13965126D01*
X10414054Y13326381D01*
X10821093Y12735279D01*
X11289193Y12161775D01*
X11718965Y11695364D01*
X12573720Y10882835D01*
X13469110Y10189297D01*
X14445061Y9587548D01*
X15541502Y9050386D01*
X15705667Y8979312D01*
X16461320Y8637261D01*
X17162492Y8281960D01*
X17777237Y7930969D01*
X18273606Y7601847D01*
X18429249Y7482364D01*
X18648024Y7321866D01*
X18826684Y7219805D01*
X18894916Y7200107D01*
X19022927Y7254252D01*
X19214870Y7386914D01*
X19304000Y7460185D01*
X19711312Y7769260D01*
X20230300Y8084280D01*
X20876111Y8413225D01*
X21663894Y8764077D01*
X22184567Y8977847D01*
X22979133Y9312828D01*
X23654721Y9640051D01*
X24257876Y9987476D01*
X24835144Y10383064D01*
X25433070Y10854773D01*
X25732786Y11109270D01*
X26429071Y11779690D01*
X27061096Y12535785D01*
X27633374Y13387841D01*
X28150419Y14346146D01*
X28616745Y15420985D01*
X29036864Y16622645D01*
X29415291Y17961413D01*
X29756540Y19447576D01*
X30034395Y20912666D01*
X30143649Y21555075D01*
X30224697Y22074353D01*
X30281679Y22513583D01*
X30318737Y22915851D01*
X30340010Y23324239D01*
X30349640Y23781832D01*
X30351746Y24214666D01*
X30350170Y24566021D01*
X29319594Y24566021D01*
X29270226Y23099177D01*
X29159150Y21501292D01*
X28930785Y19966353D01*
X28576645Y18456685D01*
X28088244Y16934610D01*
X27604872Y15705656D01*
X27095484Y14606289D01*
X26553111Y13649387D01*
X25960373Y12808801D01*
X25299886Y12058384D01*
X24962248Y11730454D01*
X24540903Y11358913D01*
X24119779Y11031119D01*
X23669596Y10729597D01*
X23161072Y10436871D01*
X22564926Y10135465D01*
X21851879Y9807904D01*
X21437239Y9626641D01*
X20907412Y9394387D01*
X20405760Y9167916D01*
X19961944Y8961128D01*
X19605628Y8787919D01*
X19366474Y8662188D01*
X19320572Y8634904D01*
X19096452Y8497485D01*
X18937262Y8406108D01*
X18888347Y8383609D01*
X18805890Y8421329D01*
X18601143Y8526446D01*
X18300406Y8685141D01*
X17929976Y8883599D01*
X17703014Y9006347D01*
X17242760Y9253743D01*
X16776926Y9500097D01*
X16352213Y9720970D01*
X16015322Y9891923D01*
X15939179Y9929422D01*
X15087672Y10398604D01*
X14241381Y10966352D01*
X13427470Y11608107D01*
X12673102Y12299309D01*
X12005441Y13015397D01*
X11451651Y13731811D01*
X11100410Y14304455D01*
X10943964Y14632101D01*
X10752612Y15086161D01*
X10539634Y15630718D01*
X10318316Y16229855D01*
X10101940Y16847655D01*
X9903790Y17448201D01*
X9743732Y17972773D01*
X9414269Y19199207D01*
X9166402Y20335980D01*
X8991317Y21436606D01*
X8880202Y22554603D01*
X8830826Y23516166D01*
X8817510Y24006383D01*
X8811217Y24432499D01*
X8811903Y24768013D01*
X8819525Y24986425D01*
X8833424Y25061333D01*
X8926926Y25018964D01*
X9119284Y24908204D01*
X9353855Y24762505D01*
X10256346Y24283262D01*
X11236869Y23941522D01*
X12272320Y23738976D01*
X13339593Y23677317D01*
X14415583Y23758233D01*
X15477185Y23983418D01*
X16270447Y24256255D01*
X16919551Y24560661D01*
X17610618Y24955234D01*
X18276689Y25400487D01*
X18519016Y25582296D01*
X18779595Y25776220D01*
X18995428Y25920716D01*
X19127478Y25990053D01*
X19141576Y25992666D01*
X19248188Y25939322D01*
X19437035Y25799324D01*
X19667656Y25602722D01*
X19672560Y25598289D01*
X20556644Y24904897D01*
X21524628Y24340478D01*
X22554232Y23912424D01*
X23623174Y23628129D01*
X24709174Y23494986D01*
X25789950Y23520387D01*
X25899255Y23532207D01*
X26553099Y23626797D01*
X27162679Y23759157D01*
X27778319Y23943779D01*
X28450341Y24195157D01*
X28989630Y24422251D01*
X29319594Y24566021D01*
X30350170Y24566021D01*
X30349161Y24790919D01*
X30338642Y25229079D01*
X30317707Y25560299D01*
X30283873Y25815730D01*
X30234659Y26026526D01*
X30198360Y26139837D01*
X30100019Y26393222D01*
X30011085Y26574538D01*
X29968068Y26630096D01*
X29870576Y26603618D01*
X29679153Y26491688D01*
X29430565Y26316522D01*
X29360709Y26263055D01*
X28370473Y25580320D01*
X27369742Y25064045D01*
X26361347Y24714656D01*
X25348120Y24532579D01*
X24332892Y24518241D01*
X23318494Y24672068D01*
X22307757Y24994487D01*
X21954785Y25147522D01*
X21100327Y25594267D01*
X20354527Y26099895D01*
X19760532Y26606500D01*
X19516349Y26828827D01*
X19318298Y26997873D01*
X19198764Y27086406D01*
X19181514Y27093333D01*
X19093222Y27046767D01*
G36*
X9641208Y8025871D02*
G01*
X9573626Y7828228D01*
X9526259Y7513533D01*
X9498781Y7121492D01*
X9490867Y6691813D01*
X9502189Y6264204D01*
X9532423Y5878370D01*
X9581241Y5574020D01*
X9648319Y5390860D01*
X9662991Y5373145D01*
X9847003Y5241564D01*
X10152558Y5075554D01*
X10540145Y4892998D01*
X10970257Y4711776D01*
X11403385Y4549770D01*
X11684649Y4458147D01*
X13038489Y4122174D01*
X14518290Y3892052D01*
X14520333Y3891817D01*
X14809413Y3868628D01*
X15243352Y3847200D01*
X15798899Y3827739D01*
X16452804Y3810453D01*
X17181816Y3795550D01*
X17962685Y3783235D01*
X18772160Y3773717D01*
X19586990Y3767203D01*
X20383926Y3763899D01*
X21139715Y3764014D01*
X21831109Y3767754D01*
X22434855Y3775326D01*
X22927704Y3786937D01*
X23286405Y3802795D01*
X23410333Y3812599D01*
X24637732Y3970971D01*
X25722652Y4181812D01*
X26658960Y4443616D01*
X27087620Y4614333D01*
X24847175Y4614333D01*
X24425087Y4564135D01*
X23997825Y4519238D01*
X23705987Y4505765D01*
X23518328Y4525221D01*
X23403603Y4579113D01*
X23367328Y4615143D01*
X23354220Y4652808D01*
X23019722Y4652808D01*
X23018994Y4478655D01*
X23012351Y4442128D01*
X22918758Y4422086D01*
X22694804Y4395786D01*
X22379141Y4367381D01*
X22170840Y4351690D01*
X21790055Y4328449D01*
X21545090Y4325403D01*
X21403292Y4345652D01*
X21332012Y4392298D01*
X21309814Y4433451D01*
X21205335Y4517557D01*
X21007455Y4567264D01*
X20773341Y4581399D01*
X20560158Y4558786D01*
X20425073Y4498251D01*
X20404667Y4452055D01*
X20328594Y4311253D01*
X20104456Y4244084D01*
X20047215Y4240017D01*
X19984590Y4253837D01*
X19966088Y4321964D01*
X19996182Y4472952D01*
X20079344Y4735359D01*
X20162205Y4974166D01*
X20215825Y5124298D01*
X19812000Y5124298D01*
X19812000Y5124155D01*
X19806047Y4791780D01*
X19780790Y4583997D01*
X19725136Y4456264D01*
X19627990Y4364041D01*
X19621500Y4359314D01*
X19434127Y4289509D01*
X19155200Y4254529D01*
X18846746Y4253961D01*
X18570792Y4287391D01*
X18389364Y4354407D01*
X18373840Y4367627D01*
X18301790Y4509647D01*
X18269267Y4658193D01*
X18306951Y4827546D01*
X18425322Y4906472D01*
X18561503Y4880508D01*
X18650037Y4745776D01*
X18717640Y4628716D01*
X18870845Y4578953D01*
X19033015Y4572000D01*
X19299752Y4604532D01*
X19421533Y4704871D01*
X19421942Y4705925D01*
X19466575Y4928344D01*
X19468926Y5196633D01*
X19433240Y5437619D01*
X19371733Y5571066D01*
X19177380Y5663651D01*
X18938964Y5656860D01*
X18738472Y5558858D01*
X18691685Y5503333D01*
X18546504Y5361306D01*
X18399627Y5340711D01*
X18302196Y5438329D01*
X18288000Y5528733D01*
X18295110Y5564670D01*
X18055164Y5564670D01*
X18044826Y5207290D01*
X18028866Y4862265D01*
X18008687Y4583235D01*
X17987661Y4412309D01*
X17978765Y4381790D01*
X17871371Y4328462D01*
X17775003Y4318000D01*
X17667119Y4348222D01*
X17619535Y4467953D01*
X17610667Y4656666D01*
X17599261Y4868825D01*
X17570772Y4986748D01*
X17559288Y4995333D01*
X17471429Y4946479D01*
X17292714Y4818957D01*
X17082561Y4656666D01*
X16835598Y4463471D01*
X16680967Y4360580D01*
X16579470Y4331645D01*
X16491911Y4360322D01*
X16443002Y4389955D01*
X16416568Y4465205D01*
X16505415Y4601383D01*
X16718168Y4813736D01*
X16919755Y5007248D01*
X17058970Y5155600D01*
X17102667Y5219649D01*
X17050271Y5306249D01*
X16919557Y5469349D01*
X16750231Y5664027D01*
X16582002Y5845359D01*
X16454579Y5968424D01*
X16417861Y5994381D01*
X16373238Y5932573D01*
X16327106Y5731142D01*
X16284022Y5419689D01*
X16248542Y5027816D01*
X16234758Y4804901D01*
X16215215Y4562375D01*
X16169020Y4444349D01*
X16064516Y4406062D01*
X15950317Y4402735D01*
X15536336Y4421194D01*
X15204247Y4472319D01*
X14982922Y4549389D01*
X14901233Y4645680D01*
X14901218Y4647008D01*
X14929576Y4724741D01*
X15039527Y4759635D01*
X15268130Y4760100D01*
X15373853Y4754260D01*
X15641693Y4741916D01*
X15779217Y4757678D01*
X15824908Y4816202D01*
X15818469Y4923593D01*
X15778317Y5047138D01*
X15672257Y5112335D01*
X15453566Y5143564D01*
X15388167Y5148139D01*
X15138827Y5176252D01*
X15018243Y5231178D01*
X14986024Y5331774D01*
X14986000Y5335918D01*
X15007211Y5430260D01*
X15097937Y5475153D01*
X15298817Y5483718D01*
X15430500Y5479446D01*
X15691068Y5475939D01*
X15824220Y5502775D01*
X15871079Y5573914D01*
X15875000Y5630333D01*
X15850810Y5731941D01*
X15751418Y5788711D01*
X15536594Y5818285D01*
X15430500Y5825258D01*
X15167542Y5849561D01*
X15033587Y5895042D01*
X14988338Y5979435D01*
X14986000Y6020885D01*
X14993776Y6076857D01*
X14777337Y6076857D01*
X14762556Y5865589D01*
X14735244Y5578558D01*
X14700430Y5261789D01*
X14663144Y4961312D01*
X14628414Y4723154D01*
X14603379Y4599739D01*
X14509976Y4538030D01*
X14403233Y4544879D01*
X14260206Y4657251D01*
X14207553Y4855807D01*
X14172248Y5033197D01*
X14076870Y5115336D01*
X13867188Y5148334D01*
X13863085Y5148675D01*
X13651526Y5153428D01*
X13549019Y5095600D01*
X13497184Y4937889D01*
X13491791Y4911455D01*
X13428475Y4725658D01*
X13318493Y4669666D01*
X13260039Y4673720D01*
X13129498Y4764151D01*
X13100794Y4964894D01*
X13177878Y5248089D01*
X13178397Y5249333D01*
X13210718Y5421067D01*
X13213404Y5649563D01*
X13230180Y6005055D01*
X13337997Y6221039D01*
X13464074Y6290408D01*
X13609942Y6299782D01*
X13855939Y6290481D01*
X14148660Y6267561D01*
X14434696Y6236079D01*
X14660640Y6201091D01*
X14773086Y6167654D01*
X14774557Y6166332D01*
X14777337Y6076857D01*
X14993776Y6076857D01*
X14998041Y6107548D01*
X15058000Y6153488D01*
X15201632Y6165649D01*
X15464691Y6150977D01*
X15599833Y6140106D01*
X16092690Y6097800D01*
X16448609Y6059329D01*
X16699471Y6015322D01*
X16877158Y5956407D01*
X17013550Y5873212D01*
X17140527Y5756365D01*
X17230510Y5660745D01*
X17445509Y5459726D01*
X17587725Y5409085D01*
X17667185Y5511498D01*
X17693916Y5769637D01*
X17694037Y5784388D01*
X17717940Y5954326D01*
X17813178Y6001914D01*
X17883399Y5996055D01*
X17972224Y5974207D01*
X18025864Y5917485D01*
X18051213Y5792202D01*
X18055164Y5564670D01*
X18295110Y5564670D01*
X18328292Y5732375D01*
X18465800Y5856797D01*
X18725475Y5916187D01*
X18987833Y5926666D01*
X19366778Y5914594D01*
X19607824Y5858353D01*
X19741814Y5727912D01*
X19799592Y5493238D01*
X19812000Y5124298D01*
X20215825Y5124298D01*
X20313613Y5398097D01*
X20426897Y5687378D01*
X20518451Y5867676D01*
X20604671Y5964656D01*
X20701950Y6003986D01*
X20824697Y6011333D01*
X20948349Y5999194D01*
X21044290Y5942149D01*
X21136351Y5809258D01*
X21248362Y5569580D01*
X21346373Y5334000D01*
X21623310Y4656666D01*
X22630981Y4656666D01*
X22575663Y5376333D01*
X22550542Y5724389D01*
X22545345Y5937002D01*
X22566881Y6047554D01*
X22621958Y6089426D01*
X22717384Y6095999D01*
X22722438Y6096000D01*
X22816433Y6087426D01*
X22878974Y6040749D01*
X22920258Y5924535D01*
X22950484Y5707350D01*
X22979850Y5357760D01*
X22985266Y5285890D01*
X23008068Y4934717D01*
X23019722Y4652808D01*
X23354220Y4652808D01*
X23300925Y4805947D01*
X23306569Y5080794D01*
X23317876Y5304580D01*
X23290500Y5448221D01*
X23275275Y5465980D01*
X23203760Y5596464D01*
X23217288Y5794346D01*
X23305756Y5986946D01*
X23355373Y6042239D01*
X23542006Y6136476D01*
X23859951Y6189902D01*
X24094591Y6203528D01*
X24677104Y6223000D01*
X24736415Y5757333D01*
X24776261Y5418154D01*
X24810161Y5085157D01*
X24821450Y4953000D01*
X24847175Y4614333D01*
X27087620Y4614333D01*
X27440521Y4754878D01*
X27622399Y4846242D01*
X27873926Y4996046D01*
X28055324Y5158188D01*
X28175443Y5360837D01*
X28243130Y5632161D01*
X28267234Y6000331D01*
X28256604Y6493515D01*
X28240067Y6812545D01*
X28214502Y7210905D01*
X28188106Y7545845D01*
X28163997Y7782076D01*
X28145365Y7884196D01*
X28058482Y7877097D01*
X27861555Y7804920D01*
X27593831Y7682500D01*
X27537688Y7654526D01*
X26805541Y7349603D01*
X25912656Y7092511D01*
X24860814Y6883544D01*
X23651799Y6722994D01*
X22287394Y6611152D01*
X20785667Y6548704D01*
X19097938Y6531512D01*
X17508842Y6563577D01*
X16027497Y6643805D01*
X14663023Y6771104D01*
X13424537Y6944379D01*
X12321158Y7162536D01*
X11362005Y7424483D01*
X10556196Y7729126D01*
X10421151Y7791758D01*
X10063752Y7955611D01*
X9829403Y8042292D01*
X9694305Y8058945D01*
X9641208Y8025871D01*
G37*
X9641208Y8025871D02*
X9573626Y7828228D01*
X9526259Y7513533D01*
X9498781Y7121492D01*
X9490867Y6691813D01*
X9502189Y6264204D01*
X9532423Y5878370D01*
X9581241Y5574020D01*
X9648319Y5390860D01*
X9662991Y5373145D01*
X9847003Y5241564D01*
X10152558Y5075554D01*
X10540145Y4892998D01*
X10970257Y4711776D01*
X11403385Y4549770D01*
X11684649Y4458147D01*
X13038489Y4122174D01*
X14518290Y3892052D01*
X14520333Y3891817D01*
X14809413Y3868628D01*
X15243352Y3847200D01*
X15798899Y3827739D01*
X16452804Y3810453D01*
X17181816Y3795550D01*
X17962685Y3783235D01*
X18772160Y3773717D01*
X19586990Y3767203D01*
X20383926Y3763899D01*
X21139715Y3764014D01*
X21831109Y3767754D01*
X22434855Y3775326D01*
X22927704Y3786937D01*
X23286405Y3802795D01*
X23410333Y3812599D01*
X24637732Y3970971D01*
X25722652Y4181812D01*
X26658960Y4443616D01*
X27087620Y4614333D01*
X24847175Y4614333D01*
X24425087Y4564135D01*
X23997825Y4519238D01*
X23705987Y4505765D01*
X23518328Y4525221D01*
X23403603Y4579113D01*
X23367328Y4615143D01*
X23354220Y4652808D01*
X23019722Y4652808D01*
X23018994Y4478655D01*
X23012351Y4442128D01*
X22918758Y4422086D01*
X22694804Y4395786D01*
X22379141Y4367381D01*
X22170840Y4351690D01*
X21790055Y4328449D01*
X21545090Y4325403D01*
X21403292Y4345652D01*
X21332012Y4392298D01*
X21309814Y4433451D01*
X21205335Y4517557D01*
X21007455Y4567264D01*
X20773341Y4581399D01*
X20560158Y4558786D01*
X20425073Y4498251D01*
X20404667Y4452055D01*
X20328594Y4311253D01*
X20104456Y4244084D01*
X20047215Y4240017D01*
X19984590Y4253837D01*
X19966088Y4321964D01*
X19996182Y4472952D01*
X20079344Y4735359D01*
X20162205Y4974166D01*
X20215825Y5124298D01*
X19812000Y5124298D01*
X19812000Y5124155D01*
X19806047Y4791780D01*
X19780790Y4583997D01*
X19725136Y4456264D01*
X19627990Y4364041D01*
X19621500Y4359314D01*
X19434127Y4289509D01*
X19155200Y4254529D01*
X18846746Y4253961D01*
X18570792Y4287391D01*
X18389364Y4354407D01*
X18373840Y4367627D01*
X18301790Y4509647D01*
X18269267Y4658193D01*
X18306951Y4827546D01*
X18425322Y4906472D01*
X18561503Y4880508D01*
X18650037Y4745776D01*
X18717640Y4628716D01*
X18870845Y4578953D01*
X19033015Y4572000D01*
X19299752Y4604532D01*
X19421533Y4704871D01*
X19421942Y4705925D01*
X19466575Y4928344D01*
X19468926Y5196633D01*
X19433240Y5437619D01*
X19371733Y5571066D01*
X19177380Y5663651D01*
X18938964Y5656860D01*
X18738472Y5558858D01*
X18691685Y5503333D01*
X18546504Y5361306D01*
X18399627Y5340711D01*
X18302196Y5438329D01*
X18288000Y5528733D01*
X18295110Y5564670D01*
X18055164Y5564670D01*
X18044826Y5207290D01*
X18028866Y4862265D01*
X18008687Y4583235D01*
X17987661Y4412309D01*
X17978765Y4381790D01*
X17871371Y4328462D01*
X17775003Y4318000D01*
X17667119Y4348222D01*
X17619535Y4467953D01*
X17610667Y4656666D01*
X17599261Y4868825D01*
X17570772Y4986748D01*
X17559288Y4995333D01*
X17471429Y4946479D01*
X17292714Y4818957D01*
X17082561Y4656666D01*
X16835598Y4463471D01*
X16680967Y4360580D01*
X16579470Y4331645D01*
X16491911Y4360322D01*
X16443002Y4389955D01*
X16416568Y4465205D01*
X16505415Y4601383D01*
X16718168Y4813736D01*
X16919755Y5007248D01*
X17058970Y5155600D01*
X17102667Y5219649D01*
X17050271Y5306249D01*
X16919557Y5469349D01*
X16750231Y5664027D01*
X16582002Y5845359D01*
X16454579Y5968424D01*
X16417861Y5994381D01*
X16373238Y5932573D01*
X16327106Y5731142D01*
X16284022Y5419689D01*
X16248542Y5027816D01*
X16234758Y4804901D01*
X16215215Y4562375D01*
X16169020Y4444349D01*
X16064516Y4406062D01*
X15950317Y4402735D01*
X15536336Y4421194D01*
X15204247Y4472319D01*
X14982922Y4549389D01*
X14901233Y4645680D01*
X14901218Y4647008D01*
X14929576Y4724741D01*
X15039527Y4759635D01*
X15268130Y4760100D01*
X15373853Y4754260D01*
X15641693Y4741916D01*
X15779217Y4757678D01*
X15824908Y4816202D01*
X15818469Y4923593D01*
X15778317Y5047138D01*
X15672257Y5112335D01*
X15453566Y5143564D01*
X15388167Y5148139D01*
X15138827Y5176252D01*
X15018243Y5231178D01*
X14986024Y5331774D01*
X14986000Y5335918D01*
X15007211Y5430260D01*
X15097937Y5475153D01*
X15298817Y5483718D01*
X15430500Y5479446D01*
X15691068Y5475939D01*
X15824220Y5502775D01*
X15871079Y5573914D01*
X15875000Y5630333D01*
X15850810Y5731941D01*
X15751418Y5788711D01*
X15536594Y5818285D01*
X15430500Y5825258D01*
X15167542Y5849561D01*
X15033587Y5895042D01*
X14988338Y5979435D01*
X14986000Y6020885D01*
X14993776Y6076857D01*
X14777337Y6076857D01*
X14762556Y5865589D01*
X14735244Y5578558D01*
X14700430Y5261789D01*
X14663144Y4961312D01*
X14628414Y4723154D01*
X14603379Y4599739D01*
X14509976Y4538030D01*
X14403233Y4544879D01*
X14260206Y4657251D01*
X14207553Y4855807D01*
X14172248Y5033197D01*
X14076870Y5115336D01*
X13867188Y5148334D01*
X13863085Y5148675D01*
X13651526Y5153428D01*
X13549019Y5095600D01*
X13497184Y4937889D01*
X13491791Y4911455D01*
X13428475Y4725658D01*
X13318493Y4669666D01*
X13260039Y4673720D01*
X13129498Y4764151D01*
X13100794Y4964894D01*
X13177878Y5248089D01*
X13178397Y5249333D01*
X13210718Y5421067D01*
X13213404Y5649563D01*
X13230180Y6005055D01*
X13337997Y6221039D01*
X13464074Y6290408D01*
X13609942Y6299782D01*
X13855939Y6290481D01*
X14148660Y6267561D01*
X14434696Y6236079D01*
X14660640Y6201091D01*
X14773086Y6167654D01*
X14774557Y6166332D01*
X14777337Y6076857D01*
X14993776Y6076857D01*
X14998041Y6107548D01*
X15058000Y6153488D01*
X15201632Y6165649D01*
X15464691Y6150977D01*
X15599833Y6140106D01*
X16092690Y6097800D01*
X16448609Y6059329D01*
X16699471Y6015322D01*
X16877158Y5956407D01*
X17013550Y5873212D01*
X17140527Y5756365D01*
X17230510Y5660745D01*
X17445509Y5459726D01*
X17587725Y5409085D01*
X17667185Y5511498D01*
X17693916Y5769637D01*
X17694037Y5784388D01*
X17717940Y5954326D01*
X17813178Y6001914D01*
X17883399Y5996055D01*
X17972224Y5974207D01*
X18025864Y5917485D01*
X18051213Y5792202D01*
X18055164Y5564670D01*
X18295110Y5564670D01*
X18328292Y5732375D01*
X18465800Y5856797D01*
X18725475Y5916187D01*
X18987833Y5926666D01*
X19366778Y5914594D01*
X19607824Y5858353D01*
X19741814Y5727912D01*
X19799592Y5493238D01*
X19812000Y5124298D01*
X20215825Y5124298D01*
X20313613Y5398097D01*
X20426897Y5687378D01*
X20518451Y5867676D01*
X20604671Y5964656D01*
X20701950Y6003986D01*
X20824697Y6011333D01*
X20948349Y5999194D01*
X21044290Y5942149D01*
X21136351Y5809258D01*
X21248362Y5569580D01*
X21346373Y5334000D01*
X21623310Y4656666D01*
X22630981Y4656666D01*
X22575663Y5376333D01*
X22550542Y5724389D01*
X22545345Y5937002D01*
X22566881Y6047554D01*
X22621958Y6089426D01*
X22717384Y6095999D01*
X22722438Y6096000D01*
X22816433Y6087426D01*
X22878974Y6040749D01*
X22920258Y5924535D01*
X22950484Y5707350D01*
X22979850Y5357760D01*
X22985266Y5285890D01*
X23008068Y4934717D01*
X23019722Y4652808D01*
X23354220Y4652808D01*
X23300925Y4805947D01*
X23306569Y5080794D01*
X23317876Y5304580D01*
X23290500Y5448221D01*
X23275275Y5465980D01*
X23203760Y5596464D01*
X23217288Y5794346D01*
X23305756Y5986946D01*
X23355373Y6042239D01*
X23542006Y6136476D01*
X23859951Y6189902D01*
X24094591Y6203528D01*
X24677104Y6223000D01*
X24736415Y5757333D01*
X24776261Y5418154D01*
X24810161Y5085157D01*
X24821450Y4953000D01*
X24847175Y4614333D01*
X27087620Y4614333D01*
X27440521Y4754878D01*
X27622399Y4846242D01*
X27873926Y4996046D01*
X28055324Y5158188D01*
X28175443Y5360837D01*
X28243130Y5632161D01*
X28267234Y6000331D01*
X28256604Y6493515D01*
X28240067Y6812545D01*
X28214502Y7210905D01*
X28188106Y7545845D01*
X28163997Y7782076D01*
X28145365Y7884196D01*
X28058482Y7877097D01*
X27861555Y7804920D01*
X27593831Y7682500D01*
X27537688Y7654526D01*
X26805541Y7349603D01*
X25912656Y7092511D01*
X24860814Y6883544D01*
X23651799Y6722994D01*
X22287394Y6611152D01*
X20785667Y6548704D01*
X19097938Y6531512D01*
X17508842Y6563577D01*
X16027497Y6643805D01*
X14663023Y6771104D01*
X13424537Y6944379D01*
X12321158Y7162536D01*
X11362005Y7424483D01*
X10556196Y7729126D01*
X10421151Y7791758D01*
X10063752Y7955611D01*
X9829403Y8042292D01*
X9694305Y8058945D01*
X9641208Y8025871D01*
D11*
G36*
X19731870Y44579141D02*
G01*
X19925068Y44540712D01*
X20471033Y44314566D01*
X20962389Y43986252D01*
X21380252Y43568389D01*
X21708566Y43077033D01*
X21934712Y42531068D01*
X22050000Y41951474D01*
X22050000Y41360526D01*
X21934712Y40780932D01*
X21708566Y40234967D01*
X21380252Y39743611D01*
X20962389Y39325748D01*
X20471033Y38997434D01*
X19925068Y38771288D01*
X19731870Y38732859D01*
X19345476Y38656000D01*
X18754524Y38656000D01*
X18368130Y38732859D01*
X18174932Y38771288D01*
X17628967Y38997434D01*
X17137611Y39325748D01*
X16719748Y39743611D01*
X16391434Y40234967D01*
X16165288Y40780932D01*
X16050000Y41360526D01*
X16050000Y41951474D01*
X16165288Y42531068D01*
X16391434Y43077033D01*
X16719748Y43568389D01*
X17137611Y43986252D01*
X17628967Y44314566D01*
X18174932Y44540712D01*
X18368130Y44579141D01*
X18754524Y44656000D01*
X19345476Y44656000D01*
X19731870Y44579141D01*
G37*
M02*
