%MOIN*%
%OFA0B0*%
%FSLAX44Y44*%
%IPPOS*%
%LPD*%
%ADD10C,0.00984251968503937*%
%ADD11C,0.011811023622047244*%
%ADD12C,0.013779527559055118*%
%ADD13C,0.015748031496062992*%
D10*
X00007580Y00000191D02*
X00007740Y00000195D01*
X00007901Y00000202D01*
X00008061Y00000212D01*
X00008221Y00000226D01*
X00008381Y00000244D01*
X00008541Y00000265D01*
X00008699Y00000290D01*
X00008857Y00000318D01*
X00009015Y00000349D01*
X00009172Y00000384D01*
X00009328Y00000423D01*
X00009483Y00000465D01*
X00009637Y00000510D01*
X00009790Y00000559D01*
X00009942Y00000611D01*
X00010093Y00000666D01*
X00010243Y00000725D01*
X00010391Y00000787D01*
X00010538Y00000852D01*
X00010683Y00000920D01*
X00010827Y00000992D01*
X00010969Y00001067D01*
X00011110Y00001144D01*
X00011249Y00001225D01*
X00011386Y00001309D01*
X00011521Y00001396D01*
X00011654Y00001486D01*
X00011785Y00001579D01*
X00011914Y00001675D01*
X00012041Y00001773D01*
X00012166Y00001874D01*
X00012289Y00001978D01*
X00012409Y00002085D01*
X00012527Y00002194D01*
X00012642Y00002306D01*
X00012755Y00002420D01*
X00012865Y00002537D01*
X00012973Y00002656D01*
X00013078Y00002777D01*
X00013181Y00002901D01*
X00013280Y00003027D01*
X00013377Y00003156D01*
X00013471Y00003286D01*
X00013563Y00003418D01*
X00013651Y00003552D01*
X00013736Y00003688D01*
X00013819Y00003827D01*
X00013898Y00003966D01*
X00013974Y00004108D01*
X00014047Y00004251D01*
X00014117Y00004396D01*
X00014183Y00004542D01*
X00014247Y00004689D01*
X00014307Y00004839D01*
X00014364Y00004989D01*
X00014417Y00005140D01*
X00014467Y00005293D01*
X00014514Y00005447D01*
X00014558Y00005601D01*
X00014598Y00005757D01*
X00014634Y00005913D01*
X00014667Y00006071D01*
X00014697Y00006229D01*
X00014723Y00006387D01*
X00014746Y00006546D01*
X00014765Y00006706D01*
X00014781Y00006866D01*
X00014793Y00007026D01*
X00014802Y00007186D01*
X00014807Y00007347D01*
X00014808Y00007508D01*
X00014806Y00007668D01*
X00014801Y00007829D01*
X00014792Y00007989D01*
X00014779Y00008149D01*
X00014763Y00008309D01*
X00014744Y00008469D01*
X00014721Y00008628D01*
X00014694Y00008786D01*
X00014664Y00008944D01*
X00014631Y00009101D01*
X00014594Y00009258D01*
X00014553Y00009413D01*
X00014510Y00009568D01*
X00014463Y00009721D01*
X00014412Y00009874D01*
X00014358Y00010025D01*
X00014301Y00010175D01*
X00014240Y00010324D01*
X00014177Y00010472D01*
X00014110Y00010618D01*
X00014040Y00010762D01*
X00013966Y00010905D01*
X00013890Y00011047D01*
X00013810Y00011186D01*
X00013728Y00011324D01*
X00013642Y00011460D01*
X00013554Y00011594D01*
X00013462Y00011726D01*
X00013368Y00011856D01*
X00013271Y00011984D01*
X00013171Y00012110D01*
X00013068Y00012234D01*
X00012963Y00012355D01*
X00012854Y00012474D01*
X00012744Y00012590D01*
X00012631Y00012704D01*
X00012515Y00012816D01*
X00012397Y00012925D01*
X00012276Y00013031D01*
X00012154Y00013135D01*
X00012029Y00013236D01*
X00011901Y00013334D01*
X00011772Y00013429D01*
X00011641Y00013522D01*
X00011507Y00013612D01*
X00011372Y00013698D01*
X00011235Y00013782D01*
X00011096Y00013862D01*
X00010955Y00013940D01*
X00010813Y00014014D01*
X00010669Y00014086D01*
X00010523Y00014154D01*
X00010374Y00014219D01*
X00010374Y00014220D01*
X00010373Y00014220D01*
X00010217Y00014289D01*
X00010203Y00014296D01*
X00010053Y00014378D01*
X00010040Y00014386D01*
X00009897Y00014480D01*
X00009884Y00014489D01*
X00009749Y00014593D01*
X00009737Y00014603D01*
X00009610Y00014718D01*
X00009599Y00014729D01*
X00009482Y00014854D01*
X00009472Y00014866D01*
X00009365Y00014999D01*
X00009356Y00015012D01*
X00009260Y00015153D01*
X00009252Y00015166D01*
X00009168Y00015315D01*
X00009161Y00015329D01*
X00009088Y00015484D01*
X00009082Y00015498D01*
X00009023Y00015658D01*
X00009018Y00015673D01*
X00008971Y00015838D01*
X00008967Y00015853D01*
X00008934Y00016020D01*
X00008931Y00016036D01*
X00008911Y00016205D01*
X00008910Y00016221D01*
X00008903Y00016391D01*
X00008895Y00016546D01*
X00008872Y00016691D01*
X00008834Y00016833D01*
X00008781Y00016970D01*
X00008714Y00017101D01*
X00008634Y00017224D01*
X00008542Y00017338D01*
X00008438Y00017442D01*
X00008324Y00017534D01*
X00008201Y00017614D01*
X00008070Y00017681D01*
X00007933Y00017734D01*
X00007791Y00017772D01*
X00007646Y00017795D01*
X00007499Y00017802D01*
X00007353Y00017795D01*
X00007208Y00017772D01*
X00007066Y00017734D01*
X00006929Y00017681D01*
X00006798Y00017614D01*
X00006675Y00017534D01*
X00006561Y00017442D01*
X00006457Y00017338D01*
X00006365Y00017224D01*
X00006285Y00017101D01*
X00006218Y00016970D01*
X00006165Y00016833D01*
X00006127Y00016691D01*
X00006104Y00016546D01*
X00006096Y00016390D01*
X00006089Y00016221D01*
X00006088Y00016205D01*
X00006068Y00016036D01*
X00006065Y00016020D01*
X00006032Y00015853D01*
X00006028Y00015838D01*
X00005981Y00015673D01*
X00005976Y00015658D01*
X00005917Y00015498D01*
X00005911Y00015484D01*
X00005838Y00015329D01*
X00005831Y00015315D01*
X00005747Y00015166D01*
X00005739Y00015153D01*
X00005643Y00015012D01*
X00005634Y00014999D01*
X00005527Y00014866D01*
X00005517Y00014854D01*
X00005400Y00014729D01*
X00005389Y00014718D01*
X00005262Y00014603D01*
X00005250Y00014593D01*
X00005115Y00014489D01*
X00005102Y00014480D01*
X00004959Y00014386D01*
X00004946Y00014378D01*
X00004796Y00014296D01*
X00004782Y00014289D01*
X00004626Y00014220D01*
X00004625Y00014219D01*
X00004476Y00014154D01*
X00004330Y00014086D01*
X00004186Y00014014D01*
X00004044Y00013940D01*
X00003903Y00013862D01*
X00003764Y00013782D01*
X00003627Y00013698D01*
X00003492Y00013612D01*
X00003358Y00013522D01*
X00003227Y00013429D01*
X00003098Y00013334D01*
X00002970Y00013236D01*
X00002845Y00013135D01*
X00002723Y00013031D01*
X00002602Y00012925D01*
X00002484Y00012816D01*
X00002368Y00012704D01*
X00002255Y00012590D01*
X00002145Y00012474D01*
X00002036Y00012355D01*
X00001931Y00012234D01*
X00001828Y00012110D01*
X00001728Y00011984D01*
X00001631Y00011856D01*
X00001537Y00011726D01*
X00001445Y00011594D01*
X00001357Y00011460D01*
X00001271Y00011324D01*
X00001189Y00011186D01*
X00001109Y00011047D01*
X00001033Y00010905D01*
X00000959Y00010762D01*
X00000889Y00010618D01*
X00000822Y00010472D01*
X00000759Y00010324D01*
X00000698Y00010175D01*
X00000641Y00010025D01*
X00000587Y00009874D01*
X00000537Y00009721D01*
X00000489Y00009568D01*
X00000446Y00009413D01*
X00000405Y00009257D01*
X00000368Y00009101D01*
X00000335Y00008944D01*
X00000305Y00008786D01*
X00000278Y00008628D01*
X00000255Y00008469D01*
X00000236Y00008309D01*
X00000220Y00008149D01*
X00000207Y00007989D01*
X00000198Y00007829D01*
X00000193Y00007668D01*
X00000191Y00007508D01*
X00000192Y00007347D01*
X00000197Y00007186D01*
X00000206Y00007026D01*
X00000218Y00006866D01*
X00000234Y00006706D01*
X00000253Y00006546D01*
X00000276Y00006387D01*
X00000302Y00006229D01*
X00000332Y00006071D01*
X00000365Y00005913D01*
X00000401Y00005757D01*
X00000441Y00005601D01*
X00000485Y00005447D01*
X00000532Y00005293D01*
X00000582Y00005140D01*
X00000635Y00004989D01*
X00000692Y00004839D01*
X00000752Y00004690D01*
X00000816Y00004542D01*
X00000882Y00004396D01*
X00000952Y00004251D01*
X00001025Y00004108D01*
X00001101Y00003966D01*
X00001181Y00003827D01*
X00001263Y00003688D01*
X00001348Y00003552D01*
X00001436Y00003418D01*
X00001528Y00003286D01*
X00001622Y00003155D01*
X00001718Y00003027D01*
X00001818Y00002901D01*
X00001921Y00002778D01*
X00002026Y00002656D01*
X00002134Y00002537D01*
X00002244Y00002420D01*
X00002357Y00002306D01*
X00002472Y00002194D01*
X00002590Y00002085D01*
X00002710Y00001978D01*
X00002833Y00001874D01*
X00002958Y00001773D01*
X00003085Y00001674D01*
X00003214Y00001579D01*
X00003345Y00001486D01*
X00003478Y00001396D01*
X00003613Y00001309D01*
X00003750Y00001225D01*
X00003889Y00001144D01*
X00004030Y00001067D01*
X00004172Y00000992D01*
X00004316Y00000920D01*
X00004461Y00000852D01*
X00004608Y00000787D01*
X00004756Y00000725D01*
X00004906Y00000666D01*
X00005057Y00000611D01*
X00005209Y00000559D01*
X00005362Y00000510D01*
X00005516Y00000465D01*
X00005671Y00000423D01*
X00005827Y00000384D01*
X00005984Y00000349D01*
X00006142Y00000318D01*
X00006300Y00000290D01*
X00006459Y00000265D01*
X00006618Y00000244D01*
X00006777Y00000226D01*
X00006938Y00000212D01*
X00007098Y00000202D01*
X00007259Y00000195D01*
X00007419Y00000191D01*
X00007580Y00000191D01*
X00007383Y00015022D02*
X00007364Y00015022D01*
X00007345Y00015025D01*
X00007193Y00015056D01*
X00007193Y00015056D01*
X00007117Y00015071D01*
X00007098Y00015075D01*
X00007080Y00015082D01*
X00006865Y00015171D01*
X00006847Y00015179D01*
X00006831Y00015189D01*
X00006637Y00015318D01*
X00006622Y00015330D01*
X00006607Y00015343D01*
X00006443Y00015507D01*
X00006430Y00015522D01*
X00006418Y00015537D01*
X00006289Y00015731D01*
X00006279Y00015747D01*
X00006271Y00015765D01*
X00006182Y00015980D01*
X00006175Y00015998D01*
X00006171Y00016017D01*
X00006125Y00016245D01*
X00006122Y00016264D01*
X00006122Y00016283D01*
X00006122Y00016516D01*
X00006122Y00016535D01*
X00006125Y00016554D01*
X00006171Y00016782D01*
X00006175Y00016801D01*
X00006182Y00016819D01*
X00006271Y00017034D01*
X00006279Y00017052D01*
X00006289Y00017068D01*
X00006418Y00017262D01*
X00006430Y00017277D01*
X00006443Y00017292D01*
X00006607Y00017456D01*
X00006622Y00017469D01*
X00006637Y00017481D01*
X00006831Y00017610D01*
X00006847Y00017620D01*
X00006865Y00017628D01*
X00007080Y00017717D01*
X00007098Y00017724D01*
X00007117Y00017728D01*
X00007193Y00017743D01*
X00007345Y00017774D01*
X00007364Y00017776D01*
X00007383Y00017777D01*
X00007616Y00017777D01*
X00007635Y00017776D01*
X00007654Y00017774D01*
X00007806Y00017743D01*
X00007882Y00017728D01*
X00007901Y00017724D01*
X00007919Y00017717D01*
X00008134Y00017628D01*
X00008152Y00017620D01*
X00008168Y00017610D01*
X00008362Y00017481D01*
X00008377Y00017469D01*
X00008392Y00017456D01*
X00008556Y00017292D01*
X00008569Y00017277D01*
X00008581Y00017262D01*
X00008710Y00017068D01*
X00008720Y00017052D01*
X00008728Y00017034D01*
X00008817Y00016819D01*
X00008824Y00016801D01*
X00008828Y00016782D01*
X00008874Y00016554D01*
X00008876Y00016535D01*
X00008877Y00016516D01*
X00008877Y00016283D01*
X00008876Y00016264D01*
X00008874Y00016245D01*
X00008828Y00016017D01*
X00008824Y00015998D01*
X00008817Y00015980D01*
X00008728Y00015765D01*
X00008720Y00015747D01*
X00008710Y00015731D01*
X00008581Y00015537D01*
X00008569Y00015522D01*
X00008556Y00015507D01*
X00008392Y00015343D01*
X00008377Y00015330D01*
X00008362Y00015318D01*
X00008168Y00015189D01*
X00008152Y00015179D01*
X00008134Y00015171D01*
X00007919Y00015082D01*
X00007901Y00015075D01*
X00007882Y00015071D01*
X00007806Y00015056D01*
X00007806Y00015056D01*
X00007654Y00015025D01*
X00007635Y00015022D01*
X00007616Y00015022D01*
X00007383Y00015022D01*
X00006975Y00001245D02*
X00006975Y00001246D01*
X00006974Y00001245D01*
X00006677Y00001245D01*
X00006676Y00001245D01*
X00006404Y00001247D01*
X00006402Y00001247D01*
X00006164Y00001250D01*
X00006162Y00001250D01*
X00005968Y00001254D01*
X00005964Y00001254D01*
X00005823Y00001261D01*
X00005816Y00001261D01*
X00005767Y00001265D01*
X00005758Y00001266D01*
X00005274Y00001328D01*
X00005269Y00001329D01*
X00005257Y00001331D01*
X00005250Y00001332D01*
X00004823Y00001415D01*
X00004807Y00001419D01*
X00004439Y00001522D01*
X00004419Y00001529D01*
X00004250Y00001596D01*
X00004250Y00001596D01*
X00004111Y00001651D01*
X00004096Y00001658D01*
X00004024Y00001694D01*
X00004023Y00001695D01*
X00004012Y00001700D01*
X00004001Y00001706D01*
X00003902Y00001765D01*
X00003886Y00001776D01*
X00003871Y00001788D01*
X00003800Y00001852D01*
X00003794Y00001895D01*
X00003753Y00001907D01*
X00003706Y00001987D01*
X00003713Y00002028D01*
X00003678Y00002050D01*
X00003652Y00002157D01*
X00003666Y00002183D01*
X00003644Y00002204D01*
X00003635Y00002349D01*
X00003634Y00002366D01*
X00003639Y00002560D01*
X00003639Y00002566D01*
X00003645Y00002692D01*
X00003646Y00002694D01*
X00003656Y00002851D01*
X00003656Y00002854D01*
X00003666Y00002986D01*
X00003667Y00002990D01*
X00003676Y00003083D01*
X00003678Y00003094D01*
X00003679Y00003106D01*
X00003680Y00003111D01*
X00003688Y00003151D01*
X00003695Y00003179D01*
X00003706Y00003205D01*
X00003711Y00003216D01*
X00003728Y00003242D01*
X00003731Y00003247D01*
X00003725Y00003271D01*
X00003724Y00003283D01*
X00003721Y00003314D01*
X00003722Y00003319D01*
X00003681Y00003354D01*
X00003666Y00003357D01*
X00003646Y00003382D01*
X00003636Y00003397D01*
X00003597Y00003460D01*
X00003594Y00003463D01*
X00003594Y00003465D01*
X00003551Y00003523D01*
X00003491Y00003579D01*
X00003381Y00003658D01*
X00003219Y00003755D01*
X00003000Y00003875D01*
X00002980Y00003886D01*
X00002979Y00003886D01*
X00002715Y00004027D01*
X00002712Y00004029D01*
X00002501Y00004145D01*
X00002495Y00004149D01*
X00002332Y00004248D01*
X00002321Y00004256D01*
X00002200Y00004341D01*
X00002181Y00004357D01*
X00002096Y00004435D01*
X00002091Y00004441D01*
X00002082Y00004449D01*
X00002061Y00004474D01*
X00002007Y00004550D01*
X00002011Y00004587D01*
X00001977Y00004605D01*
X00001946Y00004684D01*
X00001960Y00004716D01*
X00001933Y00004739D01*
X00001920Y00004827D01*
X00001918Y00004852D01*
X00001917Y00004933D01*
X00001917Y00004949D01*
X00001924Y00005062D01*
X00001926Y00005081D01*
X00001928Y00005093D01*
X00001930Y00005104D01*
X00001952Y00005207D01*
X00001961Y00005236D01*
X00002006Y00005351D01*
X00002012Y00005366D01*
X00002081Y00005508D01*
X00002083Y00005511D01*
X00002088Y00005522D01*
X00002090Y00005526D01*
X00002163Y00005661D01*
X00002166Y00005667D01*
X00002239Y00005792D01*
X00002244Y00005800D01*
X00002304Y00005892D01*
X00002312Y00005903D01*
X00002329Y00005925D01*
X00002333Y00005931D01*
X00002375Y00005981D01*
X00002373Y00005982D01*
X00002362Y00005988D01*
X00002360Y00005989D01*
X00002224Y00006060D01*
X00002219Y00006062D01*
X00002057Y00006153D01*
X00002052Y00006156D01*
X00001882Y00006257D01*
X00001877Y00006260D01*
X00001728Y00006356D01*
X00001722Y00006360D01*
X00001670Y00006396D01*
X00001662Y00006402D01*
X00001553Y00006485D01*
X00001546Y00006491D01*
X00001425Y00006593D01*
X00001420Y00006597D01*
X00001298Y00006708D01*
X00001294Y00006712D01*
X00001181Y00006820D01*
X00001178Y00006823D01*
X00001169Y00006832D01*
X00001167Y00006834D01*
X00001074Y00006930D01*
X00001065Y00006940D01*
X00001004Y00007014D01*
X00000991Y00007031D01*
X00000980Y00007049D01*
X00000960Y00007088D01*
X00000959Y00007090D01*
X00000953Y00007101D01*
X00000942Y00007129D01*
X00000934Y00007159D01*
X00000932Y00007171D01*
X00000930Y00007202D01*
X00000932Y00007233D01*
X00000934Y00007245D01*
X00000942Y00007275D01*
X00000953Y00007304D01*
X00000959Y00007315D01*
X00000975Y00007341D01*
X00000995Y00007365D01*
X00001004Y00007373D01*
X00001027Y00007393D01*
X00001054Y00007409D01*
X00001065Y00007415D01*
X00001076Y00007420D01*
X00001103Y00007432D01*
X00001126Y00007440D01*
X00001150Y00007446D01*
X00001162Y00007448D01*
X00001193Y00007450D01*
X00001224Y00007448D01*
X00001236Y00007446D01*
X00001267Y00007438D01*
X00001347Y00007411D01*
X00001371Y00007401D01*
X00001502Y00007337D01*
X00001505Y00007336D01*
X00001516Y00007330D01*
X00001523Y00007327D01*
X00001667Y00007246D01*
X00001670Y00007272D01*
X00001672Y00007281D01*
X00001674Y00007293D01*
X00001681Y00007323D01*
X00001692Y00007351D01*
X00001698Y00007362D01*
X00001714Y00007389D01*
X00001734Y00007412D01*
X00001743Y00007421D01*
X00001767Y00007441D01*
X00001793Y00007457D01*
X00001804Y00007463D01*
X00001833Y00007475D01*
X00001863Y00007482D01*
X00001875Y00007484D01*
X00001905Y00007486D01*
X00001936Y00007484D01*
X00001948Y00007482D01*
X00001956Y00007480D01*
X00001991Y00007474D01*
X00002009Y00007469D01*
X00002028Y00007462D01*
X00002108Y00007429D01*
X00002117Y00007425D01*
X00002228Y00007372D01*
X00002233Y00007370D01*
X00002244Y00007364D01*
X00002244Y00007364D01*
X00002304Y00007333D01*
X00002467Y00007255D01*
X00002654Y00007175D01*
X00002829Y00007110D01*
X00002853Y00007102D01*
X00002859Y00007100D01*
X00003042Y00007033D01*
X00003064Y00007024D01*
X00003075Y00007018D01*
X00003079Y00007016D01*
X00003200Y00006951D01*
X00003209Y00006945D01*
X00003192Y00007005D01*
X00003189Y00007015D01*
X00003055Y00007600D01*
X00003053Y00007607D01*
X00003001Y00007882D01*
X00002955Y00007838D01*
X00002941Y00007827D01*
X00002927Y00007816D01*
X00002895Y00007795D01*
X00002876Y00007798D01*
X00002871Y00007796D01*
X00002862Y00007777D01*
X00002810Y00007752D01*
X00002779Y00007740D01*
X00002723Y00007724D01*
X00002696Y00007737D01*
X00002676Y00007715D01*
X00002605Y00007708D01*
X00002593Y00007717D01*
X00002581Y00007707D01*
X00002485Y00007709D01*
X00002473Y00007710D01*
X00002340Y00007721D01*
X00002334Y00007722D01*
X00002153Y00007743D01*
X00002151Y00007743D01*
X00002013Y00007760D01*
X00001880Y00007771D01*
X00001812Y00007764D01*
X00001781Y00007755D01*
X00001710Y00007727D01*
X00001701Y00007724D01*
X00001656Y00007709D01*
X00001625Y00007701D01*
X00001615Y00007700D01*
X00001615Y00007700D01*
X00001609Y00007699D01*
X00001557Y00007737D01*
X00001551Y00007699D01*
X00001539Y00007701D01*
X00001509Y00007709D01*
X00001480Y00007720D01*
X00001469Y00007726D01*
X00001443Y00007742D01*
X00001419Y00007762D01*
X00001411Y00007771D01*
X00001391Y00007794D01*
X00001374Y00007821D01*
X00001369Y00007832D01*
X00001357Y00007860D01*
X00001355Y00007868D01*
X00001351Y00007871D01*
X00001343Y00007901D01*
X00001339Y00007920D01*
X00001337Y00007932D01*
X00001335Y00007951D01*
X00001331Y00008025D01*
X00001330Y00008035D01*
X00001330Y00008070D01*
X00001332Y00008102D01*
X00001352Y00008234D01*
X00001352Y00008235D01*
X00001354Y00008247D01*
X00001361Y00008277D01*
X00001373Y00008306D01*
X00001379Y00008317D01*
X00001387Y00008331D01*
X00001404Y00008358D01*
X00001359Y00008414D01*
X00001359Y00008414D01*
X00001358Y00008416D01*
X00001343Y00008437D01*
X00001281Y00008545D01*
X00001275Y00008555D01*
X00001270Y00008566D01*
X00001261Y00008586D01*
X00001225Y00008681D01*
X00001219Y00008699D01*
X00001215Y00008719D01*
X00001213Y00008731D01*
X00001211Y00008758D01*
X00001210Y00008816D01*
X00001210Y00008833D01*
X00001212Y00008850D01*
X00001214Y00008862D01*
X00001221Y00008892D01*
X00001233Y00008921D01*
X00001239Y00008932D01*
X00001255Y00008958D01*
X00001275Y00008982D01*
X00001284Y00008990D01*
X00001285Y00008992D01*
X00001332Y00009037D01*
X00001332Y00009037D01*
X00001347Y00009050D01*
X00001347Y00009050D01*
X00001363Y00009062D01*
X00001380Y00009072D01*
X00001391Y00009078D01*
X00001420Y00009089D01*
X00001450Y00009097D01*
X00001462Y00009098D01*
X00001495Y00009101D01*
X00001573Y00009100D01*
X00001601Y00009097D01*
X00001613Y00009095D01*
X00001640Y00009089D01*
X00001665Y00009080D01*
X00001707Y00009061D01*
X00001730Y00009115D01*
X00001736Y00009127D01*
X00001741Y00009138D01*
X00001757Y00009164D01*
X00001777Y00009188D01*
X00001784Y00009194D01*
X00001764Y00009206D01*
X00001742Y00009221D01*
X00001721Y00009238D01*
X00001713Y00009247D01*
X00001697Y00009264D01*
X00001684Y00009284D01*
X00001663Y00009318D01*
X00001655Y00009331D01*
X00001650Y00009342D01*
X00001642Y00009360D01*
X00001636Y00009378D01*
X00001621Y00009431D01*
X00001616Y00009454D01*
X00001614Y00009466D01*
X00001612Y00009497D01*
X00001614Y00009527D01*
X00001616Y00009539D01*
X00001623Y00009570D01*
X00001640Y00009620D01*
X00001651Y00009648D01*
X00001657Y00009659D01*
X00001668Y00009678D01*
X00001682Y00009696D01*
X00001738Y00009764D01*
X00001749Y00009775D01*
X00001767Y00009794D01*
X00001824Y00009866D01*
X00001754Y00009881D01*
X00001730Y00009888D01*
X00001706Y00009898D01*
X00001695Y00009904D01*
X00001669Y00009920D01*
X00001646Y00009940D01*
X00001637Y00009949D01*
X00001632Y00009954D01*
X00001592Y00009997D01*
X00001575Y00010018D01*
X00001560Y00010042D01*
X00001555Y00010053D01*
X00001543Y00010081D01*
X00001536Y00010112D01*
X00001534Y00010124D01*
X00001533Y00010131D01*
X00001531Y00010143D01*
X00001530Y00010170D01*
X00001532Y00010198D01*
X00001534Y00010210D01*
X00001541Y00010240D01*
X00001553Y00010268D01*
X00001559Y00010279D01*
X00001568Y00010296D01*
X00001579Y00010312D01*
X00001606Y00010346D01*
X00001625Y00010349D01*
X00001652Y00010363D01*
X00001660Y00010396D01*
X00001726Y00010441D01*
X00001742Y00010451D01*
X00001749Y00010454D01*
X00001839Y00010514D01*
X00001955Y00010613D01*
X00002078Y00010732D01*
X00002198Y00010864D01*
X00002298Y00010991D01*
X00002308Y00011005D01*
X00002313Y00011012D01*
X00002422Y00011155D01*
X00002440Y00011175D01*
X00002448Y00011184D01*
X00002456Y00011191D01*
X00002567Y00011290D01*
X00002585Y00011305D01*
X00002605Y00011317D01*
X00002740Y00011389D01*
X00002744Y00011391D01*
X00002755Y00011397D01*
X00002777Y00011407D01*
X00002894Y00011449D01*
X00002890Y00011495D01*
X00002890Y00011503D01*
X00002885Y00011640D01*
X00002885Y00011645D01*
X00002883Y00011800D01*
X00002883Y00011803D01*
X00002883Y00011867D01*
X00002884Y00011875D01*
X00002893Y00012083D01*
X00002895Y00012104D01*
X00002897Y00012117D01*
X00002898Y00012119D01*
X00002925Y00012280D01*
X00002930Y00012300D01*
X00002936Y00012319D01*
X00002989Y00012453D01*
X00002997Y00012470D01*
X00003002Y00012481D01*
X00003014Y00012502D01*
X00003099Y00012628D01*
X00003113Y00012647D01*
X00003190Y00012736D01*
X00003200Y00012746D01*
X00003208Y00012755D01*
X00003222Y00012768D01*
X00003402Y00012916D01*
X00003419Y00012929D01*
X00003438Y00012939D01*
X00003449Y00012945D01*
X00003460Y00012950D01*
X00003675Y00013043D01*
X00003699Y00013051D01*
X00003723Y00013057D01*
X00003735Y00013059D01*
X00003737Y00013059D01*
X00003987Y00013096D01*
X00004008Y00013081D01*
X00004029Y00013098D01*
X00004316Y00013079D01*
X00004334Y00013077D01*
X00004346Y00013075D01*
X00004355Y00013074D01*
X00004571Y00013030D01*
X00004594Y00013023D01*
X00004971Y00012896D01*
X00004997Y00012885D01*
X00005008Y00012880D01*
X00005012Y00012878D01*
X00005349Y00012697D01*
X00005377Y00012679D01*
X00005674Y00012447D01*
X00005692Y00012431D01*
X00005701Y00012422D01*
X00005708Y00012415D01*
X00005955Y00012140D01*
X00005958Y00012155D01*
X00006010Y00012341D01*
X00006016Y00012360D01*
X00006024Y00012378D01*
X00006030Y00012389D01*
X00006037Y00012401D01*
X00006132Y00012558D01*
X00006145Y00012578D01*
X00006161Y00012595D01*
X00006170Y00012604D01*
X00006176Y00012610D01*
X00006277Y00012702D01*
X00006296Y00012717D01*
X00006317Y00012730D01*
X00006424Y00012787D01*
X00006427Y00012788D01*
X00006438Y00012794D01*
X00006467Y00012806D01*
X00006497Y00012813D01*
X00006509Y00012815D01*
X00006515Y00012816D01*
X00006619Y00012829D01*
X00006659Y00012798D01*
X00006705Y00012822D01*
X00006773Y00012805D01*
X00006776Y00012819D01*
X00006781Y00012834D01*
X00006823Y00012962D01*
X00006827Y00012972D01*
X00006923Y00013212D01*
X00006930Y00013229D01*
X00006936Y00013240D01*
X00006936Y00013240D01*
X00007034Y00013432D01*
X00007049Y00013456D01*
X00007145Y00013591D01*
X00007166Y00013616D01*
X00007196Y00013646D01*
X00007196Y00013646D01*
X00007205Y00013655D01*
X00007222Y00013670D01*
X00007268Y00013706D01*
X00007301Y00013703D01*
X00007310Y00013710D01*
X00007337Y00013727D01*
X00007341Y00013729D01*
X00007354Y00013703D01*
X00007410Y00013755D01*
X00007447Y00013755D01*
X00007506Y00013702D01*
X00007520Y00013729D01*
X00007525Y00013726D01*
X00007551Y00013710D01*
X00007558Y00013704D01*
X00007592Y00013708D01*
X00007643Y00013668D01*
X00007659Y00013655D01*
X00007694Y00013622D01*
X00007698Y00013618D01*
X00007707Y00013609D01*
X00007720Y00013595D01*
X00007814Y00013480D01*
X00007831Y00013456D01*
X00007923Y00013302D01*
X00007930Y00013290D01*
X00007936Y00013279D01*
X00007939Y00013273D01*
X00008018Y00013103D01*
X00008026Y00013084D01*
X00008082Y00012919D01*
X00008090Y00012888D01*
X00008098Y00012841D01*
X00008167Y00012860D01*
X00008187Y00012864D01*
X00008199Y00012866D01*
X00008222Y00012868D01*
X00008244Y00012868D01*
X00008412Y00012856D01*
X00008428Y00012854D01*
X00008440Y00012852D01*
X00008470Y00012845D01*
X00008498Y00012833D01*
X00008641Y00012761D01*
X00008642Y00012761D01*
X00008653Y00012755D01*
X00008679Y00012739D01*
X00008702Y00012719D01*
X00008711Y00012710D01*
X00008720Y00012701D01*
X00008833Y00012571D01*
X00008846Y00012554D01*
X00008857Y00012537D01*
X00008882Y00012492D01*
X00008885Y00012486D01*
X00008891Y00012475D01*
X00008895Y00012467D01*
X00008962Y00012317D01*
X00008973Y00012287D01*
X00009003Y00012174D01*
X00009188Y00012393D01*
X00009199Y00012405D01*
X00009208Y00012413D01*
X00009219Y00012424D01*
X00009507Y00012670D01*
X00009533Y00012689D01*
X00009856Y00012884D01*
X00009869Y00012891D01*
X00009880Y00012897D01*
X00009896Y00012904D01*
X00010252Y00013045D01*
X00010283Y00013055D01*
X00010667Y00013138D01*
X00010678Y00013140D01*
X00010690Y00013142D01*
X00010700Y00013143D01*
X00010832Y00013157D01*
X00010844Y00013148D01*
X00010855Y00013159D01*
X00011104Y00013155D01*
X00011132Y00013153D01*
X00011144Y00013151D01*
X00011163Y00013147D01*
X00011379Y00013091D01*
X00011400Y00013084D01*
X00011419Y00013076D01*
X00011430Y00013070D01*
X00011439Y00013065D01*
X00011635Y00012951D01*
X00011661Y00012934D01*
X00011729Y00012878D01*
X00011740Y00012869D01*
X00011849Y00012766D01*
X00011853Y00012762D01*
X00011862Y00012753D01*
X00011875Y00012739D01*
X00011955Y00012642D01*
X00011967Y00012626D01*
X00011977Y00012608D01*
X00012031Y00012504D01*
X00012032Y00012503D01*
X00012038Y00012492D01*
X00012046Y00012473D01*
X00012052Y00012453D01*
X00012086Y00012329D01*
X00012090Y00012309D01*
X00012092Y00012297D01*
X00012093Y00012287D01*
X00012111Y00012129D01*
X00012112Y00012113D01*
X00012117Y00011906D01*
X00012117Y00011901D01*
X00012117Y00011810D01*
X00012117Y00011809D01*
X00012116Y00011526D01*
X00012257Y00011477D01*
X00012281Y00011466D01*
X00012292Y00011461D01*
X00012317Y00011446D01*
X00012490Y00011322D01*
X00012515Y00011301D01*
X00012524Y00011292D01*
X00012530Y00011286D01*
X00012695Y00011105D01*
X00012708Y00011090D01*
X00012731Y00011059D01*
X00012847Y00010915D01*
X00012973Y00010782D01*
X00013104Y00010663D01*
X00013221Y00010575D01*
X00013279Y00010541D01*
X00013279Y00010541D01*
X00013351Y00010500D01*
X00013370Y00010487D01*
X00013389Y00010472D01*
X00013424Y00010437D01*
X00013425Y00010433D01*
X00013428Y00010430D01*
X00013437Y00010422D01*
X00013457Y00010398D01*
X00013473Y00010372D01*
X00013479Y00010362D01*
X00013490Y00010333D01*
X00013493Y00010321D01*
X00013494Y00010321D01*
X00013495Y00010316D01*
X00013498Y00010302D01*
X00013500Y00010290D01*
X00013502Y00010259D01*
X00013500Y00010228D01*
X00013498Y00010216D01*
X00013491Y00010186D01*
X00013479Y00010158D01*
X00013473Y00010147D01*
X00013465Y00010132D01*
X00013455Y00010117D01*
X00013426Y00010079D01*
X00013408Y00010059D01*
X00013400Y00010050D01*
X00013376Y00010030D01*
X00013350Y00010014D01*
X00013339Y00010008D01*
X00013316Y00009998D01*
X00013246Y00009973D01*
X00013210Y00009988D01*
X00013200Y00009978D01*
X00013202Y00009974D01*
X00013246Y00009907D01*
X00013255Y00009896D01*
X00013267Y00009881D01*
X00013339Y00009779D01*
X00013353Y00009755D01*
X00013358Y00009744D01*
X00013370Y00009716D01*
X00013377Y00009686D01*
X00013379Y00009673D01*
X00013381Y00009660D01*
X00013388Y00009575D01*
X00013343Y00009518D01*
X00013341Y00009498D01*
X00013331Y00009481D01*
X00013336Y00009408D01*
X00013279Y00009340D01*
X00013276Y00009340D01*
X00013263Y00009325D01*
X00013256Y00009317D01*
X00013232Y00009297D01*
X00013227Y00009294D01*
X00013226Y00009293D01*
X00013222Y00009290D01*
X00013221Y00009290D01*
X00013221Y00009290D01*
X00013231Y00009282D01*
X00013239Y00009273D01*
X00013259Y00009249D01*
X00013276Y00009223D01*
X00013281Y00009212D01*
X00013285Y00009204D01*
X00013303Y00009164D01*
X00013363Y00009187D01*
X00013382Y00009193D01*
X00013403Y00009198D01*
X00013415Y00009200D01*
X00013440Y00009202D01*
X00013528Y00009204D01*
X00013578Y00009160D01*
X00013581Y00009159D01*
X00013648Y00009174D01*
X00013689Y00009153D01*
X00013706Y00009099D01*
X00013716Y00009093D01*
X00013740Y00009073D01*
X00013740Y00009073D01*
X00013744Y00009075D01*
X00013746Y00009070D01*
X00013754Y00009053D01*
X00013791Y00008979D01*
X00013810Y00008960D01*
X00013813Y00008915D01*
X00013814Y00008893D01*
X00013811Y00008871D01*
X00013809Y00008859D01*
X00013801Y00008826D01*
X00013774Y00008746D01*
X00013757Y00008737D01*
X00013762Y00008719D01*
X00013714Y00008625D01*
X00013694Y00008616D01*
X00013698Y00008595D01*
X00013637Y00008502D01*
X00013623Y00008483D01*
X00013611Y00008469D01*
X00013656Y00008392D01*
X00013660Y00008383D01*
X00013666Y00008372D01*
X00013678Y00008344D01*
X00013685Y00008314D01*
X00013687Y00008301D01*
X00013689Y00008274D01*
X00013691Y00008148D01*
X00013691Y00008131D01*
X00013689Y00008114D01*
X00013687Y00008102D01*
X00013680Y00008072D01*
X00013664Y00008021D01*
X00013652Y00007992D01*
X00013646Y00007981D01*
X00013637Y00007966D01*
X00013614Y00007929D01*
X00013582Y00007921D01*
X00013544Y00007883D01*
X00013540Y00007881D01*
X00013512Y00007869D01*
X00013504Y00007867D01*
X00013492Y00007860D01*
X00013481Y00007854D01*
X00013452Y00007842D01*
X00013422Y00007835D01*
X00013419Y00007834D01*
X00013415Y00007859D01*
X00013411Y00007860D01*
X00013351Y00007830D01*
X00013315Y00007840D01*
X00013296Y00007846D01*
X00013278Y00007854D01*
X00013267Y00007860D01*
X00013242Y00007875D01*
X00013224Y00007887D01*
X00013217Y00007888D01*
X00013151Y00007888D01*
X00013040Y00007883D01*
X00012881Y00007870D01*
X00012665Y00007851D01*
X00012575Y00007843D01*
X00012573Y00007845D01*
X00012571Y00007843D01*
X00012444Y00007834D01*
X00012431Y00007845D01*
X00012419Y00007834D01*
X00012333Y00007840D01*
X00012315Y00007842D01*
X00012303Y00007844D01*
X00012286Y00007847D01*
X00012269Y00007852D01*
X00012200Y00007876D01*
X00012175Y00007887D01*
X00012164Y00007892D01*
X00012152Y00007899D01*
X00012075Y00007945D01*
X00012070Y00007949D01*
X00012055Y00007864D01*
X00012053Y00007854D01*
X00011956Y00007430D01*
X00011954Y00007422D01*
X00011860Y00007080D01*
X00011996Y00007150D01*
X00011996Y00007150D01*
X00012007Y00007156D01*
X00012031Y00007166D01*
X00012222Y00007233D01*
X00012389Y00007293D01*
X00012567Y00007370D01*
X00012715Y00007445D01*
X00012720Y00007448D01*
X00012722Y00007449D01*
X00012838Y00007512D01*
X00012843Y00007515D01*
X00012854Y00007521D01*
X00012857Y00007522D01*
X00012951Y00007568D01*
X00012969Y00007575D01*
X00013025Y00007596D01*
X00013031Y00007593D01*
X00013042Y00007598D01*
X00013072Y00007605D01*
X00013081Y00007606D01*
X00013084Y00007583D01*
X00013116Y00007610D01*
X00013125Y00007609D01*
X00013140Y00007594D01*
X00013142Y00007606D01*
X00013148Y00007606D01*
X00013178Y00007598D01*
X00013207Y00007587D01*
X00013218Y00007581D01*
X00013244Y00007565D01*
X00013267Y00007545D01*
X00013276Y00007536D01*
X00013296Y00007513D01*
X00013312Y00007486D01*
X00013318Y00007475D01*
X00013330Y00007447D01*
X00013331Y00007442D01*
X00013343Y00007434D01*
X00013350Y00007408D01*
X00013451Y00007460D01*
X00013452Y00007460D01*
X00013463Y00007466D01*
X00013472Y00007470D01*
X00013588Y00007522D01*
X00013601Y00007527D01*
X00013700Y00007563D01*
X00013727Y00007570D01*
X00013793Y00007584D01*
X00013802Y00007586D01*
X00013814Y00007588D01*
X00013845Y00007590D01*
X00013876Y00007588D01*
X00013888Y00007586D01*
X00013907Y00007582D01*
X00013922Y00007578D01*
X00013942Y00007571D01*
X00013962Y00007563D01*
X00013973Y00007557D01*
X00013999Y00007541D01*
X00014023Y00007521D01*
X00014031Y00007512D01*
X00014052Y00007489D01*
X00014068Y00007462D01*
X00014073Y00007451D01*
X00014085Y00007423D01*
X00014092Y00007393D01*
X00014094Y00007381D01*
X00014097Y00007350D01*
X00014094Y00007319D01*
X00014092Y00007307D01*
X00014087Y00007283D01*
X00014077Y00007249D01*
X00014071Y00007231D01*
X00014063Y00007214D01*
X00014058Y00007203D01*
X00014048Y00007185D01*
X00014036Y00007169D01*
X00013981Y00007101D01*
X00013969Y00007088D01*
X00013879Y00006995D01*
X00013877Y00006993D01*
X00013868Y00006984D01*
X00013864Y00006980D01*
X00013746Y00006869D01*
X00013742Y00006865D01*
X00013604Y00006743D01*
X00013601Y00006740D01*
X00013452Y00006615D01*
X00013449Y00006611D01*
X00013298Y00006491D01*
X00013293Y00006487D01*
X00013148Y00006378D01*
X00013142Y00006373D01*
X00013030Y00006295D01*
X00013025Y00006292D01*
X00012880Y00006198D01*
X00012879Y00006197D01*
X00012752Y00006116D01*
X00012749Y00006114D01*
X00012654Y00006055D01*
X00012729Y00006042D01*
X00012786Y00005967D01*
X00012794Y00005956D01*
X00012849Y00005871D01*
X00012855Y00005861D01*
X00012927Y00005736D01*
X00012930Y00005731D01*
X00013009Y00005585D01*
X00013010Y00005581D01*
X00013016Y00005570D01*
X00013016Y00005569D01*
X00013090Y00005423D01*
X00013093Y00005418D01*
X00013151Y00005292D01*
X00013156Y00005281D01*
X00013184Y00005209D01*
X00013191Y00005189D01*
X00013195Y00005168D01*
X00013197Y00005156D01*
X00013198Y00005152D01*
X00013215Y00005026D01*
X00013183Y00004983D01*
X00013208Y00004934D01*
X00013173Y00004809D01*
X00013134Y00004785D01*
X00013140Y00004740D01*
X00013049Y00004606D01*
X00013028Y00004581D01*
X00012936Y00004484D01*
X00012915Y00004482D01*
X00012913Y00004462D01*
X00012832Y00004394D01*
X00012823Y00004386D01*
X00012714Y00004304D01*
X00012708Y00004300D01*
X00012584Y00004213D01*
X00012579Y00004210D01*
X00012455Y00004128D01*
X00012449Y00004124D01*
X00012338Y00004056D01*
X00012327Y00004050D01*
X00012243Y00004006D01*
X00012241Y00004004D01*
X00012230Y00003999D01*
X00012201Y00003987D01*
X00012164Y00003975D01*
X00012128Y00003963D01*
X00012062Y00003928D01*
X00011949Y00003860D01*
X00011822Y00003779D01*
X00011696Y00003692D01*
X00011586Y00003613D01*
X00011510Y00003551D01*
X00011493Y00003534D01*
X00011423Y00003456D01*
X00011416Y00003449D01*
X00011407Y00003440D01*
X00011391Y00003426D01*
X00011362Y00003402D01*
X00011360Y00003380D01*
X00011358Y00003367D01*
X00011355Y00003350D01*
X00011351Y00003337D01*
X00011352Y00003337D01*
X00011354Y00003335D01*
X00011374Y00003311D01*
X00011390Y00003285D01*
X00011396Y00003274D01*
X00011407Y00003246D01*
X00011427Y00003235D01*
X00011454Y00003157D01*
X00011462Y00003124D01*
X00011464Y00003112D01*
X00011464Y00003111D01*
X00011483Y00002987D01*
X00011485Y00002971D01*
X00011496Y00002817D01*
X00011496Y00002807D01*
X00011499Y00002638D01*
X00011499Y00002629D01*
X00011495Y00002461D01*
X00011494Y00002450D01*
X00011482Y00002298D01*
X00011469Y00002286D01*
X00011478Y00002270D01*
X00011459Y00002151D01*
X00011455Y00002132D01*
X00011450Y00002114D01*
X00011423Y00002042D01*
X00011419Y00002040D01*
X00011408Y00002013D01*
X00011404Y00002005D01*
X00011388Y00001979D01*
X00011384Y00001975D01*
X00011384Y00001973D01*
X00011379Y00001966D01*
X00011366Y00001953D01*
X00011357Y00001944D01*
X00011333Y00001923D01*
X00011260Y00001871D01*
X00011240Y00001858D01*
X00011120Y00001793D01*
X00011115Y00001790D01*
X00011104Y00001785D01*
X00011098Y00001782D01*
X00010946Y00001710D01*
X00010938Y00001707D01*
X00010769Y00001636D01*
X00010762Y00001633D01*
X00010591Y00001569D01*
X00010583Y00001566D01*
X00010472Y00001530D01*
X00010459Y00001526D01*
X00009926Y00001394D01*
X00009909Y00001403D01*
X00009896Y00001389D01*
X00009314Y00001298D01*
X00009309Y00001301D01*
X00009306Y00001297D01*
X00009305Y00001297D01*
X00009302Y00001299D01*
X00009299Y00001296D01*
X00009185Y00001287D01*
X00009182Y00001290D01*
X00009179Y00001287D01*
X00009008Y00001278D01*
X00009006Y00001279D01*
X00009005Y00001278D01*
X00008786Y00001270D01*
X00008785Y00001271D01*
X00008785Y00001270D01*
X00008527Y00001264D01*
X00008527Y00001264D01*
X00008526Y00001263D01*
X00008239Y00001258D01*
X00008239Y00001258D01*
X00008238Y00001258D01*
X00007931Y00001253D01*
X00007930Y00001253D01*
X00007930Y00001253D01*
X00007611Y00001249D01*
X00007611Y00001249D01*
X00007610Y00001249D01*
X00007290Y00001246D01*
X00007289Y00001247D01*
X00007289Y00001246D01*
X00006975Y00001245D01*
X00010997Y00011717D02*
X00010995Y00011741D01*
X00010998Y00011771D01*
X00011000Y00011783D01*
X00011007Y00011814D01*
X00011019Y00011842D01*
X00011024Y00011853D01*
X00011033Y00011868D01*
X00011043Y00011883D01*
X00011061Y00011907D01*
X00011079Y00011927D01*
X00011088Y00011936D01*
X00011111Y00011956D01*
X00011137Y00011972D01*
X00011148Y00011978D01*
X00011177Y00011989D01*
X00011180Y00011990D01*
X00011222Y00012024D01*
X00011243Y00012042D01*
X00011290Y00012098D01*
X00011249Y00012151D01*
X00011239Y00012136D01*
X00011219Y00012112D01*
X00011210Y00012104D01*
X00011208Y00012101D01*
X00011169Y00012064D01*
X00011126Y00012064D01*
X00011079Y00012041D01*
X00011079Y00012041D01*
X00011048Y00012038D01*
X00011047Y00012038D01*
X00011005Y00012001D01*
X00010945Y00012002D01*
X00010895Y00012050D01*
X00010890Y00012051D01*
X00010885Y00012053D01*
X00010817Y00012043D01*
X00010764Y00012078D01*
X00010759Y00012098D01*
X00010744Y00012107D01*
X00010721Y00012127D01*
X00010719Y00012130D01*
X00010700Y00012156D01*
X00010690Y00012159D01*
X00010681Y00012176D01*
X00010649Y00012226D01*
X00010617Y00012246D01*
X00010535Y00012262D01*
X00010418Y00012248D01*
X00010403Y00012244D01*
X00010407Y00012237D01*
X00010413Y00012226D01*
X00010419Y00012211D01*
X00010470Y00012087D01*
X00010478Y00012065D01*
X00010483Y00012043D01*
X00010485Y00012031D01*
X00010486Y00012022D01*
X00010501Y00011891D01*
X00010475Y00011858D01*
X00010497Y00011821D01*
X00010479Y00011724D01*
X00010498Y00011749D01*
X00010514Y00011766D01*
X00010523Y00011775D01*
X00010543Y00011792D01*
X00010598Y00011835D01*
X00010613Y00011845D01*
X00010628Y00011853D01*
X00010639Y00011859D01*
X00010668Y00011871D01*
X00010698Y00011878D01*
X00010710Y00011880D01*
X00010740Y00011882D01*
X00010771Y00011883D01*
X00010818Y00011839D01*
X00010819Y00011839D01*
X00010831Y00011837D01*
X00010835Y00011836D01*
X00010845Y00011857D01*
X00010853Y00011853D01*
X00010879Y00011837D01*
X00010903Y00011817D01*
X00010911Y00011809D01*
X00010932Y00011785D01*
X00010939Y00011774D01*
X00010969Y00011744D01*
X00010991Y00011733D01*
X00010997Y00011717D01*
X00003942Y00011308D02*
X00003943Y00011309D01*
X00003956Y00011325D01*
X00003960Y00011339D01*
X00003964Y00011408D01*
X00003964Y00011411D01*
X00003970Y00011508D01*
X00003972Y00011526D01*
X00003974Y00011539D01*
X00003978Y00011559D01*
X00003995Y00011619D01*
X00004001Y00011639D01*
X00004009Y00011657D01*
X00004015Y00011668D01*
X00004031Y00011695D01*
X00004051Y00011718D01*
X00004060Y00011727D01*
X00004072Y00011739D01*
X00004085Y00011749D01*
X00004103Y00011762D01*
X00004122Y00011773D01*
X00004133Y00011779D01*
X00004161Y00011791D01*
X00004191Y00011798D01*
X00004204Y00011800D01*
X00004234Y00011802D01*
X00004265Y00011800D01*
X00004277Y00011798D01*
X00004303Y00011792D01*
X00004327Y00011783D01*
X00004392Y00011754D01*
X00004400Y00011750D01*
X00004411Y00011744D01*
X00004437Y00011728D01*
X00004461Y00011708D01*
X00004469Y00011700D01*
X00004476Y00011693D01*
X00004498Y00011668D01*
X00004484Y00011738D01*
X00004513Y00011790D01*
X00004484Y00011842D01*
X00004515Y00011991D01*
X00004519Y00012009D01*
X00004525Y00012025D01*
X00004542Y00012066D01*
X00004546Y00012077D01*
X00004590Y00012169D01*
X00004592Y00012172D01*
X00004487Y00012191D01*
X00004400Y00012184D01*
X00004362Y00012167D01*
X00004322Y00012117D01*
X00004316Y00012107D01*
X00004263Y00012037D01*
X00004190Y00012023D01*
X00004174Y00012008D01*
X00004151Y00012000D01*
X00004101Y00011943D01*
X00004043Y00011935D01*
X00003984Y00011980D01*
X00003954Y00011982D01*
X00003929Y00011998D01*
X00003855Y00011998D01*
X00003802Y00012050D01*
X00003801Y00012050D01*
X00003793Y00012059D01*
X00003773Y00012082D01*
X00003761Y00012101D01*
X00003715Y00012059D01*
X00003713Y00012056D01*
X00003708Y00012041D01*
X00003746Y00011988D01*
X00003778Y00011956D01*
X00003861Y00011874D01*
X00003864Y00011843D01*
X00003894Y00011836D01*
X00003931Y00011782D01*
X00003943Y00011761D01*
X00003949Y00011750D01*
X00003961Y00011722D01*
X00003968Y00011692D01*
X00003970Y00011679D01*
X00003971Y00011627D01*
X00003971Y00011627D01*
X00003971Y00011627D01*
X00003971Y00011627D01*
X00003971Y00011627D01*
X00003967Y00011591D01*
X00003966Y00011582D01*
X00003964Y00011570D01*
X00003957Y00011540D01*
X00003945Y00011511D01*
X00003939Y00011500D01*
X00003927Y00011480D01*
X00003913Y00011462D01*
X00003908Y00011455D01*
X00003897Y00011444D01*
X00003889Y00011435D01*
X00003865Y00011415D01*
X00003839Y00011399D01*
X00003828Y00011393D01*
X00003827Y00011393D01*
X00003772Y00011366D01*
X00003786Y00011350D01*
X00003824Y00011328D01*
X00003903Y00011310D01*
X00003942Y00011308D01*
X00010434Y00011666D02*
X00010438Y00011672D01*
X00010449Y00011686D01*
X00010433Y00011675D01*
X00010434Y00011666D01*
X00011091Y00011404D02*
X00011175Y00011416D01*
X00011224Y00011445D01*
X00011228Y00011449D01*
X00011218Y00011469D01*
X00011184Y00011464D01*
X00011124Y00011504D01*
X00011116Y00011542D01*
X00011093Y00011564D01*
X00011057Y00011574D01*
X00011032Y00011614D01*
X00011024Y00011628D01*
X00011022Y00011632D01*
X00011023Y00011629D01*
X00011033Y00011545D01*
X00011034Y00011527D01*
X00011035Y00011487D01*
X00011046Y00011413D01*
X00011060Y00011407D01*
X00011091Y00011404D01*
X00010291Y00011342D02*
X00010301Y00011368D01*
X00010309Y00011397D01*
X00010313Y00011411D01*
X00010343Y00011494D01*
X00010322Y00011476D01*
X00010309Y00011476D01*
X00010308Y00011476D01*
X00010269Y00011447D01*
X00010266Y00011440D01*
X00010238Y00011426D01*
X00010228Y00011430D01*
X00010200Y00011421D01*
X00010198Y00011420D01*
X00010168Y00011418D01*
X00010137Y00011420D01*
X00010133Y00011421D01*
X00010113Y00011406D01*
X00010076Y00011411D01*
X00010071Y00011412D01*
X00010059Y00011414D01*
X00010034Y00011419D01*
X00010010Y00011428D01*
X00009949Y00011456D01*
X00009940Y00011460D01*
X00009929Y00011465D01*
X00009925Y00011468D01*
X00009827Y00011521D01*
X00009825Y00011522D01*
X00009766Y00011554D01*
X00009686Y00011587D01*
X00009642Y00011588D01*
X00009584Y00011569D01*
X00009568Y00011559D01*
X00009570Y00011558D01*
X00009581Y00011553D01*
X00009597Y00011544D01*
X00009612Y00011534D01*
X00009712Y00011457D01*
X00009731Y00011440D01*
X00009740Y00011431D01*
X00009752Y00011417D01*
X00009764Y00011402D01*
X00009769Y00011395D01*
X00009769Y00011395D01*
X00009777Y00011399D01*
X00009785Y00011403D01*
X00009810Y00011412D01*
X00009836Y00011418D01*
X00009848Y00011420D01*
X00009882Y00011422D01*
X00009940Y00011421D01*
X00009968Y00011419D01*
X00009980Y00011417D01*
X00010001Y00011413D01*
X00010089Y00011389D01*
X00010109Y00011382D01*
X00010125Y00011376D01*
X00010235Y00011344D01*
X00010291Y00011342D01*
X00008358Y00010367D02*
X00008358Y00010380D01*
X00008359Y00010393D01*
X00008372Y00010556D01*
X00008373Y00010566D01*
X00008397Y00010746D01*
X00008398Y00010750D01*
X00008400Y00010763D01*
X00008401Y00010766D01*
X00008418Y00010865D01*
X00008421Y00010881D01*
X00008530Y00011296D01*
X00008530Y00011296D01*
X00008536Y00011313D01*
X00008529Y00011320D01*
X00008508Y00011344D01*
X00008500Y00011357D01*
X00008500Y00011357D01*
X00008489Y00011363D01*
X00008467Y00011376D01*
X00008446Y00011393D01*
X00008387Y00011447D01*
X00008380Y00011453D01*
X00008372Y00011462D01*
X00008368Y00011465D01*
X00008347Y00011488D01*
X00008307Y00011527D01*
X00008245Y00011522D01*
X00008151Y00011507D01*
X00008067Y00011484D01*
X00008021Y00011445D01*
X00007970Y00011362D01*
X00007925Y00011232D01*
X00007910Y00011138D01*
X00007892Y00010948D01*
X00007853Y00010911D01*
X00007853Y00010911D01*
X00007850Y00010909D01*
X00007818Y00010878D01*
X00007790Y00010821D01*
X00007735Y00010799D01*
X00007713Y00010779D01*
X00007801Y00010719D01*
X00007803Y00010717D01*
X00007910Y00010642D01*
X00008225Y00010438D01*
X00008358Y00010367D01*
X00006617Y00010310D02*
X00006843Y00010464D01*
X00007066Y00010654D01*
X00007160Y00010739D01*
X00007165Y00010744D01*
X00007205Y00010778D01*
X00007191Y00010783D01*
X00007180Y00010789D01*
X00007154Y00010805D01*
X00007130Y00010825D01*
X00007122Y00010834D01*
X00007101Y00010858D01*
X00007093Y00010870D01*
X00007077Y00010895D01*
X00007072Y00010906D01*
X00007062Y00010928D01*
X00007055Y00010951D01*
X00007042Y00011009D01*
X00007040Y00011018D01*
X00007023Y00011109D01*
X00007022Y00011113D01*
X00007019Y00011129D01*
X00006971Y00011311D01*
X00006912Y00011413D01*
X00006851Y00011466D01*
X00006766Y00011495D01*
X00006747Y00011496D01*
X00006635Y00011484D01*
X00006605Y00011470D01*
X00006585Y00011445D01*
X00006548Y00011389D01*
X00006499Y00011378D01*
X00006482Y00011357D01*
X00006481Y00011356D01*
X00006474Y00011326D01*
X00006462Y00011298D01*
X00006459Y00011292D01*
X00006437Y00011262D01*
X00006437Y00011254D01*
X00006429Y00011245D01*
X00006429Y00011245D01*
X00006421Y00011238D01*
X00006519Y00010904D01*
X00006524Y00010884D01*
X00006588Y00010532D01*
X00006589Y00010528D01*
X00006591Y00010515D01*
X00006592Y00010510D01*
X00006614Y00010338D01*
X00006615Y00010331D01*
X00006617Y00010310D01*
X00004714Y00011242D02*
X00004790Y00011254D01*
X00004874Y00011286D01*
X00004957Y00011323D01*
X00004963Y00011325D01*
X00005022Y00011349D01*
X00005040Y00011355D01*
X00005052Y00011359D01*
X00005077Y00011365D01*
X00005089Y00011367D01*
X00005120Y00011369D01*
X00005151Y00011367D01*
X00005163Y00011365D01*
X00005193Y00011357D01*
X00005221Y00011346D01*
X00005232Y00011340D01*
X00005240Y00011336D01*
X00005271Y00011370D01*
X00005277Y00011376D01*
X00005285Y00011385D01*
X00005309Y00011405D01*
X00005335Y00011421D01*
X00005346Y00011426D01*
X00005355Y00011431D01*
X00005425Y00011462D01*
X00005392Y00011480D01*
X00005291Y00011495D01*
X00005235Y00011489D01*
X00005188Y00011466D01*
X00005156Y00011442D01*
X00005156Y00011442D01*
X00005076Y00011383D01*
X00005048Y00011366D01*
X00005037Y00011360D01*
X00005019Y00011353D01*
X00004968Y00011332D01*
X00004904Y00011358D01*
X00004892Y00011353D01*
X00004862Y00011346D01*
X00004857Y00011345D01*
X00004818Y00011326D01*
X00004774Y00011339D01*
X00004755Y00011345D01*
X00004738Y00011353D01*
X00004727Y00011358D01*
X00004712Y00011367D01*
X00004693Y00011379D01*
X00004674Y00011392D01*
X00004657Y00011407D01*
X00004657Y00011407D01*
X00004679Y00011334D01*
X00004708Y00011243D01*
X00004714Y00011242D01*
X00009737Y00010015D02*
X00009736Y00010016D01*
X00009734Y00010028D01*
X00009732Y00010057D01*
X00009732Y00010112D01*
X00009733Y00010135D01*
X00009743Y00010235D01*
X00009745Y00010246D01*
X00009747Y00010258D01*
X00009747Y00010263D01*
X00009773Y00010397D01*
X00009778Y00010418D01*
X00009817Y00010548D01*
X00009825Y00010568D01*
X00009848Y00010624D01*
X00009850Y00010627D01*
X00009789Y00010680D01*
X00009780Y00010689D01*
X00009771Y00010698D01*
X00009749Y00010724D01*
X00009746Y00010728D01*
X00009712Y00010717D01*
X00009712Y00010691D01*
X00009660Y00010690D01*
X00009626Y00010666D01*
X00009585Y00010678D01*
X00009535Y00010662D01*
X00009527Y00010686D01*
X00009436Y00010684D01*
X00009378Y00010739D01*
X00009317Y00010777D01*
X00009293Y00010780D01*
X00009249Y00010765D01*
X00009174Y00010703D01*
X00009116Y00010626D01*
X00009072Y00010553D01*
X00009036Y00010479D01*
X00008996Y00010373D01*
X00008949Y00010223D01*
X00008918Y00010118D01*
X00009012Y00010088D01*
X00009222Y00010044D01*
X00009476Y00010019D01*
X00009737Y00010015D01*
X00010430Y00010116D02*
X00010693Y00010210D01*
X00011029Y00010375D01*
X00011345Y00010575D01*
X00011570Y00010737D01*
X00011494Y00010725D01*
X00011442Y00010711D01*
X00011278Y00010648D01*
X00011163Y00010576D01*
X00011157Y00010571D01*
X00011148Y00010563D01*
X00010993Y00010447D01*
X00010969Y00010432D01*
X00010796Y00010337D01*
X00010791Y00010335D01*
X00010780Y00010329D01*
X00010757Y00010319D01*
X00010619Y00010269D01*
X00010591Y00010255D01*
X00010521Y00010201D01*
X00010437Y00010123D01*
X00010434Y00010120D01*
X00010432Y00010118D01*
X00010430Y00010116D01*
X00012014Y00010515D02*
X00012024Y00010527D01*
X00012027Y00010531D01*
X00012028Y00010541D01*
X00012014Y00010621D01*
X00011982Y00010672D01*
X00011923Y00010715D01*
X00011918Y00010716D01*
X00011927Y00010705D01*
X00011944Y00010678D01*
X00011949Y00010667D01*
X00011955Y00010655D01*
X00012008Y00010530D01*
X00012010Y00010524D01*
X00012014Y00010515D01*
X00005406Y00009889D02*
X00005762Y00009943D01*
X00006042Y00010032D01*
X00006037Y00010047D01*
X00006031Y00010073D01*
X00006023Y00010120D01*
X00005979Y00010283D01*
X00005907Y00010444D01*
X00005812Y00010594D01*
X00005798Y00010610D01*
X00005726Y00010672D01*
X00005696Y00010681D01*
X00005649Y00010673D01*
X00005623Y00010660D01*
X00005549Y00010619D01*
X00005544Y00010616D01*
X00005533Y00010610D01*
X00005510Y00010601D01*
X00005487Y00010594D01*
X00005443Y00010584D01*
X00005405Y00010605D01*
X00005399Y00010603D01*
X00005387Y00010601D01*
X00005357Y00010599D01*
X00005326Y00010601D01*
X00005321Y00010602D01*
X00005269Y00010624D01*
X00005249Y00010621D01*
X00005234Y00010633D01*
X00005217Y00010613D01*
X00005206Y00010601D01*
X00005197Y00010593D01*
X00005195Y00010590D01*
X00005148Y00010545D01*
X00005146Y00010543D01*
X00005128Y00010526D01*
X00005136Y00010509D01*
X00005141Y00010496D01*
X00005191Y00010358D01*
X00005197Y00010339D01*
X00005236Y00010186D01*
X00005239Y00010170D01*
X00005239Y00010170D01*
X00005239Y00010170D01*
X00005249Y00010114D01*
X00005249Y00010112D01*
X00005251Y00010100D01*
X00005252Y00010095D01*
X00005275Y00009915D01*
X00005257Y00009891D01*
X00005406Y00009889D01*
X00004560Y00010001D02*
X00004521Y00010045D01*
X00004453Y00010120D01*
X00004424Y00010147D01*
X00004395Y00010155D01*
X00004367Y00010164D01*
X00004267Y00010207D01*
X00004256Y00010213D01*
X00004140Y00010271D01*
X00004140Y00010271D01*
X00004129Y00010277D01*
X00004120Y00010281D01*
X00004010Y00010345D01*
X00003998Y00010352D01*
X00003913Y00010410D01*
X00003892Y00010426D01*
X00003865Y00010450D01*
X00003755Y00010539D01*
X00003625Y00010600D01*
X00003462Y00010645D01*
X00003403Y00010651D01*
X00003437Y00010631D01*
X00003451Y00010622D01*
X00003549Y00010553D01*
X00003555Y00010548D01*
X00003579Y00010530D01*
X00003955Y00010272D01*
X00004314Y00010086D01*
X00004560Y00010001D01*
X00007570Y00003567D02*
X00007679Y00003624D01*
X00007824Y00003702D01*
X00007913Y00003750D01*
X00007913Y00003751D01*
X00008095Y00003848D01*
X00008096Y00003849D01*
X00008279Y00003946D01*
X00008280Y00003946D01*
X00008448Y00004033D01*
X00008449Y00004034D01*
X00008460Y00004040D01*
X00008460Y00004040D01*
X00008593Y00004107D01*
X00008595Y00004108D01*
X00008613Y00004117D01*
X00008934Y00004294D01*
X00009254Y00004508D01*
X00009562Y00004752D01*
X00009844Y00005010D01*
X00010091Y00005274D01*
X00010297Y00005541D01*
X00010423Y00005746D01*
X00010474Y00005853D01*
X00010546Y00006025D01*
X00010629Y00006235D01*
X00010714Y00006468D01*
X00010799Y00006708D01*
X00010875Y00006940D01*
X00010937Y00007142D01*
X00011064Y00007617D01*
X00011160Y00008054D01*
X00011225Y00008464D01*
X00011268Y00008894D01*
X00011287Y00009265D01*
X00011292Y00009455D01*
X00011292Y00009468D01*
X00011077Y00009354D01*
X00011074Y00009353D01*
X00011063Y00009347D01*
X00011039Y00009337D01*
X00010652Y00009202D01*
X00010625Y00009195D01*
X00010218Y00009115D01*
X00010197Y00009127D01*
X00010179Y00009110D01*
X00009759Y00009085D01*
X00009746Y00009096D01*
X00009733Y00009086D01*
X00009309Y00009117D01*
X00009293Y00009119D01*
X00009281Y00009121D01*
X00009271Y00009123D01*
X00008853Y00009212D01*
X00008830Y00009218D01*
X00008518Y00009326D01*
X00008498Y00009334D01*
X00008243Y00009453D01*
X00008237Y00009456D01*
X00008226Y00009462D01*
X00008218Y00009466D01*
X00007945Y00009622D01*
X00007934Y00009629D01*
X00007671Y00009804D01*
X00007663Y00009810D01*
X00007568Y00009881D01*
X00007472Y00009953D01*
X00007407Y00009898D01*
X00007407Y00009898D01*
X00007399Y00009891D01*
X00007051Y00009618D01*
X00007029Y00009603D01*
X00006648Y00009380D01*
X00006638Y00009375D01*
X00006627Y00009369D01*
X00006613Y00009363D01*
X00006373Y00009263D01*
X00006380Y00009258D01*
X00006390Y00009267D01*
X00006453Y00009268D01*
X00006457Y00009264D01*
X00006462Y00009268D01*
X00006562Y00009265D01*
X00006567Y00009265D01*
X00006706Y00009257D01*
X00006708Y00009257D01*
X00006875Y00009245D01*
X00006877Y00009245D01*
X00007059Y00009231D01*
X00007060Y00009231D01*
X00007245Y00009215D01*
X00007246Y00009215D01*
X00007421Y00009199D01*
X00007423Y00009199D01*
X00007575Y00009183D01*
X00007578Y00009183D01*
X00007696Y00009169D01*
X00007704Y00009168D01*
X00007775Y00009156D01*
X00007778Y00009153D01*
X00007790Y00009152D01*
X00007794Y00009151D01*
X00007814Y00009146D01*
X00007817Y00009147D01*
X00007831Y00009143D01*
X00007860Y00009131D01*
X00007871Y00009125D01*
X00007898Y00009109D01*
X00007921Y00009089D01*
X00007930Y00009080D01*
X00007950Y00009057D01*
X00007966Y00009030D01*
X00007972Y00009019D01*
X00007984Y00008991D01*
X00007989Y00008968D01*
X00008072Y00009016D01*
X00008081Y00009021D01*
X00008092Y00009027D01*
X00008104Y00009032D01*
X00008169Y00009060D01*
X00008189Y00009068D01*
X00008209Y00009073D01*
X00008261Y00009083D01*
X00008268Y00009084D01*
X00008280Y00009086D01*
X00008301Y00009088D01*
X00008322Y00009088D01*
X00008371Y00009085D01*
X00008390Y00009083D01*
X00008396Y00009082D01*
X00008397Y00009082D01*
X00008409Y00009080D01*
X00008426Y00009077D01*
X00008678Y00009014D01*
X00008697Y00009008D01*
X00008716Y00009000D01*
X00008922Y00008901D01*
X00008926Y00008899D01*
X00008937Y00008893D01*
X00008956Y00008882D01*
X00008975Y00008868D01*
X00009130Y00008737D01*
X00009142Y00008726D01*
X00009151Y00008717D01*
X00009166Y00008700D01*
X00009179Y00008682D01*
X00009278Y00008521D01*
X00009287Y00008506D01*
X00009292Y00008495D01*
X00009303Y00008469D01*
X00009324Y00008408D01*
X00009330Y00008387D01*
X00009348Y00008302D01*
X00009334Y00008275D01*
X00009355Y00008253D01*
X00009357Y00008175D01*
X00009357Y00008157D01*
X00009355Y00008139D01*
X00009353Y00008126D01*
X00009353Y00008124D01*
X00009337Y00008031D01*
X00009333Y00008012D01*
X00009296Y00007881D01*
X00009295Y00007877D01*
X00009292Y00007865D01*
X00009258Y00007751D01*
X00009456Y00007703D01*
X00009478Y00007696D01*
X00009499Y00007687D01*
X00009510Y00007681D01*
X00009515Y00007678D01*
X00009716Y00007568D01*
X00009737Y00007554D01*
X00009757Y00007538D01*
X00009905Y00007397D01*
X00009908Y00007394D01*
X00009916Y00007385D01*
X00009935Y00007364D01*
X00009950Y00007340D01*
X00010033Y00007188D01*
X00010036Y00007183D01*
X00010041Y00007172D01*
X00010052Y00007146D01*
X00010059Y00007119D01*
X00010096Y00006925D01*
X00010078Y00006895D01*
X00010101Y00006869D01*
X00010091Y00006632D01*
X00010089Y00006609D01*
X00010087Y00006597D01*
X00010085Y00006589D01*
X00010029Y00006308D01*
X00010024Y00006287D01*
X00009921Y00005960D01*
X00009918Y00005951D01*
X00009900Y00005903D01*
X00009897Y00005896D01*
X00009843Y00005763D01*
X00009836Y00005748D01*
X00009830Y00005737D01*
X00009827Y00005730D01*
X00009767Y00005624D01*
X00009757Y00005608D01*
X00009746Y00005594D01*
X00009670Y00005503D01*
X00009658Y00005491D01*
X00009650Y00005482D01*
X00009636Y00005470D01*
X00009532Y00005383D01*
X00009514Y00005370D01*
X00009371Y00005276D01*
X00009362Y00005271D01*
X00009206Y00005179D01*
X00009045Y00005085D01*
X00008882Y00004984D01*
X00008738Y00004891D01*
X00008669Y00004844D01*
X00008454Y00004692D01*
X00008386Y00004701D01*
X00008381Y00004699D01*
X00008376Y00004698D01*
X00008327Y00004649D01*
X00007893Y00004627D01*
X00007893Y00004627D01*
X00007893Y00004627D01*
X00007471Y00004606D01*
X00007470Y00004607D01*
X00007469Y00004606D01*
X00007106Y00004590D01*
X00007105Y00004591D01*
X00007104Y00004590D01*
X00006801Y00004579D01*
X00006799Y00004580D01*
X00006798Y00004579D01*
X00006556Y00004573D01*
X00006554Y00004574D01*
X00006552Y00004573D01*
X00006372Y00004571D01*
X00006368Y00004575D01*
X00006364Y00004571D01*
X00006248Y00004575D01*
X00006223Y00004577D01*
X00006211Y00004579D01*
X00006210Y00004579D01*
X00006158Y00004588D01*
X00006129Y00004595D01*
X00006101Y00004607D01*
X00006090Y00004612D01*
X00006063Y00004629D01*
X00006040Y00004649D01*
X00006031Y00004657D01*
X00006017Y00004673D01*
X00006015Y00004676D01*
X00006003Y00004693D01*
X00005992Y00004710D01*
X00005987Y00004721D01*
X00005975Y00004750D01*
X00005968Y00004780D01*
X00005966Y00004792D01*
X00005963Y00004823D01*
X00005966Y00004854D01*
X00005968Y00004866D01*
X00005975Y00004896D01*
X00005987Y00004924D01*
X00005992Y00004935D01*
X00005993Y00004936D01*
X00006021Y00004991D01*
X00006052Y00005001D01*
X00006063Y00005011D01*
X00006067Y00005013D01*
X00006072Y00005052D01*
X00006058Y00005060D01*
X00006042Y00005064D01*
X00006039Y00005046D01*
X00006038Y00005046D01*
X00006008Y00005053D01*
X00005980Y00005065D01*
X00005969Y00005070D01*
X00005949Y00005083D01*
X00005934Y00005089D01*
X00005923Y00005094D01*
X00005897Y00005110D01*
X00005873Y00005130D01*
X00005868Y00005136D01*
X00005837Y00005187D01*
X00005823Y00005194D01*
X00005812Y00005224D01*
X00005807Y00005241D01*
X00005804Y00005259D01*
X00005802Y00005271D01*
X00005799Y00005298D01*
X00005801Y00005325D01*
X00005810Y00005405D01*
X00005811Y00005412D01*
X00005812Y00005414D01*
X00005821Y00005491D01*
X00005832Y00005619D01*
X00005843Y00005778D01*
X00005852Y00005932D01*
X00005866Y00006236D01*
X00005863Y00006239D01*
X00005848Y00006251D01*
X00005839Y00006250D01*
X00005836Y00006252D01*
X00005834Y00006249D01*
X00005731Y00006239D01*
X00005680Y00006279D01*
X00005619Y00006256D01*
X00005570Y00006278D01*
X00005560Y00006282D01*
X00005549Y00006288D01*
X00005523Y00006304D01*
X00005499Y00006324D01*
X00005490Y00006333D01*
X00005470Y00006357D01*
X00005454Y00006383D01*
X00005449Y00006394D01*
X00005437Y00006422D01*
X00005430Y00006452D01*
X00005428Y00006464D01*
X00005426Y00006484D01*
X00005422Y00006546D01*
X00005422Y00006566D01*
X00005424Y00006587D01*
X00005426Y00006599D01*
X00005431Y00006622D01*
X00005446Y00006674D01*
X00005475Y00006692D01*
X00005468Y00006726D01*
X00005554Y00006884D01*
X00005569Y00006908D01*
X00005588Y00006929D01*
X00005596Y00006938D01*
X00005602Y00006943D01*
X00005735Y00007067D01*
X00005752Y00007081D01*
X00005769Y00007093D01*
X00005812Y00007118D01*
X00005847Y00007141D01*
X00005852Y00007148D01*
X00005870Y00007190D01*
X00005896Y00007302D01*
X00005921Y00007454D01*
X00005922Y00007457D01*
X00005961Y00007669D01*
X00005966Y00007691D01*
X00006015Y00007848D01*
X00006027Y00007879D01*
X00006033Y00007890D01*
X00006037Y00007898D01*
X00006101Y00008011D01*
X00006116Y00008034D01*
X00006133Y00008054D01*
X00006142Y00008062D01*
X00006145Y00008065D01*
X00006230Y00008147D01*
X00006230Y00008147D01*
X00006246Y00008161D01*
X00006267Y00008175D01*
X00006345Y00008222D01*
X00006356Y00008228D01*
X00006367Y00008233D01*
X00006375Y00008237D01*
X00006477Y00008283D01*
X00006490Y00008288D01*
X00006576Y00008320D01*
X00006587Y00008324D01*
X00006461Y00008324D01*
X00006196Y00008313D01*
X00005971Y00008294D01*
X00005812Y00008268D01*
X00005702Y00008237D01*
X00005689Y00008231D01*
X00005672Y00008224D01*
X00005597Y00008198D01*
X00005567Y00008190D01*
X00005475Y00008173D01*
X00005456Y00008184D01*
X00005440Y00008168D01*
X00005352Y00008163D01*
X00005334Y00008179D01*
X00005315Y00008164D01*
X00005255Y00008172D01*
X00005249Y00008173D01*
X00005237Y00008175D01*
X00005207Y00008182D01*
X00005179Y00008194D01*
X00005168Y00008199D01*
X00005142Y00008215D01*
X00005119Y00008235D01*
X00005105Y00008248D01*
X00005105Y00008252D01*
X00005071Y00008298D01*
X00005067Y00008305D01*
X00005056Y00008334D01*
X00005048Y00008364D01*
X00005046Y00008376D01*
X00005044Y00008407D01*
X00005046Y00008437D01*
X00005048Y00008450D01*
X00005055Y00008476D01*
X00005044Y00008501D01*
X00005070Y00008570D01*
X00005079Y00008592D01*
X00005085Y00008603D01*
X00005102Y00008630D01*
X00005170Y00008722D01*
X00005187Y00008743D01*
X00005285Y00008843D01*
X00005286Y00008844D01*
X00005295Y00008853D01*
X00005310Y00008866D01*
X00005424Y00008959D01*
X00005436Y00008969D01*
X00005466Y00008989D01*
X00005487Y00009002D01*
X00005580Y00009050D01*
X00005295Y00009015D01*
X00005281Y00009026D01*
X00005267Y00009013D01*
X00004841Y00009023D01*
X00004825Y00009024D01*
X00004782Y00009029D01*
X00004775Y00009030D01*
X00004517Y00009067D01*
X00004506Y00009080D01*
X00004492Y00009072D01*
X00004252Y00009124D01*
X00004237Y00009127D01*
X00003994Y00009200D01*
X00003982Y00009204D01*
X00003717Y00009303D01*
X00003710Y00009306D01*
X00003705Y00009308D01*
X00003712Y00009104D01*
X00003755Y00008486D01*
X00003841Y00007908D01*
X00003976Y00007331D01*
X00004164Y00006745D01*
X00004350Y00006272D01*
X00004542Y00005858D01*
X00004744Y00005502D01*
X00004966Y00005188D01*
X00005212Y00004908D01*
X00005329Y00004794D01*
X00005487Y00004655D01*
X00005642Y00004534D01*
X00005808Y00004423D01*
X00005997Y00004314D01*
X00006213Y00004205D01*
X00006489Y00004078D01*
X00006651Y00004007D01*
X00006651Y00004007D01*
X00006859Y00003916D01*
X00006861Y00003915D01*
X00007059Y00003826D01*
X00007061Y00003825D01*
X00007236Y00003743D01*
X00007239Y00003742D01*
X00007379Y00003674D01*
X00007382Y00003672D01*
X00007393Y00003667D01*
X00007396Y00003665D01*
X00007490Y00003616D01*
X00007499Y00003611D01*
X00007517Y00003600D01*
X00007519Y00003599D01*
X00007570Y00003567D01*
X00012511Y00008883D02*
X00012563Y00008915D01*
X00012618Y00008971D01*
X00012631Y00008990D01*
X00012719Y00009127D01*
X00012734Y00009149D01*
X00012809Y00009236D01*
X00012820Y00009249D01*
X00012828Y00009257D01*
X00012847Y00009274D01*
X00012858Y00009281D01*
X00012774Y00009317D01*
X00012766Y00009321D01*
X00012756Y00009326D01*
X00012690Y00009354D01*
X00012688Y00009350D01*
X00012683Y00009339D01*
X00012678Y00009330D01*
X00012639Y00009263D01*
X00012554Y00009109D01*
X00012504Y00008980D01*
X00012491Y00008906D01*
X00012499Y00008894D01*
X00012511Y00008883D01*
X00002470Y00008771D02*
X00002501Y00008777D01*
X00002504Y00008785D01*
X00002504Y00008847D01*
X00002476Y00008956D01*
X00002407Y00009094D01*
X00002374Y00009146D01*
X00002373Y00009146D01*
X00002310Y00009244D01*
X00002308Y00009243D01*
X00002295Y00009246D01*
X00002290Y00009234D01*
X00002158Y00009172D01*
X00002160Y00009170D01*
X00002176Y00009152D01*
X00002229Y00009084D01*
X00002235Y00009077D01*
X00002305Y00008980D01*
X00002307Y00008976D01*
X00002325Y00008949D01*
X00002412Y00008828D01*
X00002457Y00008778D01*
X00002466Y00008772D01*
X00002470Y00008771D01*
X00006977Y00008069D02*
X00006980Y00008078D01*
X00006986Y00008089D01*
X00006989Y00008094D01*
X00007055Y00008216D01*
X00007065Y00008231D01*
X00007076Y00008246D01*
X00007137Y00008321D01*
X00007005Y00008320D01*
X00007003Y00008322D01*
X00007001Y00008320D01*
X00006816Y00008322D01*
X00006815Y00008322D01*
X00006758Y00008324D01*
X00006743Y00008324D01*
X00006756Y00008312D01*
X00006758Y00008311D01*
X00006761Y00008309D01*
X00006772Y00008309D01*
X00006784Y00008307D01*
X00006788Y00008305D01*
X00006793Y00008313D01*
X00006795Y00008312D01*
X00006821Y00008296D01*
X00006842Y00008288D01*
X00006852Y00008283D01*
X00006914Y00008230D01*
X00006925Y00008227D01*
X00006943Y00008197D01*
X00006948Y00008187D01*
X00006954Y00008176D01*
X00006965Y00008148D01*
X00006973Y00008118D01*
X00006974Y00008106D01*
X00006977Y00008076D01*
X00006977Y00008069D01*
X00007739Y00007314D02*
X00007823Y00007369D01*
X00007984Y00007478D01*
X00008146Y00007592D01*
X00008290Y00007697D01*
X00008406Y00007785D01*
X00008461Y00007832D01*
X00008471Y00007907D01*
X00008474Y00008006D01*
X00008464Y00008136D01*
X00008444Y00008192D01*
X00008414Y00008226D01*
X00008347Y00008267D01*
X00008256Y00008307D01*
X00008211Y00008318D01*
X00008183Y00008316D01*
X00008117Y00008289D01*
X00007995Y00008218D01*
X00007956Y00008193D01*
X00007770Y00008073D01*
X00007757Y00007915D01*
X00007743Y00007676D01*
X00007737Y00007460D01*
X00007739Y00007314D01*
X00008455Y00005436D02*
X00008670Y00005572D01*
X00008670Y00005572D01*
X00008882Y00005705D01*
X00008962Y00005960D01*
X00009022Y00006170D01*
X00009074Y00006388D01*
X00009116Y00006599D01*
X00009143Y00006780D01*
X00009156Y00006930D01*
X00009155Y00006999D01*
X00009126Y00007097D01*
X00009084Y00007149D01*
X00009017Y00007186D01*
X00008888Y00007206D01*
X00008886Y00007206D01*
X00008827Y00007204D01*
X00008793Y00007198D01*
X00008741Y00007182D01*
X00008672Y00007150D01*
X00008571Y00007093D01*
X00008426Y00007005D01*
X00008237Y00006884D01*
X00008146Y00006825D01*
X00007810Y00006607D01*
X00007792Y00006349D01*
X00007791Y00006344D01*
X00007771Y00006121D01*
X00007758Y00006108D01*
X00007767Y00006093D01*
X00007737Y00005923D01*
X00007730Y00005893D01*
X00007686Y00005763D01*
X00007655Y00005746D01*
X00007661Y00005711D01*
X00007596Y00005607D01*
X00007562Y00005599D01*
X00007559Y00005563D01*
X00007469Y00005474D01*
X00007655Y00005478D01*
X00007661Y00005473D01*
X00007667Y00005478D01*
X00008077Y00005462D01*
X00008082Y00005462D01*
X00008146Y00005458D01*
X00008146Y00005457D01*
X00008455Y00005436D01*
X00010890Y00004825D02*
X00010938Y00004859D01*
X00010952Y00004868D01*
X00011251Y00005046D01*
X00011262Y00005053D01*
X00011584Y00005217D01*
X00011584Y00005217D01*
X00011595Y00005222D01*
X00011598Y00005224D01*
X00011748Y00005298D01*
X00011780Y00005314D01*
X00011764Y00005368D01*
X00011759Y00005390D01*
X00011755Y00005412D01*
X00011758Y00005416D01*
X00011758Y00005428D01*
X00011752Y00005433D01*
X00011740Y00005533D01*
X00011739Y00005537D01*
X00011725Y00005672D01*
X00011725Y00005675D01*
X00011714Y00005799D01*
X00011714Y00005800D01*
X00011701Y00005951D01*
X00011687Y00006104D01*
X00011677Y00006205D01*
X00011677Y00006215D01*
X00011672Y00006323D01*
X00011672Y00006343D01*
X00011674Y00006363D01*
X00011676Y00006375D01*
X00011682Y00006401D01*
X00011698Y00006456D01*
X00011716Y00006467D01*
X00011695Y00006494D01*
X00011687Y00006506D01*
X00011667Y00006444D01*
X00011667Y00006441D01*
X00011656Y00006410D01*
X00011655Y00006407D01*
X00011525Y00006028D01*
X00011522Y00006020D01*
X00011395Y00005695D01*
X00011390Y00005684D01*
X00011258Y00005402D01*
X00011255Y00005396D01*
X00011250Y00005385D01*
X00011245Y00005377D01*
X00011103Y00005126D01*
X00011093Y00005111D01*
X00010933Y00004879D01*
X00010924Y00004866D01*
X00010890Y00004825D01*
X00004222Y00004714D02*
X00004163Y00004785D01*
X00004150Y00004802D01*
X00003925Y00005137D01*
X00003915Y00005154D01*
X00003712Y00005531D01*
X00003716Y00005549D01*
X00003699Y00005557D01*
X00003515Y00005980D01*
X00003510Y00005994D01*
X00003345Y00006465D01*
X00003345Y00006464D01*
X00003336Y00006449D01*
X00003326Y00006434D01*
X00003316Y00006421D01*
X00003322Y00006408D01*
X00003329Y00006403D01*
X00003339Y00006372D01*
X00003345Y00006344D01*
X00003347Y00006332D01*
X00003348Y00006320D01*
X00003357Y00006233D01*
X00003358Y00006224D01*
X00003364Y00006092D01*
X00003364Y00006087D01*
X00003368Y00005921D01*
X00003368Y00005918D01*
X00003369Y00005784D01*
X00003369Y00005782D01*
X00003368Y00005560D01*
X00003368Y00005555D01*
X00003363Y00005395D01*
X00003362Y00005378D01*
X00003350Y00005274D01*
X00003349Y00005266D01*
X00003347Y00005254D01*
X00003341Y00005230D01*
X00003337Y00005219D01*
X00003478Y00005141D01*
X00003537Y00005109D01*
X00003538Y00005109D01*
X00003713Y00005014D01*
X00003715Y00005013D01*
X00003884Y00004919D01*
X00003886Y00004918D01*
X00004034Y00004834D01*
X00004037Y00004832D01*
X00004147Y00004766D01*
X00004152Y00004762D01*
X00004182Y00004743D01*
X00004194Y00004735D01*
X00004222Y00004714D01*
X00006586Y00005344D02*
X00006655Y00005369D01*
X00006680Y00005376D01*
X00006709Y00005382D01*
X00006707Y00005390D01*
X00006701Y00005415D01*
X00006699Y00005427D01*
X00006697Y00005455D01*
X00006698Y00005481D01*
X00006682Y00005457D01*
X00006670Y00005442D01*
X00006588Y00005346D01*
X00006586Y00005344D01*
X00007175Y00002810D02*
X00007105Y00002863D01*
X00006916Y00002978D01*
X00006684Y00003097D01*
X00006381Y00003231D01*
X00006178Y00003315D01*
X00006177Y00003315D01*
X00005864Y00003447D01*
X00005855Y00003451D01*
X00005589Y00003580D01*
X00005585Y00003582D01*
X00005574Y00003588D01*
X00005565Y00003592D01*
X00005328Y00003729D01*
X00005315Y00003737D01*
X00005087Y00003893D01*
X00005077Y00003901D01*
X00004841Y00004087D01*
X00004836Y00004091D01*
X00004745Y00004169D01*
X00004741Y00004142D01*
X00004776Y00004123D01*
X00004791Y00004077D01*
X00004798Y00004047D01*
X00004800Y00004034D01*
X00004802Y00004004D01*
X00004800Y00003973D01*
X00004799Y00003968D01*
X00004806Y00003961D01*
X00004811Y00003956D01*
X00004820Y00003947D01*
X00004840Y00003924D01*
X00004856Y00003898D01*
X00004862Y00003887D01*
X00004871Y00003866D01*
X00004900Y00003786D01*
X00004907Y00003763D01*
X00004936Y00003642D01*
X00004939Y00003629D01*
X00004964Y00003479D01*
X00004965Y00003477D01*
X00004967Y00003465D01*
X00004968Y00003457D01*
X00004987Y00003290D01*
X00004987Y00003283D01*
X00004991Y00003240D01*
X00004991Y00003237D01*
X00005001Y00003089D01*
X00005001Y00003070D01*
X00004999Y00002992D01*
X00005251Y00002942D01*
X00005709Y00002881D01*
X00006237Y00002838D01*
X00006821Y00002814D01*
X00007175Y00002810D01*
X00007968Y00002817D02*
X00008099Y00002820D01*
X00008675Y00002851D01*
X00009204Y00002900D01*
X00009673Y00002966D01*
X00010043Y00003039D01*
X00010042Y00003041D01*
X00010036Y00003123D01*
X00010035Y00003146D01*
X00010039Y00003273D01*
X00010040Y00003283D01*
X00010053Y00003434D01*
X00010054Y00003442D01*
X00010073Y00003597D01*
X00010074Y00003603D01*
X00010076Y00003615D01*
X00010077Y00003618D01*
X00010100Y00003757D01*
X00010104Y00003772D01*
X00010129Y00003874D01*
X00010137Y00003897D01*
X00010146Y00003921D01*
X00010150Y00003932D01*
X00010191Y00004020D01*
X00010238Y00004041D01*
X00010238Y00004042D01*
X00010236Y00004052D01*
X00010237Y00004054D01*
X00010235Y00004060D01*
X00010235Y00004063D01*
X00010232Y00004094D01*
X00010235Y00004125D01*
X00010236Y00004137D01*
X00010208Y00004110D01*
X00010193Y00004097D01*
X00009840Y00003824D01*
X00009823Y00003812D01*
X00009439Y00003575D01*
X00009425Y00003567D01*
X00009414Y00003561D01*
X00009411Y00003560D01*
X00008980Y00003348D01*
X00008971Y00003345D01*
X00008908Y00003317D01*
X00008616Y00003185D01*
X00008359Y00003055D01*
X00008127Y00002922D01*
X00007968Y00002817D01*
D11*
X00002604Y00003818D02*
X00002602Y00003819D01*
X00002599Y00003821D01*
X00002597Y00003822D01*
X00002387Y00003939D01*
X00002383Y00003941D01*
X00002376Y00003945D01*
X00002372Y00003947D01*
X00002210Y00004046D01*
X00002203Y00004050D01*
X00002191Y00004058D01*
X00002184Y00004063D01*
X00002063Y00004149D01*
X00002051Y00004158D01*
X00002032Y00004174D01*
X00002020Y00004184D01*
X00001936Y00004262D01*
X00001932Y00004265D01*
X00001927Y00004270D01*
X00001924Y00004274D01*
X00001915Y00004282D01*
X00001902Y00004296D01*
X00001881Y00004321D01*
X00001869Y00004336D01*
X00001815Y00004412D01*
X00001788Y00004468D01*
X00001757Y00004519D01*
X00001726Y00004599D01*
X00001716Y00004656D01*
X00001700Y00004704D01*
X00001687Y00004792D01*
X00001685Y00004807D01*
X00001683Y00004832D01*
X00001682Y00004847D01*
X00001681Y00004928D01*
X00001681Y00004938D01*
X00001681Y00004954D01*
X00001681Y00004963D01*
X00001688Y00005077D01*
X00001689Y00005088D01*
X00001691Y00005106D01*
X00001693Y00005117D01*
X00001695Y00005130D01*
X00001696Y00005136D01*
X00001698Y00005147D01*
X00001699Y00005154D01*
X00001722Y00005257D01*
X00001726Y00005274D01*
X00001735Y00005303D01*
X00001741Y00005321D01*
X00001785Y00005436D01*
X00001789Y00005445D01*
X00001796Y00005461D01*
X00001800Y00005470D01*
X00001869Y00005611D01*
X00001870Y00005613D01*
X00001871Y00005617D01*
X00001872Y00005619D01*
X00001878Y00005630D01*
X00001879Y00005632D01*
X00001881Y00005635D01*
X00001882Y00005638D01*
X00001955Y00005773D01*
X00001957Y00005777D01*
X00001960Y00005783D01*
X00001963Y00005787D01*
X00002028Y00005898D01*
X00001942Y00005946D01*
X00001939Y00005948D01*
X00001934Y00005951D01*
X00001930Y00005953D01*
X00001761Y00006054D01*
X00001758Y00006056D01*
X00001753Y00006059D01*
X00001750Y00006061D01*
X00001600Y00006157D01*
X00001597Y00006159D01*
X00001592Y00006163D01*
X00001588Y00006165D01*
X00001536Y00006201D01*
X00001531Y00006205D01*
X00001523Y00006211D01*
X00001518Y00006214D01*
X00001409Y00006298D01*
X00001405Y00006301D01*
X00001398Y00006307D01*
X00001393Y00006310D01*
X00001273Y00006412D01*
X00001270Y00006415D01*
X00001265Y00006419D01*
X00001262Y00006422D01*
X00001140Y00006532D01*
X00001137Y00006535D01*
X00001132Y00006539D01*
X00001130Y00006542D01*
X00001017Y00006650D01*
X00001015Y00006652D01*
X00001013Y00006654D01*
X00001011Y00006656D01*
X00001002Y00006665D01*
X00001001Y00006666D01*
X00000998Y00006669D01*
X00000997Y00006670D01*
X00000904Y00006766D01*
X00000899Y00006772D01*
X00000890Y00006782D01*
X00000884Y00006789D01*
X00000823Y00006862D01*
X00000815Y00006872D01*
X00000802Y00006889D01*
X00000788Y00006910D01*
X00000777Y00006929D01*
X00000771Y00006940D01*
X00000750Y00006979D01*
X00000750Y00006980D01*
X00000749Y00006981D01*
X00000748Y00006982D01*
X00000743Y00006993D01*
X00000735Y00007010D01*
X00000723Y00007039D01*
X00000712Y00007074D01*
X00000705Y00007104D01*
X00000701Y00007122D01*
X00000699Y00007134D01*
X00000697Y00007153D01*
X00000694Y00007184D01*
X00000694Y00007221D01*
X00000697Y00007252D01*
X00000699Y00007270D01*
X00000701Y00007282D01*
X00000705Y00007300D01*
X00000712Y00007330D01*
X00000723Y00007366D01*
X00000735Y00007394D01*
X00000743Y00007411D01*
X00000748Y00007422D01*
X00000758Y00007438D01*
X00000774Y00007465D01*
X00000796Y00007495D01*
X00000816Y00007518D01*
X00000828Y00007532D01*
X00000837Y00007540D01*
X00000850Y00007553D01*
X00000874Y00007573D01*
X00000904Y00007595D01*
X00000930Y00007611D01*
X00000946Y00007620D01*
X00000957Y00007625D01*
X00000964Y00007629D01*
X00000976Y00007634D01*
X00000983Y00007637D01*
X00001009Y00007649D01*
X00001023Y00007654D01*
X00001046Y00007663D01*
X00001075Y00007671D01*
X00001099Y00007676D01*
X00001113Y00007679D01*
X00001125Y00007681D01*
X00001144Y00007683D01*
X00001174Y00007685D01*
X00001180Y00007685D01*
X00001173Y00007697D01*
X00001164Y00007713D01*
X00001158Y00007724D01*
X00001151Y00007741D01*
X00001139Y00007770D01*
X00001132Y00007791D01*
X00001122Y00007811D01*
X00001115Y00007841D01*
X00001112Y00007852D01*
X00001108Y00007871D01*
X00001106Y00007883D01*
X00001104Y00007895D01*
X00001102Y00007906D01*
X00001100Y00007925D01*
X00001099Y00007937D01*
X00001095Y00008011D01*
X00001095Y00008017D01*
X00001094Y00008026D01*
X00001094Y00008032D01*
X00001094Y00008067D01*
X00001094Y00008086D01*
X00001096Y00008118D01*
X00001099Y00008137D01*
X00001118Y00008269D01*
X00001118Y00008269D01*
X00001119Y00008271D01*
X00001119Y00008272D01*
X00001121Y00008284D01*
X00001124Y00008302D01*
X00001132Y00008332D01*
X00001077Y00008426D01*
X00001073Y00008432D01*
X00001068Y00008442D01*
X00001065Y00008448D01*
X00001059Y00008459D01*
X00001053Y00008471D01*
X00001045Y00008491D01*
X00001040Y00008503D01*
X00001004Y00008598D01*
X00001000Y00008609D01*
X00000994Y00008628D01*
X00000988Y00008651D01*
X00000984Y00008670D01*
X00000982Y00008682D01*
X00000980Y00008694D01*
X00000978Y00008710D01*
X00000976Y00008738D01*
X00000975Y00008754D01*
X00000974Y00008811D01*
X00000974Y00008822D01*
X00000974Y00008839D01*
X00000976Y00008860D01*
X00000978Y00008877D01*
X00000979Y00008887D01*
X00000981Y00008899D01*
X00000985Y00008917D01*
X00000992Y00008948D01*
X00001003Y00008983D01*
X00001015Y00009011D01*
X00001023Y00009028D01*
X00001028Y00009039D01*
X00001037Y00009055D01*
X00001054Y00009082D01*
X00001075Y00009112D01*
X00001095Y00009135D01*
X00001108Y00009149D01*
X00001118Y00009158D01*
X00001119Y00009160D01*
X00001121Y00009161D01*
X00001167Y00009207D01*
X00001177Y00009210D01*
X00001175Y00009213D01*
X00001189Y00009226D01*
X00001199Y00009235D01*
X00001199Y00009235D01*
X00001209Y00009242D01*
X00001225Y00009254D01*
X00001245Y00009267D01*
X00001262Y00009277D01*
X00001273Y00009282D01*
X00001284Y00009288D01*
X00001301Y00009296D01*
X00001329Y00009308D01*
X00001364Y00009319D01*
X00001395Y00009326D01*
X00001404Y00009328D01*
X00001394Y00009367D01*
X00001390Y00009380D01*
X00001385Y00009403D01*
X00001383Y00009417D01*
X00001381Y00009429D01*
X00001379Y00009447D01*
X00001376Y00009478D01*
X00001376Y00009515D01*
X00001379Y00009546D01*
X00001381Y00009564D01*
X00001383Y00009576D01*
X00001386Y00009595D01*
X00001394Y00009626D01*
X00001399Y00009644D01*
X00001416Y00009694D01*
X00001422Y00009711D01*
X00001433Y00009739D01*
X00001441Y00009755D01*
X00001446Y00009766D01*
X00001453Y00009778D01*
X00001461Y00009791D01*
X00001459Y00009793D01*
X00001419Y00009836D01*
X00001408Y00009848D01*
X00001391Y00009870D01*
X00001372Y00009897D01*
X00001358Y00009920D01*
X00001350Y00009935D01*
X00001344Y00009946D01*
X00001337Y00009963D01*
X00001325Y00009991D01*
X00001313Y00010026D01*
X00001306Y00010056D01*
X00001302Y00010075D01*
X00001301Y00010087D01*
X00001300Y00010091D01*
X00001299Y00010098D01*
X00001298Y00010102D01*
X00001297Y00010115D01*
X00001295Y00010131D01*
X00001294Y00010158D01*
X00001295Y00010191D01*
X00001297Y00010218D01*
X00001299Y00010235D01*
X00001301Y00010247D01*
X00001305Y00010265D01*
X00001312Y00010295D01*
X00001323Y00010330D01*
X00001335Y00010359D01*
X00001343Y00010376D01*
X00001348Y00010387D01*
X00001354Y00010397D01*
X00001363Y00010413D01*
X00001376Y00010433D01*
X00001387Y00010448D01*
X00001393Y00010457D01*
X00001420Y00010491D01*
X00001474Y00010539D01*
X00001528Y00010592D01*
X00001594Y00010637D01*
X00001604Y00010643D01*
X00001621Y00010653D01*
X00001626Y00010656D01*
X00001697Y00010703D01*
X00001797Y00010788D01*
X00001908Y00010896D01*
X00002018Y00011017D01*
X00002108Y00011132D01*
X00002114Y00011139D01*
X00002117Y00011144D01*
X00002122Y00011151D01*
X00002125Y00011155D01*
X00002235Y00011299D01*
X00002245Y00011311D01*
X00002262Y00011331D01*
X00002273Y00011342D01*
X00002281Y00011351D01*
X00002286Y00011355D01*
X00002294Y00011363D01*
X00002298Y00011367D01*
X00002409Y00011466D01*
X00002420Y00011475D01*
X00002438Y00011490D01*
X00002461Y00011506D01*
X00002481Y00011519D01*
X00002494Y00011526D01*
X00002629Y00011598D01*
X00002631Y00011599D01*
X00002634Y00011601D01*
X00002637Y00011602D01*
X00002648Y00011607D01*
X00002650Y00011608D01*
X00002649Y00011632D01*
X00002649Y00011635D01*
X00002649Y00011639D01*
X00002649Y00011642D01*
X00002647Y00011798D01*
X00002647Y00011800D01*
X00002647Y00011803D01*
X00002647Y00011805D01*
X00002647Y00011868D01*
X00002647Y00011873D01*
X00002647Y00011881D01*
X00002648Y00011886D01*
X00002657Y00012093D01*
X00002658Y00012106D01*
X00002660Y00012128D01*
X00002662Y00012141D01*
X00002664Y00012154D01*
X00002664Y00012155D01*
X00002664Y00012158D01*
X00002665Y00012159D01*
X00002692Y00012320D01*
X00002695Y00012332D01*
X00002699Y00012352D01*
X00002706Y00012375D01*
X00002712Y00012394D01*
X00002716Y00012406D01*
X00002769Y00012540D01*
X00002773Y00012550D01*
X00002781Y00012567D01*
X00002786Y00012578D01*
X00002792Y00012589D01*
X00002798Y00012601D01*
X00002810Y00012621D01*
X00002818Y00012633D01*
X00002902Y00012759D01*
X00002911Y00012771D01*
X00002925Y00012790D01*
X00002935Y00012802D01*
X00003011Y00012890D01*
X00003017Y00012897D01*
X00003027Y00012907D01*
X00003033Y00012913D01*
X00003041Y00012922D01*
X00003049Y00012930D01*
X00003063Y00012942D01*
X00003072Y00012950D01*
X00003252Y00013098D01*
X00003262Y00013106D01*
X00003279Y00013119D01*
X00003301Y00013133D01*
X00003319Y00013144D01*
X00003331Y00013150D01*
X00003342Y00013155D01*
X00003349Y00013159D01*
X00003360Y00013164D01*
X00003367Y00013167D01*
X00003582Y00013260D01*
X00003596Y00013265D01*
X00003619Y00013274D01*
X00003647Y00013282D01*
X00003671Y00013287D01*
X00003686Y00013290D01*
X00003698Y00013292D01*
X00003699Y00013292D01*
X00003701Y00013292D01*
X00003702Y00013293D01*
X00003953Y00013330D01*
X00003997Y00013327D01*
X00004044Y00013333D01*
X00004331Y00013315D01*
X00004342Y00013314D01*
X00004360Y00013312D01*
X00004371Y00013311D01*
X00004383Y00013309D01*
X00004388Y00013308D01*
X00004397Y00013306D01*
X00004402Y00013305D01*
X00004618Y00013261D01*
X00004632Y00013258D01*
X00004656Y00013252D01*
X00004670Y00013247D01*
X00005046Y00013120D01*
X00005062Y00013114D01*
X00005089Y00013103D01*
X00005104Y00013096D01*
X00005115Y00013090D01*
X00005117Y00013089D01*
X00005121Y00013087D01*
X00005123Y00013086D01*
X00005460Y00012906D01*
X00005478Y00012895D01*
X00005506Y00012877D01*
X00005523Y00012865D01*
X00005820Y00012633D01*
X00005831Y00012623D01*
X00005849Y00012607D01*
X00005859Y00012598D01*
X00005868Y00012589D01*
X00005872Y00012585D01*
X00005929Y00012680D01*
X00005937Y00012692D01*
X00005951Y00012712D01*
X00005968Y00012734D01*
X00005984Y00012752D01*
X00005994Y00012762D01*
X00006003Y00012771D01*
X00006007Y00012775D01*
X00006013Y00012781D01*
X00006017Y00012785D01*
X00006118Y00012876D01*
X00006129Y00012886D01*
X00006148Y00012902D01*
X00006173Y00012919D01*
X00006194Y00012932D01*
X00006207Y00012939D01*
X00006314Y00012996D01*
X00006316Y00012997D01*
X00006318Y00012998D01*
X00006320Y00012999D01*
X00006331Y00013004D01*
X00006348Y00013012D01*
X00006376Y00013024D01*
X00006411Y00013036D01*
X00006442Y00013043D01*
X00006460Y00013046D01*
X00006472Y00013048D01*
X00006476Y00013049D01*
X00006482Y00013050D01*
X00006486Y00013050D01*
X00006590Y00013063D01*
X00006609Y00013062D01*
X00006703Y00013299D01*
X00006707Y00013310D01*
X00006715Y00013326D01*
X00006720Y00013336D01*
X00006725Y00013347D01*
X00006725Y00013348D01*
X00006726Y00013348D01*
X00006824Y00013539D01*
X00006832Y00013555D01*
X00006847Y00013579D01*
X00006857Y00013594D01*
X00006953Y00013729D01*
X00006965Y00013744D01*
X00006986Y00013768D01*
X00006998Y00013782D01*
X00007028Y00013812D01*
X00007029Y00013813D01*
X00007029Y00013813D01*
X00007038Y00013822D01*
X00007048Y00013831D01*
X00007066Y00013847D01*
X00007077Y00013856D01*
X00007122Y00013892D01*
X00007201Y00013932D01*
X00007225Y00013935D01*
X00007230Y00013937D01*
X00007234Y00013939D01*
X00007272Y00013942D01*
X00007322Y00013974D01*
X00007408Y00013991D01*
X00007445Y00013992D01*
X00007531Y00013976D01*
X00007586Y00013942D01*
X00007627Y00013939D01*
X00007631Y00013937D01*
X00007656Y00013935D01*
X00007735Y00013895D01*
X00007787Y00013856D01*
X00007797Y00013848D01*
X00007812Y00013835D01*
X00007821Y00013827D01*
X00007856Y00013794D01*
X00007859Y00013791D01*
X00007863Y00013787D01*
X00007865Y00013785D01*
X00007874Y00013776D01*
X00007882Y00013768D01*
X00007894Y00013754D01*
X00007902Y00013745D01*
X00007997Y00013630D01*
X00008008Y00013616D01*
X00008024Y00013592D01*
X00008034Y00013577D01*
X00008126Y00013424D01*
X00008130Y00013417D01*
X00008137Y00013405D01*
X00008140Y00013398D01*
X00008146Y00013387D01*
X00008148Y00013383D01*
X00008151Y00013377D01*
X00008153Y00013373D01*
X00008232Y00013203D01*
X00008237Y00013191D01*
X00008245Y00013172D01*
X00008249Y00013160D01*
X00008269Y00013103D01*
X00008429Y00013091D01*
X00008439Y00013090D01*
X00008455Y00013088D01*
X00008465Y00013087D01*
X00008477Y00013085D01*
X00008495Y00013082D01*
X00008525Y00013075D01*
X00008559Y00013063D01*
X00008587Y00013052D01*
X00008604Y00013044D01*
X00008747Y00012972D01*
X00008748Y00012972D01*
X00008749Y00012971D01*
X00008749Y00012971D01*
X00008760Y00012966D01*
X00008776Y00012957D01*
X00008802Y00012941D01*
X00008832Y00012919D01*
X00008856Y00012899D01*
X00008870Y00012886D01*
X00008878Y00012877D01*
X00008884Y00012872D01*
X00008893Y00012862D01*
X00008898Y00012856D01*
X00009011Y00012726D01*
X00009019Y00012717D01*
X00009032Y00012700D01*
X00009047Y00012679D01*
X00009058Y00012662D01*
X00009064Y00012651D01*
X00009082Y00012618D01*
X00009353Y00012849D01*
X00009368Y00012861D01*
X00009395Y00012880D01*
X00009411Y00012891D01*
X00009734Y00013086D01*
X00009742Y00013091D01*
X00009754Y00013098D01*
X00009762Y00013102D01*
X00009773Y00013107D01*
X00009783Y00013112D01*
X00009799Y00013120D01*
X00009809Y00013124D01*
X00010165Y00013265D01*
X00010183Y00013271D01*
X00010214Y00013281D01*
X00010233Y00013286D01*
X00010617Y00013369D01*
X00010623Y00013370D01*
X00010634Y00013372D01*
X00010641Y00013373D01*
X00010653Y00013375D01*
X00010659Y00013376D01*
X00010669Y00013377D01*
X00010674Y00013378D01*
X00010806Y00013392D01*
X00010832Y00013390D01*
X00010858Y00013395D01*
X00011107Y00013391D01*
X00011124Y00013391D01*
X00011152Y00013388D01*
X00011169Y00013386D01*
X00011181Y00013384D01*
X00011193Y00013382D01*
X00011212Y00013378D01*
X00011223Y00013376D01*
X00011439Y00013319D01*
X00011451Y00013316D01*
X00011471Y00013309D01*
X00011495Y00013300D01*
X00011515Y00013292D01*
X00011526Y00013286D01*
X00011537Y00013280D01*
X00011543Y00013278D01*
X00011552Y00013272D01*
X00011558Y00013269D01*
X00011714Y00013179D01*
X00011634Y00013238D01*
X00011507Y00013327D01*
X00011378Y00013414D01*
X00011247Y00013498D01*
X00011114Y00013579D01*
X00010980Y00013657D01*
X00010844Y00013732D01*
X00010705Y00013804D01*
X00010566Y00013873D01*
X00010426Y00013939D01*
X00010279Y00014003D01*
X00010279Y00014003D01*
X00010277Y00014004D01*
X00010121Y00014074D01*
X00010112Y00014078D01*
X00010098Y00014085D01*
X00010090Y00014089D01*
X00009940Y00014171D01*
X00009932Y00014176D01*
X00009919Y00014184D01*
X00009911Y00014189D01*
X00009768Y00014282D01*
X00009760Y00014287D01*
X00009747Y00014296D01*
X00009740Y00014302D01*
X00009604Y00014406D01*
X00009597Y00014412D01*
X00009585Y00014422D01*
X00009578Y00014429D01*
X00009452Y00014543D01*
X00009445Y00014550D01*
X00009434Y00014561D01*
X00009427Y00014568D01*
X00009310Y00014692D01*
X00009304Y00014699D01*
X00009294Y00014711D01*
X00009288Y00014718D01*
X00009181Y00014852D01*
X00009175Y00014859D01*
X00009166Y00014872D01*
X00009161Y00014879D01*
X00009065Y00015021D01*
X00009060Y00015029D01*
X00009051Y00015042D01*
X00009047Y00015050D01*
X00008962Y00015199D01*
X00008958Y00015207D01*
X00008951Y00015221D01*
X00008947Y00015229D01*
X00008874Y00015384D01*
X00008871Y00015393D01*
X00008865Y00015407D01*
X00008861Y00015416D01*
X00008833Y00015490D01*
X00008777Y00015406D01*
X00008770Y00015397D01*
X00008759Y00015381D01*
X00008744Y00015363D01*
X00008731Y00015349D01*
X00008723Y00015340D01*
X00008559Y00015176D01*
X00008550Y00015168D01*
X00008536Y00015155D01*
X00008518Y00015140D01*
X00008502Y00015129D01*
X00008493Y00015122D01*
X00008300Y00014993D01*
X00008290Y00014987D01*
X00008273Y00014977D01*
X00008253Y00014966D01*
X00008235Y00014957D01*
X00008225Y00014953D01*
X00008010Y00014864D01*
X00007999Y00014860D01*
X00007981Y00014853D01*
X00007959Y00014846D01*
X00007940Y00014842D01*
X00007929Y00014839D01*
X00007852Y00014824D01*
X00007852Y00014824D01*
X00007700Y00014794D01*
X00007689Y00014792D01*
X00007670Y00014789D01*
X00007647Y00014787D01*
X00007627Y00014786D01*
X00007616Y00014785D01*
X00007383Y00014785D01*
X00007372Y00014786D01*
X00007352Y00014787D01*
X00007329Y00014789D01*
X00007310Y00014792D01*
X00007299Y00014794D01*
X00007147Y00014824D01*
X00007147Y00014824D01*
X00007070Y00014839D01*
X00007059Y00014842D01*
X00007040Y00014846D01*
X00007018Y00014853D01*
X00007000Y00014860D01*
X00006989Y00014864D01*
X00006774Y00014953D01*
X00006764Y00014957D01*
X00006746Y00014966D01*
X00006726Y00014977D01*
X00006709Y00014987D01*
X00006699Y00014993D01*
X00006506Y00015122D01*
X00006496Y00015129D01*
X00006481Y00015140D01*
X00006463Y00015155D01*
X00006449Y00015168D01*
X00006440Y00015176D01*
X00006276Y00015340D01*
X00006268Y00015349D01*
X00006255Y00015363D01*
X00006240Y00015381D01*
X00006229Y00015397D01*
X00006222Y00015406D01*
X00006166Y00015490D01*
X00006138Y00015416D01*
X00006134Y00015407D01*
X00006128Y00015393D01*
X00006125Y00015384D01*
X00006052Y00015229D01*
X00006048Y00015221D01*
X00006041Y00015207D01*
X00006037Y00015199D01*
X00005952Y00015050D01*
X00005948Y00015042D01*
X00005939Y00015029D01*
X00005934Y00015021D01*
X00005838Y00014879D01*
X00005833Y00014872D01*
X00005824Y00014859D01*
X00005818Y00014852D01*
X00005711Y00014718D01*
X00005705Y00014711D01*
X00005695Y00014699D01*
X00005689Y00014692D01*
X00005572Y00014568D01*
X00005565Y00014561D01*
X00005554Y00014550D01*
X00005547Y00014544D01*
X00005421Y00014429D01*
X00005414Y00014422D01*
X00005402Y00014412D01*
X00005395Y00014406D01*
X00005259Y00014302D01*
X00005252Y00014296D01*
X00005239Y00014287D01*
X00005231Y00014282D01*
X00005088Y00014189D01*
X00005080Y00014184D01*
X00005067Y00014176D01*
X00005059Y00014171D01*
X00004909Y00014089D01*
X00004901Y00014085D01*
X00004887Y00014078D01*
X00004878Y00014074D01*
X00004722Y00014004D01*
X00004722Y00014004D01*
X00004721Y00014004D01*
X00004720Y00014003D01*
X00004574Y00013939D01*
X00004433Y00013873D01*
X00004294Y00013804D01*
X00004156Y00013732D01*
X00004019Y00013657D01*
X00003885Y00013579D01*
X00003752Y00013498D01*
X00003621Y00013414D01*
X00003492Y00013327D01*
X00003365Y00013238D01*
X00003240Y00013146D01*
X00003117Y00013051D01*
X00002996Y00012953D01*
X00002877Y00012852D01*
X00002760Y00012750D01*
X00002646Y00012644D01*
X00002534Y00012536D01*
X00002425Y00012426D01*
X00002318Y00012313D01*
X00002213Y00012198D01*
X00002111Y00012081D01*
X00002012Y00011961D01*
X00001915Y00011839D01*
X00001821Y00011716D01*
X00001729Y00011590D01*
X00001641Y00011462D01*
X00001555Y00011332D01*
X00001473Y00011201D01*
X00001393Y00011067D01*
X00001316Y00010932D01*
X00001242Y00010795D01*
X00001171Y00010657D01*
X00001103Y00010517D01*
X00001038Y00010376D01*
X00000976Y00010233D01*
X00000918Y00010089D01*
X00000863Y00009944D01*
X00000810Y00009797D01*
X00000762Y00009650D01*
X00000716Y00009501D01*
X00000674Y00009352D01*
X00000634Y00009201D01*
X00000599Y00009049D01*
X00000566Y00008897D01*
X00000537Y00008745D01*
X00000512Y00008591D01*
X00000489Y00008437D01*
X00000470Y00008283D01*
X00000455Y00008128D01*
X00000443Y00007973D01*
X00000434Y00007818D01*
X00000429Y00007663D01*
X00000427Y00007507D01*
X00000428Y00007352D01*
X00000433Y00007196D01*
X00000442Y00007041D01*
X00000453Y00006886D01*
X00000469Y00006731D01*
X00000487Y00006577D01*
X00000509Y00006423D01*
X00000535Y00006270D01*
X00000563Y00006117D01*
X00000595Y00005965D01*
X00000631Y00005813D01*
X00000670Y00005663D01*
X00000712Y00005513D01*
X00000757Y00005364D01*
X00000805Y00005216D01*
X00000857Y00005070D01*
X00000912Y00004925D01*
X00000970Y00004780D01*
X00001032Y00004637D01*
X00001096Y00004496D01*
X00001164Y00004356D01*
X00001235Y00004217D01*
X00001308Y00004081D01*
X00001385Y00003945D01*
X00001464Y00003812D01*
X00001547Y00003680D01*
X00001632Y00003550D01*
X00001720Y00003422D01*
X00001812Y00003296D01*
X00001905Y00003172D01*
X00002002Y00003050D01*
X00002101Y00002930D01*
X00002203Y00002812D01*
X00002307Y00002697D01*
X00002414Y00002584D01*
X00002523Y00002474D01*
X00002635Y00002365D01*
X00002749Y00002260D01*
X00002865Y00002157D01*
X00002984Y00002056D01*
X00003104Y00001958D01*
X00003227Y00001863D01*
X00003352Y00001770D01*
X00003479Y00001681D01*
X00003608Y00001594D01*
X00003739Y00001509D01*
X00003872Y00001428D01*
X00004006Y00001350D01*
X00004142Y00001275D01*
X00004280Y00001202D01*
X00004419Y00001133D01*
X00004559Y00001067D01*
X00004702Y00001004D01*
X00004845Y00000944D01*
X00004990Y00000887D01*
X00005136Y00000834D01*
X00005283Y00000783D01*
X00005431Y00000736D01*
X00005580Y00000692D01*
X00005730Y00000652D01*
X00005881Y00000614D01*
X00006033Y00000581D01*
X00006186Y00000550D01*
X00006339Y00000523D01*
X00006492Y00000499D01*
X00006646Y00000478D01*
X00006801Y00000461D01*
X00006956Y00000448D01*
X00007111Y00000438D01*
X00007266Y00000431D01*
X00007422Y00000427D01*
X00007577Y00000427D01*
X00007733Y00000431D01*
X00007888Y00000438D01*
X00008043Y00000448D01*
X00008198Y00000461D01*
X00008352Y00000478D01*
X00008507Y00000499D01*
X00008660Y00000523D01*
X00008813Y00000550D01*
X00008966Y00000581D01*
X00009118Y00000614D01*
X00009269Y00000652D01*
X00009419Y00000692D01*
X00009568Y00000736D01*
X00009716Y00000783D01*
X00009863Y00000833D01*
X00010009Y00000887D01*
X00010154Y00000944D01*
X00010298Y00001004D01*
X00010439Y00001067D01*
X00010580Y00001133D01*
X00010719Y00001202D01*
X00010857Y00001275D01*
X00010993Y00001350D01*
X00011127Y00001428D01*
X00011260Y00001509D01*
X00011391Y00001594D01*
X00011520Y00001681D01*
X00011647Y00001770D01*
X00011772Y00001863D01*
X00011894Y00001958D01*
X00012015Y00002056D01*
X00012134Y00002157D01*
X00012250Y00002260D01*
X00012364Y00002365D01*
X00012476Y00002474D01*
X00012585Y00002584D01*
X00012692Y00002697D01*
X00012796Y00002813D01*
X00012898Y00002930D01*
X00012997Y00003050D01*
X00013094Y00003172D01*
X00013187Y00003296D01*
X00013278Y00003422D01*
X00013367Y00003550D01*
X00013452Y00003680D01*
X00013535Y00003812D01*
X00013614Y00003945D01*
X00013691Y00004080D01*
X00013765Y00004217D01*
X00013835Y00004356D01*
X00013903Y00004496D01*
X00013967Y00004638D01*
X00014029Y00004780D01*
X00014087Y00004925D01*
X00014142Y00005070D01*
X00014194Y00005217D01*
X00014242Y00005364D01*
X00014287Y00005513D01*
X00014329Y00005663D01*
X00014368Y00005813D01*
X00014404Y00005965D01*
X00014436Y00006117D01*
X00014464Y00006270D01*
X00014490Y00006423D01*
X00014512Y00006577D01*
X00014530Y00006731D01*
X00014546Y00006886D01*
X00014557Y00007041D01*
X00014566Y00007196D01*
X00014571Y00007352D01*
X00014572Y00007507D01*
X00014570Y00007663D01*
X00014565Y00007818D01*
X00014556Y00007973D01*
X00014544Y00008128D01*
X00014529Y00008283D01*
X00014510Y00008437D01*
X00014487Y00008591D01*
X00014462Y00008745D01*
X00014433Y00008897D01*
X00014400Y00009050D01*
X00014365Y00009201D01*
X00014325Y00009351D01*
X00014283Y00009501D01*
X00014238Y00009649D01*
X00014189Y00009797D01*
X00014136Y00009944D01*
X00014081Y00010089D01*
X00014023Y00010233D01*
X00013961Y00010376D01*
X00013896Y00010517D01*
X00013828Y00010657D01*
X00013757Y00010795D01*
X00013683Y00010932D01*
X00013606Y00011067D01*
X00013526Y00011201D01*
X00013444Y00011332D01*
X00013358Y00011462D01*
X00013269Y00011590D01*
X00013178Y00011716D01*
X00013084Y00011840D01*
X00012987Y00011961D01*
X00012888Y00012081D01*
X00012786Y00012198D01*
X00012681Y00012313D01*
X00012574Y00012426D01*
X00012465Y00012536D01*
X00012353Y00012644D01*
X00012239Y00012750D01*
X00012122Y00012852D01*
X00012003Y00012953D01*
X00011945Y00013000D01*
X00012011Y00012938D01*
X00012014Y00012935D01*
X00012018Y00012931D01*
X00012020Y00012929D01*
X00012029Y00012920D01*
X00012037Y00012912D01*
X00012050Y00012898D01*
X00012057Y00012889D01*
X00012137Y00012792D01*
X00012144Y00012783D01*
X00012157Y00012766D01*
X00012170Y00012746D01*
X00012180Y00012728D01*
X00012186Y00012718D01*
X00012241Y00012614D01*
X00012241Y00012613D01*
X00012242Y00012611D01*
X00012243Y00012610D01*
X00012248Y00012599D01*
X00012254Y00012588D01*
X00012262Y00012569D01*
X00012271Y00012546D01*
X00012277Y00012526D01*
X00012281Y00012515D01*
X00012314Y00012390D01*
X00012317Y00012378D01*
X00012321Y00012358D01*
X00012323Y00012346D01*
X00012325Y00012334D01*
X00012326Y00012328D01*
X00012328Y00012318D01*
X00012328Y00012313D01*
X00012345Y00012154D01*
X00012346Y00012145D01*
X00012347Y00012129D01*
X00012348Y00012119D01*
X00012353Y00011913D01*
X00012353Y00011910D01*
X00012354Y00011905D01*
X00012354Y00011901D01*
X00012354Y00011810D01*
X00012354Y00011808D01*
X00012353Y00011692D01*
X00012374Y00011683D01*
X00012388Y00011677D01*
X00012399Y00011671D01*
X00012415Y00011663D01*
X00012440Y00011647D01*
X00012454Y00011638D01*
X00012627Y00011514D01*
X00012643Y00011502D01*
X00012668Y00011481D01*
X00012682Y00011468D01*
X00012691Y00011459D01*
X00012694Y00011456D01*
X00012700Y00011449D01*
X00012704Y00011445D01*
X00012869Y00011264D01*
X00012877Y00011256D01*
X00012890Y00011241D01*
X00012897Y00011231D01*
X00012917Y00011204D01*
X00013025Y00011071D01*
X00013139Y00010951D01*
X00013255Y00010845D01*
X00013351Y00010772D01*
X00013397Y00010746D01*
X00013397Y00010746D01*
X00013397Y00010746D01*
X00013469Y00010705D01*
X00013481Y00010697D01*
X00013500Y00010684D01*
X00013523Y00010667D01*
X00013541Y00010652D01*
X00013552Y00010642D01*
X00013588Y00010608D01*
X00013596Y00010597D01*
X00013604Y00010589D01*
X00013617Y00010575D01*
X00013637Y00010551D01*
X00013659Y00010521D01*
X00013675Y00010495D01*
X00013684Y00010479D01*
X00013689Y00010469D01*
X00013697Y00010452D01*
X00013709Y00010424D01*
X00013720Y00010388D01*
X00013722Y00010379D01*
X00013724Y00010374D01*
X00013725Y00010370D01*
X00013727Y00010362D01*
X00013730Y00010347D01*
X00013731Y00010339D01*
X00013733Y00010327D01*
X00013735Y00010308D01*
X00013738Y00010278D01*
X00013738Y00010241D01*
X00013735Y00010210D01*
X00013733Y00010191D01*
X00013731Y00010179D01*
X00013728Y00010161D01*
X00013721Y00010131D01*
X00013709Y00010096D01*
X00013697Y00010067D01*
X00013689Y00010050D01*
X00013684Y00010039D01*
X00013679Y00010030D01*
X00013670Y00010015D01*
X00013659Y00009998D01*
X00013650Y00009983D01*
X00013644Y00009975D01*
X00013615Y00009937D01*
X00013604Y00009924D01*
X00013587Y00009904D01*
X00013576Y00009892D01*
X00013567Y00009883D01*
X00013557Y00009874D01*
X00013563Y00009862D01*
X00013569Y00009852D01*
X00013577Y00009835D01*
X00013588Y00009806D01*
X00013600Y00009771D01*
X00013607Y00009741D01*
X00013611Y00009722D01*
X00013613Y00009710D01*
X00013614Y00009702D01*
X00013615Y00009689D01*
X00013616Y00009680D01*
X00013624Y00009595D01*
X00013614Y00009506D01*
X00013575Y00009432D01*
X00013609Y00009426D01*
X00013642Y00009407D01*
X00013679Y00009409D01*
X00013758Y00009383D01*
X00013799Y00009362D01*
X00013870Y00009304D01*
X00013904Y00009242D01*
X00013907Y00009240D01*
X00013907Y00009240D01*
X00013906Y00009239D01*
X00013914Y00009224D01*
X00013918Y00009213D01*
X00013954Y00009182D01*
X00013957Y00009177D01*
X00013965Y00009160D01*
X00013968Y00009152D01*
X00013991Y00009106D01*
X00014025Y00009059D01*
X00014046Y00008976D01*
X00014049Y00008931D01*
X00014049Y00008918D01*
X00014050Y00008896D01*
X00014049Y00008869D01*
X00014046Y00008847D01*
X00014045Y00008834D01*
X00014043Y00008822D01*
X00014039Y00008802D01*
X00014030Y00008769D01*
X00014025Y00008749D01*
X00013997Y00008669D01*
X00013981Y00008640D01*
X00013973Y00008612D01*
X00013925Y00008517D01*
X00013908Y00008495D01*
X00013895Y00008465D01*
X00013888Y00008454D01*
X00013896Y00008434D01*
X00013907Y00008399D01*
X00013915Y00008369D01*
X00013918Y00008350D01*
X00013920Y00008338D01*
X00013922Y00008322D01*
X00013925Y00008295D01*
X00013925Y00008278D01*
X00013928Y00008152D01*
X00013928Y00008142D01*
X00013927Y00008125D01*
X00013926Y00008104D01*
X00013924Y00008087D01*
X00013922Y00008077D01*
X00013920Y00008065D01*
X00013917Y00008047D01*
X00013910Y00008018D01*
X00013905Y00008000D01*
X00013889Y00007949D01*
X00013882Y00007931D01*
X00013870Y00007902D01*
X00013862Y00007885D01*
X00013857Y00007874D01*
X00013852Y00007865D01*
X00013843Y00007849D01*
X00013837Y00007840D01*
X00013828Y00007825D01*
X00013863Y00007825D01*
X00013894Y00007823D01*
X00013912Y00007821D01*
X00013924Y00007819D01*
X00013936Y00007817D01*
X00013955Y00007813D01*
X00013966Y00007810D01*
X00013982Y00007806D01*
X00013994Y00007803D01*
X00014014Y00007796D01*
X00014038Y00007787D01*
X00014058Y00007779D01*
X00014069Y00007773D01*
X00014080Y00007767D01*
X00014096Y00007758D01*
X00014123Y00007742D01*
X00014153Y00007720D01*
X00014176Y00007700D01*
X00014190Y00007688D01*
X00014198Y00007679D01*
X00014211Y00007666D01*
X00014231Y00007642D01*
X00014253Y00007612D01*
X00014269Y00007586D01*
X00014278Y00007569D01*
X00014284Y00007558D01*
X00014292Y00007542D01*
X00014303Y00007513D01*
X00014315Y00007478D01*
X00014322Y00007448D01*
X00014326Y00007430D01*
X00014327Y00007418D01*
X00014330Y00007399D01*
X00014332Y00007368D01*
X00014332Y00007331D01*
X00014330Y00007300D01*
X00014327Y00007282D01*
X00014326Y00007270D01*
X00014323Y00007255D01*
X00014318Y00007232D01*
X00014314Y00007218D01*
X00014304Y00007184D01*
X00014301Y00007173D01*
X00014295Y00007155D01*
X00014287Y00007134D01*
X00014279Y00007117D01*
X00014274Y00007107D01*
X00014268Y00007096D01*
X00014263Y00007085D01*
X00014252Y00007067D01*
X00014239Y00007047D01*
X00014227Y00007030D01*
X00014220Y00007021D01*
X00014165Y00006953D01*
X00014158Y00006945D01*
X00014146Y00006931D01*
X00014139Y00006923D01*
X00014048Y00006830D01*
X00014047Y00006829D01*
X00014045Y00006826D01*
X00014044Y00006825D01*
X00014035Y00006817D01*
X00014033Y00006814D01*
X00014029Y00006810D01*
X00014026Y00006808D01*
X00013908Y00006697D01*
X00013905Y00006694D01*
X00013901Y00006690D01*
X00013898Y00006688D01*
X00013761Y00006566D01*
X00013759Y00006564D01*
X00013755Y00006561D01*
X00013753Y00006559D01*
X00013605Y00006434D01*
X00013602Y00006432D01*
X00013599Y00006429D01*
X00013596Y00006427D01*
X00013446Y00006306D01*
X00013443Y00006304D01*
X00013438Y00006300D01*
X00013435Y00006298D01*
X00013290Y00006189D01*
X00013287Y00006186D01*
X00013281Y00006182D01*
X00013277Y00006179D01*
X00013164Y00006101D01*
X00013162Y00006099D01*
X00013157Y00006096D01*
X00013154Y00006094D01*
X00013036Y00006017D01*
X00013047Y00006001D01*
X00013050Y00005995D01*
X00013056Y00005985D01*
X00013060Y00005979D01*
X00013132Y00005854D01*
X00013134Y00005851D01*
X00013137Y00005845D01*
X00013139Y00005842D01*
X00013217Y00005696D01*
X00013218Y00005694D01*
X00013220Y00005691D01*
X00013221Y00005689D01*
X00013226Y00005678D01*
X00013227Y00005677D01*
X00013227Y00005676D01*
X00013301Y00005530D01*
X00013303Y00005526D01*
X00013306Y00005520D01*
X00013307Y00005517D01*
X00013365Y00005391D01*
X00013368Y00005384D01*
X00013373Y00005374D01*
X00013376Y00005367D01*
X00013404Y00005295D01*
X00013408Y00005283D01*
X00013415Y00005263D01*
X00013422Y00005238D01*
X00013426Y00005217D01*
X00013428Y00005205D01*
X00013430Y00005193D01*
X00013431Y00005190D01*
X00013431Y00005187D01*
X00013432Y00005184D01*
X00013449Y00005059D01*
X00013444Y00004967D01*
X00013441Y00004962D01*
X00013443Y00004956D01*
X00013435Y00004870D01*
X00013400Y00004745D01*
X00013365Y00004675D01*
X00013335Y00004607D01*
X00013244Y00004473D01*
X00013232Y00004457D01*
X00013212Y00004432D01*
X00013199Y00004418D01*
X00013106Y00004321D01*
X00013084Y00004305D01*
X00013066Y00004282D01*
X00012986Y00004214D01*
X00012980Y00004209D01*
X00012971Y00004202D01*
X00012965Y00004197D01*
X00012856Y00004115D01*
X00012853Y00004113D01*
X00012847Y00004109D01*
X00012844Y00004106D01*
X00012720Y00004019D01*
X00012717Y00004017D01*
X00012712Y00004014D01*
X00012709Y00004012D01*
X00012584Y00003930D01*
X00012581Y00003928D01*
X00012575Y00003924D01*
X00012572Y00003922D01*
X00012460Y00003854D01*
X00012454Y00003851D01*
X00012444Y00003845D01*
X00012438Y00003841D01*
X00012354Y00003797D01*
X00012352Y00003796D01*
X00012349Y00003795D01*
X00012348Y00003794D01*
X00012337Y00003788D01*
X00012320Y00003781D01*
X00012291Y00003769D01*
X00012274Y00003762D01*
X00012239Y00003751D01*
X00012222Y00003745D01*
X00012178Y00003722D01*
X00012074Y00003660D01*
X00011953Y00003582D01*
X00011832Y00003499D01*
X00011730Y00003425D01*
X00011667Y00003374D01*
X00011664Y00003371D01*
X00011635Y00003339D01*
X00011651Y00003312D01*
X00011678Y00003234D01*
X00011683Y00003214D01*
X00011691Y00003181D01*
X00011696Y00003161D01*
X00011697Y00003149D01*
X00011698Y00003148D01*
X00011698Y00003147D01*
X00011698Y00003146D01*
X00011717Y00003022D01*
X00011718Y00003013D01*
X00011720Y00002997D01*
X00011720Y00002988D01*
X00011731Y00002834D01*
X00011732Y00002827D01*
X00011732Y00002817D01*
X00011732Y00002811D01*
X00011735Y00002642D01*
X00011735Y00002637D01*
X00011735Y00002628D01*
X00011735Y00002623D01*
X00011731Y00002454D01*
X00011731Y00002448D01*
X00011730Y00002438D01*
X00011730Y00002432D01*
X00011718Y00002280D01*
X00011711Y00002256D01*
X00011712Y00002233D01*
X00011692Y00002113D01*
X00011690Y00002102D01*
X00011686Y00002084D01*
X00011681Y00002062D01*
X00011675Y00002044D01*
X00011671Y00002033D01*
X00011645Y00001961D01*
X00011635Y00001943D01*
X00011626Y00001923D01*
X00011618Y00001906D01*
X00011614Y00001898D01*
X00011605Y00001881D01*
X00011589Y00001855D01*
X00011570Y00001828D01*
X00011566Y00001823D01*
X00011561Y00001816D01*
X00011553Y00001807D01*
X00011541Y00001793D01*
X00011533Y00001785D01*
X00011524Y00001777D01*
X00011510Y00001764D01*
X00011486Y00001743D01*
X00011470Y00001731D01*
X00011398Y00001679D01*
X00011386Y00001671D01*
X00011365Y00001658D01*
X00011353Y00001651D01*
X00011232Y00001585D01*
X00011230Y00001584D01*
X00011225Y00001581D01*
X00011222Y00001580D01*
X00011211Y00001574D01*
X00011208Y00001573D01*
X00011202Y00001570D01*
X00011199Y00001569D01*
X00011047Y00001497D01*
X00011042Y00001495D01*
X00011035Y00001491D01*
X00011030Y00001489D01*
X00010861Y00001418D01*
X00010856Y00001416D01*
X00010849Y00001413D01*
X00010844Y00001411D01*
X00010674Y00001348D01*
X00010669Y00001346D01*
X00010661Y00001343D01*
X00010656Y00001342D01*
X00010546Y00001305D01*
X00010537Y00001303D01*
X00010524Y00001299D01*
X00010516Y00001297D01*
X00009983Y00001165D01*
X00009956Y00001163D01*
X00009933Y00001155D01*
X00009350Y00001065D01*
X00009341Y00001065D01*
X00009332Y00001062D01*
X00009331Y00001062D01*
X00009324Y00001063D01*
X00009317Y00001061D01*
X00009204Y00001052D01*
X00009197Y00001052D01*
X00009190Y00001051D01*
X00009020Y00001042D01*
X00009016Y00001043D01*
X00009013Y00001042D01*
X00008795Y00001034D01*
X00008793Y00001035D01*
X00008791Y00001034D01*
X00008533Y00001027D01*
X00008532Y00001028D01*
X00008531Y00001027D01*
X00008244Y00001021D01*
X00008243Y00001022D01*
X00008242Y00001021D01*
X00007934Y00001017D01*
X00007934Y00001017D01*
X00007933Y00001017D01*
X00007614Y00001013D01*
X00007613Y00001013D01*
X00007612Y00001013D01*
X00007292Y00001010D01*
X00007291Y00001010D01*
X00007290Y00001010D01*
X00006976Y00001009D01*
X00006975Y00001009D01*
X00006974Y00001009D01*
X00006677Y00001009D01*
X00006676Y00001009D01*
X00006675Y00001009D01*
X00006674Y00001009D01*
X00006402Y00001010D01*
X00006402Y00001010D01*
X00006400Y00001010D01*
X00006399Y00001010D01*
X00006161Y00001013D01*
X00006160Y00001013D01*
X00006158Y00001013D01*
X00006157Y00001014D01*
X00005963Y00001018D01*
X00005960Y00001018D01*
X00005956Y00001018D01*
X00005954Y00001018D01*
X00005812Y00001025D01*
X00005808Y00001025D01*
X00005802Y00001025D01*
X00005798Y00001026D01*
X00005749Y00001029D01*
X00005743Y00001030D01*
X00005733Y00001031D01*
X00005727Y00001032D01*
X00005244Y00001094D01*
X00005241Y00001094D01*
X00005236Y00001095D01*
X00005232Y00001096D01*
X00005220Y00001098D01*
X00005216Y00001098D01*
X00005209Y00001100D01*
X00005205Y00001100D01*
X00004778Y00001183D01*
X00004768Y00001185D01*
X00004753Y00001189D01*
X00004744Y00001191D01*
X00004375Y00001294D01*
X00004363Y00001298D01*
X00004343Y00001305D01*
X00004331Y00001309D01*
X00004163Y00001376D01*
X00004163Y00001376D01*
X00004024Y00001432D01*
X00004014Y00001436D01*
X00003999Y00001443D01*
X00003990Y00001447D01*
X00003918Y00001483D01*
X00003917Y00001483D01*
X00003916Y00001484D01*
X00003916Y00001484D01*
X00003905Y00001490D01*
X00003898Y00001493D01*
X00003887Y00001500D01*
X00003880Y00001504D01*
X00003781Y00001563D01*
X00003771Y00001569D01*
X00003755Y00001579D01*
X00003737Y00001592D01*
X00003722Y00001604D01*
X00003714Y00001612D01*
X00003642Y00001676D01*
X00003601Y00001729D01*
X00003550Y00001786D01*
X00003502Y00001866D01*
X00003480Y00001927D01*
X00003449Y00001993D01*
X00003423Y00002100D01*
X00003420Y00002145D01*
X00003409Y00002189D01*
X00003399Y00002334D01*
X00003399Y00002344D01*
X00003398Y00002361D01*
X00003398Y00002371D01*
X00003403Y00002565D01*
X00003403Y00002569D01*
X00003403Y00002575D01*
X00003403Y00002578D01*
X00003409Y00002704D01*
X00003410Y00002706D01*
X00003410Y00002708D01*
X00003410Y00002709D01*
X00003420Y00002866D01*
X00003420Y00002868D01*
X00003420Y00002870D01*
X00003420Y00002872D01*
X00003431Y00003004D01*
X00003431Y00003007D01*
X00003431Y00003012D01*
X00003432Y00003014D01*
X00003441Y00003107D01*
X00003442Y00003114D01*
X00003443Y00003124D01*
X00003444Y00003131D01*
X00003446Y00003143D01*
X00003447Y00003146D01*
X00003447Y00003150D01*
X00003448Y00003153D01*
X00003455Y00003193D01*
X00003459Y00003210D01*
X00003464Y00003231D01*
X00003458Y00003239D01*
X00003452Y00003248D01*
X00003441Y00003263D01*
X00003435Y00003272D01*
X00003398Y00003332D01*
X00003374Y00003364D01*
X00003341Y00003396D01*
X00003250Y00003460D01*
X00003101Y00003551D01*
X00002888Y00003667D01*
X00002870Y00003677D01*
X00002869Y00003677D01*
X00002868Y00003678D01*
X00002604Y00003818D01*
X00008161Y00010760D02*
X00008163Y00010777D01*
X00008164Y00010780D01*
X00008164Y00010785D01*
X00008165Y00010787D01*
X00008167Y00010799D01*
X00008167Y00010801D01*
X00008168Y00010804D01*
X00008168Y00010806D01*
X00008185Y00010906D01*
X00008187Y00010916D01*
X00008191Y00010932D01*
X00008193Y00010941D01*
X00008270Y00011234D01*
X00008227Y00011272D01*
X00008223Y00011276D01*
X00008221Y00011279D01*
X00008202Y00011276D01*
X00008192Y00011273D01*
X00008184Y00011260D01*
X00008155Y00011175D01*
X00008144Y00011109D01*
X00008128Y00010927D01*
X00008105Y00010845D01*
X00008081Y00010813D01*
X00008161Y00010760D01*
X00006792Y00010730D02*
X00006865Y00010792D01*
X00006861Y00010799D01*
X00006855Y00010812D01*
X00006845Y00010834D01*
X00006836Y00010861D01*
X00006829Y00010884D01*
X00006825Y00010898D01*
X00006812Y00010956D01*
X00006811Y00010961D01*
X00006809Y00010969D01*
X00006808Y00010974D01*
X00006791Y00011066D01*
X00006790Y00011068D01*
X00006790Y00011072D01*
X00006789Y00011074D01*
X00006788Y00011078D01*
X00006750Y00011220D01*
X00006735Y00011248D01*
X00006683Y00011195D01*
X00006680Y00011194D01*
X00006746Y00010970D01*
X00006749Y00010958D01*
X00006754Y00010938D01*
X00006756Y00010926D01*
X00006792Y00010730D01*
X00009508Y00010255D02*
X00009508Y00010260D01*
X00009509Y00010266D01*
X00009510Y00010277D01*
X00009511Y00010283D01*
X00009513Y00010295D01*
X00009514Y00010298D01*
X00009515Y00010304D01*
X00009515Y00010307D01*
X00009541Y00010441D01*
X00009541Y00010442D01*
X00009471Y00010449D01*
X00009442Y00010448D01*
X00009353Y00010463D01*
X00009310Y00010490D01*
X00009280Y00010441D01*
X00009253Y00010386D01*
X00009219Y00010295D01*
X00009216Y00010287D01*
X00009258Y00010278D01*
X00009490Y00010255D01*
X00009508Y00010255D01*
X00005484Y00010139D02*
X00005708Y00010174D01*
X00005760Y00010190D01*
X00005756Y00010204D01*
X00005698Y00010332D01*
X00005651Y00010406D01*
X00005651Y00010406D01*
X00005640Y00010400D01*
X00005627Y00010394D01*
X00005604Y00010384D01*
X00005577Y00010374D01*
X00005553Y00010367D01*
X00005539Y00010363D01*
X00005495Y00010353D01*
X00005438Y00010351D01*
X00005465Y00010244D01*
X00005467Y00010235D01*
X00005470Y00010219D01*
X00005472Y00010211D01*
X00005472Y00010211D01*
X00005472Y00010211D01*
X00005472Y00010209D01*
X00005482Y00010153D01*
X00005482Y00010152D01*
X00005482Y00010151D01*
X00005482Y00010149D01*
X00005484Y00010139D01*
X00007936Y00009355D02*
X00007828Y00009416D01*
X00007821Y00009421D01*
X00007809Y00009428D01*
X00007802Y00009433D01*
X00007540Y00009608D01*
X00007535Y00009611D01*
X00007526Y00009618D01*
X00007521Y00009621D01*
X00007479Y00009653D01*
X00007225Y00009454D01*
X00007265Y00009450D01*
X00007265Y00009450D01*
X00007267Y00009450D01*
X00007268Y00009450D01*
X00007443Y00009434D01*
X00007444Y00009434D01*
X00007446Y00009434D01*
X00007447Y00009434D01*
X00007599Y00009418D01*
X00007601Y00009418D01*
X00007604Y00009417D01*
X00007606Y00009417D01*
X00007724Y00009403D01*
X00007728Y00009403D01*
X00007736Y00009402D01*
X00007740Y00009401D01*
X00007811Y00009390D01*
X00007825Y00009385D01*
X00007827Y00009385D01*
X00007831Y00009384D01*
X00007849Y00009381D01*
X00007869Y00009376D01*
X00007869Y00009375D01*
X00007889Y00009372D01*
X00007904Y00009368D01*
X00007921Y00009361D01*
X00007936Y00009355D01*
X00008068Y00009274D02*
X00008074Y00009276D01*
X00008047Y00009292D01*
X00008051Y00009289D01*
X00008068Y00009274D01*
X00009972Y00005507D02*
X00010102Y00005675D01*
X00010215Y00005859D01*
X00010258Y00005950D01*
X00010327Y00006114D01*
X00010408Y00006320D01*
X00010492Y00006548D01*
X00010575Y00006784D01*
X00010650Y00007012D01*
X00010710Y00007207D01*
X00010835Y00007673D01*
X00010927Y00008098D01*
X00010991Y00008495D01*
X00011032Y00008912D01*
X00011041Y00009087D01*
X00010730Y00008979D01*
X00010714Y00008974D01*
X00010687Y00008967D01*
X00010671Y00008963D01*
X00010263Y00008883D01*
X00010229Y00008883D01*
X00010193Y00008874D01*
X00009773Y00008850D01*
X00009744Y00008853D01*
X00009715Y00008850D01*
X00009322Y00008880D01*
X00009327Y00008874D01*
X00009342Y00008857D01*
X00009359Y00008836D01*
X00009372Y00008818D01*
X00009379Y00008806D01*
X00009479Y00008646D01*
X00009484Y00008637D01*
X00009492Y00008623D01*
X00009497Y00008614D01*
X00009503Y00008603D01*
X00009510Y00008587D01*
X00009521Y00008560D01*
X00009527Y00008544D01*
X00009548Y00008483D01*
X00009552Y00008471D01*
X00009557Y00008450D01*
X00009560Y00008438D01*
X00009579Y00008352D01*
X00009581Y00008307D01*
X00009591Y00008261D01*
X00009593Y00008183D01*
X00009594Y00008172D01*
X00009593Y00008153D01*
X00009592Y00008131D01*
X00009590Y00008113D01*
X00009588Y00008102D01*
X00009587Y00008090D01*
X00009586Y00008088D01*
X00009586Y00008086D01*
X00009586Y00008084D01*
X00009570Y00007991D01*
X00009567Y00007980D01*
X00009563Y00007960D01*
X00009560Y00007949D01*
X00009552Y00007920D01*
X00009573Y00007912D01*
X00009593Y00007903D01*
X00009606Y00007897D01*
X00009617Y00007892D01*
X00009620Y00007890D01*
X00009626Y00007887D01*
X00009629Y00007886D01*
X00009829Y00007775D01*
X00009843Y00007767D01*
X00009864Y00007754D01*
X00009889Y00007735D01*
X00009909Y00007719D01*
X00009920Y00007709D01*
X00010068Y00007567D01*
X00010070Y00007566D01*
X00010073Y00007563D01*
X00010075Y00007561D01*
X00010083Y00007552D01*
X00010095Y00007540D01*
X00010114Y00007518D01*
X00010134Y00007491D01*
X00010149Y00007467D01*
X00010158Y00007453D01*
X00010241Y00007301D01*
X00010242Y00007298D01*
X00010245Y00007293D01*
X00010246Y00007290D01*
X00010252Y00007279D01*
X00010259Y00007264D01*
X00010270Y00007238D01*
X00010280Y00007206D01*
X00010288Y00007179D01*
X00010291Y00007163D01*
X00010328Y00006969D01*
X00010328Y00006917D01*
X00010337Y00006859D01*
X00010327Y00006622D01*
X00010326Y00006608D01*
X00010324Y00006586D01*
X00010322Y00006572D01*
X00010320Y00006560D01*
X00010319Y00006555D01*
X00010318Y00006547D01*
X00010317Y00006543D01*
X00010260Y00006261D01*
X00010258Y00006249D01*
X00010252Y00006228D01*
X00010249Y00006216D01*
X00010146Y00005889D01*
X00010144Y00005884D01*
X00010141Y00005875D01*
X00010140Y00005870D01*
X00010122Y00005822D01*
X00010120Y00005818D01*
X00010118Y00005811D01*
X00010116Y00005806D01*
X00010061Y00005673D01*
X00010057Y00005664D01*
X00010051Y00005650D01*
X00010047Y00005641D01*
X00010041Y00005630D01*
X00010039Y00005626D01*
X00010035Y00005618D01*
X00010032Y00005614D01*
X00009973Y00005508D01*
X00009972Y00005507D01*
X00005731Y00004764D02*
X00005730Y00004774D01*
X00005728Y00004804D01*
X00005728Y00004842D01*
X00005730Y00004872D01*
X00005732Y00004891D01*
X00005734Y00004903D01*
X00005738Y00004921D01*
X00005741Y00004933D01*
X00005720Y00004951D01*
X00005707Y00004963D01*
X00005701Y00004969D01*
X00005683Y00004989D01*
X00005667Y00005012D01*
X00005655Y00005032D01*
X00005643Y00005041D01*
X00005600Y00005116D01*
X00005590Y00005146D01*
X00005586Y00005156D01*
X00005581Y00005173D01*
X00005576Y00005194D01*
X00005572Y00005211D01*
X00005570Y00005222D01*
X00005569Y00005234D01*
X00005567Y00005250D01*
X00005564Y00005277D01*
X00005564Y00005310D01*
X00005565Y00005337D01*
X00005566Y00005353D01*
X00005576Y00005433D01*
X00005576Y00005437D01*
X00005577Y00005445D01*
X00005578Y00005446D01*
X00005586Y00005516D01*
X00005596Y00005637D01*
X00005607Y00005793D01*
X00005616Y00005945D01*
X00005619Y00006021D01*
X00005613Y00006020D01*
X00005524Y00006040D01*
X00005475Y00006061D01*
X00005469Y00006064D01*
X00005459Y00006069D01*
X00005453Y00006072D01*
X00005442Y00006078D01*
X00005426Y00006087D01*
X00005399Y00006103D01*
X00005369Y00006125D01*
X00005346Y00006145D01*
X00005332Y00006157D01*
X00005323Y00006166D01*
X00005311Y00006180D01*
X00005291Y00006203D01*
X00005269Y00006233D01*
X00005253Y00006260D01*
X00005244Y00006276D01*
X00005238Y00006287D01*
X00005230Y00006304D01*
X00005219Y00006332D01*
X00005207Y00006367D01*
X00005200Y00006397D01*
X00005196Y00006415D01*
X00005194Y00006427D01*
X00005193Y00006439D01*
X00005191Y00006459D01*
X00005190Y00006471D01*
X00005186Y00006532D01*
X00005186Y00006545D01*
X00005186Y00006566D01*
X00005187Y00006591D01*
X00005189Y00006612D01*
X00005191Y00006624D01*
X00005193Y00006636D01*
X00005195Y00006650D01*
X00005200Y00006672D01*
X00005204Y00006686D01*
X00005218Y00006738D01*
X00005244Y00006790D01*
X00005260Y00006838D01*
X00005346Y00006997D01*
X00005355Y00007011D01*
X00005370Y00007035D01*
X00005391Y00007062D01*
X00005409Y00007084D01*
X00005421Y00007096D01*
X00005429Y00007105D01*
X00005432Y00007108D01*
X00005437Y00007113D01*
X00005441Y00007116D01*
X00005574Y00007240D01*
X00005584Y00007249D01*
X00005600Y00007262D01*
X00005621Y00007278D01*
X00005638Y00007289D01*
X00005649Y00007296D01*
X00005652Y00007298D01*
X00005664Y00007348D01*
X00005688Y00007492D01*
X00005688Y00007495D01*
X00005689Y00007498D01*
X00005689Y00007500D01*
X00005728Y00007712D01*
X00005731Y00007725D01*
X00005737Y00007748D01*
X00005741Y00007761D01*
X00005789Y00007918D01*
X00005796Y00007937D01*
X00005808Y00007968D01*
X00005817Y00007986D01*
X00005822Y00007997D01*
X00005825Y00008002D01*
X00005829Y00008009D01*
X00005831Y00008014D01*
X00005841Y00008031D01*
X00005784Y00008014D01*
X00005777Y00008011D01*
X00005760Y00008005D01*
X00005750Y00008001D01*
X00005675Y00007975D01*
X00005657Y00007969D01*
X00005627Y00007961D01*
X00005609Y00007957D01*
X00005517Y00007941D01*
X00005486Y00007941D01*
X00005454Y00007933D01*
X00005367Y00007927D01*
X00005325Y00007933D01*
X00005285Y00007930D01*
X00005225Y00007938D01*
X00005221Y00007938D01*
X00005216Y00007939D01*
X00005212Y00007940D01*
X00005200Y00007941D01*
X00005182Y00007945D01*
X00005152Y00007952D01*
X00005117Y00007964D01*
X00005088Y00007976D01*
X00005071Y00007983D01*
X00005060Y00007989D01*
X00005045Y00007998D01*
X00005019Y00008014D01*
X00004990Y00008035D01*
X00004967Y00008054D01*
X00004953Y00008066D01*
X00004939Y00008080D01*
X00004915Y00008114D01*
X00004913Y00008113D01*
X00004880Y00008159D01*
X00004861Y00008190D01*
X00004857Y00008198D01*
X00004849Y00008215D01*
X00004837Y00008243D01*
X00004826Y00008279D01*
X00004819Y00008308D01*
X00004815Y00008327D01*
X00004813Y00008339D01*
X00004811Y00008357D01*
X00004809Y00008388D01*
X00004809Y00008425D01*
X00004811Y00008456D01*
X00004813Y00008472D01*
X00004808Y00008495D01*
X00004822Y00008582D01*
X00004848Y00008652D01*
X00004853Y00008665D01*
X00004862Y00008686D01*
X00004868Y00008699D01*
X00004874Y00008710D01*
X00004884Y00008727D01*
X00004901Y00008755D01*
X00004912Y00008771D01*
X00004922Y00008785D01*
X00004836Y00008787D01*
X00004826Y00008788D01*
X00004809Y00008789D01*
X00004799Y00008790D01*
X00004756Y00008794D01*
X00004752Y00008795D01*
X00004745Y00008796D01*
X00004741Y00008796D01*
X00004484Y00008833D01*
X00004464Y00008840D01*
X00004441Y00008841D01*
X00004201Y00008893D01*
X00004193Y00008895D01*
X00004178Y00008899D01*
X00004169Y00008901D01*
X00003958Y00008964D01*
X00003990Y00008512D01*
X00004073Y00007953D01*
X00004204Y00007394D01*
X00004387Y00006824D01*
X00004567Y00006365D01*
X00004752Y00005966D01*
X00004944Y00005629D01*
X00005151Y00005334D01*
X00005383Y00005071D01*
X00005489Y00004968D01*
X00005637Y00004837D01*
X00005731Y00004764D01*
X00007985Y00007767D02*
X00008009Y00007784D01*
X00008149Y00007886D01*
X00008236Y00007953D01*
X00008238Y00008001D01*
X00008233Y00008059D01*
X00008210Y00008070D01*
X00008118Y00008016D01*
X00008084Y00007994D01*
X00007996Y00007938D01*
X00007993Y00007899D01*
X00007985Y00007767D01*
X00012209Y00007480D02*
X00012302Y00007513D01*
X00012467Y00007584D01*
X00012501Y00007601D01*
X00012460Y00007599D01*
X00012432Y00007602D01*
X00012404Y00007599D01*
X00012319Y00007604D01*
X00012308Y00007605D01*
X00012289Y00007607D01*
X00012278Y00007608D01*
X00012266Y00007610D01*
X00012255Y00007612D01*
X00012240Y00007615D01*
X00012209Y00007480D01*
X00002871Y00007347D02*
X00002833Y00007510D01*
X00002790Y00007497D01*
X00002742Y00007492D01*
X00002699Y00007480D01*
X00002629Y00007473D01*
X00002603Y00007475D01*
X00002576Y00007471D01*
X00002562Y00007471D01*
X00002565Y00007470D01*
X00002742Y00007395D01*
X00002871Y00007347D01*
X00008395Y00005677D02*
X00008544Y00005772D01*
X00008545Y00005772D01*
X00008682Y00005859D01*
X00008736Y00006028D01*
X00008793Y00006230D01*
X00008843Y00006438D01*
X00008883Y00006639D01*
X00008908Y00006808D01*
X00008920Y00006938D01*
X00008919Y00006962D01*
X00008873Y00006969D01*
X00008851Y00006968D01*
X00008849Y00006968D01*
X00008827Y00006961D01*
X00008779Y00006939D01*
X00008690Y00006889D01*
X00008552Y00006805D01*
X00008365Y00006685D01*
X00008275Y00006627D01*
X00008037Y00006473D01*
X00008027Y00006332D01*
X00008027Y00006329D01*
X00008027Y00006325D01*
X00008027Y00006323D01*
X00008006Y00006099D01*
X00007999Y00006076D01*
X00008000Y00006053D01*
X00007970Y00005883D01*
X00007966Y00005865D01*
X00007959Y00005835D01*
X00007954Y00005818D01*
X00007916Y00005705D01*
X00008086Y00005698D01*
X00008089Y00005698D01*
X00008095Y00005698D01*
X00008098Y00005697D01*
X00008161Y00005693D01*
X00008162Y00005693D01*
X00008162Y00005693D01*
X00008395Y00005677D01*
X00007576Y00003837D02*
X00007712Y00003910D01*
X00007801Y00003958D01*
X00007801Y00003958D01*
X00007801Y00003958D01*
X00007802Y00003959D01*
X00007983Y00004056D01*
X00007983Y00004056D01*
X00007984Y00004057D01*
X00007985Y00004057D01*
X00008169Y00004154D01*
X00008170Y00004155D01*
X00008171Y00004156D01*
X00008171Y00004156D01*
X00008339Y00004243D01*
X00008340Y00004243D01*
X00008341Y00004244D01*
X00008342Y00004245D01*
X00008353Y00004250D01*
X00008353Y00004250D01*
X00008353Y00004250D01*
X00008353Y00004250D01*
X00008486Y00004318D01*
X00008488Y00004318D01*
X00008490Y00004319D01*
X00008491Y00004320D01*
X00008504Y00004326D01*
X00008811Y00004495D01*
X00009114Y00004699D01*
X00009409Y00004932D01*
X00009678Y00005178D01*
X00009758Y00005264D01*
X00009683Y00005202D01*
X00009673Y00005193D01*
X00009655Y00005180D01*
X00009644Y00005172D01*
X00009500Y00005078D01*
X00009495Y00005075D01*
X00009487Y00005070D01*
X00009482Y00005067D01*
X00009325Y00004975D01*
X00009325Y00004975D01*
X00009167Y00004882D01*
X00009008Y00004784D01*
X00008868Y00004694D01*
X00008803Y00004650D01*
X00008590Y00004499D01*
X00008511Y00004463D01*
X00008463Y00004460D01*
X00008423Y00004433D01*
X00008339Y00004413D01*
X00007905Y00004391D01*
X00007905Y00004391D01*
X00007904Y00004391D01*
X00007482Y00004370D01*
X00007481Y00004370D01*
X00007480Y00004370D01*
X00007116Y00004354D01*
X00007115Y00004354D01*
X00007113Y00004354D01*
X00006809Y00004343D01*
X00006807Y00004343D01*
X00006804Y00004343D01*
X00006562Y00004337D01*
X00006558Y00004337D01*
X00006554Y00004337D01*
X00006493Y00004336D01*
X00006586Y00004294D01*
X00006745Y00004224D01*
X00006746Y00004223D01*
X00006954Y00004132D01*
X00006955Y00004132D01*
X00006957Y00004131D01*
X00006959Y00004130D01*
X00007156Y00004041D01*
X00007157Y00004041D01*
X00007159Y00004040D01*
X00007161Y00004039D01*
X00007336Y00003957D01*
X00007337Y00003957D01*
X00007340Y00003955D01*
X00007342Y00003954D01*
X00007482Y00003886D01*
X00007484Y00003885D01*
X00007487Y00003884D01*
X00007489Y00003883D01*
X00007500Y00003877D01*
X00007502Y00003876D01*
X00007504Y00003875D01*
X00007505Y00003874D01*
X00007576Y00003837D01*
X00009055Y00003124D02*
X00009177Y00003135D01*
X00009634Y00003199D01*
X00009801Y00003232D01*
X00009803Y00003281D01*
X00009803Y00003287D01*
X00009804Y00003297D01*
X00009805Y00003303D01*
X00009818Y00003455D01*
X00009818Y00003459D01*
X00009819Y00003467D01*
X00009819Y00003472D01*
X00009828Y00003537D01*
X00009563Y00003374D01*
X00009555Y00003369D01*
X00009541Y00003361D01*
X00009532Y00003356D01*
X00009521Y00003351D01*
X00009519Y00003350D01*
X00009517Y00003349D01*
X00009515Y00003348D01*
X00009083Y00003136D01*
X00009078Y00003134D01*
X00009070Y00003130D01*
X00009065Y00003128D01*
X00009055Y00003124D01*
X00006115Y00003085D02*
X00006089Y00003096D01*
X00006088Y00003096D01*
X00006086Y00003097D01*
X00006085Y00003098D01*
X00005772Y00003229D01*
X00005767Y00003232D01*
X00005757Y00003236D01*
X00005752Y00003239D01*
X00005486Y00003368D01*
X00005483Y00003369D01*
X00005480Y00003370D01*
X00005478Y00003372D01*
X00005467Y00003377D01*
X00005461Y00003380D01*
X00005453Y00003385D01*
X00005447Y00003388D01*
X00005210Y00003524D01*
X00005202Y00003529D01*
X00005195Y00003534D01*
X00005197Y00003519D01*
X00005197Y00003518D01*
X00005198Y00003516D01*
X00005198Y00003514D01*
X00005200Y00003502D01*
X00005201Y00003497D01*
X00005202Y00003488D01*
X00005202Y00003483D01*
X00005221Y00003317D01*
X00005222Y00003313D01*
X00005222Y00003306D01*
X00005223Y00003302D01*
X00005226Y00003259D01*
X00005226Y00003257D01*
X00005227Y00003254D01*
X00005227Y00003253D01*
X00005231Y00003187D01*
X00005290Y00003175D01*
X00005734Y00003116D01*
X00006115Y00003085D01*
D12*
X00007017Y00014569D02*
X00007010Y00014570D01*
X00006999Y00014573D01*
X00006992Y00014574D01*
X00006973Y00014579D01*
X00006960Y00014583D01*
X00006938Y00014589D01*
X00006925Y00014594D01*
X00006907Y00014600D01*
X00006901Y00014602D01*
X00006890Y00014607D01*
X00006884Y00014609D01*
X00006669Y00014698D01*
X00006663Y00014701D01*
X00006652Y00014705D01*
X00006646Y00014708D01*
X00006628Y00014717D01*
X00006616Y00014723D01*
X00006596Y00014734D01*
X00006584Y00014740D01*
X00006568Y00014750D01*
X00006562Y00014754D01*
X00006552Y00014760D01*
X00006546Y00014764D01*
X00006353Y00014893D01*
X00006347Y00014897D01*
X00006338Y00014903D01*
X00006332Y00014907D01*
X00006317Y00014919D01*
X00006306Y00014927D01*
X00006288Y00014942D01*
X00006278Y00014951D01*
X00006264Y00014964D01*
X00006259Y00014968D01*
X00006250Y00014976D01*
X00006245Y00014981D01*
X00006236Y00014991D01*
X00006192Y00014914D01*
X00006189Y00014909D01*
X00006185Y00014901D01*
X00006182Y00014897D01*
X00006174Y00014883D01*
X00006171Y00014879D01*
X00006165Y00014871D01*
X00006162Y00014866D01*
X00006067Y00014725D01*
X00006064Y00014720D01*
X00006058Y00014713D01*
X00006055Y00014708D01*
X00006046Y00014696D01*
X00006042Y00014691D01*
X00006037Y00014684D01*
X00006033Y00014679D01*
X00005927Y00014546D01*
X00005923Y00014542D01*
X00005917Y00014535D01*
X00005914Y00014530D01*
X00005903Y00014519D01*
X00005900Y00014515D01*
X00005894Y00014508D01*
X00005890Y00014504D01*
X00005773Y00014379D01*
X00005769Y00014375D01*
X00005762Y00014368D01*
X00005759Y00014364D01*
X00005748Y00014354D01*
X00005744Y00014350D01*
X00005737Y00014343D01*
X00005733Y00014340D01*
X00005606Y00014225D01*
X00005602Y00014221D01*
X00005595Y00014215D01*
X00005591Y00014211D01*
X00005579Y00014201D01*
X00005575Y00014198D01*
X00005567Y00014192D01*
X00005563Y00014188D01*
X00005428Y00014084D01*
X00005424Y00014081D01*
X00005416Y00014075D01*
X00005412Y00014072D01*
X00005399Y00014063D01*
X00005395Y00014060D01*
X00005387Y00014054D01*
X00005382Y00014051D01*
X00005239Y00013958D01*
X00005234Y00013955D01*
X00005227Y00013950D01*
X00005222Y00013947D01*
X00005209Y00013939D01*
X00005204Y00013936D01*
X00005196Y00013932D01*
X00005191Y00013929D01*
X00005041Y00013847D01*
X00005036Y00013845D01*
X00005028Y00013840D01*
X00005023Y00013838D01*
X00005009Y00013831D01*
X00005004Y00013828D01*
X00004995Y00013824D01*
X00004991Y00013822D01*
X00004835Y00013752D01*
X00004834Y00013752D01*
X00004833Y00013752D01*
X00004833Y00013752D01*
X00004832Y00013751D01*
X00004831Y00013751D01*
X00004688Y00013688D01*
X00004552Y00013624D01*
X00004454Y00013576D01*
X00004457Y00013575D01*
X00004673Y00013531D01*
X00004681Y00013530D01*
X00004696Y00013526D01*
X00004704Y00013524D01*
X00004728Y00013518D01*
X00004736Y00013515D01*
X00004750Y00013511D01*
X00004758Y00013508D01*
X00005134Y00013381D01*
X00005144Y00013378D01*
X00005160Y00013372D01*
X00005169Y00013368D01*
X00005195Y00013357D01*
X00005205Y00013353D01*
X00005220Y00013346D01*
X00005229Y00013341D01*
X00005240Y00013336D01*
X00005241Y00013335D01*
X00005243Y00013334D01*
X00005245Y00013333D01*
X00005249Y00013331D01*
X00005250Y00013331D01*
X00005252Y00013330D01*
X00005253Y00013329D01*
X00005590Y00013149D01*
X00005601Y00013143D01*
X00005618Y00013132D01*
X00005628Y00013126D01*
X00005657Y00013108D01*
X00005667Y00013101D01*
X00005683Y00013089D01*
X00005693Y00013082D01*
X00005823Y00012980D01*
X00005823Y00012981D01*
X00005825Y00012983D01*
X00005829Y00012987D01*
X00005831Y00012989D01*
X00005932Y00013080D01*
X00005938Y00013086D01*
X00005950Y00013096D01*
X00005956Y00013101D01*
X00005976Y00013117D01*
X00005990Y00013127D01*
X00006014Y00013144D01*
X00006029Y00013154D01*
X00006050Y00013167D01*
X00006057Y00013171D01*
X00006070Y00013179D01*
X00006078Y00013183D01*
X00006185Y00013240D01*
X00006186Y00013240D01*
X00006187Y00013241D01*
X00006188Y00013241D01*
X00006191Y00013243D01*
X00006192Y00013243D01*
X00006194Y00013244D01*
X00006195Y00013244D01*
X00006206Y00013250D01*
X00006215Y00013255D01*
X00006232Y00013263D01*
X00006242Y00013267D01*
X00006271Y00013279D01*
X00006291Y00013286D01*
X00006326Y00013298D01*
X00006347Y00013304D01*
X00006377Y00013311D01*
X00006388Y00013313D01*
X00006406Y00013317D01*
X00006414Y00013318D01*
X00006447Y00013401D01*
X00006449Y00013407D01*
X00006454Y00013417D01*
X00006456Y00013423D01*
X00006464Y00013440D01*
X00006466Y00013446D01*
X00006471Y00013455D01*
X00006474Y00013461D01*
X00006480Y00013472D01*
X00006480Y00013473D01*
X00006480Y00013473D01*
X00006578Y00013665D01*
X00006583Y00013674D01*
X00006592Y00013689D01*
X00006597Y00013698D01*
X00006612Y00013723D01*
X00006617Y00013731D01*
X00006627Y00013746D01*
X00006633Y00013754D01*
X00006729Y00013889D01*
X00006736Y00013898D01*
X00006747Y00013913D01*
X00006754Y00013922D01*
X00006775Y00013946D01*
X00006782Y00013954D01*
X00006795Y00013969D01*
X00006803Y00013977D01*
X00006833Y00014006D01*
X00006833Y00014007D01*
X00006834Y00014008D01*
X00006834Y00014008D01*
X00006843Y00014016D01*
X00006849Y00014022D01*
X00006859Y00014032D01*
X00006865Y00014038D01*
X00006883Y00014053D01*
X00006889Y00014059D01*
X00006900Y00014068D01*
X00006907Y00014073D01*
X00006952Y00014109D01*
X00006973Y00014124D01*
X00006996Y00014137D01*
X00007074Y00014177D01*
X00007123Y00014197D01*
X00007155Y00014203D01*
X00007159Y00014205D01*
X00007176Y00014207D01*
X00007220Y00014230D01*
X00007269Y00014245D01*
X00007354Y00014262D01*
X00007380Y00014265D01*
X00007405Y00014267D01*
X00007442Y00014267D01*
X00007468Y00014266D01*
X00007494Y00014263D01*
X00007580Y00014247D01*
X00007630Y00014234D01*
X00007676Y00014211D01*
X00007678Y00014209D01*
X00007681Y00014209D01*
X00007732Y00014200D01*
X00007780Y00014181D01*
X00007859Y00014142D01*
X00007881Y00014129D01*
X00007903Y00014114D01*
X00007954Y00014075D01*
X00007960Y00014070D01*
X00007970Y00014062D01*
X00007975Y00014058D01*
X00007991Y00014045D01*
X00007996Y00014040D01*
X00008005Y00014032D01*
X00008010Y00014027D01*
X00008045Y00013994D01*
X00008047Y00013992D01*
X00008049Y00013990D01*
X00008051Y00013989D01*
X00008055Y00013985D01*
X00008056Y00013983D01*
X00008059Y00013981D01*
X00008060Y00013979D01*
X00008069Y00013971D01*
X00008074Y00013966D01*
X00008081Y00013958D01*
X00008086Y00013953D01*
X00008099Y00013939D01*
X00008103Y00013934D01*
X00008110Y00013925D01*
X00008115Y00013920D01*
X00008210Y00013805D01*
X00008216Y00013797D01*
X00008227Y00013783D01*
X00008233Y00013775D01*
X00008250Y00013751D01*
X00008255Y00013742D01*
X00008265Y00013728D01*
X00008270Y00013719D01*
X00008362Y00013565D01*
X00008365Y00013561D01*
X00008369Y00013554D01*
X00008371Y00013550D01*
X00008378Y00013538D01*
X00008380Y00013534D01*
X00008384Y00013527D01*
X00008386Y00013523D01*
X00008392Y00013512D01*
X00008393Y00013510D01*
X00008395Y00013506D01*
X00008396Y00013504D01*
X00008399Y00013497D01*
X00008400Y00013495D01*
X00008401Y00013492D01*
X00008402Y00013489D01*
X00008461Y00013365D01*
X00008465Y00013365D01*
X00008470Y00013364D01*
X00008487Y00013362D01*
X00008492Y00013361D01*
X00008502Y00013360D01*
X00008508Y00013359D01*
X00008520Y00013357D01*
X00008531Y00013355D01*
X00008549Y00013352D01*
X00008559Y00013350D01*
X00008588Y00013343D01*
X00008609Y00013337D01*
X00008644Y00013326D01*
X00008664Y00013318D01*
X00008692Y00013307D01*
X00008702Y00013303D01*
X00008718Y00013295D01*
X00008728Y00013291D01*
X00008871Y00013219D01*
X00008871Y00013218D01*
X00008872Y00013218D01*
X00008873Y00013218D01*
X00008873Y00013217D01*
X00008874Y00013217D01*
X00008874Y00013217D01*
X00008885Y00013211D01*
X00008895Y00013206D01*
X00008911Y00013197D01*
X00008920Y00013192D01*
X00008947Y00013175D01*
X00008965Y00013163D01*
X00008995Y00013142D01*
X00009011Y00013128D01*
X00009035Y00013108D01*
X00009043Y00013101D01*
X00009057Y00013088D01*
X00009064Y00013081D01*
X00009073Y00013072D01*
X00009076Y00013069D01*
X00009082Y00013063D01*
X00009085Y00013060D01*
X00009094Y00013050D01*
X00009098Y00013047D01*
X00009103Y00013041D01*
X00009106Y00013037D01*
X00009124Y00013016D01*
X00009174Y00013059D01*
X00009183Y00013066D01*
X00009198Y00013078D01*
X00009207Y00013085D01*
X00009233Y00013104D01*
X00009243Y00013110D01*
X00009259Y00013121D01*
X00009268Y00013127D01*
X00009592Y00013322D01*
X00009596Y00013325D01*
X00009603Y00013329D01*
X00009608Y00013332D01*
X00009620Y00013339D01*
X00009625Y00013341D01*
X00009632Y00013345D01*
X00009637Y00013347D01*
X00009648Y00013353D01*
X00009653Y00013356D01*
X00009663Y00013360D01*
X00009669Y00013363D01*
X00009686Y00013371D01*
X00009692Y00013373D01*
X00009702Y00013378D01*
X00009708Y00013380D01*
X00010063Y00013521D01*
X00010074Y00013525D01*
X00010092Y00013531D01*
X00010103Y00013535D01*
X00010134Y00013544D01*
X00010145Y00013547D01*
X00010163Y00013552D01*
X00010174Y00013555D01*
X00010461Y00013617D01*
X00010447Y00013624D01*
X00010311Y00013688D01*
X00010168Y00013751D01*
X00010167Y00013752D01*
X00010164Y00013752D01*
X00010008Y00013822D01*
X00010004Y00013824D01*
X00009995Y00013828D01*
X00009990Y00013831D01*
X00009976Y00013838D01*
X00009971Y00013840D01*
X00009963Y00013844D01*
X00009958Y00013847D01*
X00009808Y00013929D01*
X00009803Y00013932D01*
X00009795Y00013936D01*
X00009790Y00013939D01*
X00009777Y00013947D01*
X00009772Y00013950D01*
X00009764Y00013955D01*
X00009760Y00013958D01*
X00009617Y00014051D01*
X00009612Y00014054D01*
X00009604Y00014060D01*
X00009600Y00014063D01*
X00009587Y00014072D01*
X00009583Y00014075D01*
X00009575Y00014081D01*
X00009571Y00014084D01*
X00009436Y00014188D01*
X00009431Y00014192D01*
X00009424Y00014198D01*
X00009420Y00014201D01*
X00009408Y00014211D01*
X00009404Y00014215D01*
X00009397Y00014221D01*
X00009393Y00014225D01*
X00009266Y00014340D01*
X00009262Y00014343D01*
X00009255Y00014350D01*
X00009252Y00014353D01*
X00009240Y00014364D01*
X00009236Y00014368D01*
X00009230Y00014375D01*
X00009226Y00014379D01*
X00009109Y00014504D01*
X00009106Y00014507D01*
X00009099Y00014514D01*
X00009096Y00014519D01*
X00009085Y00014530D01*
X00009082Y00014535D01*
X00009076Y00014542D01*
X00009072Y00014546D01*
X00008966Y00014679D01*
X00008962Y00014684D01*
X00008957Y00014691D01*
X00008953Y00014696D01*
X00008944Y00014708D01*
X00008941Y00014713D01*
X00008935Y00014720D01*
X00008932Y00014725D01*
X00008837Y00014866D01*
X00008833Y00014871D01*
X00008828Y00014879D01*
X00008825Y00014883D01*
X00008817Y00014897D01*
X00008814Y00014901D01*
X00008810Y00014909D01*
X00008807Y00014914D01*
X00008763Y00014991D01*
X00008753Y00014981D01*
X00008749Y00014976D01*
X00008740Y00014968D01*
X00008735Y00014964D01*
X00008721Y00014951D01*
X00008711Y00014942D01*
X00008693Y00014927D01*
X00008682Y00014919D01*
X00008667Y00014907D01*
X00008661Y00014903D01*
X00008652Y00014897D01*
X00008646Y00014893D01*
X00008453Y00014764D01*
X00008447Y00014760D01*
X00008437Y00014754D01*
X00008432Y00014750D01*
X00008415Y00014740D01*
X00008403Y00014734D01*
X00008383Y00014723D01*
X00008371Y00014717D01*
X00008353Y00014708D01*
X00008347Y00014705D01*
X00008336Y00014701D01*
X00008330Y00014698D01*
X00008115Y00014609D01*
X00008109Y00014607D01*
X00008098Y00014602D01*
X00008092Y00014600D01*
X00008074Y00014594D01*
X00008061Y00014589D01*
X00008039Y00014583D01*
X00008025Y00014579D01*
X00008007Y00014574D01*
X00008000Y00014573D01*
X00007989Y00014570D01*
X00007982Y00014569D01*
X00007906Y00014554D01*
X00007906Y00014554D01*
X00007754Y00014523D01*
X00007747Y00014522D01*
X00007736Y00014520D01*
X00007729Y00014519D01*
X00007710Y00014516D01*
X00007697Y00014515D01*
X00007674Y00014512D01*
X00007660Y00014511D01*
X00007641Y00014510D01*
X00007634Y00014510D01*
X00007623Y00014510D01*
X00007616Y00014510D01*
X00007383Y00014510D01*
X00007376Y00014510D01*
X00007365Y00014510D01*
X00007358Y00014510D01*
X00007339Y00014511D01*
X00007325Y00014512D01*
X00007302Y00014515D01*
X00007289Y00014516D01*
X00007270Y00014519D01*
X00007263Y00014520D01*
X00007252Y00014522D01*
X00007245Y00014523D01*
X00007093Y00014554D01*
X00007093Y00014554D01*
X00007017Y00014569D01*
X00001766Y00011149D02*
X00001807Y00011195D01*
X00001887Y00011296D01*
X00001887Y00011296D01*
X00001889Y00011299D01*
X00001892Y00011303D01*
X00001894Y00011306D01*
X00001899Y00011313D01*
X00001901Y00011315D01*
X00001904Y00011320D01*
X00001906Y00011322D01*
X00002016Y00011466D01*
X00002021Y00011473D01*
X00002031Y00011485D01*
X00002037Y00011492D01*
X00002054Y00011512D01*
X00002060Y00011519D01*
X00002071Y00011530D01*
X00002078Y00011537D01*
X00002086Y00011546D01*
X00002089Y00011548D01*
X00002094Y00011553D01*
X00002096Y00011555D01*
X00002104Y00011563D01*
X00002107Y00011565D01*
X00002112Y00011570D01*
X00002115Y00011572D01*
X00002225Y00011671D01*
X00002231Y00011677D01*
X00002242Y00011686D01*
X00002248Y00011691D01*
X00002267Y00011706D01*
X00002280Y00011716D01*
X00002303Y00011732D01*
X00002317Y00011741D01*
X00002337Y00011753D01*
X00002344Y00011758D01*
X00002357Y00011765D01*
X00002364Y00011769D01*
X00002371Y00011773D01*
X00002371Y00011795D01*
X00002371Y00011795D01*
X00002371Y00011797D01*
X00002371Y00011799D01*
X00002371Y00011802D01*
X00002371Y00011803D01*
X00002371Y00011805D01*
X00002371Y00011806D01*
X00002372Y00011870D01*
X00002372Y00011873D01*
X00002372Y00011877D01*
X00002372Y00011880D01*
X00002372Y00011888D01*
X00002372Y00011891D01*
X00002372Y00011896D01*
X00002372Y00011898D01*
X00002375Y00011965D01*
X00002321Y00011902D01*
X00002226Y00011787D01*
X00002132Y00011670D01*
X00002042Y00011551D01*
X00001954Y00011430D01*
X00001869Y00011307D01*
X00001787Y00011183D01*
X00001766Y00011149D01*
X00012860Y00011679D02*
X00012774Y00011787D01*
X00012678Y00011902D01*
X00012628Y00011960D01*
X00012629Y00011920D01*
X00012629Y00011919D01*
X00012629Y00011915D01*
X00012629Y00011914D01*
X00012629Y00011908D01*
X00012629Y00011907D01*
X00012629Y00011903D01*
X00012629Y00011902D01*
X00012629Y00011852D01*
X00012788Y00011738D01*
X00012797Y00011732D01*
X00012812Y00011720D01*
X00012821Y00011712D01*
X00012846Y00011691D01*
X00012854Y00011684D01*
X00012860Y00011679D01*
X00013971Y00009577D02*
X00013928Y00009708D01*
X00013882Y00009835D01*
X00013877Y00009827D01*
X00013873Y00009822D01*
X00013871Y00009820D01*
X00013875Y00009805D01*
X00013877Y00009794D01*
X00013881Y00009776D01*
X00013883Y00009766D01*
X00013885Y00009753D01*
X00013885Y00009749D01*
X00013887Y00009741D01*
X00013887Y00009736D01*
X00013889Y00009722D01*
X00013889Y00009717D01*
X00013890Y00009709D01*
X00013891Y00009704D01*
X00013898Y00009621D01*
X00013927Y00009606D01*
X00013950Y00009592D01*
X00013971Y00009577D01*
X00000975Y00009404D02*
X00000989Y00009415D01*
X00000991Y00009419D01*
X00001005Y00009432D01*
X00001011Y00009437D01*
X00001021Y00009445D01*
X00001027Y00009450D01*
X00001027Y00009450D01*
X00001032Y00009454D01*
X00001042Y00009461D01*
X00001048Y00009466D01*
X00001064Y00009477D01*
X00001075Y00009485D01*
X00001096Y00009498D01*
X00001101Y00009501D01*
X00001101Y00009515D01*
X00001101Y00009537D01*
X00001104Y00009567D01*
X00001105Y00009578D01*
X00001107Y00009597D01*
X00001109Y00009607D01*
X00001110Y00009619D01*
X00001112Y00009630D01*
X00001116Y00009649D01*
X00001119Y00009660D01*
X00001126Y00009691D01*
X00001129Y00009701D01*
X00001134Y00009720D01*
X00001137Y00009730D01*
X00001142Y00009745D01*
X00001136Y00009755D01*
X00001122Y00009779D01*
X00001117Y00009787D01*
X00001109Y00009801D01*
X00001106Y00009806D01*
X00001071Y00009708D01*
X00001024Y00009566D01*
X00000980Y00009423D01*
X00000975Y00009404D01*
X00010484Y00007430D02*
X00010567Y00007738D01*
X00010657Y00008149D01*
X00010717Y00008530D01*
X00010733Y00008694D01*
X00010733Y00008694D01*
X00010724Y00008692D01*
X00010316Y00008613D01*
X00010292Y00008609D01*
X00010267Y00008608D01*
X00010264Y00008607D01*
X00010259Y00008606D01*
X00010234Y00008601D01*
X00010209Y00008599D01*
X00009807Y00008576D01*
X00009809Y00008571D01*
X00009811Y00008564D01*
X00009815Y00008552D01*
X00009817Y00008545D01*
X00009823Y00008524D01*
X00009825Y00008517D01*
X00009828Y00008505D01*
X00009829Y00008497D01*
X00009848Y00008412D01*
X00009853Y00008387D01*
X00009855Y00008362D01*
X00009855Y00008342D01*
X00009860Y00008320D01*
X00009864Y00008295D01*
X00009866Y00008270D01*
X00009869Y00008192D01*
X00009869Y00008185D01*
X00009869Y00008174D01*
X00009869Y00008168D01*
X00009869Y00008149D01*
X00009868Y00008136D01*
X00009867Y00008114D01*
X00009866Y00008101D01*
X00009864Y00008083D01*
X00009863Y00008077D01*
X00009862Y00008072D01*
X00009962Y00008017D01*
X00009970Y00008012D01*
X00009983Y00008005D01*
X00009991Y00008000D01*
X00010012Y00007986D01*
X00010027Y00007976D01*
X00010052Y00007958D01*
X00010066Y00007947D01*
X00010086Y00007930D01*
X00010093Y00007924D01*
X00010104Y00007914D01*
X00010111Y00007908D01*
X00010258Y00007767D01*
X00010260Y00007766D01*
X00010261Y00007764D01*
X00010262Y00007763D01*
X00010265Y00007760D01*
X00010266Y00007759D01*
X00010268Y00007757D01*
X00010269Y00007756D01*
X00010278Y00007747D01*
X00010285Y00007740D01*
X00010297Y00007728D01*
X00010303Y00007720D01*
X00010322Y00007699D01*
X00010334Y00007683D01*
X00010355Y00007656D01*
X00010366Y00007640D01*
X00010381Y00007616D01*
X00010386Y00007608D01*
X00010395Y00007593D01*
X00010400Y00007584D01*
X00010483Y00007432D01*
X00010484Y00007431D01*
X00010484Y00007430D01*
X00005315Y00005580D02*
X00005322Y00005659D01*
X00005332Y00005810D01*
X00005333Y00005824D01*
X00005331Y00005825D01*
X00005328Y00005826D01*
X00005317Y00005832D01*
X00005307Y00005837D01*
X00005291Y00005846D01*
X00005282Y00005852D01*
X00005255Y00005868D01*
X00005237Y00005880D01*
X00005207Y00005902D01*
X00005190Y00005915D01*
X00005167Y00005935D01*
X00005159Y00005942D01*
X00005145Y00005955D01*
X00005137Y00005962D01*
X00005128Y00005971D01*
X00005121Y00005979D01*
X00005108Y00005993D01*
X00005101Y00006001D01*
X00005081Y00006024D01*
X00005068Y00006041D01*
X00005046Y00006071D01*
X00005034Y00006089D01*
X00005018Y00006116D01*
X00005012Y00006125D01*
X00005003Y00006141D01*
X00004998Y00006151D01*
X00004993Y00006162D01*
X00004988Y00006171D01*
X00004980Y00006188D01*
X00004976Y00006198D01*
X00004964Y00006227D01*
X00004956Y00006247D01*
X00004945Y00006282D01*
X00004939Y00006303D01*
X00004932Y00006333D01*
X00004930Y00006343D01*
X00004926Y00006362D01*
X00004924Y00006372D01*
X00004922Y00006384D01*
X00004921Y00006391D01*
X00004920Y00006403D01*
X00004919Y00006410D01*
X00004917Y00006430D01*
X00004916Y00006437D01*
X00004915Y00006449D01*
X00004915Y00006456D01*
X00004911Y00006517D01*
X00004911Y00006525D01*
X00004911Y00006537D01*
X00004910Y00006544D01*
X00004910Y00006565D01*
X00004911Y00006580D01*
X00004912Y00006605D01*
X00004913Y00006620D01*
X00004915Y00006640D01*
X00004916Y00006648D01*
X00004918Y00006660D01*
X00004919Y00006667D01*
X00004921Y00006679D01*
X00004922Y00006687D01*
X00004925Y00006701D01*
X00004926Y00006709D01*
X00004931Y00006731D01*
X00004933Y00006739D01*
X00004936Y00006752D01*
X00004938Y00006760D01*
X00004953Y00006812D01*
X00004961Y00006837D01*
X00004972Y00006861D01*
X00004989Y00006895D01*
X00004999Y00006925D01*
X00005007Y00006948D01*
X00005018Y00006970D01*
X00005104Y00007128D01*
X00005109Y00007137D01*
X00005118Y00007152D01*
X00005123Y00007160D01*
X00005138Y00007184D01*
X00005149Y00007200D01*
X00005170Y00007227D01*
X00005182Y00007243D01*
X00005201Y00007264D01*
X00005207Y00007272D01*
X00005219Y00007284D01*
X00005226Y00007291D01*
X00005234Y00007300D01*
X00005236Y00007302D01*
X00005239Y00007304D01*
X00005241Y00007306D01*
X00005246Y00007311D01*
X00005248Y00007313D01*
X00005251Y00007316D01*
X00005253Y00007318D01*
X00005387Y00007442D01*
X00005392Y00007447D01*
X00005402Y00007456D01*
X00005403Y00007456D01*
X00005416Y00007537D01*
X00005416Y00007539D01*
X00005417Y00007541D01*
X00005417Y00007542D01*
X00005418Y00007546D01*
X00005418Y00007547D01*
X00005418Y00007549D01*
X00005418Y00007550D01*
X00005438Y00007655D01*
X00005384Y00007652D01*
X00005357Y00007652D01*
X00005331Y00007654D01*
X00005316Y00007656D01*
X00005303Y00007655D01*
X00005277Y00007655D01*
X00005250Y00007657D01*
X00005190Y00007664D01*
X00005187Y00007665D01*
X00005184Y00007665D01*
X00005182Y00007665D01*
X00005177Y00007666D01*
X00005175Y00007667D01*
X00005171Y00007667D01*
X00005169Y00007667D01*
X00005157Y00007669D01*
X00005146Y00007671D01*
X00005128Y00007675D01*
X00005118Y00007677D01*
X00005088Y00007684D01*
X00005067Y00007690D01*
X00005032Y00007702D01*
X00005011Y00007709D01*
X00004983Y00007721D01*
X00004973Y00007725D01*
X00004956Y00007733D01*
X00004946Y00007738D01*
X00004935Y00007743D01*
X00004926Y00007748D01*
X00004910Y00007757D01*
X00004901Y00007763D01*
X00004875Y00007778D01*
X00004858Y00007790D01*
X00004828Y00007811D01*
X00004812Y00007824D01*
X00004789Y00007844D01*
X00004781Y00007851D01*
X00004767Y00007863D01*
X00004760Y00007870D01*
X00004746Y00007884D01*
X00004729Y00007902D01*
X00004714Y00007921D01*
X00004695Y00007948D01*
X00004690Y00007951D01*
X00004657Y00007997D01*
X00004645Y00008015D01*
X00004626Y00008046D01*
X00004615Y00008065D01*
X00004611Y00008073D01*
X00004607Y00008083D01*
X00004599Y00008100D01*
X00004594Y00008110D01*
X00004583Y00008138D01*
X00004575Y00008158D01*
X00004564Y00008193D01*
X00004558Y00008214D01*
X00004551Y00008244D01*
X00004548Y00008255D01*
X00004545Y00008273D01*
X00004543Y00008283D01*
X00004541Y00008296D01*
X00004539Y00008306D01*
X00004537Y00008325D01*
X00004536Y00008336D01*
X00004534Y00008366D01*
X00004533Y00008388D01*
X00004533Y00008425D01*
X00004534Y00008447D01*
X00004535Y00008464D01*
X00004532Y00008488D01*
X00004536Y00008540D01*
X00004537Y00008547D01*
X00004444Y00008561D01*
X00004420Y00008565D01*
X00004415Y00008567D01*
X00004407Y00008567D01*
X00004383Y00008571D01*
X00004260Y00008598D01*
X00004264Y00008541D01*
X00004344Y00008004D01*
X00004470Y00007468D01*
X00004646Y00006917D01*
X00004821Y00006474D01*
X00004997Y00006092D01*
X00005177Y00005776D01*
X00005315Y00005580D01*
X00014280Y00007968D02*
X00014270Y00008104D01*
X00014255Y00008253D01*
X00014237Y00008401D01*
X00014223Y00008496D01*
X00014219Y00008487D01*
X00014185Y00008421D01*
X00014189Y00008404D01*
X00014190Y00008394D01*
X00014192Y00008381D01*
X00014194Y00008372D01*
X00014196Y00008355D01*
X00014197Y00008346D01*
X00014199Y00008319D01*
X00014200Y00008309D01*
X00014201Y00008292D01*
X00014201Y00008283D01*
X00014203Y00008157D01*
X00014203Y00008151D01*
X00014203Y00008141D01*
X00014203Y00008134D01*
X00014203Y00008117D01*
X00014202Y00008105D01*
X00014201Y00008085D01*
X00014199Y00008073D01*
X00014197Y00008056D01*
X00014197Y00008050D01*
X00014195Y00008039D01*
X00014194Y00008034D01*
X00014193Y00008021D01*
X00014192Y00008020D01*
X00014194Y00008019D01*
X00014205Y00008013D01*
X00014215Y00008008D01*
X00014231Y00007999D01*
X00014240Y00007993D01*
X00014267Y00007977D01*
X00014280Y00007968D01*
X00000709Y00007793D02*
X00000712Y00007796D01*
X00000742Y00007818D01*
X00000760Y00007830D01*
X00000786Y00007846D01*
X00000796Y00007851D01*
X00000812Y00007860D01*
X00000821Y00007865D01*
X00000829Y00007869D01*
X00000829Y00007870D01*
X00000828Y00007876D01*
X00000826Y00007896D01*
X00000826Y00007902D01*
X00000825Y00007914D01*
X00000824Y00007920D01*
X00000820Y00007995D01*
X00000820Y00007998D01*
X00000819Y00008004D01*
X00000819Y00008007D01*
X00000819Y00008017D01*
X00000819Y00008020D01*
X00000819Y00008025D01*
X00000819Y00008029D01*
X00000818Y00008064D01*
X00000818Y00008075D01*
X00000819Y00008094D01*
X00000819Y00008105D01*
X00000822Y00008137D01*
X00000823Y00008148D01*
X00000825Y00008167D01*
X00000826Y00008178D01*
X00000842Y00008282D01*
X00000839Y00008287D01*
X00000837Y00008290D01*
X00000833Y00008296D01*
X00000831Y00008300D01*
X00000826Y00008310D01*
X00000824Y00008313D01*
X00000821Y00008319D01*
X00000819Y00008323D01*
X00000814Y00008334D01*
X00000810Y00008341D01*
X00000804Y00008353D01*
X00000801Y00008360D01*
X00000792Y00008380D01*
X00000789Y00008387D01*
X00000784Y00008399D01*
X00000782Y00008406D01*
X00000768Y00008441D01*
X00000762Y00008401D01*
X00000744Y00008253D01*
X00000729Y00008104D01*
X00000718Y00007955D01*
X00000709Y00007806D01*
X00000709Y00007793D01*
X00014240Y00006632D02*
X00014239Y00006631D01*
X00014239Y00006631D01*
X00014230Y00006622D01*
X00014229Y00006620D01*
X00014226Y00006618D01*
X00014225Y00006617D01*
X00014221Y00006613D01*
X00014219Y00006611D01*
X00014217Y00006609D01*
X00014215Y00006607D01*
X00014097Y00006496D01*
X00014095Y00006495D01*
X00014093Y00006492D01*
X00014091Y00006491D01*
X00014087Y00006487D01*
X00014085Y00006485D01*
X00014083Y00006483D01*
X00014081Y00006482D01*
X00013944Y00006360D01*
X00013943Y00006359D01*
X00013941Y00006357D01*
X00013940Y00006356D01*
X00013936Y00006353D01*
X00013934Y00006352D01*
X00013932Y00006350D01*
X00013931Y00006348D01*
X00013782Y00006223D01*
X00013781Y00006222D01*
X00013779Y00006220D01*
X00013778Y00006219D01*
X00013774Y00006216D01*
X00013772Y00006215D01*
X00013770Y00006213D01*
X00013769Y00006212D01*
X00013618Y00006091D01*
X00013616Y00006090D01*
X00013613Y00006088D01*
X00013612Y00006086D01*
X00013607Y00006083D01*
X00013606Y00006082D01*
X00013603Y00006079D01*
X00013601Y00006078D01*
X00013456Y00005969D01*
X00013454Y00005967D01*
X00013450Y00005965D01*
X00013448Y00005963D01*
X00013442Y00005959D01*
X00013440Y00005957D01*
X00013436Y00005954D01*
X00013434Y00005953D01*
X00013403Y00005932D01*
X00013460Y00005827D01*
X00013460Y00005826D01*
X00013461Y00005823D01*
X00013462Y00005822D01*
X00013464Y00005818D01*
X00013465Y00005817D01*
X00013466Y00005814D01*
X00013472Y00005803D01*
X00013472Y00005803D01*
X00013472Y00005803D01*
X00013473Y00005802D01*
X00013473Y00005800D01*
X00013474Y00005800D01*
X00013547Y00005654D01*
X00013548Y00005652D01*
X00013550Y00005648D01*
X00013551Y00005646D01*
X00013554Y00005640D01*
X00013555Y00005638D01*
X00013556Y00005634D01*
X00013557Y00005633D01*
X00013616Y00005507D01*
X00013617Y00005503D01*
X00013620Y00005497D01*
X00013622Y00005493D01*
X00013626Y00005482D01*
X00013628Y00005478D01*
X00013631Y00005472D01*
X00013632Y00005468D01*
X00013660Y00005396D01*
X00013663Y00005389D01*
X00013667Y00005377D01*
X00013670Y00005370D01*
X00013676Y00005350D01*
X00013681Y00005336D01*
X00013688Y00005311D01*
X00013691Y00005296D01*
X00013696Y00005275D01*
X00013697Y00005268D01*
X00013699Y00005256D01*
X00013701Y00005248D01*
X00013703Y00005236D01*
X00013703Y00005234D01*
X00013703Y00005232D01*
X00013703Y00005231D01*
X00013704Y00005227D01*
X00013704Y00005226D01*
X00013704Y00005224D01*
X00013705Y00005222D01*
X00013722Y00005097D01*
X00013724Y00005070D01*
X00013724Y00005043D01*
X00013719Y00004952D01*
X00013717Y00004941D01*
X00013717Y00004932D01*
X00013710Y00004846D01*
X00013706Y00004820D01*
X00013701Y00004796D01*
X00013665Y00004671D01*
X00013657Y00004646D01*
X00013647Y00004622D01*
X00013615Y00004557D01*
X00013587Y00004495D01*
X00013576Y00004473D01*
X00013563Y00004451D01*
X00013471Y00004317D01*
X00013465Y00004308D01*
X00013453Y00004293D01*
X00013446Y00004284D01*
X00013426Y00004259D01*
X00013419Y00004250D01*
X00013406Y00004236D01*
X00013398Y00004228D01*
X00013306Y00004131D01*
X00013288Y00004114D01*
X00013276Y00004104D01*
X00013263Y00004090D01*
X00013245Y00004073D01*
X00013165Y00004004D01*
X00013161Y00004002D01*
X00013156Y00003997D01*
X00013153Y00003994D01*
X00013143Y00003987D01*
X00013140Y00003984D01*
X00013134Y00003980D01*
X00013131Y00003977D01*
X00013022Y00003895D01*
X00013020Y00003894D01*
X00013017Y00003891D01*
X00013015Y00003890D01*
X00013009Y00003886D01*
X00013007Y00003884D01*
X00013004Y00003882D01*
X00013002Y00003880D01*
X00012878Y00003794D01*
X00012876Y00003792D01*
X00012873Y00003790D01*
X00012872Y00003789D01*
X00012867Y00003786D01*
X00012865Y00003785D01*
X00012862Y00003783D01*
X00012861Y00003782D01*
X00012736Y00003700D01*
X00012734Y00003699D01*
X00012730Y00003696D01*
X00012728Y00003695D01*
X00012723Y00003692D01*
X00012721Y00003690D01*
X00012717Y00003688D01*
X00012715Y00003687D01*
X00012604Y00003619D01*
X00012600Y00003617D01*
X00012594Y00003613D01*
X00012590Y00003611D01*
X00012580Y00003605D01*
X00012576Y00003603D01*
X00012570Y00003600D01*
X00012566Y00003598D01*
X00012482Y00003553D01*
X00012481Y00003553D01*
X00012480Y00003552D01*
X00012479Y00003552D01*
X00012476Y00003550D01*
X00012476Y00003550D01*
X00012474Y00003549D01*
X00012473Y00003548D01*
X00012462Y00003543D01*
X00012452Y00003538D01*
X00012435Y00003530D01*
X00012425Y00003526D01*
X00012396Y00003514D01*
X00012386Y00003510D01*
X00012369Y00003504D01*
X00012358Y00003500D01*
X00012331Y00003491D01*
X00012314Y00003482D01*
X00012219Y00003425D01*
X00012105Y00003352D01*
X00011991Y00003274D01*
X00011958Y00003251D01*
X00011959Y00003248D01*
X00011962Y00003236D01*
X00011966Y00003216D01*
X00011968Y00003205D01*
X00011970Y00003192D01*
X00011970Y00003192D01*
X00011970Y00003191D01*
X00011970Y00003190D01*
X00011970Y00003188D01*
X00011970Y00003187D01*
X00011970Y00003187D01*
X00011971Y00003187D01*
X00011989Y00003063D01*
X00011990Y00003058D01*
X00011991Y00003048D01*
X00011992Y00003043D01*
X00011993Y00003027D01*
X00011994Y00003022D01*
X00011995Y00003013D01*
X00011995Y00003007D01*
X00012006Y00002853D01*
X00012006Y00002849D01*
X00012007Y00002843D01*
X00012007Y00002840D01*
X00012007Y00002829D01*
X00012007Y00002826D01*
X00012008Y00002820D01*
X00012008Y00002816D01*
X00012011Y00002647D01*
X00012011Y00002644D01*
X00012011Y00002638D01*
X00012011Y00002635D01*
X00012011Y00002627D01*
X00012011Y00002624D01*
X00012011Y00002618D01*
X00012011Y00002615D01*
X00012006Y00002447D01*
X00012006Y00002443D01*
X00012006Y00002437D01*
X00012006Y00002434D01*
X00012005Y00002424D01*
X00012005Y00002420D01*
X00012005Y00002414D01*
X00012004Y00002410D01*
X00012004Y00002410D01*
X00012065Y00002464D01*
X00012174Y00002566D01*
X00012282Y00002670D01*
X00012387Y00002776D01*
X00012489Y00002884D01*
X00012590Y00002995D01*
X00012688Y00003108D01*
X00012783Y00003223D01*
X00012876Y00003340D01*
X00012966Y00003460D01*
X00013053Y00003581D01*
X00013138Y00003704D01*
X00013220Y00003829D01*
X00013299Y00003955D01*
X00013376Y00004084D01*
X00013449Y00004213D01*
X00013520Y00004345D01*
X00013588Y00004478D01*
X00013653Y00004613D01*
X00013715Y00004749D01*
X00013774Y00004887D01*
X00013830Y00005025D01*
X00013883Y00005164D01*
X00013933Y00005306D01*
X00013979Y00005448D01*
X00014023Y00005590D01*
X00014063Y00005734D01*
X00014101Y00005879D01*
X00014135Y00006024D01*
X00014165Y00006171D01*
X00014193Y00006318D01*
X00014217Y00006465D01*
X00014238Y00006613D01*
X00014241Y00006633D01*
X00014240Y00006632D01*
X00002739Y00003434D02*
X00002739Y00003435D01*
X00002474Y00003575D01*
X00002473Y00003576D01*
X00002471Y00003577D01*
X00002470Y00003577D01*
X00002467Y00003579D01*
X00002466Y00003579D01*
X00002464Y00003580D01*
X00002463Y00003581D01*
X00002253Y00003698D01*
X00002250Y00003699D01*
X00002246Y00003702D01*
X00002244Y00003703D01*
X00002238Y00003707D01*
X00002235Y00003708D01*
X00002231Y00003710D01*
X00002229Y00003712D01*
X00002067Y00003810D01*
X00002063Y00003813D01*
X00002055Y00003817D01*
X00002051Y00003820D01*
X00002039Y00003828D01*
X00002035Y00003831D01*
X00002028Y00003836D01*
X00002024Y00003839D01*
X00001903Y00003924D01*
X00001896Y00003930D01*
X00001884Y00003939D01*
X00001877Y00003944D01*
X00001858Y00003960D01*
X00001851Y00003966D01*
X00001840Y00003976D01*
X00001833Y00003981D01*
X00001748Y00004060D01*
X00001747Y00004061D01*
X00001743Y00004065D01*
X00001741Y00004067D01*
X00001736Y00004072D01*
X00001734Y00004074D01*
X00001730Y00004077D01*
X00001729Y00004079D01*
X00001720Y00004087D01*
X00001712Y00004096D01*
X00001699Y00004110D01*
X00001692Y00004118D01*
X00001671Y00004143D01*
X00001664Y00004151D01*
X00001652Y00004166D01*
X00001645Y00004175D01*
X00001591Y00004251D01*
X00001577Y00004273D01*
X00001565Y00004296D01*
X00001545Y00004337D01*
X00001522Y00004375D01*
X00001510Y00004397D01*
X00001500Y00004420D01*
X00001469Y00004499D01*
X00001461Y00004524D01*
X00001455Y00004549D01*
X00001448Y00004587D01*
X00001438Y00004617D01*
X00001432Y00004640D01*
X00001427Y00004664D01*
X00001414Y00004752D01*
X00001413Y00004761D01*
X00001411Y00004776D01*
X00001410Y00004784D01*
X00001408Y00004809D01*
X00001408Y00004818D01*
X00001407Y00004833D01*
X00001407Y00004841D01*
X00001405Y00004922D01*
X00001405Y00004928D01*
X00001405Y00004938D01*
X00001405Y00004943D01*
X00001405Y00004960D01*
X00001406Y00004965D01*
X00001406Y00004975D01*
X00001406Y00004981D01*
X00001413Y00005094D01*
X00001414Y00005100D01*
X00001415Y00005112D01*
X00001415Y00005118D01*
X00001417Y00005137D01*
X00001418Y00005143D01*
X00001420Y00005154D01*
X00001421Y00005161D01*
X00001423Y00005173D01*
X00001423Y00005177D01*
X00001424Y00005183D01*
X00001425Y00005187D01*
X00001427Y00005198D01*
X00001428Y00005202D01*
X00001429Y00005208D01*
X00001430Y00005212D01*
X00001452Y00005315D01*
X00001455Y00005326D01*
X00001459Y00005343D01*
X00001462Y00005353D01*
X00001471Y00005382D01*
X00001474Y00005393D01*
X00001480Y00005410D01*
X00001484Y00005420D01*
X00001528Y00005535D01*
X00001530Y00005540D01*
X00001534Y00005550D01*
X00001536Y00005555D01*
X00001543Y00005571D01*
X00001545Y00005576D01*
X00001550Y00005585D01*
X00001552Y00005590D01*
X00001621Y00005732D01*
X00001621Y00005733D01*
X00001622Y00005735D01*
X00001623Y00005736D01*
X00001625Y00005739D01*
X00001625Y00005741D01*
X00001626Y00005743D01*
X00001627Y00005744D01*
X00001633Y00005755D01*
X00001633Y00005756D01*
X00001634Y00005758D01*
X00001635Y00005760D01*
X00001637Y00005763D01*
X00001638Y00005765D01*
X00001639Y00005767D01*
X00001639Y00005768D01*
X00001655Y00005797D01*
X00001620Y00005818D01*
X00001618Y00005819D01*
X00001615Y00005821D01*
X00001613Y00005822D01*
X00001608Y00005825D01*
X00001606Y00005826D01*
X00001603Y00005828D01*
X00001601Y00005829D01*
X00001452Y00005925D01*
X00001450Y00005926D01*
X00001446Y00005928D01*
X00001444Y00005930D01*
X00001439Y00005933D01*
X00001437Y00005935D01*
X00001434Y00005937D01*
X00001432Y00005938D01*
X00001379Y00005975D01*
X00001376Y00005976D01*
X00001371Y00005980D01*
X00001369Y00005982D01*
X00001360Y00005988D01*
X00001358Y00005990D01*
X00001353Y00005994D01*
X00001350Y00005996D01*
X00001241Y00006079D01*
X00001239Y00006081D01*
X00001235Y00006084D01*
X00001232Y00006087D01*
X00001225Y00006092D01*
X00001222Y00006094D01*
X00001218Y00006098D01*
X00001216Y00006100D01*
X00001095Y00006202D01*
X00001093Y00006203D01*
X00001090Y00006206D01*
X00001088Y00006207D01*
X00001083Y00006212D01*
X00001082Y00006213D01*
X00001079Y00006216D01*
X00001077Y00006218D01*
X00000955Y00006328D01*
X00000953Y00006329D01*
X00000950Y00006332D01*
X00000949Y00006333D01*
X00000944Y00006338D01*
X00000943Y00006339D01*
X00000940Y00006341D01*
X00000939Y00006343D01*
X00000826Y00006451D01*
X00000825Y00006452D01*
X00000823Y00006454D01*
X00000822Y00006455D01*
X00000820Y00006458D01*
X00000819Y00006458D01*
X00000817Y00006460D01*
X00000816Y00006461D01*
X00000807Y00006470D01*
X00000806Y00006471D01*
X00000805Y00006472D01*
X00000804Y00006473D01*
X00000802Y00006476D01*
X00000801Y00006476D01*
X00000799Y00006478D01*
X00000798Y00006479D01*
X00000776Y00006502D01*
X00000782Y00006465D01*
X00000806Y00006318D01*
X00000834Y00006171D01*
X00000864Y00006024D01*
X00000898Y00005879D01*
X00000936Y00005734D01*
X00000976Y00005590D01*
X00001020Y00005448D01*
X00001066Y00005305D01*
X00001116Y00005165D01*
X00001169Y00005025D01*
X00001225Y00004886D01*
X00001284Y00004749D01*
X00001346Y00004613D01*
X00001411Y00004479D01*
X00001479Y00004345D01*
X00001549Y00004214D01*
X00001623Y00004084D01*
X00001699Y00003956D01*
X00001779Y00003829D01*
X00001861Y00003704D01*
X00001946Y00003581D01*
X00002033Y00003460D01*
X00002123Y00003341D01*
X00002216Y00003223D01*
X00002311Y00003108D01*
X00002409Y00002995D01*
X00002510Y00002884D01*
X00002612Y00002776D01*
X00002717Y00002670D01*
X00002824Y00002566D01*
X00002934Y00002464D01*
X00003046Y00002365D01*
X00003125Y00002297D01*
X00003124Y00002316D01*
X00003124Y00002321D01*
X00003123Y00002332D01*
X00003123Y00002338D01*
X00003123Y00002355D01*
X00003123Y00002361D01*
X00003123Y00002371D01*
X00003123Y00002377D01*
X00003127Y00002571D01*
X00003127Y00002573D01*
X00003127Y00002577D01*
X00003127Y00002579D01*
X00003127Y00002585D01*
X00003127Y00002587D01*
X00003128Y00002590D01*
X00003128Y00002593D01*
X00003134Y00002718D01*
X00003134Y00002719D01*
X00003134Y00002721D01*
X00003134Y00002722D01*
X00003135Y00002724D01*
X00003135Y00002725D01*
X00003135Y00002726D01*
X00003135Y00002727D01*
X00003145Y00002884D01*
X00003145Y00002885D01*
X00003145Y00002886D01*
X00003145Y00002887D01*
X00003145Y00002890D01*
X00003145Y00002891D01*
X00003145Y00002893D01*
X00003146Y00002894D01*
X00003156Y00003026D01*
X00003156Y00003028D01*
X00003156Y00003031D01*
X00003157Y00003032D01*
X00003157Y00003037D01*
X00003157Y00003038D01*
X00003157Y00003041D01*
X00003157Y00003042D01*
X00003167Y00003135D01*
X00003167Y00003139D01*
X00003168Y00003145D01*
X00003169Y00003149D01*
X00003170Y00003160D01*
X00003170Y00003164D01*
X00003171Y00003170D01*
X00003172Y00003174D01*
X00003170Y00003177D01*
X00003167Y00003180D01*
X00003165Y00003182D01*
X00003098Y00003230D01*
X00002964Y00003312D01*
X00002758Y00003424D01*
X00002741Y00003433D01*
X00002740Y00003434D01*
X00002740Y00003434D01*
X00002739Y00003434D01*
X00008324Y00005958D02*
X00008397Y00006005D01*
X00008398Y00006005D01*
X00008450Y00006038D01*
X00008472Y00006107D01*
X00008527Y00006299D01*
X00008573Y00006491D01*
X00008514Y00006453D01*
X00008425Y00006396D01*
X00008302Y00006316D01*
X00008302Y00006312D01*
X00008302Y00006311D01*
X00008302Y00006308D01*
X00008302Y00006307D01*
X00008301Y00006303D01*
X00008301Y00006302D01*
X00008301Y00006299D01*
X00008301Y00006298D01*
X00008280Y00006074D01*
X00008277Y00006049D01*
X00008275Y00006039D01*
X00008274Y00006031D01*
X00008271Y00006006D01*
X00008264Y00005962D01*
X00008324Y00005958D01*
X00007574Y00000703D02*
X00007723Y00000706D01*
X00007873Y00000713D01*
X00008022Y00000723D01*
X00008171Y00000736D01*
X00008267Y00000746D01*
X00008249Y00000746D01*
X00008248Y00000746D01*
X00008246Y00000746D01*
X00007939Y00000741D01*
X00007937Y00000741D01*
X00007936Y00000741D01*
X00007617Y00000737D01*
X00007616Y00000737D01*
X00007615Y00000737D01*
X00007294Y00000735D01*
X00007292Y00000735D01*
X00007291Y00000735D01*
X00006977Y00000733D01*
X00006976Y00000733D01*
X00006974Y00000733D01*
X00006855Y00000733D01*
X00006977Y00000723D01*
X00007126Y00000713D01*
X00007276Y00000706D01*
X00007425Y00000703D01*
X00007574Y00000703D01*
D13*
X00005808Y00013385D02*
X00005809Y00013385D01*
X00005833Y00013402D01*
X00005841Y00013408D01*
X00005856Y00013417D01*
X00005864Y00013423D01*
X00005886Y00013436D01*
X00005890Y00013438D01*
X00005897Y00013443D01*
X00005902Y00013445D01*
X00005915Y00013452D01*
X00005919Y00013455D01*
X00005927Y00013459D01*
X00005931Y00013461D01*
X00006038Y00013518D01*
X00006038Y00013518D01*
X00006039Y00013519D01*
X00006041Y00013519D01*
X00006041Y00013520D01*
X00006042Y00013520D01*
X00006043Y00013521D01*
X00006046Y00013522D01*
X00006046Y00013522D01*
X00006047Y00013523D01*
X00006048Y00013523D01*
X00006050Y00013524D01*
X00006050Y00013524D01*
X00006051Y00013525D01*
X00006051Y00013525D01*
X00006062Y00013531D01*
X00006068Y00013533D01*
X00006078Y00013538D01*
X00006083Y00013541D01*
X00006100Y00013549D01*
X00006106Y00013551D01*
X00006116Y00013555D01*
X00006122Y00013558D01*
X00006150Y00013570D01*
X00006162Y00013574D01*
X00006182Y00013582D01*
X00006183Y00013582D01*
X00006183Y00013582D01*
X00006187Y00013592D01*
X00006189Y00013595D01*
X00006192Y00013601D01*
X00006193Y00013604D01*
X00006199Y00013615D01*
X00006199Y00013616D01*
X00006200Y00013617D01*
X00006200Y00013617D01*
X00006298Y00013808D01*
X00006301Y00013814D01*
X00006305Y00013823D01*
X00006308Y00013828D01*
X00006317Y00013843D01*
X00006320Y00013848D01*
X00006325Y00013857D01*
X00006328Y00013862D01*
X00006343Y00013886D01*
X00006346Y00013891D01*
X00006351Y00013900D01*
X00006354Y00013905D01*
X00006364Y00013919D01*
X00006367Y00013924D01*
X00006373Y00013932D01*
X00006376Y00013937D01*
X00006473Y00014072D01*
X00006477Y00014077D01*
X00006483Y00014086D01*
X00006487Y00014091D01*
X00006499Y00014106D01*
X00006503Y00014111D01*
X00006510Y00014120D01*
X00006514Y00014125D01*
X00006534Y00014149D01*
X00006539Y00014154D01*
X00006546Y00014163D01*
X00006550Y00014167D01*
X00006563Y00014181D01*
X00006568Y00014186D01*
X00006575Y00014194D01*
X00006580Y00014199D01*
X00006609Y00014228D01*
X00006610Y00014230D01*
X00006610Y00014230D01*
X00006611Y00014230D01*
X00006611Y00014230D01*
X00006620Y00014239D01*
X00006623Y00014242D01*
X00006629Y00014248D01*
X00006633Y00014252D01*
X00006643Y00014261D01*
X00006647Y00014265D01*
X00006653Y00014270D01*
X00006656Y00014273D01*
X00006674Y00014289D01*
X00006678Y00014292D01*
X00006684Y00014298D01*
X00006688Y00014301D01*
X00006699Y00014310D01*
X00006702Y00014313D01*
X00006709Y00014318D01*
X00006713Y00014321D01*
X00006727Y00014333D01*
X00006548Y00014407D01*
X00006545Y00014409D01*
X00006538Y00014411D01*
X00006535Y00014413D01*
X00006524Y00014417D01*
X00006521Y00014419D01*
X00006515Y00014422D01*
X00006511Y00014424D01*
X00006494Y00014432D01*
X00006487Y00014435D01*
X00006475Y00014441D01*
X00006468Y00014445D01*
X00006447Y00014456D01*
X00006441Y00014459D01*
X00006429Y00014466D01*
X00006422Y00014470D01*
X00006406Y00014480D01*
X00006402Y00014482D01*
X00006396Y00014486D01*
X00006393Y00014488D01*
X00006383Y00014494D01*
X00006380Y00014496D01*
X00006374Y00014500D01*
X00006371Y00014502D01*
X00006319Y00014536D01*
X00006315Y00014531D01*
X00006314Y00014528D01*
X00006310Y00014524D01*
X00006309Y00014521D01*
X00006299Y00014509D01*
X00006297Y00014506D01*
X00006294Y00014502D01*
X00006292Y00014500D01*
X00006287Y00014492D01*
X00006285Y00014490D01*
X00006281Y00014485D01*
X00006279Y00014483D01*
X00006173Y00014349D01*
X00006170Y00014347D01*
X00006167Y00014342D01*
X00006165Y00014340D01*
X00006159Y00014333D01*
X00006157Y00014331D01*
X00006154Y00014326D01*
X00006152Y00014324D01*
X00006141Y00014312D01*
X00006139Y00014310D01*
X00006136Y00014306D01*
X00006134Y00014304D01*
X00006127Y00014297D01*
X00006125Y00014294D01*
X00006122Y00014290D01*
X00006119Y00014288D01*
X00006002Y00014163D01*
X00006000Y00014161D01*
X00005996Y00014157D01*
X00005994Y00014155D01*
X00005988Y00014148D01*
X00005986Y00014146D01*
X00005982Y00014142D01*
X00005980Y00014140D01*
X00005968Y00014129D01*
X00005966Y00014127D01*
X00005962Y00014123D01*
X00005960Y00014121D01*
X00005953Y00014114D01*
X00005951Y00014112D01*
X00005947Y00014109D01*
X00005945Y00014106D01*
X00005818Y00013992D01*
X00005816Y00013989D01*
X00005812Y00013986D01*
X00005809Y00013984D01*
X00005802Y00013978D01*
X00005800Y00013976D01*
X00005796Y00013972D01*
X00005793Y00013970D01*
X00005781Y00013960D01*
X00005779Y00013958D01*
X00005775Y00013955D01*
X00005772Y00013952D01*
X00005765Y00013947D01*
X00005762Y00013945D01*
X00005758Y00013941D01*
X00005756Y00013939D01*
X00005621Y00013835D01*
X00005618Y00013833D01*
X00005614Y00013830D01*
X00005611Y00013828D01*
X00005604Y00013822D01*
X00005601Y00013820D01*
X00005597Y00013817D01*
X00005594Y00013815D01*
X00005582Y00013806D01*
X00005579Y00013804D01*
X00005575Y00013801D01*
X00005572Y00013800D01*
X00005564Y00013794D01*
X00005562Y00013793D01*
X00005557Y00013789D01*
X00005555Y00013788D01*
X00005411Y00013694D01*
X00005409Y00013692D01*
X00005404Y00013689D01*
X00005401Y00013688D01*
X00005394Y00013683D01*
X00005391Y00013681D01*
X00005386Y00013678D01*
X00005384Y00013677D01*
X00005370Y00013669D01*
X00005368Y00013667D01*
X00005363Y00013664D01*
X00005360Y00013663D01*
X00005352Y00013658D01*
X00005349Y00013657D01*
X00005345Y00013654D01*
X00005342Y00013653D01*
X00005326Y00013644D01*
X00005332Y00013641D01*
X00005337Y00013639D01*
X00005353Y00013631D01*
X00005358Y00013629D01*
X00005367Y00013625D01*
X00005372Y00013622D01*
X00005383Y00013617D01*
X00005384Y00013616D01*
X00005385Y00013616D01*
X00005385Y00013615D01*
X00005387Y00013614D01*
X00005388Y00013614D01*
X00005390Y00013613D01*
X00005391Y00013613D01*
X00005394Y00013611D01*
X00005396Y00013610D01*
X00005397Y00013609D01*
X00005398Y00013609D01*
X00005399Y00013608D01*
X00005400Y00013608D01*
X00005402Y00013607D01*
X00005739Y00013426D01*
X00005745Y00013423D01*
X00005755Y00013417D01*
X00005761Y00013414D01*
X00005779Y00013404D01*
X00005785Y00013400D01*
X00005795Y00013394D01*
X00005800Y00013390D01*
X00005808Y00013385D01*
X00009146Y00013421D02*
X00009429Y00013592D01*
X00009431Y00013593D01*
X00009436Y00013596D01*
X00009438Y00013597D01*
X00009446Y00013602D01*
X00009448Y00013603D01*
X00009452Y00013606D01*
X00009455Y00013607D01*
X00009467Y00013614D01*
X00009470Y00013615D01*
X00009474Y00013618D01*
X00009477Y00013619D01*
X00009484Y00013623D01*
X00009487Y00013624D01*
X00009491Y00013627D01*
X00009494Y00013628D01*
X00009505Y00013633D01*
X00009508Y00013635D01*
X00009514Y00013638D01*
X00009517Y00013640D01*
X00009527Y00013644D01*
X00009530Y00013646D01*
X00009536Y00013649D01*
X00009539Y00013650D01*
X00009556Y00013658D01*
X00009559Y00013659D01*
X00009565Y00013662D01*
X00009569Y00013663D01*
X00009579Y00013668D01*
X00009582Y00013669D01*
X00009588Y00013671D01*
X00009592Y00013673D01*
X00009610Y00013680D01*
X00009608Y00013681D01*
X00009605Y00013683D01*
X00009597Y00013688D01*
X00009595Y00013690D01*
X00009590Y00013692D01*
X00009588Y00013694D01*
X00009444Y00013788D01*
X00009442Y00013789D01*
X00009437Y00013793D01*
X00009435Y00013794D01*
X00009427Y00013799D01*
X00009424Y00013801D01*
X00009420Y00013804D01*
X00009417Y00013806D01*
X00009405Y00013815D01*
X00009402Y00013817D01*
X00009398Y00013820D01*
X00009395Y00013822D01*
X00009388Y00013828D01*
X00009385Y00013830D01*
X00009381Y00013833D01*
X00009378Y00013835D01*
X00009243Y00013939D01*
X00009241Y00013941D01*
X00009236Y00013945D01*
X00009234Y00013947D01*
X00009227Y00013953D01*
X00009224Y00013954D01*
X00009220Y00013958D01*
X00009218Y00013960D01*
X00009206Y00013970D01*
X00009203Y00013972D01*
X00009199Y00013975D01*
X00009197Y00013977D01*
X00009190Y00013984D01*
X00009187Y00013986D01*
X00009183Y00013989D01*
X00009181Y00013991D01*
X00009054Y00014106D01*
X00009052Y00014109D01*
X00009048Y00014112D01*
X00009046Y00014114D01*
X00009039Y00014121D01*
X00009037Y00014123D01*
X00009033Y00014127D01*
X00009031Y00014129D01*
X00009020Y00014140D01*
X00009017Y00014142D01*
X00009013Y00014146D01*
X00009011Y00014148D01*
X00009005Y00014155D01*
X00009002Y00014157D01*
X00008999Y00014161D01*
X00008997Y00014163D01*
X00008880Y00014288D01*
X00008877Y00014290D01*
X00008874Y00014294D01*
X00008872Y00014296D01*
X00008865Y00014303D01*
X00008863Y00014306D01*
X00008860Y00014310D01*
X00008858Y00014312D01*
X00008847Y00014324D01*
X00008845Y00014326D01*
X00008842Y00014331D01*
X00008840Y00014333D01*
X00008834Y00014340D01*
X00008832Y00014343D01*
X00008828Y00014347D01*
X00008826Y00014349D01*
X00008720Y00014483D01*
X00008718Y00014485D01*
X00008714Y00014489D01*
X00008712Y00014492D01*
X00008707Y00014499D01*
X00008705Y00014502D01*
X00008701Y00014506D01*
X00008700Y00014509D01*
X00008690Y00014521D01*
X00008689Y00014524D01*
X00008685Y00014528D01*
X00008684Y00014531D01*
X00008680Y00014536D01*
X00008628Y00014502D01*
X00008625Y00014500D01*
X00008619Y00014496D01*
X00008615Y00014494D01*
X00008606Y00014488D01*
X00008602Y00014486D01*
X00008597Y00014482D01*
X00008593Y00014480D01*
X00008577Y00014470D01*
X00008570Y00014466D01*
X00008558Y00014460D01*
X00008552Y00014456D01*
X00008531Y00014445D01*
X00008524Y00014441D01*
X00008512Y00014435D01*
X00008505Y00014432D01*
X00008488Y00014424D01*
X00008484Y00014422D01*
X00008478Y00014419D01*
X00008474Y00014417D01*
X00008464Y00014413D01*
X00008460Y00014411D01*
X00008454Y00014409D01*
X00008451Y00014407D01*
X00008236Y00014318D01*
X00008232Y00014317D01*
X00008226Y00014314D01*
X00008222Y00014313D01*
X00008212Y00014309D01*
X00008208Y00014307D01*
X00008201Y00014305D01*
X00008198Y00014303D01*
X00008180Y00014297D01*
X00008195Y00014285D01*
X00008198Y00014282D01*
X00008203Y00014277D01*
X00008206Y00014275D01*
X00008215Y00014266D01*
X00008218Y00014264D01*
X00008224Y00014259D01*
X00008227Y00014256D01*
X00008262Y00014223D01*
X00008262Y00014222D01*
X00008264Y00014221D01*
X00008265Y00014220D01*
X00008267Y00014217D01*
X00008268Y00014217D01*
X00008270Y00014215D01*
X00008271Y00014214D01*
X00008275Y00014210D01*
X00008275Y00014210D01*
X00008277Y00014208D01*
X00008278Y00014207D01*
X00008280Y00014205D01*
X00008281Y00014204D01*
X00008282Y00014203D01*
X00008283Y00014202D01*
X00008292Y00014193D01*
X00008295Y00014191D01*
X00008299Y00014186D01*
X00008302Y00014183D01*
X00008310Y00014175D01*
X00008312Y00014172D01*
X00008316Y00014167D01*
X00008319Y00014165D01*
X00008332Y00014151D01*
X00008334Y00014148D01*
X00008339Y00014143D01*
X00008341Y00014140D01*
X00008349Y00014131D01*
X00008351Y00014129D01*
X00008355Y00014123D01*
X00008358Y00014120D01*
X00008453Y00014005D01*
X00008457Y00014000D01*
X00008463Y00013992D01*
X00008466Y00013988D01*
X00008477Y00013974D01*
X00008481Y00013969D01*
X00008487Y00013961D01*
X00008490Y00013956D01*
X00008507Y00013932D01*
X00008510Y00013928D01*
X00008516Y00013919D01*
X00008519Y00013914D01*
X00008529Y00013900D01*
X00008532Y00013895D01*
X00008537Y00013886D01*
X00008540Y00013881D01*
X00008632Y00013727D01*
X00008634Y00013725D01*
X00008636Y00013721D01*
X00008638Y00013719D01*
X00008642Y00013712D01*
X00008643Y00013709D01*
X00008645Y00013705D01*
X00008647Y00013703D01*
X00008653Y00013691D01*
X00008655Y00013688D01*
X00008657Y00013684D01*
X00008658Y00013682D01*
X00008662Y00013675D01*
X00008663Y00013672D01*
X00008665Y00013668D01*
X00008667Y00013666D01*
X00008672Y00013655D01*
X00008673Y00013654D01*
X00008674Y00013651D01*
X00008675Y00013650D01*
X00008676Y00013646D01*
X00008677Y00013645D01*
X00008677Y00013645D01*
X00008694Y00013640D01*
X00008705Y00013637D01*
X00008740Y00013626D01*
X00008752Y00013622D01*
X00008772Y00013614D01*
X00008783Y00013610D01*
X00008811Y00013598D01*
X00008817Y00013596D01*
X00008826Y00013592D01*
X00008832Y00013589D01*
X00008849Y00013582D01*
X00008854Y00013579D01*
X00008864Y00013575D01*
X00008869Y00013572D01*
X00009012Y00013500D01*
X00009013Y00013500D01*
X00009014Y00013499D01*
X00009015Y00013499D01*
X00009015Y00013498D01*
X00009016Y00013498D01*
X00009016Y00013498D01*
X00009016Y00013498D01*
X00009016Y00013498D01*
X00009017Y00013498D01*
X00009017Y00013497D01*
X00009028Y00013492D01*
X00009034Y00013489D01*
X00009043Y00013484D01*
X00009049Y00013481D01*
X00009065Y00013472D01*
X00009070Y00013469D01*
X00009080Y00013463D01*
X00009085Y00013460D01*
X00009111Y00013444D01*
X00009122Y00013437D01*
X00009140Y00013425D01*
X00009146Y00013421D01*
X00010331Y00008133D02*
X00010347Y00008207D01*
X00010362Y00008301D01*
X00010338Y00008297D01*
X00010310Y00008295D01*
X00010305Y00008294D01*
X00010295Y00008292D01*
X00010266Y00008288D01*
X00010241Y00008285D01*
X00010227Y00008284D01*
X00010181Y00008282D01*
X00010181Y00008280D01*
X00010182Y00008251D01*
X00010190Y00008246D01*
X00010205Y00008236D01*
X00010213Y00008230D01*
X00010238Y00008212D01*
X00010246Y00008206D01*
X00010261Y00008194D01*
X00010269Y00008188D01*
X00010288Y00008171D01*
X00010292Y00008168D01*
X00010299Y00008162D01*
X00010303Y00008159D01*
X00010314Y00008149D01*
X00010318Y00008145D01*
X00010325Y00008139D01*
X00010328Y00008136D01*
X00010331Y00008133D01*
X00004849Y00007316D02*
X00004850Y00007317D01*
X00004855Y00007325D01*
X00004858Y00007330D01*
X00004873Y00007354D01*
X00004879Y00007363D01*
X00004890Y00007379D01*
X00004897Y00007389D01*
X00004913Y00007410D01*
X00004902Y00007414D01*
X00004891Y00007418D01*
X00004862Y00007430D01*
X00004856Y00007432D01*
X00004847Y00007437D01*
X00004841Y00007439D01*
X00004824Y00007447D01*
X00004818Y00007450D01*
X00004809Y00007455D01*
X00004804Y00007457D01*
X00004849Y00007316D01*
X00002838Y00002996D02*
X00002839Y00003019D01*
X00002807Y00003039D01*
X00002786Y00003050D01*
X00002838Y00002996D01*
M02*