G04 #@! TF.GenerationSoftware,KiCad,Pcbnew,(5.1.5)-3*
G04 #@! TF.CreationDate,2019-12-21T18:44:43-08:00*
G04 #@! TF.ProjectId,mole_keychain,6d6f6c65-5f6b-4657-9963-6861696e2e6b,A*
G04 #@! TF.SameCoordinates,Original*
G04 #@! TF.FileFunction,Copper,L1,Top*
G04 #@! TF.FilePolarity,Positive*
%FSLAX46Y46*%
G04 Gerber Fmt 4.6, Leading zero omitted, Abs format (unit mm)*
G04 Created by KiCad (PCBNEW (5.1.5)-3) date 2019-12-21 18:44:43*
%MOMM*%
%LPD*%
G04 APERTURE LIST*
%ADD10C,5.600000*%
%ADD11C,0.254000*%
G04 APERTURE END LIST*
D10*
X19050000Y41656000D03*
D11*
G36*
X19894602Y37318453D02*
G01*
X20737393Y37259954D01*
X21576610Y37162591D01*
X22410404Y37026580D01*
X23237030Y36852205D01*
X24054754Y36639831D01*
X24861749Y36389933D01*
X25656366Y36103024D01*
X26436897Y35779717D01*
X27201645Y35420717D01*
X27949012Y35026773D01*
X28677382Y34598737D01*
X29385189Y34137530D01*
X30070967Y33644109D01*
X30733204Y33119558D01*
X31370524Y32564969D01*
X31981545Y31981545D01*
X32564969Y31370524D01*
X33119558Y30733204D01*
X33644109Y30070967D01*
X34137530Y29385189D01*
X34598737Y28677382D01*
X35026773Y27949012D01*
X35420717Y27201645D01*
X35779717Y26436897D01*
X36103024Y25656366D01*
X36389933Y24861749D01*
X36639831Y24054754D01*
X36852205Y23237030D01*
X37026580Y22410404D01*
X37162591Y21576610D01*
X37259954Y20737393D01*
X37318453Y19894602D01*
X37337966Y19050000D01*
X37318453Y18205398D01*
X37259954Y17362607D01*
X37162591Y16523390D01*
X37026580Y15689596D01*
X36852205Y14862970D01*
X36639831Y14045246D01*
X36389933Y13238251D01*
X36103024Y12443634D01*
X35779717Y11663103D01*
X35420717Y10898355D01*
X35026773Y10150988D01*
X34598737Y9422618D01*
X34137530Y8714811D01*
X33644109Y8029033D01*
X33119558Y7366796D01*
X32564969Y6729476D01*
X31981545Y6118455D01*
X31370524Y5535031D01*
X30733204Y4980442D01*
X30070967Y4455891D01*
X29385189Y3962470D01*
X28677382Y3501263D01*
X27949012Y3073227D01*
X27201645Y2679283D01*
X26436897Y2320283D01*
X25656366Y1996976D01*
X24861749Y1710067D01*
X24054754Y1460169D01*
X23237030Y1247795D01*
X22410404Y1073420D01*
X21576610Y937409D01*
X20737393Y840046D01*
X19894602Y781547D01*
X19050000Y762034D01*
X18205398Y781547D01*
X17362607Y840046D01*
X16523390Y937409D01*
X15689596Y1073420D01*
X14862970Y1247795D01*
X14045246Y1460169D01*
X13238251Y1710067D01*
X12443634Y1996976D01*
X11663103Y2320283D01*
X10898355Y2679283D01*
X10150988Y3073227D01*
X9422618Y3501263D01*
X8714811Y3962470D01*
X8029033Y4455891D01*
X7366796Y4980442D01*
X6729476Y5535031D01*
X6118455Y6118455D01*
X5535031Y6729476D01*
X4980442Y7366796D01*
X4455891Y8029033D01*
X3962470Y8714811D01*
X3501263Y9422618D01*
X3073227Y10150988D01*
X2679283Y10898355D01*
X2320283Y11663103D01*
X1996976Y12443634D01*
X1710067Y13238251D01*
X1460169Y14045246D01*
X1247795Y14862970D01*
X1073420Y15689596D01*
X937409Y16523390D01*
X840046Y17362607D01*
X781547Y18205398D01*
X762034Y19050000D01*
X781547Y19894602D01*
X840046Y20737393D01*
X937409Y21576610D01*
X1073420Y22410404D01*
X1247795Y23237030D01*
X1460169Y24054754D01*
X1710067Y24861749D01*
X1996976Y25656366D01*
X2320283Y26436897D01*
X2679283Y27201645D01*
X3073227Y27949012D01*
X3501263Y28677382D01*
X3962470Y29385189D01*
X4455891Y30070967D01*
X4980442Y30733204D01*
X5535031Y31370524D01*
X6118455Y31981545D01*
X6729476Y32564969D01*
X7366796Y33119558D01*
X8029033Y33644109D01*
X8714811Y34137530D01*
X9422618Y34598737D01*
X10150988Y35026773D01*
X10898355Y35420717D01*
X11663103Y35779717D01*
X12443634Y36103024D01*
X13238251Y36389933D01*
X14045246Y36639831D01*
X14862970Y36852205D01*
X15689596Y37026580D01*
X16523390Y37162591D01*
X17362607Y37259954D01*
X18205398Y37318453D01*
X19050000Y37337966D01*
X19894602Y37318453D01*
G37*
X19894602Y37318453D02*
X20737393Y37259954D01*
X21576610Y37162591D01*
X22410404Y37026580D01*
X23237030Y36852205D01*
X24054754Y36639831D01*
X24861749Y36389933D01*
X25656366Y36103024D01*
X26436897Y35779717D01*
X27201645Y35420717D01*
X27949012Y35026773D01*
X28677382Y34598737D01*
X29385189Y34137530D01*
X30070967Y33644109D01*
X30733204Y33119558D01*
X31370524Y32564969D01*
X31981545Y31981545D01*
X32564969Y31370524D01*
X33119558Y30733204D01*
X33644109Y30070967D01*
X34137530Y29385189D01*
X34598737Y28677382D01*
X35026773Y27949012D01*
X35420717Y27201645D01*
X35779717Y26436897D01*
X36103024Y25656366D01*
X36389933Y24861749D01*
X36639831Y24054754D01*
X36852205Y23237030D01*
X37026580Y22410404D01*
X37162591Y21576610D01*
X37259954Y20737393D01*
X37318453Y19894602D01*
X37337966Y19050000D01*
X37318453Y18205398D01*
X37259954Y17362607D01*
X37162591Y16523390D01*
X37026580Y15689596D01*
X36852205Y14862970D01*
X36639831Y14045246D01*
X36389933Y13238251D01*
X36103024Y12443634D01*
X35779717Y11663103D01*
X35420717Y10898355D01*
X35026773Y10150988D01*
X34598737Y9422618D01*
X34137530Y8714811D01*
X33644109Y8029033D01*
X33119558Y7366796D01*
X32564969Y6729476D01*
X31981545Y6118455D01*
X31370524Y5535031D01*
X30733204Y4980442D01*
X30070967Y4455891D01*
X29385189Y3962470D01*
X28677382Y3501263D01*
X27949012Y3073227D01*
X27201645Y2679283D01*
X26436897Y2320283D01*
X25656366Y1996976D01*
X24861749Y1710067D01*
X24054754Y1460169D01*
X23237030Y1247795D01*
X22410404Y1073420D01*
X21576610Y937409D01*
X20737393Y840046D01*
X19894602Y781547D01*
X19050000Y762034D01*
X18205398Y781547D01*
X17362607Y840046D01*
X16523390Y937409D01*
X15689596Y1073420D01*
X14862970Y1247795D01*
X14045246Y1460169D01*
X13238251Y1710067D01*
X12443634Y1996976D01*
X11663103Y2320283D01*
X10898355Y2679283D01*
X10150988Y3073227D01*
X9422618Y3501263D01*
X8714811Y3962470D01*
X8029033Y4455891D01*
X7366796Y4980442D01*
X6729476Y5535031D01*
X6118455Y6118455D01*
X5535031Y6729476D01*
X4980442Y7366796D01*
X4455891Y8029033D01*
X3962470Y8714811D01*
X3501263Y9422618D01*
X3073227Y10150988D01*
X2679283Y10898355D01*
X2320283Y11663103D01*
X1996976Y12443634D01*
X1710067Y13238251D01*
X1460169Y14045246D01*
X1247795Y14862970D01*
X1073420Y15689596D01*
X937409Y16523390D01*
X840046Y17362607D01*
X781547Y18205398D01*
X762034Y19050000D01*
X781547Y19894602D01*
X840046Y20737393D01*
X937409Y21576610D01*
X1073420Y22410404D01*
X1247795Y23237030D01*
X1460169Y24054754D01*
X1710067Y24861749D01*
X1996976Y25656366D01*
X2320283Y26436897D01*
X2679283Y27201645D01*
X3073227Y27949012D01*
X3501263Y28677382D01*
X3962470Y29385189D01*
X4455891Y30070967D01*
X4980442Y30733204D01*
X5535031Y31370524D01*
X6118455Y31981545D01*
X6729476Y32564969D01*
X7366796Y33119558D01*
X8029033Y33644109D01*
X8714811Y34137530D01*
X9422618Y34598737D01*
X10150988Y35026773D01*
X10898355Y35420717D01*
X11663103Y35779717D01*
X12443634Y36103024D01*
X13238251Y36389933D01*
X14045246Y36639831D01*
X14862970Y36852205D01*
X15689596Y37026580D01*
X16523390Y37162591D01*
X17362607Y37259954D01*
X18205398Y37318453D01*
X19050000Y37337966D01*
X19894602Y37318453D01*
M02*
