G04 #@! TF.GenerationSoftware,KiCad,Pcbnew,(5.1.4)-1*
G04 #@! TF.CreationDate,2019-09-21T21:17:57-07:00*
G04 #@! TF.ProjectId,rudd-small-frame-A,72756464-2d73-46d6-916c-6c2d6672616d,rev?*
G04 #@! TF.SameCoordinates,Original*
G04 #@! TF.FileFunction,Legend,Bot*
G04 #@! TF.FilePolarity,Positive*
%FSLAX46Y46*%
G04 Gerber Fmt 4.6, Leading zero omitted, Abs format (unit mm)*
G04 Created by KiCad (PCBNEW (5.1.4)-1) date 2019-09-21 21:17:57*
%MOMM*%
%LPD*%
G04 APERTURE LIST*
%ADD10C,0.350000*%
G04 APERTURE END LIST*
D10*
X146270000Y-141650000D02*
X148810000Y-141650000D01*
X146270000Y-140380000D02*
X148810000Y-140380000D01*
X146270000Y-139110000D02*
X148810000Y-139110000D01*
X146270000Y-137840000D02*
X148810000Y-137840000D01*
X146270000Y-136570000D02*
X148810000Y-136570000D01*
X146270000Y-135300000D02*
X148810000Y-135300000D01*
X146270000Y-134030000D02*
X148810000Y-134030000D01*
X146270000Y-132760000D02*
X148810000Y-132760000D01*
X146270000Y-131490000D02*
X148810000Y-131490000D01*
X146270000Y-130220000D02*
X148810000Y-130220000D01*
X146270000Y-128950000D02*
X148810000Y-128950000D01*
X146270000Y-127680000D02*
X148810000Y-127680000D01*
X146270000Y-126410000D02*
X148810000Y-126410000D01*
X146270000Y-125140000D02*
X148810000Y-125140000D01*
X146270000Y-123870000D02*
X148810000Y-123870000D01*
X146270000Y-122600000D02*
X148810000Y-122600000D01*
X146270000Y-121330000D02*
X148810000Y-121330000D01*
X146270000Y-120060000D02*
X148810000Y-120060000D01*
X146270000Y-118790000D02*
X148810000Y-118790000D01*
X146270000Y-117520000D02*
X148810000Y-117520000D01*
X146270000Y-116250000D02*
X148810000Y-116250000D01*
X146270000Y-114980000D02*
X148810000Y-114980000D01*
X146270000Y-113710000D02*
X148810000Y-113710000D01*
X146270000Y-112440000D02*
X148810000Y-112440000D01*
X146270000Y-111170000D02*
X148810000Y-111170000D01*
X146270000Y-109900000D02*
X148810000Y-109900000D01*
X146270000Y-108630000D02*
X148810000Y-108630000D01*
X146270000Y-107360000D02*
X148810000Y-107360000D01*
X146270000Y-106090000D02*
X148810000Y-106090000D01*
X146270000Y-104820000D02*
X148810000Y-104820000D01*
X146270000Y-103550000D02*
X148810000Y-103550000D01*
X146270000Y-102280000D02*
X148810000Y-102280000D01*
X146270000Y-101010000D02*
X148810000Y-101010000D01*
X146270000Y-99740000D02*
X148810000Y-99740000D01*
X146270000Y-98470000D02*
X148810000Y-98470000D01*
X146270000Y-97200000D02*
X148810000Y-97200000D01*
X146270000Y-95930000D02*
X148810000Y-95930000D01*
X146270000Y-94660000D02*
X148810000Y-94660000D01*
X146270000Y-93390000D02*
X148810000Y-93390000D01*
X146270000Y-92120000D02*
X148810000Y-92120000D01*
X146270000Y-90850000D02*
X148810000Y-90850000D01*
X146270000Y-89580000D02*
X148810000Y-89580000D01*
X146270000Y-88310000D02*
X148810000Y-88310000D01*
X146270000Y-87040000D02*
X148810000Y-87040000D01*
X146270000Y-85770000D02*
X148810000Y-85770000D01*
X146270000Y-84500000D02*
X148810000Y-84500000D01*
X146270000Y-83230000D02*
X148810000Y-83230000D01*
X146270000Y-81960000D02*
X148810000Y-81960000D01*
X146270000Y-80690000D02*
X148810000Y-80690000D01*
X146270000Y-79420000D02*
X148810000Y-79420000D01*
X146270000Y-78150000D02*
X148810000Y-78150000D01*
X146270000Y-76880000D02*
X148810000Y-76880000D01*
X146270000Y-75610000D02*
X148810000Y-75610000D01*
X146270000Y-74340000D02*
X148810000Y-74340000D01*
X146270000Y-73070000D02*
X148810000Y-73070000D01*
X146270000Y-71800000D02*
X148810000Y-71800000D01*
X146270000Y-70530000D02*
X148810000Y-70530000D01*
X146270000Y-69260000D02*
X148810000Y-69260000D01*
X146270000Y-67990000D02*
X148810000Y-67990000D01*
X146270000Y-66720000D02*
X148810000Y-66720000D01*
X146270000Y-65450000D02*
X148810000Y-65450000D01*
X146270000Y-64180000D02*
X148810000Y-64180000D01*
X146270000Y-62910000D02*
X148810000Y-62910000D01*
X146270000Y-61640000D02*
X148810000Y-61640000D01*
X146270000Y-60370000D02*
X148810000Y-60370000D01*
X146270000Y-59100000D02*
X148810000Y-59100000D01*
X146270000Y-57830000D02*
X148810000Y-57830000D01*
X146270000Y-56560000D02*
X148810000Y-56560000D01*
M02*
