G04 #@! TF.GenerationSoftware,KiCad,Pcbnew,(5.1.4)-1*
G04 #@! TF.CreationDate,2019-09-21T21:17:57-07:00*
G04 #@! TF.ProjectId,rudd-small-frame-A,72756464-2d73-46d6-916c-6c2d6672616d,rev?*
G04 #@! TF.SameCoordinates,Original*
G04 #@! TF.FileFunction,Legend,Top*
G04 #@! TF.FilePolarity,Positive*
%FSLAX46Y46*%
G04 Gerber Fmt 4.6, Leading zero omitted, Abs format (unit mm)*
G04 Created by KiCad (PCBNEW (5.1.4)-1) date 2019-09-21 21:17:57*
%MOMM*%
%LPD*%
G04 APERTURE LIST*
%ADD10C,0.150000*%
%ADD11C,0.500000*%
G04 APERTURE END LIST*
D10*
X148087619Y-129410952D02*
X147373333Y-129410952D01*
X147230476Y-129363333D01*
X147135238Y-129268095D01*
X147087619Y-129125238D01*
X147087619Y-129030000D01*
X147087619Y-130363333D02*
X147087619Y-129887142D01*
X148087619Y-129887142D01*
X147182857Y-131268095D02*
X147135238Y-131220476D01*
X147087619Y-131077619D01*
X147087619Y-130982380D01*
X147135238Y-130839523D01*
X147230476Y-130744285D01*
X147325714Y-130696666D01*
X147516190Y-130649047D01*
X147659047Y-130649047D01*
X147849523Y-130696666D01*
X147944761Y-130744285D01*
X148040000Y-130839523D01*
X148087619Y-130982380D01*
X148087619Y-131077619D01*
X148040000Y-131220476D01*
X147992380Y-131268095D01*
X148087619Y-131982380D02*
X147373333Y-131982380D01*
X147230476Y-131934761D01*
X147135238Y-131839523D01*
X147087619Y-131696666D01*
X147087619Y-131601428D01*
X147087619Y-132934761D02*
X147087619Y-132458571D01*
X148087619Y-132458571D01*
X147182857Y-133839523D02*
X147135238Y-133791904D01*
X147087619Y-133649047D01*
X147087619Y-133553809D01*
X147135238Y-133410952D01*
X147230476Y-133315714D01*
X147325714Y-133268095D01*
X147516190Y-133220476D01*
X147659047Y-133220476D01*
X147849523Y-133268095D01*
X147944761Y-133315714D01*
X148040000Y-133410952D01*
X148087619Y-133553809D01*
X148087619Y-133649047D01*
X148040000Y-133791904D01*
X147992380Y-133839523D01*
X148087619Y-134553809D02*
X147373333Y-134553809D01*
X147230476Y-134506190D01*
X147135238Y-134410952D01*
X147087619Y-134268095D01*
X147087619Y-134172857D01*
X147087619Y-135506190D02*
X147087619Y-135030000D01*
X148087619Y-135030000D01*
X147182857Y-136410952D02*
X147135238Y-136363333D01*
X147087619Y-136220476D01*
X147087619Y-136125238D01*
X147135238Y-135982380D01*
X147230476Y-135887142D01*
X147325714Y-135839523D01*
X147516190Y-135791904D01*
X147659047Y-135791904D01*
X147849523Y-135839523D01*
X147944761Y-135887142D01*
X148040000Y-135982380D01*
X148087619Y-136125238D01*
X148087619Y-136220476D01*
X148040000Y-136363333D01*
X147992380Y-136410952D01*
X148087619Y-137125238D02*
X147373333Y-137125238D01*
X147230476Y-137077619D01*
X147135238Y-136982380D01*
X147087619Y-136839523D01*
X147087619Y-136744285D01*
X147087619Y-138077619D02*
X147087619Y-137601428D01*
X148087619Y-137601428D01*
X147182857Y-138982380D02*
X147135238Y-138934761D01*
X147087619Y-138791904D01*
X147087619Y-138696666D01*
X147135238Y-138553809D01*
X147230476Y-138458571D01*
X147325714Y-138410952D01*
X147516190Y-138363333D01*
X147659047Y-138363333D01*
X147849523Y-138410952D01*
X147944761Y-138458571D01*
X148040000Y-138553809D01*
X148087619Y-138696666D01*
X148087619Y-138791904D01*
X148040000Y-138934761D01*
X147992380Y-138982380D01*
D11*
X146369047Y-57297619D02*
X147559523Y-56464285D01*
X146369047Y-55869047D02*
X148869047Y-55869047D01*
X148869047Y-56821428D01*
X148750000Y-57059523D01*
X148630952Y-57178571D01*
X148392857Y-57297619D01*
X148035714Y-57297619D01*
X147797619Y-57178571D01*
X147678571Y-57059523D01*
X147559523Y-56821428D01*
X147559523Y-55869047D01*
X148035714Y-59440476D02*
X146369047Y-59440476D01*
X148035714Y-58369047D02*
X146726190Y-58369047D01*
X146488095Y-58488095D01*
X146369047Y-58726190D01*
X146369047Y-59083333D01*
X146488095Y-59321428D01*
X146607142Y-59440476D01*
X146369047Y-61702380D02*
X148869047Y-61702380D01*
X146488095Y-61702380D02*
X146369047Y-61464285D01*
X146369047Y-60988095D01*
X146488095Y-60750000D01*
X146607142Y-60630952D01*
X146845238Y-60511904D01*
X147559523Y-60511904D01*
X147797619Y-60630952D01*
X147916666Y-60750000D01*
X148035714Y-60988095D01*
X148035714Y-61464285D01*
X147916666Y-61702380D01*
X146369047Y-63964285D02*
X148869047Y-63964285D01*
X146488095Y-63964285D02*
X146369047Y-63726190D01*
X146369047Y-63250000D01*
X146488095Y-63011904D01*
X146607142Y-62892857D01*
X146845238Y-62773809D01*
X147559523Y-62773809D01*
X147797619Y-62892857D01*
X147916666Y-63011904D01*
X148035714Y-63250000D01*
X148035714Y-63726190D01*
X147916666Y-63964285D01*
X146369047Y-67059523D02*
X148869047Y-67059523D01*
X148869047Y-68011904D01*
X148750000Y-68250000D01*
X148630952Y-68369047D01*
X148392857Y-68488095D01*
X148035714Y-68488095D01*
X147797619Y-68369047D01*
X147678571Y-68250000D01*
X147559523Y-68011904D01*
X147559523Y-67059523D01*
X146607142Y-70988095D02*
X146488095Y-70869047D01*
X146369047Y-70511904D01*
X146369047Y-70273809D01*
X146488095Y-69916666D01*
X146726190Y-69678571D01*
X146964285Y-69559523D01*
X147440476Y-69440476D01*
X147797619Y-69440476D01*
X148273809Y-69559523D01*
X148511904Y-69678571D01*
X148750000Y-69916666D01*
X148869047Y-70273809D01*
X148869047Y-70511904D01*
X148750000Y-70869047D01*
X148630952Y-70988095D01*
X147678571Y-72892857D02*
X147559523Y-73250000D01*
X147440476Y-73369047D01*
X147202380Y-73488095D01*
X146845238Y-73488095D01*
X146607142Y-73369047D01*
X146488095Y-73250000D01*
X146369047Y-73011904D01*
X146369047Y-72059523D01*
X148869047Y-72059523D01*
X148869047Y-72892857D01*
X148750000Y-73130952D01*
X148630952Y-73250000D01*
X148392857Y-73369047D01*
X148154761Y-73369047D01*
X147916666Y-73250000D01*
X147797619Y-73130952D01*
X147678571Y-72892857D01*
X147678571Y-72059523D01*
X146369047Y-76464285D02*
X148869047Y-76464285D01*
X146369047Y-77892857D02*
X147797619Y-76821428D01*
X148869047Y-77892857D02*
X147440476Y-76464285D01*
X146488095Y-79916666D02*
X146369047Y-79678571D01*
X146369047Y-79202380D01*
X146488095Y-78964285D01*
X146726190Y-78845238D01*
X147678571Y-78845238D01*
X147916666Y-78964285D01*
X148035714Y-79202380D01*
X148035714Y-79678571D01*
X147916666Y-79916666D01*
X147678571Y-80035714D01*
X147440476Y-80035714D01*
X147202380Y-78845238D01*
X148035714Y-80869047D02*
X146369047Y-81464285D01*
X148035714Y-82059523D02*
X146369047Y-81464285D01*
X145773809Y-81226190D01*
X145654761Y-81107142D01*
X145535714Y-80869047D01*
X146488095Y-84083333D02*
X146369047Y-83845238D01*
X146369047Y-83369047D01*
X146488095Y-83130952D01*
X146607142Y-83011904D01*
X146845238Y-82892857D01*
X147559523Y-82892857D01*
X147797619Y-83011904D01*
X147916666Y-83130952D01*
X148035714Y-83369047D01*
X148035714Y-83845238D01*
X147916666Y-84083333D01*
X146369047Y-85154761D02*
X148869047Y-85154761D01*
X146369047Y-86226190D02*
X147678571Y-86226190D01*
X147916666Y-86107142D01*
X148035714Y-85869047D01*
X148035714Y-85511904D01*
X147916666Y-85273809D01*
X147797619Y-85154761D01*
X146369047Y-88488095D02*
X147678571Y-88488095D01*
X147916666Y-88369047D01*
X148035714Y-88130952D01*
X148035714Y-87654761D01*
X147916666Y-87416666D01*
X146488095Y-88488095D02*
X146369047Y-88250000D01*
X146369047Y-87654761D01*
X146488095Y-87416666D01*
X146726190Y-87297619D01*
X146964285Y-87297619D01*
X147202380Y-87416666D01*
X147321428Y-87654761D01*
X147321428Y-88250000D01*
X147440476Y-88488095D01*
X146369047Y-89678571D02*
X148035714Y-89678571D01*
X148869047Y-89678571D02*
X148750000Y-89559523D01*
X148630952Y-89678571D01*
X148750000Y-89797619D01*
X148869047Y-89678571D01*
X148630952Y-89678571D01*
X148035714Y-90869047D02*
X146369047Y-90869047D01*
X147797619Y-90869047D02*
X147916666Y-90988095D01*
X148035714Y-91226190D01*
X148035714Y-91583333D01*
X147916666Y-91821428D01*
X147678571Y-91940476D01*
X146369047Y-91940476D01*
X148869047Y-94678571D02*
X146369047Y-95511904D01*
X148869047Y-96345238D01*
X148630952Y-97059523D02*
X148750000Y-97178571D01*
X148869047Y-97416666D01*
X148869047Y-98011904D01*
X148750000Y-98249999D01*
X148630952Y-98369047D01*
X148392857Y-98488095D01*
X148154761Y-98488095D01*
X147797619Y-98369047D01*
X146369047Y-96940476D01*
X146369047Y-98488095D01*
X147321428Y-101464285D02*
X147321428Y-103369047D01*
X146369047Y-107773809D02*
X146369047Y-106345238D01*
X146369047Y-107059523D02*
X148869047Y-107059523D01*
X148511904Y-106821428D01*
X148273809Y-106583333D01*
X148154761Y-106345238D01*
X146607142Y-108845238D02*
X146488095Y-108964285D01*
X146369047Y-108845238D01*
X146488095Y-108726190D01*
X146607142Y-108845238D01*
X146369047Y-108845238D01*
X148869047Y-111226190D02*
X148869047Y-110035714D01*
X147678571Y-109916666D01*
X147797619Y-110035714D01*
X147916666Y-110273809D01*
X147916666Y-110869047D01*
X147797619Y-111107142D01*
X147678571Y-111226190D01*
X147440476Y-111345238D01*
X146845238Y-111345238D01*
X146607142Y-111226190D01*
X146488095Y-111107142D01*
X146369047Y-110869047D01*
X146369047Y-110273809D01*
X146488095Y-110035714D01*
X146607142Y-109916666D01*
X148869047Y-112297619D02*
X148392857Y-112297619D01*
X148869047Y-113249999D02*
X148392857Y-113249999D01*
M02*
