G04 #@! TF.GenerationSoftware,KiCad,Pcbnew,(5.1.5)-3*
G04 #@! TF.CreationDate,2019-12-21T19:27:07-08:00*
G04 #@! TF.ProjectId,mole-small-frame-B,6d6f6c65-2d73-46d6-916c-6c2d6672616d,rev?*
G04 #@! TF.SameCoordinates,Original*
G04 #@! TF.FileFunction,Soldermask,Bot*
G04 #@! TF.FilePolarity,Negative*
%FSLAX46Y46*%
G04 Gerber Fmt 4.6, Leading zero omitted, Abs format (unit mm)*
G04 Created by KiCad (PCBNEW (5.1.5)-3) date 2019-12-21 19:27:07*
%MOMM*%
%LPD*%
G04 APERTURE LIST*
%ADD10C,0.500000*%
%ADD11C,0.100000*%
G04 APERTURE END LIST*
D10*
X3749999Y80404761D02*
X3869047Y80166666D01*
X3869047Y79809523D01*
X3749999Y79452380D01*
X3511904Y79214285D01*
X3273809Y79095238D01*
X2797619Y78976190D01*
X2440476Y78976190D01*
X1964285Y79095238D01*
X1726190Y79214285D01*
X1488095Y79452380D01*
X1369047Y79809523D01*
X1369047Y80047619D01*
X1488095Y80404761D01*
X1607142Y80523809D01*
X2440476Y80523809D01*
X2440476Y80047619D01*
X1369047Y81595238D02*
X3869047Y81595238D01*
X3869047Y82190476D01*
X3750000Y82547619D01*
X3511904Y82785714D01*
X3273809Y82904761D01*
X2797619Y83023809D01*
X2440476Y83023809D01*
X1964285Y82904761D01*
X1726190Y82785714D01*
X1488095Y82547619D01*
X1369047Y82190476D01*
X1369047Y81595238D01*
X2678571Y84928571D02*
X2559523Y85285714D01*
X2440476Y85404761D01*
X2202380Y85523809D01*
X1845238Y85523809D01*
X1607142Y85404761D01*
X1488095Y85285714D01*
X1369047Y85047619D01*
X1369047Y84095238D01*
X3869047Y84095238D01*
X3869047Y84928571D01*
X3750000Y85166666D01*
X3630952Y85285714D01*
X3392857Y85404761D01*
X3154761Y85404761D01*
X2916666Y85285714D01*
X2797619Y85166666D01*
X2678571Y84928571D01*
X2678571Y84095238D01*
X3750000Y87904761D02*
X3869047Y87666666D01*
X3869047Y87309523D01*
X3750000Y86952380D01*
X3511904Y86714285D01*
X3273809Y86595238D01*
X2797619Y86476190D01*
X2440476Y86476190D01*
X1964285Y86595238D01*
X1726190Y86714285D01*
X1488095Y86952380D01*
X1369047Y87309523D01*
X1369047Y87547619D01*
X1488095Y87904761D01*
X1607142Y88023809D01*
X2440476Y88023809D01*
X2440476Y87547619D01*
X1488095Y12083333D02*
X1369047Y12440476D01*
X1369047Y13035714D01*
X1488095Y13273809D01*
X1607142Y13392857D01*
X1845238Y13511904D01*
X2083333Y13511904D01*
X2321428Y13392857D01*
X2440476Y13273809D01*
X2559523Y13035714D01*
X2678571Y12559523D01*
X2797619Y12321428D01*
X2916666Y12202380D01*
X3154761Y12083333D01*
X3392857Y12083333D01*
X3630952Y12202380D01*
X3749999Y12321428D01*
X3869047Y12559523D01*
X3869047Y13154761D01*
X3749999Y13511904D01*
X2678571Y14583333D02*
X2678571Y15416666D01*
X1369047Y15773809D02*
X1369047Y14583333D01*
X3869047Y14583333D01*
X3869047Y15773809D01*
X1369047Y16845238D02*
X3869047Y16845238D01*
X3869047Y17440476D01*
X3749999Y17797619D01*
X3511904Y18035714D01*
X3273809Y18154761D01*
X2797619Y18273809D01*
X2440476Y18273809D01*
X1964285Y18154761D01*
X1726190Y18035714D01*
X1488095Y17797619D01*
X1369047Y17440476D01*
X1369047Y16845238D01*
X1369047Y21249999D02*
X3869047Y21249999D01*
X1369047Y22678571D01*
X3869047Y22678571D01*
X3869047Y23511904D02*
X1369047Y24345238D01*
X3869047Y25178571D01*
X1369047Y27202380D02*
X1369047Y26011904D01*
X3869047Y26011904D01*
X1369047Y29226190D02*
X1369047Y28035714D01*
X3869047Y28035714D01*
X2083333Y29940476D02*
X2083333Y31130952D01*
X1369047Y29702380D02*
X3869047Y30535714D01*
X1369047Y31369047D01*
X1369047Y34107142D02*
X3869047Y34107142D01*
X1369047Y35535714D01*
X3869047Y35535714D01*
X1369047Y36726190D02*
X3869047Y36726190D01*
X1488095Y37797619D02*
X1369047Y38154761D01*
X1369047Y38749999D01*
X1488095Y38988095D01*
X1607142Y39107142D01*
X1845238Y39226190D01*
X2083333Y39226190D01*
X2321428Y39107142D01*
X2440476Y38988095D01*
X2559523Y38749999D01*
X2678571Y38273809D01*
X2797619Y38035714D01*
X2916666Y37916666D01*
X3154761Y37797619D01*
X3392857Y37797619D01*
X3630952Y37916666D01*
X3749999Y38035714D01*
X3869047Y38273809D01*
X3869047Y38869047D01*
X3750000Y39226190D01*
X1369047Y40297619D02*
X3869047Y40297619D01*
X2083333Y43273809D02*
X2083333Y44464285D01*
X1369047Y43035714D02*
X3869047Y43869047D01*
X1369047Y44702380D01*
X1369047Y46964285D02*
X2559523Y46130952D01*
X1369047Y45535714D02*
X3869047Y45535714D01*
X3869047Y46488095D01*
X3750000Y46726190D01*
X3630952Y46845238D01*
X3392857Y46964285D01*
X3035714Y46964285D01*
X2797619Y46845238D01*
X2678571Y46726190D01*
X2559523Y46488095D01*
X2559523Y45535714D01*
X1369047Y48035714D02*
X3869047Y48035714D01*
X3869047Y48630952D01*
X3750000Y48988095D01*
X3511904Y49226190D01*
X3273809Y49345238D01*
X2797619Y49464285D01*
X2440476Y49464285D01*
X1964285Y49345238D01*
X1726190Y49226190D01*
X1488095Y48988095D01*
X1369047Y48630952D01*
X1369047Y48035714D01*
X3869047Y50178571D02*
X1369047Y51011904D01*
X3869047Y51845238D01*
X2083333Y52559523D02*
X2083333Y53749999D01*
X1369047Y52321428D02*
X3869047Y53154761D01*
X1369047Y53988095D01*
X3869047Y56369047D02*
X1369047Y57202380D01*
X3869047Y58035714D01*
X1369047Y58869047D02*
X3869047Y58869047D01*
X1369047Y61488095D02*
X2559523Y60654761D01*
X1369047Y60059523D02*
X3869047Y60059523D01*
X3869047Y61011904D01*
X3750000Y61249999D01*
X3630952Y61369047D01*
X3392857Y61488095D01*
X3035714Y61488095D01*
X2797619Y61369047D01*
X2678571Y61249999D01*
X2559523Y61011904D01*
X2559523Y60059523D01*
X3869047Y62202380D02*
X3869047Y63630952D01*
X1369047Y62916666D02*
X3869047Y62916666D01*
X3869047Y64107142D02*
X1369047Y64940476D01*
X3869047Y65773809D01*
X1488095Y66488095D02*
X1369047Y66845238D01*
X1369047Y67440476D01*
X1488095Y67678571D01*
X1607142Y67797619D01*
X1845238Y67916666D01*
X2083333Y67916666D01*
X2321428Y67797619D01*
X2440476Y67678571D01*
X2559523Y67440476D01*
X2678571Y66964285D01*
X2797619Y66726190D01*
X2916666Y66607142D01*
X3154761Y66488095D01*
X3392857Y66488095D01*
X3630952Y66607142D01*
X3750000Y66726190D01*
X3869047Y66964285D01*
X3869047Y67559523D01*
X3750000Y67916666D01*
D11*
G36*
X2802585Y4021198D02*
G01*
X2952410Y3991396D01*
X3234674Y3874479D01*
X3488705Y3704741D01*
X3704741Y3488705D01*
X3874479Y3234674D01*
X3991396Y2952410D01*
X4051000Y2652760D01*
X4051000Y2347240D01*
X3991396Y2047590D01*
X3874479Y1765326D01*
X3704741Y1511295D01*
X3488705Y1295259D01*
X3234674Y1125521D01*
X2952410Y1008604D01*
X2802585Y978802D01*
X2652761Y949000D01*
X2347239Y949000D01*
X2197415Y978802D01*
X2047590Y1008604D01*
X1765326Y1125521D01*
X1511295Y1295259D01*
X1295259Y1511295D01*
X1125521Y1765326D01*
X1008604Y2047590D01*
X949000Y2347240D01*
X949000Y2652760D01*
X1008604Y2952410D01*
X1125521Y3234674D01*
X1295259Y3488705D01*
X1511295Y3704741D01*
X1765326Y3874479D01*
X2047590Y3991396D01*
X2197415Y4021198D01*
X2347239Y4051000D01*
X2652761Y4051000D01*
X2802585Y4021198D01*
G37*
G36*
X2802585Y97021198D02*
G01*
X2952410Y96991396D01*
X3234674Y96874479D01*
X3488705Y96704741D01*
X3704741Y96488705D01*
X3874479Y96234674D01*
X3991396Y95952410D01*
X4051000Y95652760D01*
X4051000Y95347240D01*
X3991396Y95047590D01*
X3874479Y94765326D01*
X3704741Y94511295D01*
X3488705Y94295259D01*
X3234674Y94125521D01*
X2952410Y94008604D01*
X2802585Y93978802D01*
X2652761Y93949000D01*
X2347239Y93949000D01*
X2197415Y93978802D01*
X2047590Y94008604D01*
X1765326Y94125521D01*
X1511295Y94295259D01*
X1295259Y94511295D01*
X1125521Y94765326D01*
X1008604Y95047590D01*
X949000Y95347240D01*
X949000Y95652760D01*
X1008604Y95952410D01*
X1125521Y96234674D01*
X1295259Y96488705D01*
X1511295Y96704741D01*
X1765326Y96874479D01*
X2047590Y96991396D01*
X2197415Y97021198D01*
X2347239Y97051000D01*
X2652761Y97051000D01*
X2802585Y97021198D01*
G37*
M02*
