G04 #@! TF.GenerationSoftware,KiCad,Pcbnew,(5.1.5)-3*
G04 #@! TF.CreationDate,2019-12-21T19:27:07-08:00*
G04 #@! TF.ProjectId,mole-small-frame-B,6d6f6c65-2d73-46d6-916c-6c2d6672616d,rev?*
G04 #@! TF.SameCoordinates,Original*
G04 #@! TF.FileFunction,Soldermask,Top*
G04 #@! TF.FilePolarity,Negative*
%FSLAX46Y46*%
G04 Gerber Fmt 4.6, Leading zero omitted, Abs format (unit mm)*
G04 Created by KiCad (PCBNEW (5.1.5)-3) date 2019-12-21 19:27:07*
%MOMM*%
%LPD*%
G04 APERTURE LIST*
%ADD10C,0.500000*%
%ADD11C,0.100000*%
G04 APERTURE END LIST*
D10*
X1488095Y86916666D02*
X1369047Y86559523D01*
X1369047Y85964285D01*
X1488095Y85726190D01*
X1607142Y85607142D01*
X1845238Y85488095D01*
X2083333Y85488095D01*
X2321428Y85607142D01*
X2440476Y85726190D01*
X2559523Y85964285D01*
X2678571Y86440476D01*
X2797619Y86678571D01*
X2916666Y86797619D01*
X3154761Y86916666D01*
X3392857Y86916666D01*
X3630952Y86797619D01*
X3750000Y86678571D01*
X3869047Y86440476D01*
X3869047Y85845238D01*
X3750000Y85488095D01*
X2678571Y84416666D02*
X2678571Y83583333D01*
X1369047Y83226190D02*
X1369047Y84416666D01*
X3869047Y84416666D01*
X3869047Y83226190D01*
X1369047Y82154761D02*
X3869047Y82154761D01*
X3869047Y81559523D01*
X3750000Y81202380D01*
X3511904Y80964285D01*
X3273809Y80845238D01*
X2797619Y80726190D01*
X2440476Y80726190D01*
X1964285Y80845238D01*
X1726190Y80964285D01*
X1488095Y81202380D01*
X1369047Y81559523D01*
X1369047Y82154761D01*
X1369047Y77750000D02*
X3869047Y77750000D01*
X1369047Y76321428D01*
X3869047Y76321428D01*
X3869047Y75488095D02*
X1369047Y74654761D01*
X3869047Y73821428D01*
X1369047Y71797619D02*
X1369047Y72988095D01*
X3869047Y72988095D01*
X1369047Y69773809D02*
X1369047Y70964285D01*
X3869047Y70964285D01*
X2083333Y69059523D02*
X2083333Y67869047D01*
X1369047Y69297619D02*
X3869047Y68464285D01*
X1369047Y67630952D01*
X1369047Y64892857D02*
X3869047Y64892857D01*
X1369047Y63464285D01*
X3869047Y63464285D01*
X1369047Y62273809D02*
X3869047Y62273809D01*
X1488095Y61202380D02*
X1369047Y60845238D01*
X1369047Y60250000D01*
X1488095Y60011904D01*
X1607142Y59892857D01*
X1845238Y59773809D01*
X2083333Y59773809D01*
X2321428Y59892857D01*
X2440476Y60011904D01*
X2559523Y60250000D01*
X2678571Y60726190D01*
X2797619Y60964285D01*
X2916666Y61083333D01*
X3154761Y61202380D01*
X3392857Y61202380D01*
X3630952Y61083333D01*
X3750000Y60964285D01*
X3869047Y60726190D01*
X3869047Y60130952D01*
X3750000Y59773809D01*
X1369047Y58702380D02*
X3869047Y58702380D01*
X2083333Y55726190D02*
X2083333Y54535714D01*
X1369047Y55964285D02*
X3869047Y55130952D01*
X1369047Y54297619D01*
X1369047Y52035714D02*
X2559523Y52869047D01*
X1369047Y53464285D02*
X3869047Y53464285D01*
X3869047Y52511904D01*
X3749999Y52273809D01*
X3630952Y52154761D01*
X3392857Y52035714D01*
X3035714Y52035714D01*
X2797619Y52154761D01*
X2678571Y52273809D01*
X2559523Y52511904D01*
X2559523Y53464285D01*
X1369047Y50964285D02*
X3869047Y50964285D01*
X3869047Y50369047D01*
X3749999Y50011904D01*
X3511904Y49773809D01*
X3273809Y49654761D01*
X2797619Y49535714D01*
X2440476Y49535714D01*
X1964285Y49654761D01*
X1726190Y49773809D01*
X1488095Y50011904D01*
X1369047Y50369047D01*
X1369047Y50964285D01*
X3869047Y48821428D02*
X1369047Y47988095D01*
X3869047Y47154761D01*
X2083333Y46440476D02*
X2083333Y45250000D01*
X1369047Y46678571D02*
X3869047Y45845238D01*
X1369047Y45011904D01*
X3869047Y42630952D02*
X1369047Y41797619D01*
X3869047Y40964285D01*
X1369047Y40130952D02*
X3869047Y40130952D01*
X1369047Y37511904D02*
X2559523Y38345238D01*
X1369047Y38940476D02*
X3869047Y38940476D01*
X3869047Y37988095D01*
X3749999Y37750000D01*
X3630952Y37630952D01*
X3392857Y37511904D01*
X3035714Y37511904D01*
X2797619Y37630952D01*
X2678571Y37750000D01*
X2559523Y37988095D01*
X2559523Y38940476D01*
X3869047Y36797619D02*
X3869047Y35369047D01*
X1369047Y36083333D02*
X3869047Y36083333D01*
X3869047Y34892857D02*
X1369047Y34059523D01*
X3869047Y33226190D01*
X1488095Y32511904D02*
X1369047Y32154761D01*
X1369047Y31559523D01*
X1488095Y31321428D01*
X1607142Y31202380D01*
X1845238Y31083333D01*
X2083333Y31083333D01*
X2321428Y31202380D01*
X2440476Y31321428D01*
X2559523Y31559523D01*
X2678571Y32035714D01*
X2797619Y32273809D01*
X2916666Y32392857D01*
X3154761Y32511904D01*
X3392857Y32511904D01*
X3630952Y32392857D01*
X3749999Y32273809D01*
X3869047Y32035714D01*
X3869047Y31440476D01*
X3749999Y31083333D01*
X3750000Y18595238D02*
X3869047Y18833333D01*
X3869047Y19190476D01*
X3750000Y19547619D01*
X3511904Y19785714D01*
X3273809Y19904761D01*
X2797619Y20023809D01*
X2440476Y20023809D01*
X1964285Y19904761D01*
X1726190Y19785714D01*
X1488095Y19547619D01*
X1369047Y19190476D01*
X1369047Y18952380D01*
X1488095Y18595238D01*
X1607142Y18476190D01*
X2440476Y18476190D01*
X2440476Y18952380D01*
X1369047Y17404761D02*
X3869047Y17404761D01*
X3869047Y16809523D01*
X3750000Y16452380D01*
X3511904Y16214285D01*
X3273809Y16095238D01*
X2797619Y15976190D01*
X2440476Y15976190D01*
X1964285Y16095238D01*
X1726190Y16214285D01*
X1488095Y16452380D01*
X1369047Y16809523D01*
X1369047Y17404761D01*
X2678571Y14071428D02*
X2559523Y13714285D01*
X2440476Y13595238D01*
X2202380Y13476190D01*
X1845238Y13476190D01*
X1607142Y13595238D01*
X1488095Y13714285D01*
X1369047Y13952380D01*
X1369047Y14904761D01*
X3869047Y14904761D01*
X3869047Y14071428D01*
X3750000Y13833333D01*
X3630952Y13714285D01*
X3392857Y13595238D01*
X3154761Y13595238D01*
X2916666Y13714285D01*
X2797619Y13833333D01*
X2678571Y14071428D01*
X2678571Y14904761D01*
X3749999Y11095238D02*
X3869047Y11333333D01*
X3869047Y11690476D01*
X3749999Y12047619D01*
X3511904Y12285714D01*
X3273809Y12404761D01*
X2797619Y12523809D01*
X2440476Y12523809D01*
X1964285Y12404761D01*
X1726190Y12285714D01*
X1488095Y12047619D01*
X1369047Y11690476D01*
X1369047Y11452380D01*
X1488095Y11095238D01*
X1607142Y10976190D01*
X2440476Y10976190D01*
X2440476Y11452380D01*
D11*
G36*
X2802585Y4021198D02*
G01*
X2952410Y3991396D01*
X3234674Y3874479D01*
X3488705Y3704741D01*
X3704741Y3488705D01*
X3874479Y3234674D01*
X3991396Y2952410D01*
X4051000Y2652760D01*
X4051000Y2347240D01*
X3991396Y2047590D01*
X3874479Y1765326D01*
X3704741Y1511295D01*
X3488705Y1295259D01*
X3234674Y1125521D01*
X2952410Y1008604D01*
X2802585Y978802D01*
X2652761Y949000D01*
X2347239Y949000D01*
X2197415Y978802D01*
X2047590Y1008604D01*
X1765326Y1125521D01*
X1511295Y1295259D01*
X1295259Y1511295D01*
X1125521Y1765326D01*
X1008604Y2047590D01*
X949000Y2347240D01*
X949000Y2652760D01*
X1008604Y2952410D01*
X1125521Y3234674D01*
X1295259Y3488705D01*
X1511295Y3704741D01*
X1765326Y3874479D01*
X2047590Y3991396D01*
X2197415Y4021198D01*
X2347239Y4051000D01*
X2652761Y4051000D01*
X2802585Y4021198D01*
G37*
G36*
X2802585Y97021198D02*
G01*
X2952410Y96991396D01*
X3234674Y96874479D01*
X3488705Y96704741D01*
X3704741Y96488705D01*
X3874479Y96234674D01*
X3991396Y95952410D01*
X4051000Y95652760D01*
X4051000Y95347240D01*
X3991396Y95047590D01*
X3874479Y94765326D01*
X3704741Y94511295D01*
X3488705Y94295259D01*
X3234674Y94125521D01*
X2952410Y94008604D01*
X2802585Y93978802D01*
X2652761Y93949000D01*
X2347239Y93949000D01*
X2197415Y93978802D01*
X2047590Y94008604D01*
X1765326Y94125521D01*
X1511295Y94295259D01*
X1295259Y94511295D01*
X1125521Y94765326D01*
X1008604Y95047590D01*
X949000Y95347240D01*
X949000Y95652760D01*
X1008604Y95952410D01*
X1125521Y96234674D01*
X1295259Y96488705D01*
X1511295Y96704741D01*
X1765326Y96874479D01*
X2047590Y96991396D01*
X2197415Y97021198D01*
X2347239Y97051000D01*
X2652761Y97051000D01*
X2802585Y97021198D01*
G37*
M02*
